<?xml version="1.0" encoding="UTF-8"?>
<!-- Editable MekBay convfighter armor paperdoll. Pink dashed rectangles mark pip areas and are removed at runtime. -->
<svg xmlns="http://www.w3.org/2000/svg" viewBox="14.894 17.53 253.028 362.788" role="img" aria-label="convfighter armor paperdoll">
    <g id="paperdoll-art-armor">
    <g transform="matrix(1,0,0,-1,-265.03692,693.82028)"><g transform="translate(486.128,411.9993)"><path id="path2184" d="m 0,0 v 3.502 c 0,1.412 -0.986,2.559 -2.205,2.559 -1.182,0 -2.136,-1.083 -2.191,-2.438 l -30.307,24.957 -8.286,30.237 c -0.032,8.261 0.178,16.945 0,24.939 l 58.728,2.317 v 24.461 l -61.15,50.358 -5.946,17.845 c -4.923,42.479 -12.286,72.574 -20.758,81.675 h -10.832 c -8.472,-9.101 -15.838,-39.196 -20.758,-81.675 l -5.948,-17.845 -61.151,-50.358 V 86.073 l 58.751,-2.317 c -0.177,-7.994 0.032,-16.678 0,-24.939 l -7.848,-29.365 -30.933,-25.475 c -0.193,1.185 -1.085,2.084 -2.162,2.084 -1.217,0 -2.204,-1.147 -2.204,-2.559 V 0.383 l -46.235,-38.077 -0.46,-33.486 98.637,-3.911 c 0.872,-7.174 1.811,-13.984 2.819,-20.367 h 2.779 c -0.002,-0.054 -0.018,-0.105 -0.018,-0.16 0,-1.59 1.293,-2.879 2.879,-2.879 h 13.433 c 1.586,0 2.874,1.289 2.874,2.879 0,0.055 -0.012,0.106 -0.014,0.16 h 1.948 c -0.002,-0.054 -0.014,-0.105 -0.014,-0.16 0,-1.59 1.288,-2.879 2.878,-2.879 h 13.428 c 1.591,0 2.877,1.289 2.877,2.879 0,0.055 -0.013,0.106 -0.017,0.16 h 2.785 c 1.005,6.383 1.945,13.193 2.814,20.367 l 98.638,3.911 v 32.613 z" style="fill:#ccced0;fill-opacity:1;fill-rule:nonzero;stroke:none" /></g></g>
    <g transform="matrix(1,0,0,-1,-265.03692,693.82028)"><g transform="translate(481.8257,415.8772)"><path id="path2188" d="m 0,0 v 3.502 c 0,1.411 -0.986,2.559 -2.205,2.559 -1.181,0 -2.136,-1.083 -2.191,-2.438 l -30.307,24.957 -8.286,30.237 c -0.032,8.261 0.178,16.945 0,24.939 l 58.728,2.317 v 24.461 l -61.15,50.358 -5.946,17.844 c -4.923,42.479 -12.286,72.575 -20.758,81.677 h -10.832 c -8.472,-9.102 -15.838,-39.198 -20.758,-81.676 l -5.948,-17.845 -61.151,-50.358 V 86.073 l 58.751,-2.317 c -0.177,-7.994 0.032,-16.678 0,-24.939 l -7.848,-29.365 -30.933,-25.475 c -0.193,1.185 -1.085,2.084 -2.162,2.084 -1.217,0 -2.204,-1.148 -2.204,-2.559 V 0.383 l -46.235,-38.077 -0.46,-33.486 98.637,-3.911 c 0.872,-7.174 1.811,-13.984 2.819,-20.367 h 2.779 c -0.002,-0.054 -0.018,-0.105 -0.018,-0.16 0,-1.59 1.293,-2.879 2.879,-2.879 h 13.433 c 1.586,0 2.874,1.289 2.874,2.879 0,0.055 -0.012,0.106 -0.014,0.16 h 1.948 c -0.002,-0.054 -0.014,-0.105 -0.014,-0.16 0,-1.59 1.288,-2.879 2.878,-2.879 h 13.428 c 1.591,0 2.877,1.289 2.877,2.879 0,0.055 -0.013,0.106 -0.017,0.16 h 2.785 c 1.005,6.383 1.945,13.193 2.814,20.367 l 98.638,3.911 v 32.613 z" style="fill:#ffffff;fill-opacity:1;fill-rule:nonzero;stroke:none" /></g></g>
    <g transform="matrix(1,0,0,-1,-265.03692,693.82028)"><g transform="translate(416.7626,560.2225)"><path id="path2192" d="m 0,0 c 0,-31.785 -5.582,-57.552 -12.47,-57.552 -6.888,0 -12.468,25.767 -12.468,57.552 0,31.786 5.58,57.554 12.468,57.554 C -5.582,57.554 0,31.786 0,0" style="fill:#a7a9ac;fill-opacity:1;fill-rule:nonzero;stroke:none" /></g></g>
    <g transform="matrix(1,0,0,-1,-265.03692,693.82028)"><g transform="translate(416.7626,560.2225)"><path id="path2196" d="m 0,0 c 0,-31.785 -5.582,-57.552 -12.47,-57.552 -6.888,0 -12.468,25.767 -12.468,57.552 0,31.786 5.58,57.554 12.468,57.554 C -5.582,57.554 0,31.786 0,0 Z" style="fill:none;stroke:#a7a9ac;stroke-width:0.96600002;stroke-linecap:butt;stroke-linejoin:miter;stroke-miterlimit:4;stroke-dasharray:none;stroke-opacity:1" /></g></g>
    <g transform="matrix(1,0,0,-1,-265.03692,693.82028)"><g transform="translate(414.744,537.0435)"><path id="path2200" d="m 0,0 c -13.666,0 -6.395,31.834 -6.395,31.834 0,0 3.408,22.801 3.408,29.556 0,8.493 -2.148,15.691 -5.124,18.216 -0.08,0.067 -0.161,0.136 -0.244,0.195 -0.065,0.049 -0.131,0.099 -0.195,0.143 -0.177,0.116 -0.351,0.217 -0.53,0.302 -0.034,0.016 -0.072,0.033 -0.108,0.048 -0.19,0.082 -0.376,0.149 -0.57,0.195 -0.026,0.006 -0.056,0.01 -0.084,0.017 -0.202,0.041 -0.401,0.067 -0.607,0.068 h -0.002 c -0.204,0 -0.408,-0.027 -0.61,-0.069 -0.027,-0.006 -0.055,-0.01 -0.081,-0.016 -0.194,-0.046 -0.387,-0.113 -0.579,-0.198 -0.032,-0.012 -0.06,-0.027 -0.091,-0.041 -0.185,-0.086 -0.367,-0.191 -0.545,-0.31 -0.057,-0.039 -0.113,-0.082 -0.168,-0.122 -0.097,-0.071 -0.192,-0.151 -0.289,-0.231 -2.963,-2.54 -5.103,-9.725 -5.103,-18.197 0,-6.755 3.411,-29.556 3.411,-29.556 0,0 7.269,-31.834 -6.395,-31.834 -0.483,0 -0.921,-0.047 -1.327,-0.131 1.459,-14.83 4.274,-26.376 7.745,-31.499 1.411,-1.616 2.708,-2.666 3.702,-2.864 0.109,-0.011 0.222,-0.037 0.332,-0.037 0.111,0 0.216,0.024 0.327,0.037 0.999,0.198 2.294,1.25 3.709,2.871 3.466,5.128 6.279,16.669 7.735,31.492 C 0.919,-0.047 0.479,0 0,0" style="fill:#ffffff;fill-opacity:1;fill-rule:nonzero;stroke:none" /></g></g>
    <g transform="matrix(1,0,0,-1,-265.03692,693.82028)"><g transform="translate(414.744,537.0435)"><path id="path2204" d="m 0,0 c -13.666,0 -6.395,31.834 -6.395,31.834 0,0 3.408,22.801 3.408,29.556 0,8.493 -2.148,15.691 -5.124,18.216 -0.08,0.067 -0.161,0.136 -0.244,0.195 -0.065,0.049 -0.131,0.099 -0.195,0.143 -0.177,0.116 -0.351,0.217 -0.53,0.302 -0.034,0.016 -0.072,0.033 -0.108,0.048 -0.19,0.082 -0.376,0.149 -0.57,0.195 -0.026,0.006 -0.056,0.01 -0.084,0.017 -0.202,0.041 -0.401,0.067 -0.607,0.068 h -0.002 c -0.204,0 -0.408,-0.027 -0.61,-0.069 -0.027,-0.006 -0.055,-0.01 -0.081,-0.016 -0.194,-0.046 -0.387,-0.113 -0.579,-0.198 -0.032,-0.012 -0.06,-0.027 -0.091,-0.041 -0.185,-0.086 -0.367,-0.191 -0.545,-0.31 -0.057,-0.039 -0.113,-0.082 -0.168,-0.122 -0.097,-0.071 -0.192,-0.151 -0.289,-0.231 -2.963,-2.54 -5.103,-9.725 -5.103,-18.197 0,-6.755 3.411,-29.556 3.411,-29.556 0,0 7.269,-31.834 -6.395,-31.834 -0.483,0 -0.921,-0.047 -1.327,-0.131 1.459,-14.83 4.274,-26.376 7.745,-31.499 1.411,-1.616 2.708,-2.666 3.702,-2.864 0.109,-0.011 0.222,-0.037 0.332,-0.037 0.111,0 0.216,0.024 0.327,0.037 0.999,0.198 2.294,1.25 3.709,2.871 3.466,5.128 6.279,16.669 7.735,31.492 C 0.919,-0.047 0.479,0 0,0 Z" style="fill:none;stroke:#a7a9ac;stroke-width:0.96600002;stroke-linecap:butt;stroke-linejoin:miter;stroke-miterlimit:4;stroke-dasharray:none;stroke-opacity:1" /></g></g>
    <g transform="matrix(1,0,0,-1,-265.03692,693.82028)"><g transform="translate(412.3311,521.6956)"><path id="path2208" d="m 0,0 c 0,-10.594 -3.6,-19.184 -8.038,-19.184 -4.442,0 -8.04,8.59 -8.04,19.184 0,10.595 3.598,19.185 8.04,19.185 C -3.6,19.185 0,10.595 0,0" style="fill:#ffffff;fill-opacity:1;fill-rule:nonzero;stroke:none" /></g></g>
    <g transform="matrix(1,0,0,-1,-265.03692,693.82028)"><g transform="translate(412.3311,521.6956)"><path id="path2212" d="m 0,0 c 0,-10.594 -3.6,-19.184 -8.038,-19.184 -4.442,0 -8.04,8.59 -8.04,19.184 0,10.595 3.598,19.185 8.04,19.185 C -3.6,19.185 0,10.595 0,0 Z" style="fill:none;stroke:#a7a9ac;stroke-width:0.96600002;stroke-linecap:butt;stroke-linejoin:miter;stroke-miterlimit:4;stroke-dasharray:none;stroke-opacity:1" /></g></g>
    <g transform="matrix(1,0,0,-1,-265.03692,693.82028)"><g transform="translate(398.3726,610.9026)"><path id="path2216" d="M 0,0 H 11.51" style="fill:none;stroke:#a7a9ac;stroke-width:0.96600002;stroke-linecap:butt;stroke-linejoin:miter;stroke-miterlimit:4;stroke-dasharray:none;stroke-opacity:1" /></g></g>
    <g transform="matrix(1,0,0,-1,-265.03692,693.82028)"><g transform="translate(392.6149,532.2465)"><path id="path2220" d="M 0,0 H 23.023" style="fill:none;stroke:#a7a9ac;stroke-width:0.96600002;stroke-linecap:butt;stroke-linejoin:miter;stroke-miterlimit:4;stroke-dasharray:none;stroke-opacity:1" /></g></g>
    <g transform="matrix(1,0,0,-1,-265.03692,693.82028)"><g transform="translate(418.2002,322.1778)"><path id="path2224" d="m 0,0 h -27.817 v 38.371 h 5.565 V 23.982 h 16.69 V 38.371 H 0 Z" style="fill:none;stroke:#a7a9ac;stroke-width:0.96600002;stroke-linecap:butt;stroke-linejoin:miter;stroke-miterlimit:4;stroke-dasharray:none;stroke-opacity:1" /></g></g>
    <g transform="matrix(1,0,0,-1,-265.03692,693.82028)"><g transform="translate(416.3683,664.7794)"><path id="path2228" d="M 0,0 H -23.984" style="fill:#a7a9ac;fill-opacity:1;fill-rule:nonzero;stroke:#a7a9ac;stroke-width:0.96600002;stroke-linecap:butt;stroke-linejoin:miter;stroke-miterlimit:4;stroke-dasharray:none;stroke-opacity:1" /></g></g>
    <g transform="matrix(1,0,0,-1,-265.03692,693.82028)"><g transform="translate(382.6841,626.41)"><path id="path2232" d="M 0,0 H 43.166" style="fill:#a7a9ac;fill-opacity:1;fill-rule:nonzero;stroke:#a7a9ac;stroke-width:0.96600002;stroke-linecap:butt;stroke-linejoin:miter;stroke-miterlimit:4;stroke-dasharray:none;stroke-opacity:1" /></g></g>
    <g transform="matrix(1,0,0,-1,-265.03692,693.82028)"><g transform="translate(483.4028,537.2025)"><path id="path2236" d="M 0,0 V -35.491" style="fill:#a7a9ac;fill-opacity:1;fill-rule:nonzero;stroke:#a7a9ac;stroke-width:0.96600002;stroke-linecap:butt;stroke-linejoin:miter;stroke-miterlimit:4;stroke-dasharray:none;stroke-opacity:1" /></g></g>
    <g transform="matrix(1,0,0,-1,-265.03692,693.82028)"><g transform="translate(483.4028,537.2025)"><path id="path2240" d="M 0,0 V -35.491" style="fill:#a7a9ac;fill-opacity:1;fill-rule:nonzero;stroke:#a7a9ac;stroke-width:0.96600002;stroke-linecap:butt;stroke-linejoin:miter;stroke-miterlimit:4;stroke-dasharray:none;stroke-opacity:1" /></g></g>
    <g transform="matrix(1,0,0,-1,-265.03692,693.82028)"><g transform="translate(325.1314,537.2025)"><path id="path2244" d="M 0,0 V -35.491" style="fill:#a7a9ac;fill-opacity:1;fill-rule:nonzero;stroke:#a7a9ac;stroke-width:0.96600002;stroke-linecap:butt;stroke-linejoin:miter;stroke-miterlimit:4;stroke-dasharray:none;stroke-opacity:1" /></g></g>
    <g transform="matrix(1,0,0,-1,-265.03692,693.82028)"><g transform="translate(436.3997,575.5714)"><path id="path2248" d="m 0,0 1.918,-23.021 44.877,-29.895 v -10.55 l -31.448,0.158 v -12.471" style="fill:none;stroke:#a7a9ac;stroke-width:0.96600002;stroke-linecap:butt;stroke-linejoin:miter;stroke-miterlimit:4;stroke-dasharray:none;stroke-opacity:1" /></g></g>
    <g transform="matrix(1,0,0,-1,-265.03692,693.82028)"><g transform="translate(295.6476,344.3994)"><path id="path2252" d="m 0,0 v 20.144 l 67.147,-1.92 V -2.878" style="fill:none;stroke:#a7a9ac;stroke-width:0.96600002;stroke-linecap:butt;stroke-linejoin:miter;stroke-miterlimit:4;stroke-dasharray:none;stroke-opacity:1" /></g></g>
    <g transform="matrix(1,0,0,-1,-265.03692,693.82028)"><g transform="translate(378.5677,340.7867)"><path id="path2256" d="M 0,0 -8.795,133.908" style="fill:#a7a9ac;fill-opacity:1;fill-rule:nonzero;stroke:#000000;stroke-width:0.96600002;stroke-linecap:butt;stroke-linejoin:miter;stroke-miterlimit:4;stroke-dasharray:none;stroke-opacity:1" /></g></g>
    <g transform="matrix(1,0,0,-1,-265.03692,693.82028)"><g transform="translate(329.2214,343.441)"><path id="path2260" d="M 0,0 V 78.497" style="fill:none;stroke:#a7a9ac;stroke-width:0.96600002;stroke-linecap:butt;stroke-linejoin:miter;stroke-miterlimit:4;stroke-dasharray:none;stroke-opacity:1" /></g></g>
    <g transform="matrix(1,0,0,-1,-265.03692,693.82028)"><g transform="translate(512.8593,344.3994)"><path id="path2264" d="m 0,0 v 20.144 l -67.146,-1.92 V -2.878" style="fill:none;stroke:#a7a9ac;stroke-width:0.96600002;stroke-linecap:butt;stroke-linejoin:miter;stroke-miterlimit:4;stroke-dasharray:none;stroke-opacity:1" /></g></g>
    <g transform="matrix(1,0,0,-1,-265.03692,693.82028)"><g transform="translate(429.9402,340.7867)"><path id="path2268" d="M 0,0 8.897,133.908" style="fill:#a7a9ac;fill-opacity:1;fill-rule:nonzero;stroke:#000000;stroke-width:0.96600002;stroke-linecap:butt;stroke-linejoin:miter;stroke-miterlimit:4;stroke-dasharray:none;stroke-opacity:1" /></g></g>
    <g transform="matrix(1,0,0,-1,-265.03692,693.82028)"><g transform="translate(521.4902,383.7267)"><path id="path2272" d="M 0,0 V -39.327" style="fill:#a7a9ac;fill-opacity:1;fill-rule:nonzero;stroke:#a7a9ac;stroke-width:0.96600002;stroke-linecap:butt;stroke-linejoin:miter;stroke-miterlimit:4;stroke-dasharray:none;stroke-opacity:1" /></g></g>
    <g transform="matrix(1,0,0,-1,-265.03692,693.82028)"><g transform="translate(479.2845,343.441)"><path id="path2276" d="M 0,0 V 78.497" style="fill:none;stroke:#a7a9ac;stroke-width:0.96600002;stroke-linecap:butt;stroke-linejoin:miter;stroke-miterlimit:4;stroke-dasharray:none;stroke-opacity:1" /></g></g>
    <g transform="matrix(1,0,0,-1,-265.03692,693.82028)"><g transform="translate(388.6927,326.1735)"><path id="path2280" d="M 0,0 H -5.756 V 62.349 L -2.707,69.063 0,62.349 Z" style="fill:none;stroke:#a7a9ac;stroke-width:0.96600002;stroke-linecap:butt;stroke-linejoin:miter;stroke-miterlimit:4;stroke-dasharray:none;stroke-opacity:1" /></g></g>
    <g transform="matrix(1,0,0,-1,-265.03692,693.82028)"><g transform="translate(426.101,326.1735)"><path id="path2284" d="M 0,0 H -5.754 V 62.349 L -2.707,69.063 0,62.349 Z" style="fill:none;stroke:#a7a9ac;stroke-width:0.96600002;stroke-linecap:butt;stroke-linejoin:miter;stroke-miterlimit:4;stroke-dasharray:none;stroke-opacity:1" /></g></g>
    <g transform="matrix(1,0,0,-1,-265.03692,693.82028)"><g transform="translate(361.9246,445.3289)"><path id="path2288" d="M 0,0 16.643,-104.542" style="fill:none;stroke:#a7a9ac;stroke-width:0.96600002;stroke-linecap:butt;stroke-linejoin:miter;stroke-miterlimit:4;stroke-dasharray:none;stroke-opacity:1" /></g></g>
    <g transform="matrix(1,0,0,-1,-265.03692,693.82028)"><g transform="translate(446.6718,444.3701)"><path id="path2292" d="M 0,0 -16.643,-104.543" style="fill:none;stroke:#a7a9ac;stroke-width:0.96600002;stroke-linecap:butt;stroke-linejoin:miter;stroke-miterlimit:4;stroke-dasharray:none;stroke-opacity:1" /></g></g>
    <g transform="matrix(1,0,0,-1,-265.03692,693.82028)"><g transform="translate(438.837,499.633)"><path id="path2296" d="M 0,0 -7.852,93.045 -60.951,93.204 -69.064,0" style="fill:none;stroke:#a7a9ac;stroke-width:0.96600002;stroke-linecap:butt;stroke-linejoin:miter;stroke-miterlimit:4;stroke-dasharray:none;stroke-opacity:1" /></g></g>
    <g transform="matrix(1,0,0,-1,-265.03692,693.82028)"><g transform="translate(370.5556,499.633)"><path id="path2300" d="M 0,0 H 68.106" style="fill:none;stroke:#a7a9ac;stroke-width:0.96600002;stroke-linecap:butt;stroke-linejoin:miter;stroke-miterlimit:4;stroke-dasharray:none;stroke-opacity:1" /></g></g>
    <g transform="matrix(1,0,0,-1,-265.03692,693.82028)"><g transform="translate(372.1308,576.5312)"><path id="path2304" d="m 0,0 -1.916,-23.022 -45.291,-29.894 v -10.551 l 31.862,0.159 V -75.78" style="fill:none;stroke:#a7a9ac;stroke-width:0.96600002;stroke-linecap:butt;stroke-linejoin:miter;stroke-miterlimit:4;stroke-dasharray:none;stroke-opacity:1" /></g></g>
    <g transform="matrix(1,0,0,-1,-265.03692,693.82028)"><g transform="translate(481.8257,415.8772)"><path id="path2308" d="m 0,0 v 3.502 c 0,1.411 -0.986,2.559 -2.205,2.559 -1.181,0 -2.136,-1.083 -2.191,-2.438 l -30.307,24.957 -8.286,30.237 c -0.032,8.261 0.178,16.945 0,24.939 l 58.728,2.317 v 24.461 l -61.15,50.358 -5.946,17.844 c -4.923,42.479 -12.286,72.575 -20.758,81.677 h -10.832 c -8.472,-9.102 -15.838,-39.198 -20.758,-81.676 l -5.948,-17.845 -61.151,-50.358 V 86.073 l 58.751,-2.317 c -0.177,-7.994 0.032,-16.678 0,-24.939 l -7.848,-29.365 -30.933,-25.475 c -0.193,1.185 -1.085,2.084 -2.162,2.084 -1.217,0 -2.204,-1.148 -2.204,-2.559 V 0.383 l -46.235,-38.077 -0.46,-33.486 98.637,-3.911 c 0.872,-7.174 1.811,-13.984 2.819,-20.367 h 2.779 c -0.002,-0.054 -0.018,-0.105 -0.018,-0.16 0,-1.59 1.293,-2.879 2.879,-2.879 h 13.433 c 1.586,0 2.874,1.289 2.874,2.879 0,0.055 -0.012,0.106 -0.014,0.16 h 1.948 c -0.002,-0.054 -0.014,-0.105 -0.014,-0.16 0,-1.59 1.288,-2.879 2.878,-2.879 h 13.428 c 1.591,0 2.877,1.289 2.877,2.879 0,0.055 -0.013,0.106 -0.017,0.16 h 2.785 c 1.005,6.383 1.945,13.193 2.814,20.367 l 98.638,3.911 v 32.613 z" style="fill:none;stroke:#000000;stroke-width:1.93200004;stroke-linecap:butt;stroke-linejoin:miter;stroke-miterlimit:4;stroke-dasharray:none;stroke-opacity:1" /></g></g>
    <g transform="matrix(1,0,0,-1,-265.03692,693.82028)"><g transform="translate(437.5617,481.1605)"><path id="path5236" d="m 0,0 c 0,-6.402 -4.45,-11.591 -9.939,-11.591 h -47.202 c -5.49,0 -9.939,5.189 -9.939,11.591 v 30.21 c 0,6.401 4.449,11.591 9.939,11.591 H -9.939 C -4.45,41.801 0,36.611 0,30.21 Z" style="fill:#ccced0;fill-opacity:1;fill-rule:nonzero;stroke:none" /></g></g>
    <g transform="matrix(1,0,0,-1,-265.03692,693.82028)"><g transform="translate(437.5617,481.1605)"><path id="path5240" d="m 0,0 c 0,-6.402 -4.45,-11.591 -9.939,-11.591 h -47.202 c -5.49,0 -9.939,5.189 -9.939,11.591 v 30.21 c 0,6.401 4.449,11.591 9.939,11.591 H -9.939 C -4.45,41.801 0,36.611 0,30.21 Z" style="fill:none;stroke:#000000;stroke-width:1.93200004;stroke-linecap:butt;stroke-linejoin:miter;stroke-miterlimit:4;stroke-dasharray:none;stroke-opacity:1" /></g></g>
    </g>
</svg>
