<?xml version="1.0" encoding="UTF-8"?>
<!-- Editable MekBay naval-noturret armor paperdoll. Pink dashed rectangles mark pip areas and are removed at runtime. -->
<svg xmlns="http://www.w3.org/2000/svg" viewBox="1.926 19.899 179.887 587.309" role="img" aria-label="naval-noturret armor paperdoll">
    <g id="paperdoll-art-armor">
    <g transform="translate(-399.18801,-40.430276)"><path fill="#CCCECF" id="path265" d="M471.111,647.098c0,0-7.461,0.54-6.394-8.374h-56.63v-3.806l27.401-44.909h9.136l-5.481-14.462h-34.711  v-9.136l27.404-13.701c0,0-18.271-47.442-21.009-87.022V190.582c0,0-1.827-32.731,4.566-51c0,0,22.379-70.789,75.814-76.12h3.02  c53.436,5.331,75.815,76.12,75.815,76.12c6.392,18.269,4.565,51,4.565,51v275.106c-2.74,39.58-21.01,87.022-21.01,87.022  l27.404,13.701v9.136h-34.709l-5.482,14.462h9.135l27.401,44.909v3.806h-56.632c1.069,8.914-6.392,8.374-6.392,8.374" /></g>
    <g transform="translate(-399.18801,-40.430276)"><path fill="#FFFFFF" id="path266" d="M468.277,643.965c0,0-7.463,0.541-6.394-8.374h-56.631v-3.807l27.401-44.908h9.136l-5.482-14.463h-34.711  v-9.136l27.405-13.7c0,0-18.27-47.443-21.009-87.022V187.448c0,0-1.827-32.731,4.565-51c0,0,22.379-70.789,75.815-76.118h3.019  c53.438,5.329,75.816,76.118,75.816,76.118c6.393,18.269,4.564,51,4.564,51v275.106c-2.738,39.579-21.008,87.022-21.008,87.022  l27.402,13.7v9.136H543.46l-5.483,14.463h9.136l27.402,44.908v3.807h-56.633c1.07,8.915-6.392,8.374-6.392,8.374" /></g>
    <g transform="translate(-399.18801,-40.430276)"><path fill="none" id="path267" stroke="#434344" stroke-width="1.522" d="M468.276,643.965c0,0-7.461,0.54-6.394-8.374h-56.63v-3.807  l27.401-44.908h9.136l-5.482-14.463h-34.711v-9.136l27.405-13.7c0,0-18.27-47.443-21.009-87.022V187.448  c0,0-1.828-32.731,4.565-50.999c0,0,22.379-70.791,75.815-76.12h3.019c53.438,5.329,75.816,76.12,75.816,76.12  c6.393,18.268,4.564,50.999,4.564,50.999v275.106c-2.738,39.579-21.008,87.022-21.008,87.022l27.402,13.7v9.136H543.46  l-5.483,14.463h9.136l27.4,44.908v3.807h-56.631c1.07,8.914-6.393,8.374-6.393,8.374H468.276z" /></g>
    <g transform="translate(-399.18801,-40.430276)"><path fill="#CCCECF" id="path268" d="M489.352,286.438v228.855h34.967l8.495,11.355V175.521h-43.462v110.917" /></g>
    <g transform="translate(-399.18801,-40.430276)"><path fill="#CCCECF" id="path269" d="M489.314,515.292V175.521h-43.462v350.656l8.141-10.885" /></g>
    <g transform="translate(-399.18801,-40.430276)"><path fill="none" id="path270" stroke="#434344" stroke-width="0.761" d="M460.029,632.165h-55.261 M461.4,635.591l-24.207-66.604h-36.079   M518.769,632.165h55.263 M517.399,635.591l24.205-66.604h36.08" /></g>
    <g transform="translate(-399.18801,-40.430276)"><path fill="none" id="path271" stroke="#434344" stroke-width="1" d="M489.352,286.438v228.882h34.967l8.533,11.408v-351.18h-43.5v110.917z M489.353,515.292V175.521h-43.5v350.656l8.141-10.885  H489.353z M567.729,141.118H411.371l33.032,34.403h90.293L567.729,141.118z" /></g>
    <g transform="translate(-399.18801,-40.430276)"><polyline fill="#CCCECF" id="polyline186" points="567.729,141.118 411.371,141.118 444.404,175.521 534.697,175.521" /></g>
    <g transform="translate(-399.18801,-40.430276)"><polyline fill="#CCCECF" id="polyline190" points="428.266,549.692 550.049,549.692 524.319,515.292 453.993,515.292" /></g>
    <g transform="translate(-399.18801,-40.430276)"><polygon fill="none" id="polygon192" stroke="#434344" stroke-width="1" points="428.266,549.692 550.049,549.692 524.319,515.292 453.993,515.292" /></g>
    <g transform="translate(-399.18801,-40.430276)"><g transform="translate(489.63,66.58)"><rect fill="none" height="10" id="armorFRRow00" width="40.46" x="-20.23" y="0" /></g></g>
    <g transform="translate(-399.18801,-40.430276)"><g transform="translate(489.63,66.58)"><rect fill="none" height="10" id="armorFRRow02" width="73.78" x="-36.89" y="10" /></g></g>
    <g transform="translate(-399.18801,-40.430276)"><g transform="translate(489.63,66.58)"><rect fill="none" height="10" id="armorFRRow04" width="88.38" x="-44.19" y="20" /></g></g>
    <g transform="translate(-399.18801,-40.430276)"><g transform="translate(489.63,66.58)"><rect fill="none" height="10" id="armorFRRow06" width="109.74" x="-54.87" y="30" /></g></g>
    <g transform="translate(-399.18801,-40.430276)"><g transform="translate(489.63,66.58)"><rect fill="none" height="10" id="armorFRRow07" width="121.74" x="-60.87" y="40" /></g></g>
    <g transform="translate(-399.18801,-40.430276)"><g transform="translate(489.63,66.58)"><rect fill="none" height="10" id="armorFRRow08" width="134.44" x="-67.22" y="50" /></g></g>
    <g transform="translate(-399.18801,-40.430276)"><g transform="translate(489.63,66.58)"><rect fill="none" height="10" id="armorFRRow09" width="143.64" x="-71.82" y="60" /></g></g>
    <g transform="translate(-399.18801,-40.430276)"><g transform="translate(533.9,149)"><rect fill="none" height="10" id="armorRSRow00" width="10" x="24.92" y="0" /></g></g>
    <g transform="translate(-399.18801,-40.430276)"><g transform="translate(533.9,149)"><rect fill="none" height="10" id="armorRSRow01" width="16.64" x="17.93" y="10" /></g></g>
    <g transform="translate(-399.18801,-40.430276)"><g transform="translate(533.9,149)"><rect fill="none" height="10" id="armorRSRow02" width="27.65" x="8.2" y="20" /></g></g>
    <g transform="translate(-399.18801,-40.430276)"><g transform="translate(533.9,149)"><rect fill="none" height="10" id="armorRSRow03" width="36" x="0" y="30" /></g></g>
    <g transform="translate(-399.18801,-40.430276)"><g transform="translate(533.9,149)"><rect fill="none" height="10" id="armorRSRow04" width="36" x="0" y="40" /></g></g>
    <g transform="translate(-399.18801,-40.430276)"><g transform="translate(533.9,149)"><rect fill="none" height="10" id="armorRSRow05" width="36" x="0" y="50" /></g></g>
    <g transform="translate(-399.18801,-40.430276)"><g transform="translate(533.9,149)"><rect fill="none" height="10" id="armorRSRow06" width="36" x="0" y="60" /></g></g>
    <g transform="translate(-399.18801,-40.430276)"><g transform="translate(533.9,149)"><rect fill="none" height="10" id="armorRSRow07" width="36" x="0" y="70" /></g></g>
    <g transform="translate(-399.18801,-40.430276)"><g transform="translate(533.9,149)"><rect fill="none" height="10" id="armorRSRow08" width="36" x="0" y="80" /></g></g>
    <g transform="translate(-399.18801,-40.430276)"><g transform="translate(533.9,149)"><rect fill="none" height="10" id="armorRSRow09" width="36" x="0" y="90" /></g></g>
    <g transform="translate(-399.18801,-40.430276)"><g transform="translate(533.9,149)"><rect fill="none" height="10" id="rect274" width="36" x="0" y="100" /></g></g>
    <g transform="translate(-399.18801,-40.430276)"><g transform="translate(533.9,149)"><rect fill="none" height="10" id="armorRSRow11" width="36" x="0" y="110" /></g></g>
    <g transform="translate(-399.18801,-40.430276)"><g transform="translate(533.9,149)"><rect fill="none" height="10" id="armorRSRow12" width="36" x="0" y="120" /></g></g>
    <g transform="translate(-399.18801,-40.430276)"><g transform="translate(533.9,149)"><rect fill="none" height="10" id="armorRSRow13" width="36" x="0" y="130" /></g></g>
    <g transform="translate(-399.18801,-40.430276)"><g transform="translate(533.9,149)"><rect fill="none" height="10" id="armorRSRow14" width="36" x="0" y="140" /></g></g>
    <g transform="translate(-399.18801,-40.430276)"><g transform="translate(533.9,149)"><rect fill="none" height="10" id="armorRSRow15" width="36" x="0" y="150" /></g></g>
    <g transform="translate(-399.18801,-40.430276)"><g transform="translate(533.9,149)"><rect fill="none" height="10" id="armorRSRow16" width="36" x="0" y="160" /></g></g>
    <g transform="translate(-399.18801,-40.430276)"><g transform="translate(533.9,149)"><rect fill="none" height="10" id="armorRSRow17" width="36" x="0" y="170" /></g></g>
    <g transform="translate(-399.18801,-40.430276)"><g transform="translate(533.9,149)"><rect fill="none" height="10" id="armorRSRow18" width="36" x="0" y="180" /></g></g>
    <g transform="translate(-399.18801,-40.430276)"><g transform="translate(533.9,149)"><rect fill="none" height="10" id="armorRSRow19" width="36" x="0" y="190" /></g></g>
    <g transform="translate(-399.18801,-40.430276)"><g transform="translate(533.9,149)"><rect fill="none" height="10" id="armorRSRow20" width="36" x="0" y="200" /></g></g>
    <g transform="translate(-399.18801,-40.430276)"><g transform="translate(533.9,149)"><rect fill="none" height="10" id="armorRSRow21" width="36" x="0" y="210" /></g></g>
    <g transform="translate(-399.18801,-40.430276)"><g transform="translate(533.9,149)"><rect fill="none" height="10" id="armorRSRow22" width="36" x="0" y="220" /></g></g>
    <g transform="translate(-399.18801,-40.430276)"><g transform="translate(533.9,149)"><rect fill="none" height="10" id="armorRSRow23" width="36" x="0" y="230" /></g></g>
    <g transform="translate(-399.18801,-40.430276)"><g transform="translate(533.9,149)"><rect fill="none" height="10" id="armorRSRow24" width="36" x="0" y="240" /></g></g>
    <g transform="translate(-399.18801,-40.430276)"><g transform="translate(533.9,149)"><rect fill="none" height="10" id="armorRSRow25" width="36" x="0" y="250" /></g></g>
    <g transform="translate(-399.18801,-40.430276)"><g transform="translate(533.9,149)"><rect fill="none" height="10" id="armorRSRow26" width="36" x="0" y="260" /></g></g>
    <g transform="translate(-399.18801,-40.430276)"><g transform="translate(533.9,149)"><rect fill="none" height="10" id="armorRSRow27" width="36" x="0" y="270" /></g></g>
    <g transform="translate(-399.18801,-40.430276)"><g transform="translate(533.9,149)"><rect fill="none" height="10" id="armorRSRow28" width="36" x="0" y="280" /></g></g>
    <g transform="translate(-399.18801,-40.430276)"><g transform="translate(533.9,149)"><rect fill="none" height="10" id="armorRSRow29" width="36" x="0" y="290" /></g></g>
    <g transform="translate(-399.18801,-40.430276)"><g transform="translate(533.9,149)"><rect fill="none" height="10" id="armorRSRow30" width="36" x="0" y="300" /></g></g>
    <g transform="translate(-399.18801,-40.430276)"><g transform="translate(533.9,149)"><rect fill="none" height="10" id="armorRSRow31" width="36" x="0" y="310" /></g></g>
    <g transform="translate(-399.18801,-40.430276)"><g transform="translate(533.9,149)"><rect fill="none" height="10" id="armorRSRow32" width="34" x="0" y="320" /></g></g>
    <g transform="translate(-399.18801,-40.430276)"><g transform="translate(533.9,149)"><rect fill="none" height="10" id="armorRSRow33" width="32.4" x="0" y="330" /></g></g>
    <g transform="translate(-399.18801,-40.430276)"><g transform="translate(533.9,149)"><rect fill="none" height="10" id="armorRSRow34" width="30.7" x="0" y="340" /></g></g>
    <g transform="translate(-399.18801,-40.430276)"><g transform="translate(533.9,149)"><rect fill="none" height="10" id="armorRSRow35" width="28.1" x="0" y="350" /></g></g>
    <g transform="translate(-399.18801,-40.430276)"><g transform="translate(533.9,149)"><rect fill="none" height="10" id="armorRSRow36" width="25.4" x="0" y="360" /></g></g>
    <g transform="translate(-399.18801,-40.430276)"><g transform="translate(533.9,149)"><rect fill="none" height="10" id="armorRSRow37" width="22.4" x="0" y="370" /></g></g>
    <g transform="translate(-399.18801,-40.430276)"><g transform="matrix(-1,0,0,1,444.36,149)"><rect fill="none" height="10" id="armorLSRow00" width="10" x="24.92" y="0" /></g></g>
    <g transform="translate(-399.18801,-40.430276)"><g transform="matrix(-1,0,0,1,444.36,149)"><rect fill="none" height="10" id="armorLSRow01" width="16.64" x="17.93" y="10" /></g></g>
    <g transform="translate(-399.18801,-40.430276)"><g transform="matrix(-1,0,0,1,444.36,149)"><rect fill="none" height="10" id="armorLSRow02" width="27.65" x="8.2" y="20" /></g></g>
    <g transform="translate(-399.18801,-40.430276)"><g transform="matrix(-1,0,0,1,444.36,149)"><rect fill="none" height="10" id="armorLSRow03" width="36" x="0" y="30" /></g></g>
    <g transform="translate(-399.18801,-40.430276)"><g transform="matrix(-1,0,0,1,444.36,149)"><rect fill="none" height="10" id="armorLSRow04" width="36" x="0" y="40" /></g></g>
    <g transform="translate(-399.18801,-40.430276)"><g transform="matrix(-1,0,0,1,444.36,149)"><rect fill="none" height="10" id="armorLSRow05" width="36" x="0" y="50" /></g></g>
    <g transform="translate(-399.18801,-40.430276)"><g transform="matrix(-1,0,0,1,444.36,149)"><rect fill="none" height="10" id="armorLSRow06" width="36" x="0" y="60" /></g></g>
    <g transform="translate(-399.18801,-40.430276)"><g transform="matrix(-1,0,0,1,444.36,149)"><rect fill="none" height="10" id="armorLSRow07" width="36" x="0" y="70" /></g></g>
    <g transform="translate(-399.18801,-40.430276)"><g transform="matrix(-1,0,0,1,444.36,149)"><rect fill="none" height="10" id="armorLSRow08" width="36" x="0" y="80" /></g></g>
    <g transform="translate(-399.18801,-40.430276)"><g transform="matrix(-1,0,0,1,444.36,149)"><rect fill="none" height="10" id="armorLSRow09" width="36" x="0" y="90" /></g></g>
    <g transform="translate(-399.18801,-40.430276)"><g transform="matrix(-1,0,0,1,444.36,149)"><rect fill="none" height="10" id="rect275" width="36" x="0" y="100" /></g></g>
    <g transform="translate(-399.18801,-40.430276)"><g transform="matrix(-1,0,0,1,444.36,149)"><rect fill="none" height="10" id="armorLSRow11" width="36" x="0" y="110" /></g></g>
    <g transform="translate(-399.18801,-40.430276)"><g transform="matrix(-1,0,0,1,444.36,149)"><rect fill="none" height="10" id="armorLSRow12" width="36" x="0" y="120" /></g></g>
    <g transform="translate(-399.18801,-40.430276)"><g transform="matrix(-1,0,0,1,444.36,149)"><rect fill="none" height="10" id="armorLSRow13" width="36" x="0" y="130" /></g></g>
    <g transform="translate(-399.18801,-40.430276)"><g transform="matrix(-1,0,0,1,444.36,149)"><rect fill="none" height="10" id="armorLSRow14" width="36" x="0" y="140" /></g></g>
    <g transform="translate(-399.18801,-40.430276)"><g transform="matrix(-1,0,0,1,444.36,149)"><rect fill="none" height="10" id="armorLSRow15" width="36" x="0" y="150" /></g></g>
    <g transform="translate(-399.18801,-40.430276)"><g transform="matrix(-1,0,0,1,444.36,149)"><rect fill="none" height="10" id="armorLSRow16" width="36" x="0" y="160" /></g></g>
    <g transform="translate(-399.18801,-40.430276)"><g transform="matrix(-1,0,0,1,444.36,149)"><rect fill="none" height="10" id="armorLSRow17" width="36" x="0" y="170" /></g></g>
    <g transform="translate(-399.18801,-40.430276)"><g transform="matrix(-1,0,0,1,444.36,149)"><rect fill="none" height="10" id="armorLSRow18" width="36" x="0" y="180" /></g></g>
    <g transform="translate(-399.18801,-40.430276)"><g transform="matrix(-1,0,0,1,444.36,149)"><rect fill="none" height="10" id="armorLSRow19" width="36" x="0" y="190" /></g></g>
    <g transform="translate(-399.18801,-40.430276)"><g transform="matrix(-1,0,0,1,444.36,149)"><rect fill="none" height="10" id="armorLSRow20" width="36" x="0" y="200" /></g></g>
    <g transform="translate(-399.18801,-40.430276)"><g transform="matrix(-1,0,0,1,444.36,149)"><rect fill="none" height="10" id="armorLSRow21" width="36" x="0" y="210" /></g></g>
    <g transform="translate(-399.18801,-40.430276)"><g transform="matrix(-1,0,0,1,444.36,149)"><rect fill="none" height="10" id="armorLSRow22" width="36" x="0" y="220" /></g></g>
    <g transform="translate(-399.18801,-40.430276)"><g transform="matrix(-1,0,0,1,444.36,149)"><rect fill="none" height="10" id="armorLSRow23" width="36" x="0" y="230" /></g></g>
    <g transform="translate(-399.18801,-40.430276)"><g transform="matrix(-1,0,0,1,444.36,149)"><rect fill="none" height="10" id="armorLSRow24" width="36" x="0" y="240" /></g></g>
    <g transform="translate(-399.18801,-40.430276)"><g transform="matrix(-1,0,0,1,444.36,149)"><rect fill="none" height="10" id="armorLSRow25" width="36" x="0" y="250" /></g></g>
    <g transform="translate(-399.18801,-40.430276)"><g transform="matrix(-1,0,0,1,444.36,149)"><rect fill="none" height="10" id="armorLSRow26" width="36" x="0" y="260" /></g></g>
    <g transform="translate(-399.18801,-40.430276)"><g transform="matrix(-1,0,0,1,444.36,149)"><rect fill="none" height="10" id="armorLSRow27" width="36" x="0" y="270" /></g></g>
    <g transform="translate(-399.18801,-40.430276)"><g transform="matrix(-1,0,0,1,444.36,149)"><rect fill="none" height="10" id="armorLSRow28" width="36" x="0" y="280" /></g></g>
    <g transform="translate(-399.18801,-40.430276)"><g transform="matrix(-1,0,0,1,444.36,149)"><rect fill="none" height="10" id="armorLSRow29" width="36" x="0" y="290" /></g></g>
    <g transform="translate(-399.18801,-40.430276)"><g transform="matrix(-1,0,0,1,444.36,149)"><rect fill="none" height="10" id="armorLSRow30" width="36" x="0" y="300" /></g></g>
    <g transform="translate(-399.18801,-40.430276)"><g transform="matrix(-1,0,0,1,444.36,149)"><rect fill="none" height="10" id="armorLSRow31" width="36" x="0" y="310" /></g></g>
    <g transform="translate(-399.18801,-40.430276)"><g transform="matrix(-1,0,0,1,444.36,149)"><rect fill="none" height="10" id="armorLSRow32" width="34" x="0" y="320" /></g></g>
    <g transform="translate(-399.18801,-40.430276)"><g transform="matrix(-1,0,0,1,444.36,149)"><rect fill="none" height="10" id="armorLSRow33" width="32.4" x="0" y="330" /></g></g>
    <g transform="translate(-399.18801,-40.430276)"><g transform="matrix(-1,0,0,1,444.36,149)"><rect fill="none" height="10" id="armorLSRow34" width="30.7" x="0" y="340" /></g></g>
    <g transform="translate(-399.18801,-40.430276)"><g transform="matrix(-1,0,0,1,444.36,149)"><rect fill="none" height="10" id="armorLSRow35" width="28.1" x="0" y="350" /></g></g>
    <g transform="translate(-399.18801,-40.430276)"><g transform="matrix(-1,0,0,1,444.36,149)"><rect fill="none" height="10" id="armorLSRow36" width="25.4" x="0" y="360" /></g></g>
    <g transform="translate(-399.18801,-40.430276)"><g transform="matrix(-1,0,0,1,444.36,149)"><rect fill="none" height="10" id="armorLSRow37" width="22.4" x="0" y="370" /></g></g>
    <g transform="translate(-399.18801,-40.430276)"><g transform="translate(489.63,556.78)"><rect fill="none" height="10" id="armorRRRow00" width="144" x="-72" y="0" /></g></g>
    <g transform="translate(-399.18801,-40.430276)"><g transform="translate(489.63,556.78)"><rect fill="none" height="10" id="armorRRRow02" width="94" x="-47" y="10" /></g></g>
    <g transform="translate(-399.18801,-40.430276)"><g transform="translate(489.63,556.78)"><rect fill="none" height="10" id="armorRRRow04" width="88" x="-44" y="20" /></g></g>
    <g transform="translate(-399.18801,-40.430276)"><g transform="translate(489.63,556.78)"><rect fill="none" height="10" id="armorRRRow06" width="80" x="-40" y="30" /></g></g>
    <g transform="translate(-399.18801,-40.430276)"><g transform="translate(489.63,556.78)"><rect fill="none" height="10" id="armorRRRow07" width="74" x="-37" y="40" /></g></g>
    <g transform="translate(-399.18801,-40.430276)"><g transform="translate(489.63,556.78)"><rect fill="none" height="10" id="armorRRRow08" width="66" x="-33" y="50" /></g></g>
    <g transform="translate(-399.18801,-40.430276)"><g transform="translate(489.63,556.78)"><rect fill="none" height="10" id="armorRRRow09" width="58" x="-29" y="60" /></g></g>
    <g transform="translate(-399.18801,-40.430276)"><g transform="translate(489.63,556.78)"><rect fill="none" height="10" id="armorRRRow10" width="52" x="-26" y="70" /></g></g>
    <g transform="translate(-399.18801,-40.430276)"><g transform="translate(489.6,144.06)"><rect fill="none" height="6.8" id="structurePipsFR00" width="136.6" x="-68.3" y="0" /></g></g>
    <g transform="translate(-399.18801,-40.430276)"><g transform="translate(489.6,144.06)"><rect fill="none" height="6.8" id="structurePipsFR01" width="125.4" x="-62.7" y="6.8" /></g></g>
    <g transform="translate(-399.18801,-40.430276)"><g transform="translate(489.6,144.06)"><rect fill="none" height="6.8" id="structurePipsFR02" width="106.56" x="-53.28" y="13.6" /></g></g>
    <g transform="translate(-399.18801,-40.430276)"><g transform="translate(489.6,144.06)"><rect fill="none" height="6.8" id="structurePipsFR03" width="98" x="-49" y="20.4" /></g></g>
    <g transform="translate(-399.18801,-40.430276)"><g transform="translate(504.63,177.88)"><rect fill="none" height="6.8" id="structurePipsRS00" width="12" x="0" y="0" /></g></g>
    <g transform="translate(-399.18801,-40.430276)"><g transform="translate(504.63,177.88)"><rect fill="none" height="6.8" id="structurePipsRS01" width="12" x="0" y="6.8" /></g></g>
    <g transform="translate(-399.18801,-40.430276)"><g transform="translate(504.63,177.88)"><rect fill="none" height="6.8" id="structurePipsRS02" width="12" x="0" y="13.6" /></g></g>
    <g transform="translate(-399.18801,-40.430276)"><g transform="translate(504.63,177.88)"><rect fill="none" height="6.8" id="structurePipsRS03" width="12" x="0" y="20.4" /></g></g>
    <g transform="translate(-399.18801,-40.430276)"><g transform="translate(504.63,177.88)"><rect fill="none" height="6.8" id="structurePipsRS04" width="12" x="0" y="27.2" /></g></g>
    <g transform="translate(-399.18801,-40.430276)"><g transform="translate(504.63,177.88)"><rect fill="none" height="6.8" id="structurePipsRS05" width="12" x="0" y="34.0" /></g></g>
    <g transform="translate(-399.18801,-40.430276)"><g transform="translate(504.63,177.88)"><rect fill="none" height="6.8" id="structurePipsRS06" width="12" x="0" y="40.8" /></g></g>
    <g transform="translate(-399.18801,-40.430276)"><g transform="translate(504.63,177.88)"><rect fill="none" height="6.8" id="structurePipsRS07" width="12" x="0" y="47.6" /></g></g>
    <g transform="translate(-399.18801,-40.430276)"><g transform="translate(504.63,177.88)"><rect fill="none" height="6.8" id="structurePipsRS08" width="12" x="0" y="54.4" /></g></g>
    <g transform="translate(-399.18801,-40.430276)"><g transform="translate(504.63,177.88)"><rect fill="none" height="6.8" id="structurePipsRS09" width="12" x="0" y="61.2" /></g></g>
    <g transform="translate(-399.18801,-40.430276)"><g transform="translate(504.63,177.88)"><rect fill="none" height="6.8" id="structurePipsRS10" width="12" x="0" y="68" /></g></g>
    <g transform="translate(-399.18801,-40.430276)"><g transform="translate(504.63,177.88)"><rect fill="none" height="6.8" id="structurePipsRS11" width="12" x="0" y="74.8" /></g></g>
    <g transform="translate(-399.18801,-40.430276)"><g transform="translate(504.63,177.88)"><rect fill="none" height="6.8" id="structurePipsRS12" width="12" x="0" y="81.6" /></g></g>
    <g transform="translate(-399.18801,-40.430276)"><g transform="translate(504.63,177.88)"><rect fill="none" height="6.8" id="structurePipsRS13" width="12" x="0" y="88.4" /></g></g>
    <g transform="translate(-399.18801,-40.430276)"><g transform="translate(504.63,177.88)"><rect fill="none" height="6.8" id="structurePipsRS14" width="12" x="0" y="95.2" /></g></g>
    <g transform="translate(-399.18801,-40.430276)"><g transform="translate(504.63,177.88)"><rect fill="none" height="6.8" id="structurePipsRS15" width="12" x="0" y="102" /></g></g>
    <g transform="translate(-399.18801,-40.430276)"><g transform="translate(504.63,177.88)"><rect fill="none" height="6.8" id="structurePipsRS16" width="12" x="0" y="108.8" /></g></g>
    <g transform="translate(-399.18801,-40.430276)"><g transform="translate(504.63,177.88)"><rect fill="none" height="6.8" id="structurePipsRS17" width="12" x="0" y="115.6" /></g></g>
    <g transform="translate(-399.18801,-40.430276)"><g transform="translate(504.63,177.88)"><rect fill="none" height="6.8" id="structurePipsRS18" width="12" x="0" y="122.4" /></g></g>
    <g transform="translate(-399.18801,-40.430276)"><g transform="translate(504.63,177.88)"><rect fill="none" height="6.8" id="structurePipsRS19" width="12" x="0" y="129.2" /></g></g>
    <g transform="translate(-399.18801,-40.430276)"><g transform="translate(504.63,177.88)"><rect fill="none" height="6.8" id="structurePipsRS20" width="12" x="0" y="136" /></g></g>
    <g transform="translate(-399.18801,-40.430276)"><g transform="translate(504.63,177.88)"><rect fill="none" height="6.8" id="structurePipsRS21" width="12" x="0" y="142.8" /></g></g>
    <g transform="translate(-399.18801,-40.430276)"><g transform="translate(504.63,177.88)"><rect fill="none" height="6.8" id="structurePipsRS22" width="12" x="0" y="149.6" /></g></g>
    <g transform="translate(-399.18801,-40.430276)"><g transform="translate(504.63,177.88)"><rect fill="none" height="6.8" id="structurePipsRS23" width="12" x="0" y="156.4" /></g></g>
    <g transform="translate(-399.18801,-40.430276)"><g transform="translate(504.63,177.88)"><rect fill="none" height="6.8" id="structurePipsRS24" width="12" x="0" y="163.2" /></g></g>
    <g transform="translate(-399.18801,-40.430276)"><g transform="translate(504.63,177.88)"><rect fill="none" height="6.8" id="structurePipsRS25" width="12" x="0" y="170" /></g></g>
    <g transform="translate(-399.18801,-40.430276)"><g transform="translate(504.63,177.88)"><rect fill="none" height="6.8" id="structurePipsRS26" width="12" x="0" y="176.8" /></g></g>
    <g transform="translate(-399.18801,-40.430276)"><g transform="translate(504.63,177.88)"><rect fill="none" height="6.8" id="structurePipsRS27" width="12" x="0" y="183.6" /></g></g>
    <g transform="translate(-399.18801,-40.430276)"><g transform="translate(504.63,177.88)"><rect fill="none" height="6.8" id="structurePipsRS28" width="12" x="0" y="190.4" /></g></g>
    <g transform="translate(-399.18801,-40.430276)"><g transform="translate(504.63,177.88)"><rect fill="none" height="6.8" id="structurePipsRS29" width="12" x="0" y="197.2" /></g></g>
    <g transform="translate(-399.18801,-40.430276)"><g transform="translate(504.63,177.88)"><rect fill="none" height="6.8" id="structurePipsRS30" width="12" x="0" y="204" /></g></g>
    <g transform="translate(-399.18801,-40.430276)"><g transform="translate(504.63,177.88)"><rect fill="none" height="6.8" id="structurePipsRS31" width="12" x="0" y="210.8" /></g></g>
    <g transform="translate(-399.18801,-40.430276)"><g transform="translate(504.63,177.88)"><rect fill="none" height="6.8" id="structurePipsRS32" width="12" x="0" y="217.6" /></g></g>
    <g transform="translate(-399.18801,-40.430276)"><g transform="translate(504.63,177.88)"><rect fill="none" height="6.8" id="structurePipsRS33" width="12" x="0" y="224.4" /></g></g>
    <g transform="translate(-399.18801,-40.430276)"><g transform="translate(504.63,177.88)"><rect fill="none" height="6.8" id="structurePipsRS34" width="12" x="0" y="231.2" /></g></g>
    <g transform="translate(-399.18801,-40.430276)"><g transform="translate(504.63,177.88)"><rect fill="none" height="6.8" id="structurePipsRS35" width="12" x="0" y="238" /></g></g>
    <g transform="translate(-399.18801,-40.430276)"><g transform="translate(504.63,177.88)"><rect fill="none" height="6.8" id="structurePipsRS36" width="12" x="0" y="244.8" /></g></g>
    <g transform="translate(-399.18801,-40.430276)"><g transform="translate(504.63,177.88)"><rect fill="none" height="6.8" id="structurePipsRS37" width="12" x="0" y="251.6" /></g></g>
    <g transform="translate(-399.18801,-40.430276)"><g transform="translate(504.63,177.88)"><rect fill="none" height="6.8" id="structurePipsRS38" width="12" x="0" y="258.4" /></g></g>
    <g transform="translate(-399.18801,-40.430276)"><g transform="translate(504.63,177.88)"><rect fill="none" height="6.8" id="rect276" width="12" x="0" y="265.2" /></g></g>
    <g transform="translate(-399.18801,-40.430276)"><g transform="translate(504.63,177.88)"><rect fill="none" height="6.8" id="structurePipsRS40" width="12" x="0" y="272" /></g></g>
    <g transform="translate(-399.18801,-40.430276)"><g transform="translate(504.63,177.88)"><rect fill="none" height="6.8" id="structurePipsRS41" width="12" x="0" y="278.8" /></g></g>
    <g transform="translate(-399.18801,-40.430276)"><g transform="translate(504.63,177.88)"><rect fill="none" height="6.8" id="structurePipsRS42" width="12" x="0" y="285.6" /></g></g>
    <g transform="translate(-399.18801,-40.430276)"><g transform="translate(504.63,177.88)"><rect fill="none" height="6.8" id="structurePipsRS43" width="12" x="0" y="292.4" /></g></g>
    <g transform="translate(-399.18801,-40.430276)"><g transform="translate(504.63,177.88)"><rect fill="none" height="6.8" id="structurePipsRS44" width="12" x="0" y="299.2" /></g></g>
    <g transform="translate(-399.18801,-40.430276)"><g transform="translate(504.63,177.88)"><rect fill="none" height="6.8" id="structurePipsRS45" width="12" x="0" y="306" /></g></g>
    <g transform="translate(-399.18801,-40.430276)"><g transform="translate(504.63,177.88)"><rect fill="none" height="6.8" id="structurePipsRS46" width="12" x="0" y="312.8" /></g></g>
    <g transform="translate(-399.18801,-40.430276)"><g transform="translate(504.63,177.88)"><rect fill="none" height="6.8" id="structurePipsRS47" width="12" x="0" y="319.6" /></g></g>
    <g transform="translate(-399.18801,-40.430276)"><g transform="translate(504.63,177.88)"><rect fill="none" height="6.8" id="structurePipsRS48" width="12" x="0" y="326.4" /></g></g>
    <g transform="translate(-399.18801,-40.430276)"><g transform="matrix(-1,0,0,1,473.1,177.88)"><rect fill="none" height="6.8" id="structurePipsLS00" width="12" x="0" y="0" /></g></g>
    <g transform="translate(-399.18801,-40.430276)"><g transform="matrix(-1,0,0,1,473.1,177.88)"><rect fill="none" height="6.8" id="structurePipsLS01" width="12" x="0" y="6.8" /></g></g>
    <g transform="translate(-399.18801,-40.430276)"><g transform="matrix(-1,0,0,1,473.1,177.88)"><rect fill="none" height="6.8" id="structurePipsLS02" width="12" x="0" y="13.6" /></g></g>
    <g transform="translate(-399.18801,-40.430276)"><g transform="matrix(-1,0,0,1,473.1,177.88)"><rect fill="none" height="6.8" id="structurePipsLS03" width="12" x="0" y="20.4" /></g></g>
    <g transform="translate(-399.18801,-40.430276)"><g transform="matrix(-1,0,0,1,473.1,177.88)"><rect fill="none" height="6.8" id="structurePipsLS04" width="12" x="0" y="27.2" /></g></g>
    <g transform="translate(-399.18801,-40.430276)"><g transform="matrix(-1,0,0,1,473.1,177.88)"><rect fill="none" height="6.8" id="structurePipsLS05" width="12" x="0" y="34.0" /></g></g>
    <g transform="translate(-399.18801,-40.430276)"><g transform="matrix(-1,0,0,1,473.1,177.88)"><rect fill="none" height="6.8" id="structurePipsLS06" width="12" x="0" y="40.8" /></g></g>
    <g transform="translate(-399.18801,-40.430276)"><g transform="matrix(-1,0,0,1,473.1,177.88)"><rect fill="none" height="6.8" id="structurePipsLS07" width="12" x="0" y="47.6" /></g></g>
    <g transform="translate(-399.18801,-40.430276)"><g transform="matrix(-1,0,0,1,473.1,177.88)"><rect fill="none" height="6.8" id="structurePipsLS08" width="12" x="0" y="54.4" /></g></g>
    <g transform="translate(-399.18801,-40.430276)"><g transform="matrix(-1,0,0,1,473.1,177.88)"><rect fill="none" height="6.8" id="structurePipsLS09" width="12" x="0" y="61.2" /></g></g>
    <g transform="translate(-399.18801,-40.430276)"><g transform="matrix(-1,0,0,1,473.1,177.88)"><rect fill="none" height="6.8" id="structurePipsLS10" width="12" x="0" y="68" /></g></g>
    <g transform="translate(-399.18801,-40.430276)"><g transform="matrix(-1,0,0,1,473.1,177.88)"><rect fill="none" height="6.8" id="structurePipsLS11" width="12" x="0" y="74.8" /></g></g>
    <g transform="translate(-399.18801,-40.430276)"><g transform="matrix(-1,0,0,1,473.1,177.88)"><rect fill="none" height="6.8" id="structurePipsLS12" width="12" x="0" y="81.6" /></g></g>
    <g transform="translate(-399.18801,-40.430276)"><g transform="matrix(-1,0,0,1,473.1,177.88)"><rect fill="none" height="6.8" id="structurePipsLS13" width="12" x="0" y="88.4" /></g></g>
    <g transform="translate(-399.18801,-40.430276)"><g transform="matrix(-1,0,0,1,473.1,177.88)"><rect fill="none" height="6.8" id="structurePipsLS14" width="12" x="0" y="95.2" /></g></g>
    <g transform="translate(-399.18801,-40.430276)"><g transform="matrix(-1,0,0,1,473.1,177.88)"><rect fill="none" height="6.8" id="structurePipsLS15" width="12" x="0" y="102" /></g></g>
    <g transform="translate(-399.18801,-40.430276)"><g transform="matrix(-1,0,0,1,473.1,177.88)"><rect fill="none" height="6.8" id="structurePipsLS16" width="12" x="0" y="108.8" /></g></g>
    <g transform="translate(-399.18801,-40.430276)"><g transform="matrix(-1,0,0,1,473.1,177.88)"><rect fill="none" height="6.8" id="structurePipsLS17" width="12" x="0" y="115.6" /></g></g>
    <g transform="translate(-399.18801,-40.430276)"><g transform="matrix(-1,0,0,1,473.1,177.88)"><rect fill="none" height="6.8" id="structurePipsLS18" width="12" x="0" y="122.4" /></g></g>
    <g transform="translate(-399.18801,-40.430276)"><g transform="matrix(-1,0,0,1,473.1,177.88)"><rect fill="none" height="6.8" id="structurePipsLS19" width="12" x="0" y="129.2" /></g></g>
    <g transform="translate(-399.18801,-40.430276)"><g transform="matrix(-1,0,0,1,473.1,177.88)"><rect fill="none" height="6.8" id="structurePipsLS20" width="12" x="0" y="136" /></g></g>
    <g transform="translate(-399.18801,-40.430276)"><g transform="matrix(-1,0,0,1,473.1,177.88)"><rect fill="none" height="6.8" id="structurePipsLS21" width="12" x="0" y="142.8" /></g></g>
    <g transform="translate(-399.18801,-40.430276)"><g transform="matrix(-1,0,0,1,473.1,177.88)"><rect fill="none" height="6.8" id="structurePipsLS22" width="12" x="0" y="149.6" /></g></g>
    <g transform="translate(-399.18801,-40.430276)"><g transform="matrix(-1,0,0,1,473.1,177.88)"><rect fill="none" height="6.8" id="structurePipsLS23" width="12" x="0" y="156.4" /></g></g>
    <g transform="translate(-399.18801,-40.430276)"><g transform="matrix(-1,0,0,1,473.1,177.88)"><rect fill="none" height="6.8" id="structurePipsLS24" width="12" x="0" y="163.2" /></g></g>
    <g transform="translate(-399.18801,-40.430276)"><g transform="matrix(-1,0,0,1,473.1,177.88)"><rect fill="none" height="6.8" id="structurePipsLS25" width="12" x="0" y="170" /></g></g>
    <g transform="translate(-399.18801,-40.430276)"><g transform="matrix(-1,0,0,1,473.1,177.88)"><rect fill="none" height="6.8" id="structurePipsLS26" width="12" x="0" y="176.8" /></g></g>
    <g transform="translate(-399.18801,-40.430276)"><g transform="matrix(-1,0,0,1,473.1,177.88)"><rect fill="none" height="6.8" id="structurePipsLS27" width="12" x="0" y="183.6" /></g></g>
    <g transform="translate(-399.18801,-40.430276)"><g transform="matrix(-1,0,0,1,473.1,177.88)"><rect fill="none" height="6.8" id="structurePipsLS28" width="12" x="0" y="190.4" /></g></g>
    <g transform="translate(-399.18801,-40.430276)"><g transform="matrix(-1,0,0,1,473.1,177.88)"><rect fill="none" height="6.8" id="structurePipsLS29" width="12" x="0" y="197.2" /></g></g>
    <g transform="translate(-399.18801,-40.430276)"><g transform="matrix(-1,0,0,1,473.1,177.88)"><rect fill="none" height="6.8" id="structurePipsLS30" width="12" x="0" y="204" /></g></g>
    <g transform="translate(-399.18801,-40.430276)"><g transform="matrix(-1,0,0,1,473.1,177.88)"><rect fill="none" height="6.8" id="structurePipsLS31" width="12" x="0" y="210.8" /></g></g>
    <g transform="translate(-399.18801,-40.430276)"><g transform="matrix(-1,0,0,1,473.1,177.88)"><rect fill="none" height="6.8" id="structurePipsLS32" width="12" x="0" y="217.6" /></g></g>
    <g transform="translate(-399.18801,-40.430276)"><g transform="matrix(-1,0,0,1,473.1,177.88)"><rect fill="none" height="6.8" id="structurePipsLS33" width="12" x="0" y="224.4" /></g></g>
    <g transform="translate(-399.18801,-40.430276)"><g transform="matrix(-1,0,0,1,473.1,177.88)"><rect fill="none" height="6.8" id="structurePipsLS34" width="12" x="0" y="231.2" /></g></g>
    <g transform="translate(-399.18801,-40.430276)"><g transform="matrix(-1,0,0,1,473.1,177.88)"><rect fill="none" height="6.8" id="structurePipsLS35" width="12" x="0" y="238" /></g></g>
    <g transform="translate(-399.18801,-40.430276)"><g transform="matrix(-1,0,0,1,473.1,177.88)"><rect fill="none" height="6.8" id="structurePipsLS36" width="12" x="0" y="244.8" /></g></g>
    <g transform="translate(-399.18801,-40.430276)"><g transform="matrix(-1,0,0,1,473.1,177.88)"><rect fill="none" height="6.8" id="structurePipsLS37" width="12" x="0" y="251.6" /></g></g>
    <g transform="translate(-399.18801,-40.430276)"><g transform="matrix(-1,0,0,1,473.1,177.88)"><rect fill="none" height="6.8" id="structurePipsLS38" width="12" x="0" y="258.4" /></g></g>
    <g transform="translate(-399.18801,-40.430276)"><g transform="matrix(-1,0,0,1,473.1,177.88)"><rect fill="none" height="6.8" id="rect277" width="12" x="0" y="265.2" /></g></g>
    <g transform="translate(-399.18801,-40.430276)"><g transform="matrix(-1,0,0,1,473.1,177.88)"><rect fill="none" height="6.8" id="structurePipsLS40" width="12" x="0" y="272" /></g></g>
    <g transform="translate(-399.18801,-40.430276)"><g transform="matrix(-1,0,0,1,473.1,177.88)"><rect fill="none" height="6.8" id="structurePipsLS41" width="12" x="0" y="278.8" /></g></g>
    <g transform="translate(-399.18801,-40.430276)"><g transform="matrix(-1,0,0,1,473.1,177.88)"><rect fill="none" height="6.8" id="structurePipsLS42" width="12" x="0" y="285.6" /></g></g>
    <g transform="translate(-399.18801,-40.430276)"><g transform="matrix(-1,0,0,1,473.1,177.88)"><rect fill="none" height="6.8" id="structurePipsLS43" width="12" x="0" y="292.4" /></g></g>
    <g transform="translate(-399.18801,-40.430276)"><g transform="matrix(-1,0,0,1,473.1,177.88)"><rect fill="none" height="6.8" id="structurePipsLS44" width="12" x="0" y="299.2" /></g></g>
    <g transform="translate(-399.18801,-40.430276)"><g transform="matrix(-1,0,0,1,473.1,177.88)"><rect fill="none" height="6.8" id="structurePipsLS45" width="12" x="0" y="306" /></g></g>
    <g transform="translate(-399.18801,-40.430276)"><g transform="matrix(-1,0,0,1,473.1,177.88)"><rect fill="none" height="6.8" id="structurePipsLS46" width="12" x="0" y="312.8" /></g></g>
    <g transform="translate(-399.18801,-40.430276)"><g transform="matrix(-1,0,0,1,473.1,177.88)"><rect fill="none" height="6.8" id="structurePipsLS47" width="12" x="0" y="319.6" /></g></g>
    <g transform="translate(-399.18801,-40.430276)"><g transform="matrix(-1,0,0,1,473.1,177.88)"><rect fill="none" height="6.8" id="structurePipsLS48" width="12" x="0" y="326.4" /></g></g>
    <g transform="translate(-399.18801,-40.430276)"><g transform="translate(489.6,517.88)"><rect fill="none" height="6.8" id="structurePipsRR00" width="72" x="-36" y="0" /></g></g>
    <g transform="translate(-399.18801,-40.430276)"><g transform="translate(489.6,517.88)"><rect fill="none" height="6.8" id="structurePipsRR01" width="82.6" x="-41.3" y="6.8" /></g></g>
    <g transform="translate(-399.18801,-40.430276)"><g transform="translate(489.6,517.88)"><rect fill="none" height="6.8" id="structurePipsRR02" width="93.4" x="-46.7" y="13.6" /></g></g>
    <g transform="translate(-399.18801,-40.430276)"><g transform="translate(489.6,517.88)"><rect fill="none" height="6.8" id="rect278" width="103.2" x="-51.6" y="20.4" /></g></g>
    <g transform="translate(-399.18801,-40.430276)"><g transform="translate(449.4,288.48)"><rect fill="none" height="6.8" id="structurePipsFT00" width="28" x="-14" y="0" /></g></g>
    <g transform="translate(-399.18801,-40.430276)"><g transform="translate(449.4,288.48)"><rect fill="none" height="6.8" id="structurePipsFT01" width="28" x="-14" y="6.8" /></g></g>
    <g transform="translate(-399.18801,-40.430276)"><g transform="translate(449.4,288.48)"><rect fill="none" height="6.8" id="structurePipsFT02" width="28" x="-14" y="13.6" /></g></g>
    <g transform="translate(-399.18801,-40.430276)"><g transform="translate(449.4,288.48)"><rect fill="none" height="6.8" id="structurePipsFT03" width="28" x="-14" y="20.4" /></g></g>
    <g transform="translate(-399.18801,-40.430276)"><g transform="translate(449.4,288.48)"><rect fill="none" height="6.8" id="structurePipsFT04" width="28" x="-14" y="27.2" /></g></g>
    <g transform="translate(-399.18801,-40.430276)"><g transform="translate(449.4,288.48)"><rect fill="none" height="6.8" id="structurePipsFT05" width="28" x="-14" y="34" /></g></g>
    <g transform="translate(-399.18801,-40.430276)"><g transform="translate(449.4,288.48)"><rect fill="none" height="6.8" id="structurePipsFT06" width="28" x="-14" y="40.8" /></g></g>
    <g transform="translate(-399.18801,-40.430276)"><g transform="translate(449.4,288.48)"><rect fill="none" height="6.8" id="structurePipsFT07" width="28" x="-14" y="47.6" /></g></g>
    <g transform="translate(-399.18801,-40.430276)"><g transform="translate(449.4,288.48)"><rect fill="none" height="6.8" id="structurePipsFT08" width="28" x="-14" y="54.4" /></g></g>
    <g transform="translate(-399.18801,-40.430276)"><g transform="translate(503.8,288.48)"><rect fill="none" height="6.8" id="structurePipsTU00" width="28" x="-14" y="0" /></g></g>
    <g transform="translate(-399.18801,-40.430276)"><g transform="translate(503.8,288.48)"><rect fill="none" height="6.8" id="structurePipsTU01" width="28" x="-14" y="6.8" /></g></g>
    <g transform="translate(-399.18801,-40.430276)"><g transform="translate(503.8,288.48)"><rect fill="none" height="6.8" id="structurePipsTU02" width="28" x="-14" y="13.6" /></g></g>
    <g transform="translate(-399.18801,-40.430276)"><g transform="translate(503.8,288.48)"><rect fill="none" height="6.8" id="structurePipsTU03" width="28" x="-14" y="20.4" /></g></g>
    <g transform="translate(-399.18801,-40.430276)"><g transform="translate(503.8,288.48)"><rect fill="none" height="6.8" id="structurePipsTU04" width="28" x="-14" y="27.2" /></g></g>
    <g transform="translate(-399.18801,-40.430276)"><g transform="translate(503.8,288.48)"><rect fill="none" height="6.8" id="structurePipsTU05" width="28" x="-14" y="34" /></g></g>
    <g transform="translate(-399.18801,-40.430276)"><g transform="translate(503.8,288.48)"><rect fill="none" height="6.8" id="structurePipsTU06" width="28" x="-14" y="40.8" /></g></g>
    <g transform="translate(-399.18801,-40.430276)"><g transform="translate(503.8,288.48)"><rect fill="none" height="6.8" id="structurePipsTU07" width="28" x="-14" y="47.6" /></g></g>
    <g transform="translate(-399.18801,-40.430276)"><g transform="translate(503.8,288.48)"><rect fill="none" height="6.8" id="structurePipsTU08" width="28" x="-14" y="54.4" /></g></g>
    <g transform="translate(-399.18801,-40.430276)"><g transform="matrix(0, 1, -1, 0, 515, 190)"><rect fill="none" height="6.8" id="rect100" width="340" x="-15" y="0" /></g></g>
    <g transform="translate(-399.18801,-40.430276)"><g transform="matrix(0, 1, 1, 0, 464, 190)"><rect fill="none" height="6.8" id="rect230" width="340" x="-15" y="0" /></g></g>
    </g>
</svg>
