<?xml version="1.0" encoding="UTF-8"?>
<!-- Editable MekBay protomek-biped armor paperdoll. Pink dashed rectangles mark pip areas and are removed at runtime. -->
<svg xmlns="http://www.w3.org/2000/svg" viewBox="0.492 1.215 83.63 105.556" role="img" aria-label="protomek-biped armor paperdoll">
    <g id="paperdoll-art-armor">
    <g transform="matrix(1,0,0,-1,-485.35066,668.7845)"><g transform="translate(516.7427,666.7183)"><path id="path2516" d="m 0,0 c -2.655,0 -4.809,-2.692 -4.809,-6.013 0,-3.321 2.154,-6.014 4.809,-6.014 2.657,0 4.811,2.693 4.811,6.014 C 4.811,-2.692 2.657,0 0,0" style="fill:#c7c8ca;fill-opacity:1;fill-rule:nonzero;stroke:none" /></g></g>
    <g transform="matrix(1,0,0,-1,-485.35066,668.7845)"><g transform="translate(516.7427,666.7183)"><path id="path2520" d="m 0,0 c -2.655,0 -4.809,-2.692 -4.809,-6.013 0,-3.321 2.154,-6.014 4.809,-6.014 2.657,0 4.811,2.693 4.811,6.014 C 4.811,-2.692 2.657,0 0,0 Z" style="fill:none;stroke:#c7c8ca;stroke-width:0.45899999;stroke-linecap:butt;stroke-linejoin:miter;stroke-miterlimit:4;stroke-dasharray:none;stroke-opacity:1" /></g></g>
    <g transform="matrix(1,0,0,-1,-485.35066,668.7845)"><g transform="translate(568.9064,629.486)"><path id="path2524" d="m 0,0 -0.568,1.7 -1.133,1.701 -1.985,1.985 -1.417,1.134 -1.418,1.417 -1.418,1.985 -1.982,2.268 -1.702,1.134 -0.568,1.701 -0.849,1.985 -1.703,1.134 -1.983,1.417 -1.7,1.418 -1.419,1.417 -1.868,0.533 0.168,1.167 1.132,0.85 1.702,0.851 1.701,0.284 0.851,1.984 0.849,2.267 -0.565,1.985 -1.135,-0.283 -0.283,-1.418 v -1.133 l -1.133,-0.851 -1.419,-0.283 -0.851,0.566 -0.568,1.134 -1.699,0.283 -1.702,-0.283 -2.267,-0.282 h -4.536 l -1.985,-0.284 -1.984,-0.568 -1.133,-1.133 -2.147,0.268 0.002,0.015 h -2.958 l -2.268,-0.283 -1.135,1.133 -1.984,0.568 -1.985,0.284 h -4.536 l -2.267,0.282 -1.702,0.283 -1.701,-0.283 -0.566,-1.134 -0.852,-0.566 -1.416,0.283 -1.136,0.851 v 1.133 l -0.282,1.418 -1.134,0.283 -0.567,-1.985 0.85,-2.267 0.851,-1.984 1.7,-0.284 1.701,-0.851 1.134,-0.85 0.283,-1.984 0.137,-1.221 -0.42,2.072 -2.835,-0.567 -1.418,-1.417 -1.7,-1.418 -1.984,-1.417 -1.701,-1.134 -0.85,-1.985 -0.567,-1.701 L -71.726,12.19 -73.71,9.922 -75.126,7.937 -76.543,6.52 -77.96,5.386 -79.945,3.401 -81.08,1.7 -81.646,0 l -0.568,-2.269 0.285,-1.983 0.566,-2.269 1.418,-1.701 1.416,-1.701 1.702,-1.417 1.701,-1.134 1.134,-1.418 2.266,-0.567 1.419,-1.134 h 1.418 l 2.267,0.567 1.134,0.567 v 1.134 l -1.417,0.568 -1.417,0.566 v 1.984 l 0.567,1.134 -0.567,0.851 -0.284,1.417 -0.283,1.418 h 0.85 l 0.85,-1.701 0.567,-1.701 0.851,-0.566 0.567,1.7 v 1.701 l -0.851,1.702 -1.134,0.85 -1.417,0.567 v 1.417 l 1.133,0.566 1.702,0.284 1.984,0.568 1.418,0.85 1.418,1.134 1.134,1.701 0.849,0.85 2.305,-0.247 2.958,0.265 -2.738,13.536 -1.391,-0.513 1.136,-1.417 c 0,0 1.416,-0.851 2.267,-0.851 0.85,0 1.701,-0.567 1.701,-0.567 l 2.269,-0.566 1.701,-0.567 1.416,-1.134 1.417,-1.702 1.702,-1.984 1.418,-2.268 1.418,-1.134 h 2.267 l 1.416,1.134 1.419,2.268 1.7,1.984 1.418,1.702 1.419,1.134 1.7,0.567 2.268,0.566 c 0,0 0.85,0.567 1.699,0.567 0.385,0 0.881,0.174 1.313,0.364 l -16.619,4.456 -15.026,-4.252 0.283,-2.552 0.284,-2.835 0.566,-2.552 0.285,-1.984 -0.285,-2.834 -0.566,-2.836 0.284,-2.268 0.567,-2.551 1.132,-2.269 0.03,-0.023 -0.135,0.077 -0.567,-2.268 -0.46,-3.455 0.281,-2.836 v -2.834 l -2.267,-2.836 -1.702,-3.401 -1.984,-2.835 -2.834,-4.535 -0.284,-1.702 -1.417,-1.134 -0.851,-1.417 0.567,-2.835 v -4.819 l 0.284,-1.701 0.567,-1.986 0.85,-1.7 -2.552,-7.371 -1.7,-1.134 -1.134,-0.85 -1.134,-1.702 -1.419,-1.984 -1.417,-1.418 -0.849,-1.133 -0.284,-1.418 h 2.834 l 0.285,-1.417 h 4.818 l 1.702,0.284 2.268,0.282 2.267,0.851 1.986,0.568 1.418,0.85 1.982,0.85 1.986,0.851 1.701,0.567 1.984,0.567 1.418,0.283 1.416,0.851 0.569,1.7 -0.569,1.701 -1.133,2.552 0.284,1.417 c 0,0 0,1.701 -0.284,2.552 -0.283,0.851 0,1.985 0,1.985 l -0.567,3.118 -0.849,1.134 -0.851,1.133 -0.284,1.985 0.284,1.419 0.283,2.834 0.568,1.985 1.982,1.7 1.986,1.985 1.133,1.418 0.568,1.417 1.418,2.268 1.133,0.568 1.134,-0.568 1.418,-2.268 0.567,-1.417 1.134,-1.418 1.985,-1.985 1.984,-1.7 0.568,-1.985 0.282,-2.834 0.285,-1.419 -0.285,-1.985 -0.85,-1.133 -0.851,-1.134 -0.567,-3.118 c 0,0 0.283,-1.134 0,-1.985 -0.284,-0.851 -0.284,-2.552 -0.284,-2.552 l 0.284,-1.417 -1.133,-2.552 -0.568,-1.701 0.568,-1.7 1.416,-0.851 1.418,-0.283 1.985,-0.567 1.701,-0.567 1.984,-0.851 1.984,-0.85 1.418,-0.85 1.984,-0.568 2.268,-0.851 2.267,-0.282 1.701,-0.284 h 4.822 l 0.282,1.417 h 2.834 l -0.283,1.418 -0.851,1.133 -1.416,1.418 -1.418,1.984 -1.134,1.702 -1.133,0.85 -1.703,1.134 -2.55,7.371 0.849,1.7 0.569,1.986 0.283,1.701 v 4.819 l 0.565,2.835 -0.848,1.417 -1.418,1.134 -0.284,1.702 -2.836,4.535 -1.983,2.835 -1.701,3.401 -2.268,2.836 v 2.834 l 0.282,2.836 -0.566,3.401 -0.567,2.268 1.133,2.269 0.568,2.551 0.283,2.268 -0.565,2.836 -0.286,2.834 0.286,1.984 0.565,2.552 0.284,2.835 0.265,2.386 c 0.486,0.22 0.869,0.449 0.869,0.449 l -0.424,1.171 -2.694,-12.512 2.551,-0.565 1.702,0.282 0.849,-0.85 1.134,-1.701 1.418,-1.134 1.418,-0.85 1.985,-0.568 1.7,-0.284 1.135,-0.566 v -1.417 l -1.419,-0.567 -1.133,-0.85 -0.852,-1.702 v -1.701 l 0.569,-1.7 0.848,0.566 0.568,1.701 0.851,1.701 h 0.85 l -0.282,-1.418 -0.285,-1.417 -0.567,-0.851 0.567,-1.134 v -1.984 l -1.418,-0.566 -1.416,-0.568 v -1.134 l 1.132,-0.567 2.269,-0.567 h 1.418 l 1.419,1.134 2.266,0.567 1.134,1.418 1.702,1.134 1.702,1.417 1.416,1.701 1.418,1.701 0.566,2.269 0.283,1.983 L 0,0" style="fill:#c7c8ca;fill-opacity:1;fill-rule:nonzero;stroke:none" /></g></g>
    <g transform="matrix(1,0,0,-1,-485.35066,668.7845)"><g transform="translate(568.9064,629.486)"><path id="path2528" d="m 0,0 -0.568,1.7 -1.133,1.701 -1.985,1.985 -1.417,1.134 -1.418,1.417 -1.418,1.985 -1.982,2.268 -1.702,1.134 -0.568,1.701 -0.849,1.985 -1.703,1.134 -1.983,1.417 -1.7,1.418 -1.419,1.417 -1.868,0.533 0.168,1.167 1.132,0.85 1.702,0.851 1.701,0.284 0.851,1.984 0.849,2.267 -0.565,1.985 -1.135,-0.283 -0.283,-1.418 v -1.133 l -1.133,-0.851 -1.419,-0.283 -0.851,0.566 -0.568,1.134 -1.699,0.283 -1.702,-0.283 -2.267,-0.282 h -4.536 l -1.985,-0.284 -1.984,-0.568 -1.133,-1.133 -2.147,0.268 0.002,0.015 h -2.958 l -2.268,-0.283 -1.135,1.133 -1.984,0.568 -1.985,0.284 h -4.536 l -2.267,0.282 -1.702,0.283 -1.701,-0.283 -0.566,-1.134 -0.852,-0.566 -1.416,0.283 -1.136,0.851 v 1.133 l -0.282,1.418 -1.134,0.283 -0.567,-1.985 0.85,-2.267 0.851,-1.984 1.7,-0.284 1.701,-0.851 1.134,-0.85 0.283,-1.984 0.137,-1.221 -0.42,2.072 -2.835,-0.567 -1.418,-1.417 -1.7,-1.418 -1.984,-1.417 -1.701,-1.134 -0.85,-1.985 -0.567,-1.701 L -71.726,12.19 -73.71,9.922 -75.126,7.937 -76.543,6.52 -77.96,5.386 -79.945,3.401 -81.08,1.7 -81.646,0 l -0.568,-2.269 0.285,-1.983 0.566,-2.269 1.418,-1.701 1.416,-1.701 1.702,-1.417 1.701,-1.134 1.134,-1.418 2.266,-0.567 1.419,-1.134 h 1.418 l 2.267,0.567 1.134,0.567 v 1.134 l -1.417,0.568 -1.417,0.566 v 1.984 l 0.567,1.134 -0.567,0.851 -0.284,1.417 -0.283,1.418 h 0.85 l 0.85,-1.701 0.567,-1.701 0.851,-0.566 0.567,1.7 v 1.701 l -0.851,1.702 -1.134,0.85 -1.417,0.567 v 1.417 l 1.133,0.566 1.702,0.284 1.984,0.568 1.418,0.85 1.418,1.134 1.134,1.701 0.849,0.85 2.305,-0.247 2.958,0.265 -2.738,13.536 -1.391,-0.513 1.136,-1.417 c 0,0 1.416,-0.851 2.267,-0.851 0.85,0 1.701,-0.567 1.701,-0.567 l 2.269,-0.566 1.701,-0.567 1.416,-1.134 1.417,-1.702 1.702,-1.984 1.418,-2.268 1.418,-1.134 h 2.267 l 1.416,1.134 1.419,2.268 1.7,1.984 1.418,1.702 1.419,1.134 1.7,0.567 2.268,0.566 c 0,0 0.85,0.567 1.699,0.567 0.385,0 0.881,0.174 1.313,0.364 l -16.619,4.456 -15.026,-4.252 0.283,-2.552 0.284,-2.835 0.566,-2.552 0.285,-1.984 -0.285,-2.834 -0.566,-2.836 0.284,-2.268 0.567,-2.551 1.132,-2.269 0.03,-0.023 -0.135,0.077 -0.567,-2.268 -0.46,-3.455 0.281,-2.836 v -2.834 l -2.267,-2.836 -1.702,-3.401 -1.984,-2.835 -2.834,-4.535 -0.284,-1.702 -1.417,-1.134 -0.851,-1.417 0.567,-2.835 v -4.819 l 0.284,-1.701 0.567,-1.986 0.85,-1.7 -2.552,-7.371 -1.7,-1.134 -1.134,-0.85 -1.134,-1.702 -1.419,-1.984 -1.417,-1.418 -0.849,-1.133 -0.284,-1.418 h 2.834 l 0.285,-1.417 h 4.818 l 1.702,0.284 2.268,0.282 2.267,0.851 1.986,0.568 1.418,0.85 1.982,0.85 1.986,0.851 1.701,0.567 1.984,0.567 1.418,0.283 1.416,0.851 0.569,1.7 -0.569,1.701 -1.133,2.552 0.284,1.417 c 0,0 0,1.701 -0.284,2.552 -0.283,0.851 0,1.985 0,1.985 l -0.567,3.118 -0.849,1.134 -0.851,1.133 -0.284,1.985 0.284,1.419 0.283,2.834 0.568,1.985 1.982,1.7 1.986,1.985 1.133,1.418 0.568,1.417 1.418,2.268 1.133,0.568 1.134,-0.568 1.418,-2.268 0.567,-1.417 1.134,-1.418 1.985,-1.985 1.984,-1.7 0.568,-1.985 0.282,-2.834 0.285,-1.419 -0.285,-1.985 -0.85,-1.133 -0.851,-1.134 -0.567,-3.118 c 0,0 0.283,-1.134 0,-1.985 -0.284,-0.851 -0.284,-2.552 -0.284,-2.552 l 0.284,-1.417 -1.133,-2.552 -0.568,-1.701 0.568,-1.7 1.416,-0.851 1.418,-0.283 1.985,-0.567 1.701,-0.567 1.984,-0.851 1.984,-0.85 1.418,-0.85 1.984,-0.568 2.268,-0.851 2.267,-0.282 1.701,-0.284 h 4.822 l 0.282,1.417 h 2.834 l -0.283,1.418 -0.851,1.133 -1.416,1.418 -1.418,1.984 -1.134,1.702 -1.133,0.85 -1.703,1.134 -2.55,7.371 0.849,1.7 0.569,1.986 0.283,1.701 v 4.819 l 0.565,2.835 -0.848,1.417 -1.418,1.134 -0.284,1.702 -2.836,4.535 -1.983,2.835 -1.701,3.401 -2.268,2.836 v 2.834 l 0.282,2.836 -0.566,3.401 -0.567,2.268 1.133,2.269 0.568,2.551 0.283,2.268 -0.565,2.836 -0.286,2.834 0.286,1.984 0.565,2.552 0.284,2.835 0.265,2.386 c 0.486,0.22 0.869,0.449 0.869,0.449 l -0.424,1.171 -2.694,-12.512 2.551,-0.565 1.702,0.282 0.849,-0.85 1.134,-1.701 1.418,-1.134 1.418,-0.85 1.985,-0.568 1.7,-0.284 1.135,-0.566 v -1.417 l -1.419,-0.567 -1.133,-0.85 -0.852,-1.702 v -1.701 l 0.569,-1.7 0.848,0.566 0.568,1.701 0.851,1.701 h 0.85 l -0.282,-1.418 -0.285,-1.417 -0.567,-0.851 0.567,-1.134 v -1.984 l -1.418,-0.566 -1.416,-0.568 v -1.134 l 1.132,-0.567 2.269,-0.567 h 1.418 l 1.419,1.134 2.266,0.567 1.134,1.418 1.702,1.134 1.702,1.417 1.416,1.701 1.418,1.701 0.566,2.269 0.283,1.983 z" style="fill:none;stroke:#c7c8ca;stroke-width:0.45899999;stroke-linecap:butt;stroke-linejoin:miter;stroke-miterlimit:4;stroke-dasharray:none;stroke-opacity:1" /></g></g>
    <g transform="matrix(1,0,0,-1,-485.35066,668.7845)"><g transform="translate(560.9679,565.6996)"><path id="path2532" d="m 0,0 -0.849,1.134 -1.419,1.418 -1.417,1.983 -1.134,1.702 -1.134,0.85 -1.701,1.134 -2.552,7.372 0.851,1.7 0.567,1.985 0.282,1.701 v 4.818 l 0.569,2.836 -0.851,1.416 -1.418,1.135 -0.281,1.701 -2.838,4.536 -1.983,2.834 -1.702,3.403 -2.267,2.835 v 2.834 l 0.283,2.835 -0.567,3.402 -0.567,2.268 -13.323,-7.654 -13.43,7.708 -0.569,-2.268 -0.46,-3.456 0.284,-2.835 v -2.834 l -2.269,-2.835 -1.701,-3.403 -1.984,-2.834 -2.835,-4.536 -0.283,-1.701 -1.418,-1.135 -0.85,-1.416 0.566,-2.836 v -4.818 l 0.284,-1.701 0.567,-1.985 0.851,-1.7 -2.553,-7.372 -1.7,-1.134 -1.133,-0.85 L -63.218,4.535 -64.637,2.552 -66.054,1.134 -66.905,0 -67.188,-1.417 h 2.834 l 0.284,-1.418 h 4.819 l 1.702,0.283 2.267,0.283 2.269,0.852 1.984,0.566 1.418,0.851 1.985,0.85 1.984,0.851 1.702,0.567 1.983,0.567 1.418,0.284 1.418,0.85 0.567,1.701 -0.567,1.701 -1.134,2.552 0.283,1.417 c 0,0 0,1.701 -0.283,2.551 -0.284,0.85 0,1.985 0,1.985 l -0.567,3.118 -0.851,1.134 -0.849,1.135 -0.285,1.983 0.285,1.418 0.282,2.834 0.567,1.985 1.984,1.701 1.986,1.984 1.133,1.418 0.568,1.417 1.416,2.269 1.135,0.566 1.134,-0.566 1.417,-2.269 0.567,-1.417 1.135,-1.418 1.983,-1.984 1.984,-1.701 0.568,-1.985 0.283,-2.834 0.283,-1.418 -0.283,-1.983 -0.851,-1.135 -0.85,-1.134 -0.567,-3.118 c 0,0 0.284,-1.135 0,-1.985 -0.283,-0.85 -0.283,-2.551 -0.283,-2.551 l 0.283,-1.417 -1.134,-2.552 -0.567,-1.701 0.567,-1.701 1.418,-0.85 1.417,-0.284 1.984,-0.567 1.699,-0.567 1.987,-0.851 1.984,-0.85 1.418,-0.851 1.984,-0.566 2.268,-0.852 2.268,-0.283 1.701,-0.283 h 4.819 l 0.283,1.418 H 0.284 L 0,0" style="fill:#ffffff;fill-opacity:1;fill-rule:nonzero;stroke:none" /></g></g>
    <g transform="matrix(1,0,0,-1,-485.35066,668.7845)"><g transform="translate(560.9679,565.6996)"><path id="path2536" d="m 0,0 -0.849,1.134 -1.419,1.418 -1.417,1.983 -1.134,1.702 -1.134,0.85 -1.701,1.134 -2.552,7.372 0.851,1.7 0.567,1.985 0.282,1.701 v 4.818 l 0.569,2.836 -0.851,1.416 -1.418,1.135 -0.281,1.701 -2.838,4.536 -1.983,2.834 -1.702,3.403 -2.267,2.835 v 2.834 l 0.283,2.835 -0.567,3.402 -0.567,2.268 -13.323,-7.654 -13.43,7.708 -0.569,-2.268 -0.46,-3.456 0.284,-2.835 v -2.834 l -2.269,-2.835 -1.701,-3.403 -1.984,-2.834 -2.835,-4.536 -0.283,-1.701 -1.418,-1.135 -0.85,-1.416 0.566,-2.836 v -4.818 l 0.284,-1.701 0.567,-1.985 0.851,-1.7 -2.553,-7.372 -1.7,-1.134 -1.133,-0.85 L -63.218,4.535 -64.637,2.552 -66.054,1.134 -66.905,0 -67.188,-1.417 h 2.834 l 0.284,-1.418 h 4.819 l 1.702,0.283 2.267,0.283 2.269,0.852 1.984,0.566 1.418,0.851 1.985,0.85 1.984,0.851 1.702,0.567 1.983,0.567 1.418,0.284 1.418,0.85 0.567,1.701 -0.567,1.701 -1.134,2.552 0.283,1.417 c 0,0 0,1.701 -0.283,2.551 -0.284,0.85 0,1.985 0,1.985 l -0.567,3.118 -0.851,1.134 -0.849,1.135 -0.285,1.983 0.285,1.418 0.282,2.834 0.567,1.985 1.984,1.701 1.986,1.984 1.133,1.418 0.568,1.417 1.416,2.269 1.135,0.566 1.134,-0.566 1.417,-2.269 0.567,-1.417 1.135,-1.418 1.983,-1.984 1.984,-1.701 0.568,-1.985 0.283,-2.834 0.283,-1.418 -0.283,-1.983 -0.851,-1.135 -0.85,-1.134 -0.567,-3.118 c 0,0 0.284,-1.135 0,-1.985 -0.283,-0.85 -0.283,-2.551 -0.283,-2.551 l 0.283,-1.417 -1.134,-2.552 -0.567,-1.701 0.567,-1.701 1.418,-0.85 1.417,-0.284 1.984,-0.567 1.699,-0.567 1.987,-0.851 1.984,-0.85 1.418,-0.851 1.984,-0.566 2.268,-0.852 2.268,-0.283 1.701,-0.283 h 4.819 l 0.283,1.418 h 2.836 z" style="fill:none;stroke:#000000;stroke-width:0.96600002;stroke-linecap:butt;stroke-linejoin:miter;stroke-miterlimit:4;stroke-dasharray:none;stroke-opacity:1" /></g></g>
    <g transform="matrix(1,0,0,-1,-485.35066,668.7845)"><g transform="translate(542.2572,634.872)"><path id="path2540" d="M 0,0 1.418,-0.284 3.118,0 3.97,-0.851 l 1.135,-1.701 1.417,-1.134 1.417,-0.85 1.984,-0.568 1.7,-0.282 1.135,-0.568 v -1.417 l -1.418,-0.567 -1.135,-0.85 -0.849,-1.701 v -1.702 l 0.567,-1.7 0.851,0.566 0.566,1.701 0.851,1.702 h 0.851 l -0.284,-1.419 -0.283,-1.417 -0.568,-0.85 0.568,-1.134 v -1.984 l -1.418,-0.567 -1.418,-0.568 v -1.134 l 1.135,-0.567 2.268,-0.567 h 1.417 l 1.417,1.134 2.268,0.568 1.135,1.417 1.701,1.134 1.7,1.417 1.417,1.701 1.417,1.701 0.567,2.269 0.285,1.984 -0.567,2.268 -0.567,1.701 -1.135,1.702 -1.983,1.983 -1.418,1.135 -1.417,1.416 -1.417,1.985 -1.986,2.268 -1.7,1.135 -0.566,1.7 -0.852,1.985 -1.701,1.134 -1.984,1.417 -1.701,1.417 -1.418,1.418 -4.78,0.284" style="fill:#ffffff;fill-opacity:1;fill-rule:nonzero;stroke:#000000;stroke-width:0.96600002;stroke-linecap:butt;stroke-linejoin:miter;stroke-miterlimit:10;stroke-dasharray:none;stroke-opacity:1" /></g></g>
    <g transform="matrix(1,0,0,-1,-485.35066,668.7845)"><g transform="translate(542.2572,634.872)"><path id="path2544" d="M 0,0 1.418,-0.284 3.118,0 3.97,-0.851 l 1.135,-1.701 1.417,-1.134 1.417,-0.85 1.984,-0.568 1.7,-0.282 1.135,-0.568 v -1.417 l -1.418,-0.567 -1.135,-0.85 -0.849,-1.701 v -1.702 l 0.567,-1.7 0.851,0.566 0.566,1.701 0.851,1.702 h 0.851 l -0.284,-1.419 -0.283,-1.417 -0.568,-0.85 0.568,-1.134 v -1.984 l -1.418,-0.567 -1.418,-0.568 v -1.134 l 1.135,-0.567 2.268,-0.567 h 1.417 l 1.417,1.134 2.268,0.568 1.135,1.417 1.701,1.134 1.7,1.417 1.417,1.701 1.417,1.701 0.567,2.269 0.285,1.984 -0.567,2.268 -0.567,1.701 -1.135,1.702 -1.983,1.983 -1.418,1.135 -1.417,1.416 -1.417,1.985 -1.986,2.268 -1.7,1.135 -0.566,1.7 -0.852,1.985 -1.701,1.134 -1.984,1.417 -1.701,1.417 -1.418,1.418 -4.78,0.284" style="fill:none;stroke:#000000;stroke-width:0.45899999;stroke-linecap:butt;stroke-linejoin:miter;stroke-miterlimit:4;stroke-dasharray:none;stroke-opacity:1" /></g></g>
    <g transform="matrix(1,0,0,-1,-485.35066,668.7845)"><g transform="translate(512.8092,634.9069)"><path id="path2548" d="m 0,0 -1.416,-0.283 -2.304,0.248 -0.851,-0.851 -1.135,-1.701 -1.418,-1.134 -1.416,-0.85 -1.985,-0.568 -1.7,-0.282 -1.133,-0.568 v -1.417 l 1.417,-0.567 1.133,-0.85 0.85,-1.702 v -1.701 l -0.567,-1.7 -0.85,0.566 -0.566,1.701 -0.851,1.702 h -0.85 l 0.284,-1.419 0.282,-1.416 0.568,-0.851 -0.568,-1.133 v -1.984 l 1.418,-0.567 1.416,-0.568 v -1.134 l -1.133,-0.567 -2.267,-0.567 h -1.417 l -1.419,1.134 -2.267,0.568 -1.135,1.417 -1.701,1.134 -1.701,1.417 -1.417,1.701 -1.418,1.7 -0.566,2.269 -0.284,1.984 0.567,2.268 0.568,1.7 1.133,1.703 1.984,1.983 1.419,1.135 1.416,1.416 1.418,1.985 1.984,2.268 1.702,1.135 0.567,1.7 0.851,1.985 1.7,1.134 1.984,1.417 1.701,1.417 1.418,1.418 5.387,1.134" style="fill:#ffffff;fill-opacity:1;fill-rule:nonzero;stroke:#000000;stroke-width:0.96600002;stroke-linecap:butt;stroke-linejoin:miter;stroke-miterlimit:10;stroke-dasharray:none;stroke-opacity:1" /></g></g>
    <g transform="matrix(1,0,0,-1,-485.35066,668.7845)"><g transform="translate(512.8092,634.9069)"><path id="path2552" d="m 0,0 -1.416,-0.283 -2.304,0.248 -0.851,-0.851 -1.135,-1.701 -1.418,-1.134 -1.416,-0.85 -1.985,-0.568 -1.7,-0.282 -1.133,-0.568 v -1.417 l 1.417,-0.567 1.133,-0.85 0.85,-1.702 v -1.701 l -0.567,-1.7 -0.85,0.566 -0.566,1.701 -0.851,1.702 h -0.85 l 0.284,-1.419 0.282,-1.416 0.568,-0.851 -0.568,-1.133 v -1.984 l 1.418,-0.567 1.416,-0.568 v -1.134 l -1.133,-0.567 -2.267,-0.567 h -1.417 l -1.419,1.134 -2.267,0.568 -1.135,1.417 -1.701,1.134 -1.701,1.417 -1.417,1.701 -1.418,1.7 -0.566,2.269 -0.284,1.984 0.567,2.268 0.568,1.7 1.133,1.703 1.984,1.983 1.419,1.135 1.416,1.416 1.418,1.985 1.984,2.268 1.702,1.135 0.567,1.7 0.851,1.985 1.7,1.134 1.984,1.417 1.701,1.417 1.418,1.418 5.387,1.134" style="fill:none;stroke:#000000;stroke-width:0.45899999;stroke-linecap:butt;stroke-linejoin:miter;stroke-miterlimit:4;stroke-dasharray:none;stroke-opacity:1" /></g></g>
    <g transform="matrix(1,0,0,-1,-485.35066,668.7845)"><g transform="translate(527.5168,615.8778)"><path id="path2556" d="M 0,0 2.268,-0.283 4.252,-0.567 6.52,-1.134 7.937,-1.418 8.505,0 v 1.984 l -0.568,2.269 1.702,0.851 1.7,0.85 1.985,1.7 1.134,2.269 0.568,2.551 0.282,2.268 -0.567,2.835 -0.283,2.834 0.283,1.985 0.567,2.551 0.284,2.835 0.283,2.552 h -31.751 l 0.282,-2.552 0.285,-2.835 0.566,-2.551 0.284,-1.985 -0.284,-2.834 -0.566,-2.835 0.283,-2.268 0.567,-2.551 1.132,-2.269 1.987,-1.7 3.401,-1.701 -0.567,-2.269 V 0 l 0.567,-1.418 1.418,0.284 2.269,0.567 1.982,0.284 z" style="fill:#ffffff;fill-opacity:1;fill-rule:nonzero;stroke:none" /></g></g>
    <g transform="matrix(1,0,0,-1,-485.35066,668.7845)"><g transform="translate(527.5168,615.8778)"><path id="path2560" d="M 0,0 2.268,-0.283 4.252,-0.567 6.52,-1.134 7.937,-1.418 8.505,0 v 1.984 l -0.568,2.269 1.702,0.851 1.7,0.85 1.985,1.7 1.134,2.269 0.568,2.551 0.282,2.268 -0.567,2.835 -0.283,2.834 0.283,1.985 0.567,2.551 0.284,2.835 0.283,2.552 h -31.751 l 0.282,-2.552 0.285,-2.835 0.566,-2.551 0.284,-1.985 -0.284,-2.834 -0.566,-2.835 0.283,-2.268 0.567,-2.551 1.132,-2.269 1.987,-1.7 3.401,-1.701 -0.567,-2.269 V 0 l 0.567,-1.418 1.418,0.284 2.269,0.567 1.982,0.284 L 0,0" style="fill:none;stroke:#000000;stroke-width:0.96600002;stroke-linecap:butt;stroke-linejoin:miter;stroke-miterlimit:4;stroke-dasharray:none;stroke-opacity:1" /></g></g>
    <g transform="matrix(1,0,0,-1,-485.35066,668.7845)"><g transform="translate(527.5168,615.8778)"><path id="path2564" d="M 0,0 2.268,-0.283 4.252,-0.567 6.52,-1.134 7.937,-1.418 8.505,0 v 1.984 l -0.568,2.269 1.702,0.851 1.7,0.85 1.985,1.7 1.134,2.269 0.568,2.551 0.282,2.268 -0.567,2.835 -0.283,2.834 0.283,1.985 0.567,2.551 0.284,2.835 0.283,2.552 h -31.751 l 0.282,-2.552 0.285,-2.835 0.566,-2.551 0.284,-1.985 -0.284,-2.834 -0.566,-2.835 0.283,-2.268 0.567,-2.551 1.132,-2.269 1.987,-1.7 3.401,-1.701 -0.567,-2.269 V 0 l 0.567,-1.418 1.418,0.284 2.269,0.567 1.982,0.284 L 0,0" style="fill:none;stroke:#000000;stroke-width:0.45899999;stroke-linecap:butt;stroke-linejoin:miter;stroke-miterlimit:4;stroke-dasharray:none;stroke-opacity:1" /></g></g>
    <g transform="matrix(1,0,0,-1,-485.35066,668.7845)"><g transform="translate(552.1804,662.6537)"><path id="path2568" d="m 0,0 -1.134,-0.282 -0.285,-1.419 v -1.134 l -1.133,-0.849 -1.417,-0.285 -0.849,0.568 -0.569,1.134 -1.701,0.283 -1.701,-0.283 -2.267,-0.285 h -4.537 l -1.983,-0.283 -1.986,-0.566 -1.134,-1.134 -2.144,0.268 v 0.015 h -2.959 l -2.267,-0.283 -1.134,1.134 -1.984,0.566 -1.985,0.283 h -4.536 l -2.267,0.285 -1.701,0.283 -1.702,-0.283 -0.567,-1.134 -0.85,-0.568 -1.418,0.285 -1.134,0.849 v 1.134 l -0.284,1.419 -1.133,0.282 -0.567,-1.984 0.851,-2.268 0.849,-1.984 1.702,-0.284 1.701,-0.851 1.135,-0.85 0.282,-1.984 0.284,-2.553 0.566,-1.983 1.134,-1.417 c 0,0 1.418,-0.852 2.268,-0.852 0.851,0 1.702,-0.566 1.702,-0.566 l 2.268,-0.567 1.701,-0.568 1.418,-1.133 1.416,-1.701 1.702,-1.985 1.416,-2.267 1.418,-1.134 h 2.268 l 1.417,1.134 1.418,2.267 1.701,1.985 1.417,1.701 1.419,1.133 1.7,0.568 2.269,0.567 c 0,0 0.85,0.566 1.7,0.566 0.849,0 2.267,0.852 2.267,0.852 l 1.134,1.417 0.568,1.983 0.284,2.553 0.283,1.984 1.133,0.85 1.702,0.851 1.701,0.284 0.85,1.984 0.851,2.268 L 0,0" style="fill:#ffffff;fill-opacity:1;fill-rule:nonzero;stroke:#000000;stroke-width:0.96600002;stroke-linecap:butt;stroke-linejoin:miter;stroke-miterlimit:10;stroke-dasharray:none;stroke-opacity:1" /></g></g>
    <g transform="matrix(1,0,0,-1,-485.35066,668.7845)"><g transform="translate(552.1804,662.6537)"><path id="path2572" d="m 0,0 -1.134,-0.282 -0.285,-1.419 v -1.134 l -1.133,-0.849 -1.417,-0.285 -0.849,0.568 -0.569,1.134 -1.701,0.283 -1.701,-0.283 -2.267,-0.285 h -4.537 l -1.983,-0.283 -1.986,-0.566 -1.134,-1.134 -2.144,0.268 v 0.015 h -2.959 l -2.267,-0.283 -1.134,1.134 -1.984,0.566 -1.985,0.283 h -4.536 l -2.267,0.285 -1.701,0.283 -1.702,-0.283 -0.567,-1.134 -0.85,-0.568 -1.418,0.285 -1.134,0.849 v 1.134 l -0.284,1.419 -1.133,0.282 -0.567,-1.984 0.851,-2.268 0.849,-1.984 1.702,-0.284 1.701,-0.851 1.135,-0.85 0.282,-1.984 0.284,-2.553 0.566,-1.983 1.134,-1.417 c 0,0 1.418,-0.852 2.268,-0.852 0.851,0 1.702,-0.566 1.702,-0.566 l 2.268,-0.567 1.701,-0.568 1.418,-1.133 1.416,-1.701 1.702,-1.985 1.416,-2.267 1.418,-1.134 h 2.268 l 1.417,1.134 1.418,2.267 1.701,1.985 1.417,1.701 1.419,1.133 1.7,0.568 2.269,0.567 c 0,0 0.85,0.566 1.7,0.566 0.849,0 2.267,0.852 2.267,0.852 l 1.134,1.417 0.568,1.983 0.284,2.553 0.283,1.984 1.133,0.85 1.702,0.851 1.701,0.284 0.85,1.984 0.851,2.268 z" style="fill:none;stroke:#000000;stroke-width:0.45899999;stroke-linecap:butt;stroke-linejoin:miter;stroke-miterlimit:4;stroke-dasharray:none;stroke-opacity:1" /></g></g>
    <g transform="matrix(1,0,0,-1,-485.35066,668.7845)"><g transform="translate(527.6581,640.9674)"><path id="path2576" d="m 0,0 -1.418,0.849 -1.417,0.568 -0.85,1.702 -0.568,1.983 -0.566,1.985 -0.567,2.268 v 1.417 l 0.85,1.985 1.133,1.418 1.985,1.133 H 1.416 L 3.403,14.175 4.535,12.757 5.386,10.772 V 9.355 L 4.82,7.087 4.253,5.102 3.685,3.119 2.834,1.417 1.416,0.849 Z" style="fill:#ffffff;fill-opacity:1;fill-rule:nonzero;stroke:none" /></g></g>
    <g transform="matrix(1,0,0,-1,-485.35066,668.7845)"><g transform="translate(527.6581,640.9674)"><path id="path2580" d="m 0,0 -1.418,0.849 -1.417,0.568 -0.85,1.702 -0.568,1.983 -0.566,1.985 -0.567,2.268 v 1.417 l 0.85,1.985 1.133,1.418 1.985,1.133 H 1.416 L 3.403,14.175 4.535,12.757 5.386,10.772 V 9.355 L 4.82,7.087 4.253,5.102 3.685,3.119 2.834,1.417 1.416,0.849 0,0" style="fill:none;stroke:#000000;stroke-width:0.96600002;stroke-linecap:butt;stroke-linejoin:miter;stroke-miterlimit:4;stroke-dasharray:none;stroke-opacity:1" /></g></g>
    <g transform="matrix(1,0,0,-1,-485.35066,668.7845)"><g transform="translate(515.8928,667.5696)"><path id="path2584" d="m 0,0 c -2.656,0 -4.81,-2.693 -4.81,-6.014 0,-3.322 2.154,-6.014 4.81,-6.014 2.658,0 4.811,2.692 4.811,6.014 C 4.811,-2.693 2.658,0 0,0" style="fill:#ffffff;fill-opacity:1;fill-rule:nonzero;stroke:#000000;stroke-width:0.96600002;stroke-linecap:butt;stroke-linejoin:miter;stroke-miterlimit:4;stroke-dasharray:none;stroke-opacity:1" /></g></g>
    <g transform="matrix(1,0,0,-1,-485.35066,668.7845)"><g transform="translate(515.8928,667.5696)"><path id="path2588" d="m 0,0 c -2.656,0 -4.81,-2.693 -4.81,-6.014 0,-3.322 2.154,-6.014 4.81,-6.014 2.658,0 4.811,2.692 4.811,6.014 C 4.811,-2.693 2.658,0 0,0 Z" style="fill:none;stroke:#000000;stroke-width:0.45899999;stroke-linecap:butt;stroke-linejoin:miter;stroke-miterlimit:4;stroke-dasharray:none;stroke-opacity:1" /></g></g>
    </g>
</svg>
