<?xml version="1.0" encoding="UTF-8"?>
<!-- Editable MekBay quad structure paperdoll. Pink dashed rectangles mark pip areas and are removed at runtime. -->
<svg xmlns="http://www.w3.org/2000/svg" viewBox="23.21 5.928 109.247 157.367" role="img" aria-label="quad structure paperdoll">
    <g id="paperdoll-art-structure">
    <g transform="matrix(1,0,0,-1,-395.32308,374.1915)"><g transform="translate(465.3542,301.9333)"><path id="path3615" d="m 0,0 h -5.202 v -2.6 l 1.301,-2.601 v -3.902 h -1.301 v -2.601 l 1.301,-1.3 v -5.203 l -1.301,-1.301 -0.001,-9.103 1.3,-2.601 1.302,-1.302 v -6.501 l -1.3,-1.3 v -2.602 l -1.302,-1.3 v -1.3 l 1.3,-1.303 v -2.6 l -1.3,-1.301 v -3.902 l 1.302,0.002 -1.302,-7.805 1.302,-2.601 v -6.501 l 1.3,-1.3 v -2.602 l -1.3,-1.3 v -1.301 L 0,-79.331 v -3.902 h -20.811 v 3.901 l 3.904,1.301 v 1.301 l -1.301,1.3 v 2.602 l 1.301,1.3 v 6.501 l 1.3,2.601 -1.3,10.405 1.3,3.901 v 2.603 l -1.3,1.301 v 3.901 l -1.301,1.3 v 6.501 l 1.3,1.302 v 1.3 h 1.301 v 3.901 l -1.301,1.301 v 1.301 h 1.301 v 3.901 l -1.3,1.301 v 3.902 l -1.301,1.301 v 2.6 l 1.301,1.301 v 3.902 l 1.3,2.601 v 1.3 l -1.3,1.3 v 7.805 l 1.3,1.3 h 15.605 z" style="fill:#c7c7c7;fill-opacity:1;fill-rule:nonzero;stroke:none" /></g></g>
    <g transform="matrix(1,0,0,-1,-395.32308,374.1915)"><g transform="translate(451.0477,300.6345)"><path id="path3619" d="m 0,0 h -5.609 l -0.227,-3.198 1.069,-2.704 -0.339,-3.887 -1.297,0.113 -0.225,-2.591 1.182,-1.407 -0.453,-5.184 -1.41,-1.182 -1.021,-11.66 1.068,-2.705 1.183,-1.412 -0.566,-6.474 -1.409,-1.183 -0.567,-6.479 -1.409,-1.182 -0.113,-1.295 1.181,-1.409 -0.227,-2.591 -1.408,-1.183 -0.34,-3.887 1.295,-0.112 -1.975,-7.661 1.068,-2.705 -0.566,-6.477 1.183,-1.409 -0.228,-2.591 -1.408,-1.181 -0.113,-1.297 2.577,-0.904 v -3.901 h -20.783 l -0.026,3.901 5.276,2.039 0.113,1.295 -1.183,1.408 0.228,2.592 1.409,1.182 0.567,6.476 1.52,2.479 -0.387,10.478 1.635,3.774 0.227,2.591 -1.182,1.41 0.68,7.772 -1.183,1.41 0.566,6.475 1.41,1.184 0.113,1.297 1.296,-0.115 0.566,6.479 -1.181,1.409 0.113,1.294 1.296,-0.113 0.34,3.887 -1.183,1.409 0.34,3.888 -1.183,1.408 0.228,2.591 1.409,1.183 0.339,3.887 1.524,2.477 0.113,1.296 -1.182,1.409 0.679,7.775 1.409,0.916 15.181,0 z" style="fill:#c7c7c7;fill-opacity:1;fill-rule:nonzero;stroke:none" /></g></g>
    <g transform="matrix(1,0,0,-1,-395.32308,374.1915)"><g transform="translate(483.5612,301.9333)"><path id="path3623" d="M 0,0 H 5.201 V -2.6 L 3.9,-5.201 v -3.902 h 1.301 v -2.601 l -1.301,-1.3 v -5.203 l 1.301,-1.301 0.002,-9.103 -1.301,-2.601 -1.303,-1.302 v -6.501 l 1.302,-1.3 v -2.602 l 1.302,-1.3 v -1.3 L 3.902,-46.82 v -2.6 l 1.301,-1.301 v -3.902 l -1.302,0.002 1.302,-7.805 -1.302,-2.601 v -6.501 l -1.3,-1.3 v -2.602 l 1.3,-1.3 v -1.301 L 0,-79.331 v -3.902 h 20.809 v 3.901 l -3.902,1.301 v 1.301 l 1.3,1.3 v 2.602 l -1.3,1.3 v 6.501 l -1.3,2.601 1.3,10.405 -1.3,3.901 -10e-4,2.603 1.301,1.301 v 3.901 l 1.3,1.3 v 6.501 l -1.3,1.302 v 1.3 h -1.3 v 3.901 l 1.3,1.301 v 1.301 h -1.301 v 3.901 l 1.301,1.301 v 3.902 l 1.3,1.301 v 2.6 l -1.3,1.301 v 3.902 L 15.606,-2.6 v 1.3 L 16.907,0 v 7.805 l -1.301,1.3 H 0.002 Z" style="fill:#c7c7c7;fill-opacity:1;fill-rule:nonzero;stroke:none" /></g></g>
    <g transform="matrix(1,0,0,-1,-395.32308,374.1915)"><g transform="translate(457.5496,364.3629)"><path id="path3627" d="m 0,0 h -5.201 v 1.3 h -2.602 v -3.901 h -2.601 l -3.901,-3.902 h -3.902 l -9.104,-9.104 v -3.901 l -3.901,-3.902 v -1.301 l 2.601,-1.301 v -2.6 h -2.601 v -1.301 l 15.606,-23.41 h 1.301 l 1.299,-1.301 H -1.3 l 1.3,1.301 1.302,-0.002 V 1.3 Z" style="fill:#c7c7c7;fill-opacity:1;fill-rule:nonzero;stroke:none" /></g></g>
    <g transform="matrix(1,0,0,-1,-395.32308,374.1915)"><g transform="translate(491.3649,364.3629)"><path id="path3631" d="m 0,0 h 5.202 v 1.3 h 2.602 v -3.901 h 2.599 l 3.903,-3.902 h 3.902 l 9.104,-9.104 v -3.901 l 3.901,-3.902 v -1.301 l -2.601,-1.301 v -2.6 h 2.601 v -1.301 l -15.607,-23.41 h -1.3 l -1.301,-1.301 H 1.301 L 0,-53.323 -1.301,-53.325 V 1.3 Z" style="fill:#c7c7c7;fill-opacity:1;fill-rule:nonzero;stroke:none" /></g></g>
    <g transform="matrix(1,0,0,-1,-395.32308,374.1915)"><g transform="translate(487.4626,365.6627)"><path id="path3635" d="M 0,0 -2.6,-2.6 H -23.41 L -26.012,0 h -2.599 v -54.625 h 2.599 l 2.602,-23.408 3.902,-1.3 v 3.901 h 2.601 v -3.901 h 1.301 l 1.3,3.901 h 2.601 l 1.3,-3.901 h 1.301 v 3.901 h 2.601 v -3.901 l 3.903,1.3 2.6,23.408 H 2.601 L 2.601,0 Z" style="fill:#c7c7c7;fill-opacity:1;fill-rule:nonzero;stroke:none" /></g></g>
    <g transform="matrix(1,0,0,-1,-395.32308,374.1915)"><g transform="translate(497.8669,300.6345)"><path id="path3639" d="m 0,0 h 5.609 l 0.227,-3.198 -1.069,-2.704 0.34,-3.887 1.296,0.113 0.226,-2.591 -1.182,-1.407 0.452,-5.184 1.411,-1.182 1.021,-11.66 -1.069,-2.705 -1.184,-1.412 0.567,-6.474 1.409,-1.183 0.568,-6.479 1.409,-1.182 0.113,-1.295 -1.181,-1.409 0.226,-2.591 1.408,-1.183 0.34,-3.887 -1.295,-0.112 1.975,-7.661 -1.068,-2.705 0.567,-6.477 -1.184,-1.409 0.227,-2.591 1.409,-1.181 0.114,-1.297 -2.577,-0.904 v -3.901 h 20.782 l 0.026,3.901 -5.276,2.039 -0.113,1.295 1.183,1.408 -0.227,2.592 -1.41,1.182 -0.566,6.476 -1.521,2.479 0.387,10.478 -1.635,3.774 -0.228,2.591 1.183,1.41 -0.681,7.772 1.184,1.41 -0.566,6.475 -1.409,1.184 -0.114,1.297 -1.295,-0.115 -0.566,6.479 1.18,1.409 -0.113,1.294 -1.296,-0.113 -0.339,3.887 1.18,1.409 -0.339,3.888 1.184,1.408 -0.228,2.591 -1.409,1.183 -0.34,3.887 -1.522,2.477 -0.113,1.296 1.182,1.409 -0.68,7.775 -1.409,0.916 H 0 Z" style="fill:#c7c7c7;fill-opacity:1;fill-rule:nonzero;stroke:none" /></g></g>
    <g transform="matrix(1,0,0,-1,-395.32308,374.1915)"><g transform="translate(462.7527,304.5349)"><path class="structure unitLocation" id="paperdoll-art-structure-RLL-isRLL" loc="RLL" d="m 0,0 h -5.202 v -2.601 l 1.301,-2.601 v -3.903 h -1.301 v -2.601 l 1.301,-1.3 v -5.203 l -1.301,-1.299 -0.001,-9.104 1.3,-2.601 1.303,-1.302 v -6.501 l -1.301,-1.3 v -2.603 l -1.302,-1.299 v -1.3 l 1.3,-1.303 v -2.601 l -1.3,-1.3 v -3.901 h 1.302 l -1.302,-7.804 1.302,-2.601 v -6.502 l 1.3,-1.3 v -2.602 l -1.3,-1.299 v -1.302 L 0,-79.332 v -3.902 h -20.81 v 3.901 l 3.903,1.302 v 1.3 l -1.302,1.299 v 2.602 l 1.302,1.3 v 6.502 l 1.3,2.601 -1.3,10.406 1.3,3.901 v 2.602 l -1.3,1.301 v 3.901 l -1.302,1.3 v 6.501 l 1.301,1.302 v 1.3 h 1.301 v 3.901 l -1.301,1.302 v 1.3 h 1.301 v 3.902 l -1.3,1.299 v 3.902 l -1.302,1.301 v 2.6 l 1.302,1.301 v 3.903 l 1.3,2.601 v 1.3 L -16.907,0 v 7.803 l 1.3,1.302 h 15.605 z" style="fill:#ffffff;fill-opacity:1;fill-rule:nonzero;stroke:none" /></g></g>
    <g transform="matrix(1,0,0,-1,-395.32308,374.1915)"><g transform="translate(462.7527,304.5349)"><path id="path4047" d="m 0,0 h -5.202 v -2.601 l 1.301,-2.601 v -3.903 h -1.301 v -2.601 l 1.301,-1.3 v -5.203 l -1.301,-1.299 -0.001,-9.104 1.3,-2.601 1.303,-1.302 v -6.501 l -1.301,-1.3 v -2.603 l -1.302,-1.299 v -1.3 l 1.3,-1.303 v -2.601 l -1.3,-1.3 v -3.901 h 1.302 l -1.302,-7.804 1.302,-2.601 v -6.502 l 1.3,-1.3 v -2.602 l -1.3,-1.299 v -1.302 L 0,-79.332 v -3.902 h -20.81 v 3.901 l 3.903,1.302 v 1.3 l -1.302,1.299 v 2.602 l 1.302,1.3 v 6.502 l 1.3,2.601 -1.3,10.406 1.3,3.901 v 2.602 l -1.3,1.301 v 3.901 l -1.302,1.3 v 6.501 l 1.301,1.302 v 1.3 h 1.301 v 3.901 l -1.301,1.302 v 1.3 h 1.301 v 3.902 l -1.3,1.299 v 3.902 l -1.302,1.301 v 2.6 l 1.302,1.301 v 3.903 l 1.3,2.601 v 1.3 L -16.907,0 v 7.803 l 1.3,1.302 h 15.605 z" style="fill:none;stroke:#000000;stroke-width:1.449;stroke-linecap:butt;stroke-linejoin:round;stroke-miterlimit:2.414;stroke-dasharray:none;stroke-opacity:1" /></g></g>
    <g transform="matrix(1,0,0,-1,-395.32308,374.1915)"><g transform="translate(448.4461,303.2351)"><path id="path4051" d="m 0,0 h -5.609 l -0.227,-3.197 1.069,-2.704 -0.339,-3.887 -1.297,0.112 -0.225,-2.59 1.182,-1.409 -0.453,-5.182 -1.41,-1.184 -1.021,-11.659 1.068,-2.705 1.184,-1.411 -0.567,-6.475 -1.408,-1.183 -0.568,-6.478 -1.409,-1.183 -0.113,-1.294 1.181,-1.411 -0.227,-2.59 -1.408,-1.183 -0.34,-3.886 1.296,-0.112 -1.976,-7.663 1.068,-2.704 -0.566,-6.478 1.183,-1.407 -0.227,-2.592 -1.409,-1.181 -0.113,-1.297 2.577,-0.903 v -3.902 h -20.783 l -0.026,3.902 5.276,2.038 0.113,1.296 -1.183,1.407 0.228,2.593 1.409,1.18 0.567,6.477 1.52,2.479 -0.387,10.478 1.635,3.773 0.228,2.592 -1.183,1.409 0.681,7.774 -1.184,1.409 0.566,6.475 1.41,1.185 0.114,1.295 1.295,-0.114 0.566,6.478 -1.18,1.409 0.112,1.296 1.296,-0.114 0.34,3.887 -1.182,1.409 0.34,3.887 -1.184,1.41 0.228,2.59 1.409,1.183 0.34,3.887 1.523,2.477 0.113,1.297 -1.182,1.408 0.679,7.774 1.409,0.917 15.181,0 z" style="fill:#ffffff;fill-opacity:1;fill-rule:nonzero;stroke:none" /></g></g>
    <g transform="matrix(1,0,0,-1,-395.32308,374.1915)"><g transform="translate(448.4461,303.2351)"><path class="structure unitLocation" id="paperdoll-art-structure-FLL-isFLL" loc="FLL" d="m 0,0 h -5.609 l -0.227,-3.197 1.069,-2.704 -0.339,-3.887 -1.297,0.112 -0.225,-2.59 1.182,-1.409 -0.453,-5.182 -1.41,-1.184 -1.021,-11.659 1.068,-2.705 1.184,-1.411 -0.567,-6.475 -1.408,-1.183 -0.568,-6.478 -1.409,-1.183 -0.113,-1.294 1.181,-1.411 -0.227,-2.59 -1.408,-1.183 -0.34,-3.886 1.296,-0.112 -1.976,-7.663 1.068,-2.704 -0.566,-6.478 1.183,-1.407 -0.227,-2.592 -1.409,-1.181 -0.113,-1.297 2.577,-0.903 v -3.902 h -20.783 l -0.026,3.902 5.276,2.038 0.113,1.296 -1.183,1.407 0.228,2.593 1.409,1.18 0.567,6.477 1.52,2.479 -0.387,10.478 1.635,3.773 0.228,2.592 -1.183,1.409 0.681,7.774 -1.184,1.409 0.566,6.475 1.41,1.185 0.114,1.295 1.295,-0.114 0.566,6.478 -1.18,1.409 0.112,1.296 1.296,-0.114 0.34,3.887 -1.182,1.409 0.34,3.887 -1.184,1.41 0.228,2.59 1.409,1.183 0.34,3.887 1.523,2.477 0.113,1.297 -1.182,1.408 0.679,7.774 1.409,0.917 15.181,0 z" style="fill:none;stroke:#000000;stroke-width:1.449;stroke-linecap:butt;stroke-linejoin:round;stroke-miterlimit:2.414;stroke-dasharray:none;stroke-opacity:1" /></g></g>
    <g transform="matrix(1,0,0,-1,-395.32308,374.1915)"><g transform="translate(480.9597,304.5349)"><path class="structure unitLocation" id="paperdoll-art-structure-RRL-isRRL" loc="RRL" d="M 0,0 H 5.201 V -2.601 L 3.9,-5.202 v -3.903 h 1.301 v -2.601 l -1.301,-1.3 v -5.203 l 1.301,-1.299 0.002,-9.104 -1.301,-2.601 -1.303,-1.302 v -6.501 l 1.302,-1.3 v -2.603 l 1.302,-1.299 v -1.3 l -1.301,-1.303 v -2.601 l 1.301,-1.3 v -3.901 H 3.901 l 1.302,-7.804 -1.302,-2.601 v -6.502 l -1.3,-1.3 v -2.602 l 1.3,-1.299 v -1.302 L 0,-79.332 v -3.902 h 20.809 v 3.901 l -3.902,1.302 v 1.3 l 1.301,1.299 v 2.602 l -1.301,1.3 v 6.502 l -1.3,2.601 1.3,10.406 -1.3,3.901 -10e-4,2.602 1.301,1.301 v 3.901 l 1.301,1.3 v 6.501 l -1.301,1.302 v 1.3 h -1.3 v 3.901 l 1.3,1.302 v 1.3 h -1.301 v 3.902 l 1.301,1.299 v 3.902 l 1.301,1.301 v 2.6 l -1.301,1.301 v 3.903 l -1.301,2.601 v 1.3 L 16.907,0 V 7.803 L 15.606,9.105 H 0.002 Z" style="fill:#ffffff;fill-opacity:1;fill-rule:nonzero;stroke:none" /></g></g>
    <g transform="matrix(1,0,0,-1,-395.32308,374.1915)"><g transform="translate(480.9597,304.5349)"><path id="path4063" d="M 0,0 H 5.201 V -2.601 L 3.9,-5.202 v -3.903 h 1.301 v -2.601 l -1.301,-1.3 v -5.203 l 1.301,-1.299 0.002,-9.104 -1.301,-2.601 -1.303,-1.302 v -6.501 l 1.302,-1.3 v -2.603 l 1.302,-1.299 v -1.3 l -1.301,-1.303 v -2.601 l 1.301,-1.3 v -3.901 H 3.901 l 1.302,-7.804 -1.302,-2.601 v -6.502 l -1.3,-1.3 v -2.602 l 1.3,-1.299 v -1.302 L 0,-79.332 v -3.902 h 20.809 v 3.901 l -3.902,1.302 v 1.3 l 1.301,1.299 v 2.602 l -1.301,1.3 v 6.502 l -1.3,2.601 1.3,10.406 -1.3,3.901 -10e-4,2.602 1.301,1.301 v 3.901 l 1.301,1.3 v 6.501 l -1.301,1.302 v 1.3 h -1.3 v 3.901 l 1.3,1.302 v 1.3 h -1.301 v 3.902 l 1.301,1.299 v 3.902 l 1.301,1.301 v 2.6 l -1.301,1.301 v 3.903 l -1.301,2.601 v 1.3 L 16.907,0 V 7.803 L 15.606,9.105 H 0.002 Z" style="fill:none;stroke:#000000;stroke-width:1.449;stroke-linecap:butt;stroke-linejoin:round;stroke-miterlimit:2.414;stroke-dasharray:none;stroke-opacity:1" /></g></g>
    <g transform="matrix(1,0,0,-1,-395.32308,374.1915)"><g transform="translate(454.9481,366.9625)"><path class="structure unitLocation" id="paperdoll-art-structure-LT-isLT" loc="LT" d="m 0,0 h -5.201 v 1.301 h -2.602 v -3.902 h -2.601 l -3.902,-3.902 h -3.901 l -9.104,-9.103 v -3.902 l -3.901,-3.902 v -1.3 l 2.601,-1.302 v -2.599 h -2.601 v -1.302 l 15.606,-23.41 h 1.3 l 1.301,-1.3 H -1.3 l 1.3,1.3 H 1.302 V 1.301 Z" style="fill:#ffffff;fill-opacity:1;fill-rule:nonzero;stroke:none" /></g></g>
    <g transform="matrix(1,0,0,-1,-395.32308,374.1915)"><g transform="translate(454.9481,366.9625)"><path id="path4071" d="m 0,0 h -5.201 v 1.301 h -2.602 v -3.902 h -2.601 l -3.902,-3.902 h -3.901 l -9.104,-9.103 v -3.902 l -3.901,-3.902 v -1.3 l 2.601,-1.302 v -2.599 h -2.601 v -1.302 l 15.606,-23.41 h 1.3 l 1.301,-1.3 H -1.3 l 1.3,1.3 H 1.302 V 1.301 Z" style="fill:none;stroke:#000000;stroke-width:1.449;stroke-linecap:butt;stroke-linejoin:round;stroke-miterlimit:2.414;stroke-dasharray:none;stroke-opacity:1" /></g></g>
    <g transform="matrix(1,0,0,-1,-395.32308,374.1915)"><g transform="translate(488.7643,366.9625)"><path class="structure unitLocation" id="paperdoll-art-structure-RT-isRT" loc="RT" d="m 0,0 h 5.201 v 1.301 h 2.602 v -3.902 h 2.601 l 3.901,-3.902 h 3.902 l 9.104,-9.103 v -3.902 l 3.902,-3.902 v -1.3 l -2.602,-1.302 v -2.599 h 2.602 v -1.302 l -15.608,-23.41 h -1.3 l -1.301,-1.3 H 1.3 l -1.3,1.3 H -1.302 V 1.301 Z" style="fill:#ffffff;fill-opacity:1;fill-rule:nonzero;stroke:none" /></g></g>
    <g transform="matrix(1,0,0,-1,-395.32308,374.1915)"><g transform="translate(488.7643,366.9625)"><path id="path4079" d="m 0,0 h 5.201 v 1.301 h 2.602 v -3.902 h 2.601 l 3.901,-3.902 h 3.902 l 9.104,-9.103 v -3.902 l 3.902,-3.902 v -1.3 l -2.602,-1.302 v -2.599 h 2.602 v -1.302 l -15.608,-23.41 h -1.3 l -1.301,-1.3 H 1.3 l -1.3,1.3 H -1.302 V 1.301 Z" style="fill:none;stroke:#000000;stroke-width:1.449;stroke-linecap:butt;stroke-linejoin:round;stroke-miterlimit:2.414;stroke-dasharray:none;stroke-opacity:1" /></g></g>
    <g transform="matrix(1,0,0,-1,-395.32308,374.1915)"><g transform="translate(484.8611,368.2632)"><path id="path4083" d="M 0,0 -2.6,-2.6 H -23.41 L -26.012,0 h -2.599 v -54.624 h 2.599 l 2.602,-23.409 3.902,-1.301 v 3.901 h 2.601 v -3.901 h 1.301 l 1.3,3.901 h 2.601 l 1.3,-3.901 h 1.301 v 3.901 h 2.602 v -3.901 L -2.6,-78.033 0,-54.624 H 2.601 L 2.601,0 Z" style="fill:#ffffff;fill-opacity:1;fill-rule:nonzero;stroke:none" /></g></g>
    <g transform="matrix(1,0,0,-1,-395.32308,374.1915)"><g transform="translate(484.8611,368.2632)"><path class="structure unitLocation" id="paperdoll-art-structure-CT-isCT" loc="CT" d="M 0,0 -2.6,-2.6 H -23.41 L -26.012,0 h -2.599 v -54.624 h 2.599 l 2.602,-23.409 3.902,-1.301 v 3.901 h 2.601 v -3.901 h 1.301 l 1.3,3.901 h 2.601 l 1.3,-3.901 h 1.301 v 3.901 h 2.602 v -3.901 L -2.6,-78.033 0,-54.624 H 2.601 L 2.601,0 Z" style="fill:none;stroke:#000000;stroke-width:1.449;stroke-linecap:butt;stroke-linejoin:miter;stroke-miterlimit:4;stroke-dasharray:none;stroke-opacity:1" /></g></g>
    <g transform="matrix(1,0,0,-1,-395.32308,374.1915)"><g transform="translate(482.8067,355.2584)"><path class="structure unitLocation" id="paperdoll-art-structure-HD-isHD" loc="HD" d="M 0,0 H -1.109 V -3.902 H 0 l -1.109,-11.705 h -4.639 l -1.301,1.299 v 1.302 h -7.804 v -1.302 l -1.3,-1.299 h -4.917 l -1.11,11.705 h 1.11 V 0 h -1.11 l -1.109,4.477 1.109,3.326 h 3.327 l 1.109,-1.683 h 13.309 l 1.109,1.683 h 3.325 L 1.11,4.477 Z" style="fill:#ffffff;stroke:#000000;stroke-width:1.449;stroke-linecap:butt;stroke-linejoin:miter;stroke-miterlimit:4;stroke-dasharray:none;stroke-opacity:1" /></g></g>
    <g transform="matrix(1,0,0,-1,-395.32308,374.1915)"><g transform="translate(495.2654,303.2351)"><path class="structure unitLocation" id="paperdoll-art-structure-FRL-isFRL" loc="FRL" d="m 0,0 h 5.609 l 0.227,-3.197 -1.068,-2.704 0.339,-3.887 1.296,0.112 0.226,-2.59 -1.182,-1.409 0.452,-5.182 1.411,-1.184 1.021,-11.659 -1.069,-2.705 -1.184,-1.411 0.567,-6.475 1.409,-1.183 0.568,-6.478 1.409,-1.183 0.113,-1.294 -1.181,-1.411 0.226,-2.59 1.408,-1.183 0.341,-3.886 -1.296,-0.112 1.975,-7.663 -1.068,-2.704 0.567,-6.478 -1.184,-1.407 0.227,-2.592 1.41,-1.181 0.113,-1.297 -2.577,-0.903 v -3.902 h 20.782 l 0.026,3.902 -5.276,2.038 -0.113,1.296 1.183,1.407 -0.227,2.593 -1.41,1.18 -0.566,6.477 -1.521,2.479 0.387,10.478 -1.635,3.773 -0.227,2.592 1.183,1.409 -0.681,7.774 1.184,1.409 -0.567,6.475 -1.409,1.185 -0.114,1.295 -1.295,-0.114 -0.566,6.478 1.18,1.409 -0.113,1.296 -1.296,-0.114 -0.339,3.887 1.181,1.409 -0.34,3.887 1.184,1.41 -0.228,2.59 -1.409,1.183 -0.341,3.887 -1.52,2.477 -0.114,1.297 1.181,1.408 -0.679,7.774 -1.409,0.917 H 0 Z" style="fill:#ffffff;fill-opacity:1;fill-rule:nonzero;stroke:none" /></g></g>
    <g transform="matrix(1,0,0,-1,-395.32308,374.1915)"><g transform="translate(495.2654,303.2351)"><path id="path4099" d="m 0,0 h 5.609 l 0.227,-3.197 -1.068,-2.704 0.339,-3.887 1.296,0.112 0.226,-2.59 -1.182,-1.409 0.452,-5.182 1.411,-1.184 1.021,-11.659 -1.069,-2.705 -1.184,-1.411 0.567,-6.475 1.409,-1.183 0.568,-6.478 1.409,-1.183 0.113,-1.294 -1.181,-1.411 0.226,-2.59 1.408,-1.183 0.341,-3.886 -1.296,-0.112 1.975,-7.663 -1.068,-2.704 0.567,-6.478 -1.184,-1.407 0.227,-2.592 1.41,-1.181 0.113,-1.297 -2.577,-0.903 v -3.902 h 20.782 l 0.026,3.902 -5.276,2.038 -0.113,1.296 1.183,1.407 -0.227,2.593 -1.41,1.18 -0.566,6.477 -1.521,2.479 0.387,10.478 -1.635,3.773 -0.227,2.592 1.183,1.409 -0.681,7.774 1.184,1.409 -0.567,6.475 -1.409,1.185 -0.114,1.295 -1.295,-0.114 -0.566,6.478 1.18,1.409 -0.113,1.296 -1.296,-0.114 -0.339,3.887 1.181,1.409 -0.34,3.887 1.184,1.41 -0.228,2.59 -1.409,1.183 -0.341,3.887 -1.52,2.477 -0.114,1.297 1.181,1.408 -0.679,7.774 -1.409,0.917 H 0 Z" style="fill:none;stroke:#000000;stroke-width:1.449;stroke-linecap:butt;stroke-linejoin:round;stroke-miterlimit:2.414;stroke-dasharray:none;stroke-opacity:1" /></g></g>
    <g transform="matrix(1,0,0,-1,-395.32308,374.1915)"><g transform="matrix(1,0,0,-1,0,765)"><g transform="translate(475.7472,415.7765)"><path class="pip structure" fill="#FFFFFF" id="is_pip_hd_3" loc="HD" d="m 0,0 c -0.96,0 -1.76,0.8 -1.76,1.759 0,0.959 0.8,1.76 1.76,1.76 0.959,0 1.758,-0.801 1.758,-1.76 C 1.758,0.8 0.959,0 0,0 Z" style="stroke:#000000;stroke-width:0.487;stroke-linecap:butt;stroke-linejoin:miter;stroke-miterlimit:2.414;stroke-dasharray:none;stroke-opacity:1" /></g></g></g>
    <g transform="matrix(1,0,0,-1,-395.32308,374.1915)"><g transform="matrix(1,0,0,-1,0,765)"><g transform="translate(471.593,408.3681)"><path class="pip structure" fill="#FFFFFF" id="is_pip_hd_1" loc="HD" d="m 0,0 c -0.961,0 -1.761,0.8 -1.761,1.758 0,0.961 0.8,1.761 1.761,1.761 0.959,0 1.758,-0.8 1.758,-1.761 C 1.758,0.8 0.959,0 0,0 Z" style="stroke:#000000;stroke-width:0.487;stroke-linecap:butt;stroke-linejoin:miter;stroke-miterlimit:2.414;stroke-dasharray:none;stroke-opacity:1" /></g></g></g>
    <g transform="matrix(1,0,0,-1,-395.32308,374.1915)"><g transform="matrix(1,0,0,-1,0,765)"><g transform="translate(467.6313,415.7765)"><path class="pip structure" fill="#FFFFFF" id="is_pip_hd_2" loc="HD" d="m 0,0 c -0.96,0 -1.76,0.8 -1.76,1.759 0,0.959 0.8,1.76 1.76,1.76 0.959,0 1.758,-0.801 1.758,-1.76 C 1.758,0.8 0.959,0 0,0 Z" style="stroke:#000000;stroke-width:0.487;stroke-linecap:butt;stroke-linejoin:miter;stroke-miterlimit:2.414;stroke-dasharray:none;stroke-opacity:1" /></g></g></g>
    <g transform="matrix(1,0,0,-1,-395.32308,374.1915)"><g transform="matrix(1,0,0,-1,0,765)"><g transform="translate(457.06,426.5)"><rect fill="none" height="5" id="isCTRow00" width="29.43" x="0" y="0" /></g></g></g>
    <g transform="matrix(1,0,0,-1,-395.32308,374.1915)"><g transform="matrix(1,0,0,-1,0,765)"><g transform="translate(457.06,426.5)"><rect fill="none" height="5" id="isCTRow01" width="29.43" x="0" y="5" /></g></g></g>
    <g transform="matrix(1,0,0,-1,-395.32308,374.1915)"><g transform="matrix(1,0,0,-1,0,765)"><g transform="translate(457.06,426.5)"><rect fill="none" height="5" id="isCTRow02" width="29.43" x="0" y="10" /></g></g></g>
    <g transform="matrix(1,0,0,-1,-395.32308,374.1915)"><g transform="matrix(1,0,0,-1,0,765)"><g transform="translate(457.06,426.5)"><rect fill="none" height="5" id="isCTRow03" width="29.43" x="0" y="15" /></g></g></g>
    <g transform="matrix(1,0,0,-1,-395.32308,374.1915)"><g transform="matrix(1,0,0,-1,0,765)"><g transform="translate(457.06,426.5)"><rect fill="none" height="5" id="isCTRow05" width="23.15" x="3.1400001" y="20" /></g></g></g>
    <g transform="matrix(1,0,0,-1,-395.32308,374.1915)"><g transform="matrix(1,0,0,-1,0,765)"><g transform="translate(457.06,426.5)"><rect fill="none" height="5" id="isCTRow06" width="22.35" x="3.54" y="25" /></g></g></g>
    <g transform="matrix(1,0,0,-1,-395.32308,374.1915)"><g transform="matrix(1,0,0,-1,0,765)"><g transform="translate(457.06,426.5)"><rect fill="none" height="5" id="isCTRow07" width="20.969999" x="4.23" y="30" /></g></g></g>
    <g transform="matrix(1,0,0,-1,-395.32308,374.1915)"><g transform="matrix(1,0,0,-1,0,765)"><g transform="translate(457.06,426.5)"><rect fill="none" height="5" id="isCTRow08" width="20.190001" x="4.6199999" y="35" /></g></g></g>
    <g transform="matrix(1,0,0,-1,-395.32308,374.1915)"><g transform="matrix(1,0,0,-1,0,765)"><g transform="translate(457.06,426.5)"><rect fill="none" height="5" id="rect664" width="19.5" x="5" y="40" /></g></g></g>
    <g transform="matrix(1,0,0,-1,-395.32308,374.1915)"><g transform="matrix(1,0,0,-1,0,765)"><g transform="translate(488.41,401.6)"><rect fill="none" height="5" id="isRTRow00" width="11.06" x="0" y="0" /></g></g></g>
    <g transform="matrix(1,0,0,-1,-395.32308,374.1915)"><g transform="matrix(1,0,0,-1,0,765)"><g transform="translate(488.41,401.6)"><rect fill="none" height="5" id="isRTRow01" width="19.83" x="0" y="5" /></g></g></g>
    <g transform="matrix(1,0,0,-1,-395.32308,374.1915)"><g transform="matrix(1,0,0,-1,0,765)"><g transform="translate(488.41,401.6)"><rect fill="none" height="5" id="isRTRow02" width="24.290001" x="0" y="10" /></g></g></g>
    <g transform="matrix(1,0,0,-1,-395.32308,374.1915)"><g transform="matrix(1,0,0,-1,0,765)"><g transform="translate(488.41,401.6)"><rect fill="none" height="5" id="isRTRow03" width="26.93" x="0" y="15" /></g></g></g>
    <g transform="matrix(1,0,0,-1,-395.32308,374.1915)"><g transform="matrix(1,0,0,-1,0,765)"><g transform="translate(488.41,401.6)"><rect fill="none" height="5" id="isRTRow04" width="27.5" x="0" y="20" /></g></g></g>
    <g transform="matrix(1,0,0,-1,-395.32308,374.1915)"><g transform="matrix(1,0,0,-1,0,765)"><g transform="translate(488.41,401.6)"><rect fill="none" height="5" id="isRTRow05" width="26.93" x="0" y="25" /></g></g></g>
    <g transform="matrix(1,0,0,-1,-395.32308,374.1915)"><g transform="matrix(1,0,0,-1,0,765)"><g transform="translate(488.41,401.6)"><rect fill="none" height="5" id="isRTRow06" width="25" x="0" y="30" /></g></g></g>
    <g transform="matrix(1,0,0,-1,-395.32308,374.1915)"><g transform="matrix(1,0,0,-1,0,765)"><g transform="translate(488.41,401.6)"><rect fill="none" height="5" id="isRTRow07" width="21.5" x="0" y="35" /></g></g></g>
    <g transform="matrix(1,0,0,-1,-395.32308,374.1915)"><g transform="matrix(1,0,0,-1,0,765)"><g transform="translate(488.41,401.6)"><rect fill="none" height="5" id="isRTRow08" width="18" x="0" y="40" /></g></g></g>
    <g transform="matrix(1,0,0,-1,-395.32308,374.1915)"><g transform="matrix(1,0,0,-1,0,765)"><g transform="translate(488.41,401.6)"><rect fill="none" height="5" id="rect665" width="11" x="2" y="45" /></g></g></g>
    <g transform="matrix(1,0,0,-1,-395.32308,374.1915)"><g transform="matrix(1,0,0,-1,0,765)"><g transform="matrix(-1,0,0,1,455.08,401.6)"><rect fill="none" height="5" id="rect666" width="11.06" x="0" y="0" /></g></g></g>
    <g transform="matrix(1,0,0,-1,-395.32308,374.1915)"><g transform="matrix(1,0,0,-1,0,765)"><g transform="matrix(-1,0,0,1,455.08,401.6)"><rect fill="none" height="5" id="rect667" width="19.83" x="0" y="5" /></g></g></g>
    <g transform="matrix(1,0,0,-1,-395.32308,374.1915)"><g transform="matrix(1,0,0,-1,0,765)"><g transform="matrix(-1,0,0,1,455.08,401.6)"><rect fill="none" height="5" id="rect668" width="24.290001" x="0" y="10" /></g></g></g>
    <g transform="matrix(1,0,0,-1,-395.32308,374.1915)"><g transform="matrix(1,0,0,-1,0,765)"><g transform="matrix(-1,0,0,1,455.08,401.6)"><rect fill="none" height="5" id="rect669" width="26.93" x="0" y="15" /></g></g></g>
    <g transform="matrix(1,0,0,-1,-395.32308,374.1915)"><g transform="matrix(1,0,0,-1,0,765)"><g transform="matrix(-1,0,0,1,455.08,401.6)"><rect fill="none" height="5" id="rect670" width="27.5" x="0" y="20" /></g></g></g>
    <g transform="matrix(1,0,0,-1,-395.32308,374.1915)"><g transform="matrix(1,0,0,-1,0,765)"><g transform="matrix(-1,0,0,1,455.08,401.6)"><rect fill="none" height="5" id="rect671" width="26.93" x="0" y="25" /></g></g></g>
    <g transform="matrix(1,0,0,-1,-395.32308,374.1915)"><g transform="matrix(1,0,0,-1,0,765)"><g transform="matrix(-1,0,0,1,455.08,401.6)"><rect fill="none" height="5" id="rect672" width="25" x="0" y="30" /></g></g></g>
    <g transform="matrix(1,0,0,-1,-395.32308,374.1915)"><g transform="matrix(1,0,0,-1,0,765)"><g transform="matrix(-1,0,0,1,455.08,401.6)"><rect fill="none" height="5" id="rect673" width="21.5" x="0" y="35" /></g></g></g>
    <g transform="matrix(1,0,0,-1,-395.32308,374.1915)"><g transform="matrix(1,0,0,-1,0,765)"><g transform="matrix(-1,0,0,1,455.08,401.6)"><rect fill="none" height="5" id="rect674" width="18" x="0" y="40" /></g></g></g>
    <g transform="matrix(1,0,0,-1,-395.32308,374.1915)"><g transform="matrix(1,0,0,-1,0,765)"><g transform="matrix(-1,0,0,1,455.08,401.6)"><rect fill="none" height="5" id="rect675" width="11" x="2" y="45" /></g></g></g>
    <g transform="matrix(1,0,0,-1,-395.32308,374.1915)"><g transform="matrix(1,0,0,-1,0,765)"><g transform="matrix(0.9962,-0.08715,0.08715,0.99619,501.36,454.65)"><rect fill="none" height="5.4313002" id="rect1486" width="11.03" x="-3.1600001" y="0" /></g></g></g>
    <g transform="matrix(1,0,0,-1,-395.32308,374.1915)"><g transform="matrix(1,0,0,-1,0,765)"><g transform="matrix(0.9962,-0.08715,0.08715,0.99619,501.36,454.65)"><rect fill="none" height="5.4313002" id="isFRLRow01" width="7.8699999" x="0" y="4.7034998" /></g></g></g>
    <g transform="matrix(1,0,0,-1,-395.32308,374.1915)"><g transform="matrix(1,0,0,-1,0,765)"><g transform="matrix(0.9962,-0.08715,0.08715,0.99619,501.36,454.65)"><rect fill="none" height="5.4313002" id="isFRLRow02" width="7.8699999" x="0" y="9.4069996" /></g></g></g>
    <g transform="matrix(1,0,0,-1,-395.32308,374.1915)"><g transform="matrix(1,0,0,-1,0,765)"><g transform="matrix(0.9962,-0.08715,0.08715,0.99619,501.36,454.65)"><rect fill="none" height="5.4313002" id="isFRLRow03" width="7.8699999" x="0" y="14.1105" /></g></g></g>
    <g transform="matrix(1,0,0,-1,-395.32308,374.1915)"><g transform="matrix(1,0,0,-1,0,765)"><g transform="matrix(0.9962,-0.08715,0.08715,0.99619,501.36,454.65)"><rect fill="none" height="5.4313002" id="isFRLRow04" width="7.8699999" x="0" y="18.813999" /></g></g></g>
    <g transform="matrix(1,0,0,-1,-395.32308,374.1915)"><g transform="matrix(1,0,0,-1,0,765)"><g transform="matrix(0.9962,-0.08715,0.08715,0.99619,501.36,454.65)"><rect fill="none" height="5.4313002" id="isFRLRow05" width="7.8699999" x="0" y="23.5175" /></g></g></g>
    <g transform="matrix(1,0,0,-1,-395.32308,374.1915)"><g transform="matrix(1,0,0,-1,0,765)"><g transform="matrix(0.9962,-0.08715,0.08715,0.99619,501.36,454.65)"><rect fill="none" height="5.4313002" id="isFRLRow06" width="7.8699999" x="0" y="28.221001" /></g></g></g>
    <g transform="matrix(1,0,0,-1,-395.32308,374.1915)"><g transform="matrix(1,0,0,-1,0,765)"><g transform="matrix(0.9962,-0.08715,0.08715,0.99619,501.36,454.65)"><rect fill="none" height="5.4313002" id="isFRLRow07" width="7.8699999" x="0" y="32.9245" /></g></g></g>
    <g transform="matrix(1,0,0,-1,-395.32308,374.1915)"><g transform="matrix(1,0,0,-1,0,765)"><g transform="matrix(0.9962,-0.08715,0.08715,0.99619,501.36,454.65)"><rect fill="none" height="5.4313002" id="isFRLRow08" width="7.8699999" x="0" y="37.627998" /></g></g></g>
    <g transform="matrix(1,0,0,-1,-395.32308,374.1915)"><g transform="matrix(1,0,0,-1,0,765)"><g transform="matrix(0.9962,-0.08715,0.08715,0.99619,501.36,454.65)"><rect fill="none" height="5.4313002" id="isFRLRow09" width="11.41" x="-1.77" y="42.3316" /></g></g></g>
    <g transform="matrix(1,0,0,-1,-395.32308,374.1915)"><g transform="matrix(1,0,0,-1,0,765)"><g transform="matrix(0.9962,-0.08715,0.08715,0.99619,501.36,454.65)"><rect fill="none" height="5.4313002" id="isFRLRow10" width="7.8699999" x="0" y="47.035099" /></g></g></g>
    <g transform="matrix(1,0,0,-1,-395.32308,374.1915)"><g transform="matrix(1,0,0,-1,0,765)"><g transform="matrix(0.9962,-0.08715,0.08715,0.99619,501.36,454.65)"><rect fill="none" height="5.4313002" id="isFRLRow11" width="7.8699999" x="0" y="51.738602" /></g></g></g>
    <g transform="matrix(1,0,0,-1,-395.32308,374.1915)"><g transform="matrix(1,0,0,-1,0,765)"><g transform="matrix(0.9962,-0.08715,0.08715,0.99619,501.36,454.65)"><rect fill="none" height="5.4313002" id="isFRLRow12" width="7.8699999" x="0" y="56.442101" /></g></g></g>
    <g transform="matrix(1,0,0,-1,-395.32308,374.1915)"><g transform="matrix(1,0,0,-1,0,765)"><g transform="matrix(0.9962,-0.08715,0.08715,0.99619,501.36,454.65)"><rect fill="none" height="5.4313002" id="isFRLRow13" width="7.8699999" x="0" y="61.145599" /></g></g></g>
    <g transform="matrix(1,0,0,-1,-395.32308,374.1915)"><g transform="matrix(1,0,0,-1,0,765)"><g transform="matrix(0.9962,-0.08715,0.08715,0.99619,501.36,454.65)"><rect fill="none" height="5.4313002" id="isFRLRow14" width="7.8699999" x="0" y="65.849098" /></g></g></g>
    <g transform="matrix(1,0,0,-1,-395.32308,374.1915)"><g transform="matrix(1,0,0,-1,0,765)"><g transform="matrix(0.9962,-0.08715,0.08715,0.99619,501.36,454.65)"><rect fill="none" height="5.4313002" id="isFRLRow15" width="7.8699999" x="0" y="70.552696" /></g></g></g>
    <g transform="matrix(1,0,0,-1,-395.32308,374.1915)"><g transform="matrix(1,0,0,-1,0,765)"><g transform="matrix(0.9962,-0.08715,0.08715,0.99619,501.36,454.65)"><rect fill="none" height="5.4313002" id="isFRLRow16" width="7.8699999" x="0" y="75.256203" /></g></g></g>
    <g transform="matrix(1,0,0,-1,-395.32308,374.1915)"><g transform="matrix(1,0,0,-1,0,765)"><g transform="matrix(0.9962,-0.08715,0.08715,0.99619,501.36,454.65)"><rect fill="none" height="5.4313002" id="isFRLRow17" width="7.8699999" x="0" y="79.959702" /></g></g></g>
    <g transform="matrix(1,0,0,-1,-395.32308,374.1915)"><g transform="matrix(1,0,0,-1,0,765)"><g transform="matrix(0.9962,-0.08715,0.08715,0.99619,501.36,454.65)"><rect fill="none" height="5.4313002" id="isFRLRow18" width="7.8699999" x="0" y="84.6632" /></g></g></g>
    <g transform="matrix(1,0,0,-1,-395.32308,374.1915)"><g transform="matrix(1,0,0,-1,0,765)"><g transform="matrix(0.9962,-0.08715,0.08715,0.99619,501.36,454.65)"><rect fill="none" height="5.4313002" id="isFRLRow19" width="7.8699999" x="0" y="89.366699" /></g></g></g>
    <g transform="matrix(1,0,0,-1,-395.32308,374.1915)"><g transform="matrix(1,0,0,-1,0,765)"><g transform="matrix(-0.9962,-0.08715,-0.08715,0.99619,442.13,454.65)"><rect fill="none" height="5.4313002" id="rect1508" width="11.03" x="-3.1600001" y="0" /></g></g></g>
    <g transform="matrix(1,0,0,-1,-395.32308,374.1915)"><g transform="matrix(1,0,0,-1,0,765)"><g transform="matrix(-0.9962,-0.08715,-0.08715,0.99619,442.13,454.65)"><rect fill="none" height="5.4313002" id="isFLLRow01" width="7.8699999" x="0" y="4.7034998" /></g></g></g>
    <g transform="matrix(1,0,0,-1,-395.32308,374.1915)"><g transform="matrix(1,0,0,-1,0,765)"><g transform="matrix(-0.9962,-0.08715,-0.08715,0.99619,442.13,454.65)"><rect fill="none" height="5.4313002" id="isFLLRow02" width="7.8699999" x="0" y="9.4069996" /></g></g></g>
    <g transform="matrix(1,0,0,-1,-395.32308,374.1915)"><g transform="matrix(1,0,0,-1,0,765)"><g transform="matrix(-0.9962,-0.08715,-0.08715,0.99619,442.13,454.65)"><rect fill="none" height="5.4313002" id="isFLLRow03" width="7.8699999" x="0" y="14.1105" /></g></g></g>
    <g transform="matrix(1,0,0,-1,-395.32308,374.1915)"><g transform="matrix(1,0,0,-1,0,765)"><g transform="matrix(-0.9962,-0.08715,-0.08715,0.99619,442.13,454.65)"><rect fill="none" height="5.4313002" id="isFLLRow04" width="7.8699999" x="0" y="18.813999" /></g></g></g>
    <g transform="matrix(1,0,0,-1,-395.32308,374.1915)"><g transform="matrix(1,0,0,-1,0,765)"><g transform="matrix(-0.9962,-0.08715,-0.08715,0.99619,442.13,454.65)"><rect fill="none" height="5.4313002" id="isFLLRow05" width="7.8699999" x="0" y="23.5175" /></g></g></g>
    <g transform="matrix(1,0,0,-1,-395.32308,374.1915)"><g transform="matrix(1,0,0,-1,0,765)"><g transform="matrix(-0.9962,-0.08715,-0.08715,0.99619,442.13,454.65)"><rect fill="none" height="5.4313002" id="isFLLRow06" width="7.8699999" x="0" y="28.221001" /></g></g></g>
    <g transform="matrix(1,0,0,-1,-395.32308,374.1915)"><g transform="matrix(1,0,0,-1,0,765)"><g transform="matrix(-0.9962,-0.08715,-0.08715,0.99619,442.13,454.65)"><rect fill="none" height="5.4313002" id="isFLLRow07" width="7.8699999" x="0" y="32.9245" /></g></g></g>
    <g transform="matrix(1,0,0,-1,-395.32308,374.1915)"><g transform="matrix(1,0,0,-1,0,765)"><g transform="matrix(-0.9962,-0.08715,-0.08715,0.99619,442.13,454.65)"><rect fill="none" height="5.4313002" id="isFLLRow08" width="7.8699999" x="0" y="37.627998" /></g></g></g>
    <g transform="matrix(1,0,0,-1,-395.32308,374.1915)"><g transform="matrix(1,0,0,-1,0,765)"><g transform="matrix(-0.9962,-0.08715,-0.08715,0.99619,442.13,454.65)"><rect fill="none" height="5.4313002" id="isFLLRow09" width="11.41" x="-1.77" y="42.3316" /></g></g></g>
    <g transform="matrix(1,0,0,-1,-395.32308,374.1915)"><g transform="matrix(1,0,0,-1,0,765)"><g transform="matrix(-0.9962,-0.08715,-0.08715,0.99619,442.13,454.65)"><rect fill="none" height="5.4313002" id="isFLLRow10" width="7.8699999" x="0" y="47.035099" /></g></g></g>
    <g transform="matrix(1,0,0,-1,-395.32308,374.1915)"><g transform="matrix(1,0,0,-1,0,765)"><g transform="matrix(-0.9962,-0.08715,-0.08715,0.99619,442.13,454.65)"><rect fill="none" height="5.4313002" id="isFLLRow11" width="7.8699999" x="0" y="51.738602" /></g></g></g>
    <g transform="matrix(1,0,0,-1,-395.32308,374.1915)"><g transform="matrix(1,0,0,-1,0,765)"><g transform="matrix(-0.9962,-0.08715,-0.08715,0.99619,442.13,454.65)"><rect fill="none" height="5.4313002" id="isFLLRow12" width="7.8699999" x="0" y="56.442101" /></g></g></g>
    <g transform="matrix(1,0,0,-1,-395.32308,374.1915)"><g transform="matrix(1,0,0,-1,0,765)"><g transform="matrix(-0.9962,-0.08715,-0.08715,0.99619,442.13,454.65)"><rect fill="none" height="5.4313002" id="isFLLRow13" width="7.8699999" x="0" y="61.145599" /></g></g></g>
    <g transform="matrix(1,0,0,-1,-395.32308,374.1915)"><g transform="matrix(1,0,0,-1,0,765)"><g transform="matrix(-0.9962,-0.08715,-0.08715,0.99619,442.13,454.65)"><rect fill="none" height="5.4313002" id="isFLLRow14" width="7.8699999" x="0" y="65.849098" /></g></g></g>
    <g transform="matrix(1,0,0,-1,-395.32308,374.1915)"><g transform="matrix(1,0,0,-1,0,765)"><g transform="matrix(-0.9962,-0.08715,-0.08715,0.99619,442.13,454.65)"><rect fill="none" height="5.4313002" id="isFLLRow15" width="7.8699999" x="0" y="70.552696" /></g></g></g>
    <g transform="matrix(1,0,0,-1,-395.32308,374.1915)"><g transform="matrix(1,0,0,-1,0,765)"><g transform="matrix(-0.9962,-0.08715,-0.08715,0.99619,442.13,454.65)"><rect fill="none" height="5.4313002" id="isFLLRow16" width="7.8699999" x="0" y="75.256203" /></g></g></g>
    <g transform="matrix(1,0,0,-1,-395.32308,374.1915)"><g transform="matrix(1,0,0,-1,0,765)"><g transform="matrix(-0.9962,-0.08715,-0.08715,0.99619,442.13,454.65)"><rect fill="none" height="5.4313002" id="isFLLRow17" width="7.8699999" x="0" y="79.959702" /></g></g></g>
    <g transform="matrix(1,0,0,-1,-395.32308,374.1915)"><g transform="matrix(1,0,0,-1,0,765)"><g transform="matrix(-0.9962,-0.08715,-0.08715,0.99619,442.13,454.65)"><rect fill="none" height="5.4313002" id="isFLLRow18" width="7.8699999" x="0" y="84.6632" /></g></g></g>
    <g transform="matrix(1,0,0,-1,-395.32308,374.1915)"><g transform="matrix(1,0,0,-1,0,765)"><g transform="matrix(-0.9962,-0.08715,-0.08715,0.99619,442.13,454.65)"><rect fill="none" height="5.4313002" id="isFLLRow19" width="7.8699999" x="0" y="89.366699" /></g></g></g>
    <g transform="matrix(1,0,0,-1,-395.32308,374.1915)"><g transform="matrix(1,0,0,-1,0,765)"><g transform="translate(487.36,454.06)"><rect fill="none" height="5.4313002" id="isRRLRow00" width="7.1100001" x="0" y="0" /></g></g></g>
    <g transform="matrix(1,0,0,-1,-395.32308,374.1915)"><g transform="matrix(1,0,0,-1,0,765)"><g transform="translate(487.36,454.06)"><rect fill="none" height="5.4313002" id="isRRLRow01" width="7.1100001" x="0" y="4.7034998" /></g></g></g>
    <g transform="matrix(1,0,0,-1,-395.32308,374.1915)"><g transform="matrix(1,0,0,-1,0,765)"><g transform="translate(487.36,454.06)"><rect fill="none" height="5.4313002" id="isRRLRow02" width="8.4899998" x="0" y="9.4069996" /></g></g></g>
    <g transform="matrix(1,0,0,-1,-395.32308,374.1915)"><g transform="matrix(1,0,0,-1,0,765)"><g transform="translate(487.36,454.06)"><rect fill="none" height="5.4313002" id="isRRLRow03" width="8.4899998" x="0" y="14.1105" /></g></g></g>
    <g transform="matrix(1,0,0,-1,-395.32308,374.1915)"><g transform="matrix(1,0,0,-1,0,765)"><g transform="translate(487.36,454.06)"><rect fill="none" height="5.4313002" id="isRRLRow04" width="8.4899998" x="0" y="18.813999" /></g></g></g>
    <g transform="matrix(1,0,0,-1,-395.32308,374.1915)"><g transform="matrix(1,0,0,-1,0,765)"><g transform="translate(487.36,454.06)"><rect fill="none" height="5.4313002" id="isRRLRow05" width="8.4899998" x="0" y="23.5175" /></g></g></g>
    <g transform="matrix(1,0,0,-1,-395.32308,374.1915)"><g transform="matrix(1,0,0,-1,0,765)"><g transform="translate(487.36,454.06)"><rect fill="none" height="5.4313002" id="isRRLRow06" width="8.4899998" x="0" y="28.221001" /></g></g></g>
    <g transform="matrix(1,0,0,-1,-395.32308,374.1915)"><g transform="matrix(1,0,0,-1,0,765)"><g transform="translate(487.36,454.06)"><rect fill="none" height="5.4313002" id="isRRLRow07" width="8.4899998" x="0" y="32.9245" /></g></g></g>
    <g transform="matrix(1,0,0,-1,-395.32308,374.1915)"><g transform="matrix(1,0,0,-1,0,765)"><g transform="translate(487.36,454.06)"><rect fill="none" height="5.4313002" id="isRRLRow08" width="8.4899998" x="0" y="37.627998" /></g></g></g>
    <g transform="matrix(1,0,0,-1,-395.32308,374.1915)"><g transform="matrix(1,0,0,-1,0,765)"><g transform="translate(487.36,454.06)"><rect fill="none" height="5.4313002" id="isRRLRow09" width="8.4899998" x="0" y="42.3316" /></g></g></g>
    <g transform="matrix(1,0,0,-1,-395.32308,374.1915)"><g transform="matrix(1,0,0,-1,0,765)"><g transform="translate(487.36,454.06)"><rect fill="none" height="5.4313002" id="isRRLRow10" width="8.4899998" x="0" y="47.035099" /></g></g></g>
    <g transform="matrix(1,0,0,-1,-395.32308,374.1915)"><g transform="matrix(1,0,0,-1,0,765)"><g transform="translate(487.36,454.06)"><rect fill="none" height="5.4313002" id="isRRLRow11" width="8.4899998" x="0" y="51.738602" /></g></g></g>
    <g transform="matrix(1,0,0,-1,-395.32308,374.1915)"><g transform="matrix(1,0,0,-1,0,765)"><g transform="translate(487.36,454.06)"><rect fill="none" height="5.4313002" id="isRRLRow12" width="8.4899998" x="0" y="56.442101" /></g></g></g>
    <g transform="matrix(1,0,0,-1,-395.32308,374.1915)"><g transform="matrix(1,0,0,-1,0,765)"><g transform="translate(487.36,454.06)"><rect fill="none" height="5.4313002" id="isRRLRow13" width="8.4899998" x="0" y="61.145599" /></g></g></g>
    <g transform="matrix(1,0,0,-1,-395.32308,374.1915)"><g transform="matrix(1,0,0,-1,0,765)"><g transform="translate(487.36,454.06)"><rect fill="none" height="5.4313002" id="isRRLRow14" width="8.4899998" x="0" y="65.849098" /></g></g></g>
    <g transform="matrix(1,0,0,-1,-395.32308,374.1915)"><g transform="matrix(1,0,0,-1,0,765)"><g transform="translate(487.36,454.06)"><rect fill="none" height="5.4313002" id="isRRLRow15" width="8.4899998" x="0" y="70.552597" /></g></g></g>
    <g transform="matrix(1,0,0,-1,-395.32308,374.1915)"><g transform="matrix(1,0,0,-1,0,765)"><g transform="translate(487.36,454.06)"><rect fill="none" height="5.4313002" id="isRRLRow16" width="8.4899998" x="0" y="75.256203" /></g></g></g>
    <g transform="matrix(1,0,0,-1,-395.32308,374.1915)"><g transform="matrix(1,0,0,-1,0,765)"><g transform="translate(487.36,454.06)"><rect fill="none" height="5.4313002" id="isRRLRow17" width="8.4899998" x="0" y="79.959702" /></g></g></g>
    <g transform="matrix(1,0,0,-1,-395.32308,374.1915)"><g transform="matrix(1,0,0,-1,0,765)"><g transform="matrix(-1,0,0,1,456.13,454.06)"><rect fill="none" height="5.4313002" id="isRLLRow00" width="7.1100001" x="0" y="0" /></g></g></g>
    <g transform="matrix(1,0,0,-1,-395.32308,374.1915)"><g transform="matrix(1,0,0,-1,0,765)"><g transform="matrix(-1,0,0,1,456.13,454.06)"><rect fill="none" height="5.4313002" id="isRLLRow01" width="7.1100001" x="0" y="4.7034998" /></g></g></g>
    <g transform="matrix(1,0,0,-1,-395.32308,374.1915)"><g transform="matrix(1,0,0,-1,0,765)"><g transform="matrix(-1,0,0,1,456.13,454.06)"><rect fill="none" height="5.4313002" id="isRLLRow02" width="8.4899998" x="0" y="9.4069996" /></g></g></g>
    <g transform="matrix(1,0,0,-1,-395.32308,374.1915)"><g transform="matrix(1,0,0,-1,0,765)"><g transform="matrix(-1,0,0,1,456.13,454.06)"><rect fill="none" height="5.4313002" id="isRLLRow03" width="8.4899998" x="0" y="14.1105" /></g></g></g>
    <g transform="matrix(1,0,0,-1,-395.32308,374.1915)"><g transform="matrix(1,0,0,-1,0,765)"><g transform="matrix(-1,0,0,1,456.13,454.06)"><rect fill="none" height="5.4313002" id="isRLLRow04" width="8.4899998" x="0" y="18.813999" /></g></g></g>
    <g transform="matrix(1,0,0,-1,-395.32308,374.1915)"><g transform="matrix(1,0,0,-1,0,765)"><g transform="matrix(-1,0,0,1,456.13,454.06)"><rect fill="none" height="5.4313002" id="isRLLRow05" width="8.4899998" x="0" y="23.5175" /></g></g></g>
    <g transform="matrix(1,0,0,-1,-395.32308,374.1915)"><g transform="matrix(1,0,0,-1,0,765)"><g transform="matrix(-1,0,0,1,456.13,454.06)"><rect fill="none" height="5.4313002" id="isRLLRow06" width="8.4899998" x="0" y="28.221001" /></g></g></g>
    <g transform="matrix(1,0,0,-1,-395.32308,374.1915)"><g transform="matrix(1,0,0,-1,0,765)"><g transform="matrix(-1,0,0,1,456.13,454.06)"><rect fill="none" height="5.4313002" id="isRLLRow07" width="8.4899998" x="0" y="32.9245" /></g></g></g>
    <g transform="matrix(1,0,0,-1,-395.32308,374.1915)"><g transform="matrix(1,0,0,-1,0,765)"><g transform="matrix(-1,0,0,1,456.13,454.06)"><rect fill="none" height="5.4313002" id="isRLLRow08" width="8.4899998" x="0" y="37.627998" /></g></g></g>
    <g transform="matrix(1,0,0,-1,-395.32308,374.1915)"><g transform="matrix(1,0,0,-1,0,765)"><g transform="matrix(-1,0,0,1,456.13,454.06)"><rect fill="none" height="5.4313002" id="isRLLRow09" width="8.4899998" x="0" y="42.3316" /></g></g></g>
    <g transform="matrix(1,0,0,-1,-395.32308,374.1915)"><g transform="matrix(1,0,0,-1,0,765)"><g transform="matrix(-1,0,0,1,456.13,454.06)"><rect fill="none" height="5.4313002" id="isRLLRow10" width="8.4899998" x="0" y="47.035099" /></g></g></g>
    <g transform="matrix(1,0,0,-1,-395.32308,374.1915)"><g transform="matrix(1,0,0,-1,0,765)"><g transform="matrix(-1,0,0,1,456.13,454.06)"><rect fill="none" height="5.4313002" id="isRLLRow11" width="8.4899998" x="0" y="51.738602" /></g></g></g>
    <g transform="matrix(1,0,0,-1,-395.32308,374.1915)"><g transform="matrix(1,0,0,-1,0,765)"><g transform="matrix(-1,0,0,1,456.13,454.06)"><rect fill="none" height="5.4313002" id="isRLLRow12" width="8.4899998" x="0" y="56.442101" /></g></g></g>
    <g transform="matrix(1,0,0,-1,-395.32308,374.1915)"><g transform="matrix(1,0,0,-1,0,765)"><g transform="matrix(-1,0,0,1,456.13,454.06)"><rect fill="none" height="5.4313002" id="isRLLRow13" width="8.4899998" x="0" y="61.145599" /></g></g></g>
    <g transform="matrix(1,0,0,-1,-395.32308,374.1915)"><g transform="matrix(1,0,0,-1,0,765)"><g transform="matrix(-1,0,0,1,456.13,454.06)"><rect fill="none" height="5.4313002" id="isRLLRow14" width="8.4899998" x="0" y="65.849098" /></g></g></g>
    <g transform="matrix(1,0,0,-1,-395.32308,374.1915)"><g transform="matrix(1,0,0,-1,0,765)"><g transform="matrix(-1,0,0,1,456.13,454.06)"><rect fill="none" height="5.4313002" id="isRLLRow15" width="8.4899998" x="0" y="70.552597" /></g></g></g>
    <g transform="matrix(1,0,0,-1,-395.32308,374.1915)"><g transform="matrix(1,0,0,-1,0,765)"><g transform="matrix(-1,0,0,1,456.13,454.06)"><rect fill="none" height="5.4313002" id="isRLLRow16" width="8.4899998" x="0" y="75.256203" /></g></g></g>
    <g transform="matrix(1,0,0,-1,-395.32308,374.1915)"><g transform="matrix(1,0,0,-1,0,765)"><g transform="matrix(-1,0,0,1,456.13,454.06)"><rect fill="none" height="5.4313002" id="isRLLRow17" width="8.4899998" x="0" y="79.959702" /></g></g></g>
    <g transform="matrix(1,0,0,-1,-395.32308,374.1915)"><g transform="matrix(1,0,0,-1,0,765)"><g transform="matrix(0.08715,0.9962,-0.99619,0.08715,506,454)"><rect fill="none" height="4.5" id="rect789" width="97" x="0" y="0.5" /></g></g></g>
    <g transform="matrix(1,0,0,-1,-395.32308,374.1915)"><g transform="matrix(1,0,0,-1,0,765)"><g transform="matrix(0.08715,0.9962,-0.99619,0.08715,506,454)"><rect fill="none" height="4.5" id="rect788" width="97" x="0" y="-4" /></g></g></g>
    <g transform="matrix(1,0,0,-1,-395.32308,374.1915)"><g transform="matrix(1,0,0,-1,0,765)"><g transform="matrix(-0.08715,0.9962,0.99619,0.08715,438,454)"><rect fill="none" height="4.5" id="rect790" width="97" x="0" y="0.5" /></g></g></g>
    <g transform="matrix(1,0,0,-1,-395.32308,374.1915)"><g transform="matrix(1,0,0,-1,0,765)"><g transform="matrix(-0.08715,0.9962,0.99619,0.08715,438,454)"><rect fill="none" height="4.5" id="rect791" width="97" x="0" y="-4" /></g></g></g>
    <g transform="matrix(1,0,0,-1,-395.32308,374.1915)"><g transform="matrix(1,0,0,-1,0,765)"><g transform="rotate(-90,515,28)"><rect fill="none" height="4.5" id="rect752" width="89.5" x="0" y="0" /></g></g></g>
    <g transform="matrix(1,0,0,-1,-395.32308,374.1915)"><g transform="matrix(1,0,0,-1,0,765)"><g transform="rotate(-90,515,28)"><rect fill="none" height="4.5" id="rect792" width="80.5" x="0" y="4.5" /></g></g></g>
    <g transform="matrix(1,0,0,-1,-395.32308,374.1915)"><g transform="matrix(1,0,0,-1,0,765)"><g transform="matrix(0,-1,-1,0,457,543)"><rect fill="none" height="4.5" id="rect793" width="89.5" x="0" y="0" /></g></g></g>
    <g transform="matrix(1,0,0,-1,-395.32308,374.1915)"><g transform="matrix(1,0,0,-1,0,765)"><g transform="matrix(0,-1,-1,0,457,543)"><rect fill="none" height="4.5" id="rect794" width="80.5" x="0" y="4.5" /></g></g></g>
    <rect fill="none" height="23.41" id="placeholder-canon-structure-HD" stroke="#e11d48" stroke-dasharray="3 1.5" stroke-opacity="0.9" stroke-width="1.25" width="24.399" x="64.195" y="11.13" />
    <rect fill="none" height="79.334" id="placeholder-canon-structure-CT" stroke="#e11d48" stroke-dasharray="3 1.5" stroke-opacity="0.9" stroke-width="1.25" width="31.212" x="60.927" y="5.928" />
    <rect fill="none" height="55.924" id="placeholder-canon-structure-LT" stroke="#e11d48" stroke-dasharray="3 1.5" stroke-opacity="0.9" stroke-width="1.25" width="32.514" x="28.413" y="5.928" />
    <rect fill="none" height="55.924" id="placeholder-canon-structure-RT" stroke="#e11d48" stroke-dasharray="3 1.5" stroke-opacity="0.9" stroke-width="1.25" width="32.515" x="92.139" y="5.928" />
    </g>
</svg>
