<?xml version="1.0" encoding="UTF-8"?>
<!-- Editable MekBay smallcraft-aerodyne armor paperdoll. Pink dashed rectangles mark pip areas and are removed at runtime. -->
<svg xmlns="http://www.w3.org/2000/svg" viewBox="9.115 2.621 282.905 392.594" role="img" aria-label="smallcraft-aerodyne armor paperdoll">
    <g id="paperdoll-art-armor">
    <g transform="matrix(1,0,0,-1,-255.06197,689.86296)"><g transform="translate(500.6967,428.4641)"><path id="path2584" d="m 0,0 c 0,0 -2.1,19.083 -8.614,48.889 l -3.075,61.006 -13.759,2.192 c -14.091,44.759 -34.999,94.901 -67.329,142.584 -32.326,-47.683 -54.453,-97.825 -68.544,-142.584 l -12.539,-2.192 -3.077,-61.009 C -183.449,19.082 -185.549,0 -185.549,0 l -46.386,-36.381 v -38.202 l 46.386,-34.562 4.639,-7.276 52.455,15.157 15.868,-32.552 h 37.689 l 16.11,33.041 54.147,-15.646 4.641,7.276 46.386,34.562 v 38.202 z" style="fill:#ccced0;fill-opacity:1;fill-rule:nonzero;stroke:none" /></g></g>
    <g transform="matrix(1,0,0,-1,-255.06197,689.86296)"><g transform="translate(496.1124,432.5712)"><path id="path2588" d="m 0,0 c 0,0 -2.1,19.083 -8.614,48.889 l -3.075,61.006 -13.759,2.192 c -14.091,44.759 -34.999,94.9 -67.329,142.584 -32.326,-47.684 -54.453,-97.825 -68.544,-142.584 l -12.539,-2.192 -3.077,-61.009 C -183.449,19.082 -185.549,0 -185.549,0 l -46.386,-36.381 v -38.202 l 46.386,-34.562 4.639,-7.276 52.455,15.157 15.868,-32.553 h 37.689 l 16.11,33.042 54.147,-15.646 4.641,7.276 46.386,34.562 v 38.202 z" style="fill:#ffffff;fill-opacity:1;fill-rule:nonzero;stroke:none" /></g></g>
    <g transform="matrix(1,0,0,-1,-255.06197,689.86296)"><g transform="translate(374.2399,637.7971)"><path id="path2592" d="M 0,0 4.092,1.986 C 11.432,16.107 19.769,30.27 29.195,44.171 38.619,30.27 46.827,16.107 54.004,1.986 L 58.075,0" style="fill:none;stroke:#a7a9ac;stroke-width:0.966;stroke-linecap:butt;stroke-linejoin:miter;stroke-miterlimit:4;stroke-dasharray:none;stroke-opacity:1" /></g></g>
    <g transform="matrix(1,0,0,-1,-255.06197,689.86296)"><g transform="translate(428.2441,639.7831)"><path id="path2596" d="M 0,0 C -7.178,14.121 -15.386,28.284 -24.81,42.185 -34.235,28.284 -42.571,14.121 -49.912,0" style="fill:none;stroke:#a7a9ac;stroke-width:0.966;stroke-linecap:butt;stroke-linejoin:miter;stroke-miterlimit:4;stroke-dasharray:none;stroke-opacity:1" /></g></g>
    <g transform="matrix(1,0,0,-1,-255.06197,689.86296)"><g transform="translate(446.5568,515.0733)"><path id="path2600" d="M 0,0 -24.104,107.894 V 78.893 L -8.278,0.585 v -183.638" style="fill:none;stroke:#a7a9ac;stroke-width:0.966;stroke-linecap:butt;stroke-linejoin:round;stroke-miterlimit:4;stroke-dasharray:none;stroke-opacity:1" /></g></g>
    <g transform="matrix(1,0,0,-1,-255.06197,689.86296)"><g transform="translate(359.9947,515.1379)"><path id="path2604" d="m 0,0 24.106,107.893 v -29 L 8.278,0.584 v -183.638" style="fill:none;stroke:#a7a9ac;stroke-width:0.966;stroke-linecap:butt;stroke-linejoin:round;stroke-miterlimit:4;stroke-dasharray:none;stroke-opacity:1" /></g></g>
    <g transform="matrix(1,0,0,-1,-255.06197,689.86296)"><g transform="translate(496.3539,432.8928)"><path id="path2608" d="M 0,0 H -58.075" style="fill:none;stroke:#a7a9ac;stroke-width:0.966;stroke-linecap:butt;stroke-linejoin:miter;stroke-miterlimit:4;stroke-dasharray:none;stroke-opacity:1" /></g></g>
    <g transform="matrix(1,0,0,-1,-255.06197,689.86296)"><g transform="translate(455.8103,515.0733)"><path id="path2612" d="M 0,0 H -17.531" style="fill:none;stroke:#a7a9ac;stroke-width:0.966;stroke-linecap:butt;stroke-linejoin:miter;stroke-miterlimit:4;stroke-dasharray:none;stroke-opacity:1" /></g></g>
    <g transform="matrix(1,0,0,-1,-255.06197,689.86296)"><g transform="translate(438.2786,387.9663)"><path id="path2616" d="M 0,0 H 27.921 L 58.075,-20.819" style="fill:none;stroke:#a7a9ac;stroke-width:0.966;stroke-linecap:butt;stroke-linejoin:miter;stroke-miterlimit:4;stroke-dasharray:none;stroke-opacity:1" /></g></g>
    <g transform="matrix(1,0,0,-1,-255.06197,689.86296)"><g transform="translate(496.3539,432.8928)"><path id="path2620" d="M 0,0 V -109.576" style="fill:none;stroke:#a7a9ac;stroke-width:0.966;stroke-linecap:butt;stroke-linejoin:miter;stroke-miterlimit:4;stroke-dasharray:none;stroke-opacity:1" /></g></g>
    <g transform="matrix(1,0,0,-1,-255.06197,689.86296)"><g transform="translate(310.0758,432.8928)"><path id="path2624" d="M 0,0 H 58.076" style="fill:none;stroke:#a7a9ac;stroke-width:0.966;stroke-linecap:butt;stroke-linejoin:miter;stroke-miterlimit:4;stroke-dasharray:none;stroke-opacity:1" /></g></g>
    <g transform="matrix(1,0,0,-1,-255.06197,689.86296)"><g transform="translate(333.6963,538.0845)"><path id="path2628" d="M 0,0 16.923,-23.011 V -150.119" style="fill:none;stroke:#a7a9ac;stroke-width:0.966;stroke-linecap:butt;stroke-linejoin:miter;stroke-miterlimit:4;stroke-dasharray:none;stroke-opacity:1" /></g></g>
    <g transform="matrix(1,0,0,-1,-255.06197,689.86296)"><g transform="translate(350.6186,515.0733)"><path id="path2632" d="M 0,0 H 17.533" style="fill:none;stroke:#a7a9ac;stroke-width:0.966;stroke-linecap:butt;stroke-linejoin:miter;stroke-miterlimit:4;stroke-dasharray:none;stroke-opacity:1" /></g></g>
    <g transform="matrix(1,0,0,-1,-255.06197,689.86296)"><g transform="translate(368.1521,387.9663)"><path id="path2636" d="M 0,0 H -27.921 L -58.076,-20.819" style="fill:none;stroke:#a7a9ac;stroke-width:0.966;stroke-linecap:butt;stroke-linejoin:miter;stroke-miterlimit:4;stroke-dasharray:none;stroke-opacity:1" /></g></g>
    <g transform="matrix(1,0,0,-1,-255.06197,689.86296)"><g transform="translate(310.0758,432.8928)"><path id="path2640" d="M 0,0 V -109.576" style="fill:none;stroke:#a7a9ac;stroke-width:0.966;stroke-linecap:butt;stroke-linejoin:miter;stroke-miterlimit:4;stroke-dasharray:none;stroke-opacity:1" /></g></g>
    <g transform="matrix(1,0,0,-1,-255.06197,689.86296)"><g transform="translate(370.9526,631.2225)"><path id="path2644" d="M 0,0 13.148,0.031" style="fill:none;stroke:#a7a9ac;stroke-width:0.966;stroke-linecap:butt;stroke-linejoin:miter;stroke-miterlimit:4;stroke-dasharray:none;stroke-opacity:1" /></g></g>
    <g transform="matrix(1,0,0,-1,-255.06197,689.86296)"><g transform="translate(368.1521,346.3275)"><path id="path2648" d="M 0,0 H 70.127" style="fill:none;stroke:#a7a9ac;stroke-width:0.966;stroke-linecap:butt;stroke-linejoin:miter;stroke-miterlimit:4;stroke-dasharray:none;stroke-opacity:1" /></g></g>
    <g transform="matrix(1,0,0,-1,-255.06197,689.86296)"><g transform="translate(411.4945,515.0733)"><path id="path2652" d="m 0,0 h -17.531 l 2.189,77.798 h 13.15 z" style="fill:none;stroke:#a7a9ac;stroke-width:0.966;stroke-linecap:butt;stroke-linejoin:miter;stroke-miterlimit:4;stroke-dasharray:none;stroke-opacity:1" /></g></g>
    <g transform="matrix(1,0,0,-1,-255.06197,689.86296)"><g transform="translate(410.3993,542.4673)"><path id="path2656" d="M 0,0 H -15.34" style="fill:none;stroke:#a7a9ac;stroke-width:0.966;stroke-linecap:butt;stroke-linejoin:miter;stroke-miterlimit:4;stroke-dasharray:none;stroke-opacity:1" /></g></g>
    <g transform="matrix(1,0,0,-1,-255.06197,689.86296)"><g transform="translate(322.7402,538.0845)"><path id="path2660" d="m 0,0 h 10.956 l 1.096,6.574" style="fill:none;stroke:#a7a9ac;stroke-width:0.966;stroke-linecap:butt;stroke-linejoin:round;stroke-miterlimit:4;stroke-dasharray:none;stroke-opacity:1" /></g></g>
    <g transform="matrix(1,0,0,-1,-255.06197,689.86296)"><g transform="translate(472.858,538.0854)"><path id="path2664" d="M 0,0 -16.924,-23.012 V -150.118" style="fill:none;stroke:#a7a9ac;stroke-width:0.966;stroke-linecap:butt;stroke-linejoin:miter;stroke-miterlimit:4;stroke-dasharray:none;stroke-opacity:1" /></g></g>
    <g transform="matrix(1,0,0,-1,-255.06197,689.86296)"><g transform="translate(483.8159,538.0854)"><path id="path2668" d="m 0,0 h -10.958 l -1.097,6.573" style="fill:none;stroke:#a7a9ac;stroke-width:0.966;stroke-linecap:butt;stroke-linejoin:round;stroke-miterlimit:4;stroke-dasharray:none;stroke-opacity:1" /></g></g>
    <g transform="matrix(1,0,0,-1,-255.06197,689.86296)"><g transform="translate(435.5997,631.2216)"><path id="path2672" d="M 0,0 -13.145,0.001" style="fill:none;stroke:#a7a9ac;stroke-width:0.966;stroke-linecap:butt;stroke-linejoin:miter;stroke-miterlimit:4;stroke-dasharray:none;stroke-opacity:1" /></g></g>
    <g transform="matrix(1,0,0,-1,-255.06197,689.86296)"><g transform="translate(422.4524,623.0311)"><path id="path2676" d="M 0,0 V 8.191 L -12.053,31.202 H -26.3 L -38.415,8.335 -38.351,0" style="fill:none;stroke:#a7a9ac;stroke-width:0.966;stroke-linecap:butt;stroke-linejoin:miter;stroke-miterlimit:4;stroke-dasharray:none;stroke-opacity:1" /></g></g>
    <g transform="matrix(1,0,0,-1,-255.06197,689.86296)"><g transform="translate(385.6827,623.524)"><path id="path2680" d="m 0,0 v -27.302 l 3.898,-0.01 V 5.354 Z" style="fill:#a7a9ac;fill-opacity:1;fill-rule:nonzero;stroke:none" /></g></g>
    <g transform="matrix(1,0,0,-1,-255.06197,689.86296)"><g transform="translate(385.6827,623.524)"><path id="path2684" d="m 0,0 v -27.302 l 3.898,-0.01 V 5.354 Z" style="fill:none;stroke:#a7a9ac;stroke-width:0.966;stroke-linecap:butt;stroke-linejoin:miter;stroke-miterlimit:4;stroke-dasharray:none;stroke-opacity:1" /></g></g>
    <g transform="matrix(1,0,0,-1,-255.06197,689.86296)"><g transform="translate(420.746,623.316)"><path id="path2688" d="M 0,0 -3.772,5.438 V -27.148 L 0,-27.158 Z" style="fill:#a7a9ac;fill-opacity:1;fill-rule:nonzero;stroke:none" /></g></g>
    <g transform="matrix(1,0,0,-1,-255.06197,689.86296)"><g transform="translate(420.746,623.316)"><path id="path2692" d="M 0,0 -3.772,5.438 V -27.148 L 0,-27.158 Z" style="fill:none;stroke:#a7a9ac;stroke-width:0.966;stroke-linecap:butt;stroke-linejoin:miter;stroke-miterlimit:4;stroke-dasharray:none;stroke-opacity:1" /></g></g>
    <g transform="matrix(1,0,0,-1,-255.06197,689.86296)"><g transform="translate(409.1146,651.2034)"><path id="path2696" d="m 0,0 h -12.108 l -5.228,-17.789 H 5.488 Z" style="fill:#a7a9ac;fill-opacity:1;fill-rule:nonzero;stroke:none" /></g></g>
    <g transform="matrix(1,0,0,-1,-255.06197,689.86296)"><g transform="translate(409.1146,651.2034)"><path id="path2700" d="m 0,0 h -12.108 l -5.228,-17.789 H 5.488 Z" style="fill:none;stroke:#a7a9ac;stroke-width:0.966;stroke-linecap:butt;stroke-linejoin:miter;stroke-miterlimit:4;stroke-dasharray:none;stroke-opacity:1" /></g></g>
    <g transform="matrix(1,0,0,-1,-255.06197,689.86296)"><g transform="translate(391.8319,629.577)"><path id="path2704" d="m 0,0 v -32.274 h 0.298 l 9.547,15.889 z" style="fill:#a7a9ac;fill-opacity:1;fill-rule:nonzero;stroke:none" /></g></g>
    <g transform="matrix(1,0,0,-1,-255.06197,689.86296)"><g transform="translate(391.8319,629.577)"><path id="path2708" d="m 0,0 v -32.274 h 0.298 l 9.547,15.889 z" style="fill:none;stroke:#a7a9ac;stroke-width:0.966;stroke-linecap:butt;stroke-linejoin:round;stroke-miterlimit:4;stroke-dasharray:none;stroke-opacity:1" /></g></g>
    <g transform="matrix(1,0,0,-1,-255.06197,689.86296)"><g transform="translate(413.6365,631.223)"><path id="path2712" d="m 0,0 h -20.878 l 10.439,-16.437 z" style="fill:#a7a9ac;fill-opacity:1;fill-rule:nonzero;stroke:none" /></g></g>
    <g transform="matrix(1,0,0,-1,-255.06197,689.86296)"><g transform="translate(413.6365,631.223)"><path id="path2716" d="m 0,0 h -20.878 l 10.439,-16.437 z" style="fill:none;stroke:#a7a9ac;stroke-width:0.966;stroke-linecap:butt;stroke-linejoin:round;stroke-miterlimit:4;stroke-dasharray:none;stroke-opacity:1" /></g></g>
    <g transform="matrix(1,0,0,-1,-255.06197,689.86296)"><g transform="translate(393.4205,596.2036)"><path id="path2720" d="M 0,0 19.576,-0.03 9.778,15.295 Z" style="fill:#a7a9ac;fill-opacity:1;fill-rule:nonzero;stroke:none" /></g></g>
    <g transform="matrix(1,0,0,-1,-255.06197,689.86296)"><g transform="translate(393.4205,596.2036)"><path id="path2724" d="M 0,0 19.576,-0.03 9.778,15.295 Z" style="fill:none;stroke:#a7a9ac;stroke-width:0.966;stroke-linecap:butt;stroke-linejoin:round;stroke-miterlimit:4;stroke-dasharray:none;stroke-opacity:1" /></g></g>
    <g transform="matrix(1,0,0,-1,-255.06197,689.86296)"><g transform="translate(414.3214,597.2676)"><path id="path2728" d="M 0,0 0.521,-0.001 V 32.762 L -9.395,15.938 Z" style="fill:#a7a9ac;fill-opacity:1;fill-rule:nonzero;stroke:none" /></g></g>
    <g transform="matrix(1,0,0,-1,-255.06197,689.86296)"><g transform="translate(414.3214,597.2676)"><path id="path2732" d="M 0,0 0.521,-0.001 V 32.762 L -9.395,15.938 Z" style="fill:none;stroke:#a7a9ac;stroke-width:0.966;stroke-linecap:butt;stroke-linejoin:round;stroke-miterlimit:4;stroke-dasharray:none;stroke-opacity:1" /></g></g>
    <g transform="matrix(1,0,0,-1,-255.06197,689.86296)"><g transform="translate(402.774,332.0841)"><path id="path2736" d="M 0,0 V -32.873" style="fill:#d1d3d4;fill-opacity:1;fill-rule:nonzero;stroke:#a7a9ac;stroke-width:0.966;stroke-linecap:butt;stroke-linejoin:miter;stroke-miterlimit:4;stroke-dasharray:none;stroke-opacity:1" /></g></g>
    <g transform="matrix(1,0,0,-1,-255.06197,689.86296)"><g transform="translate(420.3055,332.0841)"><path id="path2740" d="M 0,0 -4.382,-32.873" style="fill:#d1d3d4;fill-opacity:1;fill-rule:nonzero;stroke:#a7a9ac;stroke-width:0.966;stroke-linecap:butt;stroke-linejoin:miter;stroke-miterlimit:4;stroke-dasharray:none;stroke-opacity:1" /></g></g>
    <g transform="matrix(1,0,0,-1,-255.06197,689.86296)"><g transform="translate(385.2404,332.0841)"><path id="path2744" d="M 0,0 4.384,-32.873" style="fill:#d1d3d4;fill-opacity:1;fill-rule:nonzero;stroke:#a7a9ac;stroke-width:0.966;stroke-linecap:butt;stroke-linejoin:miter;stroke-miterlimit:4;stroke-dasharray:none;stroke-opacity:1" /></g></g>
    <g transform="matrix(1,0,0,-1,-255.06197,689.86296)"><g transform="translate(368.1747,331.9897)"><path id="path2748" d="M 0,0 69.663,0.095" style="fill:#d1d3d4;fill-opacity:1;fill-rule:nonzero;stroke:#a7a9ac;stroke-width:0.966;stroke-linecap:butt;stroke-linejoin:miter;stroke-miterlimit:4;stroke-dasharray:none;stroke-opacity:1" /></g></g>
    <g transform="matrix(1,0,0,-1,-255.06197,689.86296)"><g transform="translate(400.5818,334.2741)"><path id="path2752" d="M 0,0 H -14.245 V 9.863 H 0 Z" style="fill:none;stroke:#a7a9ac;stroke-width:0.966;stroke-linecap:butt;stroke-linejoin:miter;stroke-miterlimit:4;stroke-dasharray:none;stroke-opacity:1" /></g></g>
    <g transform="matrix(1,0,0,-1,-255.06197,689.86296)"><g transform="translate(419.2094,334.2741)"><path id="path2756" d="M 0,0 H -14.245 V 9.863 H 0 Z" style="fill:none;stroke:#a7a9ac;stroke-width:0.966;stroke-linecap:butt;stroke-linejoin:miter;stroke-miterlimit:4;stroke-dasharray:none;stroke-opacity:1" /></g></g>
    <g transform="matrix(1,0,0,-1,-255.06197,689.86296)"><g transform="translate(380.8599,334.2741)"><path id="path2760" d="M 0,0 H -9.863 V 9.863 H 0 Z" style="fill:none;stroke:#a7a9ac;stroke-width:0.966;stroke-linecap:butt;stroke-linejoin:miter;stroke-miterlimit:4;stroke-dasharray:none;stroke-opacity:1" /></g></g>
    <g transform="matrix(1,0,0,-1,-255.06197,689.86296)"><g transform="translate(434.5509,334.2741)"><path id="path2764" d="M 0,0 H -9.862 V 9.863 H 0 Z" style="fill:none;stroke:#a7a9ac;stroke-width:0.966;stroke-linecap:butt;stroke-linejoin:miter;stroke-miterlimit:4;stroke-dasharray:none;stroke-opacity:1" /></g></g>
    <g transform="matrix(1,0,0,-1,-255.06197,689.86296)"><g transform="translate(310.7314,324.4134)"><path id="path2768" d="M 0,0 57.42,21.914" style="fill:none;stroke:#a7a9ac;stroke-width:0.966;stroke-linecap:butt;stroke-linejoin:miter;stroke-miterlimit:4;stroke-dasharray:none;stroke-opacity:1" /></g></g>
    <g transform="matrix(1,0,0,-1,-255.06197,689.86296)"><g transform="translate(495.9124,324.4134)"><path id="path2772" d="M 0,0 -57.418,21.914" style="fill:none;stroke:#a7a9ac;stroke-width:0.966;stroke-linecap:butt;stroke-linejoin:miter;stroke-miterlimit:4;stroke-dasharray:none;stroke-opacity:1" /></g></g>
    <g transform="matrix(1,0,0,-1,-255.06197,689.86296)"><g transform="translate(533.1678,351.6362)"><path id="path2776" d="M 0,0 V 51.498" style="fill:#d1d3d4;fill-opacity:1;fill-rule:nonzero;stroke:#a7a9ac;stroke-width:0.966;stroke-linecap:butt;stroke-linejoin:miter;stroke-miterlimit:4;stroke-dasharray:none;stroke-opacity:1" /></g></g>
    <g transform="matrix(1,0,0,-1,-255.06197,689.86296)"><g transform="translate(496.0596,334.448)"><path id="path2780" d="M 0,0 37.108,27.649 V 58.21 L 0,87.316" style="fill:none;stroke:#a7a9ac;stroke-width:0.966;stroke-linecap:butt;stroke-linejoin:miter;stroke-miterlimit:4;stroke-dasharray:none;stroke-opacity:1" /></g></g>
    <g transform="matrix(1,0,0,-1,-255.06197,689.86296)"><g transform="translate(272.5271,351.6362)"><path id="path2784" d="M 0,0 V 51.498" style="fill:#d1d3d4;fill-opacity:1;fill-rule:nonzero;stroke:#a7a9ac;stroke-width:0.966;stroke-linecap:butt;stroke-linejoin:miter;stroke-miterlimit:4;stroke-dasharray:none;stroke-opacity:1" /></g></g>
    <g transform="matrix(1,0,0,-1,-255.06197,689.86296)"><g transform="translate(309.6354,334.448)"><path id="path2788" d="M 0,0 -37.108,27.649 V 58.21 L 0,87.316" style="fill:none;stroke:#a7a9ac;stroke-width:0.966;stroke-linecap:butt;stroke-linejoin:miter;stroke-miterlimit:4;stroke-dasharray:none;stroke-opacity:1" /></g></g>
    <g transform="matrix(1,0,0,-1,-255.06197,689.86296)"><g transform="translate(339.2201,449.3288)"><path id="path2792" d="m 0,0 c 0,-6.051 -4.905,-10.957 -10.956,-10.957 -6.051,0 -10.958,4.906 -10.958,10.957 0,6.051 4.907,10.957 10.958,10.957 C -4.905,10.957 0,6.051 0,0 Z" style="fill:none;stroke:#a7a9ac;stroke-width:0.966;stroke-linecap:butt;stroke-linejoin:miter;stroke-miterlimit:4;stroke-dasharray:none;stroke-opacity:1" /></g></g>
    <g transform="matrix(1,0,0,-1,-255.06197,689.86296)"><g transform="translate(332.6455,432.8933)"><path id="path2796" d="M 0,0 V 18.627 L 17.533,42.734" style="fill:none;stroke:#a7a9ac;stroke-width:0.966;stroke-linecap:butt;stroke-linejoin:miter;stroke-miterlimit:4;stroke-dasharray:none;stroke-opacity:1" /></g></g>
    <g transform="matrix(1,0,0,-1,-255.06197,689.86296)"><g transform="translate(481.6689,437.2767)"><path id="path2800" d="M 0,0 H -21.917 V 21.915 H 0 Z" style="fill:none;stroke:#a7a9ac;stroke-width:0.966;stroke-linecap:butt;stroke-linejoin:miter;stroke-miterlimit:4;stroke-dasharray:none;stroke-opacity:1" /></g></g>
    <g transform="matrix(1,0,0,-1,-255.06197,689.86296)"><g transform="translate(470.7107,448.2339)"><path id="path2806" d="M 0,0 H -10.96 V 10.957 H 0 Z" style="fill:none;stroke:#a7a9ac;stroke-width:0.966;stroke-linecap:butt;stroke-linejoin:miter;stroke-miterlimit:4;stroke-dasharray:none;stroke-opacity:1" /></g></g>
    <g transform="matrix(1,0,0,-1,-255.06197,689.86296)"><g transform="translate(481.6689,437.2767)"><path id="path2812" d="M 0,0 H -10.958 V 10.957 H 0 Z" style="fill:none;stroke:#a7a9ac;stroke-width:0.966;stroke-linecap:butt;stroke-linejoin:miter;stroke-miterlimit:4;stroke-dasharray:none;stroke-opacity:1" /></g></g>
    <g transform="matrix(1,0,0,-1,-255.06197,689.86296)"><g transform="translate(337.0318,334.2744)"><path id="path2816" d="M 0,0 V -10.955" style="fill:#a7a9ac;fill-opacity:1;fill-rule:nonzero;stroke:#a7a9ac;stroke-width:0.966;stroke-linecap:butt;stroke-linejoin:miter;stroke-miterlimit:4;stroke-dasharray:none;stroke-opacity:1" /></g></g>
    <g transform="matrix(1,0,0,-1,-255.06197,689.86296)"><g transform="translate(468.519,334.2744)"><path id="path2820" d="M 0,0 V -10.955" style="fill:#a7a9ac;fill-opacity:1;fill-rule:nonzero;stroke:#a7a9ac;stroke-width:0.966;stroke-linecap:butt;stroke-linejoin:miter;stroke-miterlimit:4;stroke-dasharray:none;stroke-opacity:1" /></g></g>
    <g transform="matrix(1,0,0,-1,-255.06197,689.86296)"><g transform="translate(496.1124,432.5712)"><path id="path2824" d="m 0,0 c 0,0 -2.1,19.083 -8.614,48.889 l -3.075,61.006 -13.759,2.192 c -14.091,44.759 -34.999,94.9 -67.329,142.584 -32.326,-47.684 -54.453,-97.825 -68.544,-142.584 l -12.539,-2.192 -3.077,-61.009 C -183.449,19.082 -185.549,0 -185.549,0 l -46.386,-36.381 v -38.202 l 46.386,-34.562 4.639,-7.276 52.455,15.157 15.868,-32.553 h 37.689 l 16.11,33.042 54.147,-15.646 4.641,7.276 46.386,34.562 v 38.202 z" style="fill:none;stroke:#000000;stroke-width:1.932;stroke-linecap:butt;stroke-linejoin:miter;stroke-miterlimit:4;stroke-dasharray:none;stroke-opacity:1" /></g></g>
    <g transform="matrix(1,0,0,-1,-255.06197,689.86296)"><g transform="translate(482.3548,468.5956)"><path id="path2828" d="M 0,0 H -14.368 V 52.585 L -11.4,5.171 h 7.187 l 4.466,47.414 z" style="fill:#a7a9ac;fill-opacity:1;fill-rule:nonzero;stroke:none" /></g></g>
    <g transform="matrix(1,0,0,-1,-255.06197,689.86296)"><g transform="translate(482.3548,468.5956)"><path id="path2832" d="M 0,0 H -14.368 V 52.585 L -11.4,5.171 h 7.187 l 4.466,47.414 z" style="fill:none;stroke:#a7a9ac;stroke-width:0.966;stroke-linecap:butt;stroke-linejoin:miter;stroke-miterlimit:4;stroke-dasharray:none;stroke-opacity:1" /></g></g>
    <g transform="matrix(1,0,0,-1,-255.06197,689.86296)"><g transform="translate(324.6975,468.5956)"><path id="path2836" d="M 0,0 H 14.366 V 52.585 L 11.399,5.171 H 4.211 l -4.466,47.414 z" style="fill:#a7a9ac;fill-opacity:1;fill-rule:nonzero;stroke:none" /></g></g>
    <g transform="matrix(1,0,0,-1,-255.06197,689.86296)"><g transform="translate(324.6975,468.5956)"><path id="path2840" d="M 0,0 H 14.366 V 52.585 L 11.399,5.171 H 4.211 l -4.466,47.414 z" style="fill:none;stroke:#a7a9ac;stroke-width:0.966;stroke-linecap:butt;stroke-linejoin:miter;stroke-miterlimit:4;stroke-dasharray:none;stroke-opacity:1" /></g></g>
    <g transform="matrix(1,0,0,-1,-255.06197,689.86296)"><g transform="translate(440.3,468.2004)"><path id="path2844" d="M 0,0 V -134.163" style="fill:none;stroke:#000000;stroke-width:1.932;stroke-linecap:round;stroke-linejoin:miter;stroke-miterlimit:4;stroke-dasharray:none;stroke-opacity:1" /></g></g>
    <g transform="matrix(1,0,0,-1,-255.06197,689.86296)"><g transform="translate(366.3741,468.2004)"><path id="path2848" d="M 0,0 V -134.163" style="fill:none;stroke:#000000;stroke-width:1.932;stroke-linecap:round;stroke-linejoin:miter;stroke-miterlimit:4;stroke-dasharray:none;stroke-opacity:1" /></g></g>
    <g transform="matrix(1,0,0,-1,-255.06197,689.86296)"><g transform="translate(336.2545,535.2815)"><path id="path2852" d="M 0,0 H 134.163" style="fill:none;stroke:#000000;stroke-width:1.932;stroke-linecap:round;stroke-linejoin:miter;stroke-miterlimit:4;stroke-dasharray:none;stroke-opacity:1" /></g></g>
    <g transform="matrix(1,0,0,-1,-255.06197,689.86296)"><g transform="translate(437.5627,481.1605)"><path id="path9348" d="m 0,0 c 0,-6.402 -4.541,-11.591 -10.142,-11.591 h -48.166 c -5.602,0 -10.142,5.189 -10.142,11.591 v 30.21 c 0,6.401 4.54,11.591 10.142,11.591 h 48.166 C -4.541,41.801 0,36.611 0,30.21 Z" style="fill:#ccced0;fill-opacity:1;fill-rule:nonzero;stroke:none" /></g></g>
    <g transform="matrix(1,0,0,-1,-255.06197,689.86296)"><g transform="translate(437.5627,481.1605)"><path id="path9352" d="m 0,0 c 0,-6.402 -4.541,-11.591 -10.142,-11.591 h -48.166 c -5.602,0 -10.142,5.189 -10.142,11.591 v 30.21 c 0,6.401 4.54,11.591 10.142,11.591 h 48.166 C -4.541,41.801 0,36.611 0,30.21 Z" style="fill:none;stroke:#000000;stroke-width:1.932;stroke-linecap:butt;stroke-linejoin:miter;stroke-miterlimit:4;stroke-dasharray:none;stroke-opacity:1" /></g></g>
    <g transform="matrix(1,0,0,-1,-255.06197,689.86296)"><path id="path2802" d="m 470.711,448.234 h -10.96 v 10.957 h 10.96 z" style="fill:#a7a9ac;fill-opacity:1;fill-rule:nonzero;stroke:none" /></g>
    <g transform="matrix(1,0,0,-1,-255.06197,689.86296)"><path id="path2808" d="m 481.669,437.277 h -10.958 v 10.957 h 10.958 z" style="fill:#a7a9ac;fill-opacity:1;fill-rule:nonzero;stroke:none" /></g>
    </g>
</svg>
