<?xml version="1.0" encoding="UTF-8"?>
<!-- Editable MekBay smallcraft-spheroid armor paperdoll. Pink dashed rectangles mark pip areas and are removed at runtime. -->
<svg xmlns="http://www.w3.org/2000/svg" viewBox="5.898 26.871 288.86 374.286" role="img" aria-label="smallcraft-spheroid armor paperdoll">
    <g id="paperdoll-art-armor">
    <g transform="matrix(1,0,0,-1,-255.06197,696.86296)"><g transform="translate(549.8204,517.5764)"><path id="path2584" d="m 0,0 c 0,64.281 -42.601,118.603 -101.111,136.295 -8.163,7.172 -23.58,12.014 -41.266,12.014 -17.687,0 -33.102,-4.842 -41.266,-12.014 C -242.151,118.602 -284.753,64.28 -284.753,0 c 0,-54.486 30.611,-125.167 75.568,-163.446 -2.646,-2.156 -4.38,-5.774 -4.38,-9.873 v -5.744 c 0,-6.049 3.774,-11.035 8.67,-11.834 -4.611,-12.329 -7.421,-25.129 -7.484,-30.973 h 141.183 c -0.066,5.884 -2.913,18.818 -7.583,31.224 4.36,1.305 7.592,5.989 7.592,11.583 v 5.744 c 0,4.099 -1.737,7.717 -4.378,9.873 C -30.611,-125.167 0,-54.486 0,0" style="fill:#ccced0;fill-opacity:1;fill-rule:nonzero;stroke:none" /></g></g>
    <g transform="matrix(1,0,0,-1,-255.06197,696.86296)"><g transform="translate(545.7133,521.6833)"><path id="path2588" d="m 0,0 c 0,64.281 -42.601,118.604 -101.111,136.295 -8.164,7.172 -23.58,12.014 -41.266,12.014 -17.687,0 -33.103,-4.842 -41.266,-12.014 C -242.15,118.603 -284.753,64.28 -284.753,0 c 0,-54.486 30.611,-125.167 75.568,-163.446 -2.646,-2.156 -4.38,-5.773 -4.38,-9.873 v -5.744 c 0,-6.049 3.773,-11.035 8.67,-11.834 -4.611,-12.328 -7.42,-25.129 -7.484,-30.973 h 141.182 c -0.066,5.884 -2.913,18.818 -7.582,31.224 4.361,1.306 7.593,5.989 7.593,11.583 v 5.744 c 0,4.1 -1.738,7.717 -4.379,9.873 C -30.611,-125.167 0,-54.486 0,0" style="fill:#ffffff;fill-opacity:1;fill-rule:nonzero;stroke:none" /></g></g>
    <g transform="matrix(1,0,0,-1,-255.06197,696.86296)"><g transform="translate(263.3326,496.7673)"><path id="path2592" d="M 0,0 H 280.006" style="fill:#ffffff;fill-opacity:1;fill-rule:nonzero;stroke:#a7a9ac;stroke-width:0.966;stroke-linecap:butt;stroke-linejoin:miter;stroke-miterlimit:4;stroke-dasharray:none;stroke-opacity:1" /></g></g>
    <g transform="matrix(1,0,0,-1,-255.06197,696.86296)"><g transform="translate(362.9971,658.1275)"><path id="path2596" d="M 0,0 H 80.679" style="fill:#ffffff;fill-opacity:1;fill-rule:nonzero;stroke:#a7a9ac;stroke-width:0.966;stroke-linecap:butt;stroke-linejoin:miter;stroke-miterlimit:4;stroke-dasharray:none;stroke-opacity:1" /></g></g>
    <g transform="matrix(1,0,0,-1,-255.06197,696.86296)"><g transform="translate(474.5266,342.6204)"><path id="path2600" d="m 0,0 c 0,-6.603 -4.498,-11.959 -10.045,-11.959 h -122.288 c -5.548,0 -10.046,5.356 -10.046,11.959 v 5.744 c 0,6.603 4.498,11.959 10.046,11.959 H -10.045 C -4.498,17.703 0,12.347 0,5.744 Z" style="fill:#ffffff;fill-opacity:1;fill-rule:nonzero;stroke:none" /></g></g>
    <g transform="matrix(1,0,0,-1,-255.06197,696.86296)"><g transform="translate(474.5266,342.6204)"><path id="path2604" d="m 0,0 c 0,-6.603 -4.498,-11.959 -10.045,-11.959 h -122.288 c -5.548,0 -10.046,5.356 -10.046,11.959 v 5.744 c 0,6.603 4.498,11.959 10.046,11.959 H -10.045 C -4.498,17.703 0,12.347 0,5.744 Z" style="fill:none;stroke:#a7a9ac;stroke-width:0.966;stroke-linecap:butt;stroke-linejoin:miter;stroke-miterlimit:4;stroke-dasharray:none;stroke-opacity:1" /></g></g>
    <g transform="matrix(1,0,0,-1,-255.06197,696.86296)"><g transform="translate(450.7967,342.6204)"><path id="path2608" d="m 0,0 c 0,-6.603 -2.998,-11.959 -6.698,-11.959 h -81.524 c -3.7,0 -6.698,5.356 -6.698,11.959 v 5.744 c 0,6.603 2.998,11.959 6.698,11.959 H -6.698 C -2.998,17.703 0,12.347 0,5.744 Z" style="fill:#ffffff;fill-opacity:1;fill-rule:nonzero;stroke:none" /></g></g>
    <g transform="matrix(1,0,0,-1,-255.06197,696.86296)"><g transform="translate(450.7967,342.6204)"><path id="path2612" d="m 0,0 c 0,-6.603 -2.998,-11.959 -6.698,-11.959 h -81.524 c -3.7,0 -6.698,5.356 -6.698,11.959 v 5.744 c 0,6.603 2.998,11.959 6.698,11.959 H -6.698 C -2.998,17.703 0,12.347 0,5.744 Z" style="fill:none;stroke:#a7a9ac;stroke-width:0.966;stroke-linecap:butt;stroke-linejoin:miter;stroke-miterlimit:4;stroke-dasharray:none;stroke-opacity:1" /></g></g>
    <g transform="matrix(1,0,0,-1,-255.06197,696.86296)"><g transform="translate(340.7878,330.7031)"><path id="path2616" d="M 0,0 C -4.592,-12.304 -7.389,-25.059 -7.454,-30.89 H 54.233 C 54.17,-25.059 51.371,-12.304 46.778,0 Z" style="fill:#ffffff;fill-opacity:1;fill-rule:nonzero;stroke:none" /></g></g>
    <g transform="matrix(1,0,0,-1,-255.06197,696.86296)"><g transform="translate(340.7878,330.7031)"><path id="path2620" d="M 0,0 C -4.592,-12.304 -7.389,-25.059 -7.454,-30.89 H 54.233 C 54.17,-25.059 51.371,-12.304 46.778,0 Z" style="fill:none;stroke:#a7a9ac;stroke-width:0.966;stroke-linecap:butt;stroke-linejoin:miter;stroke-miterlimit:4;stroke-dasharray:none;stroke-opacity:1" /></g></g>
    <g transform="matrix(1,0,0,-1,-255.06197,696.86296)"><g transform="translate(352.4824,330.7031)"><path id="path2624" d="M 0,0 C -2.295,-12.304 -3.696,-25.059 -3.726,-30.89 H 27.117 C 27.085,-25.059 25.686,-12.304 23.389,0 Z" style="fill:#ffffff;fill-opacity:1;fill-rule:nonzero;stroke:none" /></g></g>
    <g transform="matrix(1,0,0,-1,-255.06197,696.86296)"><g transform="translate(352.4824,330.7031)"><path id="path2628" d="M 0,0 C -2.295,-12.304 -3.696,-25.059 -3.726,-30.89 H 27.117 C 27.085,-25.059 25.686,-12.304 23.389,0 Z" style="fill:none;stroke:#a7a9ac;stroke-width:0.966;stroke-linecap:butt;stroke-linejoin:miter;stroke-miterlimit:4;stroke-dasharray:none;stroke-opacity:1" /></g></g>
    <g transform="matrix(1,0,0,-1,-255.06197,696.86296)"><g transform="translate(420.2791,330.7031)"><path id="path2632" d="M 0,0 C -4.591,-12.304 -7.387,-25.059 -7.452,-30.89 H 54.237 C 54.173,-25.059 51.375,-12.304 46.782,0 Z" style="fill:#ffffff;fill-opacity:1;fill-rule:nonzero;stroke:none" /></g></g>
    <g transform="matrix(1,0,0,-1,-255.06197,696.86296)"><g transform="translate(420.2791,330.7031)"><path id="path2636" d="M 0,0 C -4.591,-12.304 -7.387,-25.059 -7.452,-30.89 H 54.237 C 54.173,-25.059 51.375,-12.304 46.782,0 Z" style="fill:none;stroke:#a7a9ac;stroke-width:0.966;stroke-linecap:butt;stroke-linejoin:miter;stroke-miterlimit:4;stroke-dasharray:none;stroke-opacity:1" /></g></g>
    <g transform="matrix(1,0,0,-1,-255.06197,696.86296)"><g transform="translate(431.9757,330.7031)"><path id="path2640" d="M 0,0 C -2.297,-12.304 -3.694,-25.059 -3.726,-30.89 H 27.117 C 27.087,-25.059 25.686,-12.304 23.389,0 Z" style="fill:#ffffff;fill-opacity:1;fill-rule:nonzero;stroke:none" /></g></g>
    <g transform="matrix(1,0,0,-1,-255.06197,696.86296)"><g transform="translate(431.9757,330.7031)"><path id="path2644" d="M 0,0 C -2.297,-12.304 -3.694,-25.059 -3.726,-30.89 H 27.117 C 27.087,-25.059 25.686,-12.304 23.389,0 Z" style="fill:none;stroke:#a7a9ac;stroke-width:0.966;stroke-linecap:butt;stroke-linejoin:miter;stroke-miterlimit:4;stroke-dasharray:none;stroke-opacity:1" /></g></g>
    <g transform="matrix(1,0,0,-1,-255.06197,696.86296)"><g transform="translate(379.9505,330.7031)"><path id="path2648" d="M 0,0 C -4.593,-12.304 -7.387,-25.059 -7.452,-30.89 H 54.236 C 54.171,-25.059 51.373,-12.304 46.78,0 Z" style="fill:#ffffff;fill-opacity:1;fill-rule:nonzero;stroke:none" /></g></g>
    <g transform="matrix(1,0,0,-1,-255.06197,696.86296)"><g transform="translate(379.9505,330.7031)"><path id="path2652" d="M 0,0 C -4.593,-12.304 -7.387,-25.059 -7.452,-30.89 H 54.236 C 54.171,-25.059 51.373,-12.304 46.78,0 Z" style="fill:none;stroke:#a7a9ac;stroke-width:0.966;stroke-linecap:butt;stroke-linejoin:miter;stroke-miterlimit:4;stroke-dasharray:none;stroke-opacity:1" /></g></g>
    <g transform="matrix(1,0,0,-1,-255.06197,696.86296)"><g transform="translate(391.6461,330.7031)"><path id="path2656" d="M 0,0 C -2.297,-12.304 -3.694,-25.059 -3.726,-30.89 H 27.117 C 27.085,-25.059 25.686,-12.304 23.389,0 Z" style="fill:#ffffff;fill-opacity:1;fill-rule:nonzero;stroke:none" /></g></g>
    <g transform="matrix(1,0,0,-1,-255.06197,696.86296)"><g transform="translate(391.6461,330.7031)"><path id="path2660" d="M 0,0 C -2.297,-12.304 -3.694,-25.059 -3.726,-30.89 H 27.117 C 27.085,-25.059 25.686,-12.304 23.389,0 Z" style="fill:none;stroke:#a7a9ac;stroke-width:0.966;stroke-linecap:butt;stroke-linejoin:miter;stroke-miterlimit:4;stroke-dasharray:none;stroke-opacity:1" /></g></g>
    <g transform="matrix(1,0,0,-1,-255.06197,696.86296)"><g transform="translate(334.5216,306.9327)"><path id="path2664" d="M 0,0 H 138.818" style="fill:#ffffff;fill-opacity:1;fill-rule:nonzero;stroke:#a7a9ac;stroke-width:0.966;stroke-linecap:butt;stroke-linejoin:miter;stroke-miterlimit:4;stroke-dasharray:none;stroke-opacity:1" /></g></g>
    <g transform="matrix(1,0,0,-1,-255.06197,696.86296)"><g transform="translate(403.3361,473.0379)"><path id="path2668" d="M 0,0 V -173.225" style="fill:#ffffff;fill-opacity:1;fill-rule:nonzero;stroke:#a7a9ac;stroke-width:0.966;stroke-linecap:butt;stroke-linejoin:miter;stroke-miterlimit:4;stroke-dasharray:none;stroke-opacity:1" /></g></g>
    <g transform="matrix(1,0,0,-1,-255.06197,696.86296)"><g transform="translate(403.3361,669.9924)"><path id="path2672" d="M 0,0 V -149.495" style="fill:#ffffff;fill-opacity:1;fill-rule:nonzero;stroke:#a7a9ac;stroke-width:0.966;stroke-linecap:butt;stroke-linejoin:miter;stroke-miterlimit:4;stroke-dasharray:none;stroke-opacity:1" /></g></g>
    <g transform="matrix(1,0,0,-1,-255.06197,696.86296)"><g transform="translate(457.7657,360.3237)"><path id="path2676" d="m 0,0 h 1.317 c 22.653,38.713 37.985,107.839 37.985,161.36 0,64.281 -22.106,118.603 -52.465,136.295" style="fill:none;stroke:#a7a9ac;stroke-width:0.966;stroke-linecap:butt;stroke-linejoin:miter;stroke-miterlimit:4;stroke-dasharray:none;stroke-opacity:1" /></g></g>
    <g transform="matrix(1,0,0,-1,-255.06197,696.86296)"><g transform="translate(362.0699,657.9779)"><path id="path2680" d="m 0,0 c -31.044,-17.692 -53.651,-72.014 -53.651,-136.295 0,-53.521 15.678,-122.647 38.844,-161.36 h 1.347" style="fill:none;stroke:#a7a9ac;stroke-width:0.966;stroke-linecap:butt;stroke-linejoin:miter;stroke-miterlimit:4;stroke-dasharray:none;stroke-opacity:1" /></g></g>
    <g transform="matrix(1,0,0,-1,-255.06197,696.86296)"><g transform="translate(308.4185,389.9853)"><path id="path2684" d="M 0,0 H 189.836" style="fill:none;stroke:#a7a9ac;stroke-width:0.966;stroke-linecap:butt;stroke-linejoin:miter;stroke-miterlimit:4;stroke-dasharray:none;stroke-opacity:1" /></g></g>
    <g transform="matrix(1,0,0,-1,-255.06197,696.86296)"><g transform="translate(444.8627,473.0379)"><path id="path2688" d="M 0,0 9.493,-20.17 H 45.086" style="fill:none;stroke:#a7a9ac;stroke-width:0.966;stroke-linecap:butt;stroke-linejoin:miter;stroke-miterlimit:4;stroke-dasharray:none;stroke-opacity:1" /></g></g>
    <g transform="matrix(1,0,0,-1,-255.06197,696.86296)"><g transform="translate(444.5316,473.2143)"><path id="path2692" d="M 0,0 43.044,10.471 V 23.553" style="fill:none;stroke:#a7a9ac;stroke-width:0.966;stroke-linecap:butt;stroke-linejoin:miter;stroke-miterlimit:4;stroke-dasharray:none;stroke-opacity:1" /></g></g>
    <g transform="matrix(1,0,0,-1,-255.06197,696.86296)"><g transform="translate(427.5602,537.577)"><path id="path2696" d="M 0,0 -11.145,45.802 H -24.224" style="fill:none;stroke:#a7a9ac;stroke-width:0.966;stroke-linecap:butt;stroke-linejoin:miter;stroke-miterlimit:4;stroke-dasharray:none;stroke-opacity:1" /></g></g>
    <g transform="matrix(1,0,0,-1,-255.06197,696.86296)"><g transform="translate(362.334,520.6556)"><path id="path2700" d="m 0,0 -44.423,-10.808 v -13.08" style="fill:none;stroke:#a7a9ac;stroke-width:0.966;stroke-linecap:butt;stroke-linejoin:miter;stroke-miterlimit:4;stroke-dasharray:none;stroke-opacity:1" /></g></g>
    <g transform="matrix(1,0,0,-1,-255.06197,696.86296)"><g transform="translate(379.4477,455.7648)"><path id="path2704" d="M 0,0 10.807,-44.423 H 23.888" style="fill:none;stroke:#a7a9ac;stroke-width:0.966;stroke-linecap:butt;stroke-linejoin:miter;stroke-miterlimit:4;stroke-dasharray:none;stroke-opacity:1" /></g></g>
    <g transform="matrix(1,0,0,-1,-255.06197,696.86296)"><g transform="translate(450.7949,496.7673)"><path id="path2708" d="m 0,0 c 0,-26.211 -21.248,-47.459 -47.459,-47.459 -26.211,0 -47.459,21.248 -47.459,47.459 0,26.211 21.248,47.459 47.459,47.459 C -21.248,47.459 0,26.211 0,0" style="fill:#ffffff;fill-opacity:1;fill-rule:nonzero;stroke:none" /></g></g>
    <g transform="matrix(1,0,0,-1,-255.06197,696.86296)"><g transform="translate(450.7949,496.7673)"><path id="path2712" d="m 0,0 c 0,-26.211 -21.248,-47.459 -47.459,-47.459 -26.211,0 -47.459,21.248 -47.459,47.459 0,26.211 21.248,47.459 47.459,47.459 C -21.248,47.459 0,26.211 0,0 Z" style="fill:none;stroke:#a7a9ac;stroke-width:0.966;stroke-linecap:butt;stroke-linejoin:miter;stroke-miterlimit:4;stroke-dasharray:none;stroke-opacity:1" /></g></g>
    <g transform="matrix(1,0,0,-1,-255.06197,696.86296)"><g transform="translate(499.3421,589.4489)"><path id="path2716" d="m 0,0 c 3.393,-12.658 -0.523,-24.707 -4.635,-25.809 -4.114,-1.102 -6.691,9.884 -10.084,22.543 -3.392,12.658 -6.313,22.197 -2.201,23.3 C -12.805,21.136 -3.39,12.659 0,0" style="fill:#ffffff;fill-opacity:1;fill-rule:nonzero;stroke:none" /></g></g>
    <g transform="matrix(1,0,0,-1,-255.06197,696.86296)"><g transform="translate(499.3421,589.4489)"><path id="path2720" d="m 0,0 c 3.393,-12.658 -0.523,-24.707 -4.635,-25.809 -4.114,-1.102 -6.691,9.884 -10.084,22.543 -3.392,12.658 -6.313,22.197 -2.201,23.3 C -12.805,21.136 -3.39,12.659 0,0 Z" style="fill:none;stroke:#a7a9ac;stroke-width:0.966;stroke-linecap:butt;stroke-linejoin:miter;stroke-miterlimit:4;stroke-dasharray:none;stroke-opacity:1" /></g></g>
    <g transform="matrix(1,0,0,-1,-255.06197,696.86296)"><g transform="translate(310.9871,423.4998)"><path id="path2724" d="m 0,0 c -3.392,12.659 0.522,24.707 4.637,25.809 4.113,1.102 6.691,-9.883 10.082,-22.542 3.392,-12.66 6.315,-22.198 2.201,-23.3 C 12.804,-21.136 3.392,-12.658 0,0" style="fill:#ffffff;fill-opacity:1;fill-rule:nonzero;stroke:none" /></g></g>
    <g transform="matrix(1,0,0,-1,-255.06197,696.86296)"><g transform="translate(310.9871,423.4998)"><path id="path2728" d="m 0,0 c -3.392,12.659 0.522,24.707 4.637,25.809 4.113,1.102 6.691,-9.883 10.082,-22.542 3.392,-12.66 6.315,-22.198 2.201,-23.3 C 12.804,-21.136 3.392,-12.658 0,0 Z" style="fill:none;stroke:#a7a9ac;stroke-width:0.966;stroke-linecap:butt;stroke-linejoin:miter;stroke-miterlimit:4;stroke-dasharray:none;stroke-opacity:1" /></g></g>
    <g transform="matrix(1,0,0,-1,-255.06197,696.86296)"><g transform="translate(427.5602,537.577)"><path id="path2732" d="M 0,0 C 0,0 18.95,70.573 79.001,82.583" style="fill:none;stroke:#a7a9ac;stroke-width:0.966;stroke-linecap:butt;stroke-linejoin:miter;stroke-miterlimit:4;stroke-dasharray:none;stroke-opacity:1" /></g></g>
    <g transform="matrix(1,0,0,-1,-255.06197,696.86296)"><g transform="translate(262.6407,545.8824)"><path id="path2736" d="M 0,0 C 0,0 25.781,70.574 107.475,82.583" style="fill:none;stroke:#a7a9ac;stroke-width:0.966;stroke-linecap:butt;stroke-linejoin:miter;stroke-miterlimit:4;stroke-dasharray:none;stroke-opacity:1" /></g></g>
    <g transform="matrix(1,0,0,-1,-255.06197,696.86296)"><g transform="translate(262.1459,544.2266)"><path id="path2740" d="M 0,0 H 47.459" style="fill:none;stroke:#a7a9ac;stroke-width:0.966;stroke-linecap:butt;stroke-linejoin:miter;stroke-miterlimit:4;stroke-dasharray:none;stroke-opacity:1" /></g></g>
    <g transform="matrix(1,0,0,-1,-255.06197,696.86296)"><g transform="translate(379.6062,658.1275)"><path id="path2744" d="m 0,0 c -7.118,-16.611 -23.729,-72.163 -23.729,-136.444 0,-1.568 -0.001,-0.779 0,-2.373" style="fill:none;stroke:#a7a9ac;stroke-width:0.966;stroke-linecap:butt;stroke-linejoin:miter;stroke-miterlimit:4;stroke-dasharray:none;stroke-opacity:1" /></g></g>
    <g transform="matrix(1,0,0,-1,-255.06197,696.86296)"><g transform="translate(286.0531,544.2266)"><path id="path2748" d="m 0,0 c -0.894,-7.344 -1.364,-14.871 -1.364,-22.543 0,-8.007 0.517,-16.366 1.489,-24.916" style="fill:none;stroke:#a7a9ac;stroke-width:0.966;stroke-linecap:butt;stroke-linejoin:miter;stroke-miterlimit:4;stroke-dasharray:none;stroke-opacity:1" /></g></g>
    <g transform="matrix(1,0,0,-1,-255.06197,696.86296)"><g transform="translate(273.0016,544.2266)"><path id="path2752" d="m 0,0 c -0.894,-7.344 -1.364,-14.871 -1.364,-22.543 0,-8.007 0.517,-16.366 1.49,-24.916" style="fill:none;stroke:#a7a9ac;stroke-width:0.966;stroke-linecap:butt;stroke-linejoin:miter;stroke-miterlimit:4;stroke-dasharray:none;stroke-opacity:1" /></g></g>
    <g transform="matrix(1,0,0,-1,-255.06197,696.86296)"><g transform="translate(364.1819,299.8129)"><path id="path2756" d="M 0,0 V 30.848" style="fill:#ffffff;fill-opacity:1;fill-rule:nonzero;stroke:#a7a9ac;stroke-width:0.966;stroke-linecap:butt;stroke-linejoin:miter;stroke-miterlimit:4;stroke-dasharray:none;stroke-opacity:1" /></g></g>
    <g transform="matrix(1,0,0,-1,-255.06197,696.86296)"><g transform="translate(443.6769,299.8129)"><path id="path2760" d="M 0,0 V 30.848" style="fill:#ffffff;fill-opacity:1;fill-rule:nonzero;stroke:#a7a9ac;stroke-width:0.966;stroke-linecap:butt;stroke-linejoin:miter;stroke-miterlimit:4;stroke-dasharray:none;stroke-opacity:1" /></g></g>
    <g transform="matrix(1,0,0,-1,-255.06197,696.86296)"><g transform="translate(545.7133,521.6833)"><path id="path2764" d="m 0,0 c 0,64.281 -42.601,118.604 -101.111,136.295 -8.164,7.172 -23.58,12.014 -41.266,12.014 -17.687,0 -33.103,-4.842 -41.266,-12.014 C -242.15,118.603 -284.753,64.28 -284.753,0 c 0,-54.486 30.611,-125.167 75.568,-163.446 -2.646,-2.156 -4.38,-5.773 -4.38,-9.873 v -5.744 c 0,-6.049 3.773,-11.035 8.67,-11.834 -4.611,-12.328 -7.42,-25.129 -7.484,-30.973 h 141.182 c -0.066,5.884 -2.913,18.818 -7.582,31.224 4.361,1.306 7.593,5.989 7.593,11.583 v 5.744 c 0,4.1 -1.738,7.717 -4.379,9.873 C -30.611,-125.167 0,-54.486 0,0 Z" style="fill:none;stroke:#000000;stroke-width:1.932;stroke-linecap:butt;stroke-linejoin:miter;stroke-miterlimit:4;stroke-dasharray:none;stroke-opacity:1" /></g></g>
    <g transform="matrix(1,0,0,-1,-255.06197,696.86296)"><g transform="translate(446.8642,577.4476)"><path id="path2768" d="M 0,0 C -5.36,38.905 -14.862,69.16 -19.798,80.679" style="fill:none;stroke:#a7a9ac;stroke-width:0.966;stroke-linecap:butt;stroke-linejoin:miter;stroke-miterlimit:4;stroke-dasharray:none;stroke-opacity:1" /></g></g>
    <g transform="matrix(1,0,0,-1,-255.06197,696.86296)"><g transform="translate(438.4323,471.8428)"><path id="path2772" d="M 0,0 29.565,-110.34" style="fill:none;stroke:#000000;stroke-width:1.932;stroke-linecap:round;stroke-linejoin:miter;stroke-miterlimit:4;stroke-dasharray:none;stroke-opacity:1" /></g></g>
    <g transform="matrix(1,0,0,-1,-255.06197,696.86296)"><g transform="translate(368.5587,471.8428)"><path id="path2776" d="M 0,0 -29.565,-110.34" style="fill:none;stroke:#000000;stroke-width:1.932;stroke-linecap:round;stroke-linejoin:miter;stroke-miterlimit:4;stroke-dasharray:none;stroke-opacity:1" /></g></g>
    <g transform="matrix(1,0,0,-1,-255.06197,696.86296)"><g transform="translate(438.4323,528.4367)"><path id="path2780" d="M 0,0 29.565,110.34" style="fill:none;stroke:#000000;stroke-width:1.932;stroke-linecap:round;stroke-linejoin:miter;stroke-miterlimit:4;stroke-dasharray:none;stroke-opacity:1" /></g></g>
    <g transform="matrix(1,0,0,-1,-255.06197,696.86296)"><g transform="translate(367.189,528.4367)"><path id="path2784" d="M 0,0 -29.565,110.34" style="fill:none;stroke:#000000;stroke-width:1.932;stroke-linecap:round;stroke-linejoin:miter;stroke-miterlimit:4;stroke-dasharray:none;stroke-opacity:1" /></g></g>
    <g transform="matrix(1,0,0,-1,-255.06197,696.86296)"><g transform="translate(437.5627,481.1605)"><path id="path9278" d="m 0,0 c 0,-6.402 -4.541,-11.591 -10.142,-11.591 h -48.166 c -5.602,0 -10.142,5.189 -10.142,11.591 v 30.21 c 0,6.401 4.54,11.591 10.142,11.591 h 48.166 C -4.541,41.801 0,36.611 0,30.21 Z" style="fill:#ccced0;fill-opacity:1;fill-rule:nonzero;stroke:none" /></g></g>
    <g transform="matrix(1,0,0,-1,-255.06197,696.86296)"><g transform="translate(437.5627,481.1605)"><path id="path9282" d="m 0,0 c 0,-6.402 -4.541,-11.591 -10.142,-11.591 h -48.166 c -5.602,0 -10.142,5.189 -10.142,11.591 v 30.21 c 0,6.401 4.54,11.591 10.142,11.591 h 48.166 C -4.541,41.801 0,36.611 0,30.21 Z" style="fill:none;stroke:#000000;stroke-width:1.932;stroke-linecap:butt;stroke-linejoin:miter;stroke-miterlimit:4;stroke-dasharray:none;stroke-opacity:1" /></g></g>
    </g>
</svg>
