<?xml version="1.0" encoding="UTF-8"?>
<!-- Editable MekBay superheavy-vee-noturret armor paperdoll. Pink dashed rectangles mark pip areas and are removed at runtime. -->
<svg xmlns="http://www.w3.org/2000/svg" viewBox="14.308 35.021 145.226 264.955" role="img" aria-label="superheavy-vee-noturret armor paperdoll">
    <g id="paperdoll-art-armor">
    <g transform="translate(-400.802,-35.489748)"><polyline id="polyline4675" points="550.61,80.237 540.885,73.429 531.158,81.275 447.205,81.275 437.479,73.429 427.753,80.237    418.027,214.696 418.027,311.868 427.753,335.466 438.951,335.466 438.951,333.6 478.986,333.6 478.986,335.466 499.878,335.466    499.878,333.6 539.914,333.6 539.914,335.466 550.61,335.466 560.336,311.868 560.336,214.696 550.61,80.237" style="fill:#c7c8ca" /></g>
    <g transform="translate(-400.802,-35.489748)"><polyline id="polyline4679" points="547.693,77.32 537.967,70.511 528.241,78.356 444.288,78.356 434.563,70.511 424.836,77.32    415.11,211.778 415.11,308.951 424.836,332.549 436.033,332.549 436.033,330.683 476.068,330.683 476.068,332.549 496.96,332.549    496.96,330.683 536.995,330.683 536.995,332.549 547.693,332.549 557.419,308.951 557.419,211.778 547.693,77.32" style="fill:#ffffff" /></g>
    <g transform="translate(-400.802,-35.489748)"><polyline id="polyline4683" points="454.201,110.795 448.164,136.728 435.521,211.218 447.192,277.889 457.422,310.791    515.15,310.791 525.336,277.889 537.007,211.218 525.336,138.674 518.328,110.795 454.201,110.795" style="fill:#c7c8ca" /></g>
    <g transform="translate(-400.802,-35.489748)"><polyline id="polyline4689" points="557.328,309.774 523.448,284.507 449.25,284.507    415.49,310.098" style="fill:none;stroke:#000000;stroke-width:0.97299999" /></g>
    <g transform="translate(-400.802,-35.489748)"><rect height="91.481003" id="rect4677" width="0.030999999" x="485.50299" y="164.345" style="fill:#c7c8ca" /></g>
    <g transform="translate(-400.802,-35.489748)"><g transform="matrix(0.150006,0,0,-0.13283434,-103.78733,877.86089)"><path id="path6335" d="m 3941.37,4470.53 0,1105.55" style="fill:none;stroke:#000000;stroke-width:7.88224983;stroke-linecap:butt;stroke-linejoin:miter;stroke-miterlimit:4;stroke-opacity:1;stroke-dasharray:none" /></g></g>
    <g transform="translate(-400.802,-35.489748)"><polygon id="polygon4681" points="528.241,78.356 444.288,78.356 434.563,70.511 424.836,77.32 415.11,211.778 415.11,308.951 424.836,332.548 436.034,332.548 436.034,330.682 476.068,330.682 476.068,332.548 496.961,332.548 496.961,330.682 536.996,330.682 536.996,332.548 547.693,332.548 557.419,308.951 557.419,211.778 547.693,77.32 537.967,70.511" style="fill:none;stroke:#000000;stroke-width:1.45899999" /></g>
    <g transform="translate(-400.802,-35.489748)"><polygon id="polygon4685" points="435.521,211.218 447.19,277.889 457.421,310.792 515.15,310.792 525.336,277.889 537.007,211.218 525.336,138.674 518.327,110.795 454.201,110.795 448.164,136.728" style="fill:none;stroke:#000000;stroke-width:0.97299999" /></g>
    <g transform="translate(-400.802,-35.489748)"><line id="line4687" x1="415.65201" x2="557.328" y1="211.056" y2="211.056" style="fill:none;stroke:#000000;stroke-width:0.97299999" /></g>
    <g transform="translate(-400.802,-35.489748)"><line id="line4691" x1="448.255" x2="524.86298" y1="136.604" y2="136.67999" style="fill:none;stroke:#000000;stroke-width:0.97299999" /></g>
    <g transform="translate(-400.802,-35.489748)"><line id="line4693" x1="424.56699" x2="453.91101" y1="77.485001" y2="110.488" style="fill:none;stroke:#000000;stroke-width:0.97299999;stroke-linecap:round" /></g>
    <g transform="translate(-400.802,-35.489748)"><line id="line4695" x1="518.375" x2="547.76398" y1="110.488" y2="77.646004" style="fill:none;stroke:#000000;stroke-width:0.97299999;stroke-linecap:round" /></g>
    </g>
</svg>
