<?xml version="1.0" encoding="UTF-8"?>
<!-- Editable MekBay superheavy-vee-dualturret armor paperdoll. Pink dashed rectangles mark pip areas and are removed at runtime. -->
<svg xmlns="http://www.w3.org/2000/svg" viewBox="14.308 35.021 145.226 264.955" role="img" aria-label="superheavy-vee-dualturret armor paperdoll">
    <g id="paperdoll-art-armor">
    <g transform="translate(-400.802,-35.489748)"><polyline id="polyline4675" points="550.61,80.237 540.885,73.429 531.158,81.275 447.205,81.275 437.479,73.429 427.753,80.237    418.027,214.696 418.027,311.868 427.753,335.466 438.951,335.466 438.951,333.6 478.986,333.6 478.986,335.466 499.878,335.466    499.878,333.6 539.914,333.6 539.914,335.466 550.61,335.466 560.336,311.868 560.336,214.696 550.61,80.237" style="fill:#c7c8ca" /></g>
    <g transform="translate(-400.802,-35.489748)"><polyline id="polyline4679" points="547.693,77.32 537.967,70.511 528.241,78.356 444.288,78.356 434.563,70.511 424.836,77.32    415.11,211.778 415.11,308.951 424.836,332.549 436.033,332.549 436.033,330.683 476.068,330.683 476.068,332.549 496.96,332.549    496.96,330.683 536.995,330.683 536.995,332.549 547.693,332.549 557.419,308.951 557.419,211.778 547.693,77.32" style="fill:#ffffff" /></g>
    <g transform="translate(-400.802,-35.489748)"><polyline id="polyline4683" points="454.201,110.795 448.164,136.728 435.521,211.218 447.192,277.889 457.422,310.791    515.15,310.791 525.336,277.889 537.007,211.218 525.336,138.674 518.328,110.795 454.201,110.795" style="fill:#c7c8ca" /></g>
    <g transform="translate(-400.802,-35.489748)"><polyline id="polyline4689" points="557.328,309.774 523.448,284.507 449.25,284.507    415.49,310.098" style="fill:none;stroke:#000000;stroke-width:0.97299999" /></g>
    <g transform="translate(-400.802,-35.489748)"><polyline id="polyline4697" points="522.104,204.5 520.727,207.257 451.801,207.257 450.424,204.5 461.451,139.711 462.832,138.333    472.479,138.333 472.479,131.441 484.884,125.926 484.884,124.548 486.264,124.548 487.643,120.413 489.021,119.034    487.643,117.655 489.021,113.521 494.535,113.521 495.914,117.655 494.535,119.034 495.914,120.413 497.293,124.548    498.67,124.548 498.672,131.441 500.05,131.441 500.05,138.333 509.697,138.333 511.077,139.711 522.104,204.5" style="fill:#ffffff" /></g>
    <g transform="translate(-400.802,-35.489748)"><polyline id="polyline4715" points="489.021,119.034 494.534,119.034 489.021,119.034" style="fill:#ffffff" /></g>
    <g transform="translate(-400.802,-35.489748)"><polyline id="polyline4721" points="472.479,131.441 484.885,131.441 472.479,131.441" style="fill:#ffffff" /></g>
    <g transform="translate(-400.802,-35.489748)"><polyline id="polyline4761" points="513.497,162.356 459.031,162.356 462.922,139.895 509.606,139.895 513.497,162.356" style="fill:#c7c8ca" /></g>
    <g transform="translate(-400.802,-35.489748)"><polyline id="polyline4765" points="450.424,218.4 451.801,215.645 520.726,215.645 522.104,218.4 511.076,283.189 509.697,284.567    500.05,284.567 500.05,291.461 487.644,296.975 487.644,298.354 486.264,298.354 484.885,302.489 483.508,303.868 484.885,305.247    483.508,309.38 477.993,309.38 476.613,305.247 477.993,303.868 476.613,302.489 475.234,298.354 473.858,298.354 473.856,291.461    472.479,291.461 472.479,284.567 462.83,284.567 461.451,283.189 450.424,218.4" style="fill:#ffffff" /></g>
    <g transform="translate(-400.802,-35.489748)"><polyline id="polyline4783" points="477.992,303.868 483.508,303.868 477.992,303.868" style="fill:#ffffff" /></g>
    <g transform="translate(-400.802,-35.489748)"><polyline id="polyline4789" points="487.643,291.459 500.047,291.459 487.643,291.459" style="fill:#ffffff" /></g>
    <g transform="translate(-400.802,-35.489748)"><polyline id="polyline4829" points="459.031,260.545 513.497,260.545 509.606,283.005 462.922,283.005 459.031,260.545" style="fill:#c7c8ca" /></g>
    <g transform="translate(-400.802,-35.489748)"><rect height="91.481003" id="rect4677" width="0.030999999" x="485.50299" y="164.345" style="fill:#c7c8ca" /></g>
    <g transform="translate(-400.802,-35.489748)"><rect height="6.8920002" id="rect4701" width="4.1350002" x="484.88501" y="124.549" style="fill:#ffffff" /></g>
    <g transform="translate(-400.802,-35.489748)"><rect height="6.8920002" id="rect4703" width="4.1360002" x="484.884" y="124.549" style="fill:none;stroke:#000000;stroke-width:0.97299999" /></g>
    <g transform="translate(-400.802,-35.489748)"><rect height="6.8920002" id="rect4705" width="4.1350002" x="494.534" y="124.549" style="fill:#ffffff" /></g>
    <g transform="translate(-400.802,-35.489748)"><rect height="6.8920002" id="rect4707" width="4.1360002" x="494.53299" y="124.549" style="fill:none;stroke:#000000;stroke-width:0.97299999" /></g>
    <g transform="translate(-400.802,-35.489748)"><rect height="6.8920002" id="rect4709" width="4.1370001" x="489.70901" y="124.549" style="fill:#ffffff" /></g>
    <g transform="translate(-400.802,-35.489748)"><rect height="6.8920002" id="rect4711" width="4.1360002" x="489.70801" y="124.549" style="fill:none;stroke:#000000;stroke-width:0.97299999" /></g>
    <g transform="translate(-400.802,-35.489748)"><rect height="5.5139999" id="rect4725" width="2.2420001" x="496.431" y="132.82001" style="fill:#ffffff" /></g>
    <g transform="translate(-400.802,-35.489748)"><rect height="5.5139999" id="rect4727" width="2.2420001" x="496.431" y="132.81799" style="fill:none;stroke:#000000;stroke-width:0.97299999" /></g>
    <g transform="translate(-400.802,-35.489748)"><rect height="5.5139999" id="rect4729" width="2.2409999" x="480.74899" y="132.82001" style="fill:#ffffff" /></g>
    <g transform="translate(-400.802,-35.489748)"><rect height="5.5139999" id="rect4731" width="2.2409999" x="480.74899" y="132.81799" style="fill:none;stroke:#000000;stroke-width:0.97299999" /></g>
    <g transform="translate(-400.802,-35.489748)"><rect height="5.5139999" id="rect4733" width="2.2420001" x="494.18799" y="132.82001" style="fill:#ffffff" /></g>
    <g transform="translate(-400.802,-35.489748)"><rect height="5.5139999" id="rect4735" width="2.2420001" x="494.18799" y="132.81799" style="fill:none;stroke:#000000;stroke-width:0.97299999" /></g>
    <g transform="translate(-400.802,-35.489748)"><rect height="5.5139999" id="rect4737" width="2.24" x="491.95099" y="132.82001" style="fill:#ffffff" /></g>
    <g transform="translate(-400.802,-35.489748)"><rect height="5.5139999" id="rect4739" width="2.2390001" x="491.95099" y="132.81799" style="fill:none;stroke:#000000;stroke-width:0.97299999" /></g>
    <g transform="translate(-400.802,-35.489748)"><rect height="5.5139999" id="rect4741" width="2.2420001" x="489.70901" y="132.82001" style="fill:#ffffff" /></g>
    <g transform="translate(-400.802,-35.489748)"><rect height="5.5139999" id="rect4743" width="2.2420001" x="489.70901" y="132.81799" style="fill:none;stroke:#000000;stroke-width:0.97299999" /></g>
    <g transform="translate(-400.802,-35.489748)"><rect height="5.5139999" id="rect4745" width="2.243" x="487.46899" y="132.82001" style="fill:#ffffff" /></g>
    <g transform="translate(-400.802,-35.489748)"><rect height="5.5139999" id="rect4747" width="2.2420001" x="487.47" y="132.81799" style="fill:none;stroke:#000000;stroke-width:0.97299999" /></g>
    <g transform="translate(-400.802,-35.489748)"><rect height="5.5139999" id="rect4749" width="2.2409999" x="485.229" y="132.82001" style="fill:#ffffff" /></g>
    <g transform="translate(-400.802,-35.489748)"><rect height="5.5139999" id="rect4751" width="2.2420001" x="485.229" y="132.81799" style="fill:none;stroke:#000000;stroke-width:0.97299999" /></g>
    <g transform="translate(-400.802,-35.489748)"><rect height="5.5139999" id="rect4753" width="2.2390001" x="482.991" y="132.82001" style="fill:#ffffff" /></g>
    <g transform="translate(-400.802,-35.489748)"><rect height="5.5139999" id="rect4755" width="2.24" x="482.98999" y="132.81799" style="fill:none;stroke:#000000;stroke-width:0.97299999" /></g>
    <g transform="translate(-400.802,-35.489748)"><rect height="5.5139999" id="rect4757" width="2.2390001" x="475.75299" y="132.82001" style="fill:#ffffff" /></g>
    <g transform="translate(-400.802,-35.489748)"><rect height="5.5139999" id="rect4759" width="2.24" x="475.75299" y="132.81799" style="fill:none;stroke:#000000;stroke-width:0.97299999" /></g>
    <g transform="translate(-400.802,-35.489748)"><rect height="6.8930001" id="rect4769" width="4.1360002" x="483.508" y="291.45999" style="fill:#ffffff" /></g>
    <g transform="translate(-400.802,-35.489748)"><rect height="6.8920002" id="rect4771" width="4.1360002" x="483.508" y="291.45999" style="fill:none;stroke:#000000;stroke-width:0.97299999" /></g>
    <g transform="translate(-400.802,-35.489748)"><rect height="6.8930001" id="rect4773" width="4.1339998" x="473.858" y="291.45999" style="fill:#ffffff" /></g>
    <g transform="translate(-400.802,-35.489748)"><rect height="6.8920002" id="rect4775" width="4.1350002" x="473.858" y="291.45999" style="fill:none;stroke:#000000;stroke-width:0.97299999" /></g>
    <g transform="translate(-400.802,-35.489748)"><rect height="6.8930001" id="rect4777" width="4.1360002" x="478.68301" y="291.45999" style="fill:#ffffff" /></g>
    <g transform="translate(-400.802,-35.489748)"><rect height="6.8920002" id="rect4779" width="4.1360002" x="478.68301" y="291.45999" style="fill:none;stroke:#000000;stroke-width:0.97299999" /></g>
    <g transform="translate(-400.802,-35.489748)"><rect height="5.5139999" id="rect4793" width="2.2409999" x="473.85599" y="284.56799" style="fill:#ffffff" /></g>
    <g transform="translate(-400.802,-35.489748)"><rect height="5.5139999" id="rect4795" width="2.2409999" x="473.85599" y="284.56799" style="fill:none;stroke:#000000;stroke-width:0.97299999" /></g>
    <g transform="translate(-400.802,-35.489748)"><rect height="5.5139999" id="rect4797" width="2.2420001" x="489.53699" y="284.56799" style="fill:#ffffff" /></g>
    <g transform="translate(-400.802,-35.489748)"><rect height="5.5139999" id="rect4799" width="2.2420001" x="489.53699" y="284.56799" style="fill:none;stroke:#000000;stroke-width:0.97299999" /></g>
    <g transform="translate(-400.802,-35.489748)"><rect height="5.5139999" id="rect4801" width="2.243" x="476.09698" y="284.56799" style="fill:#ffffff" /></g>
    <g transform="translate(-400.802,-35.489748)"><rect height="5.5139999" id="rect4803" width="2.2420001" x="476.09698" y="284.56799" style="fill:none;stroke:#000000;stroke-width:0.97299999" /></g>
    <g transform="translate(-400.802,-35.489748)"><rect height="5.5139999" id="rect4805" width="2.24" x="478.33701" y="284.56799" style="fill:#ffffff" /></g>
    <g transform="translate(-400.802,-35.489748)"><rect height="5.5139999" id="rect4807" width="2.2390001" x="478.33701" y="284.56799" style="fill:none;stroke:#000000;stroke-width:0.97299999" /></g>
    <g transform="translate(-400.802,-35.489748)"><rect height="5.5139999" id="rect4809" width="2.2409999" x="480.577" y="284.56799" style="fill:#ffffff" /></g>
    <g transform="translate(-400.802,-35.489748)"><rect height="5.5139999" id="rect4811" width="2.2420001" x="480.577" y="284.56799" style="fill:none;stroke:#000000;stroke-width:0.97299999" /></g>
    <g transform="translate(-400.802,-35.489748)"><rect height="5.5139999" id="rect4813" width="2.243" x="482.81601" y="284.56799" style="fill:#ffffff" /></g>
    <g transform="translate(-400.802,-35.489748)"><rect height="5.5139999" id="rect4815" width="2.2420001" x="482.81601" y="284.56799" style="fill:none;stroke:#000000;stroke-width:0.97299999" /></g>
    <g transform="translate(-400.802,-35.489748)"><rect height="5.5139999" id="rect4817" width="2.2420001" x="485.05701" y="284.56799" style="fill:#ffffff" /></g>
    <g transform="translate(-400.802,-35.489748)"><rect height="5.5139999" id="rect4819" width="2.2420001" x="485.05701" y="284.56799" style="fill:none;stroke:#000000;stroke-width:0.97299999" /></g>
    <g transform="translate(-400.802,-35.489748)"><rect height="5.5139999" id="rect4821" width="2.2409999" x="487.297" y="284.56799" style="fill:#ffffff" /></g>
    <g transform="translate(-400.802,-35.489748)"><rect height="5.5139999" id="rect4823" width="2.24" x="487.297" y="284.56799" style="fill:none;stroke:#000000;stroke-width:0.97299999" /></g>
    <g transform="translate(-400.802,-35.489748)"><rect height="5.5139999" id="rect4825" width="2.2390001" x="494.534" y="284.56799" style="fill:#ffffff" /></g>
    <g transform="translate(-400.802,-35.489748)"><rect height="5.5139999" id="rect4827" width="2.24" x="494.534" y="284.56799" style="fill:none;stroke:#000000;stroke-width:0.97299999" /></g>
    <g transform="translate(-400.802,-35.489748)"><g transform="matrix(0.150006,0,0,-0.1277768,-103.78733,853.2521)"><path id="path6335" d="m 3941.37,4470.53 0,1105.55" style="fill:none;stroke:#000000;stroke-width:7.88224983;stroke-linecap:butt;stroke-linejoin:miter;stroke-miterlimit:4;stroke-opacity:1;stroke-dasharray:none" /></g></g>
    <g transform="translate(-400.802,-35.489748)"><polygon id="polygon4681" points="528.241,78.356 444.288,78.356 434.563,70.511 424.836,77.32 415.11,211.778 415.11,308.951 424.836,332.548 436.034,332.548 436.034,330.682 476.068,330.682 476.068,332.548 496.961,332.548 496.961,330.682 536.996,330.682 536.996,332.548 547.693,332.548 557.419,308.951 557.419,211.778 547.693,77.32 537.967,70.511" style="fill:none;stroke:#000000;stroke-width:1.45899999" /></g>
    <g transform="translate(-400.802,-35.489748)"><polygon id="polygon4685" points="435.521,211.218 447.19,277.889 457.421,310.792 515.15,310.792 525.336,277.889 537.007,211.218 525.336,138.674 518.327,110.795 454.201,110.795 448.164,136.728" style="fill:none;stroke:#000000;stroke-width:0.97299999" /></g>
    <g transform="translate(-400.802,-35.489748)"><polygon id="polygon4699" points="451.801,207.257 450.425,204.5 461.453,139.711 462.832,138.333 472.479,138.333 472.479,131.441 484.884,125.926 484.884,124.547 486.264,124.547 487.644,120.413 489.021,119.034 487.644,117.654 489.021,113.52 494.535,113.52 495.914,117.654 494.535,119.034 495.914,120.413 497.293,124.547 498.671,124.547 498.672,131.441 500.05,131.441 500.05,138.333 509.697,138.333 511.077,139.711 522.104,204.5 520.727,207.257" style="fill:none;stroke:#000000;stroke-width:0.97299999" /></g>
    <g transform="translate(-400.802,-35.489748)"><polygon id="polygon4763" points="462.922,139.896 509.606,139.896 513.497,162.356 459.031,162.356" style="fill:none;stroke:#000000;stroke-width:0.97299999" /></g>
    <g transform="translate(-400.802,-35.489748)"><polygon id="polygon4767" points="520.726,215.645 522.104,218.4 511.075,283.189 509.696,284.567 500.049,284.567 500.049,291.459 487.644,296.975 487.644,298.353 486.264,298.353 484.884,302.488 483.508,303.868 484.884,305.245 483.508,309.38 477.992,309.38 476.613,305.245 477.992,303.868 476.613,302.488 475.234,298.353 473.857,298.353 473.856,291.459 472.479,291.459 472.479,284.567 462.829,284.567 461.45,283.189 450.424,218.4 451.8,215.645" style="fill:none;stroke:#000000;stroke-width:0.97299999" /></g>
    <g transform="translate(-400.802,-35.489748)"><polygon id="polygon4831" points="509.606,283.007 462.922,283.007 459.031,260.545 513.497,260.545" style="fill:none;stroke:#000000;stroke-width:0.97299999" /></g>
    <g transform="translate(-400.802,-35.489748)"><line id="line4687" x1="415.65201" x2="557.328" y1="211.056" y2="211.056" style="fill:none;stroke:#000000;stroke-width:0.97299999" /></g>
    <g transform="translate(-400.802,-35.489748)"><line id="line4691" x1="448.255" x2="524.86298" y1="136.604" y2="136.67999" style="fill:none;stroke:#000000;stroke-width:0.97299999" /></g>
    <g transform="translate(-400.802,-35.489748)"><line id="line4693" x1="424.56699" x2="453.91101" y1="77.485001" y2="110.488" style="fill:none;stroke:#000000;stroke-width:0.97299999;stroke-linecap:round" /></g>
    <g transform="translate(-400.802,-35.489748)"><line id="line4695" x1="518.375" x2="547.76398" y1="110.488" y2="77.646004" style="fill:none;stroke:#000000;stroke-width:0.97299999;stroke-linecap:round" /></g>
    <g transform="translate(-400.802,-35.489748)"><line id="line4713" stroke-miterlimit="10" x1="489.021" x2="494.534" y1="119.034" y2="119.034" style="fill:none;stroke:#ffffff;stroke-width:0;stroke-miterlimit:10" /></g>
    <g transform="translate(-400.802,-35.489748)"><line id="line4717" x1="489.021" x2="494.535" y1="119.034" y2="119.034" style="fill:none;stroke:#000000;stroke-width:0.97299999" /></g>
    <g transform="translate(-400.802,-35.489748)"><line id="line4719" stroke-miterlimit="10" x1="472.479" x2="484.884" y1="131.44099" y2="131.44099" style="fill:none;stroke:#ffffff;stroke-width:0;stroke-miterlimit:10" /></g>
    <g transform="translate(-400.802,-35.489748)"><line id="line4723" x1="472.48001" x2="484.88501" y1="131.44099" y2="131.44099" style="fill:none;stroke:#000000;stroke-width:0.97299999" /></g>
    <g transform="translate(-400.802,-35.489748)"><line id="line4781" stroke-miterlimit="10" x1="477.992" x2="483.508" y1="303.86801" y2="303.86801" style="fill:none;stroke:#ffffff;stroke-width:0;stroke-miterlimit:10" /></g>
    <g transform="translate(-400.802,-35.489748)"><line id="line4785" x1="483.508" x2="477.992" y1="303.86801" y2="303.86801" style="fill:none;stroke:#000000;stroke-width:0.97299999" /></g>
    <g transform="translate(-400.802,-35.489748)"><line id="line4787" stroke-miterlimit="10" x1="487.64301" x2="500.04901" y1="291.45901" y2="291.45901" style="fill:none;stroke:#ffffff;stroke-width:0;stroke-miterlimit:10" /></g>
    <g transform="translate(-400.802,-35.489748)"><line id="line4791" x1="500.047" x2="487.642" y1="291.461" y2="291.461" style="fill:none;stroke:#000000;stroke-width:0.97299999" /></g>
    </g>
</svg>
