<?xml version="1.0" encoding="UTF-8"?>
<!-- Editable MekBay vee-dualturret armor paperdoll. Pink dashed rectangles mark pip areas and are removed at runtime. -->
<svg xmlns="http://www.w3.org/2000/svg" viewBox="15.58 13.894 148.116 285.776" role="img" aria-label="vee-dualturret armor paperdoll">
    <g id="paperdoll-art-armor">
    <g transform="matrix(1,0,0,-1,-406.25377,751.72782)"><g transform="translate(543.256,724.9876)"><path id="path1552" d="m 0,0 8.581,8.58 5.718,-4.767 12.395,-149.002 -2.862,-103.432 c 0,0 -2.381,-23.833 -16.68,-23.833 v 2.384 h -40.517 v -2.859 h -24.138 v 2.859 H -98.02 v -2.384 c -14.299,0 -16.68,23.833 -16.68,23.833 l -2.861,103.432 12.394,149.002 5.719,4.767 8.58,-8.58 z" style="fill:#c6c7c9;fill-opacity:1;fill-rule:nonzero;stroke:none" /></g></g>
    <g transform="matrix(1,0,0,-1,-406.25377,751.72782)"><g transform="translate(539.3951,729.2542)"><path id="path1556" d="m 0,0 8.58,8.58 5.719,-4.767 12.395,-149.002 -2.862,-103.432 c 0,0 -2.381,-23.833 -16.68,-23.833 v 2.384 h -40.517 v -2.859 h -24.138 v 2.859 H -98.02 v -2.384 c -14.299,0 -16.68,23.833 -16.68,23.833 l -2.861,103.432 12.394,149.002 5.719,4.767 8.58,-8.58 z" style="fill:#ffffff;fill-opacity:1;fill-rule:nonzero;stroke:none" /></g></g>
    <g transform="matrix(1,0,0,-1,-406.25377,751.72782)"><g transform="translate(539.3951,729.2542)"><path id="path1560" d="m 0,0 8.58,8.58 5.719,-4.767 12.395,-149.002 -2.862,-103.432 c 0,0 -2.381,-23.833 -16.68,-23.833 v 2.384 h -40.517 v -2.859 h -24.138 v 2.859 H -98.02 v -2.384 c -14.299,0 -16.68,23.833 -16.68,23.833 l -2.861,103.432 12.394,149.002 5.719,4.767 8.58,-8.58 z" style="fill:none;stroke:#000000;stroke-width:1.505;stroke-linecap:butt;stroke-linejoin:miter;stroke-miterlimit:4;stroke-dasharray:none;stroke-opacity:1" /></g></g>
    <g transform="matrix(1,0,0,-1,-406.25377,751.72782)"><g transform="translate(468.3613,551.907)"><path id="path1564" d="M 0,0 H 51.2 L 48.355,18.104 H 2.845 Z" style="fill:#c6c7c9;fill-opacity:1;fill-rule:nonzero;stroke:none" /></g></g>
    <g transform="matrix(1,0,0,-1,-406.25377,751.72782)"><g transform="translate(468.3613,551.907)"><path id="path1568" d="M 0,0 H 51.2 L 48.355,18.104 H 2.845 Z" style="fill:none;stroke:#000000;stroke-width:1.00300002;stroke-linecap:butt;stroke-linejoin:miter;stroke-miterlimit:4;stroke-dasharray:none;stroke-opacity:1" /></g></g>
    <g transform="matrix(1,0,0,-1,-406.25377,751.72782)"><g transform="translate(530.9392,504.5892)"><path id="path1572" d="M 0,0 -1.422,-2.844 H -72.533 L -73.955,0 l 11.377,66.844 1.423,1.422 h 9.956 v 7.112 l 12.799,5.689 v 1.422 h 1.423 l 1.421,4.267 1.422,1.423 -1.422,1.422 1.422,4.265 h 5.69 l 1.422,-4.265 -1.422,-1.422 1.422,-1.423 1.423,-4.267 h 1.422 l 0.001,-7.111 h 1.421 v -7.112 h 9.955 l 1.423,-1.422 z" style="fill:none;stroke:#000000;stroke-width:1.00300002;stroke-linecap:butt;stroke-linejoin:miter;stroke-miterlimit:4;stroke-dasharray:none;stroke-opacity:1" /></g></g>
    <g transform="matrix(1,0,0,-1,-406.25377,751.72782)"><g transform="translate(496.8055,579.9675)"><path id="path1576" d="M 0,0 H -4.267 V 7.11 H 0 Z" style="fill:none;stroke:#000000;stroke-width:1.00300002;stroke-linecap:butt;stroke-linejoin:miter;stroke-miterlimit:4;stroke-dasharray:none;stroke-opacity:1" /></g></g>
    <g transform="matrix(1,0,0,-1,-406.25377,751.72782)"><g transform="translate(506.7618,579.9675)"><path id="path1580" d="M 0,0 H -4.267 V 7.11 H 0 Z" style="fill:none;stroke:#000000;stroke-width:1.00300002;stroke-linecap:butt;stroke-linejoin:miter;stroke-miterlimit:4;stroke-dasharray:none;stroke-opacity:1" /></g></g>
    <g transform="matrix(1,0,0,-1,-406.25377,751.72782)"><g transform="translate(501.7836,579.9675)"><path id="path1584" d="M 0,0 H -4.267 V 7.11 H 0 Z" style="fill:none;stroke:#000000;stroke-width:1.00300002;stroke-linecap:butt;stroke-linejoin:miter;stroke-miterlimit:4;stroke-dasharray:none;stroke-opacity:1" /></g></g>
    <g transform="matrix(1,0,0,-1,-406.25377,751.72782)"><g transform="translate(496.806,592.7675)"><path id="path1588" d="M 0,0 H 5.689" style="fill:none;stroke:#000000;stroke-width:1.00300002;stroke-linecap:butt;stroke-linejoin:miter;stroke-miterlimit:4;stroke-dasharray:none;stroke-opacity:1" /></g></g>
    <g transform="matrix(1,0,0,-1,-406.25377,751.72782)"><g transform="translate(479.7403,579.9671)"><path id="path1592" d="M 0,0 H 12.799" style="fill:none;stroke:#000000;stroke-width:1.00300002;stroke-linecap:butt;stroke-linejoin:miter;stroke-miterlimit:4;stroke-dasharray:none;stroke-opacity:1" /></g></g>
    <g transform="matrix(1,0,0,-1,-406.25377,751.72782)"><g transform="translate(506.7628,572.856)"><path id="path1596" d="M 0,0 H -2.313 V 5.689 H 0 Z" style="fill:none;stroke:#000000;stroke-width:1.00300002;stroke-linecap:butt;stroke-linejoin:miter;stroke-miterlimit:4;stroke-dasharray:none;stroke-opacity:1" /></g></g>
    <g transform="matrix(1,0,0,-1,-406.25377,751.72782)"><g transform="translate(490.5841,572.856)"><path id="path1600" d="M 0,0 H -2.313 V 5.689 H 0 Z" style="fill:none;stroke:#000000;stroke-width:1.00300002;stroke-linecap:butt;stroke-linejoin:miter;stroke-miterlimit:4;stroke-dasharray:none;stroke-opacity:1" /></g></g>
    <g transform="matrix(1,0,0,-1,-406.25377,751.72782)"><g transform="translate(504.4508,572.856)"><path id="path1604" d="M 0,0 H -2.312 V 5.689 H 0 Z" style="fill:none;stroke:#000000;stroke-width:1.00300002;stroke-linecap:butt;stroke-linejoin:miter;stroke-miterlimit:4;stroke-dasharray:none;stroke-opacity:1" /></g></g>
    <g transform="matrix(1,0,0,-1,-406.25377,751.72782)"><g transform="translate(502.1409,572.856)"><path id="path1608" d="M 0,0 H -2.312 V 5.689 H 0 Z" style="fill:none;stroke:#000000;stroke-width:1.00300002;stroke-linecap:butt;stroke-linejoin:miter;stroke-miterlimit:4;stroke-dasharray:none;stroke-opacity:1" /></g></g>
    <g transform="matrix(1,0,0,-1,-406.25377,751.72782)"><g transform="translate(499.8289,572.856)"><path id="path1612" d="M 0,0 H -2.313 V 5.689 H 0 Z" style="fill:none;stroke:#000000;stroke-width:1.00300002;stroke-linecap:butt;stroke-linejoin:miter;stroke-miterlimit:4;stroke-dasharray:none;stroke-opacity:1" /></g></g>
    <g transform="matrix(1,0,0,-1,-406.25377,751.72782)"><g transform="translate(497.5179,572.856)"><path id="path1616" d="M 0,0 H -2.313 V 5.689 H 0 Z" style="fill:none;stroke:#000000;stroke-width:1.00300002;stroke-linecap:butt;stroke-linejoin:miter;stroke-miterlimit:4;stroke-dasharray:none;stroke-opacity:1" /></g></g>
    <g transform="matrix(1,0,0,-1,-406.25377,751.72782)"><g transform="translate(495.206,572.856)"><path id="path1620" d="M 0,0 H -2.312 V 5.689 H 0 Z" style="fill:none;stroke:#000000;stroke-width:1.00300002;stroke-linecap:butt;stroke-linejoin:miter;stroke-miterlimit:4;stroke-dasharray:none;stroke-opacity:1" /></g></g>
    <g transform="matrix(1,0,0,-1,-406.25377,751.72782)"><g transform="translate(492.896,572.856)"><path id="path1624" d="M 0,0 H -2.312 V 5.689 H 0 Z" style="fill:none;stroke:#000000;stroke-width:1.00300002;stroke-linecap:butt;stroke-linejoin:miter;stroke-miterlimit:4;stroke-dasharray:none;stroke-opacity:1" /></g></g>
    <g transform="matrix(1,0,0,-1,-406.25377,751.72782)"><g transform="translate(485.4293,572.856)"><path id="path1628" d="M 0,0 H -2.312 V 5.689 H 0 Z" style="fill:none;stroke:#000000;stroke-width:1.00300002;stroke-linecap:butt;stroke-linejoin:miter;stroke-miterlimit:4;stroke-dasharray:none;stroke-opacity:1" /></g></g>
    <g transform="matrix(1,0,0,-1,-406.25377,751.72782)"><g transform="translate(540.8944,497.4783)"><path id="path1632" d="m 0,0 h -93.866 l 25.6,130.845 h 42.667 z" style="fill:none;stroke:#000000;stroke-width:1.00300002;stroke-linecap:butt;stroke-linejoin:miter;stroke-miterlimit:4;stroke-dasharray:none;stroke-opacity:1" /></g></g>
    <g transform="matrix(1,0,0,-1,-406.25377,751.72782)"><g transform="translate(533.7839,487.5226)"><path id="path1636" d="m 0,0 h -79.644 l -7.111,9.955 H 7.112 Z" style="fill:#c6c7c9;fill-opacity:1;fill-rule:nonzero;stroke:none" /></g></g>
    <g transform="matrix(1,0,0,-1,-406.25377,751.72782)"><g transform="translate(533.7839,487.5226)"><path id="path1640" d="m 0,0 h -79.644 l -7.111,9.955 H 7.112 Z" style="fill:none;stroke:#000000;stroke-width:1.00300002;stroke-linecap:butt;stroke-linejoin:miter;stroke-miterlimit:4;stroke-dasharray:none;stroke-opacity:1" /></g></g>
    <g transform="matrix(1,0,0,-1,-406.25377,751.72782)"><g transform="translate(425.6948,477.5674)"><path id="path1644" d="M 0,0 21.333,19.911" style="fill:none;stroke:#000000;stroke-width:1.00300002;stroke-linecap:butt;stroke-linejoin:miter;stroke-miterlimit:4;stroke-dasharray:none;stroke-opacity:1" /></g></g>
    <g transform="matrix(1,0,0,-1,-406.25377,751.72782)"><g transform="translate(562.2285,477.5674)"><path id="path1648" d="M 0,0 -21.333,19.911" style="fill:none;stroke:#000000;stroke-width:1.00300002;stroke-linecap:butt;stroke-linejoin:miter;stroke-miterlimit:4;stroke-dasharray:none;stroke-opacity:1" /></g></g>
    <g transform="matrix(1,0,0,-1,-406.25377,751.72782)"><g transform="translate(434.2281,733.5675)"><path id="path1652" d="M 0,0 35.339,-120.889" style="fill:none;stroke:#000000;stroke-width:1.00300002;stroke-linecap:butt;stroke-linejoin:miter;stroke-miterlimit:4;stroke-dasharray:none;stroke-opacity:1" /></g></g>
    <g transform="matrix(1,0,0,-1,-406.25377,751.72782)"><g transform="translate(553.6952,733.5675)"><path id="path1656" d="M 0,0 -35.34,-120.889" style="fill:none;stroke:#000000;stroke-width:1.00300002;stroke-linecap:butt;stroke-linejoin:miter;stroke-miterlimit:4;stroke-dasharray:none;stroke-opacity:1" /></g></g>
    <g transform="matrix(1,0,0,-1,-406.25377,751.72782)"><g transform="translate(456.9842,612.6784)"><path id="path1660" d="M 0,0 -14.224,-72.533 H -1.609 L 12.582,0 Z" style="fill:#c6c7c9;fill-opacity:1;fill-rule:nonzero;stroke:none" /></g></g>
    <g transform="matrix(1,0,0,-1,-406.25377,751.72782)"><g transform="translate(456.9842,612.6784)"><path id="path1664" d="M 0,0 -14.224,-72.533 H -1.609 L 12.582,0 Z" style="fill:none;stroke:#000000;stroke-width:1.00300002;stroke-linecap:butt;stroke-linejoin:miter;stroke-miterlimit:4;stroke-dasharray:none;stroke-opacity:1" /></g></g>
    <g transform="matrix(1,0,0,-1,-406.25377,751.72782)"><g transform="translate(475.4727,609.8342)"><path id="path1668" d="m 0,0 h 36.978 l 2.845,-2.844 h 4.174 L 39.823,18.489 H -2.845 L -7.018,-2.844 h 4.173 z" style="fill:#c6c7c9;fill-opacity:1;fill-rule:nonzero;stroke:none" /></g></g>
    <g transform="matrix(1,0,0,-1,-406.25377,751.72782)"><g transform="translate(475.4727,609.8342)"><path id="path1672" d="m 0,0 h 36.978 l 2.845,-2.844 h 4.174 L 39.823,18.489 H -2.845 L -7.018,-2.844 h 4.173 z" style="fill:none;stroke:#000000;stroke-width:1.00300002;stroke-linecap:butt;stroke-linejoin:miter;stroke-miterlimit:4;stroke-dasharray:none;stroke-opacity:1" /></g></g>
    <g transform="matrix(1,0,0,-1,-406.25377,751.72782)"><g transform="translate(545.163,540.1453)"><path id="path1676" d="M 0,0 -14.224,72.533 H -26.807 L -12.615,0 Z" style="fill:#c6c7c9;fill-opacity:1;fill-rule:nonzero;stroke:none" /></g></g>
    <g transform="matrix(1,0,0,-1,-406.25377,751.72782)"><g transform="translate(545.163,540.1453)"><path id="path1680" d="M 0,0 -14.224,72.533 H -26.807 L -12.615,0 Z" style="fill:none;stroke:#000000;stroke-width:1.00300002;stroke-linecap:butt;stroke-linejoin:miter;stroke-miterlimit:4;stroke-dasharray:none;stroke-opacity:1" /></g></g>
    <g transform="matrix(1,0,0,-1,-406.25377,751.72782)"><g transform="translate(529.5173,661.0344)"><path id="path1684" d="M 0,0 -9.955,-31.289 H -61.156 L -71.111,0 -54.837,14.222 h 5.688 v 7.111 l 12.799,5.689 v 1.423 h 1.423 l 1.423,4.267 1.42,1.422 -1.42,1.421 1.42,4.267 h 5.69 l 1.423,-4.267 -1.423,-1.421 1.423,-1.422 1.423,-4.267 h 1.421 l 0.002,-7.112 h 1.421 v -7.111 h 4.266 z" style="fill:none;stroke:#000000;stroke-width:1.00300002;stroke-linecap:butt;stroke-linejoin:miter;stroke-miterlimit:4;stroke-dasharray:none;stroke-opacity:1" /></g></g>
    <g transform="matrix(1,0,0,-1,-406.25377,751.72782)"><g transform="translate(497.4337,682.3672)"><path id="path1688" d="M 0,0 H -4.267 V 7.11 H 0 Z" style="fill:none;stroke:#000000;stroke-width:1.00300002;stroke-linecap:butt;stroke-linejoin:miter;stroke-miterlimit:4;stroke-dasharray:none;stroke-opacity:1" /></g></g>
    <g transform="matrix(1,0,0,-1,-406.25377,751.72782)"><g transform="translate(507.39,682.3672)"><path id="path1692" d="M 0,0 H -4.267 V 7.11 H 0 Z" style="fill:none;stroke:#000000;stroke-width:1.00300002;stroke-linecap:butt;stroke-linejoin:miter;stroke-miterlimit:4;stroke-dasharray:none;stroke-opacity:1" /></g></g>
    <g transform="matrix(1,0,0,-1,-406.25377,751.72782)"><g transform="translate(502.4118,682.3672)"><path id="path1696" d="M 0,0 H -4.267 V 7.11 H 0 Z" style="fill:none;stroke:#000000;stroke-width:1.00300002;stroke-linecap:butt;stroke-linejoin:miter;stroke-miterlimit:4;stroke-dasharray:none;stroke-opacity:1" /></g></g>
    <g transform="matrix(1,0,0,-1,-406.25377,751.72782)"><g transform="translate(497.4342,695.1681)"><path id="path1700" d="M 0,0 H 5.69" style="fill:none;stroke:#000000;stroke-width:1.00300002;stroke-linecap:butt;stroke-linejoin:miter;stroke-miterlimit:4;stroke-dasharray:none;stroke-opacity:1" /></g></g>
    <g transform="matrix(1,0,0,-1,-406.25377,751.72782)"><g transform="translate(480.3695,682.3676)"><path id="path1704" d="M 0,0 H 12.798" style="fill:none;stroke:#000000;stroke-width:1.00300002;stroke-linecap:butt;stroke-linejoin:miter;stroke-miterlimit:4;stroke-dasharray:none;stroke-opacity:1" /></g></g>
    <g transform="matrix(1,0,0,-1,-406.25377,751.72782)"><g transform="translate(507.392,675.2568)"><path id="path1708" d="M 0,0 H -2.313 V 5.689 H 0 Z" style="fill:none;stroke:#000000;stroke-width:1.00300002;stroke-linecap:butt;stroke-linejoin:miter;stroke-miterlimit:4;stroke-dasharray:none;stroke-opacity:1" /></g></g>
    <g transform="matrix(1,0,0,-1,-406.25377,751.72782)"><g transform="translate(491.2132,675.2568)"><path id="path1712" d="M 0,0 H -2.313 V 5.689 H 0 Z" style="fill:none;stroke:#000000;stroke-width:1.00300002;stroke-linecap:butt;stroke-linejoin:miter;stroke-miterlimit:4;stroke-dasharray:none;stroke-opacity:1" /></g></g>
    <g transform="matrix(1,0,0,-1,-406.25377,751.72782)"><g transform="translate(505.08,675.2568)"><path id="path1716" d="M 0,0 H -2.313 V 5.689 H 0 Z" style="fill:none;stroke:#000000;stroke-width:1.00300002;stroke-linecap:butt;stroke-linejoin:miter;stroke-miterlimit:4;stroke-dasharray:none;stroke-opacity:1" /></g></g>
    <g transform="matrix(1,0,0,-1,-406.25377,751.72782)"><g transform="translate(502.769,675.2568)"><path id="path1720" d="M 0,0 H -2.311 V 5.689 H 0 Z" style="fill:none;stroke:#000000;stroke-width:1.00300002;stroke-linecap:butt;stroke-linejoin:miter;stroke-miterlimit:4;stroke-dasharray:none;stroke-opacity:1" /></g></g>
    <g transform="matrix(1,0,0,-1,-406.25377,751.72782)"><g transform="translate(500.4581,675.2568)"><path id="path1724" d="M 0,0 H -2.313 V 5.689 H 0 Z" style="fill:none;stroke:#000000;stroke-width:1.00300002;stroke-linecap:butt;stroke-linejoin:miter;stroke-miterlimit:4;stroke-dasharray:none;stroke-opacity:1" /></g></g>
    <g transform="matrix(1,0,0,-1,-406.25377,751.72782)"><g transform="translate(498.1471,675.2568)"><path id="path1728" d="M 0,0 H -2.313 V 5.689 H 0 Z" style="fill:none;stroke:#000000;stroke-width:1.00300002;stroke-linecap:butt;stroke-linejoin:miter;stroke-miterlimit:4;stroke-dasharray:none;stroke-opacity:1" /></g></g>
    <g transform="matrix(1,0,0,-1,-406.25377,751.72782)"><g transform="translate(495.8351,675.2568)"><path id="path1732" d="M 0,0 H -2.313 V 5.689 H 0 Z" style="fill:none;stroke:#000000;stroke-width:1.00300002;stroke-linecap:butt;stroke-linejoin:miter;stroke-miterlimit:4;stroke-dasharray:none;stroke-opacity:1" /></g></g>
    <g transform="matrix(1,0,0,-1,-406.25377,751.72782)"><g transform="translate(493.5242,675.2568)"><path id="path1736" d="M 0,0 H -2.311 V 5.689 H 0 Z" style="fill:none;stroke:#000000;stroke-width:1.00300002;stroke-linecap:butt;stroke-linejoin:miter;stroke-miterlimit:4;stroke-dasharray:none;stroke-opacity:1" /></g></g>
    <g transform="matrix(1,0,0,-1,-406.25377,751.72782)"><g transform="translate(486.0575,675.2568)"><path id="path1740" d="M 0,0 H -2.311 V 5.689 H 0 Z" style="fill:none;stroke:#000000;stroke-width:1.00300002;stroke-linecap:butt;stroke-linejoin:miter;stroke-miterlimit:4;stroke-dasharray:none;stroke-opacity:1" /></g></g>
    <g transform="matrix(1,0,0,-1,-406.25377,751.72782)"><g transform="translate(518.1392,631.1674)"><path id="path1744" d="m 0,0 h -48.355 l -4.266,14.222 H 4.267 Z" style="fill:#c6c7c9;fill-opacity:1;fill-rule:nonzero;stroke:none" /></g></g>
    <g transform="matrix(1,0,0,-1,-406.25377,751.72782)"><g transform="translate(518.1392,631.1674)"><path id="path1748" d="m 0,0 h -48.355 l -4.266,14.222 H 4.267 Z" style="fill:none;stroke:#000000;stroke-width:1.00300002;stroke-linecap:butt;stroke-linejoin:miter;stroke-miterlimit:4;stroke-dasharray:none;stroke-opacity:1" /></g></g>
    </g>
</svg>
