<?xml version="1.0" encoding="UTF-8"?>
<!-- Editable MekBay vee-noturret armor paperdoll. Pink dashed rectangles mark pip areas and are removed at runtime. -->
<svg xmlns="http://www.w3.org/2000/svg" viewBox="14.062 25.967 142.763 241.494" role="img" aria-label="vee-noturret armor paperdoll">
    <g id="paperdoll-art-armor">
    <g transform="matrix(1,0,0,-1,-402.67674,716.15846)"><g transform="translate(557.6664,472.0991)"><path id="path265" d="m 0,0 c 0,0 1.835,-18.813 -16.517,-22.942 l 0,2.294 -39.456,0 0,-2.753 -22.939,0 0,2.753 -39,0 0,-2.294 C -131.677,-22.942 -133.969,0 -133.969,0 l -2.754,99.56 11.93,110.572 5.505,4.588 8.26,-8.259 87.171,0 7.34,8.259 4.588,-4.13 L 1.835,99.1 0,0 Z" style="fill:#c7c8ca;fill-opacity:1;fill-rule:nonzero;stroke:none" /></g></g>
    <g transform="matrix(1,0,0,-1,-402.67674,716.15846)"><g transform="translate(553.4614,475.4717)"><path id="path282" d="m 0,0 c 0,0 1.835,-18.813 -16.517,-22.942 l 0,2.294 -39.456,0 0,-2.753 -22.939,0 0,2.753 -39,0 0,-2.294 C -131.677,-22.942 -133.969,0 -133.969,0 l -2.754,99.56 11.93,110.572 5.505,4.588 8.26,-8.259 87.171,0 7.34,8.259 4.588,-4.13 L 1.835,99.1 0,0 Z" style="fill:#ffffff;fill-opacity:1;fill-rule:nonzero;stroke:none" /></g></g>
    <g transform="matrix(1,0,0,-1,-402.67674,716.15846)"><g transform="translate(553.4614,475.4717)"><path id="path283" d="m 0,0 c 0,0 1.835,-18.813 -16.517,-22.942 l 0,2.294 -39.456,0 0,-2.753 -22.939,0 0,2.753 -39,0 0,-2.294 C -131.677,-22.942 -133.969,0 -133.969,0 l -2.754,99.56 11.93,110.572 5.505,4.588 8.26,-8.259 87.171,0 7.34,8.259 4.588,-4.13 L 1.835,99.1 0,0 Z" style="fill:none;stroke:#000000;stroke-width:1.449;stroke-linecap:butt;stroke-linejoin:miter;stroke-miterlimit:4;stroke-dasharray:none;stroke-opacity:1" /></g></g>
    <g transform="matrix(1,0,0,-1,-402.67674,716.15846)"><g transform="translate(441.0553,480.9763)"><path id="path285" d="m 0,0 90.843,0 0,11.011 L 0,11.011 0,0 Z" style="fill:none;stroke:#000000;stroke-width:0.96600002;stroke-linecap:butt;stroke-linejoin:miter;stroke-miterlimit:4;stroke-dasharray:none;stroke-opacity:1" /></g></g>
    <g transform="matrix(1,0,0,-1,-402.67674,716.15846)"><g transform="translate(462.1604,602.5604)"><path id="path286" d="m 0,0 -16.058,0 -15.6,-73.868 16.975,0" style="fill:#c7c8ca;fill-opacity:1;fill-rule:nonzero;stroke:#000000;stroke-width:0.96600002;stroke-linecap:butt;stroke-linejoin:miter;stroke-miterlimit:4;stroke-dasharray:none;stroke-opacity:1" /></g></g>
    <g transform="matrix(1,0,0,-1,-402.67674,716.15846)"><g transform="translate(509.8747,602.5604)"><path id="path287" d="m 0,0 15.599,0 16.976,-72.95 -18.352,0" style="fill:#c7c8ca;fill-opacity:1;fill-rule:nonzero;stroke:none" /></g></g>
    <g transform="matrix(1,0,0,-1,-402.67674,716.15846)"><g transform="translate(506.429,617.6999)"><path id="path288" d="M 0,0 35.099,67.903" style="fill:none;stroke:#000000;stroke-width:0.96600002;stroke-linecap:butt;stroke-linejoin:miter;stroke-miterlimit:4;stroke-dasharray:none;stroke-opacity:1" /></g></g>
    <g transform="matrix(1,0,0,-1,-402.67674,716.15846)"><g transform="translate(429.1204,685.6036)"><path id="path289" d="M 0,0 36.477,-67.903" style="fill:none;stroke:#000000;stroke-width:0.96600002;stroke-linecap:butt;stroke-linejoin:miter;stroke-miterlimit:4;stroke-dasharray:none;stroke-opacity:1" /></g></g>
    <g transform="matrix(1,0,0,-1,-402.67674,716.15846)"><g transform="translate(532.0237,491.9884)"><path id="path290" d="M 0,0 20.535,-23.576" style="fill:none;stroke:#000000;stroke-width:0.96600002;stroke-linecap:butt;stroke-linejoin:miter;stroke-miterlimit:4;stroke-dasharray:none;stroke-opacity:1" /></g></g>
    <g transform="matrix(1,0,0,-1,-402.67674,716.15846)"><g transform="translate(441.0509,491.528)"><path id="path291" d="M 0,0 -19.995,-22.082" style="fill:none;stroke:#000000;stroke-width:0.96600002;stroke-linecap:butt;stroke-linejoin:miter;stroke-miterlimit:4;stroke-dasharray:none;stroke-opacity:1" /></g></g>
    <g transform="matrix(1,0,0,-1,-402.67674,716.15846)"><g transform="translate(509.87,602.5604)"><path id="path292" d="m 0,0 15.599,0 16.976,-72.95 -18.352,0" style="fill:none;stroke:#000000;stroke-width:0.96600002;stroke-linecap:butt;stroke-linejoin:miter;stroke-miterlimit:4;stroke-dasharray:none;stroke-opacity:1" /></g></g>
    <g transform="matrix(1,0,0,-1,-402.67674,716.15846)"><g transform="translate(465.373,617.6999)"><path id="path293" d="m 0,0 -3.901,-20.416 4.358,0 2.065,2.982 37.163,0 1.606,-2.982 3.899,0 L 40.832,0 0,0 Z" style="fill:#c7c8ca;fill-opacity:1;fill-rule:nonzero;stroke:none" /></g></g>
    <g transform="matrix(1,0,0,-1,-402.67674,716.15846)"><g transform="translate(506.4337,617.4712)"><path id="path294" d="m 0,0 25.464,-125.483 -90.843,0 24.318,125.712 40.946,0 L 0,0 Z m 3.899,-20.188 -3.669,0 -1.605,2.983 -37.163,0 -2.066,-2.983 -4.358,0" style="fill:none;stroke:#000000;stroke-width:0.96600002;stroke-linecap:butt;stroke-linejoin:miter;stroke-miterlimit:4;stroke-dasharray:none;stroke-opacity:1" /></g></g>
    <g transform="matrix(1,0,0,-1,-402.67674,716.15846)"><path id="path284" d="m 441.055,480.976 90.843,0 0,11.011 -90.843,0 0,-11.011 z" style="fill:#c7c8ca;fill-opacity:1;fill-rule:nonzero;stroke:none" /></g>
    </g>
</svg>
