<svg _ngcontent-ng-c549363481="" viewBox="0 0 88 14" xmlns="http://www.w3.org/2000/svg"><g _ngcontent-ng-c549363481=""><path _ngcontent-ng-c549363481="" d="M 5.15,-10.3 6.68,0 H 3.94 L 3.81,-1.85 H 2.85 L 2.69,0 H -0.076 L 1.28,-10.3 Z m -1.42,6.63 q -0.2,-1.74 -0.4,-4.31 -0.41,2.95 -0.51,4.31 z m 7.37,-6.63 v 8.24 h 1.6 V 0 H 8.43 v -10.3 z m 3.6,0 h 2.7 q 1.1,0 1.6,0.2 0.6,0.17 0.9,0.49 0.3,0.32 0.4,0.79 0.1,0.45 0.1,1.42 v 0.89 q 0,0.99 -0.2,1.44 -0.2,0.45 -0.7,0.69 -0.6,0.24 -1.4,0.24 H 17.4 V 0 h -2.7 z m 2.7,1.78 v 2.62 q 0.1,0 0.1,0 0.4,0 0.6,-0.17 0.1,-0.19 0.1,-0.76 V -7.67 Q 18.2,-8.2 18,-8.36 17.9,-8.52 17.4,-8.52 Z M 28.6,-10.3 V 0 H 26 V -4.32 H 25.2 V 0 h -2.7 v -10.3 h 2.7 v 3.7 H 26 v -3.7 z m 7,0 1.6,10.3 h -2.8 l -0.1,-1.85 h -1 L 33.2,0 h -2.8 l 1.4,-10.3 z m -1.4,6.63 q -0.2,-1.74 -0.4,-4.31 -0.4,2.95 -0.5,4.31 z m 14,-3.5 h -2.5 v -0.76 q 0,-0.53 -0.1,-0.68 -0.1,-0.14 -0.3,-0.14 -0.3,0 -0.4,0.19 -0.1,0.2 -0.1,0.6 0,0.51 0.1,0.77 0.2,0.26 0.8,0.63 1.8,1.06 2.2,1.74 0.5,0.68 0.5,2.19 0,1.1 -0.3,1.62 -0.2,0.521 -1,0.877 -0.7,0.349 -1.7,0.349 -1,0 -1.8,-0.406 -0.8,-0.407 -1,-1.04 -0.2,-0.62 -0.2,-1.78 v -0.67 h 2.5 v 1.25 q 0,0.58 0.1,0.74 0.1,0.17 0.3,0.17 0.3,0 0.4,-0.21 0.2,-0.21 0.2,-0.62 0,-0.91 -0.3,-1.19 -0.2,-0.28 -1.2,-0.94 -1,-0.66 -1.4,-0.95 -0.3,-0.3 -0.5,-0.83 -0.2,-0.53 -0.2,-1.34 0,-1.19 0.3,-1.73 0.3,-0.55 1,-0.87 0.6,-0.3 1.6,-0.3 1,0 1.8,0.3 0.7,0.38 0.9,0.89 0.3,0.51 0.3,1.74 z m 7.7,-3.13 v 2.08 H 54.3 V 0 h -2.6 v -8.22 h -1.6 v -2.08 z m 1.9,0 h 1.9 q 1.9,0 2.6,0.2 0.7,0.12 1.1,0.72 0.4,0.59 0.4,1.91 0,1.2 -0.3,1.61 -0.3,0.41 -1.2,0.5 0.8,0.19 1.1,0.52 0.3,0.33 0.3,0.61 0.1,0.28 0.1,1.52 V 0 h -2.5 v -3.42 q 0,-0.82 -0.1,-1.02 -0.1,-0.19 -0.7,-0.19 V 0 h -2.7 z m 2.7,1.78 v 2.29 q 0.5,0 0.6,-0.12 0.2,-0.13 0.2,-0.81 v -0.57 q 0,-0.48 -0.2,-0.64 -0.1,-0.15 -0.6,-0.15 z m 8.3,-1.78 V 0 h -2.7 v -10.3 z m 8.7,0 L 76,-5.64 77.7,0 H 74.9 L 73.8,-4.41 V 0 h -2.6 v -10.3 h 2.6 v 4.02 L 75,-10.3 Z m 2,0 h 4.4 v 2.08 h -1.8 v 1.95 h 1.7 v 1.95 h -1.7 v 2.26 h 2 V 0 h -4.6 z" transform="translate(3, 12)" style="fill: none; stroke: #fff200; stroke-width: 0.8; stroke-miterlimit: 3.226;"></path><path _ngcontent-ng-c549363481="" d="M 5.15,-10.3 6.68,0 H 3.94 L 3.81,-1.85 H 2.85 L 2.69,0 H -0.076 L 1.28,-10.3 Z m -1.42,6.63 q -0.2,-1.74 -0.4,-4.31 -0.41,2.95 -0.51,4.31 z m 7.37,-6.63 v 8.24 h 1.6 V 0 H 8.43 v -10.3 z m 3.6,0 h 2.7 q 1.1,0 1.6,0.2 0.6,0.17 0.9,0.49 0.3,0.32 0.4,0.79 0.1,0.45 0.1,1.42 v 0.89 q 0,0.99 -0.2,1.44 -0.2,0.45 -0.7,0.69 -0.6,0.24 -1.4,0.24 H 17.4 V 0 h -2.7 z m 2.7,1.78 v 2.62 q 0.1,0 0.1,0 0.4,0 0.6,-0.17 0.1,-0.19 0.1,-0.76 V -7.67 Q 18.2,-8.2 18,-8.36 17.9,-8.52 17.4,-8.52 Z M 28.6,-10.3 V 0 H 26 V -4.32 H 25.2 V 0 h -2.7 v -10.3 h 2.7 v 3.7 H 26 v -3.7 z m 7,0 1.6,10.3 h -2.8 l -0.1,-1.85 h -1 L 33.2,0 h -2.8 l 1.4,-10.3 z m -1.4,6.63 q -0.2,-1.74 -0.4,-4.31 -0.4,2.95 -0.5,4.31 z m 14,-3.5 h -2.5 v -0.76 q 0,-0.53 -0.1,-0.68 -0.1,-0.14 -0.3,-0.14 -0.3,0 -0.4,0.19 -0.1,0.2 -0.1,0.6 0,0.51 0.1,0.77 0.2,0.26 0.8,0.63 1.8,1.06 2.2,1.74 0.5,0.68 0.5,2.19 0,1.1 -0.3,1.62 -0.2,0.521 -1,0.877 -0.7,0.349 -1.7,0.349 -1,0 -1.8,-0.406 -0.8,-0.407 -1,-1.04 -0.2,-0.62 -0.2,-1.78 v -0.67 h 2.5 v 1.25 q 0,0.58 0.1,0.74 0.1,0.17 0.3,0.17 0.3,0 0.4,-0.21 0.2,-0.21 0.2,-0.62 0,-0.91 -0.3,-1.19 -0.2,-0.28 -1.2,-0.94 -1,-0.66 -1.4,-0.95 -0.3,-0.3 -0.5,-0.83 -0.2,-0.53 -0.2,-1.34 0,-1.19 0.3,-1.73 0.3,-0.55 1,-0.87 0.6,-0.3 1.6,-0.3 1,0 1.8,0.3 0.7,0.38 0.9,0.89 0.3,0.51 0.3,1.74 z m 7.7,-3.13 v 2.08 H 54.3 V 0 h -2.6 v -8.22 h -1.6 v -2.08 z m 1.9,0 h 1.9 q 1.9,0 2.6,0.2 0.7,0.12 1.1,0.72 0.4,0.59 0.4,1.91 0,1.2 -0.3,1.61 -0.3,0.41 -1.2,0.5 0.8,0.19 1.1,0.52 0.3,0.33 0.3,0.61 0.1,0.28 0.1,1.52 V 0 h -2.5 v -3.42 q 0,-0.82 -0.1,-1.02 -0.1,-0.19 -0.7,-0.19 V 0 h -2.7 z m 2.7,1.78 v 2.29 q 0.5,0 0.6,-0.12 0.2,-0.13 0.2,-0.81 v -0.57 q 0,-0.48 -0.2,-0.64 -0.1,-0.15 -0.6,-0.15 z m 8.3,-1.78 V 0 h -2.7 v -10.3 z m 8.7,0 L 76,-5.64 77.7,0 H 74.9 L 73.8,-4.41 V 0 h -2.6 v -10.3 h 2.6 v 4.02 L 75,-10.3 Z m 2,0 h 4.4 v 2.08 h -1.8 v 1.95 h 1.7 v 1.95 h -1.7 v 2.26 h 2 V 0 h -4.6 z" transform="translate(3, 12)" style="fill: #d22027;"></path></g></svg>