<svg width="14.6" height="11.5" version="1.1" viewBox="0 0 14.6 11.5" xmlns="http://www.w3.org/2000/svg">
 <g transform="translate(-2.47,-1.1)">
  <path transform="translate(3,12)" d="m5.15-10.3 1.53 10.3h-2.74l-0.13-1.85h-0.96l-0.16 1.85h-2.766l1.356-10.3zm-1.42 6.63c-0.13-1.16-0.27-2.6-0.4-4.31-0.27 1.97-0.44 3.4-0.51 4.31zm9.77-3.5h-2.5v-0.76c0-0.35 0-0.58-0.1-0.68s-0.2-0.14-0.3-0.14c-0.2 0-0.3 0.1-0.4 0.19-0.1 0.13-0.1 0.33-0.1 0.6 0 0.34 0 0.6 0.1 0.77s0.4 0.38 0.8 0.63c1.2 0.71 1.9 1.29 2.2 1.74s0.5 1.18 0.5 2.19c0 0.73-0.1 1.27-0.3 1.62-0.1 0.347-0.5 0.64-1 0.877-0.5 0.233-1 0.349-1.7 0.349-0.73 0-1.33-0.135-1.83-0.406s-0.9-0.618-1-1.04c-0.1-0.41-0.2-1.01-0.2-1.78v-0.67h2.53v1.25c0 0.39 0 0.63 0.1 0.74s0.2 0.17 0.3 0.17c0.2 0 0.3-0.1 0.4-0.21 0.1-0.14 0.2-0.35 0.2-0.62 0-0.61-0.1-1-0.3-1.19-0.1-0.19-0.5-0.5-1.23-0.94-0.7-0.44-1.1-0.76-1.4-0.95-0.2-0.2-0.4-0.48-0.5-0.83s-0.2-0.8-0.2-1.34c0-0.79 0.1-1.37 0.3-1.73 0.2-0.37 0.5-0.66 1-0.87 0.4-0.2 0.9-0.3 1.63-0.3 0.7 0 1.3 0.1 1.8 0.3 0.5 0.25 0.8 0.55 0.9 0.89 0.2 0.34 0.3 0.92 0.3 1.74z" fill="none" stroke="#fff200" stroke-miterlimit="3.226" stroke-width=".8"/>
  <path transform="translate(3,12)" d="m5.15-10.3 1.53 10.3h-2.74l-0.13-1.85h-0.96l-0.16 1.85h-2.766l1.356-10.3zm-1.42 6.63c-0.13-1.16-0.27-2.6-0.4-4.31-0.27 1.97-0.44 3.4-0.51 4.31zm9.77-3.5h-2.5v-0.76c0-0.35 0-0.58-0.1-0.68s-0.2-0.14-0.3-0.14c-0.2 0-0.3 0.1-0.4 0.19-0.1 0.13-0.1 0.33-0.1 0.6 0 0.34 0 0.6 0.1 0.77s0.4 0.38 0.8 0.63c1.2 0.71 1.9 1.29 2.2 1.74s0.5 1.18 0.5 2.19c0 0.73-0.1 1.27-0.3 1.62-0.1 0.347-0.5 0.64-1 0.877-0.5 0.233-1 0.349-1.7 0.349-0.73 0-1.33-0.135-1.83-0.406s-0.9-0.618-1-1.04c-0.1-0.41-0.2-1.01-0.2-1.78v-0.67h2.53v1.25c0 0.39 0 0.63 0.1 0.74s0.2 0.17 0.3 0.17c0.2 0 0.3-0.1 0.4-0.21 0.1-0.14 0.2-0.35 0.2-0.62 0-0.61-0.1-1-0.3-1.19-0.1-0.19-0.5-0.5-1.23-0.94-0.7-0.44-1.1-0.76-1.4-0.95-0.2-0.2-0.4-0.48-0.5-0.83s-0.2-0.8-0.2-1.34c0-0.79 0.1-1.37 0.3-1.73 0.2-0.37 0.5-0.66 1-0.87 0.4-0.2 0.9-0.3 1.63-0.3 0.7 0 1.3 0.1 1.8 0.3 0.5 0.25 0.8 0.55 0.9 0.89 0.2 0.34 0.3 0.92 0.3 1.74z" fill="#d22027"/>
 </g>
</svg>
