<?xml version="1.0" encoding="UTF-8" standalone="no"?>
<svg
   fill="#fff"
   width="32"
   height="32"
   viewBox="0 0 76 76"
   xml:space="preserve"
   stroke-linejoin="round"
   xmlns="http://www.w3.org/2000/svg"
   xmlns:svg="http://www.w3.org/2000/svg">
	<path
   d="M 49,43.2 70.8,52 65.4,61.2 47,46.8 c -0.9,1 -1.9,1.9 -3,2.7 L 51.1,60 47.2,62.2 41.7,50.9 c -1.3,0.5 -2.5,1 -3.9,1.2 l 3.4,23.2 H 30.5 L 33.9,52.1 C 32.4,51.9 31.1,51.4 30,50.8 L 24.3,62.1 20.6,60 27.6,49.5 C 26.5,48.6 25.5,47.8 24.8,46.8 L 5.93,61.3 0.672,52.1 22.7,43.3 c -0.5,-1.3 -0.8,-2.5 -1,-4 L 9.15,40.2 v -4.4 l 12.55,0.8 c 0.2,-1.4 0.5,-2.7 1,-3.9 L 0.831,24 6.16,14.7 24.8,29.2 c 0.7,-1.1 1.7,-1.9 2.8,-2.7 L 20.7,16 24.4,13.7 30,25.1 c 1.1,-0.5 2.4,-0.9 3.8,-1.1 L 30.5,0.744 H 41.2 L 37.8,24 c 1.4,0.2 2.6,0.6 3.9,1.1 l 5.4,-11.5 3.9,2.3 -7,10.6 c 1.1,0.8 2.1,1.6 2.9,2.7 L 65.4,14.7 70.8,24 49,32.7 c 0.2,0.6 0.4,1.1 0.5,1.8 H 76 c 0,3.1 0,3.8 0,7 H 49.5 C 49.4,42 49.2,42.7 49,43.2 Z"
   id="path1"
   style="fill:#ffffff;stroke-width:1.77097" />
</svg>
