<?xml version="1.0" encoding="UTF-8" standalone="no"?>
<svg
   fill="#FFF"
   width="24px"
   height="24px"
   viewBox="0 0 51 51"
   version="1.1"
   xmlns="http://www.w3.org/2000/svg"
   xmlns:svg="http://www.w3.org/2000/svg">
  <path
     d="M 24.9,0 C 13.1,0.516 3.5,10.2 3.5,21.5 v 22.2 c 0,0.3 0.2,0.6 0.5,0.7 l 15.4,6.5 c 1.2,0.4 2.3,-0.3 2.3,-1.5 v -7.9 c 0,0 0,0 0,0 v -7.2 c 0,-0.4 -0.2,-1 -0.5,-1.4 l -7.9,-5 v 0 c -1.2,-0.6 -2.1,-2 -2,-3.4 0.3,-2.1 2.2,-3.5 4.3,-3.5 h 6.3 c 0.9,0 1.7,0.6 1.7,1.5 v 9.3 c 0,0 0,0.8 2.3,0.8 2.3,0 2.3,-0.8 2.3,-0.8 V 22.5 C 28.1,21.6 29,21 29.8,21 H 36 c 2.2,0 4,1.4 4.3,3.5 0.1,1.4 -0.8,2.8 -1.9,3.4 v 0 l -7.9,5 c -0.2,0.4 -0.6,1 -0.6,1.4 v 7.2 7.9 c 0,1.2 1,1.9 2.3,1.5 l 15.1,-6.5 c 0.2,-0.1 0.2,-0.3 0.2,-0.7 V 21 C 47.7,9.04 37.2,-0.568 24.9,0 Z" />
</svg>
