<svg 
 xmlns="http://www.w3.org/2000/svg"
 xmlns:xlink="http://www.w3.org/1999/xlink"
 width="1759px" height="229px">
<path fill-rule="evenodd"  fill="#000000"
 d="M1673.474,109.336 L1632.784,57.578 L1677.543,0.612 L1758.923,0.612 L1673.474,109.336 ZM1669.405,228.477 L1588.025,228.477 L1588.025,114.544 L1498.507,0.612 L1579.887,0.612 L1669.405,114.544 L1669.405,228.477 ZM1454.950,228.477 L1381.708,81.992 L1308.466,228.477 L1227.086,228.477 L1341.018,0.612 L1422.398,0.612 L1536.331,228.477 L1454.950,228.477 ZM1159.539,228.477 L1037.469,228.477 L1037.469,171.511 L1118.849,171.511 C1135.125,171.511 1143.263,167.442 1143.263,159.303 L1143.263,155.072 C1143.263,147.043 1135.125,143.027 1118.849,143.027 L1029.331,143.027 L1029.331,228.477 L947.950,228.477 L947.950,0.612 L1029.331,0.612 L1029.331,86.061 L1110.711,86.061 C1126.987,86.061 1135.125,81.992 1135.125,73.854 L1135.125,69.785 C1135.125,61.647 1126.987,57.578 1110.711,57.578 L1037.469,57.578 L1037.469,0.612 L1151.401,0.612 C1194.802,0.612 1216.505,19.602 1216.505,57.578 L1216.505,73.854 C1216.505,90.130 1208.367,100.982 1192.091,106.406 C1213.792,111.833 1224.643,128.109 1224.643,155.234 L1224.643,171.511 C1224.643,209.490 1202.940,228.477 1159.539,228.477 ZM769.845,143.027 L725.086,143.027 L725.086,228.477 L643.706,228.477 L643.706,0.612 L725.086,0.612 L725.086,86.061 L794.259,86.061 L822.742,114.544 L936.674,228.477 L855.294,228.477 L769.845,143.027 ZM798.328,81.992 L794.259,77.923 L777.983,77.923 L855.294,0.612 L936.674,0.612 L826.486,110.801 L798.328,81.992 ZM477.740,171.511 L632.363,171.511 L632.363,228.477 L477.740,228.477 L477.740,171.511 ZM477.740,0.612 L632.363,0.612 L632.363,57.578 L477.740,57.578 L477.740,0.612 ZM599.811,143.027 L469.602,143.027 L469.602,228.477 L388.222,228.477 L388.222,0.612 L469.602,0.612 L469.602,86.061 L599.811,86.061 L599.811,143.027 ZM293.899,98.268 L228.795,228.477 L147.415,228.477 L90.449,114.544 L90.449,0.612 L114.863,0.612 L188.105,147.096 L261.347,0.612 L375.280,0.612 L375.280,228.477 L293.899,228.477 L293.899,98.268 ZM0.931,0.612 L82.311,0.612 L82.311,228.477 L0.931,228.477 L0.931,0.612 Z"/>
</svg>