<?xml version="1.0" encoding="UTF-8" standalone="no"?>
<svg
   width="40px"
   height="40px"
   version="1.1"
   viewBox="0 0 16 14"
   id="svg2"
   sodipodi:docname="warning_fall2.svg"
   inkscape:version="1.4.2 (f4327f4, 2025-05-13)"
   xmlns:inkscape="http://www.inkscape.org/namespaces/inkscape"
   xmlns:sodipodi="http://sodipodi.sourceforge.net/DTD/sodipodi-0.dtd"
   xmlns="http://www.w3.org/2000/svg"
   xmlns:svg="http://www.w3.org/2000/svg">
  <defs
     id="defs2" />
  <sodipodi:namedview
     id="namedview2"
     pagecolor="#ffffff"
     bordercolor="#000000"
     borderopacity="0.25"
     inkscape:showpageshadow="2"
     inkscape:pageopacity="0.0"
     inkscape:pagecheckerboard="0"
     inkscape:deskcolor="#d1d1d1"
     inkscape:zoom="45.4"
     inkscape:cx="20"
     inkscape:cy="18"
     inkscape:window-width="3840"
     inkscape:window-height="2054"
     inkscape:window-x="-11"
     inkscape:window-y="-11"
     inkscape:window-maximized="1"
     inkscape:current-layer="svg2" />
  <path
     d="m15.8 12.2-6.97-11.758a1 1 0 0 0-1.66 0l-7.007 11.858c-0.38 0.6-0.07 1.7 0.68 1.7h14.357c0.7 0 1-1.1 0.6-1.8z"
     fill="#f00"
     id="path1" />
  <path
     d="m 10.8,11 c -0.6,-0.1 -1.11,0.1 -1.28,0.6 -0.16,0.4 0,1 0.47,1.2 0.61,0.1 1.11,0 1.31,-0.6 0.2,-0.5 0,-1 -0.5,-1.2 z M 3.61,8.15 5.82,9.38 6.02,9.44 6.31,9.38 7.96,8.56 8.12,10.8 c -0.69,0.5 -2.2,1.1 -2.41,1.3 -0.19,0.1 -0.26,0.4 -0.17,0.5 0.1,0.2 0.49,0.2 0.68,0.1 l 3.29,-1.6 c 0.1,0 0.17,-0.1 0.25,-0.2 l 1.54,-1.68 1.8,0.32 c 0.1,0 0.4,-0.1 0.4,-0.32 0,-0.25 -0.1,-0.44 -0.4,-0.5 L 11.3,8.35 c -0.2,0 -0.4,0.1 -0.5,0.22 L 9.99,9.3 9.77,7.24 C 9.77,7 9.52,6.67 9.36,6.58 L 7.71,5.93 7.63,4.05 C 7.63,3.85 7.39,3.55 7,3.54 6.62,3.53 6.39,3.92 6.39,4.17 l 0.17,2.25 c 0,0.16 0.16,0.33 0.33,0.41 L 7.88,7.24 6.15,8.15 4.18,7.08 C 3.79,6.94 3.51,7.05 3.36,7.34 3.2,7.62 3.36,7.98 3.61,8.15 Z"
     fill="#ffffff"
     stroke-width="0.080762"
     id="path2" />
</svg>
