<?xml version="1.0" encoding="UTF-8" standalone="no"?>
<!DOCTYPE svg PUBLIC "-//W3C//DTD SVG 1.1//EN" "http://www.w3.org/Graphics/SVG/1.1/DTD/svg11.dtd">
<svg width="100%" height="100%" viewBox="0 0 102 90" version="1.1" xmlns="http://www.w3.org/2000/svg" xmlns:xlink="http://www.w3.org/1999/xlink" xml:space="preserve" xmlns:serif="http://www.serif.com/" style="fill-rule:evenodd;clip-rule:evenodd;">
    <path id="path56103" d="M99.689,30.806L70.626,29.161L67.884,29.161L67.884,21.421L66.218,19.775L63.53,19.321C61.983,15.349 61.451,13.685 58.873,11.55L58.437,7.648L56.687,6.003L51.137,6.003L49.385,7.648L48.952,11.55C46.374,13.685 44.755,15.349 43.207,19.321L41.596,19.775L39.927,21.421L39.927,29.161L37.186,29.161L8.112,30.806L5.919,33.548L7.563,68.643L9.209,70.288C9.209,70.288 28.412,71.385 32.251,71.933C33.346,88.384 37.734,89.966 37.734,89.966L70.077,89.966C70.077,89.966 75.013,88.384 76.11,71.933C79.949,71.385 98.592,70.288 98.592,70.288L100.237,68.643L101.883,33.548L99.689,30.806Z" style="fill:rgb(199,199,199);fill-rule:nonzero;"/>
    <path id="paperdoll-art-armor-LT_R-armorLTR" d="M29.759,73.592L29.759,68.592C29.759,68.592 29.759,58.192 37.459,53.192L37.459,17.962L36.959,18.402L36.959,26.142L34.259,26.142L5.159,27.792L2.959,30.532L4.659,65.592L6.259,67.292C6.259,67.292 25.459,68.392 29.359,68.892C29.459,70.592 29.559,72.192 29.759,73.592Z" style="fill:white;fill-rule:nonzero;"/>
    <path id="paperdoll-art-armor-RT_R-armorRTR" d="M64.859,18.352L64.859,53.192C72.559,58.192 73.159,68.592 73.159,68.592L73.159,69.192L73.159,68.892C77.059,68.392 95.659,67.292 95.659,67.292L97.308,65.592L98.949,30.532L96.758,27.792L67.659,26.142L64.959,26.142L64.959,18.402L64.859,18.352Z" style="fill:white;fill-rule:nonzero;"/>
    <path id="paperdoll-art-armor-CT_R-armorCTR" d="M48.159,2.992L46.459,4.592L46.059,8.492C43.459,10.692 41.859,12.292 40.259,16.292L38.659,16.792L37.459,17.962L37.459,53.192C29.759,58.192 29.759,68.592 29.759,68.592L29.759,73.592C31.259,85.692 34.759,86.992 34.759,86.992L67.159,86.992C67.159,86.992 71.959,85.392 73.159,69.192L73.159,68.592C73.159,68.592 72.559,58.192 64.859,53.192L64.859,18.352L63.259,16.792L60.559,16.292C59.059,12.292 58.559,10.692 55.959,8.492L55.459,4.592L53.759,2.992L48.159,2.992Z" style="fill:white;fill-rule:nonzero;"/>
    <path id="path56621" d="M96.759,27.792L67.696,26.147L64.954,26.147L64.954,18.407L63.288,16.761L60.6,16.307C59.053,12.335 58.521,10.67 55.943,8.536L55.507,4.634L53.757,2.989L48.207,2.989L46.455,4.634L46.022,8.536C43.444,10.67 41.825,12.335 40.277,16.307L38.666,16.761L36.997,18.407L36.997,26.147L34.256,26.147L5.182,27.792L2.989,30.534L4.633,65.629L6.279,67.275C6.279,67.275 25.482,68.371 29.321,68.919C30.416,85.37 34.804,86.952 34.804,86.952L67.147,86.952C67.147,86.952 72.083,85.37 73.18,68.919C77.019,68.371 95.662,67.275 95.662,67.275L97.307,65.629L98.953,30.534L96.759,27.792Z" style="fill:none;fill-rule:nonzero;stroke:black;stroke-width:1.45px;"/>
    <path id="path56625" d="M64.955,26.147L64.955,53.565C72.631,58.501 73.181,68.919 73.181,68.919" style="fill:none;fill-rule:nonzero;stroke:black;stroke-width:1.45px;"/>
    <path id="path56629" d="M36.997,26.147L36.997,53.565C29.321,58.501 29.321,68.919 29.321,68.919" style="fill:none;fill-rule:nonzero;stroke:black;stroke-width:1.45px;"/>
    <rect id="placeholder-canon-armor-CT_R" x="39.236" y="21.009" width="23.161" height="61.991" style="fill:none;stroke:rgb(225,29,72);stroke-opacity:0.9;stroke-width:1.2px;stroke-dasharray:2.88,1.44;"/>
    <rect id="placeholder-canon-armor-LT_R" x="5.348" y="30.304" width="29.779" height="31.152" style="fill:none;stroke:rgb(225,29,72);stroke-opacity:0.9;stroke-width:1.2px;stroke-dasharray:2.88,1.44;"/>
    <rect id="placeholder-canon-armor-RT_R" x="67.02" y="30.304" width="29.54" height="31.152" style="fill:none;stroke:rgb(225,29,72);stroke-opacity:0.9;stroke-width:1.2px;stroke-dasharray:2.88,1.44;"/>
</svg>
