<?xml version="1.0" encoding="UTF-8" standalone="no"?><!DOCTYPE svg PUBLIC "-//W3C//DTD SVG 1.1//EN" "http://www.w3.org/Graphics/SVG/1.1/DTD/svg11.dtd"><svg width="100%" height="100%" viewBox="0 0 189 348" version="1.1" xmlns="http://www.w3.org/2000/svg" xmlns:xlink="http://www.w3.org/1999/xlink" xml:space="preserve" xmlns:serif="http://www.serif.com/" style="fill-rule:evenodd;clip-rule:evenodd;"><g id="paperdoll-art-armor"><g><g><g><g><path id="path773" d="M1.998,117.886C1.869,117.886 1.74,117.852 1.624,117.785C1.391,117.65 1.247,117.398 1.247,117.137L1.247,54.993L3.325,3.639C3.344,3.261 3.64,2.946 4.027,2.919L28.777,1.254C28.798,1.252 28.818,1.251 28.84,1.251C29.026,1.251 29.206,1.322 29.335,1.452C29.488,1.587 29.578,1.785 29.578,1.992L29.893,32.718L33.843,32.763C34.231,32.763 34.545,33.06 34.582,33.447L35.752,46.2C35.777,46.479 35.644,46.749 35.4,46.902L26.588,52.509L15.879,65.01L10.235,112.971C10.208,113.205 10.064,113.421 9.857,113.538L2.37,117.786C2.254,117.853 2.126,117.886 1.998,117.886" style="fill:rgb(199,199,199);fill-rule:nonzero;"/></g></g></g></g><g><g><g><g><path id="path749" d="M187.747,117.886C187.618,117.886 187.489,117.852 187.377,117.785L179.88,113.537L180.249,112.88L180.996,112.79L180.249,112.88L179.88,113.537C179.673,113.42 179.538,113.204 179.511,112.97L173.868,65.009L163.158,52.508L154.338,46.901C154.105,46.748 153.969,46.478 153.996,46.199L155.157,33.446C155.193,33.059 155.508,32.762 155.895,32.762L159.845,32.717L160.16,1.991C160.16,1.784 160.25,1.586 160.403,1.451C160.54,1.321 160.714,1.25 160.898,1.25C160.919,1.25 160.94,1.251 160.961,1.253L185.72,2.918C186.099,2.945 186.405,3.26 186.413,3.638L188.492,54.992L188.492,117.137C188.492,117.398 188.348,117.65 188.123,117.785C188.006,117.853 187.876,117.886 187.747,117.886" style="fill:rgb(199,199,199);fill-rule:nonzero;"/></g></g></g></g><g><g><g><g><path id="path56047" d="M24.869,165.735L24.553,169.349C24.608,168.704 24.875,168.131 25.271,167.684C24.962,167.095 24.809,166.429 24.869,165.735" style="fill:rgb(199,199,199);fill-rule:nonzero;"/></g></g></g></g><g><g><g><g><path id="path56051" d="M23.326,170.778L24.532,172.251C24.762,171.975 25.092,171.787 25.471,171.752L25.507,171.749C24.854,171.175 24.47,170.297 24.553,169.349L24.516,169.749C24.475,170.208 24.012,170.577 23.326,170.778" style="fill:rgb(199,199,199);fill-rule:nonzero;"/></g></g></g></g><g><g><g><g><path id="path56055" d="M33.651,160.803L31.088,152.978L18.195,151.85L13.983,162.883L16.733,163.123L16.056,170.868C16.016,171.299 16.146,171.745 16.457,172.104L20.934,177.272C21.553,177.985 22.647,178.08 23.38,177.485C23.519,177.373 23.627,177.24 23.72,177.101C23.958,177.19 24.217,177.236 24.49,177.213L27.947,176.929C28.902,176.851 29.605,176.036 29.519,175.111C29.483,174.727 29.312,174.389 29.062,174.125C29.501,173.852 29.782,173.345 29.734,172.787C29.698,172.34 29.459,171.967 29.121,171.736C29.65,171.27 30.011,170.601 30.079,169.833C30.08,169.812 30.08,169.792 30.081,169.771C31.736,169.396 33.014,168.102 33.156,166.46L33.487,162.688C33.543,162.049 33.419,161.43 33.155,160.875L33.651,160.803Z" style="fill:rgb(199,199,199);fill-rule:nonzero;"/></g></g></g></g><g><g><g><g><path id="path56063" d="M143.262,189.719L147.681,189.719L149.875,200.686L149.415,212.75L151.138,214.068L163.172,241.814L163.201,245.652L159.648,250.039L162.654,262.651L158.267,264.845L160.462,268.684L170.88,273.07L171.977,275.811L174.17,276.909L174.168,280.747L127.558,280.747L127.558,276.36L129.204,274.715L129.754,271.974L133.043,270.329L133.043,263.2L130.907,262.651L129.204,254.975L122.623,253.878L118.237,246.748L118.786,216.04L119.486,214.945L117.689,208.363L118.237,206.17L117.689,202.332L115.495,200.686L112.753,198.492L112.205,197.945L112.753,196.848L114.398,196.3L113.85,194.106L112.886,190.817L102.882,152.979L133.59,152.979L143.262,189.719Z" style="fill:rgb(199,199,199);fill-rule:nonzero;"/></g></g></g></g><g><g><g><g><path id="path56067" d="M47.697,189.719L43.279,189.719L41.085,200.686L41.543,212.75L39.821,214.068L27.786,241.814L27.757,245.652L31.31,250.039L28.305,262.651L32.693,264.845L30.497,268.684L20.079,273.07L18.981,275.811L16.789,276.909L16.79,280.747L63.4,280.747L63.4,276.36L61.755,274.715L61.206,271.974L57.916,270.329L57.916,263.2L60.052,262.651L61.755,254.975L68.335,253.878L72.722,246.748L72.174,216.04L71.473,214.945L73.269,208.363L72.722,206.17L73.269,202.332L75.464,200.686L78.206,198.492L78.754,197.945L78.206,196.848L76.56,196.3L77.108,194.106L78.073,190.817L88.077,152.979L57.369,152.979L47.697,189.719Z" style="fill:rgb(199,199,199);fill-rule:nonzero;"/></g></g></g></g><g><g><g><g><path id="path56071" d="M78.206,63.048L72.174,63.048L46.949,64.692L45.852,66.337L47.498,101.981L49.143,103.627C49.143,103.627 56.82,104.723 60.658,105.272C61.755,121.722 67.238,132.689 67.238,132.689L54.028,135.228L53.529,135.98L52.432,151.883L53.529,152.979L80.948,152.979L80.948,133.786L78.206,105.272L78.206,63.048Z" style="fill:rgb(199,199,199);fill-rule:nonzero;"/></g></g></g></g><g><g><g><g><path id="path56075" d="M112.752,63.048L118.785,63.048L144.009,64.692L145.106,66.337L143.461,101.981L141.816,103.627C141.816,103.627 134.138,104.723 130.301,105.272C129.203,121.722 123.719,132.689 123.719,132.689L136.93,135.228L137.428,135.98L138.525,151.883L137.428,152.979L110.011,152.979L110.011,133.786L112.752,105.272L112.752,63.048Z" style="fill:rgb(199,199,199);fill-rule:nonzero;"/></g></g></g></g><g><g><g><g><path id="path56079" d="M166.362,165.735L166.679,169.349C166.623,168.704 166.357,168.131 165.96,167.684C166.27,167.095 166.423,166.429 166.362,165.735" style="fill:rgb(199,199,199);fill-rule:nonzero;"/></g></g></g></g><g><g><g><g><path id="path56083" d="M167.906,170.778L166.698,172.251C166.47,171.975 166.138,171.787 165.761,171.752L165.723,171.749C166.377,171.175 166.761,170.297 166.678,169.349L166.715,169.749C166.756,170.208 167.219,170.577 167.906,170.778" style="fill:rgb(199,199,199);fill-rule:nonzero;"/></g></g></g></g><g><g><g><g><path id="path56087" d="M158.077,160.874C157.813,161.429 157.69,162.048 157.745,162.688L158.076,166.46C158.219,168.102 159.496,169.394 161.151,169.77C161.152,169.791 161.152,169.812 161.153,169.832C161.221,170.6 161.581,171.268 162.111,171.736C161.773,171.966 161.534,172.339 161.497,172.787C161.45,173.345 161.73,173.852 162.17,174.123C161.92,174.388 161.749,174.726 161.714,175.11C161.628,176.036 162.33,176.85 163.286,176.928L166.742,177.212C167.015,177.235 167.275,177.189 167.514,177.1C167.606,177.239 167.714,177.373 167.852,177.485C168.585,178.079 169.679,177.984 170.297,177.271L174.774,172.104C175.086,171.744 175.216,171.298 175.175,170.867L174.498,163.123L177.248,162.882L173.035,151.85L160.144,152.978L157.58,160.803L158.077,160.874Z" style="fill:rgb(199,199,199);fill-rule:nonzero;"/></g></g></g></g><g><g><g><g><path id="path56095" d="M78.206,63.048L78.206,105.272L80.948,133.786L80.948,152.43L82.593,167.237L84.786,169.43L106.173,169.43L108.366,167.237L110.011,152.43L110.011,133.786L112.753,105.272L112.753,63.048L78.206,63.048Z" style="fill:rgb(199,199,199);fill-rule:nonzero;"/></g></g></g></g><g><g><g><g><path id="path56099" d="M95.48,81.692C86.639,81.692 79.473,77.585 79.473,63.048L74.916,63.048L74.916,50.984L76.583,49.339L81.99,48.885C83.537,44.911 85.714,41.666 88.292,39.532L88.727,35.63L90.477,33.985L100.481,33.985L102.232,35.63L102.667,39.532C105.243,41.666 107.422,44.911 108.969,48.885L114.375,49.339L116.043,50.984L116.043,63.048L111.485,63.048C111.485,77.585 104.318,81.692 95.48,81.692" style="fill:rgb(199,199,199);fill-rule:nonzero;"/></g></g></g></g><g><g><g><g><path id="path56103" d="M141.596,288.668L112.533,287.023L109.791,287.023L109.791,279.283L108.125,277.637L105.437,277.183C103.89,273.211 103.358,271.547 100.78,269.412L100.344,265.51L98.594,263.865L93.044,263.865L91.292,265.51L90.859,269.412C88.281,271.547 86.662,273.211 85.114,277.183L83.503,277.637L81.834,279.283L81.834,287.023L79.093,287.023L50.019,288.668L47.826,291.41L49.47,326.505L51.116,328.15C51.116,328.15 70.319,329.247 74.158,329.795C75.253,346.246 79.641,347.828 79.641,347.828L111.984,347.828C111.984,347.828 116.92,346.246 118.017,329.795C121.856,329.247 140.499,328.15 140.499,328.15L142.144,326.505L143.79,291.41L141.596,288.668Z" style="fill:rgb(199,199,199);fill-rule:nonzero;"/></g></g></g></g><g><g><g><g><path id="path56091" d="M175.721,119.107L174.629,119.203L174.581,118.657L176.173,117.966L176.075,116.875L174.389,116.471L174.342,115.925L175.434,115.829L176.384,114.094L174.328,90.605L175.422,90.509L183.588,83.19L183.063,77.181L175.27,76.211L181.751,68.488L179.539,62.076L170.254,62.888L172.978,49.99L168.32,47.095L158.323,52.372L157.866,40.853L151.619,38.648L142.55,48.248L138.896,56.824L139.778,60.601L146.763,64.944L147.336,71.498L144.995,70.813L144.008,92.178L147.916,90.714L148.204,93.992L149.89,94.394L151.801,116.246L153.037,117.789L154.129,117.694L154.177,118.24L152.586,118.929L152.682,120.022L154.37,120.425L154.417,120.971L153.324,121.067L152.374,122.801L154.908,151.753L156.69,153.249L176.356,151.529L182.242,143.307L177.503,120.602L175.721,119.107Z" style="fill:rgb(199,199,199);fill-rule:nonzero;"/></g></g></g></g><g><g><g><g><path id="paperdoll-art-armor-RA-path56849" d="M172.983,116.71L171.89,116.806L171.843,116.26L173.435,115.569L173.337,114.478L171.651,114.074L171.604,113.528L172.696,113.432L173.645,111.698L171.59,88.208L172.684,88.113L180.85,80.793L180.325,74.784L172.532,73.814L179.013,66.091L176.801,59.679L167.516,60.491L170.24,47.593L165.582,44.698L155.585,49.975L155.128,38.456L148.881,36.251L139.812,45.851L136.158,54.428L137.04,58.204L144.025,62.547L144.598,69.101L142.256,68.416L141.27,89.78L145.178,88.317L145.466,91.595L147.152,91.997L149.063,113.849L150.299,115.392L151.391,115.297L151.439,115.843L149.848,116.532L149.944,117.625L151.631,118.028L151.679,118.574L150.586,118.67L149.636,120.404L152.17,149.356L153.952,150.852L173.618,149.132L179.504,140.91L174.765,118.205L172.983,116.71Z" style="fill:white;fill-rule:nonzero;"/></g></g></g></g><g><g><g><g><path id="path56853" d="M172.983,116.71L171.89,116.806L171.843,116.26L173.435,115.569L173.337,114.478L171.651,114.074L171.604,113.528L172.696,113.432L173.645,111.698L171.59,88.208L172.684,88.113L180.85,80.793L180.325,74.784L172.532,73.814L179.013,66.091L176.801,59.679L167.516,60.491L170.24,47.593L165.582,44.698L155.585,49.975L155.128,38.456L148.881,36.251L139.812,45.851L136.158,54.428L137.04,58.204L144.025,62.547L144.598,69.101L142.256,68.416L141.27,89.78L145.178,88.317L145.466,91.595L147.152,91.997L149.063,113.849L150.299,115.392L151.391,115.297L151.439,115.843L149.848,116.532L149.944,117.625L151.631,118.028L151.679,118.574L150.586,118.67L149.636,120.404L152.17,149.356L153.952,150.852L173.618,149.132L179.504,140.91L174.765,118.205L172.983,116.71Z" style="fill:none;fill-rule:nonzero;stroke:black;stroke-width:1.45px;"/></g></g></g></g><g><g><g><g><path id="path56059" d="M15.705,119.107L16.798,119.203L16.846,118.657L15.254,117.966L15.35,116.875L17.036,116.471L17.085,115.925L15.993,115.829L15.042,114.094L17.098,90.605L16.005,90.509L7.838,83.19L8.364,77.181L16.156,76.211L9.675,68.488L11.888,62.076L21.174,62.888L18.449,49.99L23.106,47.095L33.103,52.372L33.561,40.853L39.808,38.648L48.877,48.248L52.529,56.824L51.649,60.601L44.664,64.944L44.09,71.498L46.432,70.813L47.419,92.178L43.51,90.714L43.223,93.992L41.537,94.394L39.626,116.246L38.388,117.789L37.297,117.694L37.249,118.24L38.84,118.929L38.745,120.022L37.057,120.425L37.009,120.971L38.102,121.067L39.051,122.801L36.517,151.753L34.736,153.249L15.071,151.529L9.184,143.307L13.923,120.602L15.705,119.107Z" style="fill:rgb(199,199,199);fill-rule:nonzero;"/></g></g></g></g><g><g><g><g><path id="paperdoll-art-armor-LA-path56721" d="M12.966,116.71L14.059,116.806L14.107,116.26L12.515,115.569L12.611,114.478L14.297,114.074L14.346,113.528L13.254,113.432L12.304,111.698L14.359,88.208L13.266,88.113L5.099,80.793L5.625,74.784L13.417,73.814L6.936,66.091L9.149,59.679L18.435,60.491L15.71,47.593L20.367,44.698L30.364,49.975L30.822,38.456L37.069,36.251L46.138,45.851L49.79,54.428L48.91,58.204L41.926,62.547L41.351,69.101L43.693,68.416L44.68,89.78L40.771,88.317L40.484,91.595L38.798,91.997L36.887,113.849L35.649,115.392L34.558,115.297L34.51,115.843L36.101,116.532L36.006,117.625L34.319,118.028L34.27,118.574L35.363,118.67L36.312,120.404L33.778,149.356L31.997,150.852L12.332,149.132L6.445,140.91L11.184,118.205L12.966,116.71Z" style="fill:white;fill-rule:nonzero;"/></g></g></g></g><g><g><g><g><path id="path56725" d="M12.966,116.71L14.059,116.806L14.107,116.26L12.515,115.569L12.611,114.478L14.297,114.074L14.346,113.528L13.254,113.432L12.304,111.698L14.359,88.208L13.266,88.113L5.099,80.793L5.625,74.784L13.417,73.814L6.936,66.091L9.149,59.679L18.435,60.491L15.71,47.593L20.367,44.698L30.364,49.975L30.822,38.456L37.069,36.251L46.138,45.851L49.79,54.428L48.91,58.204L41.926,62.547L41.351,69.101L43.693,68.416L44.68,89.78L40.771,88.317L40.484,91.595L38.798,91.997L36.887,113.849L35.649,115.392L34.558,115.297L34.51,115.843L36.101,116.532L36.006,117.625L34.319,118.028L34.27,118.574L35.363,118.67L36.312,120.404L33.778,149.356L31.997,150.852L12.332,149.132L6.445,140.91L11.184,118.205L12.966,116.71Z" style="fill:none;fill-rule:nonzero;stroke:black;stroke-width:1.45px;"/></g></g></g></g><g><g><g><g><path id="paperdoll-art-armor-LT_R-armorLTR" d="M71.666,331.454L71.666,326.454C71.666,326.454 71.666,316.054 79.366,311.054L79.366,275.824L78.866,276.264L78.866,284.004L76.166,284.004L47.066,285.654L44.866,288.394L46.566,323.454L48.166,325.154C48.166,325.154 67.366,326.254 71.266,326.754C71.366,328.454 71.466,330.054 71.666,331.454Z" style="fill:white;fill-rule:nonzero;"/></g></g></g></g><g><g><g><g><path id="paperdoll-art-armor-RT_R-armorRTR" d="M106.766,276.214L106.766,311.054C114.466,316.054 115.066,326.454 115.066,326.454L115.066,327.054L115.066,326.754C118.966,326.254 137.566,325.154 137.566,325.154L139.215,323.454L140.856,288.394L138.665,285.654L109.566,284.004L106.866,284.004L106.866,276.264L106.766,276.214Z" style="fill:white;fill-rule:nonzero;"/></g></g></g></g><g><g><g><g><path id="paperdoll-art-armor-CT_R-armorCTR" d="M90.066,260.854L88.366,262.454L87.966,266.354C85.366,268.554 83.766,270.154 82.166,274.154L80.566,274.654L79.366,275.824L79.366,311.054C71.666,316.054 71.666,326.454 71.666,326.454L71.666,331.454C73.166,343.554 76.666,344.854 76.666,344.854L109.066,344.854C109.066,344.854 113.866,343.254 115.066,327.054L115.066,326.454C115.066,326.454 114.466,316.054 106.766,311.054L106.766,276.214L105.166,274.654L102.466,274.154C100.966,270.154 100.466,268.554 97.866,266.354L97.366,262.454L95.666,260.854L90.066,260.854Z" style="fill:white;fill-rule:nonzero;"/></g></g></g></g><g><g><g><g><path id="path56621" d="M138.666,285.654L109.603,284.009L106.861,284.009L106.861,276.269L105.195,274.623L102.507,274.169C100.96,270.197 100.428,268.532 97.85,266.398L97.414,262.496L95.664,260.851L90.114,260.851L88.362,262.496L87.929,266.398C85.351,268.532 83.732,270.197 82.184,274.169L80.573,274.623L78.904,276.269L78.904,284.009L76.163,284.009L47.089,285.654L44.896,288.396L46.54,323.491L48.186,325.137C48.186,325.137 67.389,326.233 71.228,326.781C72.323,343.232 76.711,344.814 76.711,344.814L109.054,344.814C109.054,344.814 113.99,343.232 115.087,326.781C118.926,326.233 137.569,325.137 137.569,325.137L139.214,323.491L140.86,288.396L138.666,285.654Z" style="fill:none;fill-rule:nonzero;stroke:black;stroke-width:1.45px;"/></g></g></g></g><g><g><g><g><path id="path56625" d="M106.862,284.009L106.862,311.427C114.538,316.363 115.088,326.781 115.088,326.781" style="fill:none;fill-rule:nonzero;stroke:black;stroke-width:1.45px;"/></g></g></g></g><g><g><g><g><path id="path56629" d="M78.904,284.009L78.904,311.427C71.228,316.363 71.228,326.781 71.228,326.781" style="fill:none;fill-rule:nonzero;stroke:black;stroke-width:1.45px;"/></g></g></g></g><g><g><g><g><path id="path56633" d="M22.13,163.338L21.814,166.952C21.869,166.307 22.136,165.734 22.532,165.288C22.223,164.698 22.07,164.032 22.13,163.338Z" style="fill:none;fill-rule:nonzero;stroke:black;stroke-width:1.45px;"/></g></g></g></g><g><g><g><g><path id="path56637" d="M20.588,168.382L21.794,169.855C22.024,169.579 22.354,169.391 22.733,169.356L22.769,169.353C22.116,168.779 21.732,167.901 21.815,166.953L21.778,167.353C21.737,167.812 21.274,168.181 20.588,168.382Z" style="fill:none;fill-rule:nonzero;stroke:black;stroke-width:1.45px;"/></g></g></g></g><g><g><g><g><path id="path56641" d="M30.912,158.406L28.349,150.581L15.456,149.453L11.244,160.486L13.994,160.726L13.317,168.471C13.277,168.902 13.407,169.348 13.718,169.707L18.195,174.875C18.814,175.588 19.908,175.683 20.641,175.088C20.78,174.976 20.888,174.843 20.981,174.704C21.219,174.793 21.478,174.839 21.751,174.816L25.208,174.532C26.163,174.454 26.866,173.639 26.78,172.714C26.744,172.33 26.573,171.992 26.323,171.728C26.762,171.455 27.043,170.948 26.995,170.39C26.959,169.943 26.72,169.57 26.382,169.339C26.911,168.872 27.272,168.203 27.34,167.436C27.341,167.415 27.341,167.395 27.342,167.374C28.997,166.999 30.275,165.705 30.417,164.063L30.748,160.291C30.804,159.651 30.68,159.033 30.416,158.478L30.912,158.406Z" style="fill:white;fill-rule:nonzero;"/></g></g></g></g><g><g><g><g><path id="path56645" d="M30.912,158.406L28.349,150.581L15.456,149.453L11.244,160.486L13.994,160.726L13.317,168.471C13.277,168.902 13.407,169.348 13.718,169.707L18.195,174.875C18.814,175.588 19.908,175.683 20.641,175.088C20.78,174.976 20.888,174.843 20.981,174.704C21.219,174.793 21.478,174.839 21.751,174.816L25.208,174.532C26.163,174.454 26.866,173.639 26.78,172.714C26.744,172.33 26.573,171.992 26.323,171.728C26.762,171.455 27.043,170.948 26.995,170.39C26.959,169.943 26.72,169.57 26.382,169.339C26.911,168.872 27.272,168.203 27.34,167.436C27.341,167.415 27.341,167.395 27.342,167.374C28.997,166.999 30.275,165.705 30.417,164.063L30.748,160.291C30.804,159.651 30.68,159.033 30.416,158.478L30.912,158.406Z" style="fill:none;fill-rule:nonzero;stroke:black;stroke-width:1.45px;"/></g></g></g></g><g><g><g><g><path id="path56649" d="M24.897,171.18C25.85,171.102 26.693,171.788 26.78,172.714C26.866,173.64 26.162,174.454 25.208,174.533L21.751,174.817C20.796,174.896 19.953,174.208 19.867,173.283C19.781,172.357 20.485,171.543 21.439,171.464L24.897,171.18Z" style="fill:white;fill-rule:nonzero;"/></g></g></g></g><g><g><g><g><path id="path56653" d="M24.897,171.18C25.85,171.102 26.693,171.788 26.78,172.714C26.866,173.64 26.162,174.454 25.208,174.533L21.751,174.817C20.796,174.896 19.953,174.208 19.867,173.283C19.781,172.357 20.485,171.543 21.439,171.464L24.897,171.18Z" style="fill:none;fill-rule:nonzero;stroke:black;stroke-width:1.45px;"/></g></g></g></g><g><g><g><g><path id="path56657" d="M20.849,172.72C21.466,173.433 21.374,174.493 20.641,175.088C19.908,175.683 18.814,175.588 18.195,174.875L13.718,169.707C13.1,168.994 13.193,167.933 13.926,167.338C14.659,166.743 15.754,166.839 16.372,167.551L20.849,172.72Z" style="fill:white;fill-rule:nonzero;"/></g></g></g></g><g><g><g><g><path id="path56661" d="M20.849,172.72C21.466,173.433 21.374,174.493 20.641,175.088C19.908,175.683 18.814,175.588 18.195,174.875L13.718,169.707C13.1,168.994 13.193,167.933 13.926,167.338C14.659,166.743 15.754,166.839 16.372,167.551L20.849,172.72Z" style="fill:none;fill-rule:nonzero;stroke:black;stroke-width:1.45px;"/></g></g></g></g><g><g><g><g><path id="path56665" d="M20.234,169.084C20.153,170.009 18.539,170.624 16.63,170.457C14.72,170.29 13.237,169.405 13.318,168.479L14.196,158.425C14.277,157.5 15.891,156.886 17.803,157.052C19.713,157.22 21.194,158.105 21.113,159.031L20.234,169.084Z" style="fill:white;fill-rule:nonzero;"/></g></g></g></g><g><g><g><g><path id="path56669" d="M20.234,169.084C20.153,170.009 18.539,170.624 16.63,170.457C14.72,170.29 13.237,169.405 13.318,168.479L14.196,158.425C14.277,157.5 15.891,156.886 17.803,157.052C19.713,157.22 21.194,158.105 21.113,159.031L20.234,169.084Z" style="fill:none;fill-rule:nonzero;stroke:black;stroke-width:1.45px;"/></g></g></g></g><g><g><g><g><path id="path56673" d="M25.497,169.103C26.26,169.033 26.93,169.609 26.996,170.391C27.062,171.171 26.496,171.862 25.733,171.931L22.968,172.184C22.206,172.254 21.534,171.678 21.469,170.898C21.404,170.116 21.97,169.427 22.734,169.356L25.497,169.103Z" style="fill:white;fill-rule:nonzero;"/></g></g></g></g><g><g><g><g><path id="path56677" d="M25.497,169.103C26.26,169.033 26.93,169.609 26.996,170.391C27.062,171.171 26.496,171.862 25.733,171.931L22.968,172.184C22.206,172.254 21.534,171.678 21.469,170.898C21.404,170.116 21.97,169.427 22.734,169.356L25.497,169.103Z" style="fill:none;fill-rule:nonzero;stroke:black;stroke-width:1.45px;"/></g></g></g></g><g><g><g><g><path id="path56681" d="M22.257,170.418C22.749,171.018 22.669,171.913 22.082,172.418C21.493,172.923 20.62,172.845 20.128,172.247L16.571,167.905C16.08,167.305 16.158,166.41 16.746,165.904C17.333,165.399 18.209,165.476 18.7,166.075L22.257,170.418Z" style="fill:white;fill-rule:nonzero;"/></g></g></g></g><g><g><g><g><path id="path56685" d="M22.257,170.418C22.749,171.018 22.669,171.913 22.082,172.418C21.493,172.923 20.62,172.845 20.128,172.247L16.571,167.905C16.08,167.305 16.158,166.41 16.746,165.904C17.333,165.399 18.209,165.476 18.7,166.075L22.257,170.418Z" style="fill:none;fill-rule:nonzero;stroke:black;stroke-width:1.45px;"/></g></g></g></g><g><g><g><g><path id="path56689" d="M21.779,167.353C21.712,168.133 20.419,168.659 18.895,168.525C17.368,168.391 16.186,167.651 16.254,166.87L16.997,158.384C17.064,157.603 18.357,157.077 19.883,157.211C21.408,157.344 22.59,158.086 22.523,158.867L21.779,167.353Z" style="fill:white;fill-rule:nonzero;"/></g></g></g></g><g><g><g><g><path id="path56693" d="M21.779,167.353C21.712,168.133 20.419,168.659 18.895,168.525C17.368,168.391 16.186,167.651 16.254,166.87L16.997,158.384C17.064,157.603 18.357,157.077 19.883,157.211C21.408,157.344 22.59,158.086 22.523,158.867L21.779,167.353Z" style="fill:none;fill-rule:nonzero;stroke:black;stroke-width:1.45px;"/></g></g></g></g><g><g><g><g><path id="path56697" d="M27.34,167.436C27.202,168.999 25.855,170.156 24.329,170.024C22.804,169.889 21.677,168.514 21.814,166.952C21.95,165.39 23.298,164.232 24.825,164.365C26.35,164.498 27.476,165.874 27.34,167.436" style="fill:white;fill-rule:nonzero;"/></g></g></g></g><g><g><g><g><path id="path56701" d="M27.34,167.436C27.202,168.999 25.855,170.156 24.329,170.024C22.804,169.889 21.677,168.514 21.814,166.952C21.95,165.39 23.298,164.232 24.825,164.365C26.35,164.498 27.476,165.874 27.34,167.436Z" style="fill:none;fill-rule:nonzero;stroke:black;stroke-width:1.45px;"/></g></g></g></g><g><g><g><g><path id="path56705" d="M30.418,164.064C30.235,166.146 28.233,167.674 25.945,167.473C23.655,167.273 21.948,165.421 22.13,163.339L22.461,159.568C22.642,157.485 24.645,155.958 26.934,156.158C29.223,156.359 30.929,158.21 30.748,160.292L30.418,164.064Z" style="fill:white;fill-rule:nonzero;"/></g></g></g></g><g><g><g><g><path id="path56709" d="M30.418,164.064C30.235,166.146 28.233,167.674 25.945,167.473C23.655,167.273 21.948,165.421 22.13,163.339L22.461,159.568C22.642,157.485 24.645,155.958 26.934,156.158C29.223,156.359 30.929,158.21 30.748,160.292L30.418,164.064Z" style="fill:none;fill-rule:nonzero;stroke:black;stroke-width:1.45px;"/></g></g></g></g><g><g><g><g><path id="path56713" d="M11.244,160.486L14.468,160.768L30.912,158.406L28.349,150.582L15.456,149.453L11.244,160.486Z" style="fill:white;fill-rule:nonzero;"/></g></g></g></g><g><g><g><g><path id="path56717" d="M11.244,160.486L14.468,160.768L30.912,158.406L28.349,150.582L15.456,149.453L11.244,160.486Z" style="fill:none;fill-rule:nonzero;stroke:black;stroke-width:1.45px;"/></g></g></g></g><g><g><g><g><path id="paperdoll-art-armor-RL-armorRL" d="M140.523,187.322L144.942,187.322L147.136,198.29L146.676,210.353L148.399,211.671L160.433,239.417L160.462,243.255L156.909,247.642L159.915,260.254L155.528,262.447L157.723,266.287L168.141,270.673L169.238,273.414L171.431,274.512L171.429,278.35L124.819,278.35L124.819,273.963L126.465,272.318L127.015,269.577L130.304,267.932L130.304,260.803L128.168,260.254L126.465,252.578L119.884,251.481L115.498,244.352L116.047,213.644L116.747,212.548L114.95,205.966L115.498,203.773L114.95,199.935L112.756,198.29L110.014,196.096L109.466,195.548L110.014,194.451L111.659,193.903L111.111,191.709L110.147,188.42L100.143,150.582L130.851,150.582L140.523,187.322Z" style="fill:white;fill-rule:nonzero;"/></g></g></g></g><g><g><g><g><path id="path56733" d="M140.523,187.322L144.942,187.322L147.136,198.29L146.676,210.353L148.399,211.671L160.433,239.417L160.462,243.255L156.909,247.642L159.915,260.254L155.528,262.447L157.723,266.287L168.141,270.673L169.238,273.414L171.431,274.512L171.429,278.35L124.819,278.35L124.819,273.963L126.465,272.318L127.015,269.577L130.304,267.932L130.304,260.803L128.168,260.254L126.465,252.578L119.884,251.481L115.498,244.352L116.047,213.644L116.747,212.548L114.95,205.966L115.498,203.773L114.95,199.935L112.756,198.29L110.014,196.096L109.466,195.548L110.014,194.451L111.659,193.903L111.111,191.709L110.147,188.42L100.143,150.582L130.851,150.582L140.523,187.322Z" style="fill:none;fill-rule:nonzero;stroke:black;stroke-width:1.45px;"/></g></g></g></g><g><g><g><g><path id="paperdoll-art-armor-LL-armorLL" d="M44.959,187.322L40.541,187.322L38.347,198.29L38.805,210.353L37.083,211.671L25.048,239.417L25.019,243.255L28.572,247.642L25.567,260.254L29.955,262.447L27.759,266.287L17.341,270.673L16.243,273.414L14.051,274.512L14.052,278.35L60.662,278.35L60.662,273.963L59.017,272.318L58.468,269.577L55.178,267.932L55.178,260.803L57.314,260.254L59.017,252.578L65.597,251.481L69.984,244.352L69.436,213.644L68.735,212.548L70.532,205.966L69.984,203.773L70.532,199.935L72.726,198.29L75.468,196.096L76.016,195.548L75.468,194.451L73.822,193.903L74.37,191.709L75.335,188.42L85.339,150.582L54.631,150.582L44.959,187.322Z" style="fill:white;fill-rule:nonzero;"/></g></g></g></g><g><g><g><g><path id="path56741" d="M44.959,187.322L40.541,187.322L38.347,198.29L38.805,210.353L37.083,211.671L25.048,239.417L25.019,243.255L28.572,247.642L25.567,260.254L29.955,262.447L27.759,266.287L17.341,270.673L16.243,273.414L14.051,274.512L14.052,278.35L60.662,278.35L60.662,273.963L59.017,272.318L58.468,269.577L55.178,267.932L55.178,260.803L57.314,260.254L59.017,252.578L65.597,251.481L69.984,244.352L69.436,213.644L68.735,212.548L70.532,205.966L69.984,203.773L70.532,199.935L72.726,198.29L75.468,196.096L76.016,195.548L75.468,194.451L73.822,193.903L74.37,191.709L75.335,188.42L85.339,150.582L54.631,150.582L44.959,187.322Z" style="fill:none;fill-rule:nonzero;stroke:black;stroke-width:1.45px;"/></g></g></g></g><g><g><g><g><path id="paperdoll-art-armor-LT-armorLT" d="M75.468,60.652L69.436,60.652L44.211,62.296L43.114,63.941L44.76,99.585L46.405,101.231C46.405,101.231 54.082,102.327 57.92,102.876C59.017,119.326 64.5,130.293 64.5,130.293L51.29,132.832L50.791,133.584L49.694,149.487L50.791,150.583L78.21,150.583L78.21,131.39L75.468,102.876L75.468,60.652Z" style="fill:white;fill-rule:nonzero;"/></g></g></g></g><g><g><g><g><path id="path56749" d="M75.468,60.652L69.436,60.652L44.211,62.296L43.114,63.941L44.76,99.585L46.405,101.231C46.405,101.231 54.082,102.327 57.92,102.876C59.017,119.326 64.5,130.293 64.5,130.293L51.29,132.832L50.791,133.584L49.694,149.487L50.791,150.583L78.21,150.583L78.21,131.39L75.468,102.876L75.468,60.652Z" style="fill:none;fill-rule:nonzero;stroke:black;stroke-width:1.45px;"/></g></g></g></g><g><g><g><g><path id="paperdoll-art-armor-RT-armorRT" d="M110.014,60.652L116.047,60.652L141.271,62.296L142.368,63.941L140.723,99.585L139.078,101.231C139.078,101.231 131.4,102.327 127.563,102.876C126.465,119.326 120.981,130.293 120.981,130.293L134.192,132.832L134.69,133.584L135.787,149.487L134.69,150.583L107.273,150.583L107.273,131.39L110.014,102.876L110.014,60.652Z" style="fill:white;fill-rule:nonzero;"/></g></g></g></g><g><g><g><g><path id="path56757" d="M110.014,60.652L116.047,60.652L141.271,62.296L142.368,63.941L140.723,99.585L139.078,101.231C139.078,101.231 131.4,102.327 127.563,102.876C126.465,119.326 120.981,130.293 120.981,130.293L134.192,132.832L134.69,133.584L135.787,149.487L134.69,150.583L107.273,150.583L107.273,131.39L110.014,102.876L110.014,60.652Z" style="fill:none;fill-rule:nonzero;stroke:black;stroke-width:1.45px;"/></g></g></g></g><g><g><g><g><path id="path56761" d="M163.624,163.338L163.941,166.952C163.884,166.307 163.619,165.734 163.222,165.288C163.532,164.698 163.685,164.032 163.624,163.338Z" style="fill:none;fill-rule:nonzero;stroke:black;stroke-width:1.45px;"/></g></g></g></g><g><g><g><g><path id="path56765" d="M165.168,168.382L163.96,169.855C163.732,169.579 163.4,169.391 163.023,169.356L162.985,169.353C163.639,168.779 164.023,167.901 163.94,166.953L163.977,167.353C164.018,167.812 164.481,168.181 165.168,168.382Z" style="fill:none;fill-rule:nonzero;stroke:black;stroke-width:1.45px;"/></g></g></g></g><g><g><g><g><path id="path56769" d="M155.339,158.478C155.074,159.033 154.952,159.652 155.007,160.292L155.338,164.064C155.48,165.706 156.758,166.998 158.413,167.374C158.414,167.395 158.414,167.416 158.414,167.436C158.483,168.204 158.843,168.872 159.373,169.34C159.036,169.57 158.796,169.943 158.759,170.39C158.712,170.949 158.992,171.456 159.432,171.727C159.181,171.992 159.011,172.33 158.976,172.714C158.89,173.64 159.592,174.453 160.547,174.532L164.004,174.816C164.277,174.839 164.536,174.793 164.775,174.704C164.868,174.843 164.975,174.977 165.114,175.089C165.847,175.683 166.941,175.588 167.559,174.875L172.036,169.708C172.348,169.348 172.478,168.901 172.438,168.471L171.76,160.727L174.51,160.486L170.297,149.454L157.406,150.582L154.842,158.407L155.339,158.478Z" style="fill:white;fill-rule:nonzero;"/></g></g></g></g><g><g><g><g><path id="path56773" d="M155.339,158.478C155.074,159.033 154.952,159.652 155.007,160.292L155.338,164.064C155.48,165.706 156.758,166.998 158.413,167.374C158.414,167.395 158.414,167.416 158.414,167.436C158.483,168.204 158.843,168.872 159.373,169.34C159.036,169.57 158.796,169.943 158.759,170.39C158.712,170.949 158.992,171.456 159.432,171.727C159.181,171.992 159.011,172.33 158.976,172.714C158.89,173.64 159.592,174.453 160.547,174.532L164.004,174.816C164.277,174.839 164.536,174.793 164.775,174.704C164.868,174.843 164.975,174.977 165.114,175.089C165.847,175.683 166.941,175.588 167.559,174.875L172.036,169.708C172.348,169.348 172.478,168.901 172.438,168.471L171.76,160.727L174.51,160.486L170.297,149.454L157.406,150.582L154.842,158.407L155.339,158.478Z" style="fill:none;fill-rule:nonzero;stroke:black;stroke-width:1.45px;"/></g></g></g></g><g><g><g><g><path id="path56777" d="M160.859,171.18C159.906,171.102 159.061,171.788 158.975,172.714C158.89,173.64 159.592,174.454 160.548,174.533L164.004,174.817C164.959,174.896 165.803,174.208 165.888,173.283C165.974,172.357 165.269,171.543 164.317,171.464L160.859,171.18Z" style="fill:white;fill-rule:nonzero;"/></g></g></g></g><g><g><g><g><path id="path56781" d="M160.859,171.18C159.906,171.102 159.061,171.788 158.975,172.714C158.89,173.64 159.592,174.454 160.548,174.533L164.004,174.817C164.959,174.896 165.803,174.208 165.888,173.283C165.974,172.357 165.269,171.543 164.317,171.464L160.859,171.18Z" style="fill:none;fill-rule:nonzero;stroke:black;stroke-width:1.45px;"/></g></g></g></g><g><g><g><g><path id="path56785" d="M164.906,172.72C164.289,173.433 164.381,174.493 165.115,175.088C165.848,175.683 166.941,175.588 167.559,174.875L172.036,169.707C172.655,168.994 172.563,167.933 171.83,167.338C171.096,166.743 170.001,166.839 169.383,167.551L164.906,172.72Z" style="fill:white;fill-rule:nonzero;"/></g></g></g></g><g><g><g><g><path id="path56789" d="M164.906,172.72C164.289,173.433 164.381,174.493 165.115,175.088C165.848,175.683 166.941,175.588 167.559,174.875L172.036,169.707C172.655,168.994 172.563,167.933 171.83,167.338C171.096,166.743 170.001,166.839 169.383,167.551L164.906,172.72Z" style="fill:none;fill-rule:nonzero;stroke:black;stroke-width:1.45px;"/></g></g></g></g><g><g><g><g><path id="path56793" d="M165.521,169.084C165.603,170.009 167.217,170.624 169.127,170.457C171.037,170.29 172.52,169.405 172.438,168.479L171.559,158.425C171.478,157.5 169.865,156.886 167.953,157.052C166.043,157.22 164.562,158.105 164.643,159.031L165.521,169.084Z" style="fill:white;fill-rule:nonzero;"/></g></g></g></g><g><g><g><g><path id="path56797" d="M165.521,169.084C165.603,170.009 167.217,170.624 169.127,170.457C171.037,170.29 172.52,169.405 172.438,168.479L171.559,158.425C171.478,157.5 169.865,156.886 167.953,157.052C166.043,157.22 164.562,158.105 164.643,159.031L165.521,169.084Z" style="fill:none;fill-rule:nonzero;stroke:black;stroke-width:1.45px;"/></g></g></g></g><g><g><g><g><path id="path56801" d="M160.259,169.103C159.495,169.033 158.824,169.609 158.759,170.391C158.693,171.171 159.258,171.862 160.022,171.931L162.787,172.184C163.548,172.254 164.221,171.678 164.286,170.898C164.351,170.116 163.785,169.427 163.022,169.356L160.259,169.103Z" style="fill:white;fill-rule:nonzero;"/></g></g></g></g><g><g><g><g><path id="path56805" d="M160.259,169.103C159.495,169.033 158.824,169.609 158.759,170.391C158.693,171.171 159.258,171.862 160.022,171.931L162.787,172.184C163.548,172.254 164.221,171.678 164.286,170.898C164.351,170.116 163.785,169.427 163.022,169.356L160.259,169.103Z" style="fill:none;fill-rule:nonzero;stroke:black;stroke-width:1.45px;"/></g></g></g></g><g><g><g><g><path id="path56809" d="M163.499,170.418C163.007,171.018 163.086,171.913 163.674,172.418C164.261,172.923 165.135,172.845 165.627,172.247L169.184,167.905C169.675,167.305 169.597,166.41 169.009,165.904C168.422,165.399 167.547,165.476 167.055,166.075L163.499,170.418Z" style="fill:white;fill-rule:nonzero;"/></g></g></g></g><g><g><g><g><path id="path56813" d="M163.499,170.418C163.007,171.018 163.086,171.913 163.674,172.418C164.261,172.923 165.135,172.845 165.627,172.247L169.184,167.905C169.675,167.305 169.597,166.41 169.009,165.904C168.422,165.399 167.547,165.476 167.055,166.075L163.499,170.418Z" style="fill:none;fill-rule:nonzero;stroke:black;stroke-width:1.45px;"/></g></g></g></g><g><g><g><g><path id="path56817" d="M163.977,167.353C164.045,168.133 165.338,168.659 166.862,168.525C168.388,168.391 169.57,167.651 169.503,166.87L168.759,158.384C168.691,157.603 167.398,157.077 165.873,157.211C164.348,157.344 163.166,158.086 163.234,158.867L163.977,167.353Z" style="fill:white;fill-rule:nonzero;"/></g></g></g></g><g><g><g><g><path id="path56821" d="M163.977,167.353C164.045,168.133 165.338,168.659 166.862,168.525C168.388,168.391 169.57,167.651 169.503,166.87L168.759,158.384C168.691,157.603 167.398,157.077 165.873,157.211C164.348,157.344 163.166,158.086 163.234,158.867L163.977,167.353Z" style="fill:none;fill-rule:nonzero;stroke:black;stroke-width:1.45px;"/></g></g></g></g><g><g><g><g><path id="path56825" d="M158.415,167.436C158.553,168.999 159.9,170.156 161.427,170.024C162.952,169.889 164.078,168.514 163.941,166.952C163.804,165.39 162.457,164.232 160.931,164.365C159.404,164.498 158.278,165.874 158.415,167.436" style="fill:white;fill-rule:nonzero;"/></g></g></g></g><g><g><g><g><path id="path56829" d="M158.415,167.436C158.553,168.999 159.9,170.156 161.427,170.024C162.952,169.889 164.078,168.514 163.941,166.952C163.804,165.39 162.457,164.232 160.931,164.365C159.404,164.498 158.278,165.874 158.415,167.436Z" style="fill:none;fill-rule:nonzero;stroke:black;stroke-width:1.45px;"/></g></g></g></g><g><g><g><g><path id="path56833" d="M155.338,164.064C155.52,166.146 157.522,167.674 159.812,167.473C162.099,167.273 163.807,165.421 163.624,163.339L163.294,159.568C163.113,157.485 161.11,155.958 158.821,156.158C156.532,156.359 154.825,158.21 155.007,160.292L155.338,164.064Z" style="fill:white;fill-rule:nonzero;"/></g></g></g></g><g><g><g><g><path id="path56837" d="M155.338,164.064C155.52,166.146 157.522,167.674 159.812,167.473C162.099,167.273 163.807,165.421 163.624,163.339L163.294,159.568C163.113,157.485 161.11,155.958 158.821,156.158C156.532,156.359 154.825,158.21 155.007,160.292L155.338,164.064Z" style="fill:none;fill-rule:nonzero;stroke:black;stroke-width:1.45px;"/></g></g></g></g><g><g><g><g><path id="path56841" d="M174.51,160.486L171.288,160.768L154.843,158.406L157.406,150.582L170.298,149.453L174.51,160.486Z" style="fill:white;fill-rule:nonzero;"/></g></g></g></g><g><g><g><g><path id="path56845" d="M174.51,160.486L171.288,160.768L154.843,158.406L157.406,150.582L170.298,149.453L174.51,160.486Z" style="fill:none;fill-rule:nonzero;stroke:black;stroke-width:1.45px;"/></g></g></g></g><g><g><g><g><path id="paperdoll-art-armor-CT-armorCT" d="M75.468,60.652L75.468,102.876L78.21,131.39L78.21,150.034L79.855,164.841L82.048,167.034L103.435,167.034L105.628,164.841L107.273,150.034L107.273,131.39L110.015,102.876L110.015,60.652L75.468,60.652Z" style="fill:white;fill-rule:nonzero;"/></g></g></g></g><g><g><g><g><path id="path56861" d="M75.468,60.652L75.468,102.876L78.21,131.39L78.21,150.034L79.855,164.841L82.048,167.034L103.435,167.034L105.628,164.841L107.273,150.034L107.273,131.39L110.015,102.876L110.015,60.652L75.468,60.652Z" style="fill:none;fill-rule:nonzero;stroke:black;stroke-width:1.45px;"/></g></g></g></g><g><g><g><g><path id="paperdoll-art-armor-HD-armorHD" d="M92.742,79.295C83.901,79.295 76.735,75.188 76.735,60.651L72.178,60.651L72.178,48.587L73.845,46.942L79.252,46.488C80.799,42.514 82.976,39.269 85.554,37.135L85.989,33.233L87.739,31.588L97.743,31.588L99.494,33.233L99.929,37.135C102.505,39.269 104.684,42.514 106.231,46.488L111.637,46.942L113.305,48.587L113.305,60.651L108.747,60.651C108.747,75.188 101.58,79.295 92.742,79.295" style="fill:white;fill-rule:nonzero;"/></g></g></g></g><g><g><g><g><path id="path56869" d="M92.742,79.295C83.901,79.295 76.735,75.188 76.735,60.651L72.178,60.651L72.178,48.587L73.845,46.942L79.252,46.488C80.799,42.514 82.976,39.269 85.554,37.135L85.989,33.233L87.739,31.588L97.743,31.588L99.494,33.233L99.929,37.135C102.505,39.269 104.684,42.514 106.231,46.488L111.637,46.942L113.305,48.587L113.305,60.651L108.747,60.651C108.747,75.188 101.58,79.295 92.742,79.295Z" style="fill:none;fill-rule:nonzero;stroke:black;stroke-width:1.45px;"/></g></g></g></g><g><g><g><g><path id="path56873" d="M104.639,68.137C105.947,65.12 106.723,61.458 106.723,57.322C106.723,54.143 106.259,51.13 105.453,48.416C104.54,48.091 103.6,47.805 102.637,47.553C103.884,53.402 104.621,60.489 104.639,68.137" style="fill:rgb(199,199,199);fill-rule:nonzero;"/></g></g></g></g><g><g><g><g><path id="path56877" d="M104.639,68.137C105.947,65.12 106.723,61.458 106.723,57.322C106.723,54.143 106.259,51.13 105.453,48.416C104.54,48.091 103.6,47.805 102.637,47.553C103.884,53.402 104.621,60.489 104.639,68.137Z" style="fill:none;fill-rule:nonzero;stroke:rgb(199,199,199);stroke-width:0.97px;"/></g></g></g></g><g><g><g><g><path id="path56881" d="M80.843,68.144C80.859,60.493 81.598,53.403 82.845,47.552C81.882,47.804 80.94,48.09 80.028,48.415C79.221,51.13 78.758,54.142 78.758,57.321C78.758,61.46 79.535,65.126 80.843,68.144" style="fill:rgb(199,199,199);fill-rule:nonzero;"/></g></g></g></g><g><g><g><g><path id="path56885" d="M80.843,68.144C80.859,60.493 81.598,53.403 82.845,47.552C81.882,47.804 80.94,48.09 80.028,48.415C79.221,51.13 78.758,54.142 78.758,57.321C78.758,61.46 79.535,65.126 80.843,68.144Z" style="fill:none;fill-rule:nonzero;stroke:rgb(199,199,199);stroke-width:0.97px;"/></g></g></g></g><g><g><g><g><path id="path56889" d="M99.967,44.723C99.032,41.825 97.866,41.138 96.548,39.589C95.328,39.066 94.048,38.78 92.743,38.78C91.44,38.78 90.16,39.066 88.942,39.589C87.623,41.138 86.456,41.825 85.52,44.723C87.826,44.361 90.245,44.165 92.743,44.165C95.243,44.165 97.662,44.361 99.967,44.723" style="fill:rgb(199,199,199);fill-rule:nonzero;"/></g></g></g></g><g><g><g><g><path id="path56893" d="M99.967,44.723C99.032,41.825 97.866,41.138 96.548,39.589C95.328,39.066 94.048,38.78 92.743,38.78C91.44,38.78 90.16,39.066 88.942,39.589C87.623,41.138 86.456,41.825 85.52,44.723C87.826,44.361 90.245,44.165 92.743,44.165C95.243,44.165 97.662,44.361 99.967,44.723Z" style="fill:none;fill-rule:nonzero;stroke:rgb(199,199,199);stroke-width:0.97px;"/></g></g></g></g><g><g><g><g><path id="path56901" d="M83.144,68.918C84.929,71.952 87.233,74.594 89.883,75.456L90.547,72.589L95.349,72.589L95.953,75.294C98.42,74.348 100.664,71.779 102.344,68.922C102.353,68.399 102.356,67.873 102.356,67.345C102.356,59.632 101.578,52.542 100.278,46.936C97.889,46.409 95.361,46.123 92.743,46.123C90.126,46.123 87.6,46.409 85.211,46.936C83.91,52.542 83.132,59.632 83.132,67.345C83.132,67.872 83.136,68.395 83.144,68.918Z" style="fill:none;fill-rule:nonzero;stroke:rgb(199,199,199);stroke-width:0.97px;"/></g></g></g></g><g><g><g><g><path id="path56897" d="M82.659,67.795C84.444,70.829 86.748,73.471 89.398,74.333L90.062,71.466L94.864,71.466L95.468,74.171C97.935,73.225 100.179,70.656 101.859,67.799C101.868,67.276 101.871,66.75 101.871,66.222C101.871,58.509 101.093,51.419 99.793,45.813C97.404,45.286 94.876,45 92.258,45C89.641,45 87.115,45.286 84.726,45.813C83.425,51.419 82.647,58.509 82.647,66.222C82.647,66.749 82.651,67.272 82.659,67.795" style="fill:rgb(199,199,199);fill-rule:nonzero;"/></g></g></g></g><g><g><g><g><path id="polygon747" d="M177.238,117.916L176.107,118.015L176.057,117.45L177.706,116.735L177.604,115.605L175.859,115.187L175.809,114.622L176.941,114.522L177.923,112.727L175.795,88.408L172.838,66.51L163.752,55.756L152.89,48.049L148.765,49.674L148.765,62.236L147.85,68.627L145.426,67.917L144.406,90.036L148.452,88.521L148.75,91.915L150.495,92.331L152.473,114.954L153.752,116.551L154.883,116.453L154.933,117.018L153.287,117.732L153.385,118.862L155.132,119.279L155.181,119.846L154.049,119.944L153.067,121.74L155.689,151.714L157.535,153.263L177.894,151.482L183.989,142.97L179.083,119.464L177.238,117.916Z" style="fill:rgb(199,199,199);fill-rule:nonzero;"/></g></g></g></g><g><g><g><g><path id="polygon751" d="M178.252,110.882L185.742,115.134L185.742,53.022L183.669,1.669L158.913,0L158.592,31.46L153.904,31.512L152.739,44.268L161.652,49.937L172.583,62.693L178.252,110.882Z" style="fill:white;fill-rule:nonzero;stroke:black;stroke-width:1.45px;stroke-linejoin:round;"/></g></g></g></g><g><g><g><g><path id="polygon753" d="M174.142,115.428L173.011,115.527L172.961,114.962L174.61,114.247L174.508,113.117L172.763,112.699L172.713,112.134L173.845,112.034L174.828,110.239L172.7,85.92L169.743,64.022L160.657,53.268L149.794,45.561L145.669,47.186L145.669,59.749L144.754,66.139L142.331,65.429L141.31,87.548L145.356,86.033L145.654,89.427L147.399,89.843L149.377,112.466L150.657,114.063L151.788,113.965L151.837,114.53L150.191,115.244L150.29,116.375L152.037,116.792L152.085,117.358L150.954,117.457L149.971,119.252L152.593,149.226L154.439,150.775L174.798,148.994L180.893,140.482L175.987,116.976L174.142,115.428Z" style="fill:white;fill-rule:nonzero;stroke:black;stroke-width:1.45px;stroke-linejoin:round;"/></g></g></g></g><g><g><g><g><g><text id="text755" x="166.286px" y="7.977px" style="font-family:'ArialMT', 'Arial', sans-serif;font-size:7.727px;">DC</text></g></g></g></g></g><g><g><g><g><g><text id="text757" x="173.963px" y="64.594px" style="font-family:'ArialMT', 'Arial', sans-serif;font-size:7.727px;">DA</text></g></g></g></g></g><g><g><g><g><g><rect id="paperdoll-placeholder-shield-dc-RA-00" x="160.5" y="9.305" width="23.3" height="6.152" style="fill:none;stroke:rgb(225,29,72);stroke-opacity:0.9;stroke-width:1.25px;stroke-dasharray:3,1.5;"/></g></g></g></g></g><g><g><g><g><g><rect id="paperdoll-placeholder-shield-dc-RA-01" x="160.5" y="14.632" width="23.3" height="6.152" style="fill:none;stroke:rgb(225,29,72);stroke-opacity:0.9;stroke-width:1.25px;stroke-dasharray:3,1.5;"/></g></g></g></g></g><g><g><g><g><g><rect id="paperdoll-placeholder-shield-dc-RA-02" x="160.5" y="19.959" width="23.3" height="6.152" style="fill:none;stroke:rgb(225,29,72);stroke-opacity:0.9;stroke-width:1.25px;stroke-dasharray:3,1.5;"/></g></g></g></g></g><g><g><g><g><g><rect id="paperdoll-placeholder-shield-dc-RA-03" x="160.5" y="25.286" width="23.3" height="6.152" style="fill:none;stroke:rgb(225,29,72);stroke-opacity:0.9;stroke-width:1.25px;stroke-dasharray:3,1.5;"/></g></g></g></g></g><g><g><g><g><g><rect id="paperdoll-placeholder-shield-dc-RA-04" x="160.5" y="30.613" width="23.3" height="6.152" style="fill:none;stroke:rgb(225,29,72);stroke-opacity:0.9;stroke-width:1.25px;stroke-dasharray:3,1.5;"/></g></g></g></g></g><g><g><g><g><g><rect id="paperdoll-placeholder-shield-dc-RA-05" x="155.5" y="35.941" width="21.2" height="6.152" style="fill:none;stroke:rgb(225,29,72);stroke-opacity:0.9;stroke-width:1.25px;stroke-dasharray:3,1.5;"/></g></g></g></g></g><g><g><g><g><g><rect id="paperdoll-placeholder-shield-dc-RA-06" x="159.05" y="41.268" width="19.8" height="6.152" style="fill:none;stroke:rgb(225,29,72);stroke-opacity:0.9;stroke-width:1.25px;stroke-dasharray:3,1.5;"/></g></g></g></g></g><g><g><g><g><g><rect id="paperdoll-placeholder-shield-dc-RA-07" x="165.17" y="46.595" width="15.7" height="6.152" style="fill:none;stroke:rgb(225,29,72);stroke-opacity:0.9;stroke-width:1.25px;stroke-dasharray:3,1.5;"/></g></g></g></g></g><g><g><g><g><g><path id="paperdoll-placeholder-shield-da-RA-00" d="M184.314,109.231L178.175,109.623L175.37,65.712L181.509,65.32L184.314,109.231Z" style="fill:none;stroke:rgb(225,29,72);stroke-opacity:0.9;stroke-width:1.25px;stroke-dasharray:3,1.5;"/></g></g></g></g></g><g><g><g><g><path id="polygon771" d="M14.629,117.916L15.76,118.015L15.809,117.45L14.16,116.735L14.262,115.605L16.008,115.187L16.057,114.622L14.926,114.522L13.943,112.727L16.07,88.408L19.027,66.51L28.113,55.756L38.975,48.049L43.1,49.674L43.1,62.236L44.016,68.627L46.44,67.917L47.461,90.036L43.415,88.521L43.117,91.915L41.371,92.331L39.393,114.954L38.113,116.551L36.983,116.453L36.932,117.018L38.581,117.732L38.481,118.862L36.734,119.279L36.684,119.846L37.817,119.944L38.799,121.74L36.176,151.714L34.333,153.263L13.971,151.482L7.877,142.97L12.783,119.464L14.629,117.916Z" style="fill:rgb(199,199,199);fill-rule:nonzero;"/></g></g></g></g><g><g><g><g><path id="polygon775" d="M7.491,110.882L-0,115.134L-0,53.022L2.074,1.669L26.83,0L27.15,31.46L31.837,31.512L33.002,44.268L24.089,49.937L13.16,62.693L7.491,110.882Z" style="fill:white;fill-rule:nonzero;stroke:black;stroke-width:1.45px;stroke-linejoin:round;"/></g></g></g></g><g><g><g><g><path id="polygon777" d="M11.534,115.428L12.665,115.527L12.713,114.962L11.064,114.247L11.167,113.117L12.913,112.699L12.961,112.134L11.831,112.034L10.847,110.239L12.974,85.92L15.931,64.022L25.017,53.268L35.879,45.561L40.004,47.186L40.004,59.749L40.92,66.139L43.344,65.429L44.366,87.548L40.319,86.033L40.021,89.427L38.275,89.843L36.297,112.466L35.017,114.063L33.887,113.965L33.836,114.53L35.485,115.244L35.385,116.375L33.638,116.792L33.588,117.358L34.721,117.457L35.704,119.252L33.081,149.226L31.237,150.775L10.876,148.994L4.782,140.482L9.687,116.976L11.534,115.428Z" style="fill:white;fill-rule:nonzero;stroke:black;stroke-width:1.45px;stroke-linejoin:round;"/></g></g></g></g><g><g><g><g><g><text id="text779" x="9px" y="7.977px" style="font-family:'ArialMT', 'Arial', sans-serif;font-size:7.727px;">DC</text></g></g></g></g></g><g><g><g><g><g><text id="text781" x="1.081px" y="64.594px" style="font-family:'ArialMT', 'Arial', sans-serif;font-size:7.727px;">DA</text></g></g></g></g></g><g><g><g><g><g><rect id="paperdoll-placeholder-shield-dc-LA-00" x="2.647" y="9.305" width="23.3" height="6.152" style="fill:none;stroke:rgb(225,29,72);stroke-opacity:0.9;stroke-width:1.25px;stroke-dasharray:3,1.5;"/></g></g></g></g></g><g><g><g><g><g><rect id="paperdoll-placeholder-shield-dc-LA-01" x="2.647" y="14.632" width="23.3" height="6.152" style="fill:none;stroke:rgb(225,29,72);stroke-opacity:0.9;stroke-width:1.25px;stroke-dasharray:3,1.5;"/></g></g></g></g></g><g><g><g><g><g><rect id="paperdoll-placeholder-shield-dc-LA-02" x="2.647" y="19.959" width="23.3" height="6.152" style="fill:none;stroke:rgb(225,29,72);stroke-opacity:0.9;stroke-width:1.25px;stroke-dasharray:3,1.5;"/></g></g></g></g></g><g><g><g><g><g><rect id="paperdoll-placeholder-shield-dc-LA-03" x="2.647" y="25.286" width="23.3" height="6.152" style="fill:none;stroke:rgb(225,29,72);stroke-opacity:0.9;stroke-width:1.25px;stroke-dasharray:3,1.5;"/></g></g></g></g></g><g><g><g><g><g><rect id="paperdoll-placeholder-shield-dc-LA-04" x="2.647" y="30.613" width="23.3" height="6.152" style="fill:none;stroke:rgb(225,29,72);stroke-opacity:0.9;stroke-width:1.25px;stroke-dasharray:3,1.5;"/></g></g></g></g></g><g><g><g><g><g><rect id="paperdoll-placeholder-shield-dc-LA-05" x="9.747" y="35.941" width="21.2" height="6.152" style="fill:none;stroke:rgb(225,29,72);stroke-opacity:0.9;stroke-width:1.25px;stroke-dasharray:3,1.5;"/></g></g></g></g></g><g><g><g><g><g><rect id="paperdoll-placeholder-shield-dc-LA-06" x="7.597" y="41.268" width="19.8" height="6.152" style="fill:none;stroke:rgb(225,29,72);stroke-opacity:0.9;stroke-width:1.25px;stroke-dasharray:3,1.5;"/></g></g></g></g></g><g><g><g><g><g><rect id="paperdoll-placeholder-shield-dc-LA-07" x="5.577" y="46.595" width="15.7" height="6.152" style="fill:none;stroke:rgb(225,29,72);stroke-opacity:0.9;stroke-width:1.25px;stroke-dasharray:3,1.5;"/></g></g></g></g></g><g><g><g><g><g><path id="paperdoll-placeholder-shield-da-LA-00" d="M1.465,109.231L7.604,109.623L10.409,65.712L4.27,65.32L1.465,109.231Z" style="fill:none;stroke:rgb(225,29,72);stroke-opacity:0.9;stroke-width:1.25px;stroke-dasharray:3,1.5;"/></g></g></g></g></g><rect id="paperdoll-placeholder-armor-HD" x="84.14" y="48.715" width="17.088" height="21.553" style="fill:none;stroke:rgb(225,29,72);stroke-opacity:0.9;stroke-width:1.2px;stroke-dasharray:2.88,1.44;"/><rect id="paperdoll-placeholder-armor-CT" x="78.21" y="79.295" width="29.063" height="85.873" style="fill:none;stroke:rgb(225,29,72);stroke-opacity:0.9;stroke-width:1.03px;stroke-dasharray:2.473,1.237;"/><rect id="paperdoll-placeholder-armor-LT" x="43.114" y="62.341" width="32.354" height="86.821" style="fill:none;stroke:rgb(225,29,72);stroke-opacity:0.9;stroke-width:1.18px;stroke-dasharray:2.832,1.416;"/><rect id="paperdoll-placeholder-armor-RT" x="110.015" y="62.341" width="32.353" height="86.821" style="fill:none;stroke:rgb(225,29,72);stroke-opacity:0.9;stroke-width:1.18px;stroke-dasharray:2.832,1.416;"/><rect id="paperdoll-placeholder-armor-LA" x="5.099" y="53.225" width="38.015" height="94.339" style="fill:none;stroke:rgb(225,29,72);stroke-opacity:0.9;stroke-width:1.05px;stroke-dasharray:2.511,1.256;"/><rect id="paperdoll-placeholder-armor-RA" x="139" y="53.225" width="38.482" height="94.339" style="fill:none;stroke:rgb(225,29,72);stroke-opacity:0.9;stroke-width:1.05px;stroke-dasharray:2.527,1.263;"/><rect id="paperdoll-placeholder-armor-LL" x="17.695" y="153.87" width="67.644" height="121.954" style="fill:none;stroke:rgb(225,29,72);stroke-opacity:0.9;stroke-width:1.19px;stroke-dasharray:2.855,1.428;"/><rect id="paperdoll-placeholder-armor-RL" x="100.143" y="153.87" width="67.911" height="121.954" style="fill:none;stroke:rgb(225,29,72);stroke-opacity:0.9;stroke-width:1.19px;stroke-dasharray:2.861,1.43;"/><rect id="paperdoll-placeholder-armor-CT_R" x="81.143" y="278.871" width="23.161" height="61.991" style="fill:none;stroke:rgb(225,29,72);stroke-opacity:0.9;stroke-width:1.2px;stroke-dasharray:2.88,1.44;"/><rect id="paperdoll-placeholder-armor-LT_R" x="47.255" y="288.166" width="29.779" height="31.152" style="fill:none;stroke:rgb(225,29,72);stroke-opacity:0.9;stroke-width:1.2px;stroke-dasharray:2.88,1.44;"/><rect id="paperdoll-placeholder-armor-RT_R" x="108.927" y="288.166" width="29.54" height="31.152" style="fill:none;stroke:rgb(225,29,72);stroke-opacity:0.9;stroke-width:1.2px;stroke-dasharray:2.88,1.44;"/></g></svg>