<?xml version="1.0" encoding="utf-8"?>
<svg viewBox="1.112 0.725 181.801 280.747" version="1.1" xmlns="http://www.w3.org/2000/svg" style="fill-rule:evenodd;clip-rule:evenodd;" height="100%" xmlns:bx="https://boxy-svg.com">
  <defs>
    <bx:export>
      <bx:file format="svg" href="#paperdoll-art-armor"/>
      <bx:file format="svg" path="Untitled 2.svg"/>
    </bx:export>
  </defs>
  <g id="paperdoll-art-armor" transform="matrix(0.964505, 0, 0, 1, 0.039471, 0)">
    <path id="polygon747" d="M178.35,118.641L177.219,118.74L177.169,118.175L178.818,117.46L178.716,116.33L176.971,115.912L176.921,115.347L178.053,115.247L179.035,113.452L176.907,89.133L173.95,67.235L164.864,56.481L154.002,48.774L149.877,50.399L149.877,62.961L148.962,69.352L146.538,68.642L145.518,90.761L149.564,89.246L149.862,92.64L151.607,93.056L153.585,115.679L154.864,117.276L155.995,117.178L156.045,117.743L154.399,118.457L154.497,119.587L156.244,120.004L156.293,120.571L155.161,120.669L154.179,122.465L156.801,152.439L158.647,153.988L179.006,152.207L185.101,143.695L180.195,120.189L178.35,118.641Z" style="fill:rgb(199,199,199);fill-rule:nonzero;"/>
    <path id="polygon771" d="M15.741,118.641L16.872,118.74L16.921,118.175L15.272,117.46L15.374,116.33L17.12,115.912L17.169,115.347L16.038,115.247L15.055,113.452L17.182,89.133L20.139,67.235L29.225,56.481L40.087,48.774L44.212,50.399L44.212,62.961L45.128,69.352L47.552,68.642L48.573,90.761L44.527,89.246L44.229,92.64L42.483,93.056L40.505,115.679L39.225,117.276L38.095,117.178L38.044,117.743L39.693,118.457L39.593,119.587L37.846,120.004L37.796,120.571L38.929,120.669L39.911,122.465L37.288,152.439L35.445,153.988L15.083,152.207L8.989,143.695L13.895,120.189L15.741,118.641Z" style="fill:rgb(199,199,199);fill-rule:nonzero;"/>
    <path id="path773" d="M3.11,118.611C2.981,118.611 2.852,118.577 2.736,118.51C2.503,118.375 2.359,118.123 2.359,117.862L2.359,55.718L4.437,4.364C4.456,3.986 4.752,3.671 5.139,3.644L29.889,1.979C29.91,1.977 29.93,1.976 29.952,1.976C30.138,1.976 30.318,2.047 30.447,2.177C30.6,2.312 30.69,2.51 30.69,2.717L31.005,33.443L34.955,33.488C35.343,33.488 35.657,33.785 35.694,34.172L36.864,46.925C36.889,47.204 36.756,47.474 36.512,47.627L27.7,53.234L16.991,65.735L11.347,113.696C11.32,113.93 11.176,114.146 10.969,114.263L3.482,118.511C3.366,118.578 3.238,118.611 3.11,118.611" style="fill:rgb(199,199,199);fill-rule:nonzero;"/>
    <path id="path749" d="M188.859,118.611C188.73,118.611 188.601,118.577 188.489,118.51L180.992,114.262L181.361,113.605L182.108,113.515L181.361,113.605L180.992,114.262C180.785,114.145 180.65,113.929 180.623,113.695L174.98,65.734L164.27,53.233L155.45,47.626C155.217,47.473 155.081,47.203 155.108,46.924L156.269,34.171C156.305,33.784 156.62,33.487 157.007,33.487L160.957,33.442L161.272,2.716C161.272,2.509 161.362,2.311 161.515,2.176C161.652,2.046 161.826,1.975 162.01,1.975C162.031,1.975 162.052,1.976 162.073,1.978L186.832,3.643C187.211,3.67 187.517,3.985 187.525,4.363L189.604,55.717L189.604,117.862C189.604,118.123 189.46,118.375 189.235,118.51C189.118,118.578 188.988,118.611 188.859,118.611" style="fill:rgb(199,199,199);fill-rule:nonzero;"/>
    <path id="path56047" d="M25.981,166.46L25.665,170.074C25.72,169.429 25.987,168.856 26.383,168.409C26.074,167.82 25.921,167.154 25.981,166.46" style="fill:rgb(199,199,199);fill-rule:nonzero;"/>
    <path id="path56051" d="M24.438,171.503L25.644,172.976C25.874,172.7 26.204,172.512 26.583,172.477L26.619,172.474C25.966,171.9 25.582,171.022 25.665,170.074L25.628,170.474C25.587,170.933 25.124,171.302 24.438,171.503" style="fill:rgb(199,199,199);fill-rule:nonzero;"/>
    <path id="path56055" d="M34.763,161.528L32.2,153.703L19.307,152.575L15.095,163.608L17.845,163.848L17.168,171.593C17.128,172.024 17.258,172.47 17.569,172.829L22.046,177.997C22.665,178.71 23.759,178.805 24.492,178.21C24.631,178.098 24.739,177.965 24.832,177.826C25.07,177.915 25.329,177.961 25.602,177.938L29.059,177.654C30.014,177.576 30.717,176.761 30.631,175.836C30.595,175.452 30.424,175.114 30.174,174.85C30.613,174.577 30.894,174.07 30.846,173.512C30.81,173.065 30.571,172.692 30.233,172.461C30.762,171.995 31.123,171.326 31.191,170.558C31.192,170.537 31.192,170.517 31.193,170.496C32.848,170.121 34.126,168.827 34.268,167.185L34.599,163.413C34.655,162.774 34.531,162.155 34.267,161.6L34.763,161.528Z" style="fill:rgb(199,199,199);fill-rule:nonzero;"/>
    <path id="path56063" d="M144.374,190.444L148.793,190.444L150.987,201.411L150.527,213.475L152.25,214.793L164.284,242.539L164.313,246.377L160.76,250.764L163.766,263.376L159.379,265.57L161.574,269.409L171.992,273.795L173.089,276.536L175.282,277.634L175.28,281.472L128.67,281.472L128.67,277.085L130.316,275.44L130.866,272.699L134.155,271.054L134.155,263.925L132.019,263.376L130.316,255.7L123.735,254.603L119.349,247.473L119.898,216.765L120.598,215.67L118.801,209.088L119.349,206.895L118.801,203.057L116.607,201.411L113.865,199.217L113.317,198.67L113.865,197.573L115.51,197.025L114.962,194.831L113.998,191.542L103.994,153.704L134.702,153.704L144.374,190.444Z" style="fill:rgb(199,199,199);fill-rule:nonzero;"/>
    <path id="path56067" d="M48.809,190.444L44.391,190.444L42.197,201.411L42.655,213.475L40.933,214.793L28.898,242.539L28.869,246.377L32.422,250.764L29.417,263.376L33.805,265.57L31.609,269.409L21.191,273.795L20.093,276.536L17.901,277.634L17.902,281.472L64.512,281.472L64.512,277.085L62.867,275.44L62.318,272.699L59.028,271.054L59.028,263.925L61.164,263.376L62.867,255.7L69.447,254.603L73.834,247.473L73.286,216.765L72.585,215.67L74.381,209.088L73.834,206.895L74.381,203.057L76.576,201.411L79.318,199.217L79.866,198.67L79.318,197.573L77.672,197.025L78.22,194.831L79.185,191.542L89.189,153.704L58.481,153.704L48.809,190.444Z" style="fill:rgb(199,199,199);fill-rule:nonzero;"/>
    <path id="path56071" d="M79.318,63.773L73.286,63.773L48.061,65.417L46.964,67.062L48.61,102.706L50.255,104.352C50.255,104.352 57.932,105.448 61.77,105.997C62.867,122.447 68.35,133.414 68.35,133.414L55.14,135.953L54.641,136.705L53.544,152.608L54.641,153.704L82.06,153.704L82.06,134.511L79.318,105.997L79.318,63.773Z" style="fill:rgb(199,199,199);fill-rule:nonzero;"/>
    <path id="path56075" d="M113.864,63.773L119.897,63.773L145.121,65.417L146.218,67.062L144.573,102.706L142.928,104.352C142.928,104.352 135.25,105.448 131.413,105.997C130.315,122.447 124.831,133.414 124.831,133.414L138.042,135.953L138.54,136.705L139.637,152.608L138.54,153.704L111.123,153.704L111.123,134.511L113.864,105.997L113.864,63.773Z" style="fill:rgb(199,199,199);fill-rule:nonzero;"/>
    <path id="path56079" d="M167.474,166.46L167.791,170.074C167.735,169.429 167.469,168.856 167.072,168.409C167.382,167.82 167.535,167.154 167.474,166.46" style="fill:rgb(199,199,199);fill-rule:nonzero;"/>
    <path id="path56083" d="M169.018,171.503L167.81,172.976C167.582,172.7 167.25,172.512 166.873,172.477L166.835,172.474C167.489,171.9 167.873,171.022 167.79,170.074L167.827,170.474C167.868,170.933 168.331,171.302 169.018,171.503" style="fill:rgb(199,199,199);fill-rule:nonzero;"/>
    <path id="path56087" d="M159.189,161.599C158.925,162.154 158.802,162.773 158.857,163.413L159.188,167.185C159.331,168.827 160.608,170.119 162.263,170.495C162.264,170.516 162.264,170.537 162.265,170.557C162.333,171.325 162.693,171.993 163.223,172.461C162.885,172.691 162.646,173.064 162.609,173.512C162.562,174.07 162.842,174.577 163.282,174.848C163.032,175.113 162.861,175.451 162.826,175.835C162.74,176.761 163.442,177.575 164.398,177.653L167.854,177.937C168.127,177.96 168.387,177.914 168.626,177.825C168.718,177.964 168.826,178.098 168.964,178.21C169.697,178.804 170.791,178.709 171.409,177.996L175.886,172.829C176.198,172.469 176.328,172.023 176.287,171.592L175.61,163.848L178.36,163.607L174.147,152.575L161.256,153.703L158.692,161.528L159.189,161.599Z" style="fill:rgb(199,199,199);fill-rule:nonzero;"/>
    <path id="path56095" d="M79.318,63.773L79.318,105.997L82.06,134.511L82.06,153.155L83.705,167.962L85.898,170.155L107.285,170.155L109.478,167.962L111.123,153.155L111.123,134.511L113.865,105.997L113.865,63.773L79.318,63.773Z" style="fill:rgb(199,199,199);fill-rule:nonzero;"/>
    <path id="path56099" d="M96.592,82.417C87.751,82.417 80.585,78.31 80.585,63.773L76.028,63.773L76.028,51.709L77.695,50.064L83.102,49.61C84.649,45.636 86.826,42.391 89.404,40.257L89.839,36.355L91.589,34.71L101.593,34.71L103.344,36.355L103.779,40.257C106.355,42.391 108.534,45.636 110.081,49.61L115.487,50.064L117.155,51.709L117.155,63.773L112.597,63.773C112.597,78.31 105.43,82.417 96.592,82.417" style="fill:rgb(199,199,199);fill-rule:nonzero;"/>
    <path id="path56091" d="M176.833,119.832L175.741,119.928L175.693,119.382L177.285,118.691L177.187,117.6L175.501,117.196L175.454,116.65L176.546,116.554L177.496,114.819L175.44,91.33L176.534,91.234L184.7,83.915L184.175,77.906L176.382,76.936L182.863,69.213L180.651,62.801L171.366,63.613L174.09,50.715L169.432,47.82L159.435,53.097L158.978,41.578L152.731,39.373L143.662,48.973L140.008,57.549L140.89,61.326L147.875,65.669L148.448,72.223L146.107,71.538L145.12,92.903L149.028,91.439L149.316,94.717L151.002,95.119L152.913,116.971L154.149,118.514L155.241,118.419L155.289,118.965L153.698,119.654L153.794,120.747L155.482,121.15L155.529,121.696L154.436,121.792L153.486,123.526L156.02,152.478L157.802,153.974L177.468,152.254L183.354,144.032L178.615,121.327L176.833,119.832Z" style="fill:rgb(199,199,199);fill-rule:nonzero;"/>
    <path id="paperdoll-art-armor-RA-path56849" d="M174.095,117.435L173.002,117.531L172.955,116.985L174.547,116.294L174.449,115.203L172.763,114.799L172.716,114.253L173.808,114.157L174.757,112.423L172.702,88.933L173.796,88.838L181.962,81.518L181.437,75.509L173.644,74.539L180.125,66.816L177.913,60.404L168.628,61.216L171.352,48.318L166.694,45.423L156.697,50.7L156.24,39.181L149.993,36.976L140.924,46.576L137.27,55.153L138.152,58.929L145.137,63.272L145.71,69.826L143.368,69.141L142.382,90.505L146.29,89.042L146.578,92.32L148.264,92.722L150.175,114.574L151.411,116.117L152.503,116.022L152.551,116.568L150.96,117.257L151.056,118.35L152.743,118.753L152.791,119.299L151.698,119.395L150.748,121.129L153.282,150.081L155.064,151.577L174.73,149.857L180.616,141.635L175.877,118.93L174.095,117.435Z" style="fill:white;fill-rule:nonzero;"/>
    <path id="path56853" d="M174.095,117.435L173.002,117.531L172.955,116.985L174.547,116.294L174.449,115.203L172.763,114.799L172.716,114.253L173.808,114.157L174.757,112.423L172.702,88.933L173.796,88.838L181.962,81.518L181.437,75.509L173.644,74.539L180.125,66.816L177.913,60.404L168.628,61.216L171.352,48.318L166.694,45.423L156.697,50.7L156.24,39.181L149.993,36.976L140.924,46.576L137.27,55.153L138.152,58.929L145.137,63.272L145.71,69.826L143.368,69.141L142.382,90.505L146.29,89.042L146.578,92.32L148.264,92.722L150.175,114.574L151.411,116.117L152.503,116.022L152.551,116.568L150.96,117.257L151.056,118.35L152.743,118.753L152.791,119.299L151.698,119.395L150.748,121.129L153.282,150.081L155.064,151.577L174.73,149.857L180.616,141.635L175.877,118.93L174.095,117.435Z" style="fill:none;fill-rule:nonzero;stroke:black;stroke-width:1.45px;"/>
    <path id="path56059" d="M16.817,119.832L17.91,119.928L17.958,119.382L16.366,118.691L16.462,117.6L18.148,117.196L18.197,116.65L17.105,116.554L16.154,114.819L18.21,91.33L17.117,91.234L8.95,83.915L9.476,77.906L17.268,76.936L10.787,69.213L13,62.801L22.286,63.613L19.561,50.715L24.218,47.82L34.215,53.097L34.673,41.578L40.92,39.373L49.989,48.973L53.641,57.549L52.761,61.326L45.776,65.669L45.202,72.223L47.544,71.538L48.531,92.903L44.622,91.439L44.335,94.717L42.649,95.119L40.738,116.971L39.5,118.514L38.409,118.419L38.361,118.965L39.952,119.654L39.857,120.747L38.169,121.15L38.121,121.696L39.214,121.792L40.163,123.526L37.629,152.478L35.848,153.974L16.183,152.254L10.296,144.032L15.035,121.327L16.817,119.832Z" style="fill:rgb(199,199,199);fill-rule:nonzero;"/>
    <path id="paperdoll-art-armor-LA-path56721" d="M14.078,117.435L15.171,117.531L15.219,116.985L13.627,116.294L13.723,115.203L15.409,114.799L15.458,114.253L14.366,114.157L13.416,112.423L15.471,88.933L14.378,88.838L6.211,81.518L6.737,75.509L14.529,74.539L8.048,66.816L10.261,60.404L19.547,61.216L16.822,48.318L21.479,45.423L31.476,50.7L31.934,39.181L38.181,36.976L47.25,46.576L50.902,55.153L50.022,58.929L43.038,63.272L42.463,69.826L44.805,69.141L45.792,90.505L41.883,89.042L41.596,92.32L39.91,92.722L37.999,114.574L36.761,116.117L35.67,116.022L35.622,116.568L37.213,117.257L37.118,118.35L35.431,118.753L35.382,119.299L36.475,119.395L37.424,121.129L34.89,150.081L33.109,151.577L13.444,149.857L7.557,141.635L12.296,118.93L14.078,117.435Z" style="fill:white;fill-rule:nonzero;"/>
    <path id="path56725" d="M14.078,117.435L15.171,117.531L15.219,116.985L13.627,116.294L13.723,115.203L15.409,114.799L15.458,114.253L14.366,114.157L13.416,112.423L15.471,88.933L14.378,88.838L6.211,81.518L6.737,75.509L14.529,74.539L8.048,66.816L10.261,60.404L19.547,61.216L16.822,48.318L21.479,45.423L31.476,50.7L31.934,39.181L38.181,36.976L47.25,46.576L50.902,55.153L50.022,58.929L43.038,63.272L42.463,69.826L44.805,69.141L45.792,90.505L41.883,89.042L41.596,92.32L39.91,92.722L37.999,114.574L36.761,116.117L35.67,116.022L35.622,116.568L37.213,117.257L37.118,118.35L35.431,118.753L35.382,119.299L36.475,119.395L37.424,121.129L34.89,150.081L33.109,151.577L13.444,149.857L7.557,141.635L12.296,118.93L14.078,117.435Z" style="fill:none;fill-rule:nonzero;stroke:black;stroke-width:1.45px;"/>
    <path id="path56633" d="M23.242,164.063L22.926,167.677C22.981,167.032 23.248,166.459 23.644,166.013C23.335,165.423 23.182,164.757 23.242,164.063Z" style="fill:none;fill-rule:nonzero;stroke:black;stroke-width:1.45px;"/>
    <path id="path56637" d="M21.7,169.107L22.906,170.58C23.136,170.304 23.466,170.116 23.845,170.081L23.881,170.078C23.228,169.504 22.844,168.626 22.927,167.678L22.89,168.078C22.849,168.537 22.386,168.906 21.7,169.107Z" style="fill:none;fill-rule:nonzero;stroke:black;stroke-width:1.45px;"/>
    <path id="path56641" d="M32.024,159.131L29.461,151.306L16.568,150.178L12.356,161.211L15.106,161.451L14.429,169.196C14.389,169.627 14.519,170.073 14.83,170.432L19.307,175.6C19.926,176.313 21.02,176.408 21.753,175.813C21.892,175.701 22,175.568 22.093,175.429C22.331,175.518 22.59,175.564 22.863,175.541L26.32,175.257C27.275,175.179 27.978,174.364 27.892,173.439C27.856,173.055 27.685,172.717 27.435,172.453C27.874,172.18 28.155,171.673 28.107,171.115C28.071,170.668 27.832,170.295 27.494,170.064C28.023,169.597 28.384,168.928 28.452,168.161C28.453,168.14 28.453,168.12 28.454,168.099C30.109,167.724 31.387,166.43 31.529,164.788L31.86,161.016C31.916,160.376 31.792,159.758 31.528,159.203L32.024,159.131Z" style="fill:white;fill-rule:nonzero;"/>
    <path id="path56645" d="M32.024,159.131L29.461,151.306L16.568,150.178L12.356,161.211L15.106,161.451L14.429,169.196C14.389,169.627 14.519,170.073 14.83,170.432L19.307,175.6C19.926,176.313 21.02,176.408 21.753,175.813C21.892,175.701 22,175.568 22.093,175.429C22.331,175.518 22.59,175.564 22.863,175.541L26.32,175.257C27.275,175.179 27.978,174.364 27.892,173.439C27.856,173.055 27.685,172.717 27.435,172.453C27.874,172.18 28.155,171.673 28.107,171.115C28.071,170.668 27.832,170.295 27.494,170.064C28.023,169.597 28.384,168.928 28.452,168.161C28.453,168.14 28.453,168.12 28.454,168.099C30.109,167.724 31.387,166.43 31.529,164.788L31.86,161.016C31.916,160.376 31.792,159.758 31.528,159.203L32.024,159.131Z" style="fill:none;fill-rule:nonzero;stroke:black;stroke-width:1.45px;"/>
    <path id="path56649" d="M26.009,171.905C26.962,171.827 27.805,172.513 27.892,173.439C27.978,174.365 27.274,175.179 26.32,175.258L22.863,175.542C21.908,175.621 21.065,174.933 20.979,174.008C20.893,173.082 21.597,172.268 22.551,172.189L26.009,171.905Z" style="fill:white;fill-rule:nonzero;"/>
    <path id="path56653" d="M26.009,171.905C26.962,171.827 27.805,172.513 27.892,173.439C27.978,174.365 27.274,175.179 26.32,175.258L22.863,175.542C21.908,175.621 21.065,174.933 20.979,174.008C20.893,173.082 21.597,172.268 22.551,172.189L26.009,171.905Z" style="fill:none;fill-rule:nonzero;stroke:black;stroke-width:1.45px;"/>
    <path id="path56657" d="M21.961,173.445C22.578,174.158 22.486,175.218 21.753,175.813C21.02,176.408 19.926,176.313 19.307,175.6L14.83,170.432C14.212,169.719 14.305,168.658 15.038,168.063C15.771,167.468 16.866,167.564 17.484,168.276L21.961,173.445Z" style="fill:white;fill-rule:nonzero;"/>
    <path id="path56661" d="M21.961,173.445C22.578,174.158 22.486,175.218 21.753,175.813C21.02,176.408 19.926,176.313 19.307,175.6L14.83,170.432C14.212,169.719 14.305,168.658 15.038,168.063C15.771,167.468 16.866,167.564 17.484,168.276L21.961,173.445Z" style="fill:none;fill-rule:nonzero;stroke:black;stroke-width:1.45px;"/>
    <path id="path56665" d="M21.346,169.809C21.265,170.734 19.651,171.349 17.742,171.182C15.832,171.015 14.349,170.13 14.43,169.204L15.308,159.15C15.389,158.225 17.003,157.611 18.915,157.777C20.825,157.945 22.306,158.83 22.225,159.756L21.346,169.809Z" style="fill:white;fill-rule:nonzero;"/>
    <path id="path56669" d="M21.346,169.809C21.265,170.734 19.651,171.349 17.742,171.182C15.832,171.015 14.349,170.13 14.43,169.204L15.308,159.15C15.389,158.225 17.003,157.611 18.915,157.777C20.825,157.945 22.306,158.83 22.225,159.756L21.346,169.809Z" style="fill:none;fill-rule:nonzero;stroke:black;stroke-width:1.45px;"/>
    <path id="path56673" d="M26.609,169.828C27.372,169.758 28.042,170.334 28.108,171.116C28.174,171.896 27.608,172.587 26.845,172.656L24.08,172.909C23.318,172.979 22.646,172.403 22.581,171.623C22.516,170.841 23.082,170.152 23.846,170.081L26.609,169.828Z" style="fill:white;fill-rule:nonzero;"/>
    <path id="path56677" d="M26.609,169.828C27.372,169.758 28.042,170.334 28.108,171.116C28.174,171.896 27.608,172.587 26.845,172.656L24.08,172.909C23.318,172.979 22.646,172.403 22.581,171.623C22.516,170.841 23.082,170.152 23.846,170.081L26.609,169.828Z" style="fill:none;fill-rule:nonzero;stroke:black;stroke-width:1.45px;"/>
    <path id="path56681" d="M23.369,171.143C23.861,171.743 23.781,172.638 23.194,173.143C22.605,173.648 21.732,173.57 21.24,172.972L17.683,168.63C17.192,168.03 17.27,167.135 17.858,166.629C18.445,166.124 19.321,166.201 19.812,166.8L23.369,171.143Z" style="fill:white;fill-rule:nonzero;"/>
    <path id="path56685" d="M23.369,171.143C23.861,171.743 23.781,172.638 23.194,173.143C22.605,173.648 21.732,173.57 21.24,172.972L17.683,168.63C17.192,168.03 17.27,167.135 17.858,166.629C18.445,166.124 19.321,166.201 19.812,166.8L23.369,171.143Z" style="fill:none;fill-rule:nonzero;stroke:black;stroke-width:1.45px;"/>
    <path id="path56689" d="M22.891,168.078C22.824,168.858 21.531,169.384 20.007,169.25C18.48,169.116 17.298,168.376 17.366,167.595L18.109,159.109C18.176,158.328 19.469,157.802 20.995,157.936C22.52,158.069 23.702,158.811 23.635,159.592L22.891,168.078Z" style="fill:white;fill-rule:nonzero;"/>
    <path id="path56693" d="M22.891,168.078C22.824,168.858 21.531,169.384 20.007,169.25C18.48,169.116 17.298,168.376 17.366,167.595L18.109,159.109C18.176,158.328 19.469,157.802 20.995,157.936C22.52,158.069 23.702,158.811 23.635,159.592L22.891,168.078Z" style="fill:none;fill-rule:nonzero;stroke:black;stroke-width:1.45px;"/>
    <path id="path56697" d="M28.452,168.161C28.314,169.724 26.967,170.881 25.441,170.749C23.916,170.614 22.789,169.239 22.926,167.677C23.062,166.115 24.41,164.957 25.937,165.09C27.462,165.223 28.588,166.599 28.452,168.161" style="fill:white;fill-rule:nonzero;"/>
    <path id="path56701" d="M28.452,168.161C28.314,169.724 26.967,170.881 25.441,170.749C23.916,170.614 22.789,169.239 22.926,167.677C23.062,166.115 24.41,164.957 25.937,165.09C27.462,165.223 28.588,166.599 28.452,168.161Z" style="fill:none;fill-rule:nonzero;stroke:black;stroke-width:1.45px;"/>
    <path id="path56705" d="M31.53,164.789C31.347,166.871 29.345,168.399 27.057,168.198C24.767,167.998 23.06,166.146 23.242,164.064L23.573,160.293C23.754,158.21 25.757,156.683 28.046,156.883C30.335,157.084 32.041,158.935 31.86,161.017L31.53,164.789Z" style="fill:white;fill-rule:nonzero;"/>
    <path id="path56709" d="M31.53,164.789C31.347,166.871 29.345,168.399 27.057,168.198C24.767,167.998 23.06,166.146 23.242,164.064L23.573,160.293C23.754,158.21 25.757,156.683 28.046,156.883C30.335,157.084 32.041,158.935 31.86,161.017L31.53,164.789Z" style="fill:none;fill-rule:nonzero;stroke:black;stroke-width:1.45px;"/>
    <path id="path56713" d="M12.356,161.211L15.58,161.493L32.024,159.131L29.461,151.307L16.568,150.178L12.356,161.211Z" style="fill:white;fill-rule:nonzero;"/>
    <path id="path56717" d="M12.356,161.211L15.58,161.493L32.024,159.131L29.461,151.307L16.568,150.178L12.356,161.211Z" style="fill:none;fill-rule:nonzero;stroke:black;stroke-width:1.45px;"/>
    <path id="paperdoll-art-armor-RL-armorRL" d="M141.635,188.047L146.054,188.047L148.248,199.015L147.788,211.078L149.511,212.396L161.545,240.142L161.574,243.98L158.021,248.367L161.027,260.979L156.64,263.172L158.835,267.012L169.253,271.398L170.35,274.139L172.543,275.237L172.541,279.075L125.931,279.075L125.931,274.688L127.577,273.043L128.127,270.302L131.416,268.657L131.416,261.528L129.28,260.979L127.577,253.303L120.996,252.206L116.61,245.077L117.159,214.369L117.859,213.273L116.062,206.691L116.61,204.498L116.062,200.66L113.868,199.015L111.126,196.821L110.578,196.273L111.126,195.176L112.771,194.628L112.223,192.434L111.259,189.145L101.255,151.307L131.963,151.307L141.635,188.047Z" style="fill:white;fill-rule:nonzero;"/>
    <path id="path56733" d="M141.635,188.047L146.054,188.047L148.248,199.015L147.788,211.078L149.511,212.396L161.545,240.142L161.574,243.98L158.021,248.367L161.027,260.979L156.64,263.172L158.835,267.012L169.253,271.398L170.35,274.139L172.543,275.237L172.541,279.075L125.931,279.075L125.931,274.688L127.577,273.043L128.127,270.302L131.416,268.657L131.416,261.528L129.28,260.979L127.577,253.303L120.996,252.206L116.61,245.077L117.159,214.369L117.859,213.273L116.062,206.691L116.61,204.498L116.062,200.66L113.868,199.015L111.126,196.821L110.578,196.273L111.126,195.176L112.771,194.628L112.223,192.434L111.259,189.145L101.255,151.307L131.963,151.307L141.635,188.047Z" style="fill:none;fill-rule:nonzero;stroke:black;stroke-width:1.45px;"/>
    <path id="paperdoll-art-armor-LL-armorLL" d="M46.071,188.047L41.653,188.047L39.459,199.015L39.917,211.078L38.195,212.396L26.16,240.142L26.131,243.98L29.684,248.367L26.679,260.979L31.067,263.172L28.871,267.012L18.453,271.398L17.355,274.139L15.163,275.237L15.164,279.075L61.774,279.075L61.774,274.688L60.129,273.043L59.58,270.302L56.29,268.657L56.29,261.528L58.426,260.979L60.129,253.303L66.709,252.206L71.096,245.077L70.548,214.369L69.847,213.273L71.644,206.691L71.096,204.498L71.644,200.66L73.838,199.015L76.58,196.821L77.128,196.273L76.58,195.176L74.934,194.628L75.482,192.434L76.447,189.145L86.451,151.307L55.743,151.307L46.071,188.047Z" style="fill:white;fill-rule:nonzero;"/>
    <path id="path56741" d="M46.071,188.047L41.653,188.047L39.459,199.015L39.917,211.078L38.195,212.396L26.16,240.142L26.131,243.98L29.684,248.367L26.679,260.979L31.067,263.172L28.871,267.012L18.453,271.398L17.355,274.139L15.163,275.237L15.164,279.075L61.774,279.075L61.774,274.688L60.129,273.043L59.58,270.302L56.29,268.657L56.29,261.528L58.426,260.979L60.129,253.303L66.709,252.206L71.096,245.077L70.548,214.369L69.847,213.273L71.644,206.691L71.096,204.498L71.644,200.66L73.838,199.015L76.58,196.821L77.128,196.273L76.58,195.176L74.934,194.628L75.482,192.434L76.447,189.145L86.451,151.307L55.743,151.307L46.071,188.047Z" style="fill:none;fill-rule:nonzero;stroke:black;stroke-width:1.45px;"/>
    <path id="paperdoll-art-armor-LT-armorLT" d="M76.58,61.377L70.548,61.377L45.323,63.021L44.226,64.666L45.872,100.31L47.517,101.956C47.517,101.956 55.194,103.052 59.032,103.601C60.129,120.051 65.612,131.018 65.612,131.018L52.402,133.557L51.903,134.309L50.806,150.212L51.903,151.308L79.322,151.308L79.322,132.115L76.58,103.601L76.58,61.377Z" style="fill:white;fill-rule:nonzero;"/>
    <path id="path56749" d="M76.58,61.377L70.548,61.377L45.323,63.021L44.226,64.666L45.872,100.31L47.517,101.956C47.517,101.956 55.194,103.052 59.032,103.601C60.129,120.051 65.612,131.018 65.612,131.018L52.402,133.557L51.903,134.309L50.806,150.212L51.903,151.308L79.322,151.308L79.322,132.115L76.58,103.601L76.58,61.377Z" style="fill:none;fill-rule:nonzero;stroke:black;stroke-width:1.45px;"/>
    <path id="paperdoll-art-armor-RT-armorRT" d="M111.126,61.377L117.159,61.377L142.383,63.021L143.48,64.666L141.835,100.31L140.19,101.956C140.19,101.956 132.512,103.052 128.675,103.601C127.577,120.051 122.093,131.018 122.093,131.018L135.304,133.557L135.802,134.309L136.899,150.212L135.802,151.308L108.385,151.308L108.385,132.115L111.126,103.601L111.126,61.377Z" style="fill:white;fill-rule:nonzero;"/>
    <path id="path56757" d="M111.126,61.377L117.159,61.377L142.383,63.021L143.48,64.666L141.835,100.31L140.19,101.956C140.19,101.956 132.512,103.052 128.675,103.601C127.577,120.051 122.093,131.018 122.093,131.018L135.304,133.557L135.802,134.309L136.899,150.212L135.802,151.308L108.385,151.308L108.385,132.115L111.126,103.601L111.126,61.377Z" style="fill:none;fill-rule:nonzero;stroke:black;stroke-width:1.45px;"/>
    <path id="path56761" d="M164.736,164.063L165.053,167.677C164.996,167.032 164.731,166.459 164.334,166.013C164.644,165.423 164.797,164.757 164.736,164.063Z" style="fill:none;fill-rule:nonzero;stroke:black;stroke-width:1.45px;"/>
    <path id="path56765" d="M166.28,169.107L165.072,170.58C164.844,170.304 164.512,170.116 164.135,170.081L164.097,170.078C164.751,169.504 165.135,168.626 165.052,167.678L165.089,168.078C165.13,168.537 165.593,168.906 166.28,169.107Z" style="fill:none;fill-rule:nonzero;stroke:black;stroke-width:1.45px;"/>
    <path id="path56769" d="M156.451,159.203C156.186,159.758 156.064,160.377 156.119,161.017L156.45,164.789C156.592,166.431 157.87,167.723 159.525,168.099C159.526,168.12 159.526,168.141 159.526,168.161C159.595,168.929 159.955,169.597 160.485,170.065C160.148,170.295 159.908,170.668 159.871,171.115C159.824,171.674 160.104,172.181 160.544,172.452C160.293,172.717 160.123,173.055 160.088,173.439C160.002,174.365 160.704,175.178 161.659,175.257L165.116,175.541C165.389,175.564 165.648,175.518 165.887,175.429C165.98,175.568 166.087,175.702 166.226,175.814C166.959,176.408 168.053,176.313 168.671,175.6L173.148,170.433C173.46,170.073 173.59,169.626 173.55,169.196L172.872,161.452L175.622,161.211L171.409,150.179L158.518,151.307L155.954,159.132L156.451,159.203Z" style="fill:white;fill-rule:nonzero;"/>
    <path id="path56773" d="M156.451,159.203C156.186,159.758 156.064,160.377 156.119,161.017L156.45,164.789C156.592,166.431 157.87,167.723 159.525,168.099C159.526,168.12 159.526,168.141 159.526,168.161C159.595,168.929 159.955,169.597 160.485,170.065C160.148,170.295 159.908,170.668 159.871,171.115C159.824,171.674 160.104,172.181 160.544,172.452C160.293,172.717 160.123,173.055 160.088,173.439C160.002,174.365 160.704,175.178 161.659,175.257L165.116,175.541C165.389,175.564 165.648,175.518 165.887,175.429C165.98,175.568 166.087,175.702 166.226,175.814C166.959,176.408 168.053,176.313 168.671,175.6L173.148,170.433C173.46,170.073 173.59,169.626 173.55,169.196L172.872,161.452L175.622,161.211L171.409,150.179L158.518,151.307L155.954,159.132L156.451,159.203Z" style="fill:none;fill-rule:nonzero;stroke:black;stroke-width:1.45px;"/>
    <path id="path56777" d="M161.971,171.905C161.018,171.827 160.173,172.513 160.087,173.439C160.002,174.365 160.704,175.179 161.66,175.258L165.116,175.542C166.071,175.621 166.915,174.933 167,174.008C167.086,173.082 166.381,172.268 165.429,172.189L161.971,171.905Z" style="fill:white;fill-rule:nonzero;"/>
    <path id="path56781" d="M161.971,171.905C161.018,171.827 160.173,172.513 160.087,173.439C160.002,174.365 160.704,175.179 161.66,175.258L165.116,175.542C166.071,175.621 166.915,174.933 167,174.008C167.086,173.082 166.381,172.268 165.429,172.189L161.971,171.905Z" style="fill:none;fill-rule:nonzero;stroke:black;stroke-width:1.45px;"/>
    <path id="path56785" d="M166.018,173.445C165.401,174.158 165.493,175.218 166.227,175.813C166.96,176.408 168.053,176.313 168.671,175.6L173.148,170.432C173.767,169.719 173.675,168.658 172.942,168.063C172.208,167.468 171.113,167.564 170.495,168.276L166.018,173.445Z" style="fill:white;fill-rule:nonzero;"/>
    <path id="path56789" d="M166.018,173.445C165.401,174.158 165.493,175.218 166.227,175.813C166.96,176.408 168.053,176.313 168.671,175.6L173.148,170.432C173.767,169.719 173.675,168.658 172.942,168.063C172.208,167.468 171.113,167.564 170.495,168.276L166.018,173.445Z" style="fill:none;fill-rule:nonzero;stroke:black;stroke-width:1.45px;"/>
    <path id="path56793" d="M166.633,169.809C166.715,170.734 168.329,171.349 170.239,171.182C172.149,171.015 173.632,170.13 173.55,169.204L172.671,159.15C172.59,158.225 170.977,157.611 169.065,157.777C167.155,157.945 165.674,158.83 165.755,159.756L166.633,169.809Z" style="fill:white;fill-rule:nonzero;"/>
    <path id="path56797" d="M166.633,169.809C166.715,170.734 168.329,171.349 170.239,171.182C172.149,171.015 173.632,170.13 173.55,169.204L172.671,159.15C172.59,158.225 170.977,157.611 169.065,157.777C167.155,157.945 165.674,158.83 165.755,159.756L166.633,169.809Z" style="fill:none;fill-rule:nonzero;stroke:black;stroke-width:1.45px;"/>
    <path id="path56801" d="M161.371,169.828C160.607,169.758 159.936,170.334 159.871,171.116C159.805,171.896 160.37,172.587 161.134,172.656L163.899,172.909C164.66,172.979 165.333,172.403 165.398,171.623C165.463,170.841 164.897,170.152 164.134,170.081L161.371,169.828Z" style="fill:white;fill-rule:nonzero;"/>
    <path id="path56805" d="M161.371,169.828C160.607,169.758 159.936,170.334 159.871,171.116C159.805,171.896 160.37,172.587 161.134,172.656L163.899,172.909C164.66,172.979 165.333,172.403 165.398,171.623C165.463,170.841 164.897,170.152 164.134,170.081L161.371,169.828Z" style="fill:none;fill-rule:nonzero;stroke:black;stroke-width:1.45px;"/>
    <path id="path56809" d="M164.611,171.143C164.119,171.743 164.198,172.638 164.786,173.143C165.373,173.648 166.247,173.57 166.739,172.972L170.296,168.63C170.787,168.03 170.709,167.135 170.121,166.629C169.534,166.124 168.659,166.201 168.167,166.8L164.611,171.143Z" style="fill:white;fill-rule:nonzero;"/>
    <path id="path56813" d="M164.611,171.143C164.119,171.743 164.198,172.638 164.786,173.143C165.373,173.648 166.247,173.57 166.739,172.972L170.296,168.63C170.787,168.03 170.709,167.135 170.121,166.629C169.534,166.124 168.659,166.201 168.167,166.8L164.611,171.143Z" style="fill:none;fill-rule:nonzero;stroke:black;stroke-width:1.45px;"/>
    <path id="path56817" d="M165.089,168.078C165.157,168.858 166.45,169.384 167.974,169.25C169.5,169.116 170.682,168.376 170.615,167.595L169.871,159.109C169.803,158.328 168.51,157.802 166.985,157.936C165.46,158.069 164.278,158.811 164.346,159.592L165.089,168.078Z" style="fill:white;fill-rule:nonzero;"/>
    <path id="path56821" d="M165.089,168.078C165.157,168.858 166.45,169.384 167.974,169.25C169.5,169.116 170.682,168.376 170.615,167.595L169.871,159.109C169.803,158.328 168.51,157.802 166.985,157.936C165.46,158.069 164.278,158.811 164.346,159.592L165.089,168.078Z" style="fill:none;fill-rule:nonzero;stroke:black;stroke-width:1.45px;"/>
    <path id="path56825" d="M159.527,168.161C159.665,169.724 161.012,170.881 162.539,170.749C164.064,170.614 165.19,169.239 165.053,167.677C164.916,166.115 163.569,164.957 162.043,165.09C160.516,165.223 159.39,166.599 159.527,168.161" style="fill:white;fill-rule:nonzero;"/>
    <path id="path56829" d="M159.527,168.161C159.665,169.724 161.012,170.881 162.539,170.749C164.064,170.614 165.19,169.239 165.053,167.677C164.916,166.115 163.569,164.957 162.043,165.09C160.516,165.223 159.39,166.599 159.527,168.161Z" style="fill:none;fill-rule:nonzero;stroke:black;stroke-width:1.45px;"/>
    <path id="path56833" d="M156.45,164.789C156.632,166.871 158.634,168.399 160.924,168.198C163.211,167.998 164.919,166.146 164.736,164.064L164.406,160.293C164.225,158.21 162.222,156.683 159.933,156.883C157.644,157.084 155.937,158.935 156.119,161.017L156.45,164.789Z" style="fill:white;fill-rule:nonzero;"/>
    <path id="path56837" d="M156.45,164.789C156.632,166.871 158.634,168.399 160.924,168.198C163.211,167.998 164.919,166.146 164.736,164.064L164.406,160.293C164.225,158.21 162.222,156.683 159.933,156.883C157.644,157.084 155.937,158.935 156.119,161.017L156.45,164.789Z" style="fill:none;fill-rule:nonzero;stroke:black;stroke-width:1.45px;"/>
    <path id="path56841" d="M175.622,161.211L172.4,161.493L155.955,159.131L158.518,151.307L171.41,150.178L175.622,161.211Z" style="fill:white;fill-rule:nonzero;"/>
    <path id="path56845" d="M175.622,161.211L172.4,161.493L155.955,159.131L158.518,151.307L171.41,150.178L175.622,161.211Z" style="fill:none;fill-rule:nonzero;stroke:black;stroke-width:1.45px;"/>
    <path id="paperdoll-art-armor-CT-armorCT" d="M76.58,61.377L76.58,103.601L79.322,132.115L79.322,150.759L80.967,165.566L83.16,167.759L104.547,167.759L106.74,165.566L108.385,150.759L108.385,132.115L111.127,103.601L111.127,61.377L76.58,61.377Z" style="fill:white;fill-rule:nonzero;"/>
    <path id="path56861" d="M76.58,61.377L76.58,103.601L79.322,132.115L79.322,150.759L80.967,165.566L83.16,167.759L104.547,167.759L106.74,165.566L108.385,150.759L108.385,132.115L111.127,103.601L111.127,61.377L76.58,61.377Z" style="fill:none;fill-rule:nonzero;stroke:black;stroke-width:1.45px;"/>
    <path id="paperdoll-art-armor-HD-armorHD" d="M93.854,80.02C85.013,80.02 77.847,75.913 77.847,61.376L73.29,61.376L73.29,49.312L74.957,47.667L80.364,47.213C81.911,43.239 84.088,39.994 86.666,37.86L87.101,33.958L88.851,32.313L98.855,32.313L100.606,33.958L101.041,37.86C103.617,39.994 105.796,43.239 107.343,47.213L112.749,47.667L114.417,49.312L114.417,61.376L109.859,61.376C109.859,75.913 102.692,80.02 93.854,80.02" style="fill:white;fill-rule:nonzero;"/>
    <path id="path56869" d="M93.854,80.02C85.013,80.02 77.847,75.913 77.847,61.376L73.29,61.376L73.29,49.312L74.957,47.667L80.364,47.213C81.911,43.239 84.088,39.994 86.666,37.86L87.101,33.958L88.851,32.313L98.855,32.313L100.606,33.958L101.041,37.86C103.617,39.994 105.796,43.239 107.343,47.213L112.749,47.667L114.417,49.312L114.417,61.376L109.859,61.376C109.859,75.913 102.692,80.02 93.854,80.02Z" style="fill:none;fill-rule:nonzero;stroke:black;stroke-width:1.45px;"/>
    <path id="path56873" d="M105.751,68.862C107.059,65.845 107.835,62.183 107.835,58.047C107.835,54.868 107.371,51.855 106.565,49.141C105.652,48.816 104.712,48.53 103.749,48.278C104.996,54.127 105.733,61.214 105.751,68.862" style="fill:rgb(199,199,199);fill-rule:nonzero;"/>
    <path id="path56877" d="M105.751,68.862C107.059,65.845 107.835,62.183 107.835,58.047C107.835,54.868 107.371,51.855 106.565,49.141C105.652,48.816 104.712,48.53 103.749,48.278C104.996,54.127 105.733,61.214 105.751,68.862Z" style="fill:none;fill-rule:nonzero;stroke:rgb(199,199,199);stroke-width:0.97px;"/>
    <path id="path56881" d="M81.955,68.869C81.971,61.218 82.71,54.128 83.957,48.277C82.994,48.529 82.052,48.815 81.14,49.14C80.333,51.855 79.87,54.867 79.87,58.046C79.87,62.185 80.647,65.851 81.955,68.869" style="fill:rgb(199,199,199);fill-rule:nonzero;"/>
    <path id="path56885" d="M81.955,68.869C81.971,61.218 82.71,54.128 83.957,48.277C82.994,48.529 82.052,48.815 81.14,49.14C80.333,51.855 79.87,54.867 79.87,58.046C79.87,62.185 80.647,65.851 81.955,68.869Z" style="fill:none;fill-rule:nonzero;stroke:rgb(199,199,199);stroke-width:0.97px;"/>
    <path id="path56889" d="M101.079,45.448C100.144,42.55 98.978,41.863 97.66,40.314C96.44,39.791 95.16,39.505 93.855,39.505C92.552,39.505 91.272,39.791 90.054,40.314C88.735,41.863 87.568,42.55 86.632,45.448C88.938,45.086 91.357,44.89 93.855,44.89C96.355,44.89 98.774,45.086 101.079,45.448" style="fill:rgb(199,199,199);fill-rule:nonzero;"/>
    <path id="path56893" d="M101.079,45.448C100.144,42.55 98.978,41.863 97.66,40.314C96.44,39.791 95.16,39.505 93.855,39.505C92.552,39.505 91.272,39.791 90.054,40.314C88.735,41.863 87.568,42.55 86.632,45.448C88.938,45.086 91.357,44.89 93.855,44.89C96.355,44.89 98.774,45.086 101.079,45.448Z" style="fill:none;fill-rule:nonzero;stroke:rgb(199,199,199);stroke-width:0.97px;"/>
    <path id="path56901" d="M84.256,69.643C86.041,72.677 88.345,75.319 90.995,76.181L91.659,73.314L96.461,73.314L97.065,76.019C99.532,75.073 101.776,72.504 103.456,69.647C103.465,69.124 103.468,68.598 103.468,68.07C103.468,60.357 102.69,53.267 101.39,47.661C99.001,47.134 96.473,46.848 93.855,46.848C91.238,46.848 88.712,47.134 86.323,47.661C85.022,53.267 84.244,60.357 84.244,68.07C84.244,68.597 84.248,69.12 84.256,69.643Z" style="fill:none;fill-rule:nonzero;stroke:rgb(199,199,199);stroke-width:0.97px;"/>
    <path id="path56897" d="M83.771,68.52C85.556,71.554 87.86,74.196 90.51,75.058L91.174,72.191L95.976,72.191L96.58,74.896C99.047,73.95 101.291,71.381 102.971,68.524C102.98,68.001 102.983,67.475 102.983,66.947C102.983,59.234 102.205,52.144 100.905,46.538C98.516,46.011 95.988,45.725 93.37,45.725C90.753,45.725 88.227,46.011 85.838,46.538C84.537,52.144 83.759,59.234 83.759,66.947C83.759,67.474 83.763,67.997 83.771,68.52" style="fill:rgb(199,199,199);fill-rule:nonzero;"/>
    <path id="polygon751" d="M179.364,111.607L186.854,115.859L186.854,53.747L184.781,2.394L160.025,0.725L159.704,32.185L155.016,32.237L153.851,44.993L162.764,50.662L173.695,63.418L179.364,111.607Z" style="fill:white;fill-rule:nonzero;stroke:black;stroke-width:1.45px;stroke-linejoin:round;"/>
    <path id="polygon753" d="M175.254,116.153L174.123,116.252L174.073,115.687L175.722,114.972L175.62,113.842L173.875,113.424L173.825,112.859L174.957,112.759L175.94,110.964L173.812,86.645L170.855,64.747L161.769,53.993L150.906,46.286L146.781,47.911L146.781,60.474L145.866,66.864L143.443,66.154L142.422,88.273L146.468,86.758L146.766,90.152L148.511,90.568L150.489,113.191L151.769,114.788L152.9,114.69L152.949,115.255L151.303,115.969L151.402,117.1L153.149,117.517L153.197,118.083L152.066,118.182L151.083,119.977L153.705,149.951L155.551,151.5L175.91,149.719L182.005,141.207L177.099,117.701L175.254,116.153Z" style="fill:white;fill-rule:nonzero;stroke:black;stroke-width:1.45px;stroke-linejoin:round;"/>
    <rect id="placeholder-canon-shield-dc-RA-00" x="161.612" y="10.03" width="23.3" height="6.152" style="fill:none;stroke:rgb(225,29,72);stroke-opacity:0.9;stroke-width:1.25px;stroke-dasharray:3,1.5;"/>
    <rect id="placeholder-canon-shield-dc-RA-01" x="161.612" y="15.357" width="23.3" height="6.152" style="fill:none;stroke:rgb(225,29,72);stroke-opacity:0.9;stroke-width:1.25px;stroke-dasharray:3,1.5;"/>
    <rect id="placeholder-canon-shield-dc-RA-02" x="161.612" y="20.684" width="23.3" height="6.152" style="fill:none;stroke:rgb(225,29,72);stroke-opacity:0.9;stroke-width:1.25px;stroke-dasharray:3,1.5;"/>
    <rect id="placeholder-canon-shield-dc-RA-03" x="161.612" y="26.011" width="23.3" height="6.152" style="fill:none;stroke:rgb(225,29,72);stroke-opacity:0.9;stroke-width:1.25px;stroke-dasharray:3,1.5;"/>
    <rect id="placeholder-canon-shield-dc-RA-04" x="161.612" y="31.338" width="23.3" height="6.152" style="fill:none;stroke:rgb(225,29,72);stroke-opacity:0.9;stroke-width:1.25px;stroke-dasharray:3,1.5;"/>
    <rect id="placeholder-canon-shield-dc-RA-05" x="156.612" y="36.666" width="21.2" height="6.152" style="fill:none;stroke:rgb(225,29,72);stroke-opacity:0.9;stroke-width:1.25px;stroke-dasharray:3,1.5;"/>
    <rect id="placeholder-canon-shield-dc-RA-06" x="160.162" y="41.993" width="19.8" height="6.152" style="fill:none;stroke:rgb(225,29,72);stroke-opacity:0.9;stroke-width:1.25px;stroke-dasharray:3,1.5;"/>
    <rect id="placeholder-canon-shield-dc-RA-07" x="166.282" y="47.32" width="15.7" height="6.152" style="fill:none;stroke:rgb(225,29,72);stroke-opacity:0.9;stroke-width:1.25px;stroke-dasharray:3,1.5;"/>
    <path id="polygon775" d="M8.603,111.607L1.112,115.859L1.112,53.747L3.186,2.394L27.942,0.725L28.262,32.185L32.949,32.237L34.114,44.993L25.201,50.662L14.272,63.418L8.603,111.607Z" style="fill:white;fill-rule:nonzero;stroke:black;stroke-width:1.45px;stroke-linejoin:round;"/>
    <path id="polygon777" d="M12.646,116.153L13.777,116.252L13.825,115.687L12.176,114.972L12.279,113.842L14.025,113.424L14.073,112.859L12.943,112.759L11.959,110.964L14.086,86.645L17.043,64.747L26.129,53.993L36.991,46.286L41.116,47.911L41.116,60.474L42.032,66.864L44.456,66.154L45.478,88.273L41.431,86.758L41.133,90.152L39.387,90.568L37.409,113.191L36.129,114.788L34.999,114.69L34.948,115.255L36.597,115.969L36.497,117.1L34.75,117.517L34.7,118.083L35.833,118.182L36.816,119.977L34.193,149.951L32.349,151.5L11.988,149.719L5.894,141.207L10.799,117.701L12.646,116.153Z" style="fill:white;fill-rule:nonzero;stroke:black;stroke-width:1.45px;stroke-linejoin:round;"/>
    <rect id="placeholder-canon-shield-dc-LA-00" x="3.759" y="10.03" width="23.3" height="6.152" style="fill:none;stroke:rgb(225,29,72);stroke-opacity:0.9;stroke-width:1.25px;stroke-dasharray:3,1.5;"/>
    <path id="placeholder-fill-armor-LT-00" d="M47.256,65.939L73.834,64.99L74.512,101.737C74.512,101.737 75.665,125.874 76.58,127.772C77.495,129.67 76.58,149.887 76.58,149.887L53.494,149.887L54.172,135.366L68.224,132.098C68.224,132.098 59.869,115.006 61.774,101.381L48.07,99.703L47.256,65.939Z" style="fill:none;stroke:rgb(0,59,255);stroke-width:1.2px;stroke-dasharray:2.88,1.44,0,0,0,0;"/>
    <path id="placeholder-rail-armor-RT-05-capacity-5" d="M113.234,134.684L113.234,146.493L131.939,146.493" style="fill:none;stroke:rgb(255,0,0);stroke-width:1px;stroke-linecap:round;stroke-linejoin:round;stroke-miterlimit:1.5;"/>
    <path id="placeholder-rail-armor-RT-04-capacity-5" d="M122.985,103.119C122.985,103.119 122.561,118.053 118.956,128.765" style="fill:rgb(235,235,235);stroke:rgb(255,0,0);stroke-width:1px;stroke-linecap:round;stroke-linejoin:round;stroke-miterlimit:1.5;"/>
    <path id="placeholder-rail-armor-RT-03-capacity-5" d="M116.291,103.119C116.291,103.119 115.954,118.053 113.095,128.765" style="fill:rgb(235,235,235);stroke:rgb(255,0,0);stroke-width:1px;stroke-linecap:round;stroke-linejoin:round;stroke-miterlimit:1.5;"/>
    <path id="placeholder-rail-armor-RT-01-capacity-5" d="M135.991,67.303L135.991,97.729" style="fill:none;stroke:rgb(255,0,0);stroke-width:1px;stroke-linecap:round;stroke-linejoin:round;stroke-miterlimit:1.5;"/>
    <path id="placeholder-rail-armor-RT-02-capacity-5" d="M116.291,67.303L116.291,97.729" style="fill:none;stroke:rgb(255,0,0);stroke-width:1px;stroke-linecap:round;stroke-linejoin:round;stroke-miterlimit:1.5;"/>
    <path id="placeholder-rail-armor-RT-00-capacity-5" d="M125.932,67.303L125.932,97.729" style="fill:none;stroke:rgb(255,0,0);stroke-width:1px;stroke-linecap:round;stroke-linejoin:round;stroke-miterlimit:1.5;"/>
    <rect id="placeholder-canon-shield-dc-LA-01" x="3.759" y="15.357" width="23.3" height="6.152" style="fill:none;stroke:rgb(225,29,72);stroke-opacity:0.9;stroke-width:1.25px;stroke-dasharray:3,1.5;"/>
    <rect id="placeholder-canon-shield-dc-LA-02" x="3.759" y="20.684" width="23.3" height="6.152" style="fill:none;stroke:rgb(225,29,72);stroke-opacity:0.9;stroke-width:1.25px;stroke-dasharray:3,1.5;"/>
    <rect id="placeholder-canon-shield-dc-LA-03" x="3.759" y="26.011" width="23.3" height="6.152" style="fill:none;stroke:rgb(225,29,72);stroke-opacity:0.9;stroke-width:1.25px;stroke-dasharray:3,1.5;"/>
    <rect id="placeholder-canon-shield-dc-LA-04" x="3.759" y="31.338" width="23.3" height="6.152" style="fill:none;stroke:rgb(225,29,72);stroke-opacity:0.9;stroke-width:1.25px;stroke-dasharray:3,1.5;"/>
    <rect id="placeholder-canon-shield-dc-LA-05" x="10.859" y="36.666" width="21.2" height="6.152" style="fill:none;stroke:rgb(225,29,72);stroke-opacity:0.9;stroke-width:1.25px;stroke-dasharray:3,1.5;"/>
    <rect id="placeholder-canon-shield-dc-LA-06" x="8.709" y="41.993" width="19.8" height="6.152" style="fill:none;stroke:rgb(225,29,72);stroke-opacity:0.9;stroke-width:1.25px;stroke-dasharray:3,1.5;"/>
    <rect id="placeholder-canon-shield-dc-LA-07" x="6.689" y="47.32" width="15.7" height="6.152" style="fill:none;stroke:rgb(225,29,72);stroke-opacity:0.9;stroke-width:1.25px;stroke-dasharray:3,1.5;"/>
    <g fill="none" id="shieldDALA" loc="DALA" class="shield unitLocation" transform="translate(4.5 66) rotate(3)">
      <rect x="0" width="6" y="0" stroke="red" height="44" id="placeholder-canon-shield-da-LA-00"/>
    </g>
    <rect id="placeholder-canon-armor-HD" x="85.252" y="46.714" width="17.088" height="24.279" style="fill: none; stroke: rgb(225, 29, 72); stroke-opacity: 0.9; stroke-width: 1.2px; stroke-dasharray: 2.88, 1.44;"/>
    <rect id="placeholder-canon-armor-CT" x="80.618" y="80.02" width="26.448" height="85.873" style="fill: none; stroke: rgb(225, 29, 72); stroke-opacity: 0.9; stroke-width: 1.03px; stroke-dasharray: 2.473, 1.237;"/>
    <rect id="placeholder-canon-armor-LT" x="48.002" y="64.284" width="28.578" height="84.385" style="fill: none; stroke: rgb(225, 29, 72); stroke-opacity: 0.9; stroke-width: 1.18px; stroke-dasharray: 2.832, 1.416;"/>
    <rect id="placeholder-canon-armor-RT" x="111.127" y="64.419" width="28.595" height="84.521" style="fill: none; stroke: rgb(225, 29, 72); stroke-opacity: 0.9; stroke-width: 1.18px; stroke-dasharray: 2.832, 1.416;"/>
    <rect id="placeholder-canon-armor-LA" x="13.749" y="56" width="32.141" height="91" style="fill: none; stroke: rgb(225, 29, 72); stroke-opacity: 0.9; stroke-width: 1.05px; stroke-dasharray: 2.511, 1.256;"/>
    <rect id="placeholder-canon-armor-RA" x="144.074" y="56" width="32.141" height="91" style="fill: none; stroke: rgb(225, 29, 72); stroke-opacity: 0.9; stroke-width: 1.05px; stroke-dasharray: 2.527, 1.263;"/>
    <rect id="placeholder-canon-armor-LL" x="26.226" y="154.595" width="58.893" height="121.954" style="fill: none; stroke: rgb(225, 29, 72); stroke-opacity: 0.9; stroke-width: 1.19px; stroke-dasharray: 2.855, 1.428;"/>
    <rect id="placeholder-canon-armor-RL" x="101.826" y="154.595" width="58.209" height="121.954" style="fill: none; stroke: rgb(225, 29, 72); stroke-opacity: 0.9; stroke-width: 1.19px; stroke-dasharray: 2.861, 1.43;"/>
    <g fill="none" id="shieldDARA" loc="DARA" class="shield unitLocation" transform="translate(177.5 66) rotate(-3)">
      <rect x="0" width="6" y="0" stroke="red" height="44" id="placeholder-canon-shield-da-RA-00"/>
    </g>
  </g>
</svg>