<?xml version="1.0" encoding="utf-8"?>
<svg width="100%" height="100%" viewBox="0 0 117 171" version="1.1" xmlns="http://www.w3.org/2000/svg" style="fill-rule:evenodd;clip-rule:evenodd;">
  <g id="paperdoll-art-structure">
    <path id="path56107" d="M94.461,36.98L94.461,27.787L92.929,27.404L92.547,23.574L89.482,22.425L87.566,22.425L86.8,22.808L86.034,22.425L84.119,22.425L83.736,23.192L82.204,23.192L82.204,22.425L81.054,22.425L80.288,21.275L74.925,21.275L74.16,22.425L71.863,22.425L71.863,52.245L69.564,68.448L69.546,81.795L87.95,81.795L87.566,79.497L87.95,78.732L88.716,78.349L88.716,77.966L87.95,77.582L87.95,76.816L87.566,76.434L87.566,72.603L87.184,71.838L79.14,69.921L78.374,69.156L77.608,69.156L77.608,67.623L78.374,67.623L79.14,66.858L79.14,64.559L79.906,63.793L79.906,62.643L79.14,62.261L79.14,59.963L80.288,59.197L81.438,55.75L82.586,55.75L81.82,54.984L81.438,54.984L81.438,54.218L81.82,54.218L81.82,53.452L81.438,53.452L81.438,52.685L81.82,52.685L82.586,51.919L81.438,51.919L81.438,49.62L82.586,49.62L82.97,48.471L83.736,48.471L86.418,46.555L87.184,46.555L87.95,47.705L90.63,47.705L91.014,46.555L92.163,46.555L92.547,43.491L92.929,43.109L92.929,40.045L92.547,39.661L92.547,37.746L94.461,36.98Z" style="fill:rgb(199,199,199);fill-rule:nonzero;"/>
    <path id="path56111" d="M95.445,27.882C95.982,27.837 96.503,27.889 96.994,28.015L96.938,27.368L97.636,26.538L97.676,22.628L98.374,21.799L107.213,21.026L111.229,22.982L111.401,24.95L112.263,26.027L112.364,27.172L111.701,28.384L111.835,29.91L113.394,30.158L112.917,37.89L112.535,37.924L112.669,39.45L113.051,39.416L112.97,42.884L113.237,45.936L114.067,46.632L114.167,47.778L113.504,48.989L114.005,54.713L113.308,55.544L113.374,56.306L114.52,56.205L114.968,56.935L115.067,58.08L114.754,58.877L113.609,58.977L113.708,60.122L114.539,60.819L114.74,63.108L116.366,64.119L115.14,67.687L114.443,68.516L114.544,69.661L113.78,69.727L113.847,70.49L114.611,70.424L115.412,79.582L114.467,81.972L114.533,82.735L115.33,83.05L115.431,84.196L114.7,84.644L114.835,86.169L114.816,94.276L113.174,97.494L105.304,98.358L104.508,98.044L106.931,94.751L104.05,89.272L104.054,86.727L105.033,84.72L103.687,82.531L102.718,71.465L103.382,70.253L103.314,69.49L101.689,68.479L101.121,61.992L101.818,61.161L101.718,60.017L100.573,60.117L100.125,59.388L100.024,58.243L100.338,57.446L101.484,57.346L101.416,56.583L100.587,55.887L99.619,44.82L99.866,43.261L99.633,40.59L99.152,39.479L99.018,37.953L97.806,37.289L97.75,36.641C97.286,36.851 96.783,36.994 96.247,37.041C95.485,37.107 94.751,36.982 94.092,36.708L94.092,28.213C94.513,28.038 94.968,27.925 95.445,27.882" style="fill:rgb(199,199,199);fill-rule:nonzero;"/>
    <path id="path56115" d="M23.847,27.882C23.311,27.837 22.79,27.889 22.298,28.015L22.354,27.368L21.657,26.538L21.615,22.628L20.919,21.799L12.08,21.026L8.063,22.982L7.891,24.95L7.029,26.027L6.928,27.172L7.592,28.384L7.457,29.91L5.898,30.158L6.376,37.89L6.757,37.924L6.624,39.45L6.241,39.416L6.322,42.884L6.056,45.936L5.226,46.632L5.126,47.778L5.789,48.989L5.288,54.713L5.985,55.544L5.918,56.306L4.773,56.205L4.325,56.935L4.224,58.08L4.539,58.877L5.684,58.977L5.585,60.122L4.754,60.819L4.553,63.108L2.927,64.119L4.152,67.687L4.85,68.516L4.748,69.661L5.512,69.727L5.445,70.49L4.682,70.424L3.881,79.582L4.826,81.972L4.759,82.735L3.962,83.05L3.861,84.196L4.592,84.644L4.458,86.169L4.477,94.276L6.117,97.494L13.989,98.358L14.785,98.044L12.361,94.751L15.243,89.272L15.239,86.727L14.26,84.72L15.606,82.531L16.574,71.465L15.91,70.253L15.977,69.49L17.603,68.479L18.171,61.992L17.475,61.161L17.575,60.017L18.72,60.117L19.168,59.388L19.269,58.243L18.954,57.446L17.808,57.346L17.876,56.583L18.706,55.887L19.673,44.82L19.426,43.261L19.66,40.59L20.141,39.479L20.275,37.953L21.486,37.289L21.542,36.641C22.007,36.851 22.509,36.994 23.046,37.041C23.808,37.107 24.541,36.982 25.201,36.708L25.201,28.213C24.78,28.038 24.325,27.925 23.847,27.882" style="fill:rgb(199,199,199);fill-rule:nonzero;"/>
    <path id="path56119" d="M85.168,85.023L86.259,85.909L86.75,86.953L87.496,89.496L87.941,92.119L88.024,94.447L87.916,95.65L87.271,97.388L87.462,98.512L88.126,98.727L88.316,99.852L87.717,100.011L87.845,100.76L88.508,100.975L87.972,101.509L88.1,102.259L88.698,102.099L88.891,103.224L88.355,103.758L88.61,105.256L89.508,105.017L89.763,106.516L89.056,107.878L89.628,111.25L89.156,112.159C89.156,112.159 90.685,112.439 90.89,112.59C91.096,112.741 91.4,115.121 91.196,115.587C90.992,116.054 89.97,117.036 89.97,117.036L90.366,119.278L91.584,120.911L92.521,124.579L92.113,125.863L94.261,127.761L98.91,143.465L98.604,148.063L96.037,152.623L97.12,158.993L97.884,163.489L108.486,167.98L107.566,170.661L84.113,170.661L84.113,169.513L85.032,167.597L87.639,165.958L85.952,157.639L85.645,157.639L85.645,154.191L82.633,153.425L79.588,146.913L78.904,131.113L79.823,128.91L79.941,128.06L78.944,123.95L78.445,121.837L77.928,119.214C77.928,119.214 77.158,118.951 76.602,118.783C76.047,118.616 75.627,116.27 76.092,115.786C76.559,115.303 77.164,114.718 77.164,114.718L76.438,114.129L76.93,111.506L74.794,108.158L72.317,99.914L72.474,97.667L73.182,96.304L72.69,95.26L70.401,81.796L84.62,81.796L85.168,85.023Z" style="fill:rgb(199,199,199);fill-rule:nonzero;"/>
    <path id="path56123" d="M33.964,85.023L32.873,85.909L32.382,86.953L31.637,89.496L31.191,92.119L31.108,94.447L31.216,95.65L31.861,97.388L31.67,98.512L31.007,98.727L30.816,99.852L31.415,100.011L31.288,100.76L30.625,100.975L31.16,101.509L31.032,102.259L30.434,102.099L30.242,103.224L30.777,103.758L30.522,105.256L29.624,105.017L29.369,106.516L30.077,107.878L29.504,111.25L29.976,112.159C29.976,112.159 28.447,112.439 28.242,112.59C28.036,112.741 27.732,115.121 27.936,115.587C28.14,116.054 29.161,117.036 29.161,117.036L28.765,119.278L27.547,120.911L26.611,124.579L27.02,125.863L24.871,127.761L20.222,143.465L20.529,148.063L23.095,152.623L22.012,158.993L21.248,163.489L10.646,167.98L11.566,170.661L35.02,170.661L35.02,169.513L34.1,167.597L31.494,165.958L33.181,157.639L33.487,157.639L33.487,154.191L36.499,153.425L39.544,146.913L40.228,131.113L39.309,128.91L39.191,128.06L40.188,123.95L40.688,121.837L41.203,119.214C41.203,119.214 41.974,118.951 42.53,118.783C43.085,118.616 43.506,116.27 43.04,115.786C42.573,115.303 41.968,114.718 41.968,114.718L42.694,114.129L42.202,111.506L44.338,108.158L46.816,99.914L46.659,97.667L45.95,96.304L46.442,95.26L48.731,81.796L34.512,81.796L33.964,85.023Z" style="fill:rgb(199,199,199);fill-rule:nonzero;"/>
    <path id="path56127" d="M48.354,52.357L48.354,22.537L46.056,22.537L45.29,21.387L39.927,21.387L39.161,22.537L38.013,22.537L38.013,23.304L36.48,23.304L36.097,22.537L34.182,22.537L33.415,22.921L32.649,22.537L30.735,22.537L27.67,23.687L27.287,27.517L25.755,27.9L25.755,37.093L27.67,37.859L27.67,39.774L27.287,40.157L27.287,43.22L27.67,43.603L28.053,46.667L29.203,46.667L29.585,47.818L32.267,47.818L33.033,46.667L33.799,46.667L36.48,48.584L37.246,48.584L37.629,49.733L38.779,49.733L38.779,52.031L37.629,52.031L38.395,52.797L38.779,52.797L38.779,53.564L38.395,53.564L38.395,54.33L38.779,54.33L38.779,55.096L38.395,55.096L37.629,55.862L38.779,55.862L39.927,59.309L41.077,60.075L41.077,62.373L40.311,62.756L40.311,63.904L41.077,64.67L41.077,66.97L41.843,67.736L42.609,67.736L42.609,69.268L41.843,69.268L41.077,70.034L33.033,71.95L32.649,72.715L32.649,76.546L32.267,76.929L32.267,77.695L31.502,78.078L31.502,78.461L32.267,78.844L32.649,79.61L32.267,81.908L50.653,81.908L50.653,68.56L48.354,52.357Z" style="fill:rgb(199,199,199);fill-rule:nonzero;"/>
    <path id="path56131" d="M69.09,12.261L69.562,11.546L68.989,10.55L68.133,10.602L67.344,11.058C66.014,8.694 65.153,6.937 63.051,6.247L61.903,2.506L57.944,2.506L56.921,6.337C54.898,7.09 53.848,8.847 52.568,11.168L51.587,10.602L50.732,10.55L50.157,11.546L50.63,12.261L51.747,12.905C50.899,15.021 50.41,17.489 50.41,20.126C50.41,27.954 54.698,31.233 59.986,31.233C65.276,31.233 69.562,27.954 69.562,20.126C69.562,17.438 69.057,14.927 68.18,12.786L69.09,12.261Z" style="fill:rgb(199,199,199);fill-rule:nonzero;"/>
    <path id="path56135" d="M72.556,52.245L70.257,68.448L70.241,81.796L70.241,82.562L68.725,82.562L68.725,83.328L69.857,83.328L69.857,84.477L68.725,84.477L68.725,85.243L69.491,85.243L69.491,86.392L68.725,86.392L68.725,87.158L69.491,87.158L69.491,88.307L66.81,92.904L54.552,92.904L51.871,88.307L51.871,87.158L52.637,87.158L52.637,86.392L51.871,86.392L51.871,85.243L52.637,85.243L52.637,84.477L51.489,84.477L51.489,83.328L52.637,83.328L52.637,82.562L51.105,82.562L51.105,68.448L48.806,52.245L48.806,18.913L50.723,17.062L70.641,17.062L72.556,18.913L72.556,52.245Z" style="fill:rgb(199,199,199);fill-rule:nonzero;"/>
    <path id="paperdoll-art-structure-CT-isCT" d="M68.926,49.74L66.627,65.943L66.61,79.291L66.61,80.057L65.095,80.057L65.095,80.823L66.227,80.823L66.227,81.972L65.095,81.972L65.095,82.738L65.861,82.738L65.861,83.888L65.095,83.888L65.095,84.654L65.861,84.654L65.861,85.802L63.18,90.399L50.922,90.399L48.241,85.802L48.241,84.654L49.007,84.654L49.007,83.888L48.241,83.888L48.241,82.738L49.007,82.738L49.007,81.972L47.859,81.972L47.859,80.823L49.007,80.823L49.007,80.057L47.475,80.057L47.475,65.943L45.176,49.74L45.176,16.408L47.093,14.557L67.011,14.557L68.926,16.408L68.926,49.74Z" style="fill:white;fill-rule:nonzero;"/>
    <path id="path56537" d="M68.926,49.74L66.627,65.943L66.61,79.291L66.61,80.057L65.095,80.057L65.095,80.823L66.227,80.823L66.227,81.972L65.095,81.972L65.095,82.738L65.861,82.738L65.861,83.888L65.095,83.888L65.095,84.654L65.861,84.654L65.861,85.802L63.18,90.399L50.922,90.399L48.241,85.802L48.241,84.654L49.007,84.654L49.007,83.888L48.241,83.888L48.241,82.738L49.007,82.738L49.007,81.972L47.859,81.972L47.859,80.823L49.007,80.823L49.007,80.057L47.475,80.057L47.475,65.943L45.176,49.74L45.176,16.408L47.093,14.557L67.011,14.557L68.926,16.408L68.926,49.74Z" style="fill:none;fill-rule:nonzero;stroke:black;stroke-width:1.45px;"/>
    <path id="paperdoll-art-structure-RT-isRT" d="M91.722,34.475L91.722,25.281L90.19,24.899L89.808,21.069L86.743,19.92L84.827,19.92L84.061,20.303L83.295,19.92L81.38,19.92L80.997,20.687L79.465,20.687L79.465,19.92L78.315,19.92L77.549,18.77L72.187,18.77L71.421,19.92L69.124,19.92L69.124,49.74L66.825,65.943L66.807,79.291L85.211,79.291L84.827,76.992L85.211,76.227L85.977,75.844L85.977,75.461L85.211,75.077L85.211,74.311L84.827,73.929L84.827,70.098L84.445,69.333L76.401,67.417L75.635,66.65L74.869,66.65L74.869,65.118L75.635,65.118L76.401,64.353L76.401,62.054L77.167,61.288L77.167,60.138L76.401,59.756L76.401,57.458L77.549,56.692L78.699,53.245L79.847,53.245L79.081,52.479L78.699,52.479L78.699,51.713L79.081,51.713L79.081,50.947L78.699,50.947L78.699,50.18L79.081,50.18L79.847,49.414L78.699,49.414L78.699,47.115L79.847,47.115L80.232,45.966L80.997,45.966L83.679,44.05L84.445,44.05L85.211,45.2L87.891,45.2L88.275,44.05L89.424,44.05L89.808,40.986L90.19,40.604L90.19,37.54L89.808,37.156L89.808,35.241L91.722,34.475Z" style="fill:white;fill-rule:nonzero;"/>
    <path id="path56545" d="M91.722,34.475L91.722,25.281L90.19,24.899L89.808,21.069L86.743,19.92L84.827,19.92L84.061,20.303L83.295,19.92L81.38,19.92L80.997,20.687L79.465,20.687L79.465,19.92L78.315,19.92L77.549,18.77L72.187,18.77L71.421,19.92L69.124,19.92L69.124,49.74L66.825,65.943L66.807,79.291L85.211,79.291L84.827,76.992L85.211,76.227L85.977,75.844L85.977,75.461L85.211,75.077L85.211,74.311L84.827,73.929L84.827,70.098L84.445,69.333L76.401,67.417L75.635,66.65L74.869,66.65L74.869,65.118L75.635,65.118L76.401,64.353L76.401,62.054L77.167,61.288L77.167,60.138L76.401,59.756L76.401,57.458L77.549,56.692L78.699,53.245L79.847,53.245L79.081,52.479L78.699,52.479L78.699,51.713L79.081,51.713L79.081,50.947L78.699,50.947L78.699,50.18L79.081,50.18L79.847,49.414L78.699,49.414L78.699,47.115L79.847,47.115L80.232,45.966L80.997,45.966L83.679,44.05L84.445,44.05L85.211,45.2L87.891,45.2L88.275,44.05L89.424,44.05L89.808,40.986L90.19,40.604L90.19,37.54L89.808,37.156L89.808,35.241L91.722,34.475Z" style="fill:none;fill-rule:nonzero;stroke:black;stroke-width:1.45px;"/>
    <path id="paperdoll-art-structure-RA-isRA" d="M92.517,25.377C93.054,25.332 93.575,25.384 94.066,25.51L94.01,24.863L94.708,24.033L94.749,20.123L95.446,19.294L104.285,18.521L108.301,20.477L108.473,22.445L109.335,23.522L109.436,24.667L108.773,25.879L108.907,27.405L110.466,27.653L109.989,35.385L109.607,35.419L109.741,36.944L110.123,36.911L110.042,40.379L110.309,43.431L111.139,44.127L111.239,45.273L110.576,46.484L111.077,52.208L110.38,53.039L110.446,53.801L111.592,53.7L112.04,54.43L112.139,55.575L111.826,56.372L110.681,56.472L110.78,57.617L111.611,58.314L111.812,60.603L113.438,61.614L112.212,65.182L111.515,66.011L111.616,67.156L110.853,67.222L110.919,67.985L111.683,67.919L112.484,77.077L111.539,79.467L111.605,80.23L112.402,80.545L112.504,81.69L111.773,82.139L111.907,83.664L111.888,91.771L110.247,94.989L102.376,95.853L101.58,95.539L104.003,92.245L101.122,86.767L101.126,84.222L102.105,82.215L100.759,80.026L99.79,68.96L100.454,67.748L100.387,66.985L98.761,65.974L98.193,59.486L98.89,58.656L98.79,57.511L97.645,57.612L97.197,56.883L97.096,55.738L97.411,54.941L98.556,54.841L98.488,54.078L97.659,53.382L96.691,42.315L96.938,40.756L96.705,38.084L96.224,36.974L96.09,35.448L94.878,34.784L94.822,34.136C94.358,34.346 93.855,34.489 93.319,34.536C92.557,34.602 91.823,34.477 91.164,34.203L91.164,25.708C91.585,25.533 92.04,25.42 92.517,25.377" style="fill:white;fill-rule:nonzero;"/>
    <path id="path56561" d="M92.517,25.377C93.054,25.332 93.575,25.384 94.066,25.51L94.01,24.863L94.708,24.033L94.749,20.123L95.446,19.294L104.285,18.521L108.301,20.477L108.473,22.445L109.335,23.522L109.436,24.667L108.773,25.879L108.907,27.405L110.466,27.653L109.989,35.385L109.607,35.419L109.741,36.944L110.123,36.911L110.042,40.379L110.309,43.431L111.139,44.127L111.239,45.273L110.576,46.484L111.077,52.208L110.38,53.039L110.446,53.801L111.592,53.7L112.04,54.43L112.139,55.575L111.826,56.372L110.681,56.472L110.78,57.617L111.611,58.314L111.812,60.603L113.438,61.614L112.212,65.182L111.515,66.011L111.616,67.156L110.853,67.222L110.919,67.985L111.683,67.919L112.484,77.077L111.539,79.467L111.605,80.23L112.402,80.545L112.504,81.69L111.773,82.139L111.907,83.664L111.888,91.771L110.247,94.989L102.376,95.853L101.58,95.539L104.003,92.245L101.122,86.767L101.126,84.222L102.105,82.215L100.759,80.026L99.79,68.96L100.454,67.748L100.387,66.985L98.761,65.974L98.193,59.486L98.89,58.656L98.79,57.511L97.645,57.612L97.197,56.883L97.096,55.738L97.411,54.941L98.556,54.841L98.488,54.078L97.659,53.382L96.691,42.315L96.938,40.756L96.705,38.084L96.224,36.974L96.09,35.448L94.878,34.784L94.822,34.136C94.358,34.346 93.855,34.489 93.319,34.536C92.557,34.602 91.823,34.477 91.164,34.203L91.164,25.708C91.585,25.533 92.04,25.42 92.517,25.377Z" style="fill:none;fill-rule:nonzero;stroke:black;stroke-width:1.45px;"/>
    <path id="paperdoll-art-structure-LA-isLA" d="M20.92,25.377C20.384,25.332 19.863,25.384 19.372,25.51L19.427,24.863L18.73,24.033L18.689,20.123L17.992,19.294L9.153,18.521L5.136,20.477L4.965,22.445L4.102,23.522L4.001,24.667L4.665,25.879L4.53,27.405L2.971,27.653L3.449,35.385L3.83,35.419L3.697,36.944L3.314,36.911L3.396,40.379L3.129,43.431L2.299,44.127L2.199,45.273L2.862,46.484L2.361,52.208L3.058,53.039L2.991,53.801L1.846,53.7L1.398,54.43L1.298,55.575L1.612,56.372L2.757,56.472L2.658,57.617L1.827,58.314L1.626,60.603L-0,61.614L1.225,65.182L1.923,66.011L1.822,67.156L2.586,67.222L2.518,67.985L1.755,67.919L0.954,77.077L1.899,79.467L1.832,80.23L1.035,80.545L0.935,81.69L1.666,82.139L1.531,83.664L1.55,91.771L3.191,94.989L11.062,95.853L11.858,95.539L9.434,92.245L12.316,86.767L12.312,84.222L11.333,82.215L12.679,80.026L13.647,68.96L12.983,67.748L13.051,66.985L14.676,65.974L15.244,59.486L14.548,58.656L14.648,57.511L15.793,57.612L16.241,56.883L16.342,55.738L16.028,54.941L14.881,54.841L14.949,54.078L15.779,53.382L16.746,42.315L16.499,40.756L16.733,38.084L17.214,36.974L17.348,35.448L18.559,34.784L18.615,34.136C19.08,34.346 19.582,34.489 20.119,34.536C20.881,34.602 21.614,34.477 22.274,34.203L22.274,25.708C21.853,25.533 21.398,25.42 20.92,25.377" style="fill:white;fill-rule:nonzero;"/>
    <path id="path56569" d="M20.92,25.377C20.384,25.332 19.863,25.384 19.372,25.51L19.427,24.863L18.73,24.033L18.689,20.123L17.992,19.294L9.153,18.521L5.136,20.477L4.965,22.445L4.102,23.522L4.001,24.667L4.665,25.879L4.53,27.405L2.971,27.653L3.449,35.385L3.83,35.419L3.697,36.944L3.314,36.911L3.396,40.379L3.129,43.431L2.299,44.127L2.199,45.273L2.862,46.484L2.361,52.208L3.058,53.039L2.991,53.801L1.846,53.7L1.398,54.43L1.298,55.575L1.612,56.372L2.757,56.472L2.658,57.617L1.827,58.314L1.626,60.603L-0,61.614L1.225,65.182L1.923,66.011L1.822,67.156L2.586,67.222L2.518,67.985L1.755,67.919L0.954,77.077L1.899,79.467L1.832,80.23L1.035,80.545L0.935,81.69L1.666,82.139L1.531,83.664L1.55,91.771L3.191,94.989L11.062,95.853L11.858,95.539L9.434,92.245L12.316,86.767L12.312,84.222L11.333,82.215L12.679,80.026L13.647,68.96L12.983,67.748L13.051,66.985L14.676,65.974L15.244,59.486L14.548,58.656L14.648,57.511L15.793,57.612L16.241,56.883L16.342,55.738L16.028,54.941L14.881,54.841L14.949,54.078L15.779,53.382L16.746,42.315L16.499,40.756L16.733,38.084L17.214,36.974L17.348,35.448L18.559,34.784L18.615,34.136C19.08,34.346 19.582,34.489 20.119,34.536C20.881,34.602 21.614,34.477 22.274,34.203L22.274,25.708C21.853,25.533 21.398,25.42 20.92,25.377Z" style="fill:none;fill-rule:nonzero;stroke:black;stroke-width:1.45px;"/>
    <path id="paperdoll-art-structure-HD-isHD" d="M65.851,9.755L66.323,9.04L65.75,8.044L64.894,8.096L64.105,8.552C62.774,6.188 61.914,4.431 59.812,3.741L58.664,0L54.705,0L53.682,3.831C51.659,4.584 50.609,6.341 49.329,8.662L48.348,8.096L47.493,8.044L46.918,9.04L47.391,9.755L48.508,10.399C47.66,12.515 47.171,14.983 47.171,17.621C47.171,25.448 51.459,28.728 56.747,28.728C62.037,28.728 66.323,25.448 66.323,17.621C66.323,14.932 65.818,12.421 64.941,10.28L65.851,9.755Z" style="fill:white;fill-rule:nonzero;"/>
    <path id="path56577" d="M65.851,9.755L66.323,9.04L65.75,8.044L64.894,8.096L64.105,8.552C62.774,6.188 61.914,4.431 59.812,3.741L58.664,0L54.705,0L53.682,3.831C51.659,4.584 50.609,6.341 49.329,8.662L48.348,8.096L47.493,8.044L46.918,9.04L47.391,9.755L48.508,10.399C47.66,12.515 47.171,14.983 47.171,17.621C47.171,25.448 51.459,28.728 56.747,28.728C62.037,28.728 66.323,25.448 66.323,17.621C66.323,14.932 65.818,12.421 64.941,10.28L65.851,9.755Z" style="fill:none;fill-rule:nonzero;stroke:black;stroke-width:1.45px;"/>
    <path id="paperdoll-art-structure-RL-isRL" d="M82.24,82.518L83.331,83.404L83.822,84.448L84.568,86.991L85.013,89.614L85.096,91.942L84.988,93.145L84.343,94.883L84.534,96.007L85.197,96.222L85.388,97.347L84.789,97.506L84.916,98.255L85.58,98.47L85.044,99.004L85.172,99.754L85.77,99.594L85.962,100.719L85.427,101.253L85.682,102.751L86.58,102.512L86.835,104.011L86.127,105.373L86.7,108.745L86.228,109.654C86.228,109.654 87.757,109.934 87.962,110.085C88.168,110.236 88.472,112.616 88.268,113.082C88.064,113.549 87.042,114.531 87.042,114.531L87.439,116.773L88.657,118.406L89.593,122.074L89.185,123.358L91.333,125.256L95.982,140.96L95.676,145.558L93.109,150.118L94.192,156.488L94.956,160.984L105.558,165.475L104.638,168.156L81.185,168.156L81.185,167.008L82.104,165.092L84.711,163.452L83.023,155.134L82.717,155.134L82.717,151.686L79.705,150.919L76.66,144.408L75.976,128.608L76.895,126.404L77.013,125.555L76.016,121.445L75.517,119.332L75,116.709C75,116.709 74.23,116.446 73.674,116.278C73.119,116.111 72.699,113.765 73.164,113.281C73.631,112.798 74.236,112.213 74.236,112.213L73.51,111.624L74.002,109.001L71.866,105.652L69.389,97.409L69.545,95.162L70.254,93.799L69.762,92.755L67.473,79.291L81.692,79.291L82.24,82.518Z" style="fill:white;fill-rule:nonzero;"/>
    <path id="path56585" d="M82.24,82.518L83.331,83.404L83.822,84.448L84.568,86.991L85.013,89.614L85.096,91.942L84.988,93.145L84.343,94.883L84.534,96.007L85.197,96.222L85.388,97.347L84.789,97.506L84.916,98.255L85.58,98.47L85.044,99.004L85.172,99.754L85.77,99.594L85.962,100.719L85.427,101.253L85.682,102.751L86.58,102.512L86.835,104.011L86.127,105.373L86.7,108.745L86.228,109.654C86.228,109.654 87.757,109.934 87.962,110.085C88.168,110.236 88.472,112.616 88.268,113.082C88.064,113.549 87.042,114.531 87.042,114.531L87.439,116.773L88.657,118.406L89.593,122.074L89.185,123.358L91.333,125.256L95.982,140.96L95.676,145.558L93.109,150.118L94.192,156.488L94.956,160.984L105.558,165.475L104.638,168.156L81.185,168.156L81.185,167.008L82.104,165.092L84.711,163.452L83.023,155.134L82.717,155.134L82.717,151.686L79.705,150.919L76.66,144.408L75.976,128.608L76.895,126.404L77.013,125.555L76.016,121.445L75.517,119.332L75,116.709C75,116.709 74.23,116.446 73.674,116.278C73.119,116.111 72.699,113.765 73.164,113.281C73.631,112.798 74.236,112.213 74.236,112.213L73.51,111.624L74.002,109.001L71.866,105.652L69.389,97.409L69.545,95.162L70.254,93.799L69.762,92.755L67.473,79.291L81.692,79.291L82.24,82.518Z" style="fill:none;fill-rule:nonzero;stroke:black;stroke-width:1.45px;"/>
    <path id="paperdoll-art-structure-LL-isLL" d="M31.036,82.518L29.945,83.404L29.454,84.448L28.709,86.991L28.263,89.614L28.18,91.942L28.288,93.145L28.933,94.883L28.742,96.007L28.078,96.222L27.888,97.347L28.487,97.506L28.359,98.255L27.697,98.47L28.232,99.004L28.104,99.754L27.506,99.594L27.313,100.719L27.849,101.253L27.594,102.751L26.696,102.512L26.441,104.011L27.148,105.373L26.576,108.745L27.048,109.654C27.048,109.654 25.519,109.934 25.314,110.085C25.108,110.236 24.804,112.616 25.008,113.082C25.212,113.549 26.233,114.531 26.233,114.531L25.837,116.773L24.619,118.406L23.683,122.074L24.092,123.358L21.943,125.256L17.294,140.96L17.601,145.558L20.167,150.118L19.084,156.488L18.32,160.984L7.718,165.475L8.638,168.156L32.092,168.156L32.092,167.008L31.172,165.092L28.566,163.452L30.252,155.134L30.559,155.134L30.559,151.686L33.571,150.919L36.616,144.408L37.3,128.608L36.381,126.404L36.263,125.555L37.26,121.445L37.76,119.332L38.276,116.709C38.276,116.709 39.046,116.446 39.602,116.278C40.157,116.111 40.578,113.765 40.112,113.281C39.645,112.798 39.04,112.213 39.04,112.213L39.766,111.624L39.274,109.001L41.41,105.652L43.888,97.409L43.73,95.162L43.022,93.799L43.514,92.755L45.803,79.291L31.584,79.291L31.036,82.518Z" style="fill:white;fill-rule:nonzero;"/>
    <path id="path56593" d="M31.036,82.518L29.945,83.404L29.454,84.448L28.709,86.991L28.263,89.614L28.18,91.942L28.288,93.145L28.933,94.883L28.742,96.007L28.078,96.222L27.888,97.347L28.487,97.506L28.359,98.255L27.697,98.47L28.232,99.004L28.104,99.754L27.506,99.594L27.313,100.719L27.849,101.253L27.594,102.751L26.696,102.512L26.441,104.011L27.148,105.373L26.576,108.745L27.048,109.654C27.048,109.654 25.519,109.934 25.314,110.085C25.108,110.236 24.804,112.616 25.008,113.082C25.212,113.549 26.233,114.531 26.233,114.531L25.837,116.773L24.619,118.406L23.683,122.074L24.092,123.358L21.943,125.256L17.294,140.96L17.601,145.558L20.167,150.118L19.084,156.488L18.32,160.984L7.718,165.475L8.638,168.156L32.092,168.156L32.092,167.008L31.172,165.092L28.566,163.452L30.252,155.134L30.559,155.134L30.559,151.686L33.571,150.919L36.616,144.408L37.3,128.608L36.381,126.404L36.263,125.555L37.26,121.445L37.76,119.332L38.276,116.709C38.276,116.709 39.046,116.446 39.602,116.278C40.157,116.111 40.578,113.765 40.112,113.281C39.645,112.798 39.04,112.213 39.04,112.213L39.766,111.624L39.274,109.001L41.41,105.652L43.888,97.409L43.73,95.162L43.022,93.799L43.514,92.755L45.803,79.291L31.584,79.291L31.036,82.518Z" style="fill:none;fill-rule:nonzero;stroke:black;stroke-width:1.45px;"/>
    <path id="paperdoll-art-structure-LT-isLT" d="M44.873,49.74L44.873,19.92L42.575,19.92L41.809,18.77L36.446,18.77L35.68,19.92L34.532,19.92L34.532,20.686L32.999,20.686L32.617,19.92L30.701,19.92L29.934,20.303L29.168,19.92L27.254,19.92L24.189,21.069L23.806,24.899L22.275,25.282L22.275,34.475L24.189,35.241L24.189,37.157L23.806,37.54L23.806,40.603L24.189,40.986L24.572,44.05L25.722,44.05L26.104,45.2L28.786,45.2L29.552,44.05L30.318,44.05L32.999,45.966L33.765,45.966L34.148,47.115L35.298,47.115L35.298,49.414L34.148,49.414L34.914,50.179L35.298,50.179L35.298,50.946L34.914,50.946L34.914,51.712L35.298,51.712L35.298,52.478L34.914,52.478L34.148,53.244L35.298,53.244L36.446,56.692L37.596,57.458L37.596,59.756L36.83,60.139L36.83,61.287L37.596,62.053L37.596,64.352L38.362,65.118L39.128,65.118L39.128,66.651L38.362,66.651L37.596,67.417L29.552,69.333L29.168,70.098L29.168,73.928L28.786,74.312L28.786,75.078L28.021,75.461L28.021,75.844L28.786,76.227L29.168,76.992L28.786,79.291L47.172,79.291L47.172,65.943L44.873,49.74Z" style="fill:white;fill-rule:nonzero;"/>
    <path id="path330" d="M44.873,49.74L44.873,19.92L42.575,19.92L41.809,18.77L36.446,18.77L35.68,19.92L34.532,19.92L34.532,20.686L32.999,20.686L32.617,19.92L30.701,19.92L29.934,20.303L29.168,19.92L27.254,19.92L24.189,21.069L23.806,24.899L22.275,25.282L22.275,34.475L24.189,35.241L24.189,37.157L23.806,37.54L23.806,40.603L24.189,40.986L24.572,44.05L25.722,44.05L26.104,45.2L28.786,45.2L29.552,44.05L30.318,44.05L32.999,45.966L33.765,45.966L34.148,47.115L35.298,47.115L35.298,49.414L34.148,49.414L34.914,50.179L35.298,50.179L35.298,50.946L34.914,50.946L34.914,51.712L35.298,51.712L35.298,52.478L34.914,52.478L34.148,53.244L35.298,53.244L36.446,56.692L37.596,57.458L37.596,59.756L36.83,60.139L36.83,61.287L37.596,62.053L37.596,64.352L38.362,65.118L39.128,65.118L39.128,66.651L38.362,66.651L37.596,67.417L29.552,69.333L29.168,70.098L29.168,73.928L28.786,74.312L28.786,75.078L28.021,75.461L28.021,75.844L28.786,76.227L29.168,76.992L28.786,79.291L47.172,79.291L47.172,65.943L44.873,49.74Z" style="fill:none;fill-rule:nonzero;stroke:black;stroke-width:1.45px;"/>
    <rect data-canon="structure" data-location="HD" x="49.619" y="9.12" width="14.002" height="13.146" style="fill: none; stroke: rgb(225, 29, 72); stroke-opacity: 0.9; stroke-width: 0.79px; stroke-dasharray: 1.886, 0.943;"/>
    <rect data-canon="structure" data-location="CT" x="47.172" y="29.727" width="19.635" height="57.971" style="fill:none;stroke:rgb(225,29,72);stroke-opacity:0.9;stroke-width:1px;stroke-dasharray:2.388,1.194;"/>
    <rect data-canon="structure" data-location="LT" x="25.628" y="22.235" width="20.258" height="55.565" style="fill: none; stroke: rgb(225, 29, 72); stroke-opacity: 0.9; stroke-width: 1.11px; stroke-dasharray: 2.66, 1.33;"/>
    <rect data-canon="structure" data-location="RT" x="68.316" y="22.235" width="19.935" height="55.565" style="fill: none; stroke: rgb(225, 29, 72); stroke-opacity: 0.9; stroke-width: 1.08px; stroke-dasharray: 2.585, 1.293;"/>
    <rect data-canon="structure" data-location="LA" x="1.678" y="21.026" width="15.326" height="72.034" style="fill:none;stroke:rgb(225,29,72);stroke-opacity:0.9;stroke-width:1.02px;stroke-dasharray:2.457,1.228;"/>
    <rect data-canon="structure" data-location="RA" x="96.417" y="21.026" width="15.624" height="72.034" style="fill:none;stroke:rgb(225,29,72);stroke-opacity:0.9;stroke-width:1.03px;stroke-dasharray:2.474,1.237;"/>
    <rect data-canon="structure" data-location="LL" x="14.064" y="81.369" width="31.739" height="84.605" style="fill:none;stroke:rgb(225,29,72);stroke-opacity:0.9;stroke-width:1.12px;stroke-dasharray:2.684,1.342;"/>
    <rect data-canon="structure" data-location="RL" x="68.386" y="81.369" width="30.391" height="84.605" style="fill:none;stroke:rgb(225,29,72);stroke-opacity:0.9;stroke-width:1.1px;stroke-dasharray:2.635,1.318;"/>
  </g>
</svg>