<svg xmlns="http://www.w3.org/2000/svg" viewBox="-1 -1 40.875 55.625"><g id="damage_transfer_tripod" transform="matrix(1,0,0,-1,-240.4346,144.2692)" xmlns="http://www.w3.org/2000/svg"><path style="fill:none;stroke:#000000;stroke-width:0.725;stroke-linecap:round;stroke-linejoin:round;stroke-miterlimit:4;stroke-dasharray:none;stroke-opacity:1" d="M0 0L.252-.759c-.044 .136-.04 .274 0 .401C.138-.267 .049-.145 0 0z" id="path5054" transform="translate(246.3325,118.8396)"/><path style="fill:none;stroke:#000000;stroke-width:0.725;stroke-linecap:round;stroke-linejoin:round;stroke-miterlimit:4;stroke-dasharray:none;stroke-opacity:1" d="M0 0L.373-.191C.395-.115 .446-.047 .521-.007L.526-.004C.344 .056 .189 .2 .123 .399L.151 .315C.183 .217 .121 .103 0 0z" id="path5058" transform="translate(246.4622,117.6812)"/><path style="fill:#ffffff;fill-opacity:1;fill-rule:nonzero;stroke:#000000;stroke-opacity:1;stroke-width:0.725;stroke-linecap:round;stroke-linejoin:round;stroke-miterlimit:4;stroke-dasharray:none" d="M0 0L-1.204 1.359-3.916 .46l.114-2.605 .577 .192 .541-1.629c.031-.09 .096-.168 .191-.214l1.359-.653c.188-.092 .419-.017 .515 .17 .018 .033 .029 .071 .035 .108 .057 .002 .113 .014 .166 .043l.675 .361c.186 .1 .258 .325 .159 .506-.04 .074-.105 .127-.178 .159 .065 .094 .077 .222 .018 .332-.045 .086-.128 .141-.215 .158 .065 .141 .08 .309 .027 .469-.002 .005-.004 .008-.005 .012 .301 .222 .447 .595 .332 .942L.132-.397C.087-.262 .008-.147-.095-.059z" id="path5062" transform="translate(247.6795,120.6084)"/><path style="fill:#ffffff;fill-opacity:1;fill-rule:nonzero;stroke:#000000;stroke-opacity:1;stroke-width:0.725;stroke-linecap:round;stroke-linejoin:round;stroke-miterlimit:4;stroke-dasharray:none" d="M0 0C.186 .099 .418 .034 .517-.146c.098-.181 .027-.406-.16-.507l-.675-.36c-.186-.099-.417-.033-.517 .146-.098 .181-.027 .405 .161 .506z" id="path5070" transform="translate(247.5791,117.4935)"/><path style="fill:#ffffff;fill-opacity:1;fill-rule:nonzero;stroke:#000000;stroke-opacity:1;stroke-width:0.725;stroke-linecap:round;stroke-linejoin:round;stroke-miterlimit:4;stroke-dasharray:none" d="M0 0C.187-.093 .262-.313 .165-.498 .07-.685-.161-.76-.35-.668L-1.709-.015c-.188 .089-.262 .314-.165 .499 .097 .184 .325 .26 .513 .171z" id="path5078" transform="translate(246.8952,116.8274)"/><path style="fill:#ffffff;fill-opacity:1;fill-rule:nonzero;stroke:#000000;stroke-opacity:1;stroke-width:0.725;stroke-linecap:round;stroke-linejoin:round;stroke-miterlimit:4;stroke-dasharray:none" d="M0 0C.064-.196-.209-.46-.61-.592c-.402-.135-.78-.085-.844 .108L-2.158 1.63c-.064 .195 .21 .461 .61 .594 .403 .134 .78 .084 .844-.11z" id="path5086" transform="translate(246.4518,117.5095)"/><path style="fill:#ffffff;fill-opacity:1;fill-rule:nonzero;stroke:#000000;stroke-opacity:1;stroke-width:0.725;stroke-linecap:round;stroke-linejoin:round;stroke-miterlimit:4;stroke-dasharray:none" d="M0 0C.149 .081 .335 .022 .416-.13c.082-.153 .028-.341-.12-.423L-.242-.847c-.148-.08-.335-.022-.417 .13-.082 .151-.026 .34 .122 .423z" id="path5094" transform="translate(247.5192,117.968)"/><path style="fill:#ffffff;fill-opacity:1;fill-rule:nonzero;stroke:#000000;stroke-opacity:1;stroke-width:0.725;stroke-linecap:round;stroke-linejoin:round;stroke-miterlimit:4;stroke-dasharray:none" d="M0 0C.153-.079 .215-.268 .141-.422 .065-.578-.119-.637-.27-.558L-1.371 .01c-.153 .078-.215 .267-.141 .419 .076 .155 .26 .215 .411 .137z" id="path5102" transform="translate(246.9777,117.418)"/><path style="fill:#ffffff;fill-opacity:1;fill-rule:nonzero;stroke:#000000;stroke-opacity:1;stroke-width:0.725;stroke-linecap:round;stroke-linejoin:round;stroke-miterlimit:4;stroke-dasharray:none" d="M0 0C.055-.164-.161-.384-.482-.491c-.321-.106-.626-.06-.68 .104l-.593 1.783c-.055 .165 .16 .386 .483 .493 .32 .105 .625 .058 .679-.105z" id="path5110" transform="translate(246.6131,117.9963)"/><path style="fill:#ffffff;fill-opacity:1;fill-rule:nonzero;stroke:none" d="M0 0C.108-.328-.062-.681-.384-.788c-.32-.107-.669 .075-.778 .403s.063 .679 .383 .786C-.458 .507-.109 .328 0 0" id="path5118" transform="translate(247.7471,118.466)"/><path style="fill:none;stroke:#000000;stroke-width:0.725;stroke-linecap:round;stroke-linejoin:round;stroke-miterlimit:4;stroke-dasharray:none;stroke-opacity:1" d="M0 0C.108-.328-.062-.681-.384-.788c-.32-.107-.669 .075-.778 .403s.063 .679 .383 .786C-.458 .507-.109 .328 0 0z" id="path5122" transform="translate(247.7471,118.466)"/><path style="fill:#ffffff;fill-opacity:1;fill-rule:nonzero;stroke:#000000;stroke-opacity:1;stroke-width:0.725;stroke-linecap:round;stroke-linejoin:round;stroke-miterlimit:4;stroke-dasharray:none" d="M0 0C.146-.437-.127-.924-.608-1.082c-.481-.16-.989 .066-1.135 .502l-.263 .793c-.145 .438 .127 .923 .608 1.083 .48 .161 .988-.067 1.135-.504z" id="path5126" transform="translate(248.0748,119.4189)"/><path style="fill:#ffffff;fill-opacity:1;fill-rule:nonzero;stroke:#000000;stroke-opacity:1;stroke-width:0.725;stroke-linecap:round;stroke-linejoin:round;stroke-miterlimit:4;stroke-dasharray:none" d="M0 0L.678 .224 3.802 2.145 2.599 3.505-.114 2.604z" id="path5134" transform="translate(243.8769,118.4633)"/><path style="fill:#ffffff;fill-opacity:1;fill-rule:nonzero;stroke:#000000;stroke-opacity:1;stroke-width:0.725;stroke-linecap:round;stroke-linejoin:round;stroke-miterlimit:4;stroke-dasharray:none" d="M0 0L-.301 2.633s-1.087 1.599-4.503 .791C-8.22 2.618-10.05-1.691-10.05-1.691l-.361-2.112 1.196-.313 1.529 .794-2.692-5.027 .21-.382 .241-.021-.01-.12-.372-.091-.021-.239 .35-.153-.009-.12-.243 .021-.392-.331 .157-7.549L-8.6-19.558l3.535 .961 .394 1.057-.62 6.417-.208 .384-.243 .02 .011 .12 .372 .09 .022 .242-.353 .151 .011 .12 .241-.02 .273 .34 2.009 3.094 2.222-.054-.071 4h-1.57v1.478l.927 .918z" id="path5142" transform="translate(251.97,140.2558)"/><path style="fill:#ffffff;fill-opacity:1;fill-rule:nonzero;stroke:#000000;stroke-opacity:1;stroke-width:0.725;stroke-linecap:round;stroke-linejoin:round;stroke-miterlimit:4;stroke-dasharray:none" d="M0 0L-.233 .605-1.027 .968-1.321 2.542l.45 .122 .059 1.693L-.257 4.6 .417 6.173-.116 12.951l-.2 .243 .126 3.651-.212 .484-.037 .848-.416 1.211 .81 9.415H-7.39l.81-9.415-.417-1.211-.037-.848-.211-.484 .126-3.651-.2-.243-.534-6.778L-7.177 4.6l.553-.243 .06-1.693 .449-.122-.293-1.574-.795-.363L-7.435 0-7.867-.363l-.182-.968H.613L.432-.363z" id="path5150" transform="translate(263.57,92.3747)"/><path style="fill:#ffffff;fill-opacity:1;fill-rule:nonzero;stroke:#000000;stroke-opacity:1;stroke-width:0.725;stroke-linecap:round;stroke-linejoin:round;stroke-miterlimit:4;stroke-dasharray:none" d="M0 0H-.975l-.161-2.423 .34-4.861-.341-.291-1.838-6.123 .108-.848 .913-.969-.292-2.782 1.035-.485-.373-.847-2.17-.969-.161-.605-.452-.241 .113-.848H6.035l-.13 .968-.411 .363-.202 .604-.775 .364-.211 1.573 .455 .123 .15 1.692 1.421 .244 .757 1.572L6.064-8.01l-.188 .242 .319 3.652-.186 .484 .008 .848 .435 .361 .541 .487 .104 .12-.153 .242 8.314 7.485L8.252 7.842z" id="path5158" transform="translate(245.1641,113.3361)"/><path style="fill:#ffffff;fill-opacity:1;fill-rule:nonzero;stroke:#000000;stroke-opacity:1;stroke-width:0.725;stroke-linecap:round;stroke-linejoin:round;stroke-miterlimit:4;stroke-dasharray:none" d="M0 0H.974l.161-2.423L.794-7.284l.342-.291 1.838-6.123-.107-.848-.914-.969 .292-2.782-1.033-.485 .372-.847 2.17-.969 .161-.605 .452-.241-.114-.848H-6.036l.13 .968 .412 .363 .201 .604 .775 .364 .211 1.573-.456 .123-.149 1.692-1.42 .244-.757 1.572L-6.064-8.01l.187 .242-.319 3.652 .187 .484-.009 .848-.435 .361-.541 .487-.105 .12 .153 .242-8.313 7.485 7.005 1.931z" id="path5166" transform="translate(274.5413,113.3361)"/><path style="fill:#ffffff;fill-opacity:1;fill-rule:nonzero;stroke:#000000;stroke-opacity:1;stroke-width:0.725;stroke-linecap:round;stroke-linejoin:round;stroke-miterlimit:4;stroke-dasharray:none" d="M0 0L-1.33-2.132-6.611-3.56-6.664-9.768s-.123-2.297 .567-3.034c.689-.737 2.28-1.154 2.28-1.154l.485-4.461-1.553-1.118-.803-3.271 .242-.241L1.458-26.46 .607-18.812 0-12.517z" id="path5174" transform="translate(256.0481,142.2944)"/><path style="fill:none;stroke:#000000;stroke-width:0.725;stroke-linecap:round;stroke-linejoin:round;stroke-miterlimit:4;stroke-dasharray:none;stroke-opacity:1" d="M0 0L-.252-.759c.044 .136 .04 .274 0 .401C-.138-.267-.048-.145 0 0z" id="path5182" transform="translate(273.2451,118.8396)"/><path style="fill:none;stroke:#000000;stroke-width:0.725;stroke-linecap:round;stroke-linejoin:round;stroke-miterlimit:4;stroke-dasharray:none;stroke-opacity:1" d="M0 0L-.374-.191C-.397-.115-.446-.047-.521-.007L-.527-.004C-.345 .056-.189 .2-.124 .399L-.152 .315C-.184 .217-.122 .103 0 0z" id="path5186" transform="translate(273.1158,117.6812)"/><path style="fill:#ffffff;fill-opacity:1;fill-rule:nonzero;stroke:#000000;stroke-opacity:1;stroke-width:0.725;stroke-linecap:round;stroke-linejoin:round;stroke-miterlimit:4;stroke-dasharray:none" d="M0 0C-.102-.089-.182-.204-.226-.339l-.265-.792c-.114-.346 .031-.719 .333-.942-.001-.003-.003-.006-.004-.011-.054-.16-.039-.328 .027-.47-.089-.017-.169-.072-.217-.159-.057-.109-.046-.237 .019-.33-.073-.033-.137-.085-.178-.159-.099-.181-.028-.406 .159-.507L.324-4.07c.053-.028 .11-.041 .166-.043 .006-.037 .016-.074 .035-.107 .096-.187 .326-.263 .514-.171l1.36 .654c.095 .046 .159 .124 .19 .214l.54 1.628 .578-.192L3.821 .518l-2.711 .9L-.095 .059z" id="path5190" transform="translate(271.9928,120.55)"/><path style="fill:#ffffff;fill-opacity:1;fill-rule:nonzero;stroke:#000000;stroke-opacity:1;stroke-width:0.725;stroke-linecap:round;stroke-linejoin:round;stroke-miterlimit:4;stroke-dasharray:none" d="M0 0C-.186 .099-.418 .034-.516-.146-.614-.327-.544-.552-.356-.653l.675-.36c.185-.099 .416-.033 .516 .146 .098 .181 .027 .405-.16 .506z" id="path5198" transform="translate(271.998,117.4935)"/><path style="fill:#ffffff;fill-opacity:1;fill-rule:nonzero;stroke:#000000;stroke-opacity:1;stroke-width:0.725;stroke-linecap:round;stroke-linejoin:round;stroke-miterlimit:4;stroke-dasharray:none" d="M0 0C-.186-.093-.261-.313-.164-.498-.069-.685 .161-.76 .351-.668L1.71-.015c.187 .089 .262 .314 .165 .499-.096 .184-.327 .26-.514 .171z" id="path5206" transform="translate(272.6819,116.8274)"/><path style="fill:#ffffff;fill-opacity:1;fill-rule:nonzero;stroke:#000000;stroke-opacity:1;stroke-width:0.725;stroke-linecap:round;stroke-linejoin:round;stroke-miterlimit:4;stroke-dasharray:none" d="M0 0C-.065-.196 .209-.46 .61-.592c.4-.135 .779-.085 .844 .108L2.157 1.63c.065 .195-.209 .461-.61 .594-.402 .134-.78 .084-.845-.11z" id="path5214" transform="translate(273.1262,117.5095)"/><path style="fill:#ffffff;fill-opacity:1;fill-rule:nonzero;stroke:#000000;stroke-opacity:1;stroke-width:0.725;stroke-linecap:round;stroke-linejoin:round;stroke-miterlimit:4;stroke-dasharray:none" d="M0 0C-.149 .081-.335 .022-.416-.13-.498-.283-.443-.471-.296-.553L.242-.847c.149-.08 .336-.022 .418 .13 .081 .151 .027 .34-.122 .423z" id="path5222" transform="translate(272.0579,117.968)"/><path style="fill:#ffffff;fill-opacity:1;fill-rule:nonzero;stroke:#000000;stroke-opacity:1;stroke-width:0.725;stroke-linecap:round;stroke-linejoin:round;stroke-miterlimit:4;stroke-dasharray:none" d="M0 0C-.153-.079-.214-.268-.139-.422-.064-.578 .12-.637 .27-.558L1.373 .01c.151 .078 .214 .267 .138 .419-.074 .155-.258 .215-.409 .137z" id="path5230" transform="translate(272.5989,117.418)"/><path style="fill:#ffffff;fill-opacity:1;fill-rule:nonzero;stroke:#000000;stroke-opacity:1;stroke-width:0.725;stroke-linecap:round;stroke-linejoin:round;stroke-miterlimit:4;stroke-dasharray:none" d="M0 0C-.055-.164 .161-.384 .482-.491c.322-.106 .625-.06 .679 .104l.594 1.783c.053 .165-.162 .386-.482 .493-.321 .105-.626 .058-.68-.105z" id="path5238" transform="translate(272.9645,117.9963)"/><path style="fill:#ffffff;fill-opacity:1;fill-rule:nonzero;stroke:none" d="M0 0C-.108-.328 .063-.681 .383-.788c.321-.107 .67 .075 .779 .403 .108 .328-.063 .679-.383 .786C.459 .507 .109 .328 0 0" id="path5246" transform="translate(271.8305,118.466)"/><path style="fill:none;stroke:#000000;stroke-width:0.725;stroke-linecap:round;stroke-linejoin:round;stroke-miterlimit:4;stroke-dasharray:none;stroke-opacity:1" d="M0 0C-.108-.328 .063-.681 .383-.788c.321-.107 .67 .075 .779 .403 .108 .328-.063 .679-.383 .786C.459 .507 .109 .328 0 0z" id="path5250" transform="translate(271.8305,118.466)"/><path style="fill:#ffffff;fill-opacity:1;fill-rule:nonzero;stroke:#000000;stroke-opacity:1;stroke-width:0.725;stroke-linecap:round;stroke-linejoin:round;stroke-miterlimit:4;stroke-dasharray:none" d="M0 0C-.145-.437 .127-.924 .61-1.082c.481-.16 .987 .066 1.134 .502l.262 .793c.147 .438-.126 .923-.607 1.083-.481 .161-.988-.067-1.134-.504z" id="path5254" transform="translate(271.5018,119.4189)"/><path style="fill:#ffffff;fill-opacity:1;fill-rule:nonzero;stroke:#000000;stroke-opacity:1;stroke-width:0.725;stroke-linecap:round;stroke-linejoin:round;stroke-miterlimit:4;stroke-dasharray:none" d="M0 0L-.677 .224-3.802 2.145l1.204 1.36L.114 2.604z" id="path5262" transform="translate(275.7002,118.4633)"/><path style="fill:#ffffff;fill-opacity:1;fill-rule:nonzero;stroke:#000000;stroke-opacity:1;stroke-width:0.725;stroke-linecap:round;stroke-linejoin:round;stroke-miterlimit:4;stroke-dasharray:none" d="M0 0L.301 2.633s1.087 1.599 4.503 .791c3.415-.806 5.245-5.115 5.245-5.115l.361-2.112-1.195-.313-1.53 .794 2.692-5.027-.21-.382-.241-.021 .011-.12 .373-.091 .02-.239-.351-.153 .01-.12 .241 .021 .395-.331-.158-7.549L8.6-19.558l-3.536 .961-.393 1.057 .62 6.417 .209 .384 .242 .02-.012 .12-.372 .09-.021 .242 .351 .151-.01 .12-.241-.02-.274 .34L3.154-6.582 .934-6.636l.071 4H2.574v1.478L1.647-.24z" id="path5270" transform="translate(267.608,140.2558)"/><path style="fill:#ffffff;fill-opacity:1;fill-rule:nonzero;stroke:#000000;stroke-opacity:1;stroke-width:0.725;stroke-linecap:round;stroke-linejoin:round;stroke-miterlimit:4;stroke-dasharray:none" d="M0 0L1.33-2.132 6.611-3.56l.054-6.208s.122-2.297-.569-3.034c-.688-.737-2.279-1.154-2.279-1.154l-.486-4.461 1.554-1.118 .803-3.271-.242-.241-6.905-3.413 .852 7.648L0-12.517z" id="path5278" transform="translate(263.5295,142.2944)"/><path style="fill:#ffffff;fill-opacity:1;fill-rule:nonzero;stroke:#000000;stroke-opacity:1;stroke-width:0.725;stroke-linecap:round;stroke-linejoin:round;stroke-miterlimit:4;stroke-dasharray:none" d="M0 0L-.213-9.888l.604-7.4-.426-4.836 .15-3.843 .485-.57H7.026l.484 .57 .149 3.843-.426 4.836 .605 7.4L7.625 0z" id="path5286" transform="translate(255.9764,142.151)"/><path style="fill:#ffffff;fill-opacity:1;fill-rule:nonzero;stroke:none" d="M0 0C-.004-.064 .037-.221 .076-.312c.064-.135 .247-.365 .665-.4 .022-.004 .16-.01 .181-.006C1.277-1.214 1.835-1.663 2.483-2c.189-.175 .393-.331 .609-.46l.102-.657 .404-.278H5.915l.405 .278 .099 .657c.15 .088 .293 .189 .43 .302 .785 .347 1.475 .863 1.889 1.44 .021-.004 .159 .002 .182 .006 .418 .035 .601 .265 .664 .4 .039 .091 .08 .248 .077 .312 .426 .235 .765 .505 .994 .796L9.604 2.576S7.052 4.625 4.756 4.625c-2.295 0-4.699-2.049-4.699-2.049L-.994 .796C-.767 .505-.427 .235 0 0" id="path5294" transform="translate(254.8911,139.2766)"/><path style="fill:none;stroke:#000000;stroke-width:0.725;stroke-linecap:round;stroke-linejoin:round;stroke-miterlimit:4;stroke-dasharray:none;stroke-opacity:1" d="M0 0C-.004-.064 .037-.221 .076-.312c.064-.135 .247-.365 .665-.4 .022-.004 .16-.01 .181-.006C1.277-1.214 1.835-1.663 2.483-2c.189-.175 .393-.331 .609-.46l.102-.657 .404-.278H5.915l.405 .278 .099 .657c.15 .088 .293 .189 .43 .302 .785 .347 1.475 .863 1.889 1.44 .021-.004 .159 .002 .182 .006 .418 .035 .601 .265 .664 .4 .039 .091 .08 .248 .077 .312 .426 .235 .765 .505 .994 .796L9.604 2.576S7.052 4.625 4.756 4.625c-2.295 0-4.699-2.049-4.699-2.049L-.994 .796C-.767 .505-.427 .235 0 0z" id="path5298" transform="translate(254.8911,139.2766)"/><path style="fill:#c7c8ca;fill-opacity:1;fill-rule:nonzero;stroke:none" d="M0 0C-.631 0-1.231-.128-1.772-.357c.122-.357 .273-.673 .448-.941 .225 .066 .462 .118 .709 .152 .076 .008 .153 .366 .231 .375 .147 .011 .742 .011 .885 0 .078-.009 .156-.365 .23-.375 .213-.03 .416-.072 .615-.124 .165 .261 .31 .568 .428 .913C1.233-.128 .631 0 0 0" id="path5302" transform="translate(259.6418,139.6529)"/><path style="fill:#c7c8ca;fill-opacity:1;fill-rule:nonzero;stroke:none" d="M0 0C.038-.426 .109-.829 .212-1.199 .786-.959 1.42-.826 2.087-.826c.668 0 1.303-.133 1.877-.373C4.067-.829 4.138-.426 4.176 0 3.557 .322 2.844 .506 2.087 .506S.618 .322 0 0" id="path5306" transform="translate(257.5547,140.8313)"/><path style="fill:#c7c8ca;fill-opacity:1;fill-rule:nonzero;stroke:none" d="M0 0C.634 .305 1.351 .476 2.111 .476c.761 0 1.478-.171 2.114-.476 .002 .1 .005 .2 .005 .303 0 .34-.021 .673-.064 .99-.192 .088-.395 .167-.609 .227-.129 .038-.261 .073-.397 .095-.089 .02-.182 .036-.276 .047-.04 .005-.079 .54-.119 .542-.13 .015-.262 .026-.394 .03-.063 .003-.34 .003-.401 0-.135-.004-.266-.015-.396-.03-.041-.002-.079-.537-.119-.542-.094-.012-.188-.028-.277-.047-.135-.026-.268-.059-.397-.095-.119-.032-.235-.072-.348-.114-.134-.051-.26-.108-.383-.17C.013 .937-.008 .623-.008 .303-.008 .2-.004 .1 0 0" id="path5310" transform="translate(257.5306,141.2114)"/><path style="fill:#c7c8ca;fill-opacity:1;fill-rule:nonzero;stroke:none" d="M0 0C-.044-.408-.12-.795-.222-1.151c.218-.113 .425-.239 .622-.38 .011 .02 .021 .039 .031 .06 .136 .278 .252 .555 .351 .834C.551-.397 .286-.183 0 0" id="path5314" transform="translate(262.0658,140.6369)"/><path style="fill:#c7c8ca;fill-opacity:1;fill-rule:nonzero;stroke:none" d="M0 0C0-.001 .001-.002 .001-.004 .173 .114 .35 .225 .538 .32 .437 .676 .361 1.065 .317 1.471 .063 1.312-.169 1.123-.38 .919-.276 .613-.15 .305 0 0" id="path5318" transform="translate(256.9028,139.1653)"/><path style="fill:#c7c8ca;fill-opacity:1;fill-rule:nonzero;stroke:none" d="M0 0H1.699l.176-.792H-.174z" id="path5322" transform="translate(258.8452,137.5936)"/><path style="fill:#000000;fill-opacity:1;fill-rule:nonzero;stroke:#000000;stroke-opacity:1;stroke-width:0.242;stroke-linecap:butt;stroke-linejoin:bevel;stroke-miterlimit:4;stroke-dasharray:none" d="M0 0L-1.002 2.654-3.665 1.673l1.222-.557-.832-1.82 1.222-.56 .831 1.82z" id="path5326" transform="translate(255.541,118.4209)"/><path style="fill:#000000;fill-opacity:1;fill-rule:nonzero;stroke:#000000;stroke-opacity:1;stroke-width:0.242;stroke-linecap:butt;stroke-linejoin:bevel;stroke-miterlimit:4;stroke-dasharray:none" d="M0 0L-2.689 .907-3.616-1.776l1.205 .592 .882-1.795 1.205 .592L-1.207-.59z" id="path5334" transform="translate(267.502,120.1443)"/><path style="fill:#000000;fill-opacity:1;fill-rule:nonzero;stroke:#000000;stroke-opacity:1;stroke-width:0.242;stroke-linecap:butt;stroke-linejoin:bevel;stroke-miterlimit:4;stroke-dasharray:none" d="M0 0L-2.014 2-4.028 0h1.342V-2.001h1.342V0z" id="path5342" transform="translate(261.5682,116.8199)"/><path style="fill:#000000;fill-opacity:1;fill-rule:nonzero;stroke:#000000;stroke-opacity:1;stroke-width:0.242;stroke-linecap:butt;stroke-linejoin:bevel;stroke-miterlimit:4;stroke-dasharray:none" d="M0 0L-2.015-2 0-4.002v1.334H2.014v1.335H0z" id="path5350" transform="translate(262.8479,132.7175)"/><path style="fill:#000000;fill-opacity:1;fill-rule:nonzero;stroke:#000000;stroke-opacity:1;stroke-width:0.242;stroke-linecap:butt;stroke-linejoin:bevel;stroke-miterlimit:4;stroke-dasharray:none" d="M0 0L2.015-2 0-4.002v1.334H-2.014v1.335H0z" id="path5358" transform="translate(256.9816,132.7175)"/><path style="fill:#000000;fill-opacity:1;fill-rule:nonzero;stroke:#000000;stroke-opacity:1;stroke-width:0.242;stroke-linecap:butt;stroke-linejoin:bevel;stroke-miterlimit:4;stroke-dasharray:none" d="M0 0L2.014-2 0-4.002v1.336H-2.014v1.332H0z" id="path5366" transform="translate(250.6139,138.4002)"/><path style="fill:#000000;fill-opacity:1;fill-rule:nonzero;stroke:#000000;stroke-opacity:1;stroke-width:0.242;stroke-linecap:butt;stroke-linejoin:bevel;stroke-miterlimit:4;stroke-dasharray:none" d="M0 0L-2.015-2 0-4.002v1.336H2.014v1.332H0z" id="path5374" transform="translate(268.7891,138.4002)"/></g></svg>
