<svg xmlns="http://www.w3.org/2000/svg" viewBox="0 20 344 470"><g transform="matrix(0.99,0,0,0.99,18.198924,25.178)">
        <g transform="matrix(1,0,0,-1,-247.13184,720.37232)">
          <g transform="translate(462.16159,548.95632)">
            <path style="fill:#c8c7c7;stroke:#c8c7c7;stroke-width:2;stroke-linecap:round;stroke-linejoin:round;stroke-miterlimit:4;stroke-dasharray:none;stroke-opacity:1" d="m 0,0 c -0.773,1.326 -2.117,2.287 -3.708,2.556 l -9.695,20.105 2.534,0.765 v 10.377 l -8.99,2.254 -9.304,19.3 h -8.961 c 0,1.455 -0.89,2.636 -1.994,2.636 h -7.964 c -1.101,0 -1.99,-1.181 -1.99,-2.636 h -8.961 l -9.333,-19.359 -8.753,-2.195 V 23.426 l 2.352,-0.707 -9.723,-20.163 c -2.504,-0.421 -4.41,-2.565 -4.41,-5.148 v -2.681 c -3.297,0 -5.975,-2.36 -5.975,-5.271 0,-2.912 2.678,-5.272 5.975,-5.272 v -15.818 c -3.297,0 -5.975,-2.358 -5.975,-5.27 0,-2.912 2.678,-5.273 5.975,-5.273 v -15.815 c -3.297,0 -5.975,-2.361 -5.975,-5.274 0,-2.913 2.678,-5.271 5.975,-5.271 v -15.817 c -3.297,0 -5.975,-2.36 -5.975,-5.271 0,-2.914 2.678,-5.271 5.975,-5.271 v -15.815 c -3.297,0 -5.975,-2.362 -5.975,-5.274 0,-2.911 2.678,-5.271 5.975,-5.271 v -2.682 c 0,-2.883 2.379,-5.226 5.309,-5.226 h 2.883 c -7.047,-7.236 -18.583,-19.554 -17.15,-21.357 l 2.045,-2.578 25.321,-3.94 c -0.248,-0.891 -0.261,-1.516 0.038,-1.778 l 2.518,-2.226 h 46.328 l 2.518,2.226 c 0.301,0.262 0.289,0.887 0.039,1.778 l 25.327,3.94 2.043,2.578 c 1.429,1.803 -10.099,14.121 -17.157,21.357 h 4.234 c 2.927,0 5.306,2.343 5.306,5.226 v 2.682 c 3.301,0 5.974,2.36 5.974,5.271 0,2.912 -2.673,5.274 -5.974,5.274 v 15.815 c 3.301,0 5.974,2.357 5.974,5.271 0,2.911 -2.673,5.271 -5.974,5.271 v 15.817 c 3.301,0 5.974,2.358 5.974,5.271 0,2.913 -2.673,5.274 -5.974,5.274 v 15.815 c 3.301,0 5.974,2.361 5.974,5.273 0,2.912 -2.673,5.27 -5.974,5.27 v 15.818 c 3.301,0 5.974,2.36 5.974,5.272 0,2.911 -2.673,5.271 -5.974,5.271 v 2.638 h 5.974 c 0,-1.457 2.34,-2.638 5.226,-2.638 2.888,0 5.227,1.181 5.227,2.638 v -2.638 h 4.148 V 0 Z"/>
          </g>
          <g transform="translate(417.15199,598.022)">
            <path style="fill:#c8c7c7;fill-opacity:1;fill-rule:nonzero;stroke:none" d="M 0,0 V 5.255 H 0.999 V 0.017 C 0.874,0.023 0.748,0.026 0.621,0.026 0.412,0.026 0.205,0.017 0,0"/>
          </g>
          <g transform="translate(418.151,549.52)">
            <path style="fill:#c8c7c7;fill-opacity:1;fill-rule:nonzero;stroke:none" d="m 0,0 h -0.999 v 6.301 c 0.125,-0.007 0.251,-0.01 0.378,-0.01 0.209,0 0.416,0.009 0.621,0.026 V 0"/>
          </g>
          <g transform="translate(422.961,568.14101)">
            <path style="fill:#c8c7c7;fill-opacity:1;fill-rule:nonzero;stroke:none" d="m 0,0 c -1.345,1.476 -3.281,2.403 -5.431,2.403 -2.052,0 -3.905,-0.843 -5.237,-2.202 L -12.024,1.562 -5.307,8.231 1.407,1.411 0,0 m 2.113,2.118 -6.71,6.817 6.576,6.528 1.249,-1.252 C 1.782,12.866 0.878,10.945 0.878,8.811 0.878,6.632 1.82,4.676 3.32,3.328 L 2.113,2.118 m -14.845,0.153 -1.285,1.288 c 1.357,1.336 2.2,3.195 2.204,5.252 -0.004,2.013 -0.811,3.836 -2.116,5.164 l 1.493,1.498 6.426,-6.528 -6.722,-6.674 m 7.431,7.378 -6.429,6.531 1.247,1.252 c 1.338,-1.391 3.216,-2.258 5.294,-2.258 2.057,0 3.915,0.849 5.248,2.215 L 1.27,16.174 -5.301,9.649"/>
          </g>
          <g transform="translate(423.58501,567.356)">
            <path style="fill:#c8c7c7;fill-opacity:1;fill-rule:nonzero;stroke:none" d="M 0,0 C -0.19,0.276 -0.398,0.539 -0.624,0.785 L 0.784,2.196 1.482,1.487 0,0 m -11.943,0.226 -1.414,1.417 0.709,0.704 1.357,-1.36 C -11.525,0.748 -11.743,0.494 -11.943,0.226 M 2.188,2.194 1.489,2.904 2.696,4.113 C 2.944,3.89 3.208,3.683 3.485,3.495 L 2.188,2.194 M -14.064,2.352 -15.4,3.691 c 0.268,0.201 0.521,0.419 0.76,0.654 l 1.285,-1.289 -0.709,-0.704 m -0.488,12.409 c -0.234,0.238 -0.484,0.46 -0.749,0.665 l 1.541,1.544 0.701,-0.712 -1.493,-1.497 m 17.156,0.235 -1.249,1.253 0.706,0.701 1.32,-1.324 C 3.107,15.433 2.848,15.223 2.604,14.996 m -1.957,1.964 -1.212,1.215 c 0.233,0.238 0.45,0.492 0.648,0.76 L 1.353,17.661 0.647,16.96 m -13.001,0.006 -0.701,0.712 1.305,1.308 c 0.197,-0.271 0.412,-0.527 0.644,-0.768 l -1.248,-1.252"/>
          </g>
          <g transform="translate(417.77299,584.314)">
            <path style="fill:#c8c7c7;fill-opacity:1;fill-rule:nonzero;stroke:none" d="m 0,0 c -1.755,0 -3.339,0.72 -4.491,1.872 -1.152,1.152 -1.863,2.736 -1.863,4.5 0,1.755 0.711,3.348 1.863,4.5 1.152,1.152 2.736,1.863 4.491,1.863 1.755,0 3.33,-0.711 4.482,-1.863 C 5.634,9.72 6.345,8.127 6.345,6.372 6.345,4.608 5.634,3.024 4.482,1.872 3.33,0.72 1.755,0 0,0"/>
          </g>
          <g transform="translate(417.77299,583.315)">
            <path style="fill:#c8c7c7;fill-opacity:1;fill-rule:nonzero;stroke:none" d="m 0,0 c -2.079,0 -3.956,0.867 -5.294,2.258 -0.232,0.241 -0.447,0.498 -0.644,0.768 -0.89,1.219 -1.415,2.721 -1.415,4.345 0,3.858 2.963,7.02 6.732,7.336 0.205,0.017 0.412,0.026 0.621,0.026 0.127,0 0.253,-0.003 0.378,-0.01 C 4.261,14.526 7.344,11.312 7.344,7.371 7.344,5.724 6.805,4.203 5.895,2.975 5.697,2.707 5.48,2.453 5.247,2.215 3.915,0.849 2.057,0 0,0 m 0,13.734 c -1.755,0 -3.339,-0.711 -4.491,-1.863 -1.152,-1.152 -1.863,-2.745 -1.863,-4.5 0,-1.764 0.711,-3.348 1.863,-4.5 C -3.339,1.719 -1.755,0.999 0,0.999 c 1.755,0 3.33,0.72 4.482,1.872 1.152,1.152 1.863,2.736 1.863,4.5 0,1.755 -0.711,3.348 -1.863,4.5 C 3.33,13.023 1.755,13.734 0,13.734 M 7.344,7.371 v 0"/>
          </g>
          <g transform="translate(417.53,556.81)">
            <path style="fill:#c8c7c7;fill-opacity:1;fill-rule:nonzero;stroke:none" d="m 0,0 c -1.755,0.009 -3.339,0.711 -4.482,1.872 -1.152,1.152 -1.863,2.736 -1.863,4.5 0,1.755 0.711,3.348 1.863,4.5 1.143,1.152 2.727,1.863 4.482,1.863 1.755,0 3.339,-0.711 4.491,-1.863 C 5.643,9.72 6.354,8.127 6.354,6.372 6.354,4.608 5.643,3.024 4.491,1.872 3.339,0.72 1.755,0.009 0,0"/>
          </g>
          <g transform="translate(417.53,555.811)">
            <path style="fill:#c8c7c7;fill-opacity:1;fill-rule:nonzero;stroke:none" d="m 0,0 c -0.127,0 -0.253,0.003 -0.378,0.01 -3.883,0.197 -6.966,3.42 -6.966,7.361 0,1.648 0.541,3.171 1.456,4.399 0.2,0.269 0.418,0.523 0.652,0.761 1.332,1.358 3.185,2.202 5.236,2.202 2.151,0 4.087,-0.928 5.431,-2.403 C 5.657,12.083 5.865,11.82 6.055,11.544 6.873,10.357 7.353,8.919 7.353,7.371 7.353,3.513 4.39,0.343 0.621,0.026 0.416,0.009 0.209,0 0,0 m 0,13.734 c -1.755,0 -3.339,-0.711 -4.482,-1.863 -1.152,-1.152 -1.863,-2.745 -1.863,-4.5 0,-1.764 0.711,-3.348 1.863,-4.5 C -3.339,1.71 -1.755,1.008 0,0.999 c 1.755,0.009 3.339,0.72 4.491,1.872 1.152,1.152 1.863,2.736 1.863,4.5 0,1.755 -0.711,3.348 -1.863,4.5 C 3.339,13.023 1.755,13.734 0,13.734 M 7.353,7.371 v 0"/>
          </g>
          <g transform="translate(403.79601,570.589)">
            <path style="fill:#c8c7c7;fill-opacity:1;fill-rule:nonzero;stroke:none" d="m 0,0 c -1.755,0 -3.339,0.711 -4.491,1.863 -1.152,1.152 -1.863,2.745 -1.863,4.5 0,1.764 0.711,3.348 1.863,4.5 1.152,1.152 2.736,1.863 4.491,1.863 1.755,0 3.339,-0.711 4.491,-1.863 C 5.643,9.711 6.345,8.127 6.345,6.363 6.345,4.608 5.643,3.015 4.491,1.863 3.339,0.711 1.755,0 0,0"/>
          </g>
          <g transform="translate(403.79601,569.59)">
            <path style="fill:#c8c7c7;fill-opacity:1;fill-rule:nonzero;stroke:none" d="m 0,0 c -4.059,0 -7.353,3.294 -7.353,7.362 0,4.068 3.294,7.362 7.353,7.362 1.691,0 3.247,-0.572 4.489,-1.533 C 4.753,12.986 5.003,12.764 5.237,12.526 6.542,11.197 7.349,9.374 7.353,7.362 7.348,5.305 6.505,3.445 5.149,2.11 4.91,1.875 4.657,1.657 4.389,1.457 3.164,0.542 1.646,0 0,0 m 0,13.725 c -1.755,0 -3.339,-0.711 -4.491,-1.863 -1.152,-1.152 -1.863,-2.736 -1.863,-4.5 0,-1.755 0.711,-3.348 1.863,-4.5 C -3.339,1.71 -1.755,0.999 0,0.999 c 1.755,0 3.339,0.711 4.491,1.863 1.152,1.152 1.854,2.745 1.854,4.5 0,1.764 -0.702,3.348 -1.854,4.5 C 3.339,13.014 1.755,13.725 0,13.725 M 7.353,7.362 v 0"/>
          </g>
          <g transform="translate(431.183,570.589)">
            <path style="fill:#c8c7c7;fill-opacity:1;fill-rule:nonzero;stroke:none" d="m 0,0 c -1.755,0 -3.339,0.711 -4.482,1.863 -1.152,1.152 -1.863,2.745 -1.863,4.5 0,1.764 0.711,3.348 1.863,4.5 1.143,1.152 2.727,1.863 4.482,1.863 1.755,0 3.339,-0.711 4.491,-1.863 C 5.634,9.711 6.345,8.127 6.345,6.363 6.345,4.608 5.634,3.015 4.491,1.863 3.339,0.711 1.755,0 0,0"/>
          </g>
          <g transform="translate(431.183,569.59)">
            <path style="fill:#c8c7c7;fill-opacity:1;fill-rule:nonzero;stroke:none" d="m 0,0 c -1.525,0 -2.94,0.465 -4.113,1.261 -0.277,0.188 -0.541,0.394 -0.789,0.618 -1.499,1.347 -2.442,3.304 -2.442,5.483 0,2.134 0.905,4.055 2.35,5.399 0.244,0.227 0.503,0.438 0.777,0.63 1.193,0.84 2.647,1.333 4.217,1.333 4.059,0 7.344,-3.294 7.344,-7.362 C 7.344,3.294 4.059,0 0,0 m 0,13.725 c -1.755,0 -3.339,-0.711 -4.482,-1.863 -1.152,-1.152 -1.863,-2.736 -1.863,-4.5 0,-1.755 0.711,-3.348 1.863,-4.5 C -3.339,1.71 -1.755,0.999 0,0.999 c 1.755,0 3.339,0.711 4.491,1.863 1.143,1.152 1.854,2.745 1.854,4.5 0,1.764 -0.711,3.348 -1.854,4.5 C 3.339,13.014 1.755,13.725 0,13.725 M 7.344,7.362 v 0"/>
          </g>
          <path style="fill:#c8c7c7;fill-opacity:1;fill-rule:nonzero;stroke:none" d="m 393.824,423.196 h -0.999 v 19.134 h 0.999 z m 0,26.541 h -0.999 v 19.143 h 0.999 z m 0,26.55 h -0.999 v 19.134 h 0.999 z m 0,26.541 h -0.999 v 19.143 h 0.999 z m 0,26.55 h -0.999 v 12.292 c 0.237,0.077 0.453,0.164 0.648,0.263 0.126,0.066 0.243,0.134 0.351,0.214 v -12.769"/>
          <g transform="translate(375.5,423.196)">
            <path style="fill:#c8c7c7;fill-opacity:1;fill-rule:nonzero;stroke:none" d="M 0,0 H -0.821 C -1.092,0.551 -1.242,1.166 -1.242,1.818 V 4.5 c 0,0.157 -0.034,0.308 -0.099,0.444 v 9.664 c 0.065,0.136 0.099,0.288 0.099,0.44 v 15.813 c 0,0.157 -0.034,0.308 -0.099,0.444 v 9.66 c 0.065,0.136 0.099,0.287 0.099,0.444 v 15.813 c 0,0.152 -0.034,0.304 -0.099,0.441 v 9.663 c 0.065,0.136 0.099,0.287 0.099,0.444 v 15.813 c 0,0.152 -0.034,0.304 -0.099,0.441 v 9.662 c 0.065,0.135 0.099,0.284 0.099,0.436 v 15.822 c 0,0.152 -0.034,0.304 -0.099,0.441 v 9.662 c 0.065,0.135 0.099,0.284 0.099,0.436 v 2.682 c 0,0.788 0.221,1.527 0.607,2.16 h 1.4 v -3.888 H 1.8 v -7.263 h 1.035 v -4.062 L 0,110.916 V 94.032 l 2.835,0.805 V 83.57 L 0,84.375 V 67.491 l 2.835,0.805 V 57.02 L 0,57.825 V 40.941 l 2.835,0.805 V 30.479 L 0,31.284 V 14.4 l 2.835,0.804 V 3.93 L 0,4.734 V 0"/>
          </g>
          <g transform="translate(375.239,422.338)">
            <path style="fill:#c8c7c7;fill-opacity:1;fill-rule:nonzero;stroke:none" d="M 0,0 C -0.221,0.263 -0.409,0.551 -0.56,0.858 H 0.261 0 V 0 M 4.095,4.505 3.096,4.788 v 11.275 l 0.999,0.283 V 4.505 M -1.08,5.802 C -1.127,5.9 -1.19,5.99 -1.269,6.069 -1.458,6.258 -1.71,6.366 -1.98,6.366 c -0.012,0 -0.024,0 -0.036,0 -0.021,0 -0.042,0.001 -0.063,0.001 v 8.539 c 0.033,10e-4 0.066,10e-4 0.099,10e-4 0.27,0 0.522,0.108 0.711,0.297 0.079,0.076 0.142,0.165 0.189,0.263 V 5.802 m 5.175,25.251 -0.999,0.284 v 11.268 l 0.999,0.284 V 31.053 m -5.175,1.11 c -0.047,0.098 -0.11,0.188 -0.189,0.267 -0.189,0.189 -0.441,0.288 -0.711,0.288 -0.033,0 -0.066,10e-4 -0.099,10e-4 v 8.548 c 0.033,10e-4 0.066,10e-4 0.099,10e-4 0.27,0 0.522,0.099 0.711,0.288 0.079,0.079 0.142,0.17 0.189,0.267 v -9.66 m 5.175,25.431 -0.999,0.284 v 11.277 l 0.999,0.284 V 57.594 m -5.175,0.928 c -0.047,0.099 -0.11,0.19 -0.189,0.269 -0.189,0.18 -0.441,0.288 -0.711,0.288 -0.033,0 -0.066,10e-4 -0.099,10e-4 v 8.548 c 0.033,0.001 0.066,0.001 0.099,0.001 0.27,0 0.522,0.099 0.711,0.288 0.079,0.079 0.142,0.17 0.189,0.267 V 58.522 M 4.095,84.144 3.096,84.428 V 95.696 L 4.095,95.98 V 84.144 m -5.175,0.739 c -0.047,0.099 -0.11,0.19 -0.189,0.269 -0.189,0.18 -0.441,0.288 -0.711,0.288 -0.033,0 -0.066,0.001 -0.099,0.001 v 8.539 c 0.033,10e-4 0.066,10e-4 0.099,10e-4 0.27,0 0.522,0.108 0.711,0.297 0.079,0.079 0.142,0.17 0.189,0.267 v -9.662 m 5.175,25.804 -0.999,0.283 v 4.062 h 0.999 v -4.345 m -5.175,0.557 c -0.047,0.099 -0.11,0.19 -0.189,0.269 -0.189,0.18 -0.441,0.288 -0.711,0.288 -0.033,0 -0.066,0.001 -0.099,0.001 v 8.539 c 0.033,0.001 0.066,0.001 0.099,0.001 0.27,0 0.522,0.108 0.711,0.297 0.079,0.079 0.142,0.17 0.189,0.267 v -9.662 m 2.106,14.939 h -1.4 c 0.228,0.374 0.514,0.711 0.845,0.999 h 0.555 v -0.999"/>
          </g>
          <g transform="translate(376.49899,438.91901)">
            <path style="fill:#c8c7c7;fill-opacity:1;fill-rule:nonzero;stroke:none" d="M 0,0 V 14.236 L 14.67,10.069 V 4.161"/>
          </g>
          <g transform="translate(375.5,437.59599)">
            <path style="fill:#c8c7c7;fill-opacity:1;fill-rule:nonzero;stroke:none" d="M 0,0 V 16.884 L 16.694,12.141 H 15.669 V 11.392 L 0.999,15.559 V 1.323 l 14.67,4.161 V 4.734 H 16.69 L 2.835,0.804"/>
          </g>
          <g transform="translate(376.49899,465.46001)">
            <path style="fill:#c8c7c7;fill-opacity:1;fill-rule:nonzero;stroke:none" d="m 0,0 v 14.237 l 14.67,-4.16 V 4.168"/>
          </g>
          <g transform="translate(375.5,464.13699)">
            <path style="fill:#c8c7c7;fill-opacity:1;fill-rule:nonzero;stroke:none" d="M 0,0 V 16.884 L 16.662,12.15 H 15.669 V 11.4 L 0.999,15.56 V 1.323 l 14.67,4.168 V 4.743 h 1.025 L 2.835,0.805"/>
          </g>
          <g transform="translate(376.49899,492.00999)">
            <path style="fill:#c8c7c7;fill-opacity:1;fill-rule:nonzero;stroke:none" d="M 0,0 V 14.236 L 14.67,10.069 V 4.168"/>
          </g>
          <g transform="translate(375.5,490.687)">
            <path style="fill:#c8c7c7;fill-opacity:1;fill-rule:nonzero;stroke:none" d="M 0,0 V 16.884 L 16.694,12.141 H 15.669 V 11.392 L 0.999,15.559 V 1.323 l 14.67,4.168 V 4.734 h 0.993 L 2.835,0.805"/>
          </g>
          <g transform="translate(376.49899,518.55099)">
            <path style="fill:#c8c7c7;fill-opacity:1;fill-rule:nonzero;stroke:none" d="m 0,0 v 14.237 l 14.67,-4.16 V 4.168"/>
          </g>
          <g transform="translate(375.5,517.228)">
            <path style="fill:#c8c7c7;fill-opacity:1;fill-rule:nonzero;stroke:none" d="M 0,0 V 16.884 L 16.69,12.15 H 15.669 V 11.4 L 0.999,15.56 V 1.323 l 14.67,4.168 V 4.743 h 1.025 L 2.835,0.805"/>
          </g>
          <g transform="translate(388.52299,423.196)">
            <path style="fill:#c8c7c7;fill-opacity:1;fill-rule:nonzero;stroke:none" d="M 0,0 H -12.024 V 3.411"/>
          </g>
          <g transform="translate(392.185,423.196)">
            <path style="fill:#c8c7c7;fill-opacity:1;fill-rule:nonzero;stroke:none" d="M 0,0 H -16.686 V 4.734 L -13.851,3.93 -12.852,3.646 0,0 m -15.687,0 h 12.024 l -12.024,3.411"/>
          </g>
          <path style="fill:#c8c7c7;fill-opacity:1;fill-rule:nonzero;stroke:none" d="m 443.063,423.196 h -0.999 v 19.134 h 0.999 z m 0,26.541 h -0.999 v 19.143 h 0.999 z m 0,26.55 h -0.999 v 19.134 h 0.999 z m 0,26.541 h -0.999 v 19.143 h 0.999 z m 0,26.55 h -0.999 v 19.143 h 0.999 z"/>
          <g transform="translate(461.44299,423.196)">
            <path style="fill:#c8c7c7;fill-opacity:1;fill-rule:nonzero;stroke:none" d="M 0,0 H -1.055 V 4.734 L -3.881,3.932 v 11.27 L -1.055,14.4 v 16.884 l -0.63,-0.18 -2.196,-0.624 v 11.264 l 2.826,-0.803 v 16.884 l -0.63,-0.18 -2.196,-0.624 v 11.273 l 2.826,-0.803 v 16.884 l -0.63,-0.18 -2.196,-0.624 v 11.264 l 2.826,-0.803 v 16.884 l -0.63,-0.18 -2.196,-0.623 v 10.019 H 0.295 V 0.803 C 0.224,0.523 0.125,0.255 0,0"/>
          </g>
          <g transform="translate(461.73801,423.99899)">
            <path style="fill:#c8c7c7;fill-opacity:1;fill-rule:nonzero;stroke:none" d="M 0,0 V 119.329 H -4.176 V 109.31 l -1.008,-0.286 v 10.575 H 0.13 c 0.02,-0.232 0.124,-0.452 0.293,-0.621 0.151,-0.158 0.359,-0.26 0.576,-0.288 v -8.559 c -0.217,-0.028 -0.425,-0.128 -0.576,-0.279 -0.189,-0.189 -0.297,-0.45 -0.297,-0.711 V 93.319 c 0,-0.261 0.108,-0.513 0.297,-0.702 0.151,-0.158 0.359,-0.26 0.576,-0.288 V 83.77 C 0.782,83.742 0.574,83.642 0.423,83.491 0.234,83.302 0.126,83.041 0.126,82.78 V 66.967 c 0,-0.27 0.108,-0.522 0.297,-0.711 0.151,-0.158 0.359,-0.253 0.576,-0.28 V 57.409 C 0.782,57.381 0.574,57.281 0.423,57.13 0.234,56.941 0.126,56.68 0.126,56.419 V 40.606 c 0,-0.27 0.108,-0.522 0.297,-0.711 0.151,-0.158 0.359,-0.253 0.576,-0.28 V 31.049 C 0.782,31.022 0.574,30.928 0.423,30.769 0.234,30.58 0.126,30.328 0.126,30.058 V 14.245 c 0,-0.261 0.108,-0.522 0.297,-0.702 0.151,-0.158 0.359,-0.26 0.576,-0.288 V 4.696 C 0.782,4.668 0.574,4.567 0.423,4.408 0.234,4.219 0.126,3.967 0.126,3.697 V 1.015 C 0.126,0.665 0.082,0.325 0,0 m -5.184,2.843 v 11.842 l 1.008,-0.286 V 3.129 L -5.184,2.843 m 0,26.547 v 11.838 l 1.008,-0.287 V 29.677 L -5.184,29.39 m 0,26.541 v 11.847 l 1.008,-0.287 V 56.218 l -1.008,-0.287 m 0,26.55 v 11.838 l 1.008,-0.287 V 82.768 l -1.008,-0.287"/>
          </g>
          <g transform="translate(459.38901,438.91901)">
            <path style="fill:#c8c7c7;fill-opacity:1;fill-rule:nonzero;stroke:none" d="M 0,0 -14.274,4.051 V 10.18 L 0,14.236"/>
          </g>
          <g transform="translate(460.388,437.59599)">
            <path style="fill:#c8c7c7;fill-opacity:1;fill-rule:nonzero;stroke:none" d="m 0,0 -16.682,4.734 h 1.409 v 0.64 L -0.999,1.323 v 14.236 l -14.274,-4.056 v 0.638 h -1.413 l 12.852,3.652 1.008,0.287 2.196,0.624 0.63,0.18 V 0"/>
          </g>
          <g transform="translate(459.38901,465.46001)">
            <path style="fill:#c8c7c7;fill-opacity:1;fill-rule:nonzero;stroke:none" d="m 0,0 -14.274,4.058 v 6.129 L 0,14.237"/>
          </g>
          <g transform="translate(460.388,464.13699)">
            <path style="fill:#c8c7c7;fill-opacity:1;fill-rule:nonzero;stroke:none" d="m 0,0 -2.826,0.803 -13.86,3.94 h 1.413 V 5.381 L -0.999,1.323 V 15.56 l -14.274,-4.05 v 0.64 h -1.381 l 12.82,3.643 1.008,0.287 2.196,0.624 0.63,0.18 V 0"/>
          </g>
          <g transform="translate(459.38901,492.00999)">
            <path style="fill:#c8c7c7;fill-opacity:1;fill-rule:nonzero;stroke:none" d="M 0,0 -14.274,4.058 V 10.18 L 0,14.236"/>
          </g>
          <g transform="translate(460.388,490.687)">
            <path style="fill:#c8c7c7;fill-opacity:1;fill-rule:nonzero;stroke:none" d="M 0,0 -2.826,0.803 -3.834,1.09 -16.655,4.734 h 1.382 V 5.381 L -0.999,1.323 v 14.236 l -14.274,-4.056 v 0.638 h -1.413 l 12.852,3.652 1.008,0.287 2.196,0.624 0.63,0.18 V 0"/>
          </g>
          <g transform="translate(459.38901,518.55099)">
            <path style="fill:#c8c7c7;fill-opacity:1;fill-rule:nonzero;stroke:none" d="m 0,0 -14.274,4.058 v 6.129 L 0,14.237"/>
          </g>
          <g transform="translate(460.388,517.228)">
            <path style="fill:#c8c7c7;fill-opacity:1;fill-rule:nonzero;stroke:none" d="M 0,0 -2.826,0.803 -3.834,1.09 -16.686,4.743 h 1.413 V 5.381 L -0.999,1.323 V 15.56 l -14.274,-4.05 v 0.64 h -1.409 L -0.63,16.704 0,16.884 V 0"/>
          </g>
          <g transform="translate(459.38901,423.196)">
            <path style="fill:#c8c7c7;fill-opacity:1;fill-rule:nonzero;stroke:none" d="M 0,0 H -12.015 L 0,3.411"/>
          </g>
          <g transform="translate(460.388,423.196)">
            <path style="fill:#c8c7c7;fill-opacity:1;fill-rule:nonzero;stroke:none" d="M 0,0 H -16.677 L 0,4.734 V 0 M -0.999,3.411 -13.014,0 h 12.015"/>
          </g>
          <g transform="translate(443.549,548.521)">
            <path style="fill:#c8c7c7;fill-opacity:1;fill-rule:nonzero;stroke:none" d="m 0,0 h -11.511 v 0.999 h -4.653 V 0 h -18.477 v 0.999 h -4.653 V 0 h -4.96 l 0.242,0.245 0.002,-0.002 -0.002,0.002 0.353,0.358 -0.395,0.396 H -8.019 L -7.434,0.414 -6.85,0.999 H 0.495 V 0.972 H 0 V 0 m -44.469,0 h -1.116 v 0.999 h 0.119"/>
          </g>
          <g transform="translate(460.759,422.19701)">
            <path style="fill:#c8c7c7;fill-opacity:1;fill-rule:nonzero;stroke:none" d="m 0,0 h -28.209 l -0.243,0.666 -0.27,-0.099 V 0.999 H 0.683 C 0.505,0.636 0.274,0.3 0,0 m -33.724,0 h -18.128 v 0.999 h 18.281 L -33.771,0.99 -33.724,0 m -23.323,0 h -28.35 c -0.042,0.046 -0.084,0.093 -0.124,0.141 v 0.858 h 29.016 V 0.578 L -56.766,0.684 -57.047,0"/>
          </g>
          <g transform="translate(439.72099,553.957)">
            <path style="fill:#c8c7c7;fill-opacity:1;fill-rule:nonzero;stroke:none" d="m 0,0 -14.654,14.885 -0.698,0.71 -6.714,6.82 0.709,0.704 L 0.706,0.707 0,0 m -22.77,23.13 -16.167,16.422 0.342,1.078 16.534,-16.796"/>
          </g>
          <g transform="translate(395.073,553.953)">
            <path style="fill:#c8c7c7;fill-opacity:1;fill-rule:nonzero;stroke:none" d="M 0,0 -0.706,0.707 39.72,40.85 40.061,39.772 15.155,15.045"/>
          </g>
          <g transform="translate(392.548,392.395)">
            <path style="fill:#c8c7c7;fill-opacity:1;fill-rule:nonzero;stroke:none" d="M 0,0 C -0.012,0.023 -0.025,0.045 -0.038,0.066 -0.191,0.3 -0.443,0.463 -0.722,0.507 l -0.143,0.022 0.769,1.872 0.787,-0.129 0.08,0.485 h 0.001 l 0.081,0.495 -0.53,0.087 0.014,0.115 6.397,15.566 0.671,-0.143 0.207,0.981 -0.491,0.105 2.749,6.689 h 0.739 v 1 h -0.328 l 0.884,2.151 0.281,0.684 0.261,-0.107 v -0.577 h 0.54 L 6.884,16.752 H 5.947 V 15.753 H 6.474 L 0,0"/>
          </g>
          <g transform="translate(442.312,392.52)">
            <path style="fill:#c8c7c7;fill-opacity:1;fill-rule:nonzero;stroke:none" d="m 0,0 -5.699,15.628 h 0.185 v 0.999 h -0.55 l -4.758,13.051 h 0.547 v 0.566 l 0.27,0.099 0.243,-0.665 0.785,-2.151 h -0.155 v -1 h 0.519 l 2.438,-6.686 -0.482,-0.108 0.216,-0.981 0.613,0.137 L -0.099,3.181 -0.42,3.127 -0.338,2.632 H -0.339 L -0.258,2.147 0.247,2.23 0.906,0.424 0.642,0.382 C 0.387,0.342 0.155,0.201 0,0"/>
          </g>
          <g transform="translate(386.931,549.78999)">
            <path style="fill:#c8c7c7;fill-opacity:1;fill-rule:nonzero;stroke:none" d="m 0,0 h -1.048 l 5.766,18.198 h 0.644 v 0.999 H 5.035 l 9.119,28.781 2.674,5.545 h 0.131 L 14.194,44.796 13.853,43.719 2.964,9.354 2.608,9.711 1.897,9 2.622,8.274"/>
          </g>
          <g transform="translate(450.201,549.493)">
            <path style="fill:#c8c7c7;fill-opacity:1;fill-rule:nonzero;stroke:none" d="m 0,0 h -1.051 l -3.006,9.488 0.33,0.331 -0.633,0.625 -10.706,33.788 -0.342,1.078 -2.696,8.51 h 0.274 l 2.269,-4.71 10.04,-31.686 h -0.114 v -1.008 h 0.433"/>
          </g>
          <g transform="translate(461.666,544.597)">
            <path style="fill:#c8c7c7;fill-opacity:1;fill-rule:nonzero;stroke:none" d="M 0,0 H -17.118 V 3.897 H -0.396 C -0.387,3.882 -0.378,3.867 -0.369,3.852 -0.278,3.697 -0.15,3.573 0,3.487 V 0"/>
          </g>
          <g transform="translate(461.867,543.59801)">
            <path style="fill:#c8c7c7;fill-opacity:1;fill-rule:nonzero;stroke:none" d="M 0,0 H -18.319 V 5.895 H -1.42 C -1.097,5.606 -0.818,5.269 -0.597,4.896 H -17.32 V 0.999 H -0.202 V 4.486 C -0.054,4.402 0.115,4.356 0.293,4.356 V 5.355 L 0.797,5.649 0.293,5.355 V 4.356 H 0.797 V 3.705 C 0.607,3.666 0.427,3.57 0.293,3.429 0.104,3.24 -0.004,2.988 -0.004,2.727 V 0.081 C -0.004,0.054 -0.002,0.027 0,0"/>
          </g>
          <g transform="translate(387.64999,538.369)">
            <path style="fill:#c8c7c7;fill-opacity:1;fill-rule:nonzero;stroke:none" d="M 0,0 H -9.351 V 6.264 H -8.28 V 4.689 c 0,-0.279 0.126,-0.522 0.288,-0.702 0.279,-0.306 0.666,-0.486 1.143,-0.657 1.422,-0.477 3.726,-0.693 6.057,-0.693 0.265,0 0.529,0.003 0.792,0.009 L 0,0"/>
          </g>
          <g transform="translate(388.649,537.37)">
            <path style="fill:#c8c7c7;fill-opacity:1;fill-rule:nonzero;stroke:none" d="m 0,0 h -11.349 v 7.263 h 0.999 V 0.999 h 9.351 V 3.644 C -0.663,3.652 -0.329,3.664 0,3.68 V 0 M -0.504,0.495 V 0.999 0.495"/>
          </g>
          <path style="fill:#c8c7c7;fill-opacity:1;fill-rule:nonzero;stroke:none" d="m 377.264,545.632 h 19.701 v 3.159 h -19.701 z"/>
          <g transform="translate(397.964,544.633)">
            <path style="fill:#c8c7c7;fill-opacity:1;fill-rule:nonzero;stroke:none" d="M 0,0 H -3.618 V 0.999 H -18.594 V 0 h -3.105 V 5.157 H -0.151 L 0,5.006 V 0 M -0.495,0.504 V 0.999 0.504 M -20.7,0.999 H -0.999 V 4.158 H -20.7 Z"/>
          </g>
          <g transform="translate(386.99001,542.005)">
            <path style="fill:#c8c7c7;fill-opacity:1;fill-rule:nonzero;stroke:none" d="M 0,0 C -0.044,0 -0.088,0 -0.133,0 -1.852,0 -3.58,0.126 -4.84,0.378 -5.47,0.504 -5.983,0.657 -6.298,0.819 -6.451,0.9 -6.55,0.972 -6.595,1.026 L -6.622,1.062 V 2.628 H 6.356 V 1.062 L 6.239,0.945 C 6.086,0.828 5.771,0.684 5.357,0.567 4.141,0.206 2.071,0 0,0"/>
          </g>
          <g transform="translate(386.858,541.006)">
            <path style="fill:#c8c7c7;fill-opacity:1;fill-rule:nonzero;stroke:none" d="M 0,0 C -2.331,0 -4.635,0.216 -6.057,0.693 -6.534,0.864 -6.921,1.044 -7.2,1.35 -7.362,1.53 -7.488,1.773 -7.488,2.052 V 4.626 H 7.488 V 2.052 C 7.488,1.773 7.362,1.53 7.2,1.35 7.129,1.271 7.05,1.203 6.966,1.141 6.858,1.061 6.741,0.993 6.615,0.927 6.42,0.828 6.204,0.741 5.967,0.664 5.647,0.56 5.289,0.474 4.896,0.396 3.999,0.218 2.926,0.102 1.791,0.044 1.462,0.028 1.128,0.016 0.792,0.008 0.529,0.003 0.265,0 0,0 M -6.489,2.061 -6.462,2.025 C -6.417,1.971 -6.318,1.899 -6.165,1.818 -5.85,1.656 -5.337,1.503 -4.707,1.377 -3.447,1.125 -1.719,0.999 0,0.999 c 0.044,0 0.088,0 0.133,0 2.071,0 4.141,0.206 5.357,0.567 0.414,0.117 0.729,0.261 0.882,0.378 L 6.489,2.061 V 3.627 H -6.489 V 2.061"/>
          </g>
          <g transform="translate(388.40601,577.80701)">
            <path style="fill:#c8c7c7;fill-opacity:1;fill-rule:nonzero;stroke:none" d="m 0,0 c -1.008,0.009 -1.827,0.828 -1.827,1.836 0,1.017 0.819,1.836 1.827,1.836 1.008,0 1.827,-0.819 1.836,-1.836 C 1.827,0.828 1.008,0.009 0,0"/>
          </g>
          <g transform="translate(388.40601,576.808)">
            <path style="fill:#c8c7c7;fill-opacity:1;fill-rule:nonzero;stroke:none" d="M 0,0 C -0.989,0 -1.862,0.513 -2.367,1.288 V 4.382 C -1.862,5.157 -0.989,5.67 0,5.67 1.475,5.67 2.687,4.544 2.822,3.104 L 1.545,0.458 C 1.1,0.169 0.57,0 0,0 M 0,4.671 C -1.008,4.671 -1.827,3.852 -1.827,2.835 -1.827,1.827 -1.008,1.008 0,0.999 1.008,1.008 1.827,1.827 1.836,2.835 1.827,3.852 1.008,4.671 0,4.671"/>
          </g>
          <g transform="translate(447.93201,577.80701)">
            <path style="fill:#c8c7c7;fill-opacity:1;fill-rule:nonzero;stroke:none" d="m 0,0 c -1.008,0.009 -1.836,0.828 -1.836,1.836 0,1.017 0.828,1.836 1.836,1.836 1.008,0 1.827,-0.819 1.827,-1.836 C 1.827,0.828 1.008,0.009 0,0"/>
          </g>
          <g transform="translate(447.93201,576.808)">
            <path style="fill:#c8c7c7;fill-opacity:1;fill-rule:nonzero;stroke:none" d="M 0,0 C -0.623,0 -1.199,0.201 -1.667,0.542 L -2.832,2.957 C -2.768,4.466 -1.525,5.67 0,5.67 0.983,5.67 1.852,5.163 2.358,4.396 V 1.274 C 1.852,0.507 0.983,0 0,0 M 0,4.671 C -1.008,4.671 -1.836,3.852 -1.836,2.835 -1.836,1.827 -1.008,1.008 0,0.999 1.008,1.008 1.827,1.827 1.827,2.835 1.827,3.852 1.008,4.671 0,4.671"/>
          </g>
          <g transform="translate(388.395,571.722)">
            <path style="fill:#c8c7c7;fill-opacity:1;fill-rule:nonzero;stroke:none" d="m 0,0 c -0.006,0.122 -0.035,0.241 -0.089,0.353 -0.113,0.262 -0.329,0.464 -0.597,0.55 L 4.68,12.018 5.644,12.26 c 0.122,0.03 0.236,0.083 0.336,0.155 L 0,0"/>
          </g>
          <g transform="translate(447.79401,571.883)">
            <path style="fill:#c8c7c7;fill-opacity:1;fill-rule:nonzero;stroke:none" d="m 0,0 -5.899,12.221 c 0.054,-0.025 0.11,-0.045 0.169,-0.059 L -4.624,11.883 0.761,0.721 0.678,0.696 C 0.399,0.606 0.165,0.408 0.048,0.138 0.028,0.093 0.013,0.047 0,0"/>
          </g>
          <g transform="translate(392.29401,567.98801)">
            <path style="fill:#c8c7c7;fill-opacity:1;fill-rule:nonzero;stroke:none" d="m 0,0 h -5.564 l 0.482,0.999 H 0"/>
          </g>
          <g transform="translate(450.40199,565.909)">
            <path style="fill:#c8c7c7;fill-opacity:1;fill-rule:nonzero;stroke:none" d="m 0,0 h -5.837 v 1.008 h 5.351"/>
          </g>
          <g transform="translate(423.85699,603.27699)">
            <path style="fill:#c8c7c7;fill-opacity:1;fill-rule:nonzero;stroke:none" d="m 0,0 h -11.385 v 0.114 c 0.119,0.05 0.229,0.124 0.324,0.219 0.18,0.172 0.287,0.417 0.296,0.666 h 9.947 C -0.809,0.75 -0.702,0.505 -0.522,0.333 -0.384,0.188 -0.197,0.091 0,0.053 V 0"/>
          </g>
          <g transform="translate(399.539,548.76401)">
            <path style="fill:#c8c7c7;fill-opacity:1;fill-rule:nonzero;stroke:none" d="M 0,0 -0.002,0.002"/>
          </g>
          <g transform="translate(399.188,548.41299)">
            <path style="fill:#c8c7c7;fill-opacity:1;fill-rule:nonzero;stroke:none" d="m 0,0 -0.108,0.108 -0.997,0.999 -0.27,0.27 -8.26,8.274 -0.724,0.726 0.711,0.711 L -4.82,6.247 -4.114,5.54 0.702,0.711 0.349,0.353 0.107,0.108"/>
          </g>
          <g transform="translate(436.11501,548.935)">
            <path style="fill:#c8c7c7;fill-opacity:1;fill-rule:nonzero;stroke:none" d="M 0,0 -0.585,0.585 -0.702,0.702 9.648,11.079 10.359,10.377 10.029,10.046 0.584,0.585"/>
          </g>
          <g transform="translate(403.157,419.047)">
            <path style="fill:#c8c7c7;fill-opacity:1;fill-rule:nonzero;stroke:none" d="m 0,0 h -7.319 l 0.056,0.441 -0.495,0.062 V 0.504 L -8.262,0.567 -8.334,0 h -8.403 l 0.123,0.324 -0.461,0.175 0.002,0.005 -0.002,-0.005 -0.466,0.176 L -17.798,0 h -3.234 c 0.015,0.015 0.03,0.03 0.044,0.045 0.246,0.254 0.338,0.619 0.252,0.954 H 0 V 0"/>
          </g>
          <g transform="translate(452.655,419.047)">
            <path style="fill:#c8c7c7;fill-opacity:1;fill-rule:nonzero;stroke:none" d="M 0,0 H -3.747 L -4.004,0.675 -4.47,0.5 -4.472,0.504 -4.47,0.5 -4.94,0.324 -4.817,0 h -7.359 L -12.248,0.567 -13.247,0.441 -13.191,0 h -6.284 V 0.999 H -0.298 C -0.39,0.664 -0.297,0.299 -0.044,0.045 -0.029,0.03 -0.015,0.015 0,0"/>
          </g>
          <g transform="translate(442.274,391.06599)">
            <path style="fill:#c8c7c7;fill-opacity:1;fill-rule:nonzero;stroke:none" d="m 0,0 h -12.789 l -0.047,0.999 H -0.151 C -0.172,0.861 -0.166,0.72 -0.13,0.585 -0.065,0.354 -0.023,0.155 0,0 m -13.791,0 h -21.047 l 0.047,0.999 h 20.954 L -13.791,0 m -22.048,0 h -13.929 c 0.023,0.155 0.065,0.354 0.129,0.585 0.036,0.135 0.043,0.276 0.022,0.414 h 13.824 L -35.839,0"/>
          </g>
          <g transform="translate(436.799,408.148)">
            <path style="fill:#c8c7c7;fill-opacity:1;fill-rule:nonzero;stroke:none" d="M 0,0 H -8.109 L -8.155,0.999 H 0 V 0 m -9.11,0 h -19.457 l 0.047,0.999 H -9.156 L -9.11,0 m -20.458,0 h -8.736 v 0.999 h 8.782"/>
          </g>
          <g transform="translate(407.33701,388.91499)">
            <path style="fill:#c8c7c7;fill-opacity:1;fill-rule:nonzero;stroke:none" d="m 0,0 h -1.001 l 0.1,2.151 0.046,0.999 0.749,16.083 0.046,0.999 0.608,13.05 H 1.549 L 0.942,20.232 0.895,19.233 0.147,3.15 0.1,2.151"/>
          </g>
          <g transform="translate(429.58501,388.91499)">
            <path style="fill:#c8c7c7;fill-opacity:1;fill-rule:nonzero;stroke:none" d="m 0,0 h -1.001 l -0.1,2.151 -0.047,0.999 -0.748,16.083 -0.047,0.999 -0.607,13.05 -0.046,0.99 0.396,0.018 v -1.008 h 0.651 L -0.942,20.232 -0.895,19.233 -0.147,3.15 -0.1,2.151"/>
          </g>
          <g transform="translate(393.32001,395.15199)">
            <path style="fill:#c8c7c7;fill-opacity:1;fill-rule:nonzero;stroke:none" d="M 0,0 H -0.001"/>
          </g>
          <g transform="translate(393.239,394.666)">
            <path style="fill:#c8c7c7;fill-opacity:1;fill-rule:nonzero;stroke:none" d="m 0,0 -27.952,4.588 c 0.092,0.242 0.248,0.56 0.459,0.932 l 11.71,-1.922 -0.129,-0.34 0.469,-0.176 -0.001,-0.004 0.001,0.004 0.467,-0.175 0.2,0.526 L -1.354,1.23 -1.44,0.549 -0.45,0.423 -0.368,1.068 0.162,0.981 0.08,0.486 0,0"/>
          </g>
          <g transform="translate(399.953,411.271)">
            <path style="fill:#c8c7c7;fill-opacity:1;fill-rule:nonzero;stroke:none" d="M 0,0 -4.969,1.067 -4.842,2.066 -0.283,1.086 0.207,0.981 0,0 m -5.954,1.279 -9.289,1.995 0.361,0.95 9.054,-1.946 -0.126,-0.999 m -10.271,2.206 -4.753,1.022 c 0.274,0.287 0.546,0.572 0.814,0.852 l 4.3,-0.924 -0.361,-0.95"/>
          </g>
          <g transform="translate(435.87199,411.271)">
            <path style="fill:#c8c7c7;fill-opacity:1;fill-rule:nonzero;stroke:none" d="M 0,0 -0.216,0.981 0.266,1.09 4.328,2.004 4.455,1.005 0.613,0.138 0,0 m 5.442,1.227 -0.128,1 8.071,1.817 L 13.743,3.1 5.442,1.227 M 14.728,3.322 14.37,4.266 19.138,5.34 C 19.403,5.063 19.671,4.782 19.942,4.498 L 14.728,3.322"/>
          </g>
          <g transform="translate(441.974,395.15199)">
            <path style="fill:#c8c7c7;fill-opacity:1;fill-rule:nonzero;stroke:none" d="M 0,0 H 0.001"/>
          </g>
          <g transform="translate(442.05499,394.666)">
            <path style="fill:#c8c7c7;fill-opacity:1;fill-rule:nonzero;stroke:none" d="M 0,0 -0.08,0.486 -0.162,0.981 0.158,1.034 0.377,1.071 0.459,0.423 1.458,0.549 1.37,1.237 13.787,3.313 13.941,2.907 14.408,3.082 14.409,3.078 14.408,3.082 14.877,3.258 14.792,3.481 26.983,5.518 C 27.059,5.385 27.128,5.259 27.189,5.139 27.298,4.927 27.384,4.74 27.441,4.585 L 0.505,0.084 0,0"/>
          </g>
          <g transform="translate(456.464,397.744)">
            <path style="fill:#c8c7c7;fill-opacity:1;fill-rule:nonzero;stroke:none" d="M 0,0 -0.001,0.004 0,0 m -8.279,21.803 -10e-4,0.004"/>
          </g>
          <g transform="translate(455.996,397.573)">
            <path style="fill:#c8c7c7;fill-opacity:1;fill-rule:nonzero;stroke:none" d="m 0,0 -0.154,0.406 -6.227,16.392 -0.358,0.944 -1.418,3.732 -0.123,0.324 0.47,0.176 0.466,0.175 0.256,-0.675 1.334,-3.51 L -5.396,17.02 0.851,0.574 0.936,0.351 0.467,0.175"/>
          </g>
          <g transform="translate(377.795,397.744)">
            <path style="fill:#c8c7c7;fill-opacity:1;fill-rule:nonzero;stroke:none" d="M 0,0 0.001,0.004 0,0 m 8.287,21.802 0.002,0.005"/>
          </g>
          <g transform="translate(378.263,397.573)">
            <path style="fill:#c8c7c7;fill-opacity:1;fill-rule:nonzero;stroke:none" d="m 0,0 -0.467,0.175 -0.469,0.176 0.129,0.34 6.272,16.492 0.361,0.95 1.27,3.341 0.257,0.675 L 7.819,21.973 8.28,21.798 8.157,21.474 6.808,17.922 6.447,16.972 0.2,0.526"/>
          </g>
          <g transform="translate(395.399,419.55099)">
            <path style="fill:#c8c7c7;fill-opacity:1;fill-rule:nonzero;stroke:none" d="M 0,0 V 0.001"/>
          </g>
          <g transform="translate(392.789,395.089)">
            <path style="fill:#c8c7c7;fill-opacity:1;fill-rule:nonzero;stroke:none" d="M 0,0 -0.99,0.126 -0.904,0.807 1.21,17.461 1.336,18.46 2.034,23.958 2.106,24.525 2.61,24.461 3.105,24.399 3.049,23.958 2.322,18.248 2.195,17.249 0.097,0.76 0.082,0.645"/>
          </g>
          <g transform="translate(442.51401,395.089)">
            <path style="fill:#c8c7c7;fill-opacity:1;fill-rule:nonzero;stroke:none" d="m 0,0 -0.082,0.648 -2.105,16.539 -0.127,0.999 -0.735,5.772 -0.056,0.441 0.999,0.126 0.072,-0.567 0.706,-5.549 0.128,-1 L 0.911,0.814 0.999,0.126"/>
          </g>
          <path style="fill:#c8c7c7;fill-opacity:1;fill-rule:nonzero;stroke:none" d="m 405.254,449.737 h 2.655 v 19.143 h -2.655 z"/>
          <g transform="translate(408.40401,449.242)">
            <path style="fill:#c8c7c7;fill-opacity:1;fill-rule:nonzero;stroke:none" d="M 0,0 V 0.495 H -4.149 V 19.638 H -3.15 V 0.495 h 2.655 V 19.638 H 0.504 V 0.495 H 0"/>
          </g>
          <path style="fill:#c8c7c7;fill-opacity:1;fill-rule:nonzero;stroke:none" d="m 405.254,476.287 h 2.655 v 19.134 h -2.655 z"/>
          <g transform="translate(408.40401,475.783)">
            <path style="fill:#c8c7c7;fill-opacity:1;fill-rule:nonzero;stroke:none" d="M 0,0 V 0.504 H -4.149 V 19.638 H -3.15 V 0.504 h 2.655 V 19.638 H 0.504 V 0.504 H 0"/>
          </g>
          <path style="fill:#c8c7c7;fill-opacity:1;fill-rule:nonzero;stroke:none" d="m 405.254,502.828 h 2.655 v 19.143 h -2.655 z"/>
          <g transform="translate(408.40401,502.33299)">
            <path style="fill:#c8c7c7;fill-opacity:1;fill-rule:nonzero;stroke:none" d="M 0,0 V 0.495 H -4.149 V 19.638 H -3.15 V 0.495 h 2.655 V 19.638 H 0.504 V 0.495 H 0"/>
          </g>
          <path style="fill:#c8c7c7;fill-opacity:1;fill-rule:nonzero;stroke:none" d="m 392.168,443.329 h 15.741 v 5.409 h -15.741 z"/>
          <g transform="translate(404.255,442.33)">
            <path style="fill:#c8c7c7;fill-opacity:1;fill-rule:nonzero;stroke:none" d="M 0,0 H -13.086 V 7.407 H 4.149 V 6.912 7.407 H 4.653 V 0.999 H 0 V 0 M -12.087,0.999 H 3.654 v 5.409 h -15.741 z"/>
          </g>
          <path style="fill:#c8c7c7;fill-opacity:1;fill-rule:nonzero;stroke:none" d="m 392.168,469.879 h 15.741 v 5.409 h -15.741 z"/>
          <g transform="translate(408.908,468.88)">
            <path style="fill:#c8c7c7;fill-opacity:1;fill-rule:nonzero;stroke:none" d="M 0,0 H -17.739 V 7.407 H -0.504 V 6.903 7.407 H 0 V 0 M -16.74,0.999 H -0.999 V 6.408 H -16.74 Z"/>
          </g>
          <path style="fill:#c8c7c7;fill-opacity:1;fill-rule:nonzero;stroke:none" d="m 392.168,496.42 h 15.741 v 5.409 h -15.741 z"/>
          <g transform="translate(408.908,495.42101)">
            <path style="fill:#c8c7c7;fill-opacity:1;fill-rule:nonzero;stroke:none" d="M 0,0 H -17.739 V 7.407 H -0.504 V 6.912 7.407 H 0 V 0 M -16.74,0.999 H -0.999 V 6.408 H -16.74 Z"/>
          </g>
          <path style="fill:#c8c7c7;fill-opacity:1;fill-rule:nonzero;stroke:none" d="m 407.909,522.97 h -15.741 v 5.409 h 15.741 z"/>
          <g transform="translate(408.908,521.97099)">
            <path style="fill:#c8c7c7;fill-opacity:1;fill-rule:nonzero;stroke:none" d="M 0,0 H -17.739 V 7.407 H -4.653 V 6.408 H -16.74 V 0.999 H -0.999 V 6.408 H 0"/>
          </g>
          <path style="fill:#c8c7c7;fill-opacity:1;fill-rule:nonzero;stroke:none" d="m 428.384,449.737 h 2.655 v 19.143 h -2.655 z"/>
          <g transform="translate(427.38499,448.73801)">
            <path style="fill:#c8c7c7;fill-opacity:1;fill-rule:nonzero;stroke:none" d="M 0,0 V 21.141 20.142 H 0.999 V 0.999 H 3.654 V 20.142 H 4.653 V 0.999 H 0 V 0.504"/>
          </g>
          <path style="fill:#c8c7c7;fill-opacity:1;fill-rule:nonzero;stroke:none" d="m 428.384,476.287 h 2.655 v 19.134 h -2.655 z"/>
          <g transform="translate(427.38499,475.28799)">
            <path style="fill:#c8c7c7;fill-opacity:1;fill-rule:nonzero;stroke:none" d="M 0,0 V 21.132 20.133 H 0.999 V 0.999 H 3.654 V 20.133 H 4.653 V 0.999 H 0 V 0.495"/>
          </g>
          <path style="fill:#c8c7c7;fill-opacity:1;fill-rule:nonzero;stroke:none" d="m 428.384,502.828 h 2.655 v 19.143 h -2.655 z"/>
          <g transform="translate(427.38499,501.82899)">
            <path style="fill:#c8c7c7;fill-opacity:1;fill-rule:nonzero;stroke:none" d="M 0,0 V 21.141 20.142 H 0.999 V 0.999 H 3.654 V 20.142 H 4.653 V 0.999 H 0 V 0.504"/>
          </g>
          <path style="fill:#c8c7c7;fill-opacity:1;fill-rule:nonzero;stroke:none" d="m 428.384,443.329 h 15.732 v 5.409 h -15.732 z"/>
          <g transform="translate(445.11501,442.33)">
            <path style="fill:#c8c7c7;fill-opacity:1;fill-rule:nonzero;stroke:none" d="m 0,0 h -13.077 v 0.999 h -0.504 V 0.504 0.999 H -17.73 V 0 7.407 H 0 V 0 m -16.731,0.999 h 15.732 v 5.409 h -15.732 z"/>
          </g>
          <path style="fill:#c8c7c7;fill-opacity:1;fill-rule:nonzero;stroke:none" d="m 428.384,469.879 h 15.732 v 5.409 h -15.732 z"/>
          <g transform="translate(445.11501,468.88)">
            <path style="fill:#c8c7c7;fill-opacity:1;fill-rule:nonzero;stroke:none" d="M 0,0 H -17.73 V 7.407 H 0 V 0 m -16.731,0.999 h 15.732 v 5.409 h -15.732 z"/>
          </g>
          <path style="fill:#c8c7c7;fill-opacity:1;fill-rule:nonzero;stroke:none" d="m 428.384,496.42 h 15.732 v 5.409 h -15.732 z"/>
          <g transform="translate(445.11501,495.42101)">
            <path style="fill:#c8c7c7;fill-opacity:1;fill-rule:nonzero;stroke:none" d="M 0,0 H -17.73 V 7.407 H 0 V 0 m -16.731,0.999 h 15.732 v 5.409 h -15.732 z"/>
          </g>
          <path style="fill:#c8c7c7;fill-opacity:1;fill-rule:nonzero;stroke:none" d="m 444.116,522.97 h -15.732 v 5.409 h 15.732 z"/>
          <g transform="translate(445.11501,521.97099)">
            <path style="fill:#c8c7c7;fill-opacity:1;fill-rule:nonzero;stroke:none" d="M 0,0 H -17.73 V 7.407 6.408 h 0.999 V 0.999 H -0.999 V 6.408 H -13.077 V 7.407 H 0 V 0.638"/>
          </g>
          <path style="fill:#c8c7c7;fill-opacity:1;fill-rule:nonzero;stroke:none" d="m 405.254,529.378 h 2.655 v 19.143 h -2.655 z"/>
          <g transform="translate(408.908,528.379)">
            <path style="fill:#c8c7c7;fill-opacity:1;fill-rule:nonzero;stroke:none" d="M 0,0 H -4.653 V 21.141 H 0 V 0 m -3.654,0.999 h 2.655 v 19.143 h -2.655 z"/>
          </g>
          <path style="fill:#c8c7c7;fill-opacity:1;fill-rule:nonzero;stroke:none" d="m 428.384,529.378 h 2.655 v 19.143 h -2.655 z"/>
          <g transform="translate(432.03799,528.379)">
            <path style="fill:#c8c7c7;fill-opacity:1;fill-rule:nonzero;stroke:none" d="M 0,0 H -4.653 V 21.141 H 0 V 0 M -0.504,0.495 V 0.999 0.495 m -3.15,0.504 h 2.655 v 19.143 h -2.655 z"/>
          </g>
          <path style="fill:#c8c7c7;fill-opacity:1;fill-rule:nonzero;stroke:none" d="m 405.254,423.196 h 2.655 v 19.134 h -2.655 z"/>
          <g transform="translate(408.908,422.19701)">
            <path style="fill:#c8c7c7;fill-opacity:1;fill-rule:nonzero;stroke:none" d="M 0,0 H -4.653 V 21.132 H 0 V 0 m -3.654,0.999 h 2.655 v 19.134 h -2.655 z"/>
          </g>
          <path style="fill:#c8c7c7;fill-opacity:1;fill-rule:nonzero;stroke:none" d="m 428.384,423.196 h 2.655 v 19.134 h -2.655 z"/>
          <g transform="translate(432.03799,422.19701)">
            <path style="fill:#c8c7c7;fill-opacity:1;fill-rule:nonzero;stroke:none" d="m 0,0 h -4.653 v 21.132 h 4.149 v -0.495 0.495 H 0 V 0 m -3.654,0.999 h 2.655 v 19.134 h -2.655 z"/>
          </g>
          <g transform="translate(459.162,551.95599)">
            <path style="fill:#ffffff;fill-opacity:1;fill-rule:nonzero;stroke:none" d="m 0,0 c -0.773,1.326 -2.117,2.287 -3.708,2.556 l -9.695,20.105 2.534,0.765 v 10.377 l -8.99,2.254 -9.304,19.3 h -8.961 c 0,1.455 -0.89,2.636 -1.994,2.636 h -7.964 c -1.101,0 -1.99,-1.181 -1.99,-2.636 h -8.961 l -9.333,-19.359 -8.753,-2.195 V 23.426 l 2.352,-0.707 -9.723,-20.163 c -2.504,-0.421 -4.41,-2.565 -4.41,-5.148 v -2.681 c -3.297,0 -5.975,-2.36 -5.975,-5.271 0,-2.912 2.678,-5.272 5.975,-5.272 v -15.818 c -3.297,0 -5.975,-2.358 -5.975,-5.27 0,-2.912 2.678,-5.273 5.975,-5.273 v -15.815 c -3.297,0 -5.975,-2.361 -5.975,-5.274 0,-2.913 2.678,-5.271 5.975,-5.271 v -15.817 c -3.297,0 -5.975,-2.36 -5.975,-5.271 0,-2.914 2.678,-5.271 5.975,-5.271 v -15.815 c -3.297,0 -5.975,-2.362 -5.975,-5.274 0,-2.911 2.678,-5.271 5.975,-5.271 v -2.682 c 0,-2.883 2.379,-5.226 5.309,-5.226 h 2.883 c -7.047,-7.236 -18.583,-19.554 -17.15,-21.357 l 2.045,-2.578 25.321,-3.94 c -0.248,-0.891 -0.261,-1.516 0.038,-1.778 l 2.518,-2.226 h 46.328 l 2.518,2.226 c 0.301,0.262 0.289,0.887 0.039,1.778 l 25.327,3.94 2.043,2.578 c 1.429,1.803 -10.099,14.121 -17.157,21.357 h 4.234 c 2.927,0 5.306,2.343 5.306,5.226 v 2.682 c 3.301,0 5.974,2.36 5.974,5.271 0,2.912 -2.673,5.274 -5.974,5.274 v 15.815 c 3.301,0 5.974,2.357 5.974,5.271 0,2.911 -2.673,5.271 -5.974,5.271 v 15.817 c 3.301,0 5.974,2.358 5.974,5.271 0,2.913 -2.673,5.274 -5.974,5.274 v 15.815 c 3.301,0 5.974,2.361 5.974,5.273 0,2.912 -2.673,5.27 -5.974,5.27 v 15.818 c 3.301,0 5.974,2.36 5.974,5.272 0,2.911 -2.673,5.271 -5.974,5.271 v 2.638 h 5.974 c 0,-1.457 2.34,-2.638 5.226,-2.638 2.888,0 5.227,1.181 5.227,2.638 v -2.638 h 4.148 V 0"/>
          </g>
          <g transform="translate(414.64999,600.55)">
            <path style="fill:#ffffff;fill-opacity:1;fill-rule:nonzero;stroke:none" d="M 0,0 V 6.229"/>
          </g>
          <g transform="translate(414.64999,600.55)">
            <path style="fill:none;stroke:#c8c7c7;stroke-width:1;stroke-linecap:butt;stroke-linejoin:miter;stroke-miterlimit:4;stroke-dasharray:none;stroke-opacity:1" d="M 0,0 V 6.229"/>
          </g>
          <g transform="translate(414.64999,552.287)">
            <path style="fill:#ffffff;fill-opacity:1;fill-rule:nonzero;stroke:none" d="M 0,0 V 7.265"/>
          </g>
          <g transform="translate(414.64999,552.287)">
            <path style="fill:none;stroke:#c8c7c7;stroke-width:1;stroke-linecap:butt;stroke-linejoin:miter;stroke-miterlimit:4;stroke-dasharray:none;stroke-opacity:1" d="M 0,0 V 7.265"/>
          </g>
          <g transform="translate(429.362,579.864)">
            <path style="fill:#ffffff;fill-opacity:1;fill-rule:nonzero;stroke:none" d="M 0,0 -14.636,-14.677 -29.274,0 -14.636,14.679"/>
          </g>
          <g transform="translate(429.362,579.864)">
            <path style="fill:none;stroke:#c8c7c7;stroke-width:1;stroke-linecap:butt;stroke-linejoin:miter;stroke-miterlimit:4;stroke-dasharray:none;stroke-opacity:1" d="M 0,0 -14.636,-14.677 -29.274,0 -14.636,14.679 Z"/>
          </g>
          <g transform="translate(421.617,593.685)">
            <path style="fill:#ffffff;fill-opacity:1;fill-rule:nonzero;stroke:none" d="m 0,0 c 0,-3.792 -3.065,-6.866 -6.847,-6.866 -3.78,0 -6.848,3.074 -6.848,6.866 0,3.792 3.068,6.865 6.848,6.865 C -3.065,6.865 0,3.792 0,0"/>
          </g>
          <g transform="translate(421.617,593.685)">
            <path style="fill:none;stroke:#c8c7c7;stroke-width:1;stroke-linecap:butt;stroke-linejoin:miter;stroke-miterlimit:4;stroke-dasharray:none;stroke-opacity:1" d="m 0,0 c 0,-3.792 -3.065,-6.866 -6.847,-6.866 -3.78,0 -6.848,3.074 -6.848,6.866 0,3.792 3.068,6.865 6.848,6.865 C -3.065,6.865 0,3.792 0,0 Z"/>
          </g>
          <g transform="translate(421.381,566.179)">
            <path style="fill:#ffffff;fill-opacity:1;fill-rule:nonzero;stroke:none" d="m 0,0 c 0,-3.791 -3.067,-6.864 -6.851,-6.864 -3.781,0 -6.846,3.073 -6.846,6.864 0,3.791 3.065,6.867 6.846,6.867 C -3.067,6.867 0,3.791 0,0"/>
          </g>
          <g transform="translate(421.381,566.179)">
            <path style="fill:none;stroke:#c8c7c7;stroke-width:1;stroke-linecap:butt;stroke-linejoin:miter;stroke-miterlimit:4;stroke-dasharray:none;stroke-opacity:1" d="m 0,0 c 0,-3.791 -3.067,-6.864 -6.851,-6.864 -3.781,0 -6.846,3.073 -6.846,6.864 0,3.791 3.065,6.867 6.846,6.867 C -3.067,6.867 0,3.791 0,0 Z"/>
          </g>
          <g transform="translate(407.644,579.95399)">
            <path style="fill:#ffffff;fill-opacity:1;fill-rule:nonzero;stroke:none" d="m 0,0 c 0,-3.791 -3.065,-6.867 -6.85,-6.867 -3.781,0 -6.848,3.076 -6.848,6.867 0,3.791 3.067,6.864 6.848,6.864 C -3.065,6.864 0,3.791 0,0"/>
          </g>
          <g transform="translate(407.644,579.95399)">
            <path style="fill:none;stroke:#c8c7c7;stroke-width:1;stroke-linecap:butt;stroke-linejoin:miter;stroke-miterlimit:4;stroke-dasharray:none;stroke-opacity:1" d="m 0,0 c 0,-3.791 -3.065,-6.867 -6.85,-6.867 -3.781,0 -6.848,3.076 -6.848,6.867 0,3.791 3.067,6.864 6.848,6.864 C -3.065,6.864 0,3.791 0,0 Z"/>
          </g>
          <g transform="translate(435.02901,579.95399)">
            <path style="fill:#ffffff;fill-opacity:1;fill-rule:nonzero;stroke:none" d="m 0,0 c 0,-3.791 -3.063,-6.867 -6.845,-6.867 -3.781,0 -6.846,3.076 -6.846,6.867 0,3.791 3.065,6.864 6.846,6.864 C -3.063,6.864 0,3.791 0,0"/>
          </g>
          <g transform="translate(435.02901,579.95399)">
            <path style="fill:none;stroke:#c8c7c7;stroke-width:1;stroke-linecap:butt;stroke-linejoin:miter;stroke-miterlimit:4;stroke-dasharray:none;stroke-opacity:1" d="m 0,0 c 0,-3.791 -3.063,-6.867 -6.845,-6.867 -3.781,0 -6.846,3.076 -6.846,6.867 0,3.791 3.065,6.864 6.846,6.864 C -3.063,6.864 0,3.791 0,0 Z"/>
          </g>
          <g transform="translate(390.323,551.76801)">
            <path style="fill:#ffffff;fill-opacity:1;fill-rule:nonzero;stroke:none" d="M 0,0 V -126.106"/>
          </g>
          <g transform="translate(390.323,551.76801)">
            <path style="fill:none;stroke:#c8c7c7;stroke-width:1;stroke-linecap:butt;stroke-linejoin:miter;stroke-miterlimit:4;stroke-dasharray:none;stroke-opacity:1" d="M 0,0 V -126.106"/>
          </g>
          <path style="fill:#ffffff;fill-opacity:1;fill-rule:nonzero;stroke:none" d="m 370.66,425.694 h 5.175 v 126.323 h -5.175 z"/>
          <path style="fill:none;stroke:#c8c7c7;stroke-width:1;stroke-linecap:butt;stroke-linejoin:miter;stroke-miterlimit:4;stroke-dasharray:none;stroke-opacity:1" d="m 375.835,425.694 h -5.175 v 126.323 h 5.175 z"/>
          <g transform="translate(372.998,456.817)">
            <path style="fill:#ffffff;fill-opacity:1;fill-rule:nonzero;stroke:none" d="m 0,0 18.262,-5.188 v -5.188 L 0,-15.562"/>
          </g>
          <g transform="translate(372.998,456.817)">
            <path style="fill:none;stroke:#c8c7c7;stroke-width:1;stroke-linecap:butt;stroke-linejoin:miter;stroke-miterlimit:4;stroke-dasharray:none;stroke-opacity:1" d="m 0,0 18.262,-5.188 v -5.188 L 0,-15.562 Z"/>
          </g>
          <g transform="translate(372.998,483.36301)">
            <path style="fill:#ffffff;fill-opacity:1;fill-rule:nonzero;stroke:none" d="m 0,0 18.262,-5.187 v -5.189 L 0,-15.563"/>
          </g>
          <g transform="translate(372.998,483.36301)">
            <path style="fill:none;stroke:#c8c7c7;stroke-width:1;stroke-linecap:butt;stroke-linejoin:miter;stroke-miterlimit:4;stroke-dasharray:none;stroke-opacity:1" d="m 0,0 18.262,-5.187 v -5.189 L 0,-15.563 Z"/>
          </g>
          <g transform="translate(372.998,509.909)">
            <path style="fill:#ffffff;fill-opacity:1;fill-rule:nonzero;stroke:none" d="m 0,0 18.262,-5.188 v -5.188 L 0,-15.563"/>
          </g>
          <g transform="translate(372.998,509.909)">
            <path style="fill:none;stroke:#c8c7c7;stroke-width:1;stroke-linecap:butt;stroke-linejoin:miter;stroke-miterlimit:4;stroke-dasharray:none;stroke-opacity:1" d="m 0,0 18.262,-5.188 v -5.188 L 0,-15.563 Z"/>
          </g>
          <g transform="translate(372.998,536.45399)">
            <path style="fill:#ffffff;fill-opacity:1;fill-rule:nonzero;stroke:none" d="m 0,0 18.262,-5.187 v -5.188 L 0,-15.561"/>
          </g>
          <g transform="translate(372.998,536.45399)">
            <path style="fill:none;stroke:#c8c7c7;stroke-width:1;stroke-linecap:butt;stroke-linejoin:miter;stroke-miterlimit:4;stroke-dasharray:none;stroke-opacity:1" d="m 0,0 18.262,-5.187 v -5.188 L 0,-15.561 Z"/>
          </g>
          <g transform="translate(372.998,425.69501)">
            <path style="fill:#ffffff;fill-opacity:1;fill-rule:nonzero;stroke:none" d="M 0,0 V 4.577 L 16.112,0"/>
          </g>
          <g transform="translate(372.998,425.69501)">
            <path style="fill:none;stroke:#c8c7c7;stroke-width:1;stroke-linecap:butt;stroke-linejoin:miter;stroke-miterlimit:4;stroke-dasharray:none;stroke-opacity:1" d="M 0,0 V 4.577 L 16.112,0 Z"/>
          </g>
          <g transform="translate(439.56599,551.76801)">
            <path style="fill:#ffffff;fill-opacity:1;fill-rule:nonzero;stroke:none" d="M 0,0 V -126.106"/>
          </g>
          <g transform="translate(439.56599,551.76801)">
            <path style="fill:none;stroke:#c8c7c7;stroke-width:1;stroke-linecap:butt;stroke-linejoin:miter;stroke-miterlimit:4;stroke-dasharray:none;stroke-opacity:1" d="M 0,0 V -126.106"/>
          </g>
          <path style="fill:#ffffff;fill-opacity:1;fill-rule:nonzero;stroke:none" d="m 454.058,425.694 h 5.178 v 121.133 h -5.178 z"/>
          <path style="fill:none;stroke:#c8c7c7;stroke-width:1;stroke-linecap:butt;stroke-linejoin:miter;stroke-miterlimit:4;stroke-dasharray:none;stroke-opacity:1" d="m 454.058,425.694 h 5.178 v 121.133 h -5.178 z"/>
          <g transform="translate(456.89101,456.817)">
            <path style="fill:#ffffff;fill-opacity:1;fill-rule:nonzero;stroke:none" d="m 0,0 -18.256,-5.188 v -5.188 L 0,-15.562"/>
          </g>
          <g transform="translate(456.89101,456.817)">
            <path style="fill:none;stroke:#c8c7c7;stroke-width:1;stroke-linecap:butt;stroke-linejoin:miter;stroke-miterlimit:4;stroke-dasharray:none;stroke-opacity:1" d="m 0,0 -18.256,-5.188 v -5.188 L 0,-15.562 Z"/>
          </g>
          <g transform="translate(456.89101,483.36301)">
            <path style="fill:#ffffff;fill-opacity:1;fill-rule:nonzero;stroke:none" d="m 0,0 -18.256,-5.187 v -5.189 L 0,-15.563"/>
          </g>
          <g transform="translate(456.89101,483.36301)">
            <path style="fill:none;stroke:#c8c7c7;stroke-width:1;stroke-linecap:butt;stroke-linejoin:miter;stroke-miterlimit:4;stroke-dasharray:none;stroke-opacity:1" d="m 0,0 -18.256,-5.187 v -5.189 L 0,-15.563 Z"/>
          </g>
          <g transform="translate(456.89101,509.909)">
            <path style="fill:#ffffff;fill-opacity:1;fill-rule:nonzero;stroke:none" d="m 0,0 -18.256,-5.188 v -5.188 L 0,-15.563"/>
          </g>
          <g transform="translate(456.89101,509.909)">
            <path style="fill:none;stroke:#c8c7c7;stroke-width:1;stroke-linecap:butt;stroke-linejoin:miter;stroke-miterlimit:4;stroke-dasharray:none;stroke-opacity:1" d="m 0,0 -18.256,-5.188 v -5.188 L 0,-15.563 Z"/>
          </g>
          <g transform="translate(456.89101,536.45399)">
            <path style="fill:#ffffff;fill-opacity:1;fill-rule:nonzero;stroke:none" d="m 0,0 -18.256,-5.187 v -5.188 L 0,-15.561"/>
          </g>
          <g transform="translate(456.89101,536.45399)">
            <path style="fill:none;stroke:#c8c7c7;stroke-width:1;stroke-linecap:butt;stroke-linejoin:miter;stroke-miterlimit:4;stroke-dasharray:none;stroke-opacity:1" d="m 0,0 -18.256,-5.187 v -5.188 L 0,-15.561 Z"/>
          </g>
          <g transform="translate(456.89101,425.69501)">
            <path style="fill:#ffffff;fill-opacity:1;fill-rule:nonzero;stroke:none" d="M 0,0 V 4.577 L -16.11,0"/>
          </g>
          <g transform="translate(456.89101,425.69501)">
            <path style="fill:none;stroke:#c8c7c7;stroke-width:1;stroke-linecap:butt;stroke-linejoin:miter;stroke-miterlimit:4;stroke-dasharray:none;stroke-opacity:1" d="M 0,0 V 4.577 L -16.11,0 Z"/>
          </g>
          <g transform="translate(394.467,552.01801)">
            <path style="fill:#ffffff;fill-opacity:1;fill-rule:nonzero;stroke:none" d="M 0,0 H 46.578"/>
          </g>
          <g transform="translate(394.467,552.01801)">
            <path style="fill:none;stroke:#c8c7c7;stroke-width:1;stroke-linecap:butt;stroke-linejoin:miter;stroke-miterlimit:4;stroke-dasharray:none;stroke-opacity:1" d="M 0,0 H 46.578"/>
          </g>
          <g transform="translate(372.23599,425.69501)">
            <path style="fill:#ffffff;fill-opacity:1;fill-rule:nonzero;stroke:none" d="M 0,0 H 86.729"/>
          </g>
          <g transform="translate(372.23599,425.69501)">
            <path style="fill:none;stroke:#c8c7c7;stroke-width:1;stroke-linecap:butt;stroke-linejoin:miter;stroke-miterlimit:4;stroke-dasharray:none;stroke-opacity:1" d="M 0,0 H 86.729"/>
          </g>
          <g transform="translate(397.57001,597.437)">
            <path style="fill:#ffffff;fill-opacity:1;fill-rule:nonzero;stroke:none" d="M 0,0 39.853,-40.48"/>
          </g>
          <g transform="translate(397.57001,597.437)">
            <path style="fill:none;stroke:#c8c7c7;stroke-width:1;stroke-linecap:butt;stroke-linejoin:miter;stroke-miterlimit:4;stroke-dasharray:none;stroke-opacity:1" d="M 0,0 39.853,-40.48"/>
          </g>
          <g transform="translate(432.489,597.786)">
            <path style="fill:#ffffff;fill-opacity:1;fill-rule:nonzero;stroke:none" d="M 0,0 -41.128,-40.83"/>
          </g>
          <g transform="translate(432.489,597.786)">
            <path style="fill:none;stroke:#c8c7c7;stroke-width:1;stroke-linecap:butt;stroke-linejoin:miter;stroke-miterlimit:4;stroke-dasharray:none;stroke-opacity:1" d="M 0,0 -41.128,-40.83"/>
          </g>
          <g transform="translate(401.45399,425.69501)">
            <path style="fill:#ffffff;fill-opacity:1;fill-rule:nonzero;stroke:none" d="M 0,0 -12.784,-31.125"/>
          </g>
          <g transform="translate(401.45399,425.69501)">
            <path style="fill:none;stroke:#c8c7c7;stroke-width:1;stroke-linecap:butt;stroke-linejoin:miter;stroke-miterlimit:4;stroke-dasharray:none;stroke-opacity:1" d="M 0,0 -12.784,-31.125"/>
          </g>
          <g transform="translate(428.84,425.69501)">
            <path style="fill:#ffffff;fill-opacity:1;fill-rule:nonzero;stroke:none" d="M 0,0 11.349,-31.125"/>
          </g>
          <g transform="translate(428.84,425.69501)">
            <path style="fill:none;stroke:#c8c7c7;stroke-width:1;stroke-linecap:butt;stroke-linejoin:miter;stroke-miterlimit:4;stroke-dasharray:none;stroke-opacity:1" d="M 0,0 11.349,-31.125"/>
          </g>
          <g transform="translate(400.675,607.297)">
            <path style="fill:#ffffff;fill-opacity:1;fill-rule:nonzero;stroke:none" d="M 0,0 -17.596,-55.529"/>
          </g>
          <g transform="translate(400.675,607.297)">
            <path style="fill:none;stroke:#c8c7c7;stroke-width:1;stroke-linecap:butt;stroke-linejoin:miter;stroke-miterlimit:4;stroke-dasharray:none;stroke-opacity:1" d="M 0,0 -17.596,-55.529"/>
          </g>
          <g transform="translate(429.144,607.81599)">
            <path style="fill:#ffffff;fill-opacity:1;fill-rule:nonzero;stroke:none" d="M 0,0 17.596,-55.528"/>
          </g>
          <g transform="translate(429.144,607.81599)">
            <path style="fill:none;stroke:#c8c7c7;stroke-width:1;stroke-linecap:butt;stroke-linejoin:miter;stroke-miterlimit:4;stroke-dasharray:none;stroke-opacity:1" d="M 0,0 17.596,-55.528"/>
          </g>
          <path style="fill:#ffffff;fill-opacity:1;fill-rule:nonzero;stroke:none" d="m 441.046,547.095 h 18.116 v 4.895 h -18.116 z"/>
          <path style="fill:none;stroke:#c8c7c7;stroke-width:1;stroke-linecap:butt;stroke-linejoin:miter;stroke-miterlimit:4;stroke-dasharray:none;stroke-opacity:1" d="m 459.162,547.095 h -18.116 v 4.895 h 18.116 z"/>
          <path style="fill:#ffffff;fill-opacity:1;fill-rule:nonzero;stroke:none" d="m 374.797,540.868 h 10.351 v 7.268 h -10.351 z"/>
          <path style="fill:none;stroke:#c8c7c7;stroke-width:1;stroke-linecap:butt;stroke-linejoin:miter;stroke-miterlimit:4;stroke-dasharray:none;stroke-opacity:1" d="m 385.148,540.868 h -10.351 v 7.268 h 10.351 z"/>
          <path style="fill:#ffffff;fill-opacity:1;fill-rule:nonzero;stroke:none" d="m 373.765,548.136 h 20.703 v 4.151 h -20.703 z"/>
          <path style="fill:none;stroke:#c8c7c7;stroke-width:1;stroke-linecap:butt;stroke-linejoin:miter;stroke-miterlimit:4;stroke-dasharray:none;stroke-opacity:1" d="m 394.468,548.136 h -20.703 v 4.151 h 20.703 z"/>
          <g transform="translate(390.84399,546.05901)">
            <path style="fill:#ffffff;fill-opacity:1;fill-rule:nonzero;stroke:none" d="M 0,0 C 0,-2.075 -13.977,-2.075 -13.977,0 V 2.077 H 0"/>
          </g>
          <g transform="translate(390.84399,546.05901)">
            <path style="fill:none;stroke:#c8c7c7;stroke-width:1;stroke-linecap:butt;stroke-linejoin:miter;stroke-miterlimit:4;stroke-dasharray:none;stroke-opacity:1" d="M 0,0 C 0,-2.075 -13.977,-2.075 -13.977,0 V 2.077 H 0 Z"/>
          </g>
          <g transform="translate(387.739,582.647)">
            <path style="fill:#ffffff;fill-opacity:1;fill-rule:nonzero;stroke:none" d="m 0,0 c 0,-1.291 -1.044,-2.336 -2.331,-2.336 -1.284,0 -2.328,1.045 -2.328,2.336 0,1.288 1.044,2.336 2.328,2.336 C -1.044,2.336 0,1.288 0,0"/>
          </g>
          <g transform="translate(387.739,582.647)">
            <path style="fill:none;stroke:#c8c7c7;stroke-width:1;stroke-linecap:butt;stroke-linejoin:miter;stroke-miterlimit:4;stroke-dasharray:none;stroke-opacity:1" d="m 0,0 c 0,-1.291 -1.044,-2.336 -2.331,-2.336 -1.284,0 -2.328,1.045 -2.328,2.336 0,1.288 1.044,2.336 2.328,2.336 C -1.044,2.336 0,1.288 0,0 Z"/>
          </g>
          <g transform="translate(447.258,582.647)">
            <path style="fill:#ffffff;fill-opacity:1;fill-rule:nonzero;stroke:none" d="m 0,0 c 0,-1.291 -1.045,-2.336 -2.331,-2.336 -1.283,0 -2.33,1.045 -2.33,2.336 0,1.288 1.047,2.336 2.33,2.336 C -1.045,2.336 0,1.288 0,0"/>
          </g>
          <g transform="translate(447.258,582.647)">
            <path style="fill:none;stroke:#c8c7c7;stroke-width:1;stroke-linecap:butt;stroke-linejoin:miter;stroke-miterlimit:4;stroke-dasharray:none;stroke-opacity:1" d="m 0,0 c 0,-1.291 -1.045,-2.336 -2.331,-2.336 -1.283,0 -2.33,1.045 -2.33,2.336 0,1.288 1.047,2.336 2.33,2.336 C -1.045,2.336 0,1.288 0,0 Z"/>
          </g>
          <g transform="translate(391.09,587.7)">
            <path style="fill:#ffffff;fill-opacity:1;fill-rule:nonzero;stroke:none" d="M 0,0 -6.4,-13.279"/>
          </g>
          <g transform="translate(391.09,587.7)">
            <path style="fill:none;stroke:#c8c7c7;stroke-width:1;stroke-linecap:butt;stroke-linejoin:miter;stroke-miterlimit:4;stroke-dasharray:none;stroke-opacity:1" d="M 0,0 -6.4,-13.279"/>
          </g>
          <g transform="translate(438.97501,588.09399)">
            <path style="fill:#ffffff;fill-opacity:1;fill-rule:nonzero;stroke:none" d="M 0,0 6.408,-13.279"/>
          </g>
          <g transform="translate(438.97501,588.09399)">
            <path style="fill:none;stroke:#c8c7c7;stroke-width:1;stroke-linecap:butt;stroke-linejoin:miter;stroke-miterlimit:4;stroke-dasharray:none;stroke-opacity:1" d="M 0,0 6.408,-13.279"/>
          </g>
          <g transform="translate(383.08,571.487)">
            <path style="fill:#ffffff;fill-opacity:1;fill-rule:nonzero;stroke:none" d="M 0,0 H 6.211"/>
          </g>
          <g transform="translate(383.08,571.487)">
            <path style="fill:none;stroke:#c8c7c7;stroke-width:1;stroke-linecap:butt;stroke-linejoin:miter;stroke-miterlimit:4;stroke-dasharray:none;stroke-opacity:1" d="M 0,0 H 6.211"/>
          </g>
          <g transform="translate(441.563,569.41299)">
            <path style="fill:#ffffff;fill-opacity:1;fill-rule:nonzero;stroke:none" d="M 0,0 H 6.212"/>
          </g>
          <g transform="translate(441.563,569.41299)">
            <path style="fill:none;stroke:#c8c7c7;stroke-width:1;stroke-linecap:butt;stroke-linejoin:miter;stroke-miterlimit:4;stroke-dasharray:none;stroke-opacity:1" d="M 0,0 H 6.212"/>
          </g>
          <g transform="translate(420.86099,606.77901)">
            <path style="fill:none;stroke:#c8c7c7;stroke-width:1;stroke-linecap:butt;stroke-linejoin:miter;stroke-miterlimit:4;stroke-dasharray:none;stroke-opacity:1" d="M 0,0 H -11.387"/>
          </g>
          <g transform="translate(396.53799,551.76801)">
            <path style="fill:#ffffff;fill-opacity:1;fill-rule:nonzero;stroke:none" d="M 0,0 -10.352,10.38"/>
          </g>
          <g transform="translate(396.53799,551.76801)">
            <path style="fill:none;stroke:#c8c7c7;stroke-width:1;stroke-linecap:butt;stroke-linejoin:miter;stroke-miterlimit:4;stroke-dasharray:none;stroke-opacity:1" d="M 0,0 -10.352,10.38"/>
          </g>
          <g transform="translate(432.76401,552.287)">
            <path style="fill:#ffffff;fill-opacity:1;fill-rule:nonzero;stroke:none" d="M 0,0 10.354,10.378"/>
          </g>
          <g transform="translate(432.76401,552.287)">
            <path style="fill:none;stroke:#c8c7c7;stroke-width:1;stroke-linecap:butt;stroke-linejoin:miter;stroke-miterlimit:4;stroke-dasharray:none;stroke-opacity:1" d="M 0,0 10.354,10.378"/>
          </g>
          <g transform="translate(378.42101,422.548)">
            <path style="fill:#ffffff;fill-opacity:1;fill-rule:nonzero;stroke:none" d="M 0,0 H 21.739"/>
          </g>
          <g transform="translate(378.42101,422.548)">
            <path style="fill:none;stroke:#c8c7c7;stroke-width:1;stroke-linecap:butt;stroke-linejoin:miter;stroke-miterlimit:4;stroke-dasharray:none;stroke-opacity:1" d="M 0,0 H 21.739"/>
          </g>
          <g transform="translate(430.179,422.548)">
            <path style="fill:#ffffff;fill-opacity:1;fill-rule:nonzero;stroke:none" d="M 0,0 H 20.185"/>
          </g>
          <g transform="translate(430.179,422.548)">
            <path style="fill:none;stroke:#c8c7c7;stroke-width:1;stroke-linecap:butt;stroke-linejoin:miter;stroke-miterlimit:4;stroke-dasharray:none;stroke-opacity:1" d="M 0,0 H 20.185"/>
          </g>
          <g transform="translate(388.67,394.57001)">
            <path style="fill:#ffffff;fill-opacity:1;fill-rule:nonzero;stroke:none" d="M 0,0 H 52.037"/>
          </g>
          <g transform="translate(388.67,394.57001)">
            <path style="fill:none;stroke:#c8c7c7;stroke-width:1;stroke-linecap:butt;stroke-linejoin:miter;stroke-miterlimit:4;stroke-dasharray:none;stroke-opacity:1" d="M 0,0 H 52.037"/>
          </g>
          <g transform="translate(395.498,411.648)">
            <path style="fill:#ffffff;fill-opacity:1;fill-rule:nonzero;stroke:none" d="M 0,0 H 38.301"/>
          </g>
          <g transform="translate(395.498,411.648)">
            <path style="fill:none;stroke:#c8c7c7;stroke-width:1;stroke-linecap:butt;stroke-linejoin:miter;stroke-miterlimit:4;stroke-dasharray:none;stroke-opacity:1" d="M 0,0 H 38.301"/>
          </g>
          <g transform="translate(405.407,425.69501)">
            <path style="fill:#ffffff;fill-opacity:1;fill-rule:nonzero;stroke:none" d="M 0,0 -1.623,-34.806"/>
          </g>
          <g transform="translate(405.407,425.69501)">
            <path style="fill:none;stroke:#c8c7c7;stroke-width:1;stroke-linecap:butt;stroke-linejoin:miter;stroke-miterlimit:4;stroke-dasharray:none;stroke-opacity:1" d="M 0,0 -1.623,-34.806"/>
          </g>
          <g transform="translate(424.48399,426.21201)">
            <path style="fill:#ffffff;fill-opacity:1;fill-rule:nonzero;stroke:none" d="M 0,0 1.624,-34.805"/>
          </g>
          <g transform="translate(424.48399,426.21201)">
            <path style="fill:none;stroke:#c8c7c7;stroke-width:1;stroke-linecap:butt;stroke-linejoin:miter;stroke-miterlimit:4;stroke-dasharray:none;stroke-opacity:1" d="M 0,0 1.624,-34.805"/>
          </g>
          <g transform="translate(361.85899,402.826)">
            <path style="fill:#ffffff;fill-opacity:1;fill-rule:nonzero;stroke:none" d="M 0,0 28.464,-4.67"/>
          </g>
          <g transform="translate(361.85899,402.826)">
            <path style="fill:none;stroke:#c8c7c7;stroke-width:1;stroke-linecap:butt;stroke-linejoin:miter;stroke-miterlimit:4;stroke-dasharray:none;stroke-opacity:1" d="M 0,0 28.464,-4.67"/>
          </g>
          <g transform="translate(375.31599,419.431)">
            <path style="fill:#ffffff;fill-opacity:1;fill-rule:nonzero;stroke:none" d="M 0,0 21.739,-4.668"/>
          </g>
          <g transform="translate(375.31599,419.431)">
            <path style="fill:none;stroke:#c8c7c7;stroke-width:1;stroke-linecap:butt;stroke-linejoin:miter;stroke-miterlimit:4;stroke-dasharray:none;stroke-opacity:1" d="M 0,0 21.739,-4.668"/>
          </g>
          <g transform="translate(453.466,419.431)">
            <path style="fill:#ffffff;fill-opacity:1;fill-rule:nonzero;stroke:none" d="M 0,0 -20.702,-4.668"/>
          </g>
          <g transform="translate(453.466,419.431)">
            <path style="fill:none;stroke:#c8c7c7;stroke-width:1;stroke-linecap:butt;stroke-linejoin:miter;stroke-miterlimit:4;stroke-dasharray:none;stroke-opacity:1" d="M 0,0 -20.702,-4.668"/>
          </g>
          <g transform="translate(466.923,402.826)">
            <path style="fill:#ffffff;fill-opacity:1;fill-rule:nonzero;stroke:none" d="M 0,0 -27.948,-4.67"/>
          </g>
          <g transform="translate(466.923,402.826)">
            <path style="fill:none;stroke:#c8c7c7;stroke-width:1;stroke-linecap:butt;stroke-linejoin:miter;stroke-miterlimit:4;stroke-dasharray:none;stroke-opacity:1" d="M 0,0 -27.948,-4.67"/>
          </g>
          <g transform="translate(445.186,422.548)">
            <path style="fill:#ffffff;fill-opacity:1;fill-rule:nonzero;stroke:none" d="M 0,0 8.28,-21.8"/>
          </g>
          <g transform="translate(445.186,422.548)">
            <path style="fill:none;stroke:#c8c7c7;stroke-width:1;stroke-linecap:butt;stroke-linejoin:miter;stroke-miterlimit:4;stroke-dasharray:none;stroke-opacity:1" d="M 0,0 8.28,-21.8"/>
          </g>
          <g transform="translate(383.08,422.548)">
            <path style="fill:#ffffff;fill-opacity:1;fill-rule:nonzero;stroke:none" d="M 0,0 -8.282,-21.8"/>
          </g>
          <g transform="translate(383.08,422.548)">
            <path style="fill:none;stroke:#c8c7c7;stroke-width:1;stroke-linecap:butt;stroke-linejoin:miter;stroke-miterlimit:4;stroke-dasharray:none;stroke-opacity:1" d="M 0,0 -8.282,-21.8"/>
          </g>
          <g transform="translate(392.395,422.548)">
            <path style="fill:#ffffff;fill-opacity:1;fill-rule:nonzero;stroke:none" d="M 0,0 -3.104,-24.392"/>
          </g>
          <g transform="translate(392.395,422.548)">
            <path style="fill:none;stroke:#c8c7c7;stroke-width:1;stroke-linecap:butt;stroke-linejoin:miter;stroke-miterlimit:4;stroke-dasharray:none;stroke-opacity:1" d="M 0,0 -3.104,-24.392"/>
          </g>
          <g transform="translate(436.909,422.548)">
            <path style="fill:#ffffff;fill-opacity:1;fill-rule:nonzero;stroke:none" d="M 0,0 3.104,-24.392"/>
          </g>
          <g transform="translate(436.909,422.548)">
            <path style="fill:none;stroke:#c8c7c7;stroke-width:1;stroke-linecap:butt;stroke-linejoin:miter;stroke-miterlimit:4;stroke-dasharray:none;stroke-opacity:1" d="M 0,0 3.104,-24.392"/>
          </g>
          <path style="fill:#ffffff;fill-opacity:1;fill-rule:nonzero;stroke:none" d="m 401.755,452.239 h 3.652 v 20.139 h -3.652 z"/>
          <path style="fill:none;stroke:#c8c7c7;stroke-width:1;stroke-linecap:butt;stroke-linejoin:miter;stroke-miterlimit:4;stroke-dasharray:none;stroke-opacity:1" d="m 401.755,452.239 h 3.652 v 20.139 h -3.652 z"/>
          <path style="fill:#ffffff;fill-opacity:1;fill-rule:nonzero;stroke:none" d="m 401.755,478.785 h 3.652 v 20.139 h -3.652 z"/>
          <path style="fill:none;stroke:#c8c7c7;stroke-width:1;stroke-linecap:butt;stroke-linejoin:miter;stroke-miterlimit:4;stroke-dasharray:none;stroke-opacity:1" d="m 401.755,478.785 h 3.652 v 20.139 h -3.652 z"/>
          <path style="fill:#ffffff;fill-opacity:1;fill-rule:nonzero;stroke:none" d="m 401.755,505.33 h 3.652 v 20.141 h -3.652 z"/>
          <path style="fill:none;stroke:#c8c7c7;stroke-width:1;stroke-linecap:butt;stroke-linejoin:miter;stroke-miterlimit:4;stroke-dasharray:none;stroke-opacity:1" d="m 401.755,505.33 h 3.652 v 20.141 h -3.652 z"/>
          <path style="fill:#ffffff;fill-opacity:1;fill-rule:nonzero;stroke:none" d="m 388.67,445.832 h 16.737 v 6.407 H 388.67 Z"/>
          <path style="fill:none;stroke:#c8c7c7;stroke-width:1;stroke-linecap:butt;stroke-linejoin:miter;stroke-miterlimit:4;stroke-dasharray:none;stroke-opacity:1" d="M 405.407,452.239 H 388.67 v -6.407 h 16.737 z"/>
          <path style="fill:#ffffff;fill-opacity:1;fill-rule:nonzero;stroke:none" d="m 388.67,472.378 h 16.737 v 6.407 H 388.67 Z"/>
          <path style="fill:none;stroke:#c8c7c7;stroke-width:1;stroke-linecap:butt;stroke-linejoin:miter;stroke-miterlimit:4;stroke-dasharray:none;stroke-opacity:1" d="M 405.407,478.785 H 388.67 v -6.407 h 16.737 z"/>
          <path style="fill:#ffffff;fill-opacity:1;fill-rule:nonzero;stroke:none" d="m 388.67,498.924 h 16.737 v 6.406 H 388.67 Z"/>
          <path style="fill:none;stroke:#c8c7c7;stroke-width:1;stroke-linecap:butt;stroke-linejoin:miter;stroke-miterlimit:4;stroke-dasharray:none;stroke-opacity:1" d="M 405.407,505.33 H 388.67 v -6.406 h 16.737 z"/>
          <path style="fill:#ffffff;fill-opacity:1;fill-rule:nonzero;stroke:none" d="m 388.67,525.471 h 16.737 v 6.406 H 388.67 Z"/>
          <path style="fill:none;stroke:#c8c7c7;stroke-width:1;stroke-linecap:butt;stroke-linejoin:miter;stroke-miterlimit:4;stroke-dasharray:none;stroke-opacity:1" d="M 405.407,531.877 H 388.67 v -6.406 h 16.737 z"/>
          <path style="fill:#ffffff;fill-opacity:1;fill-rule:nonzero;stroke:none" d="m 424.882,452.239 h 3.654 v 20.139 h -3.654 z"/>
          <path style="fill:none;stroke:#c8c7c7;stroke-width:1;stroke-linecap:butt;stroke-linejoin:miter;stroke-miterlimit:4;stroke-dasharray:none;stroke-opacity:1" d="m 428.536,452.239 h -3.654 v 20.139 h 3.654 z"/>
          <path style="fill:#ffffff;fill-opacity:1;fill-rule:nonzero;stroke:none" d="m 424.882,478.785 h 3.654 v 20.139 h -3.654 z"/>
          <path style="fill:none;stroke:#c8c7c7;stroke-width:1;stroke-linecap:butt;stroke-linejoin:miter;stroke-miterlimit:4;stroke-dasharray:none;stroke-opacity:1" d="m 428.536,478.785 h -3.654 v 20.139 h 3.654 z"/>
          <path style="fill:#ffffff;fill-opacity:1;fill-rule:nonzero;stroke:none" d="m 424.882,505.33 h 3.654 v 20.141 h -3.654 z"/>
          <path style="fill:none;stroke:#c8c7c7;stroke-width:1;stroke-linecap:butt;stroke-linejoin:miter;stroke-miterlimit:4;stroke-dasharray:none;stroke-opacity:1" d="m 428.536,505.33 h -3.654 v 20.141 h 3.654 z"/>
          <path style="fill:#ffffff;fill-opacity:1;fill-rule:nonzero;stroke:none" d="m 424.882,445.832 h 16.737 v 6.407 h -16.737 z"/>
          <path style="fill:none;stroke:#c8c7c7;stroke-width:1;stroke-linecap:butt;stroke-linejoin:miter;stroke-miterlimit:4;stroke-dasharray:none;stroke-opacity:1" d="m 424.882,452.239 h 16.737 v -6.407 h -16.737 z"/>
          <path style="fill:#ffffff;fill-opacity:1;fill-rule:nonzero;stroke:none" d="m 424.882,472.378 h 16.737 v 6.407 h -16.737 z"/>
          <path style="fill:none;stroke:#c8c7c7;stroke-width:1;stroke-linecap:butt;stroke-linejoin:miter;stroke-miterlimit:4;stroke-dasharray:none;stroke-opacity:1" d="m 424.882,478.785 h 16.737 v -6.407 h -16.737 z"/>
          <path style="fill:#ffffff;fill-opacity:1;fill-rule:nonzero;stroke:none" d="m 424.882,498.924 h 16.737 v 6.406 h -16.737 z"/>
          <path style="fill:none;stroke:#c8c7c7;stroke-width:1;stroke-linecap:butt;stroke-linejoin:miter;stroke-miterlimit:4;stroke-dasharray:none;stroke-opacity:1" d="m 424.882,505.33 h 16.737 v -6.406 h -16.737 z"/>
          <path style="fill:#ffffff;fill-opacity:1;fill-rule:nonzero;stroke:none" d="m 424.882,525.471 h 16.737 v 6.406 h -16.737 z"/>
          <path style="fill:none;stroke:#c8c7c7;stroke-width:1;stroke-linecap:butt;stroke-linejoin:miter;stroke-miterlimit:4;stroke-dasharray:none;stroke-opacity:1" d="m 424.882,531.877 h 16.737 v -6.406 h -16.737 z"/>
          <path style="fill:#ffffff;fill-opacity:1;fill-rule:nonzero;stroke:none" d="m 401.755,531.877 h 3.652 v 20.141 h -3.652 z"/>
          <path style="fill:none;stroke:#c8c7c7;stroke-width:1;stroke-linecap:butt;stroke-linejoin:miter;stroke-miterlimit:4;stroke-dasharray:none;stroke-opacity:1" d="m 401.755,531.877 h 3.652 v 20.141 h -3.652 z"/>
          <path style="fill:#ffffff;fill-opacity:1;fill-rule:nonzero;stroke:none" d="m 424.882,531.877 h 3.654 v 20.141 h -3.654 z"/>
          <path style="fill:none;stroke:#c8c7c7;stroke-width:1;stroke-linecap:butt;stroke-linejoin:miter;stroke-miterlimit:4;stroke-dasharray:none;stroke-opacity:1" d="m 428.536,531.877 h -3.654 v 20.141 h 3.654 z"/>
          <path style="fill:#ffffff;fill-opacity:1;fill-rule:nonzero;stroke:none" d="m 401.755,425.694 h 3.652 v 20.138 h -3.652 z"/>
          <path style="fill:none;stroke:#c8c7c7;stroke-width:1;stroke-linecap:butt;stroke-linejoin:miter;stroke-miterlimit:4;stroke-dasharray:none;stroke-opacity:1" d="m 401.755,445.832 h 3.652 v -20.138 h -3.652 z"/>
          <path style="fill:#ffffff;fill-opacity:1;fill-rule:nonzero;stroke:none" d="m 424.882,425.694 h 3.654 v 20.138 h -3.654 z"/>
          <path style="fill:none;stroke:#c8c7c7;stroke-width:1;stroke-linecap:butt;stroke-linejoin:miter;stroke-miterlimit:4;stroke-dasharray:none;stroke-opacity:1" d="m 428.536,445.832 h -3.654 v -20.138 h 3.654 z"/>
          <g transform="translate(459.162,551.95599)">
            <path style="fill:none;stroke:#000000;stroke-width:2;stroke-linecap:round;stroke-linejoin:round;stroke-miterlimit:4;stroke-dasharray:none;stroke-opacity:1" d="m 0,0 c -0.773,1.326 -2.117,2.287 -3.708,2.556 l -9.695,20.105 2.534,0.765 v 10.377 l -8.99,2.254 -9.304,19.3 h -8.961 c 0,1.455 -0.89,2.636 -1.994,2.636 h -7.964 c -1.101,0 -1.99,-1.181 -1.99,-2.636 h -8.961 l -9.333,-19.359 -8.753,-2.195 V 23.426 l 2.352,-0.707 -9.723,-20.163 c -2.504,-0.421 -4.41,-2.565 -4.41,-5.148 v -2.681 c -3.297,0 -5.975,-2.36 -5.975,-5.271 0,-2.912 2.678,-5.272 5.975,-5.272 v -15.818 c -3.297,0 -5.975,-2.358 -5.975,-5.27 0,-2.912 2.678,-5.273 5.975,-5.273 v -15.815 c -3.297,0 -5.975,-2.361 -5.975,-5.274 0,-2.913 2.678,-5.271 5.975,-5.271 v -15.817 c -3.297,0 -5.975,-2.36 -5.975,-5.271 0,-2.914 2.678,-5.271 5.975,-5.271 v -15.815 c -3.297,0 -5.975,-2.362 -5.975,-5.274 0,-2.911 2.678,-5.271 5.975,-5.271 v -2.682 c 0,-2.883 2.379,-5.226 5.309,-5.226 h 2.883 c -7.047,-7.236 -18.583,-19.554 -17.15,-21.357 l 2.045,-2.578 25.321,-3.94 c -0.248,-0.891 -0.261,-1.516 0.038,-1.778 l 2.518,-2.226 h 46.328 l 2.518,2.226 c 0.301,0.262 0.289,0.887 0.039,1.778 l 25.327,3.94 2.043,2.578 c 1.429,1.803 -10.099,14.121 -17.157,21.357 h 4.234 c 2.927,0 5.306,2.343 5.306,5.226 v 2.682 c 3.301,0 5.974,2.36 5.974,5.271 0,2.912 -2.673,5.274 -5.974,5.274 v 15.815 c 3.301,0 5.974,2.357 5.974,5.271 0,2.911 -2.673,5.271 -5.974,5.271 v 15.817 c 3.301,0 5.974,2.358 5.974,5.271 0,2.913 -2.673,5.274 -5.974,5.274 v 15.815 c 3.301,0 5.974,2.361 5.974,5.273 0,2.912 -2.673,5.27 -5.974,5.27 v 15.818 c 3.301,0 5.974,2.36 5.974,5.272 0,2.911 -2.673,5.271 -5.974,5.271 v 2.638 h 5.974 c 0,-1.457 2.34,-2.638 5.226,-2.638 2.888,0 5.227,1.181 5.227,2.638 v -2.638 h 4.148 V 0 Z"/>
          </g>
          <g transform="translate(449.541,419.095)">
            <path style="fill:#c8c7c7;fill-opacity:1;fill-rule:nonzero;stroke:none" d="m 0,0 c 0,-6.627 -4.435,-12 -9.906,-12 h -49.621 c -5.472,0 -9.907,5.373 -9.907,12 v 131.906 c 0,6.627 4.435,12 9.907,12 h 49.621 c 5.471,0 9.906,-5.373 9.906,-12"/>
          </g>
          <g transform="translate(449.541,419.095)">
            <path style="fill:none;stroke:#000000;stroke-width:2;stroke-linecap:butt;stroke-linejoin:miter;stroke-miterlimit:4;stroke-dasharray:none;stroke-opacity:1" d="m 0,0 c 0,-6.627 -4.435,-12 -9.906,-12 h -49.621 c -5.472,0 -9.907,5.373 -9.907,12 v 131.906 c 0,6.627 4.435,12 9.907,12 h 49.621 c 5.471,0 9.906,-5.373 9.906,-12 z"/>
          </g>
          <text style="font-variant:normal;font-size:8px;font-family:Eurostile;writing-mode:lr-tb;fill:#000000;fill-opacity:1;fill-rule:nonzero;stroke:none" transform="matrix(1,0,0,-1,414.344,459.536)" text-anchor="middle"><tspan x="0" y="8.6000004">Sail Integrity:</tspan><tspan x="0" id="textSailIntegrity" y="18.200001" font-weight="bold">0</tspan><tspan x="0" y="-33.354">K-F Drive</tspan><tspan x="0" y="-25.354">Integrity:</tspan><tspan x="0" id="textKFIntegrity" y="-15.754" font-weight="bold">0</tspan><tspan x="0" y="32.245998">Docking Collars:</tspan><tspan x="0" id="textDockingCollars" y="41.846001" font-weight="bold">0</tspan></text>
          <text style="font-variant:normal;font-size:8px;font-family:Eurostile;writing-mode:lr-tb;fill:#000000;fill-opacity:1;fill-rule:nonzero;stroke:none" transform="matrix(1,0,0,-1,414.344,553.834)" text-anchor="middle"><tspan x="0" y="0">Structural</tspan><tspan x="0" y="9.6000004">Integrity:</tspan><tspan x="0" id="textSI" y="19.200001" font-weight="bold">0</tspan></text>
          <text style="font-weight:bold;font-size:6px;font-family:Eurostile;writing-mode:lr-tb;fill:#000000;fill-opacity:1;fill-rule:nonzero;stroke:none" transform="matrix(1,0,0,-1,414.344,293)" text-anchor="middle"><tspan x="0" y="0">Aft Damage Threshold</tspan><tspan x="0" y="7.1999998">(Total Armor)</tspan><tspan x="0" y="14.4" id="textArmor_AFT">( )</tspan></text>
          <text style="font-weight:bold;font-size:6px;font-family:Eurostile;writing-mode:lr-tb;fill:#000000;fill-opacity:1;fill-rule:nonzero;stroke:none" transform="matrix(1,0,0,-1,435.756,716.0724)" text-anchor="middle"><tspan x="0" y="0">Nose Damage Threshold</tspan><tspan x="0" y="7.1999998">(Total Armor)</tspan><tspan x="0" y="14.4" id="textArmor_NOS">( )</tspan></text>
          <text style="font-weight:bold;font-size:6px;font-family:Eurostile;writing-mode:lr-tb;fill:#000000;fill-opacity:1;fill-rule:nonzero;stroke:none" transform="matrix(1,0,0,-1,532,325)" text-anchor="middle"><tspan x="0" y="0">Aft-Right Damage</tspan><tspan x="0" y="7.1999998">Threshold (Total Armor)</tspan><tspan x="0" y="14.4" id="textArmor_ARS">( )</tspan></text>
          <text style="font-weight:bold;font-size:6px;font-family:Eurostile;writing-mode:lr-tb;fill:#000000;fill-opacity:1;fill-rule:nonzero;stroke:none" transform="matrix(1,0,0,-1,297.4,325)" text-anchor="middle"><tspan x="0" y="0">Aft-Left Damage</tspan><tspan x="0" y="7.1999998">Threshold (Total Armor)</tspan><tspan x="0" y="14.4" id="textArmor_ALS">( )</tspan></text>
          <text style="font-weight:bold;font-size:6px;font-family:Eurostile;writing-mode:lr-tb;fill:#000000;fill-opacity:1;fill-rule:nonzero;stroke:none" transform="matrix(1,0,0,-1,530,659.379)" text-anchor="middle"><tspan x="0" y="0">Fore-Right Damage</tspan><tspan x="0" y="7.1999998">Threshold (Total Armor)</tspan><tspan x="0" y="14.4" id="textArmor_FRS">( )</tspan></text>
          <text style="font-weight:bold;font-size:6px;font-family:Eurostile;writing-mode:lr-tb;fill:#000000;fill-opacity:1;fill-rule:nonzero;stroke:none" transform="matrix(1,0,0,-1,298.5,659.379)" text-anchor="middle"><tspan x="0" y="0">Fore-Left Damage</tspan><tspan x="0" y="7.1999998">Threshold (Total Armor)</tspan><tspan x="0" y="14.4" id="textArmor_FLS">( )</tspan></text>
        </g>
        <g fill="none" transform="matrix(0.75,0,0,0.75,166.8,-66.227997)" class="paperdoll-pip-profile paperdoll-pip-profile paperdoll-pip-profile paperdoll-pip-profile paperdoll-pip-profile paperdoll-pip-profile">
          <rect x="-100" width="200" y="125" height="100" data-fill="armor" data-location="NOS"/>
          <rect x="-205" width="100" y="195" height="200" data-fill="armor" data-location="FLS"/>
          <rect x="105" width="100" y="195" height="200" data-fill="armor" data-location="FRS"/>
          <rect x="-205" width="100" y="405" height="200" data-fill="armor" data-location="ALS"/>
          <rect x="105" width="100" y="405" height="200" data-fill="armor" data-location="ARS"/>
          <rect x="-100" width="200" y="550" height="100" data-fill="armor" data-location="AFT"/>
        </g>
        <g fill="none" transform="matrix(0.75,0,0,0.75,168,159.5)" class="paperdoll-pip-profile paperdoll-pip-profile paperdoll-pip-profile paperdoll-pip-profile">
          <rect x="-40" width="80" y="39" height="32" data-fill="structure" data-location="SI"/>
          <rect x="-40" width="80" y="121" height="15" data-fill="structure" data-location="KF"/>
          <rect x="-40" width="80" y="164" height="5" data-fill="structure" data-location="SAIL"/>
          <rect x="-40" width="80" y="195" height="5" data-fill="structure" data-location="DC"/>
        </g>
      </g>
      </svg>
