<?xml version="1.0" encoding="UTF-8"?>
<!-- Editable MekBay asf armor paperdoll. Pink dashed rectangles mark pip areas and are removed at runtime. -->
<svg xmlns="http://www.w3.org/2000/svg" viewBox="-0.596 24.344 296.857 408.578" role="img" aria-label="asf armor paperdoll">
    <g id="paperdoll-art-armor">
    <g transform="matrix(1,0,0,-1,-256.5,716)"><g transform="translate(548.6827,398.8728)"><path id="path2696" d="m 0,0 c -1.364,0.774 -3.195,1.462 -5.347,2.088 v 9.31 l 1.321,1.586 v 3.435 l -1.465,1.586 v 4.956 h 1.465 L -7.33,49.39 h -6.607 l -3.305,-26.429 h 1.465 v -4.956 l -1.465,-1.586 v -3.435 l 1.321,-1.586 V 4.382 c -1.67,0.285 -6.557,1.045 -7.266,1.162 v 6.267 l 0.99,1.188 v 2.577 l -1.098,1.19 v 3.717 h 1.098 l -2.477,19.822 h -4.956 l -2.479,-19.822 h 1.099 v -3.717 l -1.099,-1.19 v -2.577 l 0.991,-1.188 V 7.084 c -54.757,12.316 -69.97,53.035 -73.706,112.837 0.137,1.94 0.286,3.863 0.451,5.763 l 60.503,30.251 c 0,0 9.912,41.297 0,44.601 -9.911,3.305 -56.162,21.475 -66.074,21.475 h -11.717 c -3.386,9.971 -7.849,17.534 -12.933,21.55 v 6.695 h -1.112 v 2.227 h 1.112 v 2.226 h -1.112 v 2.226 h 0.953 c -0.37,2.923 -4.099,32.803 -4.099,32.803 h -8.259 c 0,0 -3.729,-29.88 -4.099,-32.803 h 1.035 v -2.226 h -1.113 v -2.226 h 1.113 v -2.227 h -1.113 v -6.629 c -5.118,-3.998 -9.609,-11.591 -13.013,-21.616 h -11.717 c -9.912,0 -56.164,-18.17 -66.075,-21.475 -9.912,-3.304 0,-44.601 0,-44.601 l 60.504,-30.251 c 0.164,-1.898 0.314,-3.819 0.453,-5.758 -3.728,-59.658 -18.874,-100.33 -73.312,-112.755 v 4.64 l 0.991,1.188 v 2.577 l -1.1,1.19 v 3.717 h 1.1 l -2.478,19.822 h -4.957 l -2.478,-19.822 h 1.098 v -3.717 l -1.098,-1.19 v -2.577 l 0.993,-1.188 V 5.609 c -0.837,-0.14 -5.726,-0.898 -7.269,-1.161 v 6.95 l 1.321,1.586 v 3.435 l -1.465,1.586 v 4.956 h 1.465 l -3.303,26.429 h -6.608 l -3.303,-26.429 h 1.464 v -4.956 l -1.464,-1.586 v -3.435 l 1.321,-1.586 V 2.201 c -2.327,-0.656 -4.298,-1.38 -5.745,-2.201 -4.078,-2.311 -3.198,-34.029 2.769,-43.11 1.662,-4.244 11.727,-9.386 25.532,-13.952 13.236,-4.878 34.566,-9.589 54.399,-11.524 0.751,-5.437 2.055,-11.131 4.317,-14.697 v -32.512 h 3.303 l 15.9,28.905 h 73.921 l 15.898,-28.905 h 3.302 v 33.176 c 2.023,3.584 3.218,8.922 3.923,14.033 19.842,1.935 41.183,6.648 54.417,11.53 13.795,4.564 23.852,9.706 25.515,13.946 C 3.199,-34.029 4.078,-2.311 0,0" style="fill:#ccced0;fill-opacity:1;fill-rule:nonzero;stroke:none" /></g></g>
    <g transform="matrix(1,0,0,-1,-256.5,716)"><g transform="translate(545.9445,401.9181)"><path id="path2700" d="m 0,0 c -1.364,0.774 -3.195,1.462 -5.347,2.088 v 9.31 l 1.321,1.586 v 3.435 l -1.465,1.586 v 4.956 h 1.465 L -7.33,49.39 h -6.607 l -3.305,-26.429 h 1.465 v -4.956 l -1.465,-1.586 v -3.435 l 1.321,-1.586 V 4.382 c -1.67,0.285 -6.557,1.045 -7.266,1.162 v 6.267 l 0.989,1.188 v 2.577 l -1.097,1.19 v 3.717 h 1.097 l -2.476,19.822 h -4.956 l -2.479,-19.822 h 1.099 v -3.717 l -1.099,-1.19 v -2.577 l 0.991,-1.188 V 7.084 c -54.757,12.316 -69.97,53.035 -73.706,112.837 0.137,1.94 0.286,3.863 0.451,5.763 l 60.503,30.252 c 0,0 9.911,41.296 0,44.6 -9.911,3.305 -56.163,21.475 -66.074,21.475 h -11.717 c -3.386,9.971 -7.849,17.534 -12.933,21.55 v 6.695 h -1.112 v 2.227 h 1.112 v 2.226 h -1.112 v 2.226 h 0.953 c -0.37,2.924 -4.099,32.803 -4.099,32.803 h -8.259 c 0,0 -3.729,-29.879 -4.099,-32.803 h 1.035 v -2.226 h -1.113 v -2.226 h 1.113 v -2.227 h -1.113 v -6.629 c -5.118,-3.998 -9.609,-11.591 -13.014,-21.616 h -11.716 c -9.912,0 -56.164,-18.17 -66.076,-21.475 -9.911,-3.304 0,-44.6 0,-44.6 l 60.505,-30.252 c 0.164,-1.898 0.314,-3.819 0.453,-5.758 -3.728,-59.658 -18.874,-100.33 -73.312,-112.755 v 4.64 l 0.991,1.188 v 2.577 l -1.1,1.19 v 3.717 h 1.1 l -2.478,19.822 h -4.957 l -2.478,-19.822 h 1.098 v -3.717 l -1.098,-1.19 v -2.577 l 0.993,-1.188 V 5.609 c -0.837,-0.14 -5.726,-0.898 -7.269,-1.16 v 6.949 l 1.321,1.586 v 3.435 l -1.465,1.586 v 4.956 h 1.465 l -3.303,26.429 h -6.608 l -3.303,-26.429 h 1.464 v -4.956 l -1.464,-1.586 v -3.435 l 1.321,-1.586 V 2.201 c -2.328,-0.656 -4.298,-1.38 -5.745,-2.201 -4.078,-2.311 -3.198,-34.029 2.769,-43.111 1.662,-4.243 11.727,-9.386 25.532,-13.951 13.236,-4.879 34.566,-9.59 54.399,-11.525 0.75,-5.437 2.053,-11.13 4.317,-14.697 v -32.512 h 3.303 l 15.9,28.906 h 73.921 l 15.898,-28.906 h 3.302 v 33.177 c 2.023,3.584 3.218,8.921 3.923,14.032 19.842,1.935 41.182,6.648 54.417,11.531 13.795,4.563 23.852,9.706 25.515,13.945 C 3.199,-34.029 4.078,-2.311 0,0" style="fill:#ffffff;fill-opacity:1;fill-rule:nonzero;stroke:none" /></g></g>
    <g transform="matrix(1,0,0,-1,-256.5,716)"><g transform="translate(409.3918,656.5535)"><path id="path2706" d="M 0,0 H -12.857 V 2.065 H 0 Z" style="fill:none;stroke:#a7a9ac;stroke-width:0.96600002;stroke-linecap:butt;stroke-linejoin:miter;stroke-miterlimit:4;stroke-dasharray:none;stroke-opacity:1" /></g></g>
    <g transform="matrix(1,0,0,-1,-256.5,716)"><g transform="translate(409.3918,652.4233)"><path id="path2712" d="M 0,0 H -12.857 V 2.065 H 0 Z" style="fill:none;stroke:#a7a9ac;stroke-width:0.96600002;stroke-linecap:butt;stroke-linejoin:miter;stroke-miterlimit:4;stroke-dasharray:none;stroke-opacity:1" /></g></g>
    <g transform="matrix(1,0,0,-1,-256.5,716)"><g transform="translate(276.9388,406.4742)"><path id="path2716" d="M 0,0 -11.779,-2.516 V 7.158 L 0,7.158 Z" style="fill:#ffffff;fill-opacity:1;fill-rule:nonzero;stroke:none" /></g></g>
    <g transform="matrix(1,0,0,-1,-256.5,716)"><g transform="translate(276.9388,406.4742)"><path id="path2720" d="M 0,0 -11.779,-2.516 V 7.158 L 0,7.158 Z" style="fill:none;stroke:#a7a9ac;stroke-width:0.96600002;stroke-linecap:butt;stroke-linejoin:miter;stroke-miterlimit:4;stroke-dasharray:none;stroke-opacity:1" /></g></g>
    <g transform="matrix(1,0,0,-1,-256.5,716)"><g transform="translate(283.3507,407.4909)"><path id="path2724" d="M 0,0 8.244,1.623 V 6.141 H 0 Z" style="fill:#ffffff;fill-opacity:1;fill-rule:nonzero;stroke:none" /></g></g>
    <g transform="matrix(1,0,0,-1,-256.5,716)"><g transform="translate(283.3507,407.4909)"><path id="path2728" d="M 0,0 8.244,1.623 V 6.141 H 0 Z" style="fill:none;stroke:#a7a9ac;stroke-width:0.96600002;stroke-linecap:butt;stroke-linejoin:miter;stroke-miterlimit:4;stroke-dasharray:none;stroke-opacity:1" /></g></g>
    <g transform="matrix(1,0,0,-1,-256.5,716)"><g transform="translate(276.1544,423.2275)"><path id="path2734" d="M 0,0 H -10.284 V 1.651 H 0 Z" style="fill:none;stroke:#a7a9ac;stroke-width:0.96600002;stroke-linecap:butt;stroke-linejoin:miter;stroke-miterlimit:4;stroke-dasharray:none;stroke-opacity:1" /></g></g>
    <g transform="matrix(1,0,0,-1,-256.5,716)"><g transform="translate(276.1544,419.9222)"><path id="path2740" d="M 0,0 H -10.284 V 1.653 H 0 Z" style="fill:none;stroke:#a7a9ac;stroke-width:0.96600002;stroke-linecap:butt;stroke-linejoin:miter;stroke-miterlimit:4;stroke-dasharray:none;stroke-opacity:1" /></g></g>
    <g transform="matrix(1,0,0,-1,-256.5,716)"><g transform="translate(291.3877,421.1615)"><path id="path2746" d="M 0,0 H -7.716 V 1.239 H 0 Z" style="fill:none;stroke:#a7a9ac;stroke-width:0.96600002;stroke-linecap:butt;stroke-linejoin:miter;stroke-miterlimit:4;stroke-dasharray:none;stroke-opacity:1" /></g></g>
    <g transform="matrix(1,0,0,-1,-256.5,716)"><g transform="translate(291.3877,418.6849)"><path id="path2752" d="M 0,0 H -7.716 V 1.237 H 0 Z" style="fill:none;stroke:#a7a9ac;stroke-width:0.96600002;stroke-linecap:butt;stroke-linejoin:miter;stroke-miterlimit:4;stroke-dasharray:none;stroke-opacity:1" /></g></g>
    <g transform="matrix(1,0,0,-1,-256.5,716)"><g transform="translate(529.507,406.5175)"><path id="path2756" d="M 0,0 11.776,-2.516 V 7.158 L 0,7.158 Z" style="fill:#ffffff;fill-opacity:1;fill-rule:nonzero;stroke:none" /></g></g>
    <g transform="matrix(1,0,0,-1,-256.5,716)"><g transform="translate(529.507,406.5175)"><path id="path2760" d="M 0,0 11.776,-2.516 V 7.158 L 0,7.158 Z" style="fill:none;stroke:#a7a9ac;stroke-width:0.96600002;stroke-linecap:butt;stroke-linejoin:miter;stroke-miterlimit:4;stroke-dasharray:none;stroke-opacity:1" /></g></g>
    <g transform="matrix(1,0,0,-1,-256.5,716)"><g transform="translate(523.0919,407.5363)"><path id="path2764" d="M 0,0 -8.244,1.623 V 6.14 L 0,6.14 Z" style="fill:#ffffff;fill-opacity:1;fill-rule:nonzero;stroke:none" /></g></g>
    <g transform="matrix(1,0,0,-1,-256.5,716)"><g transform="translate(523.0919,407.5363)"><path id="path2768" d="M 0,0 -8.244,1.623 V 6.14 L 0,6.14 Z" style="fill:none;stroke:#a7a9ac;stroke-width:0.96600002;stroke-linecap:butt;stroke-linejoin:miter;stroke-miterlimit:4;stroke-dasharray:none;stroke-opacity:1" /></g></g>
    <g transform="matrix(1,0,0,-1,-256.5,716)"><g transform="translate(530.2899,423.271)"><path id="path2774" d="M 0,0 H 10.285 V 1.653 H 0 Z" style="fill:none;stroke:#a7a9ac;stroke-width:0.96600002;stroke-linecap:butt;stroke-linejoin:miter;stroke-miterlimit:4;stroke-dasharray:none;stroke-opacity:1" /></g></g>
    <g transform="matrix(1,0,0,-1,-256.5,716)"><g transform="translate(530.2899,419.9676)"><path id="path2780" d="M 0,0 H 10.285 V 1.653 H 0 Z" style="fill:none;stroke:#a7a9ac;stroke-width:0.96600002;stroke-linecap:butt;stroke-linejoin:miter;stroke-miterlimit:4;stroke-dasharray:none;stroke-opacity:1" /></g></g>
    <g transform="matrix(1,0,0,-1,-256.5,716)"><g transform="translate(515.0565,421.205)"><path id="path2786" d="M 0,0 H 7.714 V 1.239 H 0 Z" style="fill:none;stroke:#a7a9ac;stroke-width:0.96600002;stroke-linecap:butt;stroke-linejoin:miter;stroke-miterlimit:4;stroke-dasharray:none;stroke-opacity:1" /></g></g>
    <g transform="matrix(1,0,0,-1,-256.5,716)"><g transform="translate(515.0565,418.7303)"><path id="path2792" d="M 0,0 H 7.714 V 1.237 H 0 Z" style="fill:none;stroke:#a7a9ac;stroke-width:0.96600002;stroke-linecap:butt;stroke-linejoin:miter;stroke-miterlimit:4;stroke-dasharray:none;stroke-opacity:1" /></g></g>
    <g transform="matrix(1,0,0,-1,-256.5,716)"><g transform="translate(346.8049,350.5439)"><path id="path2796" d="M 0,0 H -47.709 V 29.734 H 7.788 V 74.689 C -3.208,55.838 -22.179,43.529 -54.687,39.353 c -7.98,-1.024 -15.43,-2.247 -19.137,-4.042 -3.71,-1.797 -2.908,-26.444 2.517,-33.502 3.175,-6.92 40.014,-16.933 71.307,-19.386 z" style="fill:#ffffff;fill-opacity:1;fill-rule:nonzero;stroke:none" /></g></g>
    <g transform="matrix(1,0,0,-1,-256.5,716)"><g transform="translate(346.8049,350.5439)"><path id="path2800" d="M 0,0 H -47.709 V 29.734 H 7.788 V 74.689 C -3.208,55.838 -22.179,43.529 -54.687,39.353 c -7.98,-1.024 -15.43,-2.247 -19.137,-4.042 -3.71,-1.797 -2.908,-26.444 2.517,-33.502 3.175,-6.92 40.014,-16.933 71.307,-19.386 z" style="fill:none;stroke:#a7a9ac;stroke-width:0.96600002;stroke-linecap:butt;stroke-linejoin:miter;stroke-miterlimit:4;stroke-dasharray:none;stroke-opacity:1" /></g></g>
    <g transform="matrix(1,0,0,-1,-256.5,716)"><g transform="translate(323.8732,353.8492)"><path id="path2806" d="M 0,0 H -21.475 V 23.125 H 0 Z" style="fill:none;stroke:#a7a9ac;stroke-width:0.96600002;stroke-linecap:butt;stroke-linejoin:miter;stroke-miterlimit:4;stroke-dasharray:none;stroke-opacity:1" /></g></g>
    <g transform="matrix(1,0,0,-1,-256.5,716)"><g transform="translate(364.1752,529.5822)"><path id="path2810" d="m 0,0 c 1.643,-17.862 2.103,-37.561 2.103,-58.857 0,-5.092 -0.121,-10.125 -0.347,-15.101 h 3.685 v -29.92 H -9.304 c -0.09,-0.158 -0.185,-0.313 -0.279,-0.471 v -45.42 l 10.577,38.459 h 3.302 v -99.114 l -0.453,-0.825 h 7.915 4.73 V -0.064 Z" style="fill:#ffffff;fill-opacity:1;fill-rule:nonzero;stroke:none" /></g></g>
    <g transform="matrix(1,0,0,-1,-256.5,716)"><g transform="translate(364.1752,529.5822)"><path id="path2814" d="m 0,0 c 1.643,-17.862 2.103,-37.561 2.103,-58.857 0,-5.092 -0.121,-10.125 -0.347,-15.101 h 3.685 v -29.92 H -9.304 c -0.09,-0.158 -0.185,-0.313 -0.279,-0.471 v -45.42 l 10.577,38.459 h 3.302 v -99.114 l -0.453,-0.825 h 7.915 4.73 V -0.064 Z" style="fill:none;stroke:#a7a9ac;stroke-width:0.96600002;stroke-linecap:butt;stroke-linejoin:miter;stroke-miterlimit:4;stroke-dasharray:none;stroke-opacity:1" /></g></g>
    <g transform="matrix(1,0,0,-1,-256.5,716)"><g transform="translate(365.1695,418.2717)"><path id="path2818" d="m 0,0 -18.171,-66.075 v -66.074 h 3.303 l 18.17,33.035 0,99.114 z" style="fill:#ffffff;fill-opacity:1;fill-rule:nonzero;stroke:none" /></g></g>
    <g transform="matrix(1,0,0,-1,-256.5,716)"><g transform="translate(365.1695,418.2717)"><path id="path2822" d="m 0,0 -18.171,-66.075 v -66.074 h 3.303 l 18.17,33.035 0,99.114 z" style="fill:none;stroke:#a7a9ac;stroke-width:0.96600002;stroke-linecap:butt;stroke-linejoin:miter;stroke-miterlimit:4;stroke-dasharray:none;stroke-opacity:1" /></g></g>
    <g transform="matrix(1,0,0,-1,-256.5,716)"><g transform="translate(368.4719,319.1575)"><path id="path2826" d="M 0,0 -18.171,-33.035 V 33.039 L 0,99.114 Z" style="fill:#ffffff;fill-opacity:1;fill-rule:nonzero;stroke:none" /></g></g>
    <g transform="matrix(1,0,0,-1,-256.5,716)"><g transform="translate(368.4719,319.1575)"><path id="path2830" d="M 0,0 -18.171,-33.035 V 33.039 L 0,99.114 Z" style="fill:none;stroke:#a7a9ac;stroke-width:0.96600002;stroke-linecap:butt;stroke-linejoin:miter;stroke-miterlimit:4;stroke-dasharray:none;stroke-opacity:1" /></g></g>
    <g transform="matrix(1,0,0,-1,-256.5,716)"><g transform="translate(497.3283,599.6461)"><path id="path2834" d="m 0,0 c -8.921,2.973 -50.547,19.327 -59.466,19.327 h -69.797 c -8.922,0 -50.548,-16.354 -59.47,-19.327 -8.917,-2.973 0,-40.14 0,-40.14 l 54.906,-27.452 h 78.926 L 0,-40.14 c 0,0 8.92,37.167 0,40.14" style="fill:#ffffff;fill-opacity:1;fill-rule:nonzero;stroke:none" /></g></g>
    <g transform="matrix(1,0,0,-1,-256.5,716)"><g transform="translate(497.3283,599.6461)"><path id="path2838" d="m 0,0 c -8.921,2.973 -50.547,19.327 -59.466,19.327 h -69.797 c -8.922,0 -50.548,-16.354 -59.47,-19.327 -8.917,-2.973 0,-40.14 0,-40.14 l 54.906,-27.452 h 78.926 L 0,-40.14 c 0,0 8.92,37.167 0,40.14 z" style="fill:none;stroke:#a7a9ac;stroke-width:0.96600002;stroke-linecap:butt;stroke-linejoin:miter;stroke-miterlimit:4;stroke-dasharray:none;stroke-opacity:1" /></g></g>
    <g transform="matrix(1,0,0,-1,-256.5,716)"><g transform="translate(459.3644,350.5439)"><path id="path2842" d="M 0,0 H 47.709 V 29.734 H -7.788 V 74.689 C 3.207,55.838 22.178,43.529 54.683,39.353 62.665,38.329 70.117,37.106 73.824,35.311 77.531,33.514 76.732,8.867 71.305,1.809 68.132,-5.111 31.293,-15.124 0,-17.577 Z" style="fill:#ffffff;fill-opacity:1;fill-rule:nonzero;stroke:none" /></g></g>
    <g transform="matrix(1,0,0,-1,-256.5,716)"><g transform="translate(459.3644,350.5439)"><path id="path2846" d="M 0,0 H 47.709 V 29.734 H -7.788 V 74.689 C 3.207,55.838 22.178,43.529 54.683,39.353 62.665,38.329 70.117,37.106 73.824,35.311 77.531,33.514 76.732,8.867 71.305,1.809 68.132,-5.111 31.293,-15.124 0,-17.577 Z" style="fill:none;stroke:#a7a9ac;stroke-width:0.96600002;stroke-linecap:butt;stroke-linejoin:miter;stroke-miterlimit:4;stroke-dasharray:none;stroke-opacity:1" /></g></g>
    <g transform="matrix(1,0,0,-1,-256.5,716)"><g transform="translate(482.2968,353.8492)"><path id="path2852" d="M 0,0 H 21.474 V 23.125 H 0 Z" style="fill:none;stroke:#a7a9ac;stroke-width:0.96600002;stroke-linecap:butt;stroke-linejoin:miter;stroke-miterlimit:4;stroke-dasharray:none;stroke-opacity:1" /></g></g>
    <g transform="matrix(1,0,0,-1,-256.5,716)"><g transform="translate(441.9932,529.5822)"><path id="path2856" d="m 0,0 c -1.642,-17.862 -2.103,-37.561 -2.103,-58.857 0,-5.092 0.122,-10.125 0.349,-15.101 H -5.44 v -29.92 H 9.303 c 0.092,-0.158 0.187,-0.313 0.28,-0.471 v -45.42 l -10.575,38.459 h -3.306 v -99.114 l 0.456,-0.825 h -7.916 -4.729 V -0.064 Z" style="fill:#ffffff;fill-opacity:1;fill-rule:nonzero;stroke:none" /></g></g>
    <g transform="matrix(1,0,0,-1,-256.5,716)"><g transform="translate(441.9932,529.5822)"><path id="path2860" d="m 0,0 c -1.642,-17.862 -2.103,-37.561 -2.103,-58.857 0,-5.092 0.122,-10.125 0.349,-15.101 H -5.44 v -29.92 H 9.303 c 0.092,-0.158 0.187,-0.313 0.28,-0.471 v -45.42 l -10.575,38.459 h -3.306 v -99.114 l 0.456,-0.825 h -7.916 -4.729 V -0.064 Z" style="fill:none;stroke:#a7a9ac;stroke-width:0.96600002;stroke-linecap:butt;stroke-linejoin:miter;stroke-miterlimit:4;stroke-dasharray:none;stroke-opacity:1" /></g></g>
    <g transform="matrix(1,0,0,-1,-256.5,716)"><g transform="translate(441.0009,418.2717)"><path id="path2864" d="m 0,0 18.17,-66.075 v -66.074 H 14.866 L -3.306,-99.114 V 0 Z" style="fill:#ffffff;fill-opacity:1;fill-rule:nonzero;stroke:none" /></g></g>
    <g transform="matrix(1,0,0,-1,-256.5,716)"><g transform="translate(441.0009,418.2717)"><path id="path2868" d="m 0,0 18.17,-66.075 v -66.074 H 14.866 L -3.306,-99.114 V 0 Z" style="fill:none;stroke:#a7a9ac;stroke-width:0.96600002;stroke-linecap:butt;stroke-linejoin:miter;stroke-miterlimit:4;stroke-dasharray:none;stroke-opacity:1" /></g></g>
    <g transform="matrix(1,0,0,-1,-256.5,716)"><g transform="translate(437.6947,319.1575)"><path id="path2872" d="M 0,0 18.172,-33.035 V 33.039 L 0,99.114 Z" style="fill:#ffffff;fill-opacity:1;fill-rule:nonzero;stroke:none" /></g></g>
    <g transform="matrix(1,0,0,-1,-256.5,716)"><g transform="translate(437.6947,319.1575)"><path id="path2876" d="M 0,0 18.172,-33.035 V 33.039 L 0,99.114 Z" style="fill:none;stroke:#a7a9ac;stroke-width:0.96600002;stroke-linecap:butt;stroke-linejoin:miter;stroke-miterlimit:4;stroke-dasharray:none;stroke-opacity:1" /></g></g>
    <g transform="matrix(1,0,0,-1,-256.5,716)"><g transform="translate(304.4276,590.302)"><path id="path2880" d="M 0,0 H 66.737" style="fill:#ffffff;fill-opacity:1;fill-rule:nonzero;stroke:#a7a9ac;stroke-width:0.96600002;stroke-linecap:butt;stroke-linejoin:miter;stroke-miterlimit:4;stroke-dasharray:none;stroke-opacity:1" /></g></g>
    <g transform="matrix(1,0,0,-1,-256.5,716)"><g transform="translate(433.9877,590.302)"><path id="path2884" d="M 0,0 H 66.733" style="fill:#ffffff;fill-opacity:1;fill-rule:nonzero;stroke:#a7a9ac;stroke-width:0.96600002;stroke-linecap:butt;stroke-linejoin:miter;stroke-miterlimit:4;stroke-dasharray:none;stroke-opacity:1" /></g></g>
    <g transform="matrix(1,0,0,-1,-256.5,716)"><g transform="translate(439.3049,536.0126)"><path id="path2888" d="m 0,0 v 27.531 h 2.073 c -4.375,43.262 -19.915,75.252 -38.414,75.252 -18.501,0 -34.04,-31.99 -38.415,-75.252 h 2.074 V 0 h -3.287 c 0.01,-0.982 0.027,-1.962 0.049,-2.936 1.161,-14.733 18.434,-26.432 39.579,-26.432 21.143,0 38.419,11.699 39.579,26.432 0.02,0.974 0.036,1.954 0.049,2.936 z" style="fill:#ffffff;fill-opacity:1;fill-rule:nonzero;stroke:none" /></g></g>
    <g transform="matrix(1,0,0,-1,-256.5,716)"><g transform="translate(439.3049,536.0126)"><path id="path2892" d="m 0,0 v 27.531 h 2.073 c -4.375,43.262 -19.915,75.252 -38.414,75.252 -18.501,0 -34.04,-31.99 -38.415,-75.252 h 2.074 V 0 h -3.287 c 0.01,-0.982 0.027,-1.962 0.049,-2.936 1.161,-14.733 18.434,-26.432 39.579,-26.432 21.143,0 38.419,11.699 39.579,26.432 0.02,0.974 0.036,1.954 0.049,2.936 z" style="fill:none;stroke:#a7a9ac;stroke-width:0.96600002;stroke-linecap:butt;stroke-linejoin:miter;stroke-miterlimit:4;stroke-dasharray:none;stroke-opacity:1" /></g></g>
    <g transform="matrix(1,0,0,-1,-256.5,716)"><g transform="translate(361.6671,622.1666)"><path id="path2896" d="M 0,0 V -93.055" style="fill:#ffffff;fill-opacity:1;fill-rule:nonzero;stroke:#a7a9ac;stroke-width:0.96600002;stroke-linecap:butt;stroke-linejoin:miter;stroke-miterlimit:4;stroke-dasharray:none;stroke-opacity:1" /></g></g>
    <g transform="matrix(1,0,0,-1,-256.5,716)"><g transform="translate(343.4959,616.7708)"><path id="path2900" d="M 0,0 V -78.74" style="fill:#ffffff;fill-opacity:1;fill-rule:nonzero;stroke:#a7a9ac;stroke-width:0.96600002;stroke-linecap:butt;stroke-linejoin:miter;stroke-miterlimit:4;stroke-dasharray:none;stroke-opacity:1" /></g></g>
    <g transform="matrix(1,0,0,-1,-256.5,716)"><g transform="translate(431.0248,580.301)"><path id="path2904" d="m 0,0 c -0.532,38.006 -12.89,68.406 -28.062,68.406 -15.169,0 -27.528,-30.4 -28.061,-68.406 -0.012,-0.374 -0.02,-0.748 -0.02,-1.123 0,-17.251 12.574,-31.235 28.081,-31.235 15.51,0 28.083,13.984 28.083,31.235 C 0.021,-0.748 0.013,-0.374 0,0" style="fill:#ffffff;fill-opacity:1;fill-rule:nonzero;stroke:none" /></g></g>
    <g transform="matrix(1,0,0,-1,-256.5,716)"><g transform="translate(431.0248,580.301)"><path id="path2908" d="m 0,0 c -0.532,38.006 -12.89,68.406 -28.062,68.406 -15.169,0 -27.528,-30.4 -28.061,-68.406 -0.012,-0.374 -0.02,-0.748 -0.02,-1.123 0,-17.251 12.574,-31.235 28.081,-31.235 15.51,0 28.083,13.984 28.083,31.235 C 0.021,-0.748 0.013,-0.374 0,0 Z" style="fill:none;stroke:#a7a9ac;stroke-width:0.96600002;stroke-linecap:butt;stroke-linejoin:miter;stroke-miterlimit:4;stroke-dasharray:none;stroke-opacity:1" /></g></g>
    <g transform="matrix(1,0,0,-1,-256.5,716)"><g transform="translate(313.7621,605.7585)"><path id="path2912" d="M 0,0 V -52.859" style="fill:#ffffff;fill-opacity:1;fill-rule:nonzero;stroke:#a7a9ac;stroke-width:0.96600002;stroke-linecap:butt;stroke-linejoin:miter;stroke-miterlimit:4;stroke-dasharray:none;stroke-opacity:1" /></g></g>
    <g transform="matrix(1,0,0,-1,-256.5,716)"><g transform="translate(444.2598,622.1666)"><path id="path2916" d="M 0,0 V -93.055" style="fill:#ffffff;fill-opacity:1;fill-rule:nonzero;stroke:#a7a9ac;stroke-width:0.96600002;stroke-linecap:butt;stroke-linejoin:miter;stroke-miterlimit:4;stroke-dasharray:none;stroke-opacity:1" /></g></g>
    <g transform="matrix(1,0,0,-1,-256.5,716)"><g transform="translate(462.4301,616.7708)"><path id="path2920" d="M 0,0 V -78.74" style="fill:#ffffff;fill-opacity:1;fill-rule:nonzero;stroke:#a7a9ac;stroke-width:0.96600002;stroke-linecap:butt;stroke-linejoin:miter;stroke-miterlimit:4;stroke-dasharray:none;stroke-opacity:1" /></g></g>
    <g transform="matrix(1,0,0,-1,-256.5,716)"><g transform="translate(492.1639,605.7585)"><path id="path2924" d="M 0,0 V -52.859" style="fill:#ffffff;fill-opacity:1;fill-rule:nonzero;stroke:#a7a9ac;stroke-width:0.96600002;stroke-linecap:butt;stroke-linejoin:miter;stroke-miterlimit:4;stroke-dasharray:none;stroke-opacity:1" /></g></g>
    <g transform="matrix(1,0,0,-1,-256.5,716)"><g transform="translate(421.1328,595.0212)"><path id="path2928" d="m 0,0 c 0,-26.001 -8.133,-47.078 -18.17,-47.078 -10.035,0 -18.17,21.077 -18.17,47.078 0,26 8.135,47.077 18.17,47.077 C -8.133,47.077 0,26 0,0" style="fill:#ffffff;fill-opacity:1;fill-rule:nonzero;stroke:none" /></g></g>
    <g transform="matrix(1,0,0,-1,-256.5,716)"><g transform="translate(421.1328,595.0212)"><path id="path2932" d="m 0,0 c 0,-26.001 -8.133,-47.078 -18.17,-47.078 -10.035,0 -18.17,21.077 -18.17,47.078 0,26 8.135,47.077 18.17,47.077 C -8.133,47.077 0,26 0,0 Z" style="fill:none;stroke:#a7a9ac;stroke-width:0.96600002;stroke-linecap:butt;stroke-linejoin:miter;stroke-miterlimit:4;stroke-dasharray:none;stroke-opacity:1" /></g></g>
    <g transform="matrix(1,0,0,-1,-256.5,716)"><g transform="translate(417.8295,609.8881)"><path id="path2936" d="m 0,0 c 0,-17.789 -6.656,-32.211 -14.866,-32.211 -8.212,0 -14.867,14.422 -14.867,32.211 0,17.789 6.655,32.211 14.867,32.211 C -6.656,32.211 0,17.789 0,0" style="fill:#ffffff;fill-opacity:1;fill-rule:nonzero;stroke:none" /></g></g>
    <g transform="matrix(1,0,0,-1,-256.5,716)"><g transform="translate(417.8295,609.8881)"><path id="path2940" d="m 0,0 c 0,-17.789 -6.656,-32.211 -14.866,-32.211 -8.212,0 -14.867,14.422 -14.867,32.211 0,17.789 6.655,32.211 14.867,32.211 C -6.656,32.211 0,17.789 0,0 Z" style="fill:none;stroke:#a7a9ac;stroke-width:0.96600002;stroke-linecap:butt;stroke-linejoin:miter;stroke-miterlimit:4;stroke-dasharray:none;stroke-opacity:1" /></g></g>
    <g transform="matrix(1,0,0,-1,-256.5,716)"><g transform="translate(402.9635,635.6573)"><path id="path2944" d="M 0,0 C -6.567,0 -11.893,-11.538 -11.893,-25.769 H 11.893 C 11.893,-11.538 6.568,0 0,0" style="fill:#a7a9ac;fill-opacity:1;fill-rule:nonzero;stroke:none" /></g></g>
    <g transform="matrix(1,0,0,-1,-256.5,716)"><g transform="translate(402.9635,635.6573)"><path id="path2948" d="M 0,0 C -6.567,0 -11.893,-11.538 -11.893,-25.769 H 11.893 C 11.893,-11.538 6.568,0 0,0 Z" style="fill:none;stroke:#a7a9ac;stroke-width:0.96600002;stroke-linecap:butt;stroke-linejoin:miter;stroke-miterlimit:4;stroke-dasharray:none;stroke-opacity:1" /></g></g>
    <g transform="matrix(1,0,0,-1,-256.5,716)"><g transform="translate(402.9635,604.1063)"><path id="path2952" d="M 0,0 C 6.568,0 11.893,2.589 11.893,5.782 H -11.893 C -11.893,2.589 -6.567,0 0,0" style="fill:#ffffff;fill-opacity:1;fill-rule:nonzero;stroke:none" /></g></g>
    <g transform="matrix(1,0,0,-1,-256.5,716)"><g transform="translate(402.9635,604.1063)"><path id="path2956" d="M 0,0 C 6.568,0 11.893,2.589 11.893,5.782 H -11.893 C -11.893,2.589 -6.567,0 0,0 Z" style="fill:none;stroke:#a7a9ac;stroke-width:0.96600002;stroke-linecap:butt;stroke-linejoin:miter;stroke-miterlimit:4;stroke-dasharray:none;stroke-opacity:1" /></g></g>
    <g transform="matrix(1,0,0,-1,-256.5,716)"><g transform="translate(392.0612,587.5883)"><path id="path2960" d="M 0,0 H 21.638" style="fill:#000000;fill-opacity:1;fill-rule:nonzero;stroke:#a7a9ac;stroke-width:0.96600002;stroke-linecap:butt;stroke-linejoin:miter;stroke-miterlimit:4;stroke-dasharray:none;stroke-opacity:1" /></g></g>
    <g transform="matrix(1,0,0,-1,-256.5,716)"><g transform="translate(389.2521,597.4996)"><path id="path2964" d="M 0,0 H 26.927" style="fill:#000000;fill-opacity:1;fill-rule:nonzero;stroke:#a7a9ac;stroke-width:0.96600002;stroke-linecap:butt;stroke-linejoin:miter;stroke-miterlimit:4;stroke-dasharray:none;stroke-opacity:1" /></g></g>
    <g transform="matrix(1,0,0,-1,-256.5,716)"><g transform="translate(277.1727,403.5689)"><path id="path2968" d="m 0,0 1.25,-3.973 1.25,0.22 1.251,4.414 V -7.727 L 0,-8.388 Z" style="fill:#a7a9ac;fill-opacity:1;fill-rule:nonzero;stroke:none" /></g></g>
    <g transform="matrix(1,0,0,-1,-256.5,716)"><g transform="translate(277.1727,403.5689)"><path id="path2972" d="m 0,0 1.25,-3.973 1.25,0.22 1.251,4.414 V -7.727 L 0,-8.388 Z" style="fill:none;stroke:#a7a9ac;stroke-width:0.96600002;stroke-linecap:butt;stroke-linejoin:miter;stroke-miterlimit:4;stroke-dasharray:none;stroke-opacity:1" /></g></g>
    <g transform="matrix(1,0,0,-1,-256.5,716)"><g transform="translate(272.0602,402.6671)"><path id="path2976" d="m 0,0 1.25,-3.973 1.251,0.22 1.249,4.414 V -7.727 L 0,-8.388 Z" style="fill:#a7a9ac;fill-opacity:1;fill-rule:nonzero;stroke:none" /></g></g>
    <g transform="matrix(1,0,0,-1,-256.5,716)"><g transform="translate(272.0602,402.6671)"><path id="path2980" d="m 0,0 1.25,-3.973 1.251,0.22 1.249,4.414 V -7.727 L 0,-8.388 Z" style="fill:none;stroke:#a7a9ac;stroke-width:0.96600002;stroke-linecap:butt;stroke-linejoin:miter;stroke-miterlimit:4;stroke-dasharray:none;stroke-opacity:1" /></g></g>
    <g transform="matrix(1,0,0,-1,-256.5,716)"><g transform="translate(266.9467,401.7654)"><path id="path2984" d="m 0,0 1.251,-3.973 1.251,0.22 1.25,4.414 V -7.727 L 0,-8.388 Z" style="fill:#a7a9ac;fill-opacity:1;fill-rule:nonzero;stroke:none" /></g></g>
    <g transform="matrix(1,0,0,-1,-256.5,716)"><g transform="translate(266.9467,401.7654)"><path id="path2988" d="m 0,0 1.251,-3.973 1.251,0.22 1.25,4.414 V -7.727 L 0,-8.388 Z" style="fill:none;stroke:#a7a9ac;stroke-width:0.96600002;stroke-linecap:butt;stroke-linejoin:miter;stroke-miterlimit:4;stroke-dasharray:none;stroke-opacity:1" /></g></g>
    <g transform="matrix(1,0,0,-1,-256.5,716)"><g transform="translate(261.8356,400.8636)"><path id="path2992" d="m 0,0 1.25,-3.971 1.249,0.218 1.252,4.414 V -7.727 L 0,-8.388 Z" style="fill:#a7a9ac;fill-opacity:1;fill-rule:nonzero;stroke:none" /></g></g>
    <g transform="matrix(1,0,0,-1,-256.5,716)"><g transform="translate(261.8356,400.8636)"><path id="path2996" d="m 0,0 1.25,-3.971 1.249,0.218 1.252,4.414 V -7.727 L 0,-8.388 Z" style="fill:none;stroke:#a7a9ac;stroke-width:0.96600002;stroke-linecap:butt;stroke-linejoin:miter;stroke-miterlimit:4;stroke-dasharray:none;stroke-opacity:1" /></g></g>
    <g transform="matrix(1,0,0,-1,-256.5,716)"><g transform="translate(297.9148,407.0627)"><path id="path3000" d="m 0,0 1.25,-3.975 1.248,0.222 1.25,4.416 v -8.39 L 0,-8.388 Z" style="fill:#a7a9ac;fill-opacity:1;fill-rule:nonzero;stroke:none" /></g></g>
    <g transform="matrix(1,0,0,-1,-256.5,716)"><g transform="translate(297.9148,407.0627)"><path id="path3004" d="m 0,0 1.25,-3.975 1.248,0.222 1.25,4.416 v -8.39 L 0,-8.388 Z" style="fill:none;stroke:#a7a9ac;stroke-width:0.96600002;stroke-linecap:butt;stroke-linejoin:miter;stroke-miterlimit:4;stroke-dasharray:none;stroke-opacity:1" /></g></g>
    <g transform="matrix(1,0,0,-1,-256.5,716)"><g transform="translate(292.8012,406.161)"><path id="path3008" d="m 0,0 1.249,-3.973 1.25,0.218 1.251,4.416 V -7.727 L 0,-8.388 Z" style="fill:#a7a9ac;fill-opacity:1;fill-rule:nonzero;stroke:none" /></g></g>
    <g transform="matrix(1,0,0,-1,-256.5,716)"><g transform="translate(292.8012,406.161)"><path id="path3012" d="m 0,0 1.249,-3.973 1.25,0.218 1.251,4.416 V -7.727 L 0,-8.388 Z" style="fill:none;stroke:#a7a9ac;stroke-width:0.96600002;stroke-linecap:butt;stroke-linejoin:miter;stroke-miterlimit:4;stroke-dasharray:none;stroke-opacity:1" /></g></g>
    <g transform="matrix(1,0,0,-1,-256.5,716)"><g transform="translate(287.6878,405.2573)"><path id="path3016" d="m 0,0 1.25,-3.971 1.249,0.22 1.251,4.414 V -7.725 L 0,-8.386 Z" style="fill:#a7a9ac;fill-opacity:1;fill-rule:nonzero;stroke:none" /></g></g>
    <g transform="matrix(1,0,0,-1,-256.5,716)"><g transform="translate(287.6878,405.2573)"><path id="path3020" d="m 0,0 1.25,-3.971 1.249,0.22 1.251,4.414 V -7.725 L 0,-8.386 Z" style="fill:none;stroke:#a7a9ac;stroke-width:0.96600002;stroke-linecap:butt;stroke-linejoin:miter;stroke-miterlimit:4;stroke-dasharray:none;stroke-opacity:1" /></g></g>
    <g transform="matrix(1,0,0,-1,-256.5,716)"><g transform="translate(282.5744,404.3575)"><path id="path3024" d="m 0,0 1.25,-3.973 1.25,0.22 1.251,4.414 V -7.727 L 0,-8.388 Z" style="fill:#a7a9ac;fill-opacity:1;fill-rule:nonzero;stroke:none" /></g></g>
    <g transform="matrix(1,0,0,-1,-256.5,716)"><g transform="translate(282.5744,404.3575)"><path id="path3028" d="m 0,0 1.25,-3.973 1.25,0.22 1.251,4.414 V -7.727 L 0,-8.388 Z" style="fill:none;stroke:#a7a9ac;stroke-width:0.96600002;stroke-linecap:butt;stroke-linejoin:miter;stroke-miterlimit:4;stroke-dasharray:none;stroke-opacity:1" /></g></g>
    <g transform="matrix(1,0,0,-1,-256.5,716)"><g transform="translate(529.8824,403.5689)"><path id="path3032" d="m 0,0 -1.25,-3.973 -1.25,0.22 -1.249,4.414 V -7.727 L 0,-8.388 Z" style="fill:#a7a9ac;fill-opacity:1;fill-rule:nonzero;stroke:none" /></g></g>
    <g transform="matrix(1,0,0,-1,-256.5,716)"><g transform="translate(529.8824,403.5689)"><path id="path3036" d="m 0,0 -1.25,-3.973 -1.25,0.22 -1.249,4.414 V -7.727 L 0,-8.388 Z" style="fill:none;stroke:#a7a9ac;stroke-width:0.96600002;stroke-linecap:butt;stroke-linejoin:miter;stroke-miterlimit:4;stroke-dasharray:none;stroke-opacity:1" /></g></g>
    <g transform="matrix(1,0,0,-1,-256.5,716)"><g transform="translate(534.9959,402.6671)"><path id="path3040" d="m 0,0 -1.25,-3.973 -1.248,0.22 -1.251,4.414 V -7.727 L 0,-8.388 Z" style="fill:#a7a9ac;fill-opacity:1;fill-rule:nonzero;stroke:none" /></g></g>
    <g transform="matrix(1,0,0,-1,-256.5,716)"><g transform="translate(534.9959,402.6671)"><path id="path3044" d="m 0,0 -1.25,-3.973 -1.248,0.22 -1.251,4.414 V -7.727 L 0,-8.388 Z" style="fill:none;stroke:#a7a9ac;stroke-width:0.96600002;stroke-linecap:butt;stroke-linejoin:miter;stroke-miterlimit:4;stroke-dasharray:none;stroke-opacity:1" /></g></g>
    <g transform="matrix(1,0,0,-1,-256.5,716)"><g transform="translate(540.1085,401.7654)"><path id="path3048" d="m 0,0 -1.25,-3.973 -1.248,0.22 -1.25,4.414 V -7.727 L 0,-8.388 Z" style="fill:#a7a9ac;fill-opacity:1;fill-rule:nonzero;stroke:none" /></g></g>
    <g transform="matrix(1,0,0,-1,-256.5,716)"><g transform="translate(540.1085,401.7654)"><path id="path3052" d="m 0,0 -1.25,-3.973 -1.248,0.22 -1.25,4.414 V -7.727 L 0,-8.388 Z" style="fill:none;stroke:#a7a9ac;stroke-width:0.96600002;stroke-linecap:butt;stroke-linejoin:miter;stroke-miterlimit:4;stroke-dasharray:none;stroke-opacity:1" /></g></g>
    <g transform="matrix(1,0,0,-1,-256.5,716)"><g transform="translate(545.2238,400.8636)"><path id="path3056" d="m 0,0 -1.254,-3.971 -1.247,0.218 -1.25,4.414 V -7.727 L 0,-8.388 Z" style="fill:#a7a9ac;fill-opacity:1;fill-rule:nonzero;stroke:none" /></g></g>
    <g transform="matrix(1,0,0,-1,-256.5,716)"><g transform="translate(545.2238,400.8636)"><path id="path3060" d="m 0,0 -1.254,-3.971 -1.247,0.218 -1.25,4.414 V -7.727 L 0,-8.388 Z" style="fill:none;stroke:#a7a9ac;stroke-width:0.96600002;stroke-linecap:butt;stroke-linejoin:miter;stroke-miterlimit:4;stroke-dasharray:none;stroke-opacity:1" /></g></g>
    <g transform="matrix(1,0,0,-1,-256.5,716)"><g transform="translate(509.3276,407.0627)"><path id="path3064" d="M 0,0 -1.253,-3.975 -2.5,-3.753 -3.75,0.663 v -8.39 L 0,-8.388 Z" style="fill:#a7a9ac;fill-opacity:1;fill-rule:nonzero;stroke:none" /></g></g>
    <g transform="matrix(1,0,0,-1,-256.5,716)"><g transform="translate(509.3276,407.0627)"><path id="path3068" d="M 0,0 -1.253,-3.975 -2.5,-3.753 -3.75,0.663 v -8.39 L 0,-8.388 Z" style="fill:none;stroke:#a7a9ac;stroke-width:0.96600002;stroke-linecap:butt;stroke-linejoin:miter;stroke-miterlimit:4;stroke-dasharray:none;stroke-opacity:1" /></g></g>
    <g transform="matrix(1,0,0,-1,-256.5,716)"><g transform="translate(514.4412,406.161)"><path id="path3072" d="m 0,0 -1.252,-3.973 -1.249,0.218 -1.252,4.416 V -7.727 L 0,-8.388 Z" style="fill:#a7a9ac;fill-opacity:1;fill-rule:nonzero;stroke:none" /></g></g>
    <g transform="matrix(1,0,0,-1,-256.5,716)"><g transform="translate(514.4412,406.161)"><path id="path3076" d="m 0,0 -1.252,-3.973 -1.249,0.218 -1.252,4.416 V -7.727 L 0,-8.388 Z" style="fill:none;stroke:#a7a9ac;stroke-width:0.96600002;stroke-linecap:butt;stroke-linejoin:miter;stroke-miterlimit:4;stroke-dasharray:none;stroke-opacity:1" /></g></g>
    <g transform="matrix(1,0,0,-1,-256.5,716)"><g transform="translate(519.5518,405.2573)"><path id="path3080" d="m 0,0 -1.25,-3.971 -1.25,0.22 -1.248,4.414 V -7.725 L 0,-8.386 Z" style="fill:#a7a9ac;fill-opacity:1;fill-rule:nonzero;stroke:none" /></g></g>
    <g transform="matrix(1,0,0,-1,-256.5,716)"><g transform="translate(519.5518,405.2573)"><path id="path3084" d="m 0,0 -1.25,-3.971 -1.25,0.22 -1.248,4.414 V -7.725 L 0,-8.386 Z" style="fill:none;stroke:#a7a9ac;stroke-width:0.96600002;stroke-linecap:butt;stroke-linejoin:miter;stroke-miterlimit:4;stroke-dasharray:none;stroke-opacity:1" /></g></g>
    <g transform="matrix(1,0,0,-1,-256.5,716)"><g transform="translate(524.6652,404.3575)"><path id="path3088" d="m 0,0 -1.25,-3.973 -1.249,0.22 -1.252,4.414 V -7.727 L 0,-8.388 Z" style="fill:#a7a9ac;fill-opacity:1;fill-rule:nonzero;stroke:none" /></g></g>
    <g transform="matrix(1,0,0,-1,-256.5,716)"><g transform="translate(524.6652,404.3575)"><path id="path3092" d="m 0,0 -1.25,-3.973 -1.249,0.22 -1.252,4.414 V -7.727 L 0,-8.388 Z" style="fill:none;stroke:#a7a9ac;stroke-width:0.96600002;stroke-linecap:butt;stroke-linejoin:miter;stroke-miterlimit:4;stroke-dasharray:none;stroke-opacity:1" /></g></g>
    <g transform="matrix(1,0,0,-1,-256.5,716)"><g transform="translate(367.3976,440.438)"><path id="path3096" d="M 0,0 H -1.075 L -2.151,12.929 V -11.39 H -3.323 V 12.929 L -4.399,0 H -5.474 L -6.548,12.929 V -11.39 H -7.721 V 12.929 L -8.798,0 h -1.075 l -1.075,12.929 V -11.39 h -1.173 V 12.929 L -13.195,0 h -1.075 l -1.076,12.929 v -25.855 h 3.225 v 0.511 h 1.173 v -0.511 h 3.227 v 0.511 h 1.173 v -0.511 h 3.225 v 0.511 h 1.172 v -0.511 h 3.225 v 25.855 z" style="fill:#a7a9ac;fill-opacity:1;fill-rule:nonzero;stroke:none" /></g></g>
    <g transform="matrix(1,0,0,-1,-256.5,716)"><g transform="translate(367.3976,440.438)"><path id="path3100" d="M 0,0 H -1.075 L -2.151,12.929 V -11.39 H -3.323 V 12.929 L -4.399,0 H -5.474 L -6.548,12.929 V -11.39 H -7.721 V 12.929 L -8.798,0 h -1.075 l -1.075,12.929 V -11.39 h -1.173 V 12.929 L -13.195,0 h -1.075 l -1.076,12.929 v -25.855 h 3.225 v 0.511 h 1.173 v -0.511 h 3.227 v 0.511 h 1.173 v -0.511 h 3.225 v 0.511 h 1.172 v -0.511 h 3.225 v 25.855 z" style="fill:none;stroke:#a7a9ac;stroke-width:0.96600002;stroke-linecap:butt;stroke-linejoin:miter;stroke-miterlimit:4;stroke-dasharray:none;stroke-opacity:1" /></g></g>
    <g transform="matrix(1,0,0,-1,-256.5,716)"><g transform="translate(453.4058,440.438)"><path id="path3104" d="M 0,0 H -1.076 L -2.152,12.929 V -11.39 H -3.326 V 12.929 L -4.4,0 H -5.476 L -6.549,12.929 V -11.39 H -7.721 V 12.929 L -8.797,0 h -1.075 l -1.075,12.929 V -11.39 H -12.12 V 12.929 L -13.195,0 h -1.075 l -1.075,12.929 v -25.855 h 3.225 v 0.511 h 1.173 v -0.511 h 3.226 v 0.511 h 1.172 v -0.511 h 3.223 v 0.511 h 1.174 v -0.511 h 3.225 v 25.855 z" style="fill:#a7a9ac;fill-opacity:1;fill-rule:nonzero;stroke:none" /></g></g>
    <g transform="matrix(1,0,0,-1,-256.5,716)"><g transform="translate(453.4058,440.438)"><path id="path3108" d="M 0,0 H -1.076 L -2.152,12.929 V -11.39 H -3.326 V 12.929 L -4.4,0 H -5.476 L -6.549,12.929 V -11.39 H -7.721 V 12.929 L -8.797,0 h -1.075 l -1.075,12.929 V -11.39 H -12.12 V 12.929 L -13.195,0 h -1.075 l -1.075,12.929 v -25.855 h 3.225 v 0.511 h 1.173 v -0.511 h 3.226 v 0.511 h 1.172 v -0.511 h 3.223 v 0.511 h 1.174 v -0.511 h 3.225 v 25.855 z" style="fill:none;stroke:#a7a9ac;stroke-width:0.96600002;stroke-linecap:butt;stroke-linejoin:miter;stroke-miterlimit:4;stroke-dasharray:none;stroke-opacity:1" /></g></g>
    <g transform="matrix(1,0,0,-1,-256.5,716)"><g transform="translate(545.9445,401.9181)"><path id="path3112" d="m 0,0 c -1.364,0.774 -3.195,1.462 -5.347,2.088 v 9.31 l 1.321,1.586 v 3.435 l -1.465,1.586 v 4.956 h 1.465 L -7.33,49.39 h -6.607 l -3.305,-26.429 h 1.465 v -4.956 l -1.465,-1.586 v -3.435 l 1.321,-1.586 V 4.382 c -1.67,0.285 -6.557,1.045 -7.266,1.162 v 6.267 l 0.989,1.188 v 2.577 l -1.097,1.19 v 3.717 h 1.097 l -2.476,19.822 h -4.956 l -2.479,-19.822 h 1.099 v -3.717 l -1.099,-1.19 v -2.577 l 0.991,-1.188 V 7.084 c -54.757,12.316 -69.97,53.035 -73.706,112.837 0.137,1.94 0.286,3.863 0.451,5.763 l 60.503,30.252 c 0,0 9.911,41.296 0,44.6 -9.911,3.305 -56.163,21.475 -66.074,21.475 h -11.717 c -3.386,9.971 -7.849,17.534 -12.933,21.55 v 6.695 h -1.112 v 2.227 h 1.112 v 2.226 h -1.112 v 2.226 h 0.953 c -0.37,2.924 -4.099,32.803 -4.099,32.803 h -8.259 c 0,0 -3.729,-29.879 -4.099,-32.803 h 1.035 v -2.226 h -1.113 v -2.226 h 1.113 v -2.227 h -1.113 v -6.629 c -5.118,-3.998 -9.609,-11.591 -13.014,-21.616 h -11.716 c -9.912,0 -56.164,-18.17 -66.076,-21.475 -9.911,-3.304 0,-44.6 0,-44.6 l 60.505,-30.252 c 0.164,-1.898 0.314,-3.819 0.453,-5.758 -3.728,-59.658 -18.874,-100.33 -73.312,-112.755 v 4.64 l 0.991,1.188 v 2.577 l -1.1,1.19 v 3.717 h 1.1 l -2.478,19.822 h -4.957 l -2.478,-19.822 h 1.098 v -3.717 l -1.098,-1.19 v -2.577 l 0.993,-1.188 V 5.609 c -0.837,-0.14 -5.726,-0.898 -7.269,-1.16 v 6.949 l 1.321,1.586 v 3.435 l -1.465,1.586 v 4.956 h 1.465 l -3.303,26.429 h -6.608 l -3.303,-26.429 h 1.464 v -4.956 l -1.464,-1.586 v -3.435 l 1.321,-1.586 V 2.201 c -2.328,-0.656 -4.298,-1.38 -5.745,-2.201 -4.078,-2.311 -3.198,-34.029 2.769,-43.111 1.662,-4.243 11.727,-9.386 25.532,-13.951 13.236,-4.879 34.566,-9.59 54.399,-11.525 0.75,-5.437 2.053,-11.13 4.317,-14.697 v -32.512 h 3.303 l 15.9,28.906 h 73.921 l 15.898,-28.906 h 3.302 v 33.177 c 2.023,3.584 3.218,8.921 3.923,14.032 19.842,1.935 41.182,6.648 54.417,11.531 13.795,4.563 23.852,9.706 25.515,13.945 C 3.199,-34.029 4.078,-2.311 0,0 Z" style="fill:none;stroke:#000000;stroke-width:1.93200004;stroke-linecap:butt;stroke-linejoin:miter;stroke-miterlimit:4;stroke-dasharray:none;stroke-opacity:1" /></g></g>
    <g transform="matrix(1,0,0,-1,-256.5,716)"><g transform="translate(365.0044,527.0675)"><path id="path3116" d="m 0,0 c 1.643,-17.862 0.769,-34.99 0.769,-56.285 0,-5.093 -0.121,-10.126 -0.347,-15.101 h 3.685 v -140.81" style="fill:none;stroke:#000000;stroke-width:0.96600002;stroke-linecap:butt;stroke-linejoin:miter;stroke-miterlimit:4;stroke-dasharray:none;stroke-opacity:1" /></g></g>
    <g transform="matrix(1,0,0,-1,-256.5,716)"><g transform="translate(441.9932,528.4367)"><path id="path3120" d="m 0,0 c -1.642,-17.862 -2.103,-36.416 -2.103,-57.711 0,-5.093 0.122,-10.126 0.349,-15.101 H -5.44 v -140.753" style="fill:none;stroke:#000000;stroke-width:0.96600002;stroke-linecap:butt;stroke-linejoin:miter;stroke-miterlimit:4;stroke-dasharray:none;stroke-opacity:1" /></g></g>
    <g transform="matrix(1,0,0,-1,-256.5,716)"><g transform="translate(364.8073,526.9548)"><path id="path3124" d="m 0,0 c 4.684,-11.78 19.985,-20.422 38.156,-20.422 18.171,0 33.473,8.642 38.158,20.422" style="fill:none;stroke:#000000;stroke-width:0.96600002;stroke-linecap:butt;stroke-linejoin:miter;stroke-miterlimit:4;stroke-dasharray:none;stroke-opacity:1" /></g></g>
    <g transform="matrix(1,0,0,-1,-256.5,716)"><path id="path2702" d="m 409.392,656.554 h -12.857 v 2.065 h 12.857 z" style="fill:#ffffff;fill-opacity:1;fill-rule:nonzero;stroke:none" /></g>
    <g transform="matrix(1,0,0,-1,-256.5,716)"><path id="path2708" d="m 409.392,652.423 h -12.857 v 2.065 h 12.857 z" style="fill:#ffffff;fill-opacity:1;fill-rule:nonzero;stroke:none" /></g>
    <g transform="matrix(1,0,0,-1,-256.5,716)"><path id="path2730" d="M 276.154,423.228 H 265.87 v 1.651 h 10.284 z" style="fill:#ffffff;fill-opacity:1;fill-rule:nonzero;stroke:none" /></g>
    <g transform="matrix(1,0,0,-1,-256.5,716)"><path id="path2736" d="M 276.154,419.922 H 265.87 v 1.653 h 10.284 z" style="fill:#ffffff;fill-opacity:1;fill-rule:nonzero;stroke:none" /></g>
    <g transform="matrix(1,0,0,-1,-256.5,716)"><path id="path2742" d="m 291.388,421.161 h -7.716 v 1.239 h 7.716 z" style="fill:#ffffff;fill-opacity:1;fill-rule:nonzero;stroke:none" /></g>
    <g transform="matrix(1,0,0,-1,-256.5,716)"><path id="path2748" d="m 291.388,418.685 h -7.716 v 1.237 h 7.716 z" style="fill:#ffffff;fill-opacity:1;fill-rule:nonzero;stroke:none" /></g>
    <g transform="matrix(1,0,0,-1,-256.5,716)"><path id="path2770" d="m 530.29,423.271 h 10.285 v 1.653 H 530.29 Z" style="fill:#ffffff;fill-opacity:1;fill-rule:nonzero;stroke:none" /></g>
    <g transform="matrix(1,0,0,-1,-256.5,716)"><path id="path2776" d="m 530.29,419.968 h 10.285 v 1.653 H 530.29 Z" style="fill:#ffffff;fill-opacity:1;fill-rule:nonzero;stroke:none" /></g>
    <g transform="matrix(1,0,0,-1,-256.5,716)"><path id="path2782" d="m 515.057,421.205 h 7.714 v 1.239 h -7.714 z" style="fill:#ffffff;fill-opacity:1;fill-rule:nonzero;stroke:none" /></g>
    <g transform="matrix(1,0,0,-1,-256.5,716)"><path id="path2788" d="m 515.057,418.73 h 7.714 v 1.237 h -7.714 z" style="fill:#ffffff;fill-opacity:1;fill-rule:nonzero;stroke:none" /></g>
    <g transform="matrix(1,0,0,-1,-256.5,716)"><path id="path2802" d="m 323.873,353.849 h -21.475 v 23.125 h 21.475 z" style="fill:#ffffff;fill-opacity:1;fill-rule:nonzero;stroke:none" /></g>
    <g transform="matrix(1,0,0,-1,-256.5,716)"><path id="path2848" d="m 482.297,353.849 h 21.474 v 23.125 h -21.474 z" style="fill:#ffffff;fill-opacity:1;fill-rule:nonzero;stroke:none" /></g>
    <g transform="matrix(1,0,0,-1,-256.5,716)"><g transform="translate(437.5627,481.1605)"><path id="path7796" d="m 0,0 c 0,-6.402 -4.541,-11.591 -10.142,-11.591 h -48.166 c -5.602,0 -10.142,5.189 -10.142,11.591 v 30.21 c 0,6.401 4.54,11.591 10.142,11.591 h 48.166 C -4.541,41.801 0,36.611 0,30.21 Z" style="fill:#ccced0;fill-opacity:1;fill-rule:nonzero;stroke:none" /></g></g>
    <g transform="matrix(1,0,0,-1,-256.5,716)"><g transform="translate(437.5627,481.1605)"><path id="path7800" d="m 0,0 c 0,-6.402 -4.541,-11.591 -10.142,-11.591 h -48.166 c -5.602,0 -10.142,5.189 -10.142,11.591 v 30.21 c 0,6.401 4.54,11.591 10.142,11.591 h 48.166 C -4.541,41.801 0,36.611 0,30.21 Z" style="fill:none;stroke:#000000;stroke-width:1.93200004;stroke-linecap:butt;stroke-linejoin:miter;stroke-miterlimit:4;stroke-dasharray:none;stroke-opacity:1" /></g></g>
    </g>
</svg>
