<?xml version="1.0" encoding="UTF-8"?>
<!-- Editable MekBay biped back armor paperdoll. Pink dashed rectangles mark pip areas and are removed at runtime. -->
<svg xmlns="http://www.w3.org/2000/svg" viewBox="40.52 238.859 98.924 86.977" role="img" aria-label="biped back armor paperdoll">
    <g id="paperdoll-art-armor">
    <g transform="translate(-5.070937,-22.715706)"><g transform="translate(10.949996,31.587)"><g transform="matrix(1,0,0,-1,-402.56599,713.9773)"><g transform="translate(533.9366,456.1723)"><path id="path56103" d="m 0,0 -29.063,1.645 h -2.742 v 7.74 l -1.666,1.646 -2.688,0.454 c -1.547,3.972 -2.079,5.636 -4.657,7.771 l -0.436,3.902 -1.75,1.645 h -5.55 l -1.752,-1.645 -0.433,-3.902 c -2.578,-2.135 -4.197,-3.799 -5.745,-7.771 l -1.611,-0.454 -1.669,-1.646 v -7.74 h -2.741 L -91.577,0 l -2.193,-2.742 1.644,-35.095 1.646,-1.645 c 0,0 19.203,-1.097 23.042,-1.645 1.095,-16.451 5.483,-18.033 5.483,-18.033 h 32.343 c 0,0 4.936,1.582 6.033,18.033 3.839,0.548 22.482,1.645 22.482,1.645 l 1.645,1.645 1.646,35.095 z" style="fill:#c7c7c7;fill-opacity:1;fill-rule:nonzero;stroke:none" /></g></g></g></g>
    <g transform="translate(-5.070937,-22.715706)"><g transform="translate(10.949996,31.587)"><g transform="matrix(1,0,0,-1,-402.56599,713.9773)"><g transform="translate(531.0068,459.1861)"><path class="armor unitLocation" id="paperdoll-art-armor-LT_R-armorLTR" loc="LT" rear="1" d="M -59.9 1.65 L -62.5 1.65 L -91.6 0.000687 L -93.8 -2.74 L -92.1 -37.8 L -90.5 -39.5 C -90.5 -39.5 -71.7 -40.6 -67.6 -41.1 C -67.5 -39.3 -66.8 -30.5 -59.9 -26.1 L -59.9 1.31 L -59.9 1.65 z" style="fill:#ffffff;fill-opacity:1;fill-rule:nonzero;stroke:none" /></g></g></g></g>
    <g transform="translate(-5.070937,-22.715706)"><g transform="translate(10.949996,31.587)"><g transform="matrix(1,0,0,-1,-402.56599,713.9773)"><g transform="translate(531.0068,459.1861)"><path class="armor unitLocation" id="paperdoll-art-armor-CT_R-armorCTR" loc="CT" rear="1" d="M -59.9 1.65 L -59.9 1.31 L -59.9 -26.1 C -66.8 -30.5 -67.5 -39.3 -67.6 -41.1 C -67.5 -41.1 -67.4 -41.1 -67.4 -41.1 C -66.3 -57.6 -62 -59.2 -62 -59.2 L -29.6 -59.2 C -29.6 -59.2 -24.7 -57.6 -23.6 -41.1 L -23.3 -41.1 C -23.5 -39.4 -24.6 -30.6 -31.5 -26.1 L -31.5 1.35 L -31.5 1.65 L -31.8 1.65 L -31.8 9.39 L -33.5 11 L -36.2 11.5 C -37.7 15.5 -38.2 17.1 -40.8 19.3 L -41.3 23.2 L -43 24.8 L -48.6 24.8 L -50.3 23.2 L -50.7 19.3 C -53.3 17.1 -54.9 15.5 -56.5 11.5 L -58.1 11 L -59.8 9.39 L -59.8 1.65 L -59.9 1.65 z" style="fill:#ffffff;fill-opacity:1;fill-rule:nonzero;stroke:none" /></g></g></g></g>
    <g transform="translate(-5.070937,-22.715706)"><g transform="translate(10.949996,31.587)"><g transform="matrix(1,0,0,-1,-402.56599,713.9773)"><g transform="translate(531.0068,459.1861)"><path class="armor unitLocation" id="paperdoll-art-armor-RT_R-armorRTR" loc="RT" rear="1" d="M -31.5 1.65 L -31.5 1.35 L -31.5 -26.1 C -24.6 -30.6 -23.5 -39.4 -23.3 -41.1 C -19 -40.5 -1.1 -39.5 -1.1 -39.5 L 0.547 -37.8 L 2.19 -2.74 L -0.000426 0.000687 L -29.1 1.65 L -31.5 1.65 z" style="fill:#ffffff;fill-opacity:1;fill-rule:nonzero;stroke:none" /></g></g></g></g>
    <g transform="translate(-5.070937,-22.715706)"><g transform="translate(10.949996,31.587)"><g transform="matrix(1,0,0,-1,-402.56599,713.9773)"><g transform="translate(531.0068,459.1861)"><path id="path56621" d="m 0,0 -29.063,1.645 h -2.742 v 7.74 l -1.666,1.646 -2.688,0.454 c -1.547,3.972 -2.079,5.637 -4.657,7.771 l -0.436,3.902 -1.75,1.645 h -5.55 l -1.752,-1.645 -0.433,-3.902 c -2.578,-2.134 -4.197,-3.799 -5.745,-7.771 l -1.611,-0.454 -1.669,-1.646 v -7.74 h -2.741 L -91.577,0 l -2.193,-2.742 1.644,-35.095 1.646,-1.646 c 0,0 19.203,-1.096 23.042,-1.644 1.095,-16.451 5.483,-18.033 5.483,-18.033 h 32.343 c 0,0 4.936,1.582 6.033,18.033 3.839,0.548 22.482,1.644 22.482,1.644 l 1.645,1.646 1.646,35.095 z" style="fill:none;stroke:#000000;stroke-width:1.449;stroke-linecap:butt;stroke-linejoin:miter;stroke-miterlimit:4;stroke-dasharray:none;stroke-opacity:1" /></g></g></g></g>
    <g transform="translate(-5.070937,-22.715706)"><g transform="translate(10.949996,31.587)"><g transform="matrix(1,0,0,-1,-402.56599,713.9773)"><g transform="translate(499.2026,460.8311)"><path id="path56625" d="m 0,0 v -27.418 c 7.676,-4.936 8.226,-15.354 8.226,-15.354" style="fill:none;stroke:#000000;stroke-width:1.449;stroke-linecap:butt;stroke-linejoin:miter;stroke-miterlimit:4;stroke-dasharray:none;stroke-opacity:1" /></g></g></g></g>
    <g transform="translate(-5.070937,-22.715706)"><g transform="translate(10.949996,31.587)"><g transform="matrix(1,0,0,-1,-402.56599,713.9773)"><g transform="translate(471.2449,460.8311)"><path id="path56629" d="m 0,0 v -27.418 c -7.676,-4.936 -7.676,-15.354 -7.676,-15.354" style="fill:none;stroke:#000000;stroke-width:1.449;stroke-linecap:butt;stroke-linejoin:miter;stroke-miterlimit:4;stroke-dasharray:none;stroke-opacity:1" /></g></g></g></g>
    <rect data-canon="armor" data-location="CT_R" fill="none" height="84" stroke="#e11d48" stroke-dasharray="3 1.5" stroke-opacity="0.9" stroke-width="1.25" width="44.3" x="66.72" y="238.862" />
    <rect data-canon="armor" data-location="LT_R" fill="none" height="42.75" stroke="#e11d48" stroke-dasharray="3 1.5" stroke-opacity="0.9" stroke-width="1.25" width="33.9" x="40.52" y="262.012" />
    <rect data-canon="armor" data-location="RT_R" fill="none" height="42.75" stroke="#e11d48" stroke-dasharray="3 1.5" stroke-opacity="0.9" stroke-width="1.25" width="33.69" x="102.82" y="262.012" />
    </g>
</svg>
