<?xml version="1.0" encoding="UTF-8"?>
<!-- Editable MekBay biped back armor paperdoll. Pink dashed rectangles mark pip areas and are removed at runtime. -->
<svg xmlns="http://www.w3.org/2000/svg" viewBox="40.42 238.859 99.024 86.977" role="img" aria-label="biped back armor paperdoll">
    <g id="paperdoll-art-armor">
    <g transform="translate(-5.070937,-22.715706)"><g transform="translate(10.949996,31.587)"><g transform="matrix(1,0,0,-1,-402.56599,713.9773)"><g transform="translate(533.9366,456.1723)"><path id="path56103" d="m 0,0 -29.063,1.645 h -2.742 v 7.74 l -1.666,1.646 -2.688,0.454 c -1.547,3.972 -2.079,5.636 -4.657,7.771 l -0.436,3.902 -1.75,1.645 h -5.55 l -1.752,-1.645 -0.433,-3.902 c -2.578,-2.135 -4.197,-3.799 -5.745,-7.771 l -1.611,-0.454 -1.669,-1.646 v -7.74 h -2.741 L -91.577,0 l -2.193,-2.742 1.644,-35.095 1.646,-1.645 c 0,0 19.203,-1.097 23.042,-1.645 1.095,-16.451 5.483,-18.033 5.483,-18.033 h 32.343 c 0,0 4.936,1.582 6.033,18.033 3.839,0.548 22.482,1.645 22.482,1.645 l 1.645,1.645 1.646,35.095 z" style="fill:#c7c7c7;fill-opacity:1;fill-rule:nonzero;stroke:none" /></g></g></g></g>
    <g transform="translate(-5.070937,-22.715706)"><g transform="translate(10.949996,31.587)"><g transform="matrix(1,0,0,-1,-402.56599,713.9773)"><g transform="translate(531.0068,459.1861)"><path class="armor unitLocation" id="paperdoll-art-armor-LT_R-armorLTR" loc="LT" rear="1" d="m -60,1.82 h -2.6 l -29.1,-1.683 -2.2,-2.707 1.7,-35.33 1.6,-1.7 c 0,0 18.8,-1.1 22.9,-1.6 0.1,1.8 0.8,10.6 7.7,15 V 1.48 Z" style="fill:#ffffff;fill-opacity:1;fill-rule:nonzero;stroke:none" /></g></g></g></g>
    <g transform="translate(-5.070937,-22.715706)"><g transform="translate(10.949996,31.587)"><g transform="matrix(1,0,0,-1,-402.56599,713.9773)"><g transform="translate(531.0068,459.1861)"><path class="armor unitLocation" id="paperdoll-art-armor-CT_R-armorCTR" loc="CT" rear="1" d="M -60,1.82 V 1.48 -26.2 c -6.9,-4.4 -7.6,-13.2 -7.7,-15 0.1,0 0.2,0 0.2,0 1.1,-16.5 5.4,-18.1 5.4,-18.1 h 32.4 c 0,0 4.9,1.6 6,18.1 h 0.3 c -0.2,1.7 -1.3,10.5 -8.2,15 v 27.72 0.3 h -0.3 v 7.62 l -1.7,1.46 -2.7,0.5 c -1.5,4 -2,5.6 -4.6,7.8 l -0.5,3.9 -1.7,1.6 h -5.6 l -1.7,-1.6 -0.4,-3.9 C -53.4,17 -55,15.4 -56.6,11.4 l -1.6,-0.5 -1.7,-1.46 V 1.82 Z" style="fill:#ffffff;fill-opacity:1;fill-rule:nonzero;stroke:none" /></g></g></g></g>
    <g transform="translate(-5.070937,-22.715706)"><g transform="translate(10.949996,31.587)"><g transform="matrix(1,0,0,-1,-402.56599,713.9773)"><g transform="translate(531.0068,459.1861)"><path class="armor unitLocation" id="paperdoll-art-armor-RT_R-armorRTR" loc="RT" rear="1" d="M -31.6,1.82 V 1.52 -26.2 c 6.9,-4.5 8,-13.3 8.2,-15 4.3,0.6 22.31,1.6 22.31,1.6 L 0.562,-37.9 2.22,-2.57 0.005,0.137 -29.2,1.82 Z" style="fill:#ffffff;fill-opacity:1;fill-rule:nonzero;stroke:none" /></g></g></g></g>
    <g transform="translate(-5.070937,-22.715706)"><g transform="translate(10.949996,31.587)"><g transform="matrix(1,0,0,-1,-402.56599,713.9773)"><g transform="translate(531.0068,459.1861)"><path id="path56621" d="m 0,0 -29.063,1.645 h -2.742 v 7.74 l -1.666,1.646 -2.688,0.454 c -1.547,3.972 -2.079,5.637 -4.657,7.771 l -0.436,3.902 -1.75,1.645 h -5.55 l -1.752,-1.645 -0.433,-3.902 c -2.578,-2.134 -4.197,-3.799 -5.745,-7.771 l -1.611,-0.454 -1.669,-1.646 v -7.74 h -2.741 L -91.577,0 l -2.193,-2.742 1.644,-35.095 1.646,-1.646 c 0,0 19.203,-1.096 23.042,-1.644 1.095,-16.451 5.483,-18.033 5.483,-18.033 h 32.343 c 0,0 4.936,1.582 6.033,18.033 3.839,0.548 22.482,1.644 22.482,1.644 l 1.645,1.646 1.646,35.095 z" style="fill:none;stroke:#000000;stroke-width:1.449;stroke-linecap:butt;stroke-linejoin:miter;stroke-miterlimit:4;stroke-dasharray:none;stroke-opacity:1" /></g></g></g></g>
    <g transform="translate(-5.070937,-22.715706)"><g transform="translate(10.949996,31.587)"><g transform="matrix(1,0,0,-1,-402.56599,713.9773)"><g transform="translate(499.2026,460.8311)"><path id="path56625" d="m 0,0 v -27.418 c 7.676,-4.936 8.226,-15.354 8.226,-15.354" style="fill:none;stroke:#000000;stroke-width:1.449;stroke-linecap:butt;stroke-linejoin:miter;stroke-miterlimit:4;stroke-dasharray:none;stroke-opacity:1" /></g></g></g></g>
    <g transform="translate(-5.070937,-22.715706)"><g transform="translate(10.949996,31.587)"><g transform="matrix(1,0,0,-1,-402.56599,713.9773)"><g transform="translate(471.2449,460.8311)"><path id="path56629" d="m 0,0 v -27.418 c -7.676,-4.936 -7.676,-15.354 -7.676,-15.354" style="fill:none;stroke:#000000;stroke-width:1.449;stroke-linecap:butt;stroke-linejoin:miter;stroke-miterlimit:4;stroke-dasharray:none;stroke-opacity:1" /></g></g></g></g>
    <rect data-canon="armor" data-location="CT_R" fill="none" height="84" stroke="#e11d48" stroke-dasharray="3 1.5" stroke-opacity="0.9" stroke-width="1.25" width="44.3" x="66.62" y="238.962" />
    <rect data-canon="armor" data-location="LT_R" fill="none" height="43.02" stroke="#e11d48" stroke-dasharray="3 1.5" stroke-opacity="0.9" stroke-width="1.25" width="33.9" x="40.42" y="261.842" />
    <rect data-canon="armor" data-location="RT_R" fill="none" height="43.02" stroke="#e11d48" stroke-dasharray="3 1.5" stroke-opacity="0.9" stroke-width="1.25" width="33.82" x="102.72" y="261.842" />
    </g>
</svg>
