<?xml version="1.0" encoding="UTF-8"?>
<!-- Editable MekBay biped structure paperdoll. Pink dashed rectangles mark pip areas and are removed at runtime. -->
<svg xmlns="http://www.w3.org/2000/svg" viewBox="18.24 0.724 116.366 170.66" role="img" aria-label="biped structure paperdoll">
    <g id="paperdoll-art-structure">
    <g transform="matrix(1,0,0,-1,-397.41833,378.338)"><g transform="translate(510.119,340.634)"><path id="path56107" d="m 0,0 v 9.193 l -1.532,0.383 -0.382,3.83 -3.065,1.149 h -1.916 l -0.766,-0.383 -0.766,0.383 h -1.915 l -0.383,-0.767 h -1.532 v 0.767 h -1.15 l -0.766,1.15 h -5.363 l -0.765,-1.15 h -2.297 v -29.82 l -2.299,-16.203 -0.018,-13.347 h 18.404 l -0.384,2.298 0.384,0.765 0.766,0.383 v 0.383 l -0.766,0.384 v 0.766 l -0.384,0.382 v 3.831 l -0.382,0.765 -8.044,1.917 -0.766,0.765 h -0.766 v 1.533 h 0.766 l 0.766,0.765 v 2.299 l 0.766,0.766 v 1.15 l -0.766,0.382 v 2.298 l 1.148,0.766 1.15,3.447 h 1.148 l -0.766,0.766 h -0.382 v 0.766 h 0.382 v 0.766 h -0.382 v 0.767 h 0.382 l 0.766,0.766 h -1.148 v 2.299 h 1.148 l 0.384,1.149 h 0.766 l 2.682,1.916 h 0.766 l 0.766,-1.15 h 2.68 l 0.384,1.15 h 1.149 l 0.384,3.064 0.382,0.382 v 3.064 l -0.382,0.384 v 1.915 z" style="fill:#c7c7c7;fill-opacity:1;fill-rule:nonzero;stroke:none" /></g></g>
    <g transform="matrix(1,0,0,-1,-397.41833,378.338)"><g transform="translate(511.1029,349.7318)"><path id="path56111" d="m 0,0 c 0.537,0.045 1.058,-0.007 1.549,-0.133 l -0.056,0.647 0.698,0.83 0.04,3.91 0.698,0.829 8.839,0.773 4.016,-1.956 0.172,-1.968 0.862,-1.077 0.101,-1.145 -0.663,-1.212 0.134,-1.526 1.559,-0.248 -0.477,-7.732 -0.382,-0.034 0.134,-1.526 0.382,0.034 -0.081,-3.468 0.267,-3.052 0.83,-0.696 0.1,-1.146 -0.663,-1.211 0.501,-5.724 -0.697,-0.831 0.066,-0.762 1.146,0.101 0.448,-0.73 0.099,-1.145 -0.313,-0.797 -1.145,-0.1 0.099,-1.145 0.831,-0.697 0.201,-2.289 1.626,-1.011 -1.226,-3.568 -0.697,-0.829 0.101,-1.145 -0.764,-0.066 0.067,-0.763 0.764,0.066 0.801,-9.158 -0.945,-2.39 0.066,-0.763 0.797,-0.315 0.101,-1.146 -0.731,-0.448 0.135,-1.525 -0.019,-8.107 -1.642,-3.218 -7.87,-0.864 -0.796,0.314 2.423,3.293 -2.881,5.479 0.004,2.545 0.979,2.007 -1.346,2.189 -0.969,11.066 0.664,1.212 -0.068,0.763 -1.625,1.011 -0.568,6.487 0.697,0.831 -0.1,1.144 -1.145,-0.1 -0.448,0.729 -0.101,1.145 0.314,0.797 1.146,0.1 -0.068,0.763 -0.829,0.696 -0.968,11.067 0.247,1.559 -0.233,2.671 -0.481,1.111 -0.134,1.526 -1.212,0.664 -0.056,0.648 C 1.841,-8.969 1.338,-9.112 0.802,-9.159 0.04,-9.225 -0.694,-9.1 -1.353,-8.826 v 8.495 C -0.932,-0.156 -0.477,-0.043 0,0" style="fill:#c7c7c7;fill-opacity:1;fill-rule:nonzero;stroke:none" /></g></g>
    <g transform="matrix(1,0,0,-1,-397.41833,378.338)"><g transform="translate(439.5058,349.7318)"><path id="path56115" d="m 0,0 c -0.536,0.045 -1.057,-0.007 -1.549,-0.133 l 0.056,0.647 -0.697,0.83 -0.042,3.91 -0.696,0.829 -8.839,0.773 -4.017,-1.956 -0.172,-1.968 -0.862,-1.077 -0.101,-1.145 0.664,-1.212 -0.135,-1.526 -1.559,-0.248 0.478,-7.732 0.381,-0.034 -0.133,-1.526 -0.383,0.034 0.081,-3.468 -0.266,-3.052 -0.83,-0.696 -0.1,-1.146 0.663,-1.211 -0.501,-5.724 0.697,-0.831 -0.067,-0.762 -1.145,0.101 -0.448,-0.73 -0.101,-1.145 0.315,-0.797 1.145,-0.1 -0.099,-1.145 -0.831,-0.697 -0.201,-2.289 -1.626,-1.011 1.225,-3.568 0.698,-0.829 -0.102,-1.145 0.764,-0.066 -0.067,-0.763 -0.763,0.066 -0.801,-9.158 0.945,-2.39 -0.067,-0.763 -0.797,-0.315 -0.101,-1.146 0.731,-0.448 -0.134,-1.525 0.019,-8.107 1.64,-3.218 7.872,-0.864 0.796,0.314 -2.424,3.293 2.882,5.479 -0.004,2.545 -0.979,2.007 1.346,2.189 0.968,11.066 -0.664,1.212 0.067,0.763 1.626,1.011 0.568,6.487 -0.696,0.831 0.1,1.144 1.145,-0.1 0.448,0.729 0.101,1.145 -0.315,0.797 -1.146,0.1 0.068,0.763 0.83,0.696 0.967,11.067 -0.247,1.559 0.234,2.671 0.481,1.111 0.134,1.526 1.211,0.664 0.056,0.648 c 0.465,-0.21 0.967,-0.353 1.504,-0.4 0.762,-0.066 1.495,0.059 2.155,0.333 v 8.495 C 0.933,-0.156 0.478,-0.043 0,0" style="fill:#c7c7c7;fill-opacity:1;fill-rule:nonzero;stroke:none" /></g></g>
    <g transform="matrix(1,0,0,-1,-397.41833,378.338)"><g transform="translate(500.8259,292.5913)"><path id="path56119" d="m 0,0 1.091,-0.886 0.491,-1.044 0.746,-2.543 0.445,-2.623 0.083,-2.328 -0.108,-1.203 -0.645,-1.738 0.191,-1.124 0.664,-0.215 0.19,-1.125 -0.599,-0.159 0.128,-0.749 0.663,-0.215 -0.536,-0.534 0.128,-0.75 0.598,0.16 0.193,-1.125 -0.536,-0.534 0.255,-1.498 0.898,0.239 0.255,-1.499 -0.707,-1.362 0.572,-3.372 -0.472,-0.909 c 0,0 1.529,-0.28 1.734,-0.431 0.206,-0.151 0.51,-2.531 0.306,-2.997 -0.204,-0.467 -1.226,-1.449 -1.226,-1.449 l 0.396,-2.242 1.218,-1.633 0.937,-3.668 -0.408,-1.284 2.148,-1.898 4.649,-15.704 -0.306,-4.598 -2.567,-4.56 1.083,-6.37 0.764,-4.496 10.602,-4.491 -0.92,-2.681 H -1.055 v 1.148 l 0.919,1.916 2.607,1.639 -1.687,8.319 H 0.477 v 3.448 l -3.012,0.766 -3.045,6.512 -0.684,15.8 0.919,2.203 0.118,0.85 -0.997,4.11 -0.499,2.113 -0.517,2.623 c 0,0 -0.77,0.263 -1.326,0.431 -0.555,0.167 -0.975,2.513 -0.51,2.997 0.467,0.483 1.072,1.068 1.072,1.068 l -0.726,0.589 0.492,2.623 -2.136,3.348 -2.477,8.244 0.157,2.247 0.708,1.363 -0.492,1.044 -2.289,13.464 h 14.219 z" style="fill:#c7c7c7;fill-opacity:1;fill-rule:nonzero;stroke:none" /></g></g>
    <g transform="matrix(1,0,0,-1,-397.41833,378.338)"><g transform="translate(449.6224,292.5913)"><path id="path56123" d="m 0,0 -1.091,-0.886 -0.491,-1.044 -0.745,-2.543 -0.446,-2.623 -0.083,-2.328 0.108,-1.203 0.645,-1.738 -0.191,-1.124 -0.663,-0.215 -0.191,-1.125 0.599,-0.159 -0.127,-0.749 -0.663,-0.215 0.535,-0.534 -0.128,-0.75 -0.598,0.16 -0.192,-1.125 0.535,-0.534 -0.255,-1.498 -0.898,0.239 -0.255,-1.499 0.708,-1.362 -0.573,-3.372 0.472,-0.909 c 0,0 -1.529,-0.28 -1.734,-0.431 -0.206,-0.151 -0.51,-2.531 -0.306,-2.997 0.204,-0.467 1.225,-1.449 1.225,-1.449 l -0.396,-2.242 -1.218,-1.633 -0.936,-3.668 0.409,-1.284 -2.149,-1.898 -4.649,-15.704 0.307,-4.598 2.566,-4.56 -1.083,-6.37 -0.764,-4.496 -10.602,-4.491 0.92,-2.681 H 1.056 v 1.148 l -0.92,1.916 -2.606,1.639 1.687,8.319 h 0.306 v 3.448 l 3.012,0.766 3.045,6.512 0.684,15.8 -0.919,2.203 -0.118,0.85 0.997,4.11 0.5,2.113 0.515,2.623 c 0,0 0.771,0.263 1.327,0.431 0.555,0.167 0.976,2.513 0.51,2.997 -0.467,0.483 -1.072,1.068 -1.072,1.068 l 0.726,0.589 -0.492,2.623 2.136,3.348 2.478,8.244 -0.157,2.247 -0.709,1.363 0.492,1.044 2.289,13.464 H 0.548 Z" style="fill:#c7c7c7;fill-opacity:1;fill-rule:nonzero;stroke:none" /></g></g>
    <g transform="matrix(1,0,0,-1,-397.41833,378.338)"><g transform="translate(464.012,325.2567)"><path id="path56127" d="m 0,0 v 29.82 h -2.298 l -0.766,1.15 h -5.363 l -0.766,-1.15 h -1.148 v -0.767 h -1.533 l -0.383,0.767 h -1.915 l -0.767,-0.384 -0.766,0.384 h -1.914 l -3.065,-1.15 -0.383,-3.83 -1.532,-0.383 v -9.193 l 1.915,-0.766 V 12.583 L -21.067,12.2 V 9.137 l 0.383,-0.383 0.383,-3.064 h 1.15 l 0.382,-1.151 h 2.682 l 0.766,1.151 h 0.766 l 2.681,-1.917 h 0.766 l 0.383,-1.149 h 1.15 V 0.326 h -1.15 l 0.766,-0.766 h 0.384 v -0.767 h -0.384 v -0.766 h 0.384 v -0.766 h -0.384 l -0.766,-0.766 h 1.15 l 1.148,-3.447 1.15,-0.766 v -2.298 l -0.766,-0.383 v -1.148 l 0.766,-0.766 v -2.3 l 0.766,-0.766 h 0.766 v -1.532 h -0.766 l -0.766,-0.766 -8.044,-1.916 -0.384,-0.765 v -3.831 l -0.382,-0.383 v -0.766 l -0.765,-0.383 v -0.383 l 0.765,-0.383 0.382,-0.766 -0.382,-2.298 H 2.299 v 13.348 z" style="fill:#c7c7c7;fill-opacity:1;fill-rule:nonzero;stroke:none" /></g></g>
    <g transform="matrix(1,0,0,-1,-397.41833,378.338)"><g transform="translate(484.7488,365.3532)"><path id="path56131" d="M 0,0 0.472,0.715 -0.101,1.711 -0.957,1.659 -1.746,1.203 c -1.33,2.364 -2.191,4.121 -4.293,4.811 l -1.148,3.741 h -3.959 l -1.023,-3.831 c -2.023,-0.753 -3.073,-2.51 -4.353,-4.831 l -0.981,0.566 -0.855,0.052 -0.575,-0.996 0.473,-0.715 1.117,-0.644 c -0.848,-2.116 -1.337,-4.584 -1.337,-7.221 0,-7.828 4.288,-11.107 9.576,-11.107 5.29,0 9.576,3.279 9.576,11.107 0,2.688 -0.505,5.199 -1.382,7.34 z" style="fill:#c7c7c7;fill-opacity:1;fill-rule:nonzero;stroke:none" /></g></g>
    <g transform="matrix(1,0,0,-1,-397.41833,378.338)"><g transform="translate(488.2144,325.3689)"><path id="path56135" d="m 0,0 -2.299,-16.203 -0.016,-13.348 v -0.766 h -1.516 v -0.766 h 1.132 v -1.149 h -1.132 v -0.766 h 0.766 v -1.149 h -0.766 v -0.766 h 0.766 v -1.149 l -2.681,-4.597 h -12.258 l -2.681,4.597 v 1.149 h 0.766 v 0.766 h -0.766 v 1.149 h 0.766 v 0.766 h -1.148 v 1.149 h 1.148 v 0.766 h -1.532 v 0.766 13.348 L -23.75,0 v 33.332 l 1.917,1.851 H -1.915 L 0,33.332 Z" style="fill:#c7c7c7;fill-opacity:1;fill-rule:nonzero;stroke:none" /></g></g>
    <g transform="matrix(1,0,0,-1,-397.41833,378.338)"><g transform="translate(484.5847,327.8743)"><path class="structure unitLocation" id="paperdoll-art-structure-CT-isCT" loc="CT" d="m 0,0 -2.299,-16.203 -0.017,-13.348 v -0.766 h -1.515 v -0.766 h 1.132 v -1.149 h -1.132 v -0.766 h 0.766 v -1.15 h -0.766 v -0.766 h 0.766 v -1.148 l -2.681,-4.597 h -12.258 l -2.681,4.597 v 1.148 h 0.766 v 0.766 h -0.766 v 1.15 h 0.766 v 0.766 h -1.148 v 1.149 h 1.148 v 0.766 h -1.532 v 0.766 13.348 L -23.75,0 v 33.332 l 1.917,1.851 H -1.915 L 0,33.332 Z" style="fill:#ffffff;fill-opacity:1;fill-rule:nonzero;stroke:none" /></g></g>
    <g transform="matrix(1,0,0,-1,-397.41833,378.338)"><g transform="translate(484.5847,327.8743)"><path id="path56537" d="m 0,0 -2.299,-16.203 -0.017,-13.348 v -0.766 h -1.515 v -0.766 h 1.132 v -1.149 h -1.132 v -0.766 h 0.766 v -1.15 h -0.766 v -0.766 h 0.766 v -1.148 l -2.681,-4.597 h -12.258 l -2.681,4.597 v 1.148 h 0.766 v 0.766 h -0.766 v 1.15 h 0.766 v 0.766 h -1.148 v 1.149 h 1.148 v 0.766 h -1.532 v 0.766 13.348 L -23.75,0 v 33.332 l 1.917,1.851 H -1.915 L 0,33.332 Z" style="fill:none;stroke:#000000;stroke-width:1.449;stroke-linecap:butt;stroke-linejoin:miter;stroke-miterlimit:4;stroke-dasharray:none;stroke-opacity:1" /></g></g>
    <g transform="matrix(1,0,0,-1,-397.41833,378.338)"><g transform="translate(507.3807,343.1392)"><path class="structure unitLocation" id="paperdoll-art-structure-RT-isRT" loc="RT" d="m 0,0 v 9.194 l -1.532,0.382 -0.382,3.83 -3.065,1.149 h -1.916 l -0.766,-0.383 -0.766,0.383 h -1.915 l -0.383,-0.767 h -1.532 v 0.767 h -1.15 l -0.766,1.15 h -5.362 l -0.766,-1.15 h -2.297 v -29.82 l -2.299,-16.203 -0.018,-13.348 h 18.404 l -0.384,2.299 0.384,0.765 0.766,0.383 v 0.383 l -0.766,0.384 v 0.766 l -0.384,0.382 v 3.831 l -0.382,0.765 -8.044,1.916 -0.766,0.767 h -0.766 v 1.532 h 0.766 l 0.766,0.765 v 2.299 l 0.766,0.766 v 1.15 l -0.766,0.382 v 2.298 l 1.148,0.766 1.15,3.447 h 1.148 l -0.766,0.766 h -0.382 v 0.766 h 0.382 v 0.766 h -0.382 v 0.767 h 0.382 l 0.766,0.766 h -1.148 v 2.299 h 1.148 l 0.385,1.149 h 0.765 l 2.682,1.916 h 0.766 l 0.766,-1.15 h 2.68 l 0.384,1.15 h 1.149 l 0.384,3.064 0.382,0.382 v 3.064 l -0.382,0.384 v 1.915 z" style="fill:#ffffff;fill-opacity:1;fill-rule:nonzero;stroke:none" /></g></g>
    <g transform="matrix(1,0,0,-1,-397.41833,378.338)"><g transform="translate(507.3807,343.1392)"><path id="path56545" d="m 0,0 v 9.194 l -1.532,0.382 -0.382,3.83 -3.065,1.149 h -1.916 l -0.766,-0.383 -0.766,0.383 h -1.915 l -0.383,-0.767 h -1.532 v 0.767 h -1.15 l -0.766,1.15 h -5.362 l -0.766,-1.15 h -2.297 v -29.82 l -2.299,-16.203 -0.018,-13.348 h 18.404 l -0.384,2.299 0.384,0.765 0.766,0.383 v 0.383 l -0.766,0.384 v 0.766 l -0.384,0.382 v 3.831 l -0.382,0.765 -8.044,1.916 -0.766,0.767 h -0.766 v 1.532 h 0.766 l 0.766,0.765 v 2.299 l 0.766,0.766 v 1.15 l -0.766,0.382 v 2.298 l 1.148,0.766 1.15,3.447 h 1.148 l -0.766,0.766 h -0.382 v 0.766 h 0.382 v 0.766 h -0.382 v 0.767 h 0.382 l 0.766,0.766 h -1.148 v 2.299 h 1.148 l 0.385,1.149 h 0.765 l 2.682,1.916 h 0.766 l 0.766,-1.15 h 2.68 l 0.384,1.15 h 1.149 l 0.384,3.064 0.382,0.382 v 3.064 l -0.382,0.384 v 1.915 z" style="fill:none;stroke:#000000;stroke-width:1.449;stroke-linecap:butt;stroke-linejoin:miter;stroke-miterlimit:4;stroke-dasharray:none;stroke-opacity:1" /></g></g>
    <g transform="matrix(1,0,0,-1,-397.41833,378.338)"><g transform="translate(508.1749,352.237)"><path class="structure unitLocation" id="paperdoll-art-structure-RA-isRA" loc="RA" d="m 0,0 c 0.537,0.045 1.058,-0.007 1.549,-0.133 l -0.056,0.647 0.698,0.83 0.041,3.91 0.697,0.829 8.839,0.773 4.016,-1.956 0.172,-1.968 0.862,-1.077 0.101,-1.145 -0.663,-1.212 0.134,-1.526 1.559,-0.248 -0.477,-7.732 -0.382,-0.034 0.134,-1.525 0.382,0.033 -0.081,-3.468 0.267,-3.052 0.83,-0.696 0.1,-1.146 -0.663,-1.211 0.501,-5.724 -0.697,-0.831 0.066,-0.762 1.146,0.101 0.448,-0.73 0.099,-1.145 -0.313,-0.797 -1.145,-0.1 0.099,-1.145 0.831,-0.697 0.201,-2.289 1.626,-1.011 -1.226,-3.568 -0.697,-0.829 0.101,-1.145 -0.763,-0.066 0.066,-0.763 0.764,0.066 0.801,-9.158 -0.945,-2.39 0.066,-0.763 0.797,-0.315 0.102,-1.145 -0.731,-0.449 0.134,-1.525 -0.019,-8.107 -1.641,-3.218 -7.871,-0.864 -0.796,0.314 2.423,3.294 -2.881,5.478 0.004,2.545 0.979,2.007 -1.346,2.189 -0.969,11.066 0.664,1.212 -0.067,0.763 -1.626,1.011 -0.568,6.488 0.697,0.83 -0.1,1.145 -1.145,-0.101 -0.448,0.729 -0.101,1.145 0.315,0.797 1.145,0.1 -0.068,0.763 -0.829,0.696 -0.968,11.067 0.247,1.559 -0.233,2.672 -0.481,1.11 -0.134,1.526 -1.212,0.664 -0.056,0.648 C 1.841,-8.969 1.338,-9.112 0.802,-9.159 0.04,-9.225 -0.694,-9.1 -1.353,-8.826 v 8.495 C -0.932,-0.156 -0.477,-0.043 0,0" style="fill:#ffffff;fill-opacity:1;fill-rule:nonzero;stroke:none" /></g></g>
    <g transform="matrix(1,0,0,-1,-397.41833,378.338)"><g transform="translate(508.1749,352.237)"><path id="path56561" d="m 0,0 c 0.537,0.045 1.058,-0.007 1.549,-0.133 l -0.056,0.647 0.698,0.83 0.041,3.91 0.697,0.829 8.839,0.773 4.016,-1.956 0.172,-1.968 0.862,-1.077 0.101,-1.145 -0.663,-1.212 0.134,-1.526 1.559,-0.248 -0.477,-7.732 -0.382,-0.034 0.134,-1.525 0.382,0.033 -0.081,-3.468 0.267,-3.052 0.83,-0.696 0.1,-1.146 -0.663,-1.211 0.501,-5.724 -0.697,-0.831 0.066,-0.762 1.146,0.101 0.448,-0.73 0.099,-1.145 -0.313,-0.797 -1.145,-0.1 0.099,-1.145 0.831,-0.697 0.201,-2.289 1.626,-1.011 -1.226,-3.568 -0.697,-0.829 0.101,-1.145 -0.763,-0.066 0.066,-0.763 0.764,0.066 0.801,-9.158 -0.945,-2.39 0.066,-0.763 0.797,-0.315 0.102,-1.145 -0.731,-0.449 0.134,-1.525 -0.019,-8.107 -1.641,-3.218 -7.871,-0.864 -0.796,0.314 2.423,3.294 -2.881,5.478 0.004,2.545 0.979,2.007 -1.346,2.189 -0.969,11.066 0.664,1.212 -0.067,0.763 -1.626,1.011 -0.568,6.488 0.697,0.83 -0.1,1.145 -1.145,-0.101 -0.448,0.729 -0.101,1.145 0.315,0.797 1.145,0.1 -0.068,0.763 -0.829,0.696 -0.968,11.067 0.247,1.559 -0.233,2.672 -0.481,1.11 -0.134,1.526 -1.212,0.664 -0.056,0.648 C 1.841,-8.969 1.338,-9.112 0.802,-9.159 0.04,-9.225 -0.694,-9.1 -1.353,-8.826 v 8.495 C -0.932,-0.156 -0.477,-0.043 0,0 Z" style="fill:none;stroke:#000000;stroke-width:1.449;stroke-linecap:butt;stroke-linejoin:miter;stroke-miterlimit:4;stroke-dasharray:none;stroke-opacity:1" /></g></g>
    <g transform="matrix(1,0,0,-1,-397.41833,378.338)"><g transform="translate(436.5779,352.237)"><path class="structure unitLocation" id="paperdoll-art-structure-LA-isLA" loc="LA" d="m 0,0 c -0.536,0.045 -1.057,-0.007 -1.548,-0.133 l 0.055,0.647 -0.697,0.83 -0.041,3.91 -0.697,0.829 -8.839,0.773 -4.017,-1.956 -0.171,-1.968 -0.863,-1.077 -0.101,-1.145 0.664,-1.212 -0.135,-1.526 -1.559,-0.248 0.478,-7.732 0.381,-0.034 -0.133,-1.525 -0.383,0.033 0.082,-3.468 -0.267,-3.052 -0.83,-0.696 -0.1,-1.146 0.663,-1.211 -0.501,-5.724 0.697,-0.831 -0.067,-0.762 -1.145,0.101 -0.448,-0.73 -0.1,-1.145 0.314,-0.797 1.145,-0.1 -0.099,-1.145 -0.831,-0.697 -0.201,-2.289 -1.626,-1.011 1.225,-3.568 0.698,-0.829 -0.101,-1.145 0.764,-0.066 -0.068,-0.763 -0.763,0.066 -0.801,-9.158 0.945,-2.39 -0.067,-0.763 -0.797,-0.315 -0.1,-1.145 0.731,-0.449 -0.135,-1.525 0.019,-8.107 1.641,-3.218 7.871,-0.864 0.796,0.314 -2.424,3.294 2.882,5.478 -0.004,2.545 -0.979,2.007 1.346,2.189 0.968,11.066 -0.664,1.212 0.068,0.763 1.625,1.011 0.568,6.488 -0.696,0.83 0.1,1.145 1.145,-0.101 0.448,0.729 0.101,1.145 -0.314,0.797 -1.147,0.1 0.068,0.763 0.83,0.696 0.967,11.067 -0.247,1.559 0.234,2.672 0.481,1.11 0.134,1.526 1.211,0.664 0.056,0.648 c 0.465,-0.21 0.967,-0.353 1.504,-0.4 0.762,-0.066 1.495,0.059 2.155,0.333 v 8.495 C 0.933,-0.156 0.478,-0.043 0,0" style="fill:#ffffff;fill-opacity:1;fill-rule:nonzero;stroke:none" /></g></g>
    <g transform="matrix(1,0,0,-1,-397.41833,378.338)"><g transform="translate(436.5779,352.237)"><path id="path56569" d="m 0,0 c -0.536,0.045 -1.057,-0.007 -1.548,-0.133 l 0.055,0.647 -0.697,0.83 -0.041,3.91 -0.697,0.829 -8.839,0.773 -4.017,-1.956 -0.171,-1.968 -0.863,-1.077 -0.101,-1.145 0.664,-1.212 -0.135,-1.526 -1.559,-0.248 0.478,-7.732 0.381,-0.034 -0.133,-1.525 -0.383,0.033 0.082,-3.468 -0.267,-3.052 -0.83,-0.696 -0.1,-1.146 0.663,-1.211 -0.501,-5.724 0.697,-0.831 -0.067,-0.762 -1.145,0.101 -0.448,-0.73 -0.1,-1.145 0.314,-0.797 1.145,-0.1 -0.099,-1.145 -0.831,-0.697 -0.201,-2.289 -1.626,-1.011 1.225,-3.568 0.698,-0.829 -0.101,-1.145 0.764,-0.066 -0.068,-0.763 -0.763,0.066 -0.801,-9.158 0.945,-2.39 -0.067,-0.763 -0.797,-0.315 -0.1,-1.145 0.731,-0.449 -0.135,-1.525 0.019,-8.107 1.641,-3.218 7.871,-0.864 0.796,0.314 -2.424,3.294 2.882,5.478 -0.004,2.545 -0.979,2.007 1.346,2.189 0.968,11.066 -0.664,1.212 0.068,0.763 1.625,1.011 0.568,6.488 -0.696,0.83 0.1,1.145 1.145,-0.101 0.448,0.729 0.101,1.145 -0.314,0.797 -1.147,0.1 0.068,0.763 0.83,0.696 0.967,11.067 -0.247,1.559 0.234,2.672 0.481,1.11 0.134,1.526 1.211,0.664 0.056,0.648 c 0.465,-0.21 0.967,-0.353 1.504,-0.4 0.762,-0.066 1.495,0.059 2.155,0.333 v 8.495 C 0.933,-0.156 0.478,-0.043 0,0 Z" style="fill:none;stroke:#000000;stroke-width:1.449;stroke-linecap:butt;stroke-linejoin:miter;stroke-miterlimit:4;stroke-dasharray:none;stroke-opacity:1" /></g></g>
    <g transform="matrix(1,0,0,-1,-397.41833,378.338)"><g transform="translate(481.5096,367.8586)"><path class="structure unitLocation" id="paperdoll-art-structure-HD-isHD" loc="HD" d="M 0,0 0.472,0.715 -0.101,1.711 -0.957,1.659 -1.746,1.203 c -1.331,2.364 -2.191,4.121 -4.293,4.811 l -1.148,3.741 h -3.959 l -1.023,-3.831 c -2.023,-0.753 -3.073,-2.51 -4.353,-4.831 l -0.981,0.566 -0.855,0.052 -0.575,-0.996 0.473,-0.715 1.117,-0.644 c -0.848,-2.116 -1.337,-4.584 -1.337,-7.222 0,-7.827 4.288,-11.107 9.576,-11.107 5.29,0 9.576,3.28 9.576,11.107 0,2.689 -0.505,5.2 -1.382,7.341 z" style="fill:#ffffff;fill-opacity:1;fill-rule:nonzero;stroke:none" /></g></g>
    <g transform="matrix(1,0,0,-1,-397.41833,378.338)"><g transform="translate(481.5096,367.8586)"><path id="path56577" d="M 0,0 0.472,0.715 -0.101,1.711 -0.957,1.659 -1.746,1.203 c -1.331,2.364 -2.191,4.121 -4.293,4.811 l -1.148,3.741 h -3.959 l -1.023,-3.831 c -2.023,-0.753 -3.073,-2.51 -4.353,-4.831 l -0.981,0.566 -0.855,0.052 -0.575,-0.996 0.473,-0.715 1.117,-0.644 c -0.848,-2.116 -1.337,-4.584 -1.337,-7.222 0,-7.827 4.288,-11.107 9.576,-11.107 5.29,0 9.576,3.28 9.576,11.107 0,2.689 -0.505,5.2 -1.382,7.341 z" style="fill:none;stroke:#000000;stroke-width:1.449;stroke-linecap:butt;stroke-linejoin:miter;stroke-miterlimit:4;stroke-dasharray:none;stroke-opacity:1" /></g></g>
    <g transform="matrix(1,0,0,-1,-397.41833,378.338)"><g transform="translate(497.898,295.0965)"><path class="structure unitLocation" id="paperdoll-art-structure-RL-isRL" loc="RL" d="m 0,0 1.091,-0.886 0.491,-1.044 0.746,-2.543 0.445,-2.623 0.083,-2.328 -0.108,-1.203 -0.645,-1.738 0.191,-1.124 0.663,-0.215 0.191,-1.125 -0.599,-0.159 0.127,-0.749 0.664,-0.215 -0.536,-0.534 0.128,-0.75 0.598,0.16 0.192,-1.125 -0.535,-0.534 0.255,-1.498 0.898,0.239 0.255,-1.499 -0.708,-1.362 0.573,-3.372 -0.472,-0.909 c 0,0 1.529,-0.28 1.734,-0.431 0.206,-0.151 0.51,-2.531 0.306,-2.997 -0.204,-0.467 -1.226,-1.449 -1.226,-1.449 l 0.397,-2.242 1.218,-1.633 0.936,-3.668 -0.408,-1.284 2.148,-1.898 4.649,-15.704 -0.306,-4.598 -2.567,-4.56 1.083,-6.37 0.764,-4.496 10.602,-4.491 -0.92,-2.681 H -1.055 v 1.148 l 0.919,1.916 2.607,1.64 -1.688,8.318 H 0.477 v 3.448 l -3.012,0.767 -3.045,6.511 -0.684,15.8 0.919,2.204 0.118,0.849 -0.997,4.11 -0.499,2.113 -0.517,2.623 c 0,0 -0.77,0.263 -1.326,0.431 -0.555,0.167 -0.975,2.513 -0.51,2.997 0.467,0.483 1.072,1.068 1.072,1.068 l -0.726,0.589 0.492,2.623 -2.136,3.349 -2.477,8.243 0.156,2.247 0.709,1.363 -0.492,1.044 -2.289,13.464 h 14.219 z" style="fill:#ffffff;fill-opacity:1;fill-rule:nonzero;stroke:none" /></g></g>
    <g transform="matrix(1,0,0,-1,-397.41833,378.338)"><g transform="translate(497.898,295.0965)"><path id="path56585" d="m 0,0 1.091,-0.886 0.491,-1.044 0.746,-2.543 0.445,-2.623 0.083,-2.328 -0.108,-1.203 -0.645,-1.738 0.191,-1.124 0.663,-0.215 0.191,-1.125 -0.599,-0.159 0.127,-0.749 0.664,-0.215 -0.536,-0.534 0.128,-0.75 0.598,0.16 0.192,-1.125 -0.535,-0.534 0.255,-1.498 0.898,0.239 0.255,-1.499 -0.708,-1.362 0.573,-3.372 -0.472,-0.909 c 0,0 1.529,-0.28 1.734,-0.431 0.206,-0.151 0.51,-2.531 0.306,-2.997 -0.204,-0.467 -1.226,-1.449 -1.226,-1.449 l 0.397,-2.242 1.218,-1.633 0.936,-3.668 -0.408,-1.284 2.148,-1.898 4.649,-15.704 -0.306,-4.598 -2.567,-4.56 1.083,-6.37 0.764,-4.496 10.602,-4.491 -0.92,-2.681 H -1.055 v 1.148 l 0.919,1.916 2.607,1.64 -1.688,8.318 H 0.477 v 3.448 l -3.012,0.767 -3.045,6.511 -0.684,15.8 0.919,2.204 0.118,0.849 -0.997,4.11 -0.499,2.113 -0.517,2.623 c 0,0 -0.77,0.263 -1.326,0.431 -0.555,0.167 -0.975,2.513 -0.51,2.997 0.467,0.483 1.072,1.068 1.072,1.068 l -0.726,0.589 0.492,2.623 -2.136,3.349 -2.477,8.243 0.156,2.247 0.709,1.363 -0.492,1.044 -2.289,13.464 h 14.219 z" style="fill:none;stroke:#000000;stroke-width:1.449;stroke-linecap:butt;stroke-linejoin:miter;stroke-miterlimit:4;stroke-dasharray:none;stroke-opacity:1" /></g></g>
    <g transform="matrix(1,0,0,-1,-397.41833,378.338)"><g transform="translate(446.6945,295.0965)"><path class="structure unitLocation" id="paperdoll-art-structure-LL-isLL" loc="LL" d="m 0,0 -1.091,-0.886 -0.491,-1.044 -0.745,-2.543 -0.446,-2.623 -0.083,-2.328 0.108,-1.203 0.645,-1.738 -0.191,-1.124 -0.664,-0.215 -0.19,-1.125 0.599,-0.159 -0.128,-0.749 -0.662,-0.215 0.535,-0.534 -0.128,-0.75 -0.598,0.16 -0.193,-1.125 0.536,-0.534 -0.255,-1.498 -0.898,0.239 -0.255,-1.499 0.707,-1.362 -0.572,-3.372 0.472,-0.909 c 0,0 -1.529,-0.28 -1.734,-0.431 -0.206,-0.151 -0.51,-2.531 -0.306,-2.997 0.204,-0.467 1.225,-1.449 1.225,-1.449 l -0.396,-2.242 -1.218,-1.633 -0.936,-3.668 0.409,-1.284 -2.149,-1.898 -4.649,-15.704 0.307,-4.598 2.566,-4.56 -1.083,-6.37 -0.764,-4.496 -10.602,-4.491 0.92,-2.681 H 1.056 v 1.148 l -0.92,1.916 -2.606,1.64 1.686,8.318 h 0.307 v 3.448 l 3.012,0.767 3.045,6.511 0.684,15.8 -0.919,2.204 -0.118,0.849 0.997,4.11 0.5,2.113 0.516,2.623 c 0,0 0.77,0.263 1.326,0.431 0.555,0.167 0.976,2.513 0.51,2.997 -0.467,0.483 -1.072,1.068 -1.072,1.068 l 0.726,0.589 -0.492,2.623 2.136,3.349 2.478,8.243 -0.158,2.247 -0.708,1.363 0.492,1.044 2.289,13.464 H 0.548 Z" style="fill:#ffffff;fill-opacity:1;fill-rule:nonzero;stroke:none" /></g></g>
    <g transform="matrix(1,0,0,-1,-397.41833,378.338)"><g transform="translate(446.6945,295.0965)"><path id="path56593" d="m 0,0 -1.091,-0.886 -0.491,-1.044 -0.745,-2.543 -0.446,-2.623 -0.083,-2.328 0.108,-1.203 0.645,-1.738 -0.191,-1.124 -0.664,-0.215 -0.19,-1.125 0.599,-0.159 -0.128,-0.749 -0.662,-0.215 0.535,-0.534 -0.128,-0.75 -0.598,0.16 -0.193,-1.125 0.536,-0.534 -0.255,-1.498 -0.898,0.239 -0.255,-1.499 0.707,-1.362 -0.572,-3.372 0.472,-0.909 c 0,0 -1.529,-0.28 -1.734,-0.431 -0.206,-0.151 -0.51,-2.531 -0.306,-2.997 0.204,-0.467 1.225,-1.449 1.225,-1.449 l -0.396,-2.242 -1.218,-1.633 -0.936,-3.668 0.409,-1.284 -2.149,-1.898 -4.649,-15.704 0.307,-4.598 2.566,-4.56 -1.083,-6.37 -0.764,-4.496 -10.602,-4.491 0.92,-2.681 H 1.056 v 1.148 l -0.92,1.916 -2.606,1.64 1.686,8.318 h 0.307 v 3.448 l 3.012,0.767 3.045,6.511 0.684,15.8 -0.919,2.204 -0.118,0.849 0.997,4.11 0.5,2.113 0.516,2.623 c 0,0 0.77,0.263 1.326,0.431 0.555,0.167 0.976,2.513 0.51,2.997 -0.467,0.483 -1.072,1.068 -1.072,1.068 l 0.726,0.589 -0.492,2.623 2.136,3.349 2.478,8.243 -0.158,2.247 -0.708,1.363 0.492,1.044 2.289,13.464 H 0.548 Z" style="fill:none;stroke:#000000;stroke-width:1.449;stroke-linecap:butt;stroke-linejoin:miter;stroke-miterlimit:4;stroke-dasharray:none;stroke-opacity:1" /></g></g>
    <g transform="matrix(1,0,0,-1,-397.41833,378.338)"><g transform="translate(460.5314,327.8743)"><path class="structure unitLocation" id="paperdoll-art-structure-LT-isLT" loc="LT" d="m 0,0 v 29.82 h -2.298 l -0.766,1.15 h -5.363 l -0.766,-1.15 h -1.148 v -0.766 h -1.533 l -0.382,0.766 h -1.916 l -0.767,-0.383 -0.766,0.383 h -1.914 l -3.065,-1.149 -0.383,-3.83 -1.531,-0.383 v -9.193 l 1.914,-0.766 V 12.583 L -21.067,12.2 V 9.137 l 0.383,-0.383 0.383,-3.064 h 1.15 l 0.382,-1.15 h 2.682 l 0.766,1.15 h 0.766 l 2.681,-1.916 h 0.766 l 0.383,-1.149 h 1.15 V 0.326 h -1.15 l 0.766,-0.765 h 0.384 v -0.767 h -0.384 v -0.766 h 0.384 v -0.766 h -0.384 l -0.766,-0.766 h 1.15 l 1.148,-3.448 1.15,-0.766 v -2.298 l -0.766,-0.383 v -1.148 l 0.766,-0.766 v -2.299 l 0.766,-0.766 h 0.766 v -1.533 h -0.766 l -0.766,-0.766 -8.044,-1.916 -0.384,-0.765 v -3.83 l -0.382,-0.384 v -0.766 l -0.765,-0.383 v -0.383 l 0.765,-0.383 0.382,-0.765 -0.382,-2.299 H 2.299 v 13.348 z" style="fill:#ffffff;fill-opacity:1;fill-rule:nonzero;stroke:none" /></g></g>
    <g transform="matrix(1,0,0,-1,-397.41833,378.338)"><g transform="translate(460.5314,327.8743)"><path id="path332" d="m 0,0 v 29.82 h -2.298 l -0.766,1.15 h -5.363 l -0.766,-1.15 h -1.148 v -0.766 h -1.533 l -0.382,0.766 h -1.916 l -0.767,-0.383 -0.766,0.383 h -1.914 l -3.065,-1.149 -0.383,-3.83 -1.531,-0.383 v -9.193 l 1.914,-0.766 V 12.583 L -21.067,12.2 V 9.137 l 0.383,-0.383 0.383,-3.064 h 1.15 l 0.382,-1.15 h 2.682 l 0.766,1.15 h 0.766 l 2.681,-1.916 h 0.766 l 0.383,-1.149 h 1.15 V 0.326 h -1.15 l 0.766,-0.765 h 0.384 v -0.767 h -0.384 v -0.766 h 0.384 v -0.766 h -0.384 l -0.766,-0.766 h 1.15 l 1.148,-3.448 1.15,-0.766 v -2.298 l -0.766,-0.383 v -1.148 l 0.766,-0.766 v -2.299 l 0.766,-0.766 h 0.766 v -1.533 h -0.766 l -0.766,-0.766 -8.044,-1.916 -0.384,-0.765 v -3.83 l -0.382,-0.384 v -0.766 l -0.765,-0.383 v -0.383 l 0.765,-0.383 0.382,-0.765 -0.382,-2.299 H 2.299 v 13.348 z" style="fill:none;stroke:#000000;stroke-width:1.449;stroke-linecap:butt;stroke-linejoin:miter;stroke-miterlimit:4;stroke-dasharray:none;stroke-opacity:1" /></g></g>
    <rect fill="none" height="28.728" id="placeholder-canon-structure-HD" stroke="#e11d48" stroke-dasharray="3 1.5" stroke-opacity="0.9" stroke-width="1.25" width="19.405" x="65.158" y="0.724" />
    <rect fill="none" height="75.842" id="placeholder-canon-structure-CT" stroke="#e11d48" stroke-dasharray="3 1.5" stroke-opacity="0.9" stroke-width="1.25" width="23.75" x="63.416" y="15.281" />
    <rect fill="none" height="60.521" id="placeholder-canon-structure-LT" stroke="#e11d48" stroke-dasharray="3 1.5" stroke-opacity="0.9" stroke-width="1.25" width="24.897" x="40.515" y="19.494" />
    <rect fill="none" height="60.521" id="placeholder-canon-structure-RT" stroke="#e11d48" stroke-dasharray="3 1.5" stroke-opacity="0.9" stroke-width="1.25" width="24.915" x="85.047" y="19.494" />
    <rect fill="none" height="77.332" id="placeholder-canon-structure-LA" stroke="#e11d48" stroke-dasharray="3 1.5" stroke-opacity="0.9" stroke-width="1.25" width="22.274" x="18.24" y="19.245" />
    <rect fill="none" height="77.332" id="placeholder-canon-structure-RA" stroke="#e11d48" stroke-dasharray="3 1.5" stroke-opacity="0.9" stroke-width="1.25" width="22.274" x="109.404" y="19.245" />
    <rect fill="none" height="88.865" id="placeholder-canon-structure-LL" stroke="#e11d48" stroke-dasharray="3 1.5" stroke-opacity="0.9" stroke-width="1.25" width="38.085" x="25.958" y="80.015" />
    <rect fill="none" height="88.865" id="placeholder-canon-structure-RL" stroke="#e11d48" stroke-dasharray="3 1.5" stroke-opacity="0.9" stroke-width="1.25" width="38.085" x="85.713" y="80.015" />
    </g>
</svg>
