<?xml version="1.0" encoding="UTF-8"?>
<!-- Editable MekBay dropship-aerodyne armor paperdoll. Pink dashed rectangles mark pip areas and are removed at runtime. -->
<svg xmlns="http://www.w3.org/2000/svg" viewBox="15.032 42.047 288.116 409.992" role="img" aria-label="dropship-aerodyne armor paperdoll">
    <g id="paperdoll-art-armor">
    <g transform="matrix(1,0,0,-1,-261.73197,727.06296)"><g transform="translate(548.3167,403.4123)"><path id="path2396" d="m 0,0 -30.77,52.362 v 117.223 c 0,8.643 -4.571,15.648 -10.213,15.648 h -0.85 c -1.297,0 -6.487,64.553 -12.765,81.767 -2.91,7.99 -32.006,11.343 -63.111,11.353 -2.564,10e-4 -15.46,0 -15.46,0 -31.105,-0.01 -60.205,-3.363 -63.117,-11.353 -6.276,-17.214 -11.467,-81.767 -12.765,-81.767 h -0.85 c -5.637,0 -10.21,-7.005 -10.21,-15.648 V 52.362 L -250.879,0 l -16.567,-104.718 49.452,4.557 c 5.204,-3.447 12.924,-5.634 21.548,-5.634 9.892,0 18.584,2.88 23.668,7.238 v -29.832 h 9.469 l 9.157,20.985 v 14.354 h 57.426 v -14.354 l 9.155,-20.985 h 9.469 v 29.832 c 5.084,-4.358 13.774,-7.238 23.665,-7.238 8.624,0 16.346,2.187 21.555,5.634 l 49.445,-4.557 z" style="fill:#ccced0;fill-opacity:1;fill-rule:nonzero;stroke:none" /></g></g>
    <g transform="matrix(1,0,0,-1,-261.73197,727.06296)"><g transform="translate(544.2098,406.1016)"><path id="path2400" d="m 0,0 -30.771,52.362 v 117.223 c 0,8.642 -4.57,15.648 -10.212,15.648 h -0.85 c -1.297,0 -6.487,64.554 -12.765,81.767 -2.91,7.989 -32.006,11.342 -63.111,11.353 -2.565,10e-4 -15.46,0 -15.46,0 -31.105,-0.011 -60.205,-3.364 -63.117,-11.353 -6.276,-17.213 -11.467,-81.767 -12.765,-81.767 h -0.85 c -5.638,0 -10.21,-7.006 -10.21,-15.648 V 52.362 L -250.879,0 l -16.567,-104.718 49.451,4.557 c 5.205,-3.447 12.925,-5.634 21.549,-5.634 9.892,0 18.584,2.88 23.668,7.238 v -29.832 h 9.469 l 9.157,20.985 v 14.354 h 57.426 v -14.354 l 9.155,-20.985 h 9.469 v 29.832 c 5.084,-4.358 13.774,-7.238 23.665,-7.238 8.624,0 16.345,2.187 21.555,5.634 l 49.444,-4.557 z" style="fill:#ffffff;fill-opacity:1;fill-rule:nonzero;stroke:none" /></g></g>
    <g transform="matrix(1,0,0,-1,-261.73197,727.06296)"><g transform="translate(554.9207,333.815)"><path id="path2404" d="M 0,0 H -45.134 V 38.958 H -6.165 Z" style="fill:#ffffff;fill-opacity:1;fill-rule:nonzero;stroke:none" /></g></g>
    <g transform="matrix(1,0,0,-1,-261.73197,727.06296)"><g transform="translate(554.9207,333.815)"><path id="path2408" d="M 0,0 H -45.134 V 38.958 H -6.165 Z" style="fill:none;stroke:#a7a9ac;stroke-width:0.966;stroke-linecap:butt;stroke-linejoin:miter;stroke-miterlimit:4;stroke-dasharray:none;stroke-opacity:1" /></g></g>
    <g transform="matrix(1,0,0,-1,-261.73197,727.06296)"><g transform="translate(281.8829,332.7104)"><path id="path2412" d="M 0,0 H 45.131 V 40.063 H 6.163 Z" style="fill:#ffffff;fill-opacity:1;fill-rule:nonzero;stroke:none" /></g></g>
    <g transform="matrix(1,0,0,-1,-261.73197,727.06296)"><g transform="translate(281.8829,332.7104)"><path id="path2416" d="M 0,0 H 45.131 V 40.063 H 6.163 Z" style="fill:none;stroke:#a7a9ac;stroke-width:0.966;stroke-linecap:butt;stroke-linejoin:miter;stroke-miterlimit:4;stroke-dasharray:none;stroke-opacity:1" /></g></g>
    <g transform="matrix(1,0,0,-1,-261.73197,727.06296)"><g transform="translate(384.7659,589.3804)"><path id="path2420" d="M 0,0 C 2.109,16.91 16.526,29.998 34.008,29.998 51.492,29.998 65.904,16.91 68.015,0 h 8.634 C 74.498,21.656 56.228,38.569 34.008,38.569 11.787,38.569 -6.482,21.656 -8.634,0 Z" style="fill:#a7a9ac;fill-opacity:1;fill-rule:nonzero;stroke:none" /></g></g>
    <g transform="matrix(1,0,0,-1,-261.73197,727.06296)"><g transform="translate(384.7659,589.3804)"><path id="path2424" d="M 0,0 C 2.109,16.91 16.526,29.998 34.008,29.998 51.492,29.998 65.904,16.91 68.015,0 h 8.634 C 74.498,21.656 56.228,38.569 34.008,38.569 11.787,38.569 -6.482,21.656 -8.634,0 Z" style="fill:none;stroke:#a7a9ac;stroke-width:0.966;stroke-linecap:butt;stroke-linejoin:miter;stroke-miterlimit:4;stroke-dasharray:none;stroke-opacity:1" /></g></g>
    <g transform="matrix(1,0,0,-1,-261.73197,727.06296)"><g transform="translate(418.7737,684.4385)"><path id="path2428" d="m 0,0 c -33.854,0.577 -67.689,-2.64 -70.845,-11.288 -3.123,-8.577 -5.982,-28.907 -8.224,-47.149 h 0.957 l 31.166,38.958 h 93.501 l 31.166,-38.958 h 1.345 c -2.242,18.242 -5.1,38.572 -8.228,47.149 C 67.688,-2.64 33.852,0.577 0,0 Z" style="fill:none;stroke:#a7a9ac;stroke-width:0.966;stroke-linecap:butt;stroke-linejoin:miter;stroke-miterlimit:4;stroke-dasharray:none;stroke-opacity:1" /></g></g>
    <g transform="matrix(1,0,0,-1,-261.73197,727.06296)"><g transform="translate(434.3584,580.226)"><path id="path2432" d="m 0,0 c -2.689,0 -4.872,2.18 -4.872,4.868 0,2.69 2.183,4.871 4.872,4.871 2.688,0 4.867,-2.181 4.867,-4.871 C 4.867,2.18 2.688,0 0,0 m 0,14.608 c -5.381,0 -9.741,-4.361 -9.741,-9.74 0,-5.377 4.36,-9.739 9.741,-9.739 5.378,0 9.738,4.362 9.738,9.739 0,5.379 -4.36,9.74 -9.738,9.74" style="fill:#ffffff;fill-opacity:1;fill-rule:nonzero;stroke:none" /></g></g>
    <g transform="matrix(1,0,0,-1,-261.73197,727.06296)"><g transform="translate(434.3584,580.226)"><path id="path2436" d="m 0,0 c -2.689,0 -4.872,2.18 -4.872,4.868 0,2.69 2.183,4.871 4.872,4.871 2.688,0 4.867,-2.181 4.867,-4.871 C 4.867,2.18 2.688,0 0,0 Z m 0,14.608 c -5.381,0 -9.741,-4.361 -9.741,-9.74 0,-5.377 4.36,-9.739 9.741,-9.739 5.378,0 9.738,4.362 9.738,9.739 0,5.379 -4.36,9.74 -9.738,9.74 z" style="fill:none;stroke:#a7a9ac;stroke-width:0.966;stroke-linecap:butt;stroke-linejoin:miter;stroke-miterlimit:4;stroke-dasharray:none;stroke-opacity:1" /></g></g>
    <g transform="matrix(1,0,0,-1,-261.73197,727.06296)"><g transform="translate(418.7737,439.0019)"><path id="path2440" d="m 0,0 c -17.212,0 -31.168,13.954 -31.168,31.167 0,17.212 13.956,31.166 31.168,31.166 17.211,0 31.168,-13.954 31.168,-31.166 C 31.168,13.954 17.211,0 0,0 m 0,174.143 c 15.491,0 28.051,-12.558 28.051,-28.05 0,-15.491 -12.56,-28.049 -28.051,-28.049 -15.491,0 -28.051,12.558 -28.051,28.049 0,15.492 12.56,28.05 28.051,28.05 M 37.009,18.999 c 1.258,3.831 1.947,7.917 1.947,12.168 0,8.77 -2.899,16.864 -7.788,23.375 v 93.11 H 31.126 C 30.315,164.141 16.687,177.261 0,177.261 c -16.69,0 -30.316,-13.12 -31.128,-29.609 h -0.04 v -93.11 c -4.892,-6.511 -7.791,-14.605 -7.791,-23.375 0,-4.251 0.691,-8.336 1.949,-12.167 v -59.175 h 7.789 v -85.708 h 58.439 v 85.708 h 7.791 z" style="fill:#ffffff;fill-opacity:1;fill-rule:nonzero;stroke:none" /></g></g>
    <g transform="matrix(1,0,0,-1,-261.73197,727.06296)"><g transform="translate(418.7737,439.0019)"><path id="path2444" d="m 0,0 c -17.212,0 -31.168,13.954 -31.168,31.167 0,17.212 13.956,31.166 31.168,31.166 17.211,0 31.168,-13.954 31.168,-31.166 C 31.168,13.954 17.211,0 0,0 Z m 0,174.143 c 15.491,0 28.051,-12.558 28.051,-28.05 0,-15.491 -12.56,-28.049 -28.051,-28.049 -15.491,0 -28.051,12.558 -28.051,28.049 0,15.492 12.56,28.05 28.051,28.05 z M 37.009,18.999 c 1.258,3.831 1.947,7.917 1.947,12.168 0,8.77 -2.899,16.864 -7.788,23.375 v 93.11 H 31.126 C 30.315,164.141 16.687,177.261 0,177.261 c -16.69,0 -30.316,-13.12 -31.128,-29.609 h -0.04 v -93.11 c -4.892,-6.511 -7.791,-14.605 -7.791,-23.375 0,-4.251 0.691,-8.336 1.949,-12.167 v -59.175 h 7.789 v -85.708 h 58.439 v 85.708 h 7.791 z" style="fill:none;stroke:#a7a9ac;stroke-width:0.966;stroke-linecap:butt;stroke-linejoin:miter;stroke-miterlimit:4;stroke-dasharray:none;stroke-opacity:1" /></g></g>
    <g transform="matrix(1,0,0,-1,-261.73197,727.06296)"><g transform="translate(372.0506,375.0858)"><path id="path2448" d="m 0,0 9.593,23.741 h 7.791 L 7.643,-0.364 V -97.396 H 0 l -0.146,-0.365 V -97.396 -0.364 0 Z" style="fill:#ffffff;fill-opacity:1;fill-rule:nonzero;stroke:none" /></g></g>
    <g transform="matrix(1,0,0,-1,-261.73197,727.06296)"><g transform="translate(372.0506,375.0858)"><path id="path2452" d="m 0,0 9.593,23.741 h 7.791 L 7.643,-0.364 V -97.396 H 0 l -0.146,-0.365 V -97.396 -0.364 0 Z" style="fill:none;stroke:#a7a9ac;stroke-width:0.966;stroke-linecap:butt;stroke-linejoin:miter;stroke-miterlimit:4;stroke-dasharray:none;stroke-opacity:1" /></g></g>
    <g transform="matrix(1,0,0,-1,-261.73197,727.06296)"><g transform="translate(465.2552,375.0858)"><path id="path2456" d="m 0,0 -9.593,23.741 h -7.79 l 9.74,-24.105 V -97.396 H 0 l 0.148,-0.365 V -97.396 -0.364 0 Z" style="fill:#ffffff;fill-opacity:1;fill-rule:nonzero;stroke:none" /></g></g>
    <g transform="matrix(1,0,0,-1,-261.73197,727.06296)"><g transform="translate(465.2552,375.0858)"><path id="path2460" d="m 0,0 -9.593,23.741 h -7.79 l 9.74,-24.105 V -97.396 H 0 l 0.148,-0.365 V -97.396 -0.364 0 Z" style="fill:none;stroke:#a7a9ac;stroke-width:0.966;stroke-linecap:butt;stroke-linejoin:miter;stroke-miterlimit:4;stroke-dasharray:none;stroke-opacity:1" /></g></g>
    <g transform="matrix(1,0,0,-1,-261.73197,727.06296)"><g transform="translate(316.0677,327.1843)"><path id="path2466" d="M 0,0 H -19.878 V 4.863 H 0 Z" style="fill:none;stroke:#a7a9ac;stroke-width:0.966;stroke-linecap:butt;stroke-linejoin:miter;stroke-miterlimit:4;stroke-dasharray:none;stroke-opacity:1" /></g></g>
    <g transform="matrix(1,0,0,-1,-261.73197,727.06296)"><g transform="translate(397.685,315.2611)"><path id="path2472" d="M 0,0 H -6.625 V 22.085 H 0 Z" style="fill:none;stroke:#a7a9ac;stroke-width:0.966;stroke-linecap:butt;stroke-linejoin:miter;stroke-miterlimit:4;stroke-dasharray:none;stroke-opacity:1" /></g></g>
    <g transform="matrix(1,0,0,-1,-261.73197,727.06296)"><g transform="translate(405.7842,315.2611)"><path id="path2478" d="M 0,0 H -6.626 V 22.085 H 0 Z" style="fill:none;stroke:#a7a9ac;stroke-width:0.966;stroke-linecap:butt;stroke-linejoin:miter;stroke-miterlimit:4;stroke-dasharray:none;stroke-opacity:1" /></g></g>
    <g transform="matrix(1,0,0,-1,-261.73197,727.06296)"><g transform="translate(413.8804,315.2611)"><path id="path2484" d="M 0,0 H -6.624 V 22.085 H 0 Z" style="fill:none;stroke:#a7a9ac;stroke-width:0.966;stroke-linecap:butt;stroke-linejoin:miter;stroke-miterlimit:4;stroke-dasharray:none;stroke-opacity:1" /></g></g>
    <g transform="matrix(1,0,0,-1,-261.73197,727.06296)"><g transform="translate(421.9815,315.2611)"><path id="path2490" d="M 0,0 H -6.628 V 22.085 H 0 Z" style="fill:none;stroke:#a7a9ac;stroke-width:0.966;stroke-linecap:butt;stroke-linejoin:miter;stroke-miterlimit:4;stroke-dasharray:none;stroke-opacity:1" /></g></g>
    <g transform="matrix(1,0,0,-1,-261.73197,727.06296)"><g transform="translate(430.0778,315.2611)"><path id="path2496" d="M 0,0 H -6.625 V 22.085 H 0 Z" style="fill:none;stroke:#a7a9ac;stroke-width:0.966;stroke-linecap:butt;stroke-linejoin:miter;stroke-miterlimit:4;stroke-dasharray:none;stroke-opacity:1" /></g></g>
    <g transform="matrix(1,0,0,-1,-261.73197,727.06296)"><g transform="translate(438.1789,315.2611)"><path id="path2502" d="M 0,0 H -6.625 V 22.085 H 0 Z" style="fill:none;stroke:#a7a9ac;stroke-width:0.966;stroke-linecap:butt;stroke-linejoin:miter;stroke-miterlimit:4;stroke-dasharray:none;stroke-opacity:1" /></g></g>
    <g transform="matrix(1,0,0,-1,-261.73197,727.06296)"><g transform="translate(446.2761,315.2611)"><path id="path2508" d="M 0,0 H -6.624 V 22.085 H 0 Z" style="fill:none;stroke:#a7a9ac;stroke-width:0.966;stroke-linecap:butt;stroke-linejoin:miter;stroke-miterlimit:4;stroke-dasharray:none;stroke-opacity:1" /></g></g>
    <g transform="matrix(1,0,0,-1,-261.73197,727.06296)"><g transform="translate(345.9296,632.3785)"><path id="path2512" d="M 0,0 C -3.307,-22.98 -5.765,-50.099 -6.584,-50.099 H -7.39 c -5.358,0 -9.702,-6.656 -9.702,-14.866 v -111.362 l -29.227,-49.742 -5.307,-33.536" style="fill:none;stroke:#a7a9ac;stroke-width:0.966;stroke-linecap:round;stroke-linejoin:round;stroke-miterlimit:4;stroke-dasharray:none;stroke-opacity:1" /></g></g>
    <g transform="matrix(1,0,0,-1,-261.73197,727.06296)"><g transform="translate(543.2411,372.773)"><path id="path2516" d="M 0,0 -5.304,33.536 -34.535,83.279 V 194.64 c 0,8.21 -4.343,14.867 -9.701,14.867 h -0.806 c -0.821,0 -3.271,27.051 -6.57,50.012" style="fill:none;stroke:#a7a9ac;stroke-width:0.966;stroke-linecap:round;stroke-linejoin:round;stroke-miterlimit:4;stroke-dasharray:none;stroke-opacity:1" /></g></g>
    <g transform="matrix(1,0,0,-1,-261.73197,727.06296)"><g transform="translate(375.644,467.0721)"><path id="path2522" d="M 0,0 H -48.699 V 31.167 H 0 Z" style="fill:none;stroke:#a7a9ac;stroke-width:0.966;stroke-linecap:butt;stroke-linejoin:miter;stroke-miterlimit:4;stroke-dasharray:none;stroke-opacity:1" /></g></g>
    <g transform="matrix(1,0,0,-1,-261.73197,727.06296)"><g transform="translate(375.7386,539.6147)"><path id="path2528" d="M 0,0 H -48.697 V -31.165 H 0 Z" style="fill:none;stroke:#a7a9ac;stroke-width:0.966;stroke-linecap:butt;stroke-linejoin:miter;stroke-miterlimit:4;stroke-dasharray:none;stroke-opacity:1" /></g></g>
    <g transform="matrix(1,0,0,-1,-261.73197,727.06296)"><g transform="translate(510.2646,467.0721)"><path id="path2534" d="M 0,0 H -48.695 V 31.167 H 0 Z" style="fill:none;stroke:#a7a9ac;stroke-width:0.966;stroke-linecap:butt;stroke-linejoin:miter;stroke-miterlimit:4;stroke-dasharray:none;stroke-opacity:1" /></g></g>
    <g transform="matrix(1,0,0,-1,-261.73197,727.06296)"><g transform="translate(510.3574,539.6147)"><path id="path2540" d="M 0,0 H -48.695 V -31.165 H 0 Z" style="fill:none;stroke:#a7a9ac;stroke-width:0.966;stroke-linecap:butt;stroke-linejoin:miter;stroke-miterlimit:4;stroke-dasharray:none;stroke-opacity:1" /></g></g>
    <g transform="matrix(1,0,0,-1,-261.73197,727.06296)"><g transform="translate(372.2978,601.3483)"><path id="path2544" d="M 0,0 -33.041,-18.84" style="fill:#ffffff;fill-opacity:1;fill-rule:nonzero;stroke:#a7a9ac;stroke-width:0.966;stroke-linecap:butt;stroke-linejoin:miter;stroke-miterlimit:4;stroke-dasharray:none;stroke-opacity:1" /></g></g>
    <g transform="matrix(1,0,0,-1,-261.73197,727.06296)"><g transform="translate(464.9552,600.8148)"><path id="path2548" d="M 0,0 33.325,-18.307" style="fill:#ffffff;fill-opacity:1;fill-rule:nonzero;stroke:#a7a9ac;stroke-width:0.966;stroke-linecap:butt;stroke-linejoin:miter;stroke-miterlimit:4;stroke-dasharray:none;stroke-opacity:1" /></g></g>
    <g transform="matrix(1,0,0,-1,-261.73197,727.06296)"><g transform="translate(335.3773,428.9368)"><path id="path2552" d="m 0,0 c 0,0.024 0.003,0.046 0.003,0.071 0.039,15.666 6.565,28.341 14.607,28.341 8.041,0 9.27,-12.605 9.313,-28.271 0,-0.024 0.003,-0.046 0.003,-0.071 0,-7.707 -1.248,-14.024 -9.316,-14.024 C 6.54,-13.954 0,-7.706 0,0 m -8.374,-19.478 v -0.002 -103.349 c 5.204,-3.365 12.821,-5.493 21.327,-5.493 9.89,0 18.584,2.877 23.669,7.238 L 37.01,-19.48 v 0.002 C 37.01,9.89 26.851,33.699 14.317,33.699 1.783,33.699 -8.374,9.89 -8.374,-19.478" style="fill:#ffffff;fill-opacity:1;fill-rule:nonzero;stroke:none" /></g></g>
    <g transform="matrix(1,0,0,-1,-261.73197,727.06296)"><g transform="translate(335.3773,428.9368)"><path id="path2556" d="m 0,0 c 0,0.024 0.003,0.046 0.003,0.071 0.039,15.666 6.565,28.341 14.607,28.341 8.041,0 9.27,-12.605 9.313,-28.271 0,-0.024 0.003,-0.046 0.003,-0.071 0,-7.707 -1.248,-14.024 -9.316,-14.024 C 6.54,-13.954 0,-7.706 0,0 Z m -8.374,-19.478 v -0.002 -103.349 c 5.204,-3.365 12.821,-5.493 21.327,-5.493 9.89,0 18.584,2.877 23.669,7.238 L 37.01,-19.48 v 0.002 C 37.01,9.89 26.851,33.699 14.317,33.699 1.783,33.699 -8.374,9.89 -8.374,-19.478 Z" style="fill:none;stroke:#a7a9ac;stroke-width:0.966;stroke-linecap:butt;stroke-linejoin:miter;stroke-miterlimit:4;stroke-dasharray:none;stroke-opacity:1" /></g></g>
    <g transform="matrix(1,0,0,-1,-261.73197,727.06296)"><g transform="translate(372.078,328.2657)"><path id="path2560" d="m 0,0 c -5.097,-4.32 -13.744,-7.167 -23.583,-7.167 -8.504,0 -16.123,2.128 -21.329,5.492" style="fill:none;stroke:#a7a9ac;stroke-width:0.966;stroke-linecap:butt;stroke-linejoin:miter;stroke-miterlimit:4;stroke-dasharray:none;stroke-opacity:1" /></g></g>
    <g transform="matrix(1,0,0,-1,-261.73197,727.06296)"><g transform="translate(372.1865,415.754)"><path id="path2564" d="m 0,0 c -5.098,-4.319 -13.747,-7.166 -23.582,-7.166 -8.502,0 -16.124,2.128 -21.329,5.493" style="fill:none;stroke:#a7a9ac;stroke-width:0.966;stroke-linecap:butt;stroke-linejoin:miter;stroke-miterlimit:4;stroke-dasharray:none;stroke-opacity:1" /></g></g>
    <g transform="matrix(1,0,0,-1,-261.73197,727.06296)"><g transform="translate(339.2569,302.0089)"><path id="path2568" d="M 0,0 V 19.88" style="fill:none;stroke:#a7a9ac;stroke-width:0.966;stroke-linecap:butt;stroke-linejoin:miter;stroke-miterlimit:4;stroke-dasharray:none;stroke-opacity:1" /></g></g>
    <g transform="matrix(1,0,0,-1,-261.73197,727.06296)"><g transform="translate(358.0298,302.0089)"><path id="path2572" d="M 0,0 V 19.878" style="fill:none;stroke:#a7a9ac;stroke-width:0.966;stroke-linecap:butt;stroke-linejoin:miter;stroke-miterlimit:4;stroke-dasharray:none;stroke-opacity:1" /></g></g>
    <g transform="matrix(1,0,0,-1,-261.73197,727.06296)"><g transform="translate(330.425,304.216)"><path id="path2576" d="M 0,0 V 20.983" style="fill:none;stroke:#a7a9ac;stroke-width:0.966;stroke-linecap:butt;stroke-linejoin:miter;stroke-miterlimit:4;stroke-dasharray:none;stroke-opacity:1" /></g></g>
    <g transform="matrix(1,0,0,-1,-261.73197,727.06296)"><g transform="translate(367.971,305.3225)"><path id="path2580" d="M 0,0 V 19.876" style="fill:none;stroke:#a7a9ac;stroke-width:0.966;stroke-linecap:butt;stroke-linejoin:miter;stroke-miterlimit:4;stroke-dasharray:none;stroke-opacity:1" /></g></g>
    <g transform="matrix(1,0,0,-1,-261.73197,727.06296)"><g transform="translate(487.7164,414.9829)"><path id="path2584" d="m 0,0 c -8.067,0 -9.314,6.317 -9.314,14.024 0,0.024 0.002,0.046 0.002,0.071 0.04,15.666 1.27,28.272 9.312,28.272 8.042,0 14.57,-12.677 14.608,-28.341 0,-0.025 0.002,-0.047 0.002,-0.073 C 14.61,6.247 8.069,0 0,0 M 0.295,47.652 C -12.24,47.652 -22.4,23.843 -22.4,-5.523 v -0.003 l 0.39,-101.605 c 5.083,-4.359 13.776,-7.237 23.668,-7.237 8.503,0 16.123,2.127 21.33,5.494 v 103.348 0.003 c 0,29.366 -10.162,53.175 -22.693,53.175" style="fill:#ffffff;fill-opacity:1;fill-rule:nonzero;stroke:none" /></g></g>
    <g transform="matrix(1,0,0,-1,-261.73197,727.06296)"><g transform="translate(487.7164,414.9829)"><path id="path2588" d="m 0,0 c -8.067,0 -9.314,6.317 -9.314,14.024 0,0.024 0.002,0.046 0.002,0.071 0.04,15.666 1.27,28.272 9.312,28.272 8.042,0 14.57,-12.677 14.608,-28.341 0,-0.025 0.002,-0.047 0.002,-0.073 C 14.61,6.247 8.069,0 0,0 Z M 0.295,47.652 C -12.24,47.652 -22.4,23.843 -22.4,-5.523 v -0.003 l 0.39,-101.605 c 5.083,-4.359 13.776,-7.237 23.668,-7.237 8.503,0 16.123,2.127 21.33,5.494 v 103.348 0.003 c 0,29.366 -10.162,53.175 -22.693,53.175 z" style="fill:none;stroke:#a7a9ac;stroke-width:0.966;stroke-linecap:butt;stroke-linejoin:miter;stroke-miterlimit:4;stroke-dasharray:none;stroke-opacity:1" /></g></g>
    <g transform="matrix(1,0,0,-1,-261.73197,727.06296)"><g transform="translate(465.6287,328.2657)"><path id="path2592" d="m 0,0 c 5.094,-4.32 13.742,-7.167 23.578,-7.167 8.508,0 16.126,2.128 21.329,5.492" style="fill:none;stroke:#a7a9ac;stroke-width:0.966;stroke-linecap:butt;stroke-linejoin:miter;stroke-miterlimit:4;stroke-dasharray:none;stroke-opacity:1" /></g></g>
    <g transform="matrix(1,0,0,-1,-261.73197,727.06296)"><g transform="translate(465.5175,415.754)"><path id="path2596" d="m 0,0 c 5.099,-4.319 13.745,-7.166 23.583,-7.166 8.501,0 16.125,2.128 21.331,5.493" style="fill:none;stroke:#a7a9ac;stroke-width:0.966;stroke-linecap:butt;stroke-linejoin:miter;stroke-miterlimit:4;stroke-dasharray:none;stroke-opacity:1" /></g></g>
    <g transform="matrix(1,0,0,-1,-261.73197,727.06296)"><g transform="translate(498.28,302.0089)"><path id="path2600" d="M 0,0 V 19.88" style="fill:none;stroke:#a7a9ac;stroke-width:0.966;stroke-linecap:butt;stroke-linejoin:miter;stroke-miterlimit:4;stroke-dasharray:none;stroke-opacity:1" /></g></g>
    <g transform="matrix(1,0,0,-1,-261.73197,727.06296)"><g transform="translate(479.5071,302.0089)"><path id="path2604" d="M 0,0 V 19.878" style="fill:none;stroke:#a7a9ac;stroke-width:0.966;stroke-linecap:butt;stroke-linejoin:miter;stroke-miterlimit:4;stroke-dasharray:none;stroke-opacity:1" /></g></g>
    <g transform="matrix(1,0,0,-1,-261.73197,727.06296)"><g transform="translate(507.1165,304.216)"><path id="path2608" d="M 0,0 V 20.983" style="fill:none;stroke:#a7a9ac;stroke-width:0.966;stroke-linecap:butt;stroke-linejoin:miter;stroke-miterlimit:4;stroke-dasharray:none;stroke-opacity:1" /></g></g>
    <g transform="matrix(1,0,0,-1,-261.73197,727.06296)"><g transform="translate(469.5678,305.3225)"><path id="path2612" d="M 0,0 V 19.876" style="fill:none;stroke:#a7a9ac;stroke-width:0.966;stroke-linecap:butt;stroke-linejoin:miter;stroke-miterlimit:4;stroke-dasharray:none;stroke-opacity:1" /></g></g>
    <g transform="matrix(1,0,0,-1,-261.73197,727.06296)"><g transform="translate(544.2098,406.1016)"><path id="path2616" d="m 0,0 -30.771,52.362 v 117.223 c 0,8.642 -4.57,15.648 -10.212,15.648 h -0.85 c -1.297,0 -6.487,64.554 -12.765,81.767 -2.91,7.989 -32.006,11.342 -63.111,11.353 -2.565,10e-4 -15.46,0 -15.46,0 -31.105,-0.011 -60.205,-3.364 -63.117,-11.353 -6.276,-17.213 -11.467,-81.767 -12.765,-81.767 h -0.85 c -5.638,0 -10.21,-7.006 -10.21,-15.648 V 52.362 L -250.879,0 l -16.567,-104.718 49.451,4.557 c 5.205,-3.447 12.925,-5.634 21.549,-5.634 9.892,0 18.584,2.88 23.668,7.238 v -29.832 h 9.469 l 9.157,20.985 v 14.354 h 57.426 v -14.354 l 9.155,-20.985 h 9.469 v 29.832 c 5.084,-4.358 13.774,-7.238 23.665,-7.238 8.624,0 16.345,2.187 21.555,5.634 l 49.444,-4.557 z" style="fill:none;stroke:#000000;stroke-width:1.932;stroke-linecap:butt;stroke-linejoin:miter;stroke-miterlimit:4;stroke-dasharray:none;stroke-opacity:1" /></g></g>
    <g transform="matrix(1,0,0,-1,-261.73197,727.06296)"><g transform="translate(418.7737,636.6916)"><path id="path2620" d="M 0,0 C 21.039,0 39.019,-14.871 46.287,-35.877 44.54,1.425 24.493,30.849 0,30.849 -24.495,30.849 -44.54,1.424 -46.289,-35.879 -39.019,-14.873 -21.043,0 0,0" style="fill:#ffffff;fill-opacity:1;fill-rule:nonzero;stroke:none" /></g></g>
    <g transform="matrix(1,0,0,-1,-261.73197,727.06296)"><g transform="translate(418.7737,636.6916)"><path id="path2624" d="M 0,0 C 21.039,0 39.019,-14.871 46.287,-35.877 44.54,1.425 24.493,30.849 0,30.849 -24.495,30.849 -44.54,1.424 -46.289,-35.879 -39.019,-14.873 -21.043,0 0,0 Z" style="fill:none;stroke:#a7a9ac;stroke-width:0.966;stroke-linecap:butt;stroke-linejoin:miter;stroke-miterlimit:4;stroke-dasharray:none;stroke-opacity:1" /></g></g>
    <g transform="matrix(1,0,0,-1,-261.73197,727.06296)"><g transform="translate(418.7737,636.6916)"><path id="path2628" d="M 0,0 -0.002,23.12 -3.234,23.119 -3.391,30.85" style="fill:#ffffff;fill-opacity:1;fill-rule:nonzero;stroke:#a7a9ac;stroke-width:0.966;stroke-linecap:butt;stroke-linejoin:miter;stroke-miterlimit:4;stroke-dasharray:none;stroke-opacity:1" /></g></g>
    <g transform="matrix(1,0,0,-1,-261.73197,727.06296)"><g transform="translate(422.0081,667.5422)"><path id="path2632" d="M 0,0 0.156,-7.73 H -3.236" style="fill:#ffffff;fill-opacity:1;fill-rule:nonzero;stroke:#a7a9ac;stroke-width:0.966;stroke-linecap:butt;stroke-linejoin:miter;stroke-miterlimit:4;stroke-dasharray:none;stroke-opacity:1" /></g></g>
    <g transform="matrix(1,0,0,-1,-261.73197,727.06296)"><g transform="translate(439.4643,643.6251)"><path id="path2636" d="m 0,0 c -6.157,2.562 -13.236,4.038 -20.785,4.038 -7.476,0 -14.488,-1.447 -20.605,-3.961 l -0.835,11.692 V -0.258 -3.692 -7.999 c 5.867,3.524 13.324,5.634 21.44,5.634 8.203,0 15.731,-2.154 21.628,-5.745 v 4.418 3.35 12.111 z" style="fill:#a7a9ac;fill-opacity:1;fill-rule:nonzero;stroke:none" /></g></g>
    <g transform="matrix(1,0,0,-1,-261.73197,727.06296)"><g transform="translate(439.4643,643.6251)"><path id="path2640" d="m 0,0 c -6.157,2.562 -13.236,4.038 -20.785,4.038 -7.476,0 -14.488,-1.447 -20.605,-3.961 l -0.835,11.692 V -0.258 -3.692 -7.999 c 5.867,3.524 13.324,5.634 21.44,5.634 8.203,0 15.731,-2.154 21.628,-5.745 v 4.418 3.35 12.111 z" style="fill:none;stroke:#a7a9ac;stroke-width:0.966;stroke-linecap:butt;stroke-linejoin:miter;stroke-miterlimit:4;stroke-dasharray:none;stroke-opacity:1" /></g></g>
    <g transform="matrix(1,0,0,-1,-261.73197,727.06296)"><g transform="translate(541.3495,328.5124)"><path id="path2646" d="M 0,0 H -19.878 V 5.52 H 0 Z" style="fill:none;stroke:#a7a9ac;stroke-width:0.966;stroke-linecap:butt;stroke-linejoin:miter;stroke-miterlimit:4;stroke-dasharray:none;stroke-opacity:1" /></g></g>
    <g transform="matrix(1,0,0,-1,-261.73197,727.06296)"><g transform="translate(373.2184,476.4144)"><path id="path2722" d="M 0,0 V -164.281" style="fill:none;stroke:#000000;stroke-width:1.932;stroke-linecap:round;stroke-linejoin:miter;stroke-miterlimit:4;stroke-dasharray:none;stroke-opacity:1" /></g></g>
    <g transform="matrix(1,0,0,-1,-261.73197,727.06296)"><g transform="translate(464.942,476.4144)"><path id="path2726" d="M 0,0 V -164.281" style="fill:none;stroke:#000000;stroke-width:1.932;stroke-linecap:round;stroke-linejoin:miter;stroke-miterlimit:4;stroke-dasharray:none;stroke-opacity:1" /></g></g>
    <g transform="matrix(1,0,0,-1,-261.73197,727.06296)"><g transform="translate(464.942,476.4144)"><path id="path2730" d="M 0,0 V -164.281" style="fill:none;stroke:#000000;stroke-width:1.932;stroke-linecap:round;stroke-linejoin:miter;stroke-miterlimit:4;stroke-dasharray:none;stroke-opacity:1" /></g></g>
    <g transform="matrix(1,0,0,-1,-261.73197,727.06296)"><g transform="translate(358.7147,536.1809)"><path id="path2734" d="M 0,0 -27.935,48.385" style="fill:none;stroke:#000000;stroke-width:1.932;stroke-linecap:round;stroke-linejoin:miter;stroke-miterlimit:4;stroke-dasharray:none;stroke-opacity:1" /></g></g>
    <g transform="matrix(1,0,0,-1,-261.73197,727.06296)"><g transform="translate(477.263,536.1809)"><path id="path2738" d="M 0,0 27.935,48.385" style="fill:none;stroke:#000000;stroke-width:1.932;stroke-linecap:round;stroke-linejoin:miter;stroke-miterlimit:4;stroke-dasharray:none;stroke-opacity:1" /></g></g>
    <g transform="matrix(1,0,0,-1,-261.73197,727.06296)"><g transform="translate(475.4887,493)"><path id="path13934" d="m 0,0 c 0,-6.402 -4.284,-11.591 -9.568,-11.591 h -95.05 c -5.285,0 -9.569,5.189 -9.569,11.591 v 34.317 c 0,6.401 4.284,11.591 9.569,11.591 h 95.05 C -4.284,45.908 0,40.718 0,34.317 Z" style="fill:#ccced0;fill-opacity:1;fill-rule:nonzero;stroke:none" /></g></g>
    <g transform="matrix(1,0,0,-1,-261.73197,727.06296)"><g transform="translate(475.4887,493)"><path id="path13938" d="m 0,0 c 0,-6.402 -4.284,-11.591 -9.568,-11.591 h -95.05 c -5.285,0 -9.569,5.189 -9.569,11.591 v 34.317 c 0,6.401 4.284,11.591 9.569,11.591 h 95.05 C -4.284,45.908 0,40.718 0,34.317 Z" style="fill:none;stroke:#000000;stroke-width:1.932;stroke-linecap:butt;stroke-linejoin:miter;stroke-miterlimit:4;stroke-dasharray:none;stroke-opacity:1" /></g></g>
    <g transform="matrix(1,0,0,-1,-261.73197,727.06296)"><path id="path2462" d="M 316.068,327.184 H 296.19 v 4.863 h 19.878 z" style="fill:#ffffff;fill-opacity:1;fill-rule:nonzero;stroke:none" /></g>
    <g transform="matrix(1,0,0,-1,-261.73197,727.06296)"><path id="path2468" d="m 397.685,315.261 h -6.625 v 22.085 h 6.625 z" style="fill:#ffffff;fill-opacity:1;fill-rule:nonzero;stroke:none" /></g>
    <g transform="matrix(1,0,0,-1,-261.73197,727.06296)"><path id="path2474" d="m 405.784,315.261 h -6.626 v 22.085 h 6.626 z" style="fill:#ffffff;fill-opacity:1;fill-rule:nonzero;stroke:none" /></g>
    <g transform="matrix(1,0,0,-1,-261.73197,727.06296)"><path id="path2480" d="m 413.88,315.261 h -6.624 v 22.085 h 6.624 z" style="fill:#ffffff;fill-opacity:1;fill-rule:nonzero;stroke:none" /></g>
    <g transform="matrix(1,0,0,-1,-261.73197,727.06296)"><path id="path2486" d="m 421.982,315.261 h -6.628 v 22.085 h 6.628 z" style="fill:#ffffff;fill-opacity:1;fill-rule:nonzero;stroke:none" /></g>
    <g transform="matrix(1,0,0,-1,-261.73197,727.06296)"><path id="path2492" d="m 430.078,315.261 h -6.625 v 22.085 h 6.625 z" style="fill:#ffffff;fill-opacity:1;fill-rule:nonzero;stroke:none" /></g>
    <g transform="matrix(1,0,0,-1,-261.73197,727.06296)"><path id="path2498" d="m 438.179,315.261 h -6.625 v 22.085 h 6.625 z" style="fill:#ffffff;fill-opacity:1;fill-rule:nonzero;stroke:none" /></g>
    <g transform="matrix(1,0,0,-1,-261.73197,727.06296)"><path id="path2504" d="m 446.276,315.261 h -6.624 v 22.085 h 6.624 z" style="fill:#ffffff;fill-opacity:1;fill-rule:nonzero;stroke:none" /></g>
    <g transform="matrix(1,0,0,-1,-261.73197,727.06296)"><path id="path2518" d="m 375.644,467.072 h -48.699 v 31.167 h 48.699 z" style="fill:#ffffff;fill-opacity:1;fill-rule:nonzero;stroke:none" /></g>
    <g transform="matrix(1,0,0,-1,-261.73197,727.06296)"><path id="path2524" d="M 375.739,539.615 H 327.042 V 508.45 h 48.697 z" style="fill:#ffffff;fill-opacity:1;fill-rule:nonzero;stroke:none" /></g>
    <g transform="matrix(1,0,0,-1,-261.73197,727.06296)"><path id="path2530" d="M 510.265,467.072 H 461.57 v 31.167 h 48.695 z" style="fill:#ffffff;fill-opacity:1;fill-rule:nonzero;stroke:none" /></g>
    <g transform="matrix(1,0,0,-1,-261.73197,727.06296)"><path id="path2536" d="M 510.357,539.615 H 461.662 V 508.45 h 48.695 z" style="fill:#ffffff;fill-opacity:1;fill-rule:nonzero;stroke:none" /></g>
    <g transform="matrix(1,0,0,-1,-261.73197,727.06296)"><path id="path2642" d="m 541.35,328.512 h -19.878 v 5.52 h 19.878 z" style="fill:#ffffff;fill-opacity:1;fill-rule:nonzero;stroke:none" /></g>
    </g>
</svg>
