<?xml version="1.0" encoding="UTF-8"?>
<!-- Editable MekBay protomek-quad armor paperdoll. Pink dashed rectangles mark pip areas and are removed at runtime. -->
<svg xmlns="http://www.w3.org/2000/svg" viewBox="1.025 1.336 78.887 113.524" role="img" aria-label="protomek-quad armor paperdoll">
    <g id="paperdoll-art-armor">
    <g transform="matrix(1,0,0,-1,-488.94017,690.48224)"><g transform="translate(568.6331,594.4059)"><path id="path2710" d="m 0,0 c -1.387,1.502 -2.627,3.106 -3.736,4.834 -0.702,0.555 -1.436,1.067 -2.198,1.539 l -1.978,5.714 c 1.266,3.197 1.851,6.656 1.76,10.109 l -0.661,1.097 -1.099,0.88 -0.219,1.319 c -2.176,3.6 -4.444,7.112 -6.812,10.548 -0.073,1.465 0,2.923 0.216,4.374 -0.616,-1.51 -1.084,-1.559 -1.084,-1.559 0,0 -4.007,-1.335 -6.678,-1.335 0,-7.012 -32.053,-8.347 -32.053,0 -2.671,0 -6.679,1.335 -6.679,1.335 0,0 -0.434,0.038 -1.023,0.954 0.151,-1.251 0.218,-2.507 0.156,-3.769 -2.368,-3.436 -4.637,-6.948 -6.812,-10.548 l -0.219,-1.319 -1.1,-0.88 -0.66,-1.097 c -0.092,-3.453 0.493,-6.912 1.76,-10.109 L -71.097,6.373 C -71.859,5.901 -72.591,5.389 -73.295,4.834 -74.404,3.106 -75.645,1.502 -77.031,0 l -0.219,-1.098 h 2.197 l 0.221,-1.099 c 3.474,-0.249 6.88,0.27 10.107,1.538 0.753,0.517 1.561,0.927 2.424,1.228 l 0.157,-0.315 -2.594,-7.493 c -0.997,-0.619 -0.735,-1.293 -1.658,-2.017 -1.456,-2.265 -2.101,-4.369 -3.917,-6.34 l -0.288,-1.44 h 2.879 l 0.288,-1.441 c 4.548,-0.307 6.815,0.373 11.052,2.017 3.287,1.93 6.917,3.304 10.662,4.035 l 1.442,0.864 0.576,1.729 c -0.437,1.494 -1.013,2.936 -1.728,4.322 l 0.286,1.442 c -0.121,2.633 -0.404,5.183 -0.864,7.779 -0.575,0.768 -1.151,1.537 -1.727,2.306 l -0.289,2.016 c 0.217,2.147 0.6,4.255 1.153,6.341 1.944,1.493 3.695,3.243 5.185,5.186 0.45,1.362 1.122,2.611 2.018,3.746 l 1.153,0.576 1.152,-0.576 c 0.898,-1.134 1.571,-2.383 2.017,-3.746 1.491,-1.943 3.242,-3.693 5.186,-5.186 0.556,-2.085 0.938,-4.194 1.153,-6.341 L -29.294,6.017 C -29.871,5.249 -30.448,4.48 -31.023,3.711 -31.48,1.115 -31.764,-1.435 -31.888,-4.068 L -31.6,-5.51 c -0.716,-1.386 -1.294,-2.827 -1.729,-4.322 l 0.576,-1.729 1.441,-0.864 c 3.746,-0.731 7.375,-2.105 10.663,-4.035 4.237,-1.644 8.706,-2.324 13.254,-2.017 l 0.288,1.441 h 2.88 l -0.287,1.44 c -1.817,1.971 -3.443,4.074 -4.898,6.34 -0.923,0.726 -1.883,1.399 -2.881,2.017 l -2.595,7.493 0.158,0.315 c 0.863,-0.301 1.67,-0.711 2.423,-1.228 3.228,-1.268 6.634,-1.787 10.108,-1.538 l 0.22,1.099 h 2.198 z" style="fill:#c7c8ca;fill-opacity:1;fill-rule:nonzero;stroke:none" /></g></g>
    <g transform="matrix(1,0,0,-1,-488.94017,690.48224)"><g transform="translate(568.6331,594.4059)"><path id="path2714" d="m 0,0 c -1.387,1.502 -2.627,3.106 -3.736,4.834 -0.702,0.555 -1.436,1.067 -2.198,1.539 l -1.978,5.714 c 1.266,3.197 1.851,6.656 1.76,10.109 l -0.661,1.097 -1.099,0.88 -0.219,1.319 c -2.176,3.6 -4.444,7.112 -6.812,10.548 -0.073,1.465 0,2.923 0.216,4.374 -0.616,-1.51 -1.084,-1.559 -1.084,-1.559 0,0 -4.007,-1.335 -6.678,-1.335 0,-7.012 -32.053,-8.347 -32.053,0 -2.671,0 -6.679,1.335 -6.679,1.335 0,0 -0.434,0.038 -1.023,0.954 0.151,-1.251 0.218,-2.507 0.156,-3.769 -2.368,-3.436 -4.637,-6.948 -6.812,-10.548 l -0.219,-1.319 -1.1,-0.88 -0.66,-1.097 c -0.092,-3.453 0.493,-6.912 1.76,-10.109 L -71.097,6.373 C -71.859,5.901 -72.591,5.389 -73.295,4.834 -74.404,3.106 -75.645,1.502 -77.031,0 l -0.219,-1.098 h 2.197 l 0.221,-1.099 c 3.474,-0.249 6.88,0.27 10.107,1.538 0.753,0.517 1.561,0.927 2.424,1.228 l 0.157,-0.315 -2.594,-7.493 c -0.997,-0.619 -0.735,-1.293 -1.658,-2.017 -1.456,-2.265 -2.101,-4.369 -3.917,-6.34 l -0.288,-1.44 h 2.879 l 0.288,-1.441 c 4.548,-0.307 6.815,0.373 11.052,2.017 3.287,1.93 6.917,3.304 10.662,4.035 l 1.442,0.864 0.576,1.729 c -0.437,1.494 -1.013,2.936 -1.728,4.322 l 0.286,1.442 c -0.121,2.633 -0.404,5.183 -0.864,7.779 -0.575,0.768 -1.151,1.537 -1.727,2.306 l -0.289,2.016 c 0.217,2.147 0.6,4.255 1.153,6.341 1.944,1.493 3.695,3.243 5.185,5.186 0.45,1.362 1.122,2.611 2.018,3.746 l 1.153,0.576 1.152,-0.576 c 0.898,-1.134 1.571,-2.383 2.017,-3.746 1.491,-1.943 3.242,-3.693 5.186,-5.186 0.556,-2.085 0.938,-4.194 1.153,-6.341 L -29.294,6.017 C -29.871,5.249 -30.448,4.48 -31.023,3.711 -31.48,1.115 -31.764,-1.435 -31.888,-4.068 L -31.6,-5.51 c -0.716,-1.386 -1.294,-2.827 -1.729,-4.322 l 0.576,-1.729 1.441,-0.864 c 3.746,-0.731 7.375,-2.105 10.663,-4.035 4.237,-1.644 8.706,-2.324 13.254,-2.017 l 0.288,1.441 h 2.88 l -0.287,1.44 c -1.817,1.971 -3.443,4.074 -4.898,6.34 -0.923,0.726 -1.883,1.399 -2.881,2.017 l -2.595,7.493 0.158,0.315 c 0.863,-0.301 1.67,-0.711 2.423,-1.228 3.228,-1.268 6.634,-1.787 10.108,-1.538 l 0.22,1.099 h 2.198 z" style="fill:none;stroke:#c7c8ca;stroke-width:0.75;stroke-linecap:butt;stroke-linejoin:miter;stroke-miterlimit:4;stroke-dasharray:none;stroke-opacity:1" /></g></g>
    <g transform="matrix(1,0,0,-1,-488.94017,690.48224)"><g transform="translate(560.4944,644.5001)"><path id="path2718" d="m 0,0 c 0,2.953 -1.683,5.507 -4.139,6.772 0.097,1.612 0.182,3.361 0.251,5.275 h 0.593 l 3.294,2.835 v 4.252 l -3.294,2.835 h -0.386 c 0.01,1.24 0.016,2.52 0.015,3.855 -0.022,2.493 -2.671,6.678 -2.671,6.678 h -6.677 l -2.671,-4.006 h -9.35 l -1.336,9.349 h -8.014 l -1.336,-9.349 h -9.348 l -2.671,4.006 h -6.677 c 0,0 -1.185,-0.966 -2.671,-6.678 -0.046,-1.337 -0.08,-2.613 -0.109,-3.855 h -0.455 l -3.293,-2.835 v -4.252 l 3.293,-2.835 h 0.397 c 0.029,-1.971 0.082,-3.78 0.158,-5.432 -2.297,-1.312 -3.848,-3.78 -3.848,-6.615 0,-3.518 2.387,-6.471 5.629,-7.347 0.419,-1.457 0.844,-2.369 1.211,-2.939 0.588,-0.916 1.023,-0.953 1.023,-0.953 0,0 4.008,-1.336 6.679,-1.336 0,-8.346 32.052,-7.011 32.052,0 2.671,0 6.679,1.336 6.679,1.336 0,0 0.468,0.049 1.084,1.559 0.222,0.544 0.463,1.279 0.708,2.269 C -2.512,-6.624 0,-3.608 0,0" style="fill:#c7c8ca;fill-opacity:1;fill-rule:nonzero;stroke:none" /></g></g>
    <g transform="matrix(1,0,0,-1,-488.94017,690.48224)"><g transform="translate(560.4944,644.5001)"><path id="path2722" d="m 0,0 c 0,2.953 -1.683,5.507 -4.139,6.772 0.097,1.612 0.182,3.361 0.251,5.275 h 0.593 l 3.294,2.835 v 4.252 l -3.294,2.835 h -0.386 c 0.01,1.24 0.016,2.52 0.015,3.855 -0.022,2.493 -2.671,6.678 -2.671,6.678 h -6.677 l -2.671,-4.006 h -9.35 l -1.336,9.349 h -8.014 l -1.336,-9.349 h -9.348 l -2.671,4.006 h -6.677 c 0,0 -1.185,-0.966 -2.671,-6.678 -0.046,-1.337 -0.08,-2.613 -0.109,-3.855 h -0.455 l -3.293,-2.835 v -4.252 l 3.293,-2.835 h 0.397 c 0.029,-1.971 0.082,-3.78 0.158,-5.432 -2.297,-1.312 -3.848,-3.78 -3.848,-6.615 0,-3.518 2.387,-6.471 5.629,-7.347 0.419,-1.457 0.844,-2.369 1.211,-2.939 0.588,-0.916 1.023,-0.953 1.023,-0.953 0,0 4.008,-1.336 6.679,-1.336 0,-8.346 32.052,-7.011 32.052,0 2.671,0 6.679,1.336 6.679,1.336 0,0 0.468,0.049 1.084,1.559 0.222,0.544 0.463,1.279 0.708,2.269 C -2.512,-6.624 0,-3.608 0,0 Z" style="fill:none;stroke:#c7c8ca;stroke-width:0.75;stroke-linecap:butt;stroke-linejoin:miter;stroke-miterlimit:4;stroke-dasharray:none;stroke-opacity:1" /></g></g>
    <g transform="matrix(1,0,0,-1,-488.94017,690.48224)"><g transform="translate(509.6985,687.7286)"><path id="path2726" d="m 0,0 c -3.853,0 -6.977,-3.906 -6.977,-8.721 0,-4.817 3.124,-8.72 6.977,-8.72 3.854,0 6.978,3.903 6.978,8.72 C 6.978,-3.906 3.854,0 0,0" style="fill:#c7c8ca;fill-opacity:1;fill-rule:nonzero;stroke:#c7c8ca;stroke-width:0.75;stroke-linecap:butt;stroke-linejoin:miter;stroke-miterlimit:4;stroke-dasharray:none;stroke-opacity:1" /></g></g>
    <g transform="matrix(1,0,0,-1,-488.94017,690.48224)"><g transform="translate(537.7727,654.2096)"><path id="path2730" d="M 0,0 -0.957,-1.914 H -1.914 L -2.87,0 h -9.57 l -0.957,-1.914 h -0.958 L -15.312,0 l -1.914,19.141 1.914,3.828 h 1.913 l 10e-4,-3.828 5.742,1.914 5.744,-1.914 -0.002,3.828 h 2.871 l 0.957,-3.828 z" style="fill:#c7c8ca;fill-opacity:1;fill-rule:nonzero;stroke:none" /></g></g>
    <g transform="matrix(1,0,0,-1,-488.94017,690.48224)"><g transform="translate(537.7727,654.2096)"><path id="path2734" d="M 0,0 -0.957,-1.914 H -1.914 L -2.87,0 h -9.57 l -0.957,-1.914 h -0.958 L -15.312,0 l -1.914,19.141 1.914,3.828 h 1.913 l 10e-4,-3.828 5.742,1.914 5.744,-1.914 -0.002,3.828 h 2.871 l 0.957,-3.828 z" style="fill:none;stroke:#c7c8ca;stroke-width:0.75;stroke-linecap:butt;stroke-linejoin:miter;stroke-miterlimit:10;stroke-dasharray:none;stroke-opacity:1" /></g></g>
    <g transform="matrix(1,0,0,-1,-488.94017,690.48224)"><g transform="translate(567.2151,595.8232)"><path id="path2738" d="m 0,0 c -1.387,1.502 -2.627,3.106 -3.736,4.834 -0.702,0.555 -1.436,1.067 -2.198,1.539 l -1.978,5.714 c 1.266,3.197 1.851,6.656 1.76,10.109 l -0.661,1.097 -1.099,0.88 -0.219,1.319 c -2.176,3.6 -4.444,7.112 -6.812,10.548 -0.073,1.465 0,2.923 0.216,4.374 -0.616,-1.51 -1.084,-1.559 -1.084,-1.559 0,0 -4.007,-1.335 -6.678,-1.335 0,-7.012 -32.053,-8.347 -32.053,0 -2.671,0 -6.679,1.335 -6.679,1.335 0,0 -0.434,0.038 -1.023,0.954 0.151,-1.251 0.218,-2.507 0.156,-3.769 -2.368,-3.436 -4.637,-6.948 -6.812,-10.548 l -0.219,-1.319 -1.1,-0.88 -0.66,-1.097 c -0.092,-3.453 0.493,-6.912 1.76,-10.109 L -71.097,6.373 C -71.859,5.901 -72.591,5.389 -73.295,4.834 -74.404,3.106 -75.645,1.502 -77.031,0 l -0.219,-1.098 h 2.197 l 0.221,-1.099 c 3.474,-0.249 6.88,0.27 10.107,1.538 0.753,0.517 1.561,0.927 2.424,1.228 l 0.157,-0.315 -2.594,-7.493 c -0.997,-0.619 -0.735,-1.293 -1.658,-2.017 -1.456,-2.265 -2.101,-4.369 -3.917,-6.34 l -0.288,-1.44 h 2.879 l 0.288,-1.441 c 4.548,-0.307 6.815,0.373 11.052,2.017 3.287,1.93 6.917,3.304 10.662,4.035 l 1.442,0.864 0.576,1.729 c -0.437,1.494 -1.013,2.936 -1.728,4.322 l 0.286,1.442 c -0.121,2.633 -0.404,5.183 -0.864,7.779 -0.575,0.768 -1.151,1.537 -1.727,2.306 l -0.289,2.016 c 0.217,2.147 0.6,4.255 1.153,6.341 1.944,1.493 3.695,3.243 5.185,5.186 0.45,1.362 1.122,2.611 2.018,3.746 l 1.153,0.576 1.152,-0.576 c 0.898,-1.134 1.571,-2.383 2.017,-3.746 1.491,-1.943 3.242,-3.693 5.186,-5.186 0.556,-2.085 0.938,-4.194 1.153,-6.341 L -29.294,6.017 C -29.871,5.249 -30.448,4.48 -31.023,3.711 -31.48,1.115 -31.764,-1.435 -31.888,-4.068 L -31.6,-5.51 c -0.716,-1.386 -1.294,-2.827 -1.729,-4.322 l 0.576,-1.729 1.441,-0.864 c 3.746,-0.731 7.375,-2.105 10.663,-4.035 4.237,-1.644 8.706,-2.324 13.254,-2.017 l 0.288,1.441 h 2.88 l -0.287,1.44 c -1.817,1.971 -3.443,4.074 -4.898,6.34 -0.923,0.726 -1.883,1.399 -2.881,2.017 l -2.595,7.493 0.158,0.315 c 0.863,-0.301 1.67,-0.711 2.423,-1.228 3.228,-1.268 6.634,-1.787 10.108,-1.538 l 0.22,1.099 h 2.198 z" style="fill:#ffffff;fill-opacity:1;fill-rule:nonzero;stroke:none" /></g></g>
    <g transform="matrix(1,0,0,-1,-488.94017,690.48224)"><g transform="translate(567.2151,595.8232)"><path id="path2742" d="m 0,0 c -1.387,1.502 -2.627,3.106 -3.736,4.834 -0.702,0.555 -1.436,1.067 -2.198,1.539 l -1.978,5.714 c 1.266,3.197 1.851,6.656 1.76,10.109 l -0.661,1.097 -1.099,0.88 -0.219,1.319 c -2.176,3.6 -4.444,7.112 -6.812,10.548 -0.073,1.465 0,2.923 0.216,4.374 -0.616,-1.51 -1.084,-1.559 -1.084,-1.559 0,0 -4.007,-1.335 -6.678,-1.335 0,-7.012 -32.053,-8.347 -32.053,0 -2.671,0 -6.679,1.335 -6.679,1.335 0,0 -0.434,0.038 -1.023,0.954 0.151,-1.251 0.218,-2.507 0.156,-3.769 -2.368,-3.436 -4.637,-6.948 -6.812,-10.548 l -0.219,-1.319 -1.1,-0.88 -0.66,-1.097 c -0.092,-3.453 0.493,-6.912 1.76,-10.109 L -71.097,6.373 C -71.859,5.901 -72.591,5.389 -73.295,4.834 -74.404,3.106 -75.645,1.502 -77.031,0 l -0.219,-1.098 h 2.197 l 0.221,-1.099 c 3.474,-0.249 6.88,0.27 10.107,1.538 0.753,0.517 1.561,0.927 2.424,1.228 l 0.157,-0.315 -2.594,-7.493 c -0.997,-0.619 -0.735,-1.293 -1.658,-2.017 -1.456,-2.265 -2.101,-4.369 -3.917,-6.34 l -0.288,-1.44 h 2.879 l 0.288,-1.441 c 4.548,-0.307 6.815,0.373 11.052,2.017 3.287,1.93 6.917,3.304 10.662,4.035 l 1.442,0.864 0.576,1.729 c -0.437,1.494 -1.013,2.936 -1.728,4.322 l 0.286,1.442 c -0.121,2.633 -0.404,5.183 -0.864,7.779 -0.575,0.768 -1.151,1.537 -1.727,2.306 l -0.289,2.016 c 0.217,2.147 0.6,4.255 1.153,6.341 1.944,1.493 3.695,3.243 5.185,5.186 0.45,1.362 1.122,2.611 2.018,3.746 l 1.153,0.576 1.152,-0.576 c 0.898,-1.134 1.571,-2.383 2.017,-3.746 1.491,-1.943 3.242,-3.693 5.186,-5.186 0.556,-2.085 0.938,-4.194 1.153,-6.341 L -29.294,6.017 C -29.871,5.249 -30.448,4.48 -31.023,3.711 -31.48,1.115 -31.764,-1.435 -31.888,-4.068 L -31.6,-5.51 c -0.716,-1.386 -1.294,-2.827 -1.729,-4.322 l 0.576,-1.729 1.441,-0.864 c 3.746,-0.731 7.375,-2.105 10.663,-4.035 4.237,-1.644 8.706,-2.324 13.254,-2.017 l 0.288,1.441 h 2.88 l -0.287,1.44 c -1.817,1.971 -3.443,4.074 -4.898,6.34 -0.923,0.726 -1.883,1.399 -2.881,2.017 l -2.595,7.493 0.158,0.315 c 0.863,-0.301 1.67,-0.711 2.423,-1.228 3.228,-1.268 6.634,-1.787 10.108,-1.538 l 0.22,1.099 h 2.198 z" style="fill:none;stroke:#000000;stroke-width:0.75;stroke-linecap:butt;stroke-linejoin:miter;stroke-miterlimit:4;stroke-dasharray:none;stroke-opacity:1" /></g></g>
    <g transform="matrix(1,0,0,-1,-488.94017,690.48224)"><g transform="translate(559.0764,645.9175)"><path id="path2746" d="m 0,0 c 0,2.953 -1.683,5.507 -4.139,6.772 0.097,1.612 0.182,3.361 0.251,5.275 h 0.593 l 3.294,2.835 v 4.252 l -3.294,2.835 h -0.386 c 0.01,1.24 0.016,2.52 0.015,3.855 -0.022,2.493 -2.671,6.678 -2.671,6.678 h -6.677 l -2.671,-4.006 h -9.35 l -1.336,9.349 h -8.014 l -1.336,-9.349 h -9.348 l -2.671,4.006 h -6.677 c 0,0 -1.185,-0.966 -2.671,-6.678 -0.046,-1.337 -0.08,-2.613 -0.109,-3.855 h -0.455 l -3.293,-2.835 v -4.252 l 3.293,-2.835 h 0.397 c 0.029,-1.971 0.082,-3.78 0.158,-5.432 -2.297,-1.312 -3.848,-3.78 -3.848,-6.615 0,-3.518 2.387,-6.471 5.629,-7.347 0.419,-1.457 0.844,-2.369 1.211,-2.939 0.588,-0.916 1.023,-0.953 1.023,-0.953 0,0 4.008,-1.336 6.679,-1.336 0,-8.346 32.052,-7.011 32.052,0 2.671,0 6.679,1.336 6.679,1.336 0,0 0.468,0.049 1.084,1.559 0.222,0.544 0.463,1.279 0.708,2.269 C -2.512,-6.624 0,-3.608 0,0" style="fill:#ffffff;fill-opacity:1;fill-rule:nonzero;stroke:none" /></g></g>
    <g transform="matrix(1,0,0,-1,-488.94017,690.48224)"><g transform="translate(559.0764,645.9175)"><path id="path2750" d="m 0,0 c 0,2.953 -1.683,5.507 -4.139,6.772 0.097,1.612 0.182,3.361 0.251,5.275 h 0.593 l 3.294,2.835 v 4.252 l -3.294,2.835 h -0.386 c 0.01,1.24 0.016,2.52 0.015,3.855 -0.022,2.493 -2.671,6.678 -2.671,6.678 h -6.677 l -2.671,-4.006 h -9.35 l -1.336,9.349 h -8.014 l -1.336,-9.349 h -9.348 l -2.671,4.006 h -6.677 c 0,0 -1.185,-0.966 -2.671,-6.678 -0.046,-1.337 -0.08,-2.613 -0.109,-3.855 h -0.455 l -3.293,-2.835 v -4.252 l 3.293,-2.835 h 0.397 c 0.029,-1.971 0.082,-3.78 0.158,-5.432 -2.297,-1.312 -3.848,-3.78 -3.848,-6.615 0,-3.518 2.387,-6.471 5.629,-7.347 0.419,-1.457 0.844,-2.369 1.211,-2.939 0.588,-0.916 1.023,-0.953 1.023,-0.953 0,0 4.008,-1.336 6.679,-1.336 0,-8.346 32.052,-7.011 32.052,0 2.671,0 6.679,1.336 6.679,1.336 0,0 0.468,0.049 1.084,1.559 0.222,0.544 0.463,1.279 0.708,2.269 C -2.512,-6.624 0,-3.608 0,0 Z" style="fill:none;stroke:#000000;stroke-width:0.75;stroke-linecap:butt;stroke-linejoin:miter;stroke-miterlimit:4;stroke-dasharray:none;stroke-opacity:1" /></g></g>
    <g transform="matrix(1,0,0,-1,-488.94017,690.48224)"><g transform="translate(508.2805,689.1461)"><path id="path2754" d="m 0,0 c -3.853,0 -6.977,-3.906 -6.977,-8.721 0,-4.817 3.124,-8.72 6.977,-8.72 3.854,0 6.978,3.903 6.978,8.72 C 6.978,-3.906 3.854,0 0,0" style="fill:#ffffff;fill-opacity:1;fill-rule:nonzero;stroke:#000000;stroke-width:0.75;stroke-linecap:butt;stroke-linejoin:miter;stroke-miterlimit:4;stroke-dasharray:none;stroke-opacity:1" /></g></g>
    <g transform="matrix(1,0,0,-1,-488.94017,690.48224)"><g transform="translate(536.3547,655.627)"><path id="path2758" d="M 0,0 -0.957,-1.914 H -1.914 L -2.87,0 h -9.57 l -0.957,-1.914 h -0.958 L -15.312,0 l -1.914,19.141 1.914,3.828 h 1.913 l 10e-4,-3.828 5.742,1.914 5.744,-1.914 -0.002,3.828 h 2.871 l 0.957,-3.828 z" style="fill:#ffffff;fill-opacity:1;fill-rule:nonzero;stroke:none" /></g></g>
    <g transform="matrix(1,0,0,-1,-488.94017,690.48224)"><g transform="translate(536.3547,655.627)"><path id="path2762" d="M 0,0 -0.957,-1.914 H -1.914 L -2.87,0 h -9.57 l -0.957,-1.914 h -0.958 L -15.312,0 l -1.914,19.141 1.914,3.828 h 1.913 l 10e-4,-3.828 5.742,1.914 5.744,-1.914 -0.002,3.828 h 2.871 l 0.957,-3.828 z" style="fill:none;stroke:#000000;stroke-width:0.75;stroke-linecap:butt;stroke-linejoin:miter;stroke-miterlimit:10;stroke-dasharray:none;stroke-opacity:1" /></g></g>
    </g>
</svg>
