<?xml version="1.0" encoding="UTF-8"?>
<!-- Editable MekBay quadvee armor paperdoll. Pink dashed rectangles mark pip areas and are removed at runtime. -->
<svg xmlns="http://www.w3.org/2000/svg" viewBox="9.491 17.585 160.547 297.228" role="img" aria-label="quadvee armor paperdoll">
    <g id="paperdoll-art-armor">
    <g transform="matrix(0.98,0,0,-0.98,-390.38017,718.24098)"><g transform="translate(4.33,-2.75)"><g transform="translate(420.2861,597.3893)"><path id="path29500" d="m 0,0 -1.053,-9.652 1.378,-0.103 -0.299,-4.012 -1.673,0.124 -0.4,-5.39 1.673,-0.124 -0.297,-4.013 -1.674,0.124 -0.4,-5.388 1.674,-0.125 -0.301,-4.051 -1.673,0.123 -0.399,-5.349 1.675,-0.125 -0.301,-4.051 -1.673,0.125 -0.4,-5.392 1.673,-0.123 -0.297,-4.014 -1.675,0.124 -0.399,-5.389 1.674,-0.125 -0.298,-4.011 -1.673,0.123 -0.4,-5.388 1.673,-0.125 -0.298,-4.013 -1.673,0.124 -0.4,-5.389 1.674,-0.125 -0.298,-4.012 -1.674,0.123 -0.4,-5.387 1.674,-0.125 -0.21,-2.824 -1.674,0.124 -0.263,-3.567 1.673,-0.124 -0.158,-2.119 -1.673,0.123 -0.105,-1.413 16.782,-1.244 6.465,93.882 z" style="fill:#c7c8ca;fill-opacity:1;fill-rule:nonzero;stroke:none" /></g></g></g>
    <g transform="matrix(0.98,0,0,-0.98,-390.38017,718.24098)"><g transform="translate(4.33,-2.75)"><g transform="translate(481.2536,502.3931)"><path id="path29512" d="M 0,0 H 1.28 C 1.279,3.963 -2.547,8.009 -8.26,10.337 l 1.856,1.985 -0.001,5.477 1.28,70.299 -1.28,2.738 0.001,5.477 2.561,1.369 v 15.06 l -2.561,1.369 v 5.478 l 1.28,2.737 -1.28,5.002 h -25.615 l -1.282,-6.371 1.281,-2.739 v -4.107 l -2.562,-1.369 v -15.06 l 2.562,-1.369 v -5.477 l -1.281,-2.738 1.282,-70.299 v -5.477 l 2.215,-2.369 C -35.008,7.578 -38.424,3.747 -38.425,0 h 1.281 v -1.369 l -1.28,-1.369 V -5.476 H 1.28 v 2.738 L 0,-1.369 Z" style="fill:#c7c8ca;fill-opacity:1;fill-rule:nonzero;stroke:none" /></g></g></g>
    <g transform="matrix(0.98,0,0,-0.98,-390.38017,718.24098)"><g transform="translate(4.33,-2.75)"><g transform="translate(409.8423,491.2048)"><path id="path29516" d="m 0,0 h -1.37 c 0.001,4.19 4.394,8.482 10.886,10.806 l 4.956,80.509 0.172,1.945 c -2.372,1.761 -2.802,4.179 -3.722,7.123 l -1.144,0.1 1.013,11.588 1.144,-0.1 4.903,6.37 0.169,1.945 -4.973,3.017 1.901,7 1.368,4.107 1.37,2.739 1.369,1.369 2.739,1.368 h 7.971 20.535 l -0.529,-17.999 -1.615,-2.776 -0.508,-5.796 2.6,-1.688 -1.393,-15.932 -2.854,-1.212 -0.51,-5.792 1.111,-3.018 L 39.253,23.212 38.097,9.985 36.415,8.486 C 40.835,6.13 43.812,3.038 43.813,0 h -1.369 v -1.394 l 1.369,-1.397 v -2.79 H -1.369 v 2.79 L 0,-1.394 Z" style="fill:#c7c8ca;fill-opacity:1;fill-rule:nonzero;stroke:none" /></g></g></g>
    <g transform="matrix(0.98,0,0,-0.98,-390.38017,718.24098)"><g transform="translate(4.33,-2.75)"><g transform="translate(555.2441,597.3893)"><path id="path29520" d="m 0,0 1.051,-9.652 -1.376,-0.103 0.298,-4.012 1.673,0.124 0.4,-5.39 -1.673,-0.124 0.297,-4.013 1.674,0.124 0.4,-5.388 -1.674,-0.125 0.302,-4.051 1.673,0.123 0.397,-5.349 -1.674,-0.125 0.3,-4.051 1.673,0.125 0.401,-5.392 -1.674,-0.123 0.298,-4.014 1.674,0.124 0.4,-5.389 -1.674,-0.125 0.298,-4.011 1.673,0.123 0.4,-5.388 -1.673,-0.125 0.297,-4.013 1.674,0.124 0.4,-5.389 -1.674,-0.125 0.297,-4.012 1.674,0.123 0.4,-5.387 -1.674,-0.125 0.21,-2.824 1.675,0.124 0.263,-3.567 -1.673,-0.124 0.158,-2.119 1.673,0.123 0.104,-1.413 -16.781,-1.244 -6.464,93.882 z" style="fill:#c7c8ca;fill-opacity:1;fill-rule:nonzero;stroke:none" /></g></g></g>
    <g transform="matrix(0.98,0,0,-0.98,-390.38017,718.24098)"><g transform="translate(4.33,-2.75)"><g transform="translate(492.7946,502.3931)"><path id="path29524" d="m 0,0 h -1.28 c 0.001,3.963 3.827,8.009 9.54,10.337 l -1.856,1.985 0.001,5.477 -1.28,70.299 1.28,2.738 -0.001,5.477 -2.56,1.369 v 15.06 l 2.56,1.369 v 5.478 l -1.28,2.737 1.28,5.002 h 25.615 l 1.282,-6.371 -1.28,-2.739 v -4.107 l 2.561,-1.369 v -15.06 l -2.561,-1.369 v -5.477 l 1.28,-2.738 -1.282,-70.299 V 12.322 L 29.805,9.953 C 35.008,7.578 38.424,3.747 38.424,0 h -1.28 v -1.369 l 1.28,-1.369 V -5.476 H -1.28 v 2.738 L 0,-1.369 Z" style="fill:#c7c8ca;fill-opacity:1;fill-rule:nonzero;stroke:none" /></g></g></g>
    <g transform="matrix(0.98,0,0,-0.98,-390.38017,718.24098)"><g transform="translate(4.33,-2.75)"><g transform="translate(565.6871,491.2048)"><path id="path29528" d="M 0,0 H 1.37 C 1.369,4.19 -3.024,8.482 -9.516,10.806 l -4.958,80.509 -0.169,1.945 c 2.372,1.761 2.802,4.179 3.722,7.123 l 1.142,0.1 -1.013,11.588 -1.144,-0.1 -4.901,6.37 -0.172,1.945 4.976,3.017 -1.902,7 -1.368,4.107 -1.37,2.739 -1.369,1.369 -2.739,1.368 h -7.971 -20.536 l 0.529,-17.999 1.617,-2.776 0.506,-5.796 -2.6,-1.688 1.395,-15.932 2.854,-1.212 0.508,-5.792 -1.111,-3.018 6.337,-62.461 1.156,-13.227 1.682,-1.499 C -40.836,6.13 -43.812,3.038 -43.812,0 h 1.368 v -1.394 l -1.368,-1.397 v -2.79 H 1.369 v 2.79 L 0,-1.394 Z" style="fill:#c7c8ca;fill-opacity:1;fill-rule:nonzero;stroke:none" /></g></g></g>
    <g transform="matrix(0.98,0,0,-0.98,-390.38017,718.24098)"><g transform="translate(4.33,-2.75)"><g transform="translate(462.6609,692.0315)"><path id="path29532" d="m 0,0 -5.447,13.637 -14.769,0.143 -8.165,5.985 h -18.567 l -8.165,-5.985 v -34.617 l 8.165,-5.985 h 18.567 l 5.402,3.961 10.737,-27.614 -6.081,-0.963 -0.499,-0.62 -1.097,-13.108 1.097,-0.905 h 14.333 3.239 15.769 z" style="fill:#c7c8ca;fill-opacity:1;fill-rule:nonzero;stroke:none" /></g></g></g>
    <g transform="matrix(0.98,0,0,-0.98,-390.38017,718.24098)"><g transform="translate(4.33,-2.75)"><g transform="translate(512.4119,692.0315)"><path id="path29536" d="m 0,0 5.447,13.637 14.769,0.143 8.165,5.985 h 18.567 l 8.165,-5.985 v -34.617 l -8.165,-5.985 H 28.381 l -5.403,3.961 -10.736,-27.614 6.081,-0.963 0.499,-0.62 1.097,-13.108 -1.097,-0.905 H 4.489 1.251 -14.518 Z" style="fill:#c7c8ca;fill-opacity:1;fill-rule:nonzero;stroke:none" /></g></g></g>
    <g transform="matrix(0.98,0,0,-0.98,-390.38017,718.24098)"><g transform="translate(4.33,-2.75)"><g transform="translate(509.3694,625.9609)"><path id="path29540" d="m 0,0 h -43.811 l 2.649,29.85 -10.993,49.744 16.954,-1.062 H -8.705 L 8.251,79.594 -2.648,29.85 Z" style="fill:#c7c8ca;fill-opacity:1;fill-rule:nonzero;stroke:none" /></g></g></g>
    <g transform="matrix(0.98,0,0,-0.98,-390.38017,718.24098)"><g transform="translate(4.33,-2.75)"><g transform="translate(467.5202,694.7365)"><path id="path29544" d="M 0,0 8.088,-5.774 H 32.213 L 40.4,0 28.663,18.859 H 11.639 Z" style="fill:#c7c8ca;fill-opacity:1;fill-rule:nonzero;stroke:none" /></g></g></g>
    <g transform="matrix(0.98,0,0,-0.98,-390.38017,718.24098)"><g transform="translate(4.33,-2.75)"><g transform="translate(416.4401,601.4987)"><path id="path31100" d="m 0,0 -1.053,-9.652 1.378,-0.103 -0.299,-4.012 -1.673,0.124 -0.4,-5.39 1.673,-0.124 -0.297,-4.013 -1.674,0.124 -0.4,-5.388 1.674,-0.125 -0.301,-4.051 -1.673,0.123 -0.398,-5.349 1.674,-0.125 -0.301,-4.051 -1.673,0.125 -0.4,-5.392 1.673,-0.123 -0.297,-4.014 -1.675,0.124 -0.399,-5.389 1.674,-0.125 -0.298,-4.011 -1.673,0.123 -0.4,-5.388 1.673,-0.125 -0.298,-4.013 -1.673,0.125 -0.4,-5.39 1.674,-0.124 -0.298,-4.013 -1.674,0.123 -0.4,-5.387 1.674,-0.125 -0.21,-2.824 -1.674,0.124 -0.263,-3.567 1.673,-0.124 -0.158,-2.118 -1.673,0.122 -0.104,-1.412 16.781,-1.244 6.465,93.88 z" style="fill:#c7c8ca;fill-opacity:1;fill-rule:nonzero;stroke:none" /></g></g></g>
    <g transform="matrix(0.98,0,0,-0.98,-390.38017,718.24098)"><g transform="translate(4.33,-2.75)"><g transform="translate(416.4401,601.4987)"><path id="path31104" d="m 0,0 -1.053,-9.652 1.378,-0.103 -0.299,-4.012 -1.673,0.124 -0.4,-5.39 1.673,-0.124 -0.297,-4.013 -1.674,0.124 -0.4,-5.388 1.674,-0.125 -0.301,-4.051 -1.673,0.123 -0.398,-5.349 1.674,-0.125 -0.301,-4.051 -1.673,0.125 -0.4,-5.392 1.673,-0.123 -0.297,-4.014 -1.675,0.124 -0.399,-5.389 1.674,-0.125 -0.298,-4.011 -1.673,0.123 -0.4,-5.388 1.673,-0.125 -0.298,-4.013 -1.673,0.125 -0.4,-5.39 1.674,-0.124 -0.298,-4.013 -1.674,0.123 -0.4,-5.387 1.674,-0.125 -0.21,-2.824 -1.674,0.124 -0.263,-3.567 1.673,-0.124 -0.158,-2.118 -1.673,0.122 -0.104,-1.412 16.781,-1.244 6.465,93.88 z" style="fill:none;stroke:#000000;stroke-width:0.966;stroke-linecap:butt;stroke-linejoin:miter;stroke-miterlimit:4;stroke-dasharray:none;stroke-opacity:1" /></g></g></g>
    <g transform="matrix(0.98,0,0,-0.98,-390.38017,718.24098)"><g transform="translate(4.33,-2.75)"><g transform="translate(476.5085,715.5739)"><path id="path30342" d="m 0,0 h 14.134 l 2.624,-4.798 H -2.625 Z" style="fill:#c7c8ca;fill-opacity:1;fill-rule:nonzero;stroke:none" /></g></g></g>
    <g transform="matrix(0.98,0,0,-0.98,-390.38017,718.24098)"><g transform="translate(4.33,-2.75)"><g transform="translate(475.6633,695.3539)"><path id="path30346" d="M 0,0 0.966,2.008 H 14.858 L 15.824,0 h 3.192 L 17.611,13.847 H -1.77 L -3.193,0 Z" style="fill:#c7c8ca;fill-opacity:1;fill-rule:nonzero;stroke:none" /></g></g></g>
    <g transform="matrix(0.98,0,0,-0.98,-390.38017,718.24098)"><g transform="translate(4.33,-2.75)"><g transform="translate(499.9924,699.4977)"><path id="path30350" d="M 0,0 -3.405,-2.544 -4.809,7.469 Z" style="fill:#c7c8ca;fill-opacity:1;fill-rule:nonzero;stroke:none" /></g></g></g>
    <g transform="matrix(0.98,0,0,-0.98,-390.38017,718.24098)"><g transform="translate(4.33,-2.75)"><g transform="translate(467.1579,699.4977)"><path id="path30354" d="M 0,0 3.405,-2.544 4.809,7.469 Z" style="fill:#c7c8ca;fill-opacity:1;fill-rule:nonzero;stroke:none" /></g></g></g>
    <g transform="matrix(0.98,0,0,-0.98,-390.38017,718.24098)"><g transform="translate(4.33,-2.75)"><g transform="translate(416.4401,601.4987)"><path id="path875" d="m 0,0 -1.053,-9.652 1.378,-0.103 -0.299,-4.012 -1.673,0.124 -0.4,-5.39 1.673,-0.124 -0.297,-4.013 -1.674,0.124 -0.4,-5.388 1.674,-0.125 -0.301,-4.051 -1.673,0.123 -0.398,-5.349 1.674,-0.125 -0.301,-4.051 -1.673,0.125 -0.4,-5.392 1.673,-0.123 -0.297,-4.014 -1.675,0.124 -0.399,-5.389 1.674,-0.125 -0.298,-4.011 -1.673,0.123 -0.4,-5.388 1.673,-0.125 -0.298,-4.013 -1.673,0.125 -0.4,-5.39 1.674,-0.124 -0.298,-4.013 -1.674,0.123 -0.4,-5.387 1.674,-0.125 -0.21,-2.824 -1.674,0.124 -0.263,-3.567 1.673,-0.124 -0.158,-2.118 -1.673,0.122 -0.104,-1.412 16.781,-1.244 6.465,93.88 z" style="fill:none;stroke:#000000;stroke-width:0.966;stroke-linecap:butt;stroke-linejoin:miter;stroke-miterlimit:4;stroke-dasharray:none;stroke-opacity:1" /></g></g></g>
    <g transform="matrix(0.98,0,0,-0.98,-390.38017,718.24098)"><g transform="translate(4.33,-2.75)"><g transform="translate(477.4075,506.5023)"><path class="armor unitLocation" id="paperdoll-art-armor-RLL-armorRLL" loc="RLL" d="M 0,0 H 1.28 C 1.279,3.963 -2.547,8.009 -8.26,10.337 l 1.856,1.985 -0.001,5.477 1.28,70.299 -1.28,2.738 0.001,5.477 2.561,1.369 v 15.06 l -2.561,1.369 v 5.478 l 1.28,2.737 -1.28,5.002 h -25.615 l -1.282,-6.371 1.281,-2.739 v -4.107 l -2.562,-1.369 v -15.06 l 2.562,-1.369 v -5.477 l -1.281,-2.738 1.282,-70.299 v -5.477 l 2.215,-2.369 C -35.008,7.578 -38.424,3.747 -38.425,0 h 1.281 v -1.369 l -1.28,-1.369 V -5.476 H 1.28 v 2.738 L 0,-1.369 Z" style="fill:#ffffff;fill-opacity:1;fill-rule:nonzero;stroke:none" /></g></g></g>
    <g transform="matrix(0.98,0,0,-0.98,-390.38017,718.24098)"><g transform="translate(4.33,-2.75)"><g transform="translate(477.4075,506.5023)"><path id="path31120" d="M 0,0 H 1.28 C 1.279,3.963 -2.547,8.009 -8.26,10.337 l 1.856,1.985 -0.001,5.477 1.28,70.299 -1.28,2.738 0.001,5.477 2.561,1.369 v 15.06 l -2.561,1.369 v 5.478 l 1.28,2.737 -1.28,5.002 h -25.615 l -1.282,-6.371 1.281,-2.739 v -4.107 l -2.562,-1.369 v -15.06 l 2.562,-1.369 v -5.477 l -1.281,-2.738 1.282,-70.299 v -5.477 l 2.215,-2.369 C -35.008,7.578 -38.424,3.747 -38.425,0 h 1.281 v -1.369 l -1.28,-1.369 V -5.476 H 1.28 v 2.738 L 0,-1.369 Z" style="fill:none;stroke:#000000;stroke-width:1.449;stroke-linecap:butt;stroke-linejoin:miter;stroke-miterlimit:2.414;stroke-dasharray:none;stroke-opacity:1" /></g></g></g>
    <g transform="matrix(0.98,0,0,-0.98,-390.38017,718.24098)"><g transform="translate(4.33,-2.75)"><g transform="translate(405.9961,495.3141)"><path class="armor unitLocation" id="paperdoll-art-armor-FLL-armorFLL" loc="FLL" d="m 0,0 h -1.37 c 0.001,4.19 4.394,8.482 10.886,10.806 l 4.956,80.509 0.172,1.945 c -2.372,1.761 -2.802,4.179 -3.722,7.123 l -1.144,0.1 1.013,11.588 1.143,-0.1 4.904,6.37 0.169,1.945 -4.973,3.017 1.901,7 1.368,4.107 1.37,2.739 1.369,1.369 2.739,1.368 h 7.971 20.535 l -0.529,-17.999 -1.615,-2.776 -0.508,-5.796 2.6,-1.688 -1.393,-15.932 -2.854,-1.212 -0.51,-5.792 1.111,-3.018 L 39.253,23.212 38.097,9.986 36.415,8.486 C 40.835,6.13 43.811,3.038 43.812,0 h -1.368 v -1.394 l 1.368,-1.397 v -2.79 H -1.369 v 2.79 L 0,-1.394 Z" style="fill:#ffffff;fill-opacity:1;fill-rule:nonzero;stroke:none" /></g></g></g>
    <g transform="matrix(0.98,0,0,-0.98,-390.38017,718.24098)"><g transform="translate(4.33,-2.75)"><g transform="translate(405.9961,495.3141)"><path id="path31128" d="m 0,0 h -1.37 c 0.001,4.19 4.394,8.482 10.886,10.806 l 4.956,80.509 0.172,1.945 c -2.372,1.761 -2.802,4.179 -3.722,7.123 l -1.144,0.1 1.013,11.588 1.143,-0.1 4.904,6.37 0.169,1.945 -4.973,3.017 1.901,7 1.368,4.107 1.37,2.739 1.369,1.369 2.739,1.368 h 7.971 20.535 l -0.529,-17.999 -1.615,-2.776 -0.508,-5.796 2.6,-1.688 -1.393,-15.932 -2.854,-1.212 -0.51,-5.792 1.111,-3.018 L 39.253,23.212 38.097,9.986 36.415,8.486 C 40.835,6.13 43.811,3.038 43.812,0 h -1.368 v -1.394 l 1.368,-1.397 v -2.79 H -1.369 v 2.79 L 0,-1.394 Z" style="fill:none;stroke:#000000;stroke-width:1.449;stroke-linecap:butt;stroke-linejoin:miter;stroke-miterlimit:2.414;stroke-dasharray:none;stroke-opacity:1" /></g></g></g>
    <g transform="matrix(0.98,0,0,-0.98,-390.38017,718.24098)"><g transform="translate(4.33,-2.75)"><g transform="translate(551.3981,601.4987)"><path id="path31132" d="m 0,0 1.051,-9.652 -1.376,-0.103 0.298,-4.012 1.673,0.124 0.4,-5.39 -1.673,-0.124 0.297,-4.013 1.674,0.124 0.4,-5.388 -1.674,-0.125 0.302,-4.051 1.673,0.123 0.397,-5.349 -1.674,-0.125 0.3,-4.051 1.673,0.125 0.401,-5.392 -1.674,-0.123 0.298,-4.014 1.674,0.124 0.4,-5.389 -1.674,-0.125 0.298,-4.011 1.673,0.123 0.4,-5.388 -1.673,-0.125 0.297,-4.013 1.675,0.125 0.399,-5.39 -1.674,-0.124 0.297,-4.013 1.674,0.123 0.4,-5.387 -1.674,-0.125 0.21,-2.824 1.675,0.124 0.263,-3.567 -1.673,-0.124 0.158,-2.118 1.673,0.122 0.104,-1.412 -16.781,-1.244 -6.464,93.88 z" style="fill:#c7c8ca;fill-opacity:1;fill-rule:nonzero;stroke:none" /></g></g></g>
    <g transform="matrix(0.98,0,0,-0.98,-390.38017,718.24098)"><g transform="translate(4.33,-2.75)"><g transform="translate(551.3981,601.4987)"><path id="path31136" d="m 0,0 1.051,-9.652 -1.376,-0.103 0.298,-4.012 1.673,0.124 0.4,-5.39 -1.673,-0.124 0.297,-4.013 1.674,0.124 0.4,-5.388 -1.674,-0.125 0.302,-4.051 1.673,0.123 0.397,-5.349 -1.674,-0.125 0.3,-4.051 1.673,0.125 0.401,-5.392 -1.674,-0.123 0.298,-4.014 1.674,0.124 0.4,-5.389 -1.674,-0.125 0.298,-4.011 1.673,0.123 0.4,-5.388 -1.673,-0.125 0.297,-4.013 1.675,0.125 0.399,-5.39 -1.674,-0.124 0.297,-4.013 1.674,0.123 0.4,-5.387 -1.674,-0.125 0.21,-2.824 1.675,0.124 0.263,-3.567 -1.673,-0.124 0.158,-2.118 1.673,0.122 0.104,-1.412 -16.781,-1.244 -6.464,93.88 z" style="fill:none;stroke:#000000;stroke-width:0.966;stroke-linecap:butt;stroke-linejoin:miter;stroke-miterlimit:4;stroke-dasharray:none;stroke-opacity:1" /></g></g></g>
    <g transform="matrix(0.98,0,0,-0.98,-390.38017,718.24098)"><g transform="translate(4.33,-2.75)"><g transform="translate(488.9485,506.5023)"><path class="armor unitLocation" id="paperdoll-art-armor-RRL-armorRRL" loc="RRL" d="m 0,0 h -1.28 c 0.001,3.963 3.827,8.009 9.54,10.337 l -1.856,1.985 0.001,5.477 -1.28,70.299 1.28,2.738 -0.001,5.477 -2.561,1.369 v 15.06 l 2.561,1.369 v 5.478 l -1.28,2.737 1.28,5.002 h 25.615 l 1.282,-6.371 -1.281,-2.739 v -4.107 l 2.562,-1.369 V 97.682 L 32.02,96.313 V 90.836 L 33.301,88.098 32.019,17.799 V 12.322 L 29.805,9.953 C 35.008,7.578 38.424,3.747 38.425,0 h -1.281 v -1.369 l 1.28,-1.369 V -5.476 H -1.28 v 2.738 L 0,-1.369 Z" style="fill:#ffffff;fill-opacity:1;fill-rule:nonzero;stroke:none" /></g></g></g>
    <g transform="matrix(0.98,0,0,-0.98,-390.38017,718.24098)"><g transform="translate(4.33,-2.75)"><g transform="translate(488.9485,506.5023)"><path id="path31144" d="m 0,0 h -1.28 c 0.001,3.963 3.827,8.009 9.54,10.337 l -1.856,1.985 0.001,5.477 -1.28,70.299 1.28,2.738 -0.001,5.477 -2.561,1.369 v 15.06 l 2.561,1.369 v 5.478 l -1.28,2.737 1.28,5.002 h 25.615 l 1.282,-6.371 -1.281,-2.739 v -4.107 l 2.562,-1.369 V 97.682 L 32.02,96.313 V 90.836 L 33.301,88.098 32.019,17.799 V 12.322 L 29.805,9.953 C 35.008,7.578 38.424,3.747 38.425,0 h -1.281 v -1.369 l 1.28,-1.369 V -5.476 H -1.28 v 2.738 L 0,-1.369 Z" style="fill:none;stroke:#000000;stroke-width:1.449;stroke-linecap:butt;stroke-linejoin:miter;stroke-miterlimit:2.414;stroke-dasharray:none;stroke-opacity:1" /></g></g></g>
    <g transform="matrix(0.98,0,0,-0.98,-390.38017,718.24098)"><g transform="translate(4.33,-2.75)"><g transform="translate(561.8409,495.3141)"><path class="armor unitLocation" id="paperdoll-art-armor-FRL-armorFRL" loc="FRL" d="M 0,0 H 1.37 C 1.369,4.19 -3.024,8.482 -9.516,10.806 l -4.957,80.509 -0.17,1.945 c 2.372,1.761 2.802,4.179 3.722,7.123 l 1.142,0.1 -1.013,11.588 -1.144,-0.1 -4.901,6.37 -0.171,1.945 4.975,3.017 -1.902,7 -1.368,4.107 -1.37,2.739 -1.369,1.369 -2.739,1.368 h -7.971 -20.536 l 0.529,-17.999 1.617,-2.776 0.506,-5.796 -2.6,-1.688 1.395,-15.932 2.854,-1.212 0.508,-5.792 -1.111,-3.018 6.337,-62.461 1.156,-13.226 1.682,-1.5 C -40.836,6.13 -43.812,3.038 -43.812,0 h 1.368 v -1.394 l -1.368,-1.397 v -2.79 H 1.369 v 2.79 L 0,-1.394 Z" style="fill:#ffffff;fill-opacity:1;fill-rule:nonzero;stroke:none" /></g></g></g>
    <g transform="matrix(0.98,0,0,-0.98,-390.38017,718.24098)"><g transform="translate(4.33,-2.75)"><g transform="translate(561.8409,495.3141)"><path id="path31152" d="M 0,0 H 1.37 C 1.369,4.19 -3.024,8.482 -9.516,10.806 l -4.957,80.509 -0.17,1.945 c 2.372,1.761 2.802,4.179 3.722,7.123 l 1.142,0.1 -1.013,11.588 -1.144,-0.1 -4.901,6.37 -0.171,1.945 4.975,3.017 -1.902,7 -1.368,4.107 -1.37,2.739 -1.369,1.369 -2.739,1.368 h -7.971 -20.536 l 0.529,-17.999 1.617,-2.776 0.506,-5.796 -2.6,-1.688 1.395,-15.932 2.854,-1.212 0.508,-5.792 -1.111,-3.018 6.337,-62.461 1.156,-13.226 1.682,-1.5 C -40.836,6.13 -43.812,3.038 -43.812,0 h 1.368 v -1.394 l -1.368,-1.397 v -2.79 H 1.369 v 2.79 L 0,-1.394 Z" style="fill:none;stroke:#000000;stroke-width:1.449;stroke-linecap:butt;stroke-linejoin:miter;stroke-miterlimit:2.414;stroke-dasharray:none;stroke-opacity:1" /></g></g></g>
    <g transform="matrix(0.98,0,0,-0.98,-390.38017,718.24098)"><g transform="translate(4.33,-2.75)"><g transform="translate(458.8148,696.1407)"><path class="armor unitLocation" id="paperdoll-art-armor-LT-armorLT" loc="LT" d="m 0,0 -5.447,13.637 -14.769,0.143 -8.165,5.985 h -18.567 l -8.165,-5.985 v -34.617 l 8.165,-5.985 h 18.567 l 5.402,3.961 10.737,-27.613 -6.081,-0.964 -0.499,-0.62 -1.097,-13.108 1.097,-0.905 h 14.333 3.239 15.769 z" style="fill:#ffffff;fill-opacity:1;fill-rule:nonzero;stroke:none" /></g></g></g>
    <g transform="matrix(0.98,0,0,-0.98,-390.38017,718.24098)"><g transform="translate(4.33,-2.75)"><g transform="translate(458.8148,696.1407)"><path id="path31160" d="m 0,0 -5.447,13.637 -14.769,0.143 -8.165,5.985 h -18.567 l -8.165,-5.985 v -34.617 l 8.165,-5.985 h 18.567 l 5.402,3.961 10.737,-27.613 -6.081,-0.964 -0.499,-0.62 -1.097,-13.108 1.097,-0.905 h 14.333 3.239 15.769 z" style="fill:none;stroke:#000000;stroke-width:1.449;stroke-linecap:butt;stroke-linejoin:miter;stroke-miterlimit:4;stroke-dasharray:none;stroke-opacity:1" /></g></g></g>
    <g transform="matrix(0.98,0,0,-0.98,-390.38017,718.24098)"><g transform="translate(4.33,-2.75)"><g transform="translate(508.5657,696.1407)"><path class="armor unitLocation" id="paperdoll-art-armor-RT-armorRT" loc="RT" d="m 0,0 5.447,13.637 14.769,0.143 8.165,5.985 h 18.567 l 8.165,-5.985 v -34.617 l -8.165,-5.985 H 28.381 l -5.403,3.961 -10.736,-27.613 6.081,-0.964 0.499,-0.62 1.097,-13.108 -1.097,-0.905 H 4.489 1.251 -14.518 Z" style="fill:#ffffff;fill-opacity:1;fill-rule:nonzero;stroke:none" /></g></g></g>
    <g transform="matrix(0.98,0,0,-0.98,-390.38017,718.24098)"><g transform="translate(4.33,-2.75)"><g transform="translate(508.5657,696.1407)"><path id="path31168" d="m 0,0 5.447,13.637 14.769,0.143 8.165,5.985 h 18.567 l 8.165,-5.985 v -34.617 l -8.165,-5.985 H 28.381 l -5.403,3.961 -10.736,-27.613 6.081,-0.964 0.499,-0.62 1.097,-13.108 -1.097,-0.905 H 4.489 1.251 -14.518 Z" style="fill:none;stroke:#000000;stroke-width:1.449;stroke-linecap:butt;stroke-linejoin:miter;stroke-miterlimit:4;stroke-dasharray:none;stroke-opacity:1" /></g></g></g>
    <g transform="matrix(0.98,0,0,-0.98,-390.38017,718.24098)"><g transform="translate(4.33,-2.75)"><g transform="translate(505.5234,630.0702)"><path class="armor unitLocation" id="paperdoll-art-armor-CT-armorCT" loc="CT" d="m 0,0 h -43.811 l 2.649,29.85 -10.993,49.744 16.954,-1.062 H -8.705 L 8.251,79.594 -2.648,29.85 Z" style="fill:#ffffff;fill-opacity:1;fill-rule:nonzero;stroke:none" /></g></g></g>
    <g transform="matrix(0.98,0,0,-0.98,-390.38017,718.24098)"><g transform="translate(4.33,-2.75)"><g transform="translate(505.5234,630.0702)"><path id="path31176" d="m 0,0 h -43.811 l 2.649,29.85 -10.993,49.744 16.954,-1.062 H -8.705 L 8.251,79.594 -2.648,29.85 Z" style="fill:none;stroke:#000000;stroke-width:1.449;stroke-linecap:butt;stroke-linejoin:miter;stroke-miterlimit:4;stroke-dasharray:none;stroke-opacity:1" /></g></g></g>
    <g transform="matrix(0.98,0,0,-0.98,-390.38017,718.24098)"><g transform="translate(4.33,-2.75)"><g transform="translate(463.674,698.8458)"><path class="armor unitLocation" id="paperdoll-art-armor-HD-armorHD" loc="HD" d="M 0,0 8.088,-5.774 H 32.213 L 40.4,0 28.663,18.859 H 11.639 Z" style="fill:#ffffff;fill-opacity:1;fill-rule:nonzero;stroke:none" /></g></g></g>
    <g transform="matrix(0.98,0,0,-0.98,-390.38017,718.24098)"><g transform="translate(4.33,-2.75)"><g transform="translate(463.674,698.8458)"><path id="path31184" d="M 0,0 8.088,-5.774 H 32.213 L 40.4,0 28.663,18.859 H 11.639 Z" style="fill:none;stroke:#000000;stroke-width:1.449;stroke-linecap:butt;stroke-linejoin:miter;stroke-miterlimit:4;stroke-dasharray:none;stroke-opacity:1" /></g></g></g>
    <g transform="matrix(0.98,0,0,-0.98,-390.38017,718.24098)"><g transform="matrix(1,0,0,-1,0,765)"><g transform="translate(475.6,48.745)"><rect fill="none" height="6.1515198" id="armorHDRow00" width="12.6" x="6.0999999" y="5.3271999" /></g></g></g>
    <g transform="matrix(0.98,0,0,-0.98,-390.38017,718.24098)"><g transform="matrix(1,0,0,-1,0,765)"><g transform="translate(475.6,48.745)"><rect fill="none" height="6.1515198" id="armorHDRow01" width="24.799999" x="0" y="10.6544" /></g></g></g>
    <g transform="matrix(0.98,0,0,-0.98,-390.38017,718.24098)"><g transform="matrix(1,0,0,-1,0,765)"><g transform="translate(475.6,48.745)"><rect fill="none" height="6.1515198" id="armorHDRow02" width="24.799999" x="0" y="15.9816" /></g></g></g>
    <g transform="matrix(0.98,0,0,-0.98,-390.38017,718.24098)"><g transform="matrix(1,0,0,-1,0,765)"><g transform="translate(463.95,76.18)"><rect fill="none" height="6.1515198" id="armorCTRow00" width="48.240002" x="0" y="0" /></g></g></g>
    <g transform="matrix(0.98,0,0,-0.98,-390.38017,718.24098)"><g transform="matrix(1,0,0,-1,0,765)"><g transform="translate(463.95,76.18)"><rect fill="none" height="6.1515198" id="armorCTRow01" width="45.779999" x="1.23" y="5.3271999" /></g></g></g>
    <g transform="matrix(0.98,0,0,-0.98,-390.38017,718.24098)"><g transform="matrix(1,0,0,-1,0,765)"><g transform="translate(463.95,76.18)"><rect fill="none" height="6.1515198" id="armorCTRow02" width="43.32" x="2.46" y="10.6544" /></g></g></g>
    <g transform="matrix(0.98,0,0,-0.98,-390.38017,718.24098)"><g transform="matrix(1,0,0,-1,0,765)"><g transform="translate(463.95,76.18)"><rect fill="none" height="6.1515198" id="armorCTRow03" width="40.860001" x="3.6900001" y="15.9816" /></g></g></g>
    <g transform="matrix(0.98,0,0,-0.98,-390.38017,718.24098)"><g transform="matrix(1,0,0,-1,0,765)"><g transform="translate(463.95,76.18)"><rect fill="none" height="6.1515198" id="armorCTRow04" width="38.400002" x="4.9200001" y="21.3088" /></g></g></g>
    <g transform="matrix(0.98,0,0,-0.98,-390.38017,718.24098)"><g transform="matrix(1,0,0,-1,0,765)"><g transform="translate(463.95,76.18)"><rect fill="none" height="6.1515198" id="armorCTRow05" width="36.439999" x="5.9000001" y="26.636" /></g></g></g>
    <g transform="matrix(0.98,0,0,-0.98,-390.38017,718.24098)"><g transform="matrix(1,0,0,-1,0,765)"><g transform="translate(463.95,76.18)"><rect fill="none" height="6.1515198" id="armorCTRow06" width="36.439999" x="5.9000001" y="31.9632" /></g></g></g>
    <g transform="matrix(0.98,0,0,-0.98,-390.38017,718.24098)"><g transform="matrix(1,0,0,-1,0,765)"><g transform="translate(463.95,76.18)"><rect fill="none" height="6.1515198" id="armorCTRow07" width="37.419998" x="5.4099998" y="37.290401" /></g></g></g>
    <g transform="matrix(0.98,0,0,-0.98,-390.38017,718.24098)"><g transform="matrix(1,0,0,-1,0,765)"><g transform="translate(463.95,76.18)"><rect fill="none" height="6.1515198" id="armorCTRow08" width="38.400002" x="4.9200001" y="42.617599" /></g></g></g>
    <g transform="matrix(0.98,0,0,-0.98,-390.38017,718.24098)"><g transform="matrix(1,0,0,-1,0,765)"><g transform="translate(463.95,76.18)"><rect fill="none" height="6.1515198" id="armorCTRow09" width="39.380001" x="4.4299998" y="47.944901" /></g></g></g>
    <g transform="matrix(0.98,0,0,-0.98,-390.38017,718.24098)"><g transform="matrix(1,0,0,-1,0,765)"><g transform="translate(463.95,76.18)"><rect fill="none" height="6.1515198" id="armorCTRow10" width="40.360001" x="3.9400001" y="53.272202" /></g></g></g>
    <g transform="matrix(0.98,0,0,-0.98,-390.38017,718.24098)"><g transform="matrix(1,0,0,-1,0,765)"><g transform="translate(509.44,54.53368)"><rect fill="none" height="6.1515198" id="armorRTRow00" width="22.639999" x="29.93" y="0" /></g></g></g>
    <g transform="matrix(0.98,0,0,-0.98,-390.38017,718.24098)"><g transform="matrix(1,0,0,-1,0,765)"><g transform="translate(509.44,54.53368)"><rect fill="none" height="6.1515198" id="armorRTRow01" width="48.439999" x="9.4499998" y="5.3271999" /></g></g></g>
    <g transform="matrix(0.98,0,0,-0.98,-390.38017,718.24098)"><g transform="matrix(1,0,0,-1,0,765)"><g transform="translate(509.44,54.53368)"><rect fill="none" height="6.1515198" id="armorRTRow02" width="49.619999" x="8.2700005" y="10.6544" /></g></g></g>
    <g transform="matrix(0.98,0,0,-0.98,-390.38017,718.24098)"><g transform="matrix(1,0,0,-1,0,765)"><g transform="translate(509.44,54.53368)"><rect fill="none" height="6.1515198" id="armorRTRow03" width="50.080002" x="7.0900002" y="15.9816" /></g></g></g>
    <g transform="matrix(0.98,0,0,-0.98,-390.38017,718.24098)"><g transform="matrix(1,0,0,-1,0,765)"><g transform="translate(509.44,54.53368)"><rect fill="none" height="6.1515198" id="armorRTRow04" width="51.98" x="5.9099998" y="21.3088" /></g></g></g>
    <g transform="matrix(0.98,0,0,-0.98,-390.38017,718.24098)"><g transform="matrix(1,0,0,-1,0,765)"><g transform="translate(509.44,54.53368)"><rect fill="none" height="6.1515198" id="armorRTRow05" width="53.16" x="4.73" y="26.636" /></g></g></g>
    <g transform="matrix(0.98,0,0,-0.98,-390.38017,718.24098)"><g transform="matrix(1,0,0,-1,0,765)"><g transform="translate(509.44,54.53368)"><rect fill="none" height="6.1515198" id="armorRTRow06" width="54.349998" x="3.54" y="31.9632" /></g></g></g>
    <g transform="matrix(0.98,0,0,-0.98,-390.38017,718.24098)"><g transform="matrix(1,0,0,-1,0,765)"><g transform="translate(509.44,54.53368)"><rect fill="none" height="6.1515198" id="armorRTRow07" width="21.780001" x="2.3599999" y="37.290401" /></g></g></g>
    <g transform="matrix(0.98,0,0,-0.98,-390.38017,718.24098)"><g transform="matrix(1,0,0,-1,0,765)"><g transform="translate(509.44,54.53368)"><rect fill="none" height="6.1515198" id="armorRTRow08" width="20.870001" x="1.1799999" y="42.617599" /></g></g></g>
    <g transform="matrix(0.98,0,0,-0.98,-390.38017,718.24098)"><g transform="matrix(1,0,0,-1,0,765)"><g transform="translate(509.44,54.53368)"><rect fill="none" height="6.1515198" id="armorRTRow09" width="19.879999" x="0" y="47.944901" /></g></g></g>
    <g transform="matrix(0.98,0,0,-0.98,-390.38017,718.24098)"><g transform="matrix(1,0,0,-1,0,765)"><g transform="translate(509.44,54.53368)"><rect fill="none" height="6.1515198" id="armorRTRow10" width="17.219999" x="0" y="53.272202" /></g></g></g>
    <g transform="matrix(0.98,0,0,-0.98,-390.38017,718.24098)"><g transform="matrix(1,0,0,-1,0,765)"><g transform="translate(509.44,54.53368)"><rect fill="none" height="6.1515198" id="armorRTRow11" width="15.65" x="0.30000001" y="58.5994" /></g></g></g>
    <g transform="matrix(0.98,0,0,-0.98,-390.38017,718.24098)"><g transform="matrix(1,0,0,-1,0,765)"><g transform="translate(509.44,54.53368)"><rect fill="none" height="6.1515198" id="armorRTRow12" width="14.17" x="0.58999997" y="63.926601" /></g></g></g>
    <g transform="matrix(0.98,0,0,-0.98,-390.38017,718.24098)"><g transform="matrix(1,0,0,-1,0,765)"><g transform="translate(509.44,54.53368)"><rect fill="none" height="6.1515198" id="armorRTRow13" width="20.809999" x="0.88999999" y="69.253601" /></g></g></g>
    <g transform="matrix(0.98,0,0,-0.98,-390.38017,718.24098)"><g transform="matrix(1,0,0,-1,0,765)"><g transform="translate(509.44,54.53368)"><rect fill="none" height="6.1515198" id="armorRTRow14" width="20.67" x="1.1799999" y="74.580803" /></g></g></g>
    <g transform="matrix(0.98,0,0,-0.98,-390.38017,718.24098)"><g transform="matrix(1,0,0,-1,0,765)"><g transform="matrix(-1,0,0,1,466.7,54.53368)"><rect fill="none" height="6.1515198" id="armorLTRow00" width="22.639999" x="29.93" y="0" /></g></g></g>
    <g transform="matrix(0.98,0,0,-0.98,-390.38017,718.24098)"><g transform="matrix(1,0,0,-1,0,765)"><g transform="matrix(-1,0,0,1,466.7,54.53368)"><rect fill="none" height="6.1515198" id="armorLTRow01" width="48.439999" x="9.4499998" y="5.3271999" /></g></g></g>
    <g transform="matrix(0.98,0,0,-0.98,-390.38017,718.24098)"><g transform="matrix(1,0,0,-1,0,765)"><g transform="matrix(-1,0,0,1,466.7,54.53368)"><rect fill="none" height="6.1515198" id="armorLTRow02" width="49.619999" x="8.2700005" y="10.6544" /></g></g></g>
    <g transform="matrix(0.98,0,0,-0.98,-390.38017,718.24098)"><g transform="matrix(1,0,0,-1,0,765)"><g transform="matrix(-1,0,0,1,466.7,54.53368)"><rect fill="none" height="6.1515198" id="armorLTRow03" width="50.080002" x="7.0900002" y="15.9816" /></g></g></g>
    <g transform="matrix(0.98,0,0,-0.98,-390.38017,718.24098)"><g transform="matrix(1,0,0,-1,0,765)"><g transform="matrix(-1,0,0,1,466.7,54.53368)"><rect fill="none" height="6.1515198" id="armorLTRow04" width="51.98" x="5.9099998" y="21.3088" /></g></g></g>
    <g transform="matrix(0.98,0,0,-0.98,-390.38017,718.24098)"><g transform="matrix(1,0,0,-1,0,765)"><g transform="matrix(-1,0,0,1,466.7,54.53368)"><rect fill="none" height="6.1515198" id="armorLTRow05" width="53.16" x="4.73" y="26.636" /></g></g></g>
    <g transform="matrix(0.98,0,0,-0.98,-390.38017,718.24098)"><g transform="matrix(1,0,0,-1,0,765)"><g transform="matrix(-1,0,0,1,466.7,54.53368)"><rect fill="none" height="6.1515198" id="armorLTRow06" width="54.349998" x="3.54" y="31.9632" /></g></g></g>
    <g transform="matrix(0.98,0,0,-0.98,-390.38017,718.24098)"><g transform="matrix(1,0,0,-1,0,765)"><g transform="matrix(-1,0,0,1,466.7,54.53368)"><rect fill="none" height="6.1515198" id="armorLTRow07" width="21.780001" x="2.3599999" y="37.290401" /></g></g></g>
    <g transform="matrix(0.98,0,0,-0.98,-390.38017,718.24098)"><g transform="matrix(1,0,0,-1,0,765)"><g transform="matrix(-1,0,0,1,466.7,54.53368)"><rect fill="none" height="6.1515198" id="armorLTRow08" width="20.870001" x="1.1799999" y="42.617599" /></g></g></g>
    <g transform="matrix(0.98,0,0,-0.98,-390.38017,718.24098)"><g transform="matrix(1,0,0,-1,0,765)"><g transform="matrix(-1,0,0,1,466.7,54.53368)"><rect fill="none" height="6.1515198" id="armorLTRow09" width="19.879999" x="0" y="47.944901" /></g></g></g>
    <g transform="matrix(0.98,0,0,-0.98,-390.38017,718.24098)"><g transform="matrix(1,0,0,-1,0,765)"><g transform="matrix(-1,0,0,1,466.7,54.53368)"><rect fill="none" height="6.1515198" id="armorLTRow10" width="17.219999" x="0" y="53.272202" /></g></g></g>
    <g transform="matrix(0.98,0,0,-0.98,-390.38017,718.24098)"><g transform="matrix(1,0,0,-1,0,765)"><g transform="matrix(-1,0,0,1,466.7,54.53368)"><rect fill="none" height="6.1515198" id="armorLTRow11" width="15.65" x="0.30000001" y="58.5994" /></g></g></g>
    <g transform="matrix(0.98,0,0,-0.98,-390.38017,718.24098)"><g transform="matrix(1,0,0,-1,0,765)"><g transform="matrix(-1,0,0,1,466.7,54.53368)"><rect fill="none" height="6.1515198" id="armorLTRow12" width="14.17" x="0.58999997" y="63.926601" /></g></g></g>
    <g transform="matrix(0.98,0,0,-0.98,-390.38017,718.24098)"><g transform="matrix(1,0,0,-1,0,765)"><g transform="matrix(-1,0,0,1,466.7,54.53368)"><rect fill="none" height="6.1515198" id="armorLTRow13" width="20.809999" x="0.88999999" y="69.253601" /></g></g></g>
    <g transform="matrix(0.98,0,0,-0.98,-390.38017,718.24098)"><g transform="matrix(1,0,0,-1,0,765)"><g transform="matrix(-1,0,0,1,466.7,54.53368)"><rect fill="none" height="6.1515198" id="armorLTRow14" width="20.67" x="1.1799999" y="74.580803" /></g></g></g>
    <g transform="matrix(0.98,0,0,-0.98,-390.38017,718.24098)"><g transform="matrix(1,0,0,-1,0,765)"><g transform="matrix(0.9962,-0.08715,0.08715,0.99619,519.439,142.3)"><rect fill="none" height="6.1515198" id="armorFRLRow00" width="29.799999" x="0" y="0" /></g></g></g>
    <g transform="matrix(0.98,0,0,-0.98,-390.38017,718.24098)"><g transform="matrix(1,0,0,-1,0,765)"><g transform="matrix(0.9962,-0.08715,0.08715,0.99619,519.439,142.3)"><rect fill="none" height="6.1515198" id="armorFRLRow01" width="27.559999" x="0" y="5.3271999" /></g></g></g>
    <g transform="matrix(0.98,0,0,-0.98,-390.38017,718.24098)"><g transform="matrix(1,0,0,-1,0,765)"><g transform="matrix(0.9962,-0.08715,0.08715,0.99619,519.439,142.3)"><rect fill="none" height="6.1515198" id="armorFRLRow02" width="27.559999" x="0" y="10.6544" /></g></g></g>
    <g transform="matrix(0.98,0,0,-0.98,-390.38017,718.24098)"><g transform="matrix(1,0,0,-1,0,765)"><g transform="matrix(0.9962,-0.08715,0.08715,0.99619,519.439,142.3)"><rect fill="none" height="6.1515198" id="armorFRLRow03" width="27.559999" x="0" y="15.9816" /></g></g></g>
    <g transform="matrix(0.98,0,0,-0.98,-390.38017,718.24098)"><g transform="matrix(1,0,0,-1,0,765)"><g transform="matrix(0.9962,-0.08715,0.08715,0.99619,519.439,142.3)"><rect fill="none" height="6.1515198" id="armorFRLRow04" width="27.559999" x="0" y="21.3088" /></g></g></g>
    <g transform="matrix(0.98,0,0,-0.98,-390.38017,718.24098)"><g transform="matrix(1,0,0,-1,0,765)"><g transform="matrix(0.9962,-0.08715,0.08715,0.99619,519.439,142.3)"><rect fill="none" height="6.1515198" id="armorFRLRow05" width="27.559999" x="0" y="26.636" /></g></g></g>
    <g transform="matrix(0.98,0,0,-0.98,-390.38017,718.24098)"><g transform="matrix(1,0,0,-1,0,765)"><g transform="matrix(0.9962,-0.08715,0.08715,0.99619,519.439,142.3)"><rect fill="none" height="6.1515198" id="armorFRLRow06" width="27.559999" x="0" y="31.9632" /></g></g></g>
    <g transform="matrix(0.98,0,0,-0.98,-390.38017,718.24098)"><g transform="matrix(1,0,0,-1,0,765)"><g transform="matrix(0.9962,-0.08715,0.08715,0.99619,519.439,142.3)"><rect fill="none" height="6.1515198" id="armorFRLRow07" width="27.559999" x="0" y="37.290401" /></g></g></g>
    <g transform="matrix(0.98,0,0,-0.98,-390.38017,718.24098)"><g transform="matrix(1,0,0,-1,0,765)"><g transform="matrix(0.9962,-0.08715,0.08715,0.99619,519.439,142.3)"><rect fill="none" height="6.1515198" id="armorFRLRow08" width="27.42" x="0" y="42.617599" /></g></g></g>
    <g transform="matrix(0.98,0,0,-0.98,-390.38017,718.24098)"><g transform="matrix(1,0,0,-1,0,765)"><g transform="matrix(0.9962,-0.08715,0.08715,0.99619,519.439,142.3)"><rect fill="none" height="6.1515198" id="armorFRLRow09" width="27.280001" x="0" y="47.944901" /></g></g></g>
    <g transform="matrix(0.98,0,0,-0.98,-390.38017,718.24098)"><g transform="matrix(1,0,0,-1,0,765)"><g transform="matrix(0.9962,-0.08715,0.08715,0.99619,519.439,142.3)"><rect fill="none" height="6.1515198" id="armorFRLRow10" width="27.139999" x="0" y="53.272202" /></g></g></g>
    <g transform="matrix(0.98,0,0,-0.98,-390.38017,718.24098)"><g transform="matrix(1,0,0,-1,0,765)"><g transform="matrix(0.9962,-0.08715,0.08715,0.99619,519.439,142.3)"><rect fill="none" height="6.1515198" id="armorFRLRow11" width="27" x="0" y="58.5994" /></g></g></g>
    <g transform="matrix(0.98,0,0,-0.98,-390.38017,718.24098)"><g transform="matrix(1,0,0,-1,0,765)"><g transform="matrix(0.9962,-0.08715,0.08715,0.99619,519.439,142.3)"><rect fill="none" height="6.1515198" id="armorFRLRow12" width="26.870001" x="0" y="63.926601" /></g></g></g>
    <g transform="matrix(0.98,0,0,-0.98,-390.38017,718.24098)"><g transform="matrix(1,0,0,-1,0,765)"><g transform="matrix(0.9962,-0.08715,0.08715,0.99619,519.439,142.3)"><rect fill="none" height="6.1515198" id="armorFRLRow13" width="26.73" x="0" y="69.253799" /></g></g></g>
    <g transform="matrix(0.98,0,0,-0.98,-390.38017,718.24098)"><g transform="matrix(1,0,0,-1,0,765)"><g transform="matrix(0.9962,-0.08715,0.08715,0.99619,519.439,142.3)"><rect fill="none" height="6.1515198" id="armorFRLRow14" width="26.59" x="0" y="74.581001" /></g></g></g>
    <g transform="matrix(0.98,0,0,-0.98,-390.38017,718.24098)"><g transform="matrix(1,0,0,-1,0,765)"><g transform="matrix(0.9962,-0.08715,0.08715,0.99619,519.439,142.3)"><rect fill="none" height="6.1515198" id="armorFRLRow15" width="26.450001" x="0" y="79.908203" /></g></g></g>
    <g transform="matrix(0.98,0,0,-0.98,-390.38017,718.24098)"><g transform="matrix(1,0,0,-1,0,765)"><g transform="matrix(0.9962,-0.08715,0.08715,0.99619,519.439,142.3)"><rect fill="none" height="6.1515198" id="armorFRLRow16" width="26.17" x="0" y="85.232597" /></g></g></g>
    <g transform="matrix(0.98,0,0,-0.98,-390.38017,718.24098)"><g transform="matrix(1,0,0,-1,0,765)"><g transform="matrix(0.9962,-0.08715,0.08715,0.99619,519.439,142.3)"><rect fill="none" height="6.1515198" id="armorFRLRow17" width="26.030001" x="0" y="90.562698" /></g></g></g>
    <g transform="matrix(0.98,0,0,-0.98,-390.38017,718.24098)"><g transform="matrix(1,0,0,-1,0,765)"><g transform="matrix(0.9962,-0.08715,0.08715,0.99619,519.439,142.3)"><rect fill="none" height="6.1515198" id="armorFRLRow18" width="25.9" x="0" y="95.889999" /></g></g></g>
    <g transform="matrix(0.98,0,0,-0.98,-390.38017,718.24098)"><g transform="matrix(1,0,0,-1,0,765)"><g transform="matrix(0.9962,-0.08715,0.08715,0.99619,519.439,142.3)"><rect fill="none" height="6.1515198" id="armorFRLRow19" width="25.76" x="0" y="101.2172" /></g></g></g>
    <g transform="matrix(0.98,0,0,-0.98,-390.38017,718.24098)"><g transform="matrix(1,0,0,-1,0,765)"><g transform="matrix(0.9962,-0.08715,0.08715,0.99619,519.439,142.3)"><rect fill="none" height="6.1515198" id="armorFRLRow20" width="25.620001" x="0" y="106.5444" /></g></g></g>
    <g transform="matrix(0.98,0,0,-0.98,-390.38017,718.24098)"><g transform="matrix(1,0,0,-1,0,765)"><g transform="matrix(0.9962,-0.08715,0.08715,0.99619,519.439,142.3)"><rect fill="none" height="6.1515198" id="armorFRLRow21" width="25.48" x="0" y="111.8716" /></g></g></g>
    <g transform="matrix(0.98,0,0,-0.98,-390.38017,718.24098)"><g transform="matrix(1,0,0,-1,0,765)"><g transform="matrix(0.9962,-0.08715,0.08715,0.99619,519.439,142.3)"><rect fill="none" height="6.1515198" id="armorFRLRow22" width="23.940001" x="1.4" y="117.1988" /></g></g></g>
    <g transform="matrix(0.98,0,0,-0.98,-390.38017,718.24098)"><g transform="matrix(1,0,0,-1,0,765)"><g transform="matrix(0.9962,-0.08715,0.08715,0.99619,519.439,142.3)"><rect fill="none" height="6.1515198" id="armorFRLRow23" width="24.139999" x="1.2" y="122.5261" /></g></g></g>
    <g transform="matrix(0.98,0,0,-0.98,-390.38017,718.24098)"><g transform="matrix(1,0,0,-1,0,765)"><g transform="matrix(0.9962,-0.08715,0.08715,0.99619,519.439,142.3)"><rect fill="none" height="6.1515198" id="armorFRLRow24" width="27.48" x="0" y="127.8533" /></g></g></g>
    <g transform="matrix(0.98,0,0,-0.98,-390.38017,718.24098)"><g transform="matrix(1,0,0,-1,0,765)"><g transform="matrix(-0.9962,-0.08715,-0.08715,0.99619,456.701,142.3)"><rect fill="none" height="6.1515198" id="armorFLLRow00" width="29.799999" x="0" y="0" /></g></g></g>
    <g transform="matrix(0.98,0,0,-0.98,-390.38017,718.24098)"><g transform="matrix(1,0,0,-1,0,765)"><g transform="matrix(-0.9962,-0.08715,-0.08715,0.99619,456.701,142.3)"><rect fill="none" height="6.1515198" id="armorFLLRow01" width="27.559999" x="0" y="5.3271999" /></g></g></g>
    <g transform="matrix(0.98,0,0,-0.98,-390.38017,718.24098)"><g transform="matrix(1,0,0,-1,0,765)"><g transform="matrix(-0.9962,-0.08715,-0.08715,0.99619,456.701,142.3)"><rect fill="none" height="6.1515198" id="armorFLLRow02" width="27.559999" x="0" y="10.6544" /></g></g></g>
    <g transform="matrix(0.98,0,0,-0.98,-390.38017,718.24098)"><g transform="matrix(1,0,0,-1,0,765)"><g transform="matrix(-0.9962,-0.08715,-0.08715,0.99619,456.701,142.3)"><rect fill="none" height="6.1515198" id="armorFLLRow03" width="27.559999" x="0" y="15.9816" /></g></g></g>
    <g transform="matrix(0.98,0,0,-0.98,-390.38017,718.24098)"><g transform="matrix(1,0,0,-1,0,765)"><g transform="matrix(-0.9962,-0.08715,-0.08715,0.99619,456.701,142.3)"><rect fill="none" height="6.1515198" id="armorFLLRow04" width="27.559999" x="0" y="21.3088" /></g></g></g>
    <g transform="matrix(0.98,0,0,-0.98,-390.38017,718.24098)"><g transform="matrix(1,0,0,-1,0,765)"><g transform="matrix(-0.9962,-0.08715,-0.08715,0.99619,456.701,142.3)"><rect fill="none" height="6.1515198" id="armorFLLRow05" width="27.559999" x="0" y="26.636" /></g></g></g>
    <g transform="matrix(0.98,0,0,-0.98,-390.38017,718.24098)"><g transform="matrix(1,0,0,-1,0,765)"><g transform="matrix(-0.9962,-0.08715,-0.08715,0.99619,456.701,142.3)"><rect fill="none" height="6.1515198" id="armorFLLRow06" width="27.559999" x="0" y="31.9632" /></g></g></g>
    <g transform="matrix(0.98,0,0,-0.98,-390.38017,718.24098)"><g transform="matrix(1,0,0,-1,0,765)"><g transform="matrix(-0.9962,-0.08715,-0.08715,0.99619,456.701,142.3)"><rect fill="none" height="6.1515198" id="armorFLLRow07" width="27.559999" x="0" y="37.290401" /></g></g></g>
    <g transform="matrix(0.98,0,0,-0.98,-390.38017,718.24098)"><g transform="matrix(1,0,0,-1,0,765)"><g transform="matrix(-0.9962,-0.08715,-0.08715,0.99619,456.701,142.3)"><rect fill="none" height="6.1515198" id="armorFLLRow08" width="27.42" x="0" y="42.617599" /></g></g></g>
    <g transform="matrix(0.98,0,0,-0.98,-390.38017,718.24098)"><g transform="matrix(1,0,0,-1,0,765)"><g transform="matrix(-0.9962,-0.08715,-0.08715,0.99619,456.701,142.3)"><rect fill="none" height="6.1515198" id="armorFLLRow09" width="27.280001" x="0" y="47.944901" /></g></g></g>
    <g transform="matrix(0.98,0,0,-0.98,-390.38017,718.24098)"><g transform="matrix(1,0,0,-1,0,765)"><g transform="matrix(-0.9962,-0.08715,-0.08715,0.99619,456.701,142.3)"><rect fill="none" height="6.1515198" id="armorFLLRow10" width="27.139999" x="0" y="53.272202" /></g></g></g>
    <g transform="matrix(0.98,0,0,-0.98,-390.38017,718.24098)"><g transform="matrix(1,0,0,-1,0,765)"><g transform="matrix(-0.9962,-0.08715,-0.08715,0.99619,456.701,142.3)"><rect fill="none" height="6.1515198" id="armorFLLRow11" width="27" x="0" y="58.5994" /></g></g></g>
    <g transform="matrix(0.98,0,0,-0.98,-390.38017,718.24098)"><g transform="matrix(1,0,0,-1,0,765)"><g transform="matrix(-0.9962,-0.08715,-0.08715,0.99619,456.701,142.3)"><rect fill="none" height="6.1515198" id="armorFLLRow12" width="26.870001" x="0" y="63.926601" /></g></g></g>
    <g transform="matrix(0.98,0,0,-0.98,-390.38017,718.24098)"><g transform="matrix(1,0,0,-1,0,765)"><g transform="matrix(-0.9962,-0.08715,-0.08715,0.99619,456.701,142.3)"><rect fill="none" height="6.1515198" id="armorFLLRow13" width="26.73" x="0" y="69.253799" /></g></g></g>
    <g transform="matrix(0.98,0,0,-0.98,-390.38017,718.24098)"><g transform="matrix(1,0,0,-1,0,765)"><g transform="matrix(-0.9962,-0.08715,-0.08715,0.99619,456.701,142.3)"><rect fill="none" height="6.1515198" id="armorFLLRow14" width="26.59" x="0" y="74.581001" /></g></g></g>
    <g transform="matrix(0.98,0,0,-0.98,-390.38017,718.24098)"><g transform="matrix(1,0,0,-1,0,765)"><g transform="matrix(-0.9962,-0.08715,-0.08715,0.99619,456.701,142.3)"><rect fill="none" height="6.1515198" id="armorFLLRow15" width="26.450001" x="0" y="79.908203" /></g></g></g>
    <g transform="matrix(0.98,0,0,-0.98,-390.38017,718.24098)"><g transform="matrix(1,0,0,-1,0,765)"><g transform="matrix(-0.9962,-0.08715,-0.08715,0.99619,456.701,142.3)"><rect fill="none" height="6.1515198" id="armorFLLRow16" width="26.17" x="0" y="85.232597" /></g></g></g>
    <g transform="matrix(0.98,0,0,-0.98,-390.38017,718.24098)"><g transform="matrix(1,0,0,-1,0,765)"><g transform="matrix(-0.9962,-0.08715,-0.08715,0.99619,456.701,142.3)"><rect fill="none" height="6.1515198" id="armorFLLRow17" width="26.030001" x="0" y="90.562698" /></g></g></g>
    <g transform="matrix(0.98,0,0,-0.98,-390.38017,718.24098)"><g transform="matrix(1,0,0,-1,0,765)"><g transform="matrix(-0.9962,-0.08715,-0.08715,0.99619,456.701,142.3)"><rect fill="none" height="6.1515198" id="armorFLLRow18" width="25.9" x="0" y="95.889999" /></g></g></g>
    <g transform="matrix(0.98,0,0,-0.98,-390.38017,718.24098)"><g transform="matrix(1,0,0,-1,0,765)"><g transform="matrix(-0.9962,-0.08715,-0.08715,0.99619,456.701,142.3)"><rect fill="none" height="6.1515198" id="armorFLLRow19" width="25.76" x="0" y="101.2172" /></g></g></g>
    <g transform="matrix(0.98,0,0,-0.98,-390.38017,718.24098)"><g transform="matrix(1,0,0,-1,0,765)"><g transform="matrix(-0.9962,-0.08715,-0.08715,0.99619,456.701,142.3)"><rect fill="none" height="6.1515198" id="armorFLLRow20" width="25.620001" x="0" y="106.5444" /></g></g></g>
    <g transform="matrix(0.98,0,0,-0.98,-390.38017,718.24098)"><g transform="matrix(1,0,0,-1,0,765)"><g transform="matrix(-0.9962,-0.08715,-0.08715,0.99619,456.701,142.3)"><rect fill="none" height="6.1515198" id="armorFLLRow21" width="25.48" x="0" y="111.8716" /></g></g></g>
    <g transform="matrix(0.98,0,0,-0.98,-390.38017,718.24098)"><g transform="matrix(1,0,0,-1,0,765)"><g transform="matrix(-0.9962,-0.08715,-0.08715,0.99619,456.701,142.3)"><rect fill="none" height="6.1515198" id="armorFLLRow22" width="23.940001" x="1.4" y="117.1988" /></g></g></g>
    <g transform="matrix(0.98,0,0,-0.98,-390.38017,718.24098)"><g transform="matrix(1,0,0,-1,0,765)"><g transform="matrix(-0.9962,-0.08715,-0.08715,0.99619,456.701,142.3)"><rect fill="none" height="6.1515198" id="armorFLLRow23" width="24.139999" x="1.2" y="122.5261" /></g></g></g>
    <g transform="matrix(0.98,0,0,-0.98,-390.38017,718.24098)"><g transform="matrix(1,0,0,-1,0,765)"><g transform="matrix(-0.9962,-0.08715,-0.08715,0.99619,456.701,142.3)"><rect fill="none" height="6.1515198" id="armorFLLRow24" width="27.48" x="0" y="127.8533" /></g></g></g>
    <g transform="matrix(0.98,0,0,-0.98,-390.38017,718.24098)"><g transform="matrix(1,0,0,-1,0,765)"><g transform="translate(501,140.49)"><rect fill="none" height="6.1515198" id="armorRRLRow00" width="15.32" x="0" y="0" /></g></g></g>
    <g transform="matrix(0.98,0,0,-0.98,-390.38017,718.24098)"><g transform="matrix(1,0,0,-1,0,765)"><g transform="translate(501,140.49)"><rect fill="none" height="6.1515198" id="armorRRLRow01" width="15.6" x="0" y="5.3271999" /></g></g></g>
    <g transform="matrix(0.98,0,0,-0.98,-390.38017,718.24098)"><g transform="matrix(1,0,0,-1,0,765)"><g transform="translate(501,140.49)"><rect fill="none" height="6.1515198" id="armorRRLRow02" width="15.32" x="0" y="10.6544" /></g></g></g>
    <g transform="matrix(0.98,0,0,-0.98,-390.38017,718.24098)"><g transform="matrix(1,0,0,-1,0,765)"><g transform="translate(501,140.49)"><rect fill="none" height="6.1515198" id="armorRRLRow03" width="15.04" x="0" y="15.9816" /></g></g></g>
    <g transform="matrix(0.98,0,0,-0.98,-390.38017,718.24098)"><g transform="matrix(1,0,0,-1,0,765)"><g transform="translate(501,140.49)"><rect fill="none" height="6.1515198" id="armorRRLRow04" width="15.2" x="0" y="21.3088" /></g></g></g>
    <g transform="matrix(0.98,0,0,-0.98,-390.38017,718.24098)"><g transform="matrix(1,0,0,-1,0,765)"><g transform="translate(501,140.49)"><rect fill="none" height="6.1515198" id="armorRRLRow05" width="15.6" x="0" y="26.636" /></g></g></g>
    <g transform="matrix(0.98,0,0,-0.98,-390.38017,718.24098)"><g transform="matrix(1,0,0,-1,0,765)"><g transform="translate(501,140.49)"><rect fill="none" height="6.1515198" id="armorRRLRow06" width="15.6" x="0" y="31.9632" /></g></g></g>
    <g transform="matrix(0.98,0,0,-0.98,-390.38017,718.24098)"><g transform="matrix(1,0,0,-1,0,765)"><g transform="translate(501,140.49)"><rect fill="none" height="6.1515198" id="armorRRLRow07" width="16.15" x="0" y="37.290401" /></g></g></g>
    <g transform="matrix(0.98,0,0,-0.98,-390.38017,718.24098)"><g transform="matrix(1,0,0,-1,0,765)"><g transform="translate(501,140.49)"><rect fill="none" height="6.1515198" id="armorRRLRow08" width="16.99" x="0" y="42.617599" /></g></g></g>
    <g transform="matrix(0.98,0,0,-0.98,-390.38017,718.24098)"><g transform="matrix(1,0,0,-1,0,765)"><g transform="translate(501,140.49)"><rect fill="none" height="6.1515198" id="armorRRLRow09" width="18.66" x="0" y="47.944901" /></g></g></g>
    <g transform="matrix(0.98,0,0,-0.98,-390.38017,718.24098)"><g transform="matrix(1,0,0,-1,0,765)"><g transform="translate(501,140.49)"><rect fill="none" height="6.1515198" id="armorRRLRow10" width="18.66" x="0" y="53.272202" /></g></g></g>
    <g transform="matrix(0.98,0,0,-0.98,-390.38017,718.24098)"><g transform="matrix(1,0,0,-1,0,765)"><g transform="translate(501,140.49)"><rect fill="none" height="6.1515198" id="armorRRLRow11" width="19.5" x="0" y="58.5994" /></g></g></g>
    <g transform="matrix(0.98,0,0,-0.98,-390.38017,718.24098)"><g transform="matrix(1,0,0,-1,0,765)"><g transform="translate(501,140.49)"><rect fill="none" height="6.1515198" id="armorRRLRow12" width="20.459999" x="0" y="63.926601" /></g></g></g>
    <g transform="matrix(0.98,0,0,-0.98,-390.38017,718.24098)"><g transform="matrix(1,0,0,-1,0,765)"><g transform="translate(501,140.49)"><rect fill="none" height="6.1515198" id="armorRRLRow13" width="21.07" x="0" y="69.253799" /></g></g></g>
    <g transform="matrix(0.98,0,0,-0.98,-390.38017,718.24098)"><g transform="matrix(1,0,0,-1,0,765)"><g transform="translate(501,140.49)"><rect fill="none" height="6.1515198" id="armorRRLRow14" width="21.700001" x="0" y="74.581001" /></g></g></g>
    <g transform="matrix(0.98,0,0,-0.98,-390.38017,718.24098)"><g transform="matrix(1,0,0,-1,0,765)"><g transform="translate(501,140.49)"><rect fill="none" height="6.1515198" id="armorRRLRow15" width="22.120001" x="0" y="79.908203" /></g></g></g>
    <g transform="matrix(0.98,0,0,-0.98,-390.38017,718.24098)"><g transform="matrix(1,0,0,-1,0,765)"><g transform="translate(501,140.49)"><rect fill="none" height="6.1515198" id="armorRRLRow16" width="22.629999" x="0" y="85.235497" /></g></g></g>
    <g transform="matrix(0.98,0,0,-0.98,-390.38017,718.24098)"><g transform="matrix(1,0,0,-1,0,765)"><g transform="translate(501,140.49)"><rect fill="none" height="6.1515198" id="armorRRLRow17" width="23.24" x="0" y="90.562698" /></g></g></g>
    <g transform="matrix(0.98,0,0,-0.98,-390.38017,718.24098)"><g transform="matrix(1,0,0,-1,0,765)"><g transform="translate(501,140.49)"><rect fill="none" height="6.1515198" id="armorRRLRow18" width="23.040001" x="0" y="95.8899" /></g></g></g>
    <g transform="matrix(0.98,0,0,-0.98,-390.38017,718.24098)"><g transform="matrix(1,0,0,-1,0,765)"><g transform="translate(501,140.49)"><rect fill="none" height="6.1515198" id="armorRRLRow19" width="23.040001" x="0" y="101.2171" /></g></g></g>
    <g transform="matrix(0.98,0,0,-0.98,-390.38017,718.24098)"><g transform="matrix(1,0,0,-1,0,765)"><g transform="translate(501,140.49)"><rect fill="none" height="6.1515198" id="armorRRLRow20" width="18.68" x="2" y="106.5443" /></g></g></g>
    <g transform="matrix(0.98,0,0,-0.98,-390.38017,718.24098)"><g transform="matrix(1,0,0,-1,0,765)"><g transform="translate(501,140.49)"><rect fill="none" height="6.1515198" id="armorRRLRow21" width="22" x="0" y="111.8716" /></g></g></g>
    <g transform="matrix(0.98,0,0,-0.98,-390.38017,718.24098)"><g transform="matrix(1,0,0,-1,0,765)"><g transform="translate(501,140.49)"><rect fill="none" height="6.1515198" id="armorRRLRow22" width="32.189999" x="-6.8899999" y="117.1988" /></g></g></g>
    <g transform="matrix(0.98,0,0,-0.98,-390.38017,718.24098)"><g transform="matrix(1,0,0,-1,0,765)"><g transform="matrix(-1,0,0,1,475.14,140.49)"><rect fill="none" height="6.1515198" id="armorRLLRow00" width="15.32" x="0" y="0" /></g></g></g>
    <g transform="matrix(0.98,0,0,-0.98,-390.38017,718.24098)"><g transform="matrix(1,0,0,-1,0,765)"><g transform="matrix(-1,0,0,1,475.14,140.49)"><rect fill="none" height="6.1515198" id="armorRLLRow01" width="15.6" x="0" y="5.3271999" /></g></g></g>
    <g transform="matrix(0.98,0,0,-0.98,-390.38017,718.24098)"><g transform="matrix(1,0,0,-1,0,765)"><g transform="matrix(-1,0,0,1,475.14,140.49)"><rect fill="none" height="6.1515198" id="armorRLLRow02" width="15.32" x="0" y="10.6544" /></g></g></g>
    <g transform="matrix(0.98,0,0,-0.98,-390.38017,718.24098)"><g transform="matrix(1,0,0,-1,0,765)"><g transform="matrix(-1,0,0,1,475.14,140.49)"><rect fill="none" height="6.1515198" id="armorRLLRow03" width="15.04" x="0" y="15.9816" /></g></g></g>
    <g transform="matrix(0.98,0,0,-0.98,-390.38017,718.24098)"><g transform="matrix(1,0,0,-1,0,765)"><g transform="matrix(-1,0,0,1,475.14,140.49)"><rect fill="none" height="6.1515198" id="armorRLLRow04" width="15.2" x="0" y="21.3088" /></g></g></g>
    <g transform="matrix(0.98,0,0,-0.98,-390.38017,718.24098)"><g transform="matrix(1,0,0,-1,0,765)"><g transform="matrix(-1,0,0,1,475.14,140.49)"><rect fill="none" height="6.1515198" id="armorRLLRow05" width="15.6" x="0" y="26.636" /></g></g></g>
    <g transform="matrix(0.98,0,0,-0.98,-390.38017,718.24098)"><g transform="matrix(1,0,0,-1,0,765)"><g transform="matrix(-1,0,0,1,475.14,140.49)"><rect fill="none" height="6.1515198" id="armorRLLRow06" width="15.6" x="0" y="31.9632" /></g></g></g>
    <g transform="matrix(0.98,0,0,-0.98,-390.38017,718.24098)"><g transform="matrix(1,0,0,-1,0,765)"><g transform="matrix(-1,0,0,1,475.14,140.49)"><rect fill="none" height="6.1515198" id="armorRLLRow07" width="16.15" x="0" y="37.290401" /></g></g></g>
    <g transform="matrix(0.98,0,0,-0.98,-390.38017,718.24098)"><g transform="matrix(1,0,0,-1,0,765)"><g transform="matrix(-1,0,0,1,475.14,140.49)"><rect fill="none" height="6.1515198" id="armorRLLRow08" width="16.99" x="0" y="42.617599" /></g></g></g>
    <g transform="matrix(0.98,0,0,-0.98,-390.38017,718.24098)"><g transform="matrix(1,0,0,-1,0,765)"><g transform="matrix(-1,0,0,1,475.14,140.49)"><rect fill="none" height="6.1515198" id="armorRLLRow09" width="18.66" x="0" y="47.944901" /></g></g></g>
    <g transform="matrix(0.98,0,0,-0.98,-390.38017,718.24098)"><g transform="matrix(1,0,0,-1,0,765)"><g transform="matrix(-1,0,0,1,475.14,140.49)"><rect fill="none" height="6.1515198" id="armorRLLRow10" width="18.66" x="0" y="53.272202" /></g></g></g>
    <g transform="matrix(0.98,0,0,-0.98,-390.38017,718.24098)"><g transform="matrix(1,0,0,-1,0,765)"><g transform="matrix(-1,0,0,1,475.14,140.49)"><rect fill="none" height="6.1515198" id="armorRLLRow11" width="19.5" x="0" y="58.5994" /></g></g></g>
    <g transform="matrix(0.98,0,0,-0.98,-390.38017,718.24098)"><g transform="matrix(1,0,0,-1,0,765)"><g transform="matrix(-1,0,0,1,475.14,140.49)"><rect fill="none" height="6.1515198" id="armorRLLRow12" width="20.459999" x="0" y="63.926601" /></g></g></g>
    <g transform="matrix(0.98,0,0,-0.98,-390.38017,718.24098)"><g transform="matrix(1,0,0,-1,0,765)"><g transform="matrix(-1,0,0,1,475.14,140.49)"><rect fill="none" height="6.1515198" id="armorRLLRow13" width="21.07" x="0" y="69.253799" /></g></g></g>
    <g transform="matrix(0.98,0,0,-0.98,-390.38017,718.24098)"><g transform="matrix(1,0,0,-1,0,765)"><g transform="matrix(-1,0,0,1,475.14,140.49)"><rect fill="none" height="6.1515198" id="armorRLLRow14" width="21.700001" x="0" y="74.581001" /></g></g></g>
    <g transform="matrix(0.98,0,0,-0.98,-390.38017,718.24098)"><g transform="matrix(1,0,0,-1,0,765)"><g transform="matrix(-1,0,0,1,475.14,140.49)"><rect fill="none" height="6.1515198" id="armorRLLRow15" width="22.120001" x="0" y="79.908203" /></g></g></g>
    <g transform="matrix(0.98,0,0,-0.98,-390.38017,718.24098)"><g transform="matrix(1,0,0,-1,0,765)"><g transform="matrix(-1,0,0,1,475.14,140.49)"><rect fill="none" height="6.1515198" id="armorRLLRow16" width="22.629999" x="0" y="85.235497" /></g></g></g>
    <g transform="matrix(0.98,0,0,-0.98,-390.38017,718.24098)"><g transform="matrix(1,0,0,-1,0,765)"><g transform="matrix(-1,0,0,1,475.14,140.49)"><rect fill="none" height="6.1515198" id="armorRLLRow17" width="23.24" x="0" y="90.562698" /></g></g></g>
    <g transform="matrix(0.98,0,0,-0.98,-390.38017,718.24098)"><g transform="matrix(1,0,0,-1,0,765)"><g transform="matrix(-1,0,0,1,475.14,140.49)"><rect fill="none" height="6.1515198" id="armorRLLRow18" width="23.040001" x="0" y="95.8899" /></g></g></g>
    <g transform="matrix(0.98,0,0,-0.98,-390.38017,718.24098)"><g transform="matrix(1,0,0,-1,0,765)"><g transform="matrix(-1,0,0,1,475.14,140.49)"><rect fill="none" height="6.1515198" id="armorRLLRow19" width="23.040001" x="0" y="101.2171" /></g></g></g>
    <g transform="matrix(0.98,0,0,-0.98,-390.38017,718.24098)"><g transform="matrix(1,0,0,-1,0,765)"><g transform="matrix(-1,0,0,1,475.14,140.49)"><rect fill="none" height="6.1515198" id="armorRLLRow20" width="18.68" x="2" y="106.5443" /></g></g></g>
    <g transform="matrix(0.98,0,0,-0.98,-390.38017,718.24098)"><g transform="matrix(1,0,0,-1,0,765)"><g transform="matrix(-1,0,0,1,475.14,140.49)"><rect fill="none" height="6.1515198" id="armorRLLRow21" width="22" x="0" y="111.8716" /></g></g></g>
    <g transform="matrix(0.98,0,0,-0.98,-390.38017,718.24098)"><g transform="matrix(1,0,0,-1,0,765)"><g transform="matrix(-1,0,0,1,475.14,140.49)"><rect fill="none" height="6.1515198" id="armorRLLRow22" width="32.189999" x="-6.8899999" y="117.1988" /></g></g></g>
    <g transform="matrix(0.98,0,0,-0.98,-390.38017,718.24098)"><g transform="matrix(1,0,0,-1,0,765)"><g transform="translate(472.71,304.57)"><rect fill="none" height="6.1515198" id="armorCTRRow00" width="28.4" x="0" y="0" /></g></g></g>
    <g transform="matrix(0.98,0,0,-0.98,-390.38017,718.24098)"><g transform="matrix(1,0,0,-1,0,765)"><g transform="translate(472.71,304.57)"><rect fill="none" height="6.1515198" id="armorCTRRow01" width="28.4" x="0" y="5.3271999" /></g></g></g>
    <g transform="matrix(0.98,0,0,-0.98,-390.38017,718.24098)"><g transform="matrix(1,0,0,-1,0,765)"><g transform="translate(472.71,304.57)"><rect fill="none" height="6.1515198" id="armorCTRRow02" width="28.4" x="0" y="10.6544" /></g></g></g>
    <g transform="matrix(0.98,0,0,-0.98,-390.38017,718.24098)"><g transform="matrix(1,0,0,-1,0,765)"><g transform="translate(472.71,304.57)"><rect fill="none" height="6.1515198" id="armorCTRRow03" width="28.4" x="0" y="15.9816" /></g></g></g>
    <g transform="matrix(0.98,0,0,-0.98,-390.38017,718.24098)"><g transform="matrix(1,0,0,-1,0,765)"><g transform="translate(472.71,304.57)"><rect fill="none" height="6.1515198" id="armorCTRRow04" width="28.4" x="0" y="21.3088" /></g></g></g>
    <g transform="matrix(0.98,0,0,-0.98,-390.38017,718.24098)"><g transform="matrix(1,0,0,-1,0,765)"><g transform="translate(472.71,304.57)"><rect fill="none" height="6.1515198" id="armorCTRRow05" width="28.4" x="0" y="26.636" /></g></g></g>
    <g transform="matrix(0.98,0,0,-0.98,-390.38017,718.24098)"><g transform="matrix(1,0,0,-1,0,765)"><g transform="translate(472.71,304.57)"><rect fill="none" height="6.1515198" id="armorCTRRow06" width="28.4" x="0" y="31.9632" /></g></g></g>
    <g transform="matrix(0.98,0,0,-0.98,-390.38017,718.24098)"><g transform="matrix(1,0,0,-1,0,765)"><g transform="translate(472.71,304.57)"><rect fill="none" height="6.1515198" id="armorCTRRow07" width="28.4" x="0" y="37.290501" /></g></g></g>
    <g transform="matrix(0.98,0,0,-0.98,-390.38017,718.24098)"><g transform="matrix(1,0,0,-1,0,765)"><g transform="translate(472.71,304.57)"><rect fill="none" height="6.1515198" id="armorCTRRow08" width="28.4" x="0" y="42.617699" /></g></g></g>
    <g transform="matrix(0.98,0,0,-0.98,-390.38017,718.24098)"><g transform="matrix(1,0,0,-1,0,765)"><g transform="translate(504.48,306.08)"><rect fill="none" height="6.1515198" id="armorRTRRow00" width="31.889999" x="0" y="0" /></g></g></g>
    <g transform="matrix(0.98,0,0,-0.98,-390.38017,718.24098)"><g transform="matrix(1,0,0,-1,0,765)"><g transform="translate(504.48,306.08)"><rect fill="none" height="6.1515198" id="armorRTRRow01" width="31.889999" x="0" y="5.3271999" /></g></g></g>
    <g transform="matrix(0.98,0,0,-0.98,-390.38017,718.24098)"><g transform="matrix(1,0,0,-1,0,765)"><g transform="translate(504.48,306.08)"><rect fill="none" height="6.1515198" id="armorRTRRow02" width="31.889999" x="0" y="10.6544" /></g></g></g>
    <g transform="matrix(0.98,0,0,-0.98,-390.38017,718.24098)"><g transform="matrix(1,0,0,-1,0,765)"><g transform="translate(504.48,306.08)"><rect fill="none" height="6.1515198" id="armorRTRRow03" width="28.27" x="0" y="15.9816" /></g></g></g>
    <g transform="matrix(0.98,0,0,-0.98,-390.38017,718.24098)"><g transform="matrix(1,0,0,-1,0,765)"><g transform="translate(504.48,306.08)"><rect fill="none" height="6.1515198" id="armorRTRRow04" width="22.48" x="0" y="21.3088" /></g></g></g>
    <g transform="matrix(0.98,0,0,-0.98,-390.38017,718.24098)"><g transform="matrix(1,0,0,-1,0,765)"><g transform="translate(504.48,306.08)"><rect fill="none" height="6.1515198" id="armorRTRRow05" width="17.129999" x="0" y="26.636" /></g></g></g>
    <g transform="matrix(0.98,0,0,-0.98,-390.38017,718.24098)"><g transform="matrix(1,0,0,-1,0,765)"><g transform="translate(504.48,306.08)"><rect fill="none" height="6.1515198" id="armorRTRRow06" width="12.5" x="0" y="31.9632" /></g></g></g>
    <g transform="matrix(0.98,0,0,-0.98,-390.38017,718.24098)"><g transform="matrix(1,0,0,-1,0,765)"><g transform="translate(504.48,306.08)"><rect fill="none" height="6.1515198" id="armorRTRRow07" width="12.5" x="0" y="37.290501" /></g></g></g>
    <g transform="matrix(0.98,0,0,-0.98,-390.38017,718.24098)"><g transform="matrix(1,0,0,-1,0,765)"><g transform="matrix(-1,0,0,1,469.34,306.08)"><rect fill="none" height="6.1515198" id="armorLTRRow00" width="31.889999" x="0" y="0" /></g></g></g>
    <g transform="matrix(0.98,0,0,-0.98,-390.38017,718.24098)"><g transform="matrix(1,0,0,-1,0,765)"><g transform="matrix(-1,0,0,1,469.34,306.08)"><rect fill="none" height="6.1515198" id="armorLTRRow01" width="31.889999" x="0" y="5.3271999" /></g></g></g>
    <g transform="matrix(0.98,0,0,-0.98,-390.38017,718.24098)"><g transform="matrix(1,0,0,-1,0,765)"><g transform="matrix(-1,0,0,1,469.34,306.08)"><rect fill="none" height="6.1515198" id="armorLTRRow02" width="31.889999" x="0" y="10.6544" /></g></g></g>
    <g transform="matrix(0.98,0,0,-0.98,-390.38017,718.24098)"><g transform="matrix(1,0,0,-1,0,765)"><g transform="matrix(-1,0,0,1,469.34,306.08)"><rect fill="none" height="6.1515198" id="armorLTRRow03" width="28.27" x="0" y="15.9816" /></g></g></g>
    <g transform="matrix(0.98,0,0,-0.98,-390.38017,718.24098)"><g transform="matrix(1,0,0,-1,0,765)"><g transform="matrix(-1,0,0,1,469.34,306.08)"><rect fill="none" height="6.1515198" id="armorLTRRow04" width="22.48" x="0" y="21.3088" /></g></g></g>
    <g transform="matrix(0.98,0,0,-0.98,-390.38017,718.24098)"><g transform="matrix(1,0,0,-1,0,765)"><g transform="matrix(-1,0,0,1,469.34,306.08)"><rect fill="none" height="6.1515198" id="armorLTRRow05" width="17.129999" x="0" y="26.636" /></g></g></g>
    <g transform="matrix(0.98,0,0,-0.98,-390.38017,718.24098)"><g transform="matrix(1,0,0,-1,0,765)"><g transform="matrix(-1,0,0,1,469.34,306.08)"><rect fill="none" height="6.1515198" id="armorLTRRow06" width="12.5" x="0" y="31.9632" /></g></g></g>
    <g transform="matrix(0.98,0,0,-0.98,-390.38017,718.24098)"><g transform="matrix(1,0,0,-1,0,765)"><g transform="matrix(-1,0,0,1,469.34,306.08)"><rect fill="none" height="6.1515198" id="armorLTRRow07" width="12.5" x="0" y="37.290501" /></g></g></g>
    <rect data-canon="armor" data-location="HD" fill="none" height="24.14" stroke="#e11d48" stroke-dasharray="3 1.5" stroke-opacity="0.9" stroke-width="1.25" width="39.592" x="68.264" y="17.585" />
    <rect data-canon="armor" data-location="CT" fill="none" height="78.002" stroke="#e11d48" stroke-dasharray="3 1.5" stroke-opacity="0.9" stroke-width="1.25" width="59.198" x="58.164" y="25.465" />
    <rect data-canon="armor" data-location="LT" fill="none" height="84.119" stroke="#e11d48" stroke-dasharray="3 1.5" stroke-opacity="0.9" stroke-width="1.25" width="68.239" x="9.491" y="19.348" />
    <rect data-canon="armor" data-location="RT" fill="none" height="84.119" stroke="#e11d48" stroke-dasharray="3 1.5" stroke-opacity="0.9" stroke-width="1.25" width="68.238" x="98.03" y="19.348" />
    </g>
</svg>
