<?xml version="1.0" encoding="UTF-8"?>
<!-- Editable MekBay quadvee back armor paperdoll. Pink dashed rectangles mark pip areas and are removed at runtime. -->
<svg xmlns="http://www.w3.org/2000/svg" viewBox="38.104 262.097 101.473 57.133" role="img" aria-label="quadvee back armor paperdoll">
    <g id="paperdoll-art-armor">
    <g transform="matrix(0.98,0,0,-0.98,-390.38017,718.24098)"><g transform="translate(4.33,-2.75)"><g transform="translate(469.837,451.7686)"><path id="path30306" d="m 0,0 -0.562,8.218 -12.28,0.087 -5.185,3.607 h -11.792 l -5.187,-3.607 v -20.862 l 5.187,-3.607 14.966,-15.208 0.268,-5.967 2.63,-2.477 h 9.103 2.058 10.015 z" style="fill:#c7c8ca;fill-opacity:1;fill-rule:nonzero;stroke:none" /></g></g></g>
    <g transform="matrix(0.98,0,0,-0.98,-390.38017,718.24098)"><g transform="translate(4.33,-2.75)"><g transform="translate(501.4367,451.7686)"><path id="path30310" d="m 0,0 0.561,8.218 12.28,0.087 5.185,3.607 h 11.793 l 5.187,-3.607 v -20.862 l -5.187,-3.607 -14.967,-15.208 -0.268,-5.967 -2.63,-2.477 H 2.852 0.794 -9.221 Z" style="fill:#c7c8ca;fill-opacity:1;fill-rule:nonzero;stroke:none" /></g></g></g>
    <g transform="matrix(0.98,0,0,-0.98,-390.38017,718.24098)"><g transform="translate(4.33,-2.75)"><g transform="translate(501.8462,461.1904)"><path id="path30314" d="M 0,0 -10.718,4.115 H -21.53 L -32.572,0 l 1.187,-32.416 -1.683,-18.87 H 0.556 l -1.681,18.87 z" style="fill:#c7c8ca;fill-opacity:1;fill-rule:nonzero;stroke:none" /></g></g></g>
    <g transform="matrix(0.98,0,0,-0.98,-390.38017,718.24098)"><g transform="translate(4.33,-2.75)"><g transform="translate(466.939,454.6666)"><path class="armor unitLocation" id="paperdoll-art-armor-LT_R-armorLTR" loc="LT" rear="1" d="m 0,0 -0.562,8.218 -12.28,0.087 -4.219,2.641 H -28.853 L -34.04,7.339 v -20.862 l 4.221,-2.641 14.966,-15.208 0.268,-5.967 2.63,-2.477 h 9.103 2.058 10.015 z" style="fill:#ffffff;fill-opacity:1;fill-rule:nonzero;stroke:none" /></g></g></g>
    <g transform="matrix(0.98,0,0,-0.98,-390.38017,718.24098)"><g transform="translate(4.33,-2.75)"><g transform="translate(466.939,454.6666)"><path id="path30322" d="m 0,0 -0.562,8.218 -12.28,0.087 -4.219,2.641 H -28.853 L -34.04,7.339 v -20.862 l 4.221,-2.641 14.966,-15.208 0.268,-5.967 2.63,-2.477 h 9.103 2.058 10.015 z" style="fill:none;stroke:#000000;stroke-width:1.449;stroke-linecap:butt;stroke-linejoin:miter;stroke-miterlimit:4;stroke-dasharray:none;stroke-opacity:1" /></g></g></g>
    <g transform="matrix(0.98,0,0,-0.98,-390.38017,718.24098)"><g transform="translate(4.33,-2.75)"><g transform="translate(498.5387,454.6666)"><path class="armor unitLocation" id="paperdoll-art-armor-RT_R-armorRTR" loc="RT" rear="1" d="m 0,0 0.561,8.218 12.28,0.087 4.219,2.641 H 28.853 L 34.04,7.339 v -20.862 l -4.221,-2.641 -14.967,-15.208 -0.268,-5.967 -2.63,-2.477 H 2.852 0.794 -9.221 Z" style="fill:#ffffff;fill-opacity:1;fill-rule:nonzero;stroke:none" /></g></g></g>
    <g transform="matrix(0.98,0,0,-0.98,-390.38017,718.24098)"><g transform="translate(4.33,-2.75)"><g transform="translate(498.5387,454.6666)"><path id="path30330" d="m 0,0 0.561,8.218 12.28,0.087 4.219,2.641 H 28.853 L 34.04,7.339 v -20.862 l -4.221,-2.641 -14.967,-15.208 -0.268,-5.967 -2.63,-2.477 H 2.852 0.794 -9.221 Z" style="fill:none;stroke:#000000;stroke-width:1.449;stroke-linecap:butt;stroke-linejoin:miter;stroke-miterlimit:4;stroke-dasharray:none;stroke-opacity:1" /></g></g></g>
    <g transform="matrix(0.98,0,0,-0.98,-390.38017,718.24098)"><g transform="translate(4.33,-2.75)"><g transform="translate(498.9482,464.0884)"><path class="armor unitLocation" id="paperdoll-art-armor-CT_R-armorCTR" loc="CT" rear="1" d="M 0,0 -10.718,4.115 H -21.53 L -32.572,0 l 1.187,-32.416 -1.683,-18.87 H 0.556 l -1.681,18.87 z" style="fill:#ffffff;fill-opacity:1;fill-rule:nonzero;stroke:none" /></g></g></g>
    <g transform="matrix(0.98,0,0,-0.98,-390.38017,718.24098)"><g transform="translate(4.33,-2.75)"><g transform="translate(498.9482,464.0884)"><path id="path30338" d="M 0,0 -10.718,4.115 H -21.53 L -32.572,0 l 1.187,-32.416 -1.683,-18.87 H 0.556 l -1.681,18.87 z" style="fill:none;stroke:#000000;stroke-width:1.449;stroke-linecap:butt;stroke-linejoin:miter;stroke-miterlimit:4;stroke-dasharray:none;stroke-opacity:1" /></g></g></g>
    <rect data-canon="armor" data-location="CT_R" fill="none" height="54.293" stroke="#e11d48" stroke-dasharray="3 1.5" stroke-opacity="0.9" stroke-width="1.25" width="32.952" x="70.426" y="262.097" />
    <rect data-canon="armor" data-location="LT_R" fill="none" height="49.747" stroke="#e11d48" stroke-dasharray="3 1.5" stroke-opacity="0.9" stroke-width="1.25" width="42.396" x="38.104" y="264.636" />
    <rect data-canon="armor" data-location="RT_R" fill="none" height="49.747" stroke="#e11d48" stroke-dasharray="3 1.5" stroke-opacity="0.9" stroke-width="1.25" width="42.396" x="93.395" y="264.636" />
    </g>
</svg>
