<?xml version="1.0" encoding="UTF-8"?>
<!-- Editable MekBay quad structure paperdoll. Pink dashed rectangles mark pip areas and are removed at runtime. -->
<svg xmlns="http://www.w3.org/2000/svg" viewBox="20.991 8.16 112.846 152.398" role="img" aria-label="quad structure paperdoll">
    <g id="paperdoll-art-structure">
    <g transform="matrix(1,0,0,-1,-395.32308,374.1915)"><g transform="translate(1.675)"><g transform="translate(463.3543,304.5805)"><path id="path29684" d="m 0,0 -0.724,9.077 -15.135,-1.208 -1.331,-1.026 -0.058,-7.804 1.289,-1.31 -0.778,-25.301 -1.656,0.099 -0.147,-5.083 0.723,0.003 0.011,-2.108 -0.879,-0.005 0.016,-2.83 0.88,0.005 0.011,-2.108 -0.88,-0.006 0.016,-2.828 0.878,0.002 0.014,-2.127 -0.879,-0.005 0.013,-2.811 0.881,0.006 0.011,-2.128 -0.878,-0.005 0.015,-2.833 0.879,0.006 0.013,-2.108 -0.88,-0.005 0.016,-2.83 0.878,0.004 0.012,-2.107 -0.878,-0.006 0.013,-2.829 0.881,0.004 0.012,-2.108 -0.879,-0.004 0.016,-2.833 0.836,0.005 -0.05,-2.107 -0.775,-0.005 0.015,-2.83 0.694,0.004 -0.035,-1.484 -0.65,-0.003 0.011,-1.876 0.595,0.004 -0.025,-1.029 -10e-4,-0.084 -0.565,-0.003 0.005,-0.741 0.556,0.004 -0.004,-0.478 -3.248,-1.468 v -3.902 h 20.812 v 3.903 l -4.557,1.367 0.01,1.301 0.568,66.408 0.029,3.901 -1.281,2.611 -0.027,3.206 z" style="fill:#c7c8ca;fill-opacity:1;fill-rule:nonzero;stroke:none" /></g></g></g>
    <g transform="matrix(1,0,0,-1,-395.32308,374.1915)"><g transform="translate(1.675)"><g transform="translate(448.7133,303.3796)"><path id="path29688" d="m 0,0 v 9.105 h -15.183 l -1.408,-0.916 -0.679,-7.775 1.181,-1.408 -3.402,-32.862 -1.643,0.23 -0.551,-5.056 0.721,-0.055 -0.156,-2.101 -0.878,0.065 -0.207,-2.824 0.877,-0.063 -0.158,-2.103 -0.877,0.063 -0.209,-2.82 0.877,-0.067 -0.157,-2.121 -0.876,0.064 -0.21,-2.802 0.877,-0.066 -0.157,-2.121 -0.876,0.066 -0.21,-2.826 0.876,-0.064 -0.155,-2.102 -0.877,0.065 -0.209,-2.823 0.876,-0.066 -0.156,-2.101 -0.876,0.064 -0.211,-2.823 0.877,-0.064 -0.154,-2.104 -0.878,0.067 -0.209,-2.824 0.833,-0.063 -0.216,-2.097 -0.773,0.057 -0.21,-2.821 0.691,-0.053 -0.152,-1.476 -0.648,0.05 -0.14,-1.871 0.594,-0.044 -0.106,-1.024 -0.007,-0.083 -0.563,0.042 -0.054,-0.739 0.553,-0.041 -0.042,-0.475 -5.276,-2.038 0.026,-3.902 h 20.785 v 3.902 l -2.577,0.903 0.113,1.297 6.463,73.855 0.339,3.888 -1.07,2.704 L -5.61,0 Z" style="fill:#c7c8ca;fill-opacity:1;fill-rule:nonzero;stroke:none" /></g></g></g>
    <g transform="matrix(1,0,0,-1,-395.32308,374.1915)"><g transform="translate(1.675)"><g transform="translate(481.4337,304.5805)"><path id="path29692" d="m 0,0 0.724,9.077 15.135,-1.208 1.331,-1.026 0.059,-7.804 -1.29,-1.31 0.778,-25.301 1.656,0.099 0.147,-5.083 -0.723,0.003 -0.011,-2.108 0.879,-0.005 -0.016,-2.83 -0.88,0.005 -0.011,-2.108 0.88,-0.006 -0.016,-2.828 -0.878,0.002 -0.014,-2.127 0.879,-0.005 -0.013,-2.811 -0.881,0.006 -0.011,-2.128 0.878,-0.005 -0.015,-2.833 -0.879,0.006 -0.013,-2.108 0.881,-0.005 -0.017,-2.83 -0.878,0.004 -0.012,-2.107 0.878,-0.006 -0.013,-2.829 -0.881,0.004 -0.012,-2.108 0.879,-0.004 -0.016,-2.833 -0.836,0.005 0.05,-2.107 0.775,-0.005 -0.015,-2.83 -0.694,0.004 0.035,-1.484 0.65,-0.003 -0.011,-1.876 -0.595,0.004 0.025,-1.029 10e-4,-0.084 0.564,-0.003 -0.004,-0.741 -0.556,0.004 0.004,-0.478 3.248,-1.468 v -3.902 H 0.333 v 3.903 l 4.557,1.367 -0.01,1.301 -0.568,66.408 -0.029,3.901 1.281,2.611 0.027,3.206 z" style="fill:#c7c8ca;fill-opacity:1;fill-rule:nonzero;stroke:none" /></g></g></g>
    <g transform="matrix(1,0,0,-1,-395.32308,374.1915)"><g transform="translate(1.675)"><g transform="translate(496.0747,303.3796)"><path id="path29696" d="m 0,0 v 9.105 h 15.183 l 1.408,-0.916 0.679,-7.775 -1.181,-1.408 3.402,-32.862 1.643,0.23 0.551,-5.056 -0.721,-0.055 0.156,-2.101 0.877,0.065 0.208,-2.824 -0.877,-0.063 0.158,-2.103 0.877,0.063 0.209,-2.82 -0.877,-0.067 0.157,-2.121 0.876,0.064 0.21,-2.802 -0.877,-0.066 0.157,-2.121 0.876,0.066 0.21,-2.826 -0.876,-0.064 0.155,-2.102 0.877,0.065 0.209,-2.823 -0.876,-0.066 0.156,-2.101 0.876,0.064 0.211,-2.823 -0.877,-0.064 0.154,-2.104 0.878,0.067 0.209,-2.824 -0.834,-0.063 0.217,-2.097 0.773,0.057 0.21,-2.821 -0.691,-0.053 0.152,-1.476 0.648,0.05 0.139,-1.871 -0.593,-0.044 0.106,-1.024 0.007,-0.083 0.563,0.042 0.054,-0.739 -0.553,-0.041 0.042,-0.475 5.276,-2.038 -0.026,-3.902 H 9.105 v 3.902 l 2.577,0.903 -0.114,1.297 -6.462,73.855 -0.34,3.888 1.071,2.704 L 5.61,0 Z" style="fill:#c7c8ca;fill-opacity:1;fill-rule:nonzero;stroke:none" /></g></g></g>
    <g transform="matrix(1,0,0,-1,-395.32308,374.1915)"><g transform="translate(1.675)"><g transform="translate(455.414,348.3119)"><path id="path29700" d="m 0,0 -3.742,9.373 -10.152,0.098 -5.611,4.114 H -32.264 L -37.877,9.471 V -14.32 l 5.613,-4.113 h 12.759 l 3.713,2.72 7.379,-18.977 -4.179,-0.663 -0.343,-0.425 -0.754,-9.01 0.754,-0.621 h 9.851 2.225 10.839 z" style="fill:#c7c8ca;fill-opacity:1;fill-rule:nonzero;stroke:none" /></g></g></g>
    <g transform="matrix(1,0,0,-1,-395.32308,374.1915)"><g transform="translate(1.675)"><g transform="translate(489.607,348.3119)"><path id="path29704" d="m 0,0 3.743,9.373 10.152,0.098 5.61,4.114 H 32.264 L 37.878,9.471 V -14.32 l -5.614,-4.113 H 19.505 l -3.712,2.72 -7.379,-18.977 4.179,-0.663 0.343,-0.425 0.754,-9.01 -0.754,-0.621 H 3.085 0.86 -9.978 Z" style="fill:#c7c8ca;fill-opacity:1;fill-rule:nonzero;stroke:none" /></g></g></g>
    <g transform="matrix(1,0,0,-1,-395.32308,374.1915)"><g transform="translate(1.675)"><g transform="translate(487.5166,302.9032)"><path id="path29708" d="m 0,0 h -30.11 l 1.82,20.515 -7.554,34.188 11.651,-0.731 h 18.211 l 11.651,0.731 -7.49,-34.188 z" style="fill:#c7c8ca;fill-opacity:1;fill-rule:nonzero;stroke:none" /></g></g></g>
    <g transform="matrix(1,0,0,-1,-395.32308,374.1915)"><g transform="translate(1.675)"><g transform="translate(458.7545,350.1702)"><path id="path29712" d="M 0,0 5.558,-3.967 H 22.139 L 27.766,0 19.699,12.963 h -11.7 z" style="fill:#c7c8ca;fill-opacity:1;fill-rule:nonzero;stroke:none" /></g></g></g>
    <g transform="matrix(1,0,0,-1,-395.32308,374.1915)"><g transform="translate(1.675)"><g transform="translate(460.4563,307.4785)"><path class="structure unitLocation" id="paperdoll-art-structure-RLL-isRLL" loc="RLL" d="m 0,0 -0.724,9.077 -15.135,-1.208 -1.331,-1.026 -0.058,-7.804 1.289,-1.31 -0.778,-25.301 -1.656,0.099 -0.147,-5.083 0.723,0.003 0.011,-2.108 -0.879,-0.005 0.016,-2.83 0.88,0.005 0.011,-2.108 -0.88,-0.006 0.016,-2.829 0.878,0.003 0.014,-2.127 -0.879,-0.005 0.013,-2.811 0.881,0.006 0.011,-2.128 -0.878,-0.005 0.015,-2.833 0.879,0.006 0.013,-2.108 -0.88,-0.005 0.016,-2.83 0.878,0.004 0.012,-2.107 -0.878,-0.006 0.013,-2.829 0.881,0.004 0.012,-2.108 -0.879,-0.004 0.016,-2.833 0.836,0.005 -0.05,-2.107 -0.775,-0.005 0.015,-2.83 0.694,0.004 -0.035,-1.484 -0.65,-0.003 0.011,-1.876 0.595,0.004 -0.025,-1.029 -10e-4,-0.084 -0.565,-0.003 0.005,-0.741 0.556,0.004 -0.004,-0.478 -3.248,-1.468 v -3.902 h 20.812 v 3.903 l -4.557,1.367 0.01,1.301 0.568,66.408 0.029,3.901 -1.281,2.611 -0.027,3.206 z" style="fill:#ffffff;fill-opacity:1;fill-rule:nonzero;stroke:none" /></g></g></g>
    <g transform="matrix(1,0,0,-1,-395.32308,374.1915)"><g transform="translate(1.675)"><g transform="translate(460.4563,307.4785)"><path id="path29720" d="m 0,0 -0.724,9.077 -15.135,-1.208 -1.331,-1.026 -0.058,-7.804 1.289,-1.31 -0.778,-25.301 -1.656,0.099 -0.147,-5.083 0.723,0.003 0.011,-2.108 -0.879,-0.005 0.016,-2.83 0.88,0.005 0.011,-2.108 -0.88,-0.006 0.016,-2.829 0.878,0.003 0.014,-2.127 -0.879,-0.005 0.013,-2.811 0.881,0.006 0.011,-2.128 -0.878,-0.005 0.015,-2.833 0.879,0.006 0.013,-2.108 -0.88,-0.005 0.016,-2.83 0.878,0.004 0.012,-2.107 -0.878,-0.006 0.013,-2.829 0.881,0.004 0.012,-2.108 -0.879,-0.004 0.016,-2.833 0.836,0.005 -0.05,-2.107 -0.775,-0.005 0.015,-2.83 0.694,0.004 -0.035,-1.484 -0.65,-0.003 0.011,-1.876 0.595,0.004 -0.025,-1.029 -10e-4,-0.084 -0.565,-0.003 0.005,-0.741 0.556,0.004 -0.004,-0.478 -3.248,-1.468 v -3.902 h 20.812 v 3.903 l -4.557,1.367 0.01,1.301 0.568,66.408 0.029,3.901 -1.281,2.611 -0.027,3.206 z" style="fill:none;stroke:#000000;stroke-width:1.449;stroke-linecap:butt;stroke-linejoin:round;stroke-miterlimit:2.414;stroke-dasharray:none;stroke-opacity:1" /></g></g></g>
    <g transform="matrix(1,0,0,-1,-395.32308,374.1915)"><g transform="translate(1.675)"><g transform="translate(445.8153,306.2776)"><path class="structure unitLocation" id="paperdoll-art-structure-FLL-isFLL" loc="FLL" d="m 0,0 v 9.105 h -15.183 l -1.408,-0.916 -0.679,-7.775 1.181,-1.408 -3.402,-32.862 -1.643,0.23 -0.551,-5.056 0.721,-0.055 -0.156,-2.101 -0.878,0.065 -0.207,-2.824 0.877,-0.063 -0.158,-2.103 -0.877,0.063 -0.209,-2.82 0.877,-0.067 -0.157,-2.121 -0.876,0.064 -0.21,-2.802 0.877,-0.066 -0.157,-2.121 -0.876,0.066 -0.21,-2.826 0.876,-0.065 -0.155,-2.101 -0.877,0.065 -0.209,-2.823 0.876,-0.066 -0.156,-2.101 -0.876,0.064 -0.211,-2.823 0.877,-0.064 -0.154,-2.104 -0.878,0.067 -0.209,-2.824 0.833,-0.063 -0.216,-2.097 -0.773,0.057 -0.21,-2.821 0.691,-0.053 -0.152,-1.476 -0.648,0.05 -0.14,-1.871 0.594,-0.044 -0.106,-1.024 -0.007,-0.083 -0.563,0.042 -0.054,-0.739 0.553,-0.041 -0.042,-0.475 -5.276,-2.038 0.026,-3.902 h 20.785 v 3.902 l -2.577,0.903 0.113,1.297 6.463,73.855 0.339,3.888 -1.07,2.703 L -5.61,0 Z" style="fill:#ffffff;fill-opacity:1;fill-rule:nonzero;stroke:none" /></g></g></g>
    <g transform="matrix(1,0,0,-1,-395.32308,374.1915)"><g transform="translate(1.675)"><g transform="translate(445.8153,306.2776)"><path id="path29728" d="m 0,0 v 9.105 h -15.183 l -1.408,-0.916 -0.679,-7.775 1.181,-1.408 -3.402,-32.862 -1.643,0.23 -0.551,-5.056 0.721,-0.055 -0.156,-2.101 -0.878,0.065 -0.207,-2.824 0.877,-0.063 -0.158,-2.103 -0.877,0.063 -0.209,-2.82 0.877,-0.067 -0.157,-2.121 -0.876,0.064 -0.21,-2.802 0.877,-0.066 -0.157,-2.121 -0.876,0.066 -0.21,-2.826 0.876,-0.065 -0.155,-2.101 -0.877,0.065 -0.209,-2.823 0.876,-0.066 -0.156,-2.101 -0.876,0.064 -0.211,-2.823 0.877,-0.064 -0.154,-2.104 -0.878,0.067 -0.209,-2.824 0.833,-0.063 -0.216,-2.097 -0.773,0.057 -0.21,-2.821 0.691,-0.053 -0.152,-1.476 -0.648,0.05 -0.14,-1.871 0.594,-0.044 -0.106,-1.024 -0.007,-0.083 -0.563,0.042 -0.054,-0.739 0.553,-0.041 -0.042,-0.475 -5.276,-2.038 0.026,-3.902 h 20.785 v 3.902 l -2.577,0.903 0.113,1.297 6.463,73.855 0.339,3.888 -1.07,2.703 L -5.61,0 Z" style="fill:none;stroke:#000000;stroke-width:1.449;stroke-linecap:butt;stroke-linejoin:round;stroke-miterlimit:2.414;stroke-dasharray:none;stroke-opacity:1" /></g></g></g>
    <g transform="matrix(1,0,0,-1,-395.32308,374.1915)"><g transform="translate(1.675)"><g transform="translate(478.5358,307.4785)"><path class="structure unitLocation" id="paperdoll-art-structure-RRL-isRRL" loc="RRL" d="m 0,0 0.724,9.077 15.135,-1.208 1.331,-1.026 0.059,-7.804 -1.29,-1.31 0.778,-25.301 1.656,0.099 0.147,-5.083 -0.723,0.003 -0.011,-2.108 0.879,-0.005 -0.016,-2.83 -0.88,0.005 -0.011,-2.108 0.88,-0.006 -0.016,-2.829 -0.878,0.003 -0.014,-2.127 0.879,-0.005 -0.013,-2.811 -0.881,0.006 -0.011,-2.128 0.878,-0.005 -0.015,-2.833 -0.879,0.006 -0.013,-2.108 0.881,-0.005 -0.017,-2.83 -0.878,0.004 -0.012,-2.107 0.878,-0.006 -0.013,-2.829 -0.881,0.004 -0.012,-2.108 0.879,-0.004 -0.016,-2.833 -0.836,0.005 0.05,-2.107 0.775,-0.005 -0.015,-2.83 -0.694,0.004 0.035,-1.484 0.65,-0.003 -0.011,-1.876 -0.595,0.004 0.025,-1.029 10e-4,-0.084 0.564,-0.003 -0.004,-0.741 -0.556,0.004 0.004,-0.478 3.248,-1.468 v -3.902 H 0.333 v 3.903 l 4.557,1.367 -0.01,1.301 -0.568,66.408 -0.029,3.901 1.281,2.611 0.027,3.206 z" style="fill:#ffffff;fill-opacity:1;fill-rule:nonzero;stroke:none" /></g></g></g>
    <g transform="matrix(1,0,0,-1,-395.32308,374.1915)"><g transform="translate(1.675)"><g transform="translate(478.5358,307.4785)"><path id="path29736" d="m 0,0 0.724,9.077 15.135,-1.208 1.331,-1.026 0.059,-7.804 -1.29,-1.31 0.778,-25.301 1.656,0.099 0.147,-5.083 -0.723,0.003 -0.011,-2.108 0.879,-0.005 -0.016,-2.83 -0.88,0.005 -0.011,-2.108 0.88,-0.006 -0.016,-2.829 -0.878,0.003 -0.014,-2.127 0.879,-0.005 -0.013,-2.811 -0.881,0.006 -0.011,-2.128 0.878,-0.005 -0.015,-2.833 -0.879,0.006 -0.013,-2.108 0.881,-0.005 -0.017,-2.83 -0.878,0.004 -0.012,-2.107 0.878,-0.006 -0.013,-2.829 -0.881,0.004 -0.012,-2.108 0.879,-0.004 -0.016,-2.833 -0.836,0.005 0.05,-2.107 0.775,-0.005 -0.015,-2.83 -0.694,0.004 0.035,-1.484 0.65,-0.003 -0.011,-1.876 -0.595,0.004 0.025,-1.029 10e-4,-0.084 0.564,-0.003 -0.004,-0.741 -0.556,0.004 0.004,-0.478 3.248,-1.468 v -3.902 H 0.333 v 3.903 l 4.557,1.367 -0.01,1.301 -0.568,66.408 -0.029,3.901 1.281,2.611 0.027,3.206 z" style="fill:none;stroke:#000000;stroke-width:1.449;stroke-linecap:butt;stroke-linejoin:round;stroke-miterlimit:2.414;stroke-dasharray:none;stroke-opacity:1" /></g></g></g>
    <g transform="matrix(1,0,0,-1,-395.32308,374.1915)"><g transform="translate(1.675)"><g transform="translate(493.1768,306.2776)"><path class="structure unitLocation" id="paperdoll-art-structure-FRL-isFRL" loc="FRL" d="m 0,0 v 9.105 h 15.183 l 1.408,-0.916 0.679,-7.775 -1.181,-1.408 3.402,-32.862 1.643,0.23 0.551,-5.056 -0.721,-0.055 0.156,-2.101 0.877,0.065 0.208,-2.824 -0.877,-0.063 0.158,-2.103 0.877,0.063 0.209,-2.82 -0.877,-0.067 0.157,-2.121 0.876,0.064 0.21,-2.802 -0.877,-0.066 0.157,-2.121 0.876,0.066 0.21,-2.826 -0.876,-0.065 0.155,-2.101 0.877,0.065 0.209,-2.823 -0.876,-0.066 0.156,-2.101 0.876,0.064 0.211,-2.823 -0.877,-0.064 0.154,-2.104 0.878,0.067 0.209,-2.824 -0.834,-0.063 0.217,-2.097 0.773,0.057 0.21,-2.821 -0.691,-0.053 0.152,-1.476 0.648,0.05 0.139,-1.871 -0.594,-0.044 0.107,-1.024 0.006,-0.083 0.564,0.042 0.054,-0.739 -0.553,-0.041 0.042,-0.475 5.276,-2.038 -0.026,-3.902 H 9.105 v 3.902 l 2.577,0.903 -0.114,1.297 -6.462,73.855 -0.34,3.888 1.071,2.703 L 5.61,0 Z" style="fill:#ffffff;fill-opacity:1;fill-rule:nonzero;stroke:none" /></g></g></g>
    <g transform="matrix(1,0,0,-1,-395.32308,374.1915)"><g transform="translate(1.675)"><g transform="translate(493.1768,306.2776)"><path id="path29744" d="m 0,0 v 9.105 h 15.183 l 1.408,-0.916 0.679,-7.775 -1.181,-1.408 3.402,-32.862 1.643,0.23 0.551,-5.056 -0.721,-0.055 0.156,-2.101 0.877,0.065 0.208,-2.824 -0.877,-0.063 0.158,-2.103 0.877,0.063 0.209,-2.82 -0.877,-0.067 0.157,-2.121 0.876,0.064 0.21,-2.802 -0.877,-0.066 0.157,-2.121 0.876,0.066 0.21,-2.826 -0.876,-0.065 0.155,-2.101 0.877,0.065 0.209,-2.823 -0.876,-0.066 0.156,-2.101 0.876,0.064 0.211,-2.823 -0.877,-0.064 0.154,-2.104 0.878,0.067 0.209,-2.824 -0.834,-0.063 0.217,-2.097 0.773,0.057 0.21,-2.821 -0.691,-0.053 0.152,-1.476 0.648,0.05 0.139,-1.871 -0.594,-0.044 0.107,-1.024 0.006,-0.083 0.564,0.042 0.054,-0.739 -0.553,-0.041 0.042,-0.475 5.276,-2.038 -0.026,-3.902 H 9.105 v 3.902 l 2.577,0.903 -0.114,1.297 -6.462,73.855 -0.34,3.888 1.071,2.703 L 5.61,0 Z" style="fill:none;stroke:#000000;stroke-width:1.449;stroke-linecap:butt;stroke-linejoin:round;stroke-miterlimit:2.414;stroke-dasharray:none;stroke-opacity:1" /></g></g></g>
    <g transform="matrix(1,0,0,-1,-395.32308,374.1915)"><g transform="translate(1.675)"><g transform="translate(452.5161,351.2098)"><path class="structure unitLocation" id="paperdoll-art-structure-LT-isLT" loc="LT" d="m 0,0 -3.742,9.373 -10.152,0.098 -5.611,4.114 H -32.264 L -37.877,9.471 V -14.32 l 5.613,-4.113 h 12.759 l 3.713,2.72 7.379,-18.977 -4.179,-0.663 -0.343,-0.425 -0.754,-9.01 0.754,-0.621 h 9.851 2.225 10.839 z" style="fill:#ffffff;fill-opacity:1;fill-rule:nonzero;stroke:none" /></g></g></g>
    <g transform="matrix(1,0,0,-1,-395.32308,374.1915)"><g transform="translate(1.675)"><g transform="translate(452.5161,351.2098)"><path id="path29752" d="m 0,0 -3.742,9.373 -10.152,0.098 -5.611,4.114 H -32.264 L -37.877,9.471 V -14.32 l 5.613,-4.113 h 12.759 l 3.713,2.72 7.379,-18.977 -4.179,-0.663 -0.343,-0.425 -0.754,-9.01 0.754,-0.621 h 9.851 2.225 10.839 z" style="fill:none;stroke:#000000;stroke-width:1.449;stroke-linecap:butt;stroke-linejoin:miter;stroke-miterlimit:4;stroke-dasharray:none;stroke-opacity:1" /></g></g></g>
    <g transform="matrix(1,0,0,-1,-395.32308,374.1915)"><g transform="translate(1.675)"><g transform="translate(486.709,351.2098)"><path class="structure unitLocation" id="paperdoll-art-structure-RT-isRT" loc="RT" d="m 0,0 3.743,9.373 10.152,0.098 5.61,4.114 H 32.264 L 37.878,9.471 V -14.32 l -5.614,-4.113 H 19.505 l -3.712,2.72 -7.379,-18.977 4.179,-0.663 0.343,-0.425 0.754,-9.01 -0.754,-0.621 H 3.085 0.86 -9.978 Z" style="fill:#ffffff;fill-opacity:1;fill-rule:nonzero;stroke:none" /></g></g></g>
    <g transform="matrix(1,0,0,-1,-395.32308,374.1915)"><g transform="translate(1.675)"><g transform="translate(486.709,351.2098)"><path id="path29760" d="m 0,0 3.743,9.373 10.152,0.098 5.61,4.114 H 32.264 L 37.878,9.471 V -14.32 l -5.614,-4.113 H 19.505 l -3.712,2.72 -7.379,-18.977 4.179,-0.663 0.343,-0.425 0.754,-9.01 -0.754,-0.621 H 3.085 0.86 -9.978 Z" style="fill:none;stroke:#000000;stroke-width:1.449;stroke-linecap:butt;stroke-linejoin:miter;stroke-miterlimit:4;stroke-dasharray:none;stroke-opacity:1" /></g></g></g>
    <g transform="matrix(1,0,0,-1,-395.32308,374.1915)"><g transform="translate(1.675)"><g transform="translate(484.6186,305.8012)"><path class="structure unitLocation" id="paperdoll-art-structure-CT-isCT" loc="CT" d="m 0,0 h -30.11 l 1.82,20.515 -7.554,34.188 11.651,-0.731 h 18.211 l 11.651,0.731 -7.49,-34.188 z" style="fill:#ffffff;fill-opacity:1;fill-rule:nonzero;stroke:none" /></g></g></g>
    <g transform="matrix(1,0,0,-1,-395.32308,374.1915)"><g transform="translate(1.675)"><g transform="translate(484.6186,305.8012)"><path id="path29768" d="m 0,0 h -30.11 l 1.82,20.515 -7.554,34.188 11.651,-0.731 h 18.211 l 11.651,0.731 -7.49,-34.188 z" style="fill:none;stroke:#000000;stroke-width:1.449;stroke-linecap:butt;stroke-linejoin:miter;stroke-miterlimit:4;stroke-dasharray:none;stroke-opacity:1" /></g></g></g>
    <g transform="matrix(1,0,0,-1,-395.32308,374.1915)"><g transform="translate(1.675)"><g transform="translate(455.8565,353.0682)"><path class="structure unitLocation" id="paperdoll-art-structure-HD-isHD" loc="HD" d="M 0,0 5.558,-3.967 H 22.139 L 27.766,0 19.699,12.963 h -11.7 z" style="fill:#ffffff;fill-opacity:1;fill-rule:nonzero;stroke:none" /></g></g></g>
    <g transform="matrix(1,0,0,-1,-395.32308,374.1915)"><g transform="translate(1.675)"><g transform="translate(455.8565,353.0682)"><path class="structure unitLocation" id="paperdoll-art-structure-HD-path1" loc="HD" d="M 0,0 5.558,-3.967 H 22.139 L 27.766,0 19.699,12.963 h -11.7 z" style="fill:none;stroke:#000000;stroke-width:1.449;stroke-linecap:butt;stroke-linejoin:miter;stroke-miterlimit:4;stroke-dasharray:none;stroke-opacity:1" /></g></g></g>
    <g transform="matrix(1,0,0,-1,-395.32308,374.1915)"><g transform="matrix(1,0,0,-1,0,765)"><g transform="translate(475.7472,409.4425)"><path class="pip structure" fill="#FFFFFF" id="is_pip_hd_3" loc="HD" d="m 0,0 c -0.96,0 -1.76,0.8 -1.76,1.759 0,0.959 0.8,1.76 1.76,1.76 0.959,0 1.758,-0.801 1.758,-1.76 C 1.758,0.8 0.959,0 0,0 Z" style="stroke:#000000;stroke-width:0.487;stroke-linecap:butt;stroke-linejoin:miter;stroke-miterlimit:2.414;stroke-dasharray:none;stroke-opacity:1" /></g></g></g>
    <g transform="matrix(1,0,0,-1,-395.32308,374.1915)"><g transform="matrix(1,0,0,-1,0,765)"><g transform="translate(471.593,402.0341)"><path class="pip structure" fill="#FFFFFF" id="is_pip_hd_1" loc="HD" d="m 0,0 c -0.961,0 -1.761,0.8 -1.761,1.758 0,0.961 0.8,1.761 1.761,1.761 0.959,0 1.758,-0.8 1.758,-1.761 C 1.758,0.8 0.959,0 0,0 Z" style="stroke:#000000;stroke-width:0.487;stroke-linecap:butt;stroke-linejoin:miter;stroke-miterlimit:2.414;stroke-dasharray:none;stroke-opacity:1" /></g></g></g>
    <g transform="matrix(1,0,0,-1,-395.32308,374.1915)"><g transform="matrix(1,0,0,-1,0,765)"><g transform="translate(467.6313,409.4425)"><path class="pip structure" fill="#FFFFFF" id="is_pip_hd_2" loc="HD" d="m 0,0 c -0.96,0 -1.76,0.8 -1.76,1.759 0,0.959 0.8,1.76 1.76,1.76 0.959,0 1.758,-0.801 1.758,-1.76 C 1.758,0.8 0.959,0 0,0 Z" style="stroke:#000000;stroke-width:0.487;stroke-linecap:butt;stroke-linejoin:miter;stroke-miterlimit:2.414;stroke-dasharray:none;stroke-opacity:1" /></g></g></g>
    <g transform="matrix(1,0,0,-1,-395.32308,374.1915)"><g transform="matrix(1,0,0,-1,0,765)"><g transform="translate(455.61,418.302)"><rect fill="none" height="5.4313002" id="isCTRow00" width="31.219999" x="0" y="0" /></g></g></g>
    <g transform="matrix(1,0,0,-1,-395.32308,374.1915)"><g transform="matrix(1,0,0,-1,0,765)"><g transform="translate(455.61,418.302)"><rect fill="none" height="5.4313002" id="isCTRow01" width="29.559999" x="0.82999998" y="4.7034998" /></g></g></g>
    <g transform="matrix(1,0,0,-1,-395.32308,374.1915)"><g transform="matrix(1,0,0,-1,0,765)"><g transform="translate(455.61,418.302)"><rect fill="none" height="5.4313002" id="isCTRow02" width="27.9" x="1.66" y="9.4069996" /></g></g></g>
    <g transform="matrix(1,0,0,-1,-395.32308,374.1915)"><g transform="matrix(1,0,0,-1,0,765)"><g transform="translate(455.61,418.302)"><rect fill="none" height="5.4313002" id="isCTRow03" width="26.24" x="2.49" y="14.1105" /></g></g></g>
    <g transform="matrix(1,0,0,-1,-395.32308,374.1915)"><g transform="matrix(1,0,0,-1,0,765)"><g transform="translate(455.61,418.302)"><rect fill="none" height="5.4313002" id="isCTRow04" width="24.58" x="3.3199999" y="18.813999" /></g></g></g>
    <g transform="matrix(1,0,0,-1,-395.32308,374.1915)"><g transform="matrix(1,0,0,-1,0,765)"><g transform="translate(455.61,418.302)"><rect fill="none" height="5.4313002" id="isCTRow05" width="25.66" x="2.78" y="23.5175" /></g></g></g>
    <g transform="matrix(1,0,0,-1,-395.32308,374.1915)"><g transform="matrix(1,0,0,-1,0,765)"><g transform="translate(455.61,418.302)"><rect fill="none" height="5.4313002" id="isCTRow06" width="26.219999" x="2.5" y="28.221001" /></g></g></g>
    <g transform="matrix(1,0,0,-1,-395.32308,374.1915)"><g transform="matrix(1,0,0,-1,0,765)"><g transform="translate(455.61,418.302)"><rect fill="none" height="5.4313002" id="isCTRow07" width="27.040001" x="2.0899999" y="32.9245" /></g></g></g>
    <g transform="matrix(1,0,0,-1,-395.32308,374.1915)"><g transform="matrix(1,0,0,-1,0,765)"><g transform="translate(486.24,402.5437)"><rect fill="none" height="5.4313002" id="isRTRow00" width="15.52" x="20.33" y="0" /></g></g></g>
    <g transform="matrix(1,0,0,-1,-395.32308,374.1915)"><g transform="matrix(1,0,0,-1,0,765)"><g transform="translate(486.24,402.5437)"><rect fill="none" height="5.4313002" id="isRTRow01" width="32.5" x="6.1999998" y="4.7034998" /></g></g></g>
    <g transform="matrix(1,0,0,-1,-395.32308,374.1915)"><g transform="matrix(1,0,0,-1,0,765)"><g transform="translate(486.24,402.5437)"><rect fill="none" height="5.4313002" id="isRTRow02" width="33.400002" x="5.21" y="9.4069996" /></g></g></g>
    <g transform="matrix(1,0,0,-1,-395.32308,374.1915)"><g transform="matrix(1,0,0,-1,0,765)"><g transform="translate(486.24,402.5437)"><rect fill="none" height="5.4313002" id="isRTRow03" width="34.299999" x="4.21" y="14.1105" /></g></g></g>
    <g transform="matrix(1,0,0,-1,-395.32308,374.1915)"><g transform="matrix(1,0,0,-1,0,765)"><g transform="translate(486.24,402.5437)"><rect fill="none" height="5.4313002" id="isRTRow04" width="36" x="3.22" y="18.813999" /></g></g></g>
    <g transform="matrix(1,0,0,-1,-395.32308,374.1915)"><g transform="matrix(1,0,0,-1,0,765)"><g transform="translate(486.24,402.5437)"><rect fill="none" height="5.4313002" id="isRTRow05" width="14.31" x="2.23" y="23.5175" /></g></g></g>
    <g transform="matrix(1,0,0,-1,-395.32308,374.1915)"><g transform="matrix(1,0,0,-1,0,765)"><g transform="translate(486.24,402.5437)"><rect fill="none" height="5.4313002" id="isRTRow06" width="13.1" x="1.23" y="28.221001" /></g></g></g>
    <g transform="matrix(1,0,0,-1,-395.32308,374.1915)"><g transform="matrix(1,0,0,-1,0,765)"><g transform="translate(486.24,402.5437)"><rect fill="none" height="5.4313002" id="isRTRow07" width="12.52" x="0.23999999" y="32.9245" /></g></g></g>
    <g transform="matrix(1,0,0,-1,-395.32308,374.1915)"><g transform="matrix(1,0,0,-1,0,765)"><g transform="translate(486.24,402.5437)"><rect fill="none" height="5.4313002" id="isRTRow08" width="10.4" x="0" y="37.627998" /></g></g></g>
    <g transform="matrix(1,0,0,-1,-395.32308,374.1915)"><g transform="matrix(1,0,0,-1,0,765)"><g transform="translate(486.24,402.5437)"><rect fill="none" height="5.4313002" id="isRTRow09" width="9.6099997" x="0" y="42.3316" /></g></g></g>
    <g transform="matrix(1,0,0,-1,-395.32308,374.1915)"><g transform="matrix(1,0,0,-1,0,765)"><g transform="translate(486.24,402.5437)"><rect fill="none" height="5.4313002" id="isRTRow10" width="13.6" x="0.93000001" y="48.881699" /></g></g></g>
    <g transform="matrix(1,0,0,-1,-395.32308,374.1915)"><g transform="matrix(1,0,0,-1,0,765)"><g transform="matrix(-1,0,0,1,456.2,402.13)"><rect fill="none" height="5.4313002" id="isLTRow00" width="15.52" x="20.33" y="0" /></g></g></g>
    <g transform="matrix(1,0,0,-1,-395.32308,374.1915)"><g transform="matrix(1,0,0,-1,0,765)"><g transform="matrix(-1,0,0,1,456.2,402.13)"><rect fill="none" height="5.4313002" id="isLTRow01" width="32.5" x="6.1999998" y="4.7034998" /></g></g></g>
    <g transform="matrix(1,0,0,-1,-395.32308,374.1915)"><g transform="matrix(1,0,0,-1,0,765)"><g transform="matrix(-1,0,0,1,456.2,402.13)"><rect fill="none" height="5.4313002" id="isLTRow02" width="33.400002" x="5.21" y="9.4069996" /></g></g></g>
    <g transform="matrix(1,0,0,-1,-395.32308,374.1915)"><g transform="matrix(1,0,0,-1,0,765)"><g transform="matrix(-1,0,0,1,456.2,402.13)"><rect fill="none" height="5.4313002" id="isLTRow03" width="34.299999" x="4.21" y="14.1105" /></g></g></g>
    <g transform="matrix(1,0,0,-1,-395.32308,374.1915)"><g transform="matrix(1,0,0,-1,0,765)"><g transform="matrix(-1,0,0,1,456.2,402.13)"><rect fill="none" height="5.4313002" id="isLTRow04" width="36" x="3.22" y="18.813999" /></g></g></g>
    <g transform="matrix(1,0,0,-1,-395.32308,374.1915)"><g transform="matrix(1,0,0,-1,0,765)"><g transform="matrix(-1,0,0,1,456.2,402.13)"><rect fill="none" height="5.4313002" id="isLTRow05" width="14.31" x="2.23" y="23.5175" /></g></g></g>
    <g transform="matrix(1,0,0,-1,-395.32308,374.1915)"><g transform="matrix(1,0,0,-1,0,765)"><g transform="matrix(-1,0,0,1,456.2,402.13)"><rect fill="none" height="5.4313002" id="isLTRow06" width="13.1" x="1.23" y="28.221001" /></g></g></g>
    <g transform="matrix(1,0,0,-1,-395.32308,374.1915)"><g transform="matrix(1,0,0,-1,0,765)"><g transform="matrix(-1,0,0,1,456.2,402.13)"><rect fill="none" height="5.4313002" id="isLTRow07" width="12.52" x="0.23999999" y="32.9245" /></g></g></g>
    <g transform="matrix(1,0,0,-1,-395.32308,374.1915)"><g transform="matrix(1,0,0,-1,0,765)"><g transform="matrix(-1,0,0,1,456.2,402.13)"><rect fill="none" height="5.4313002" id="isLTRow08" width="10.4" x="0" y="37.627998" /></g></g></g>
    <g transform="matrix(1,0,0,-1,-395.32308,374.1915)"><g transform="matrix(1,0,0,-1,0,765)"><g transform="matrix(-1,0,0,1,456.2,402.13)"><rect fill="none" height="5.4313002" id="isLTRow09" width="9.6099997" x="0" y="42.3316" /></g></g></g>
    <g transform="matrix(1,0,0,-1,-395.32308,374.1915)"><g transform="matrix(1,0,0,-1,0,765)"><g transform="matrix(-1,0,0,1,456.2,402.13)"><rect fill="none" height="5.4313002" id="isLTRow10" width="13.6" x="0.93000001" y="48.881699" /></g></g></g>
    <g transform="matrix(1,0,0,-1,-395.32308,374.1915)"><g transform="matrix(1,0,0,-1,0,765)"><g transform="matrix(0.9962,-0.08715,0.08715,0.99619,500.375,452.3)"><rect fill="none" height="5.4313002" id="isFRLRow00" width="7.48" x="2.3499999" y="0" /></g></g></g>
    <g transform="matrix(1,0,0,-1,-395.32308,374.1915)"><g transform="matrix(1,0,0,-1,0,765)"><g transform="matrix(0.9962,-0.08715,0.08715,0.99619,500.375,452.3)"><rect fill="none" height="5.4313002" id="isFRLRow01" width="7.0799999" x="1.96" y="4.7034998" /></g></g></g>
    <g transform="matrix(1,0,0,-1,-395.32308,374.1915)"><g transform="matrix(1,0,0,-1,0,765)"><g transform="matrix(0.9962,-0.08715,0.08715,0.99619,500.375,452.3)"><rect fill="none" height="5.4313002" id="isFRLRow02" width="8.4700003" x="0" y="9.4069996" /></g></g></g>
    <g transform="matrix(1,0,0,-1,-395.32308,374.1915)"><g transform="matrix(1,0,0,-1,0,765)"><g transform="matrix(0.9962,-0.08715,0.08715,0.99619,500.375,452.3)"><rect fill="none" height="5.4313002" id="isFRLRow03" width="8.4700003" x="0" y="14.1105" /></g></g></g>
    <g transform="matrix(1,0,0,-1,-395.32308,374.1915)"><g transform="matrix(1,0,0,-1,0,765)"><g transform="matrix(0.9962,-0.08715,0.08715,0.99619,500.375,452.3)"><rect fill="none" height="5.4313002" id="isFRLRow04" width="8.4700003" x="0" y="18.813999" /></g></g></g>
    <g transform="matrix(1,0,0,-1,-395.32308,374.1915)"><g transform="matrix(1,0,0,-1,0,765)"><g transform="matrix(0.9962,-0.08715,0.08715,0.99619,500.375,452.3)"><rect fill="none" height="5.4313002" id="isFRLRow05" width="8.4700003" x="0" y="23.5175" /></g></g></g>
    <g transform="matrix(1,0,0,-1,-395.32308,374.1915)"><g transform="matrix(1,0,0,-1,0,765)"><g transform="matrix(0.9962,-0.08715,0.08715,0.99619,500.375,452.3)"><rect fill="none" height="5.4313002" id="isFRLRow06" width="8.4700003" x="0" y="28.221001" /></g></g></g>
    <g transform="matrix(1,0,0,-1,-395.32308,374.1915)"><g transform="matrix(1,0,0,-1,0,765)"><g transform="matrix(0.9962,-0.08715,0.08715,0.99619,500.375,452.3)"><rect fill="none" height="5.4313002" id="isFRLRow07" width="8.4700003" x="0" y="32.9245" /></g></g></g>
    <g transform="matrix(1,0,0,-1,-395.32308,374.1915)"><g transform="matrix(1,0,0,-1,0,765)"><g transform="matrix(0.9962,-0.08715,0.08715,0.99619,500.375,452.3)"><rect fill="none" height="5.4313002" id="isFRLRow08" width="8.4700003" x="0" y="37.627998" /></g></g></g>
    <g transform="matrix(1,0,0,-1,-395.32308,374.1915)"><g transform="matrix(1,0,0,-1,0,765)"><g transform="matrix(0.9962,-0.08715,0.08715,0.99619,500.375,452.3)"><rect fill="none" height="5.4313002" id="isFRLRow09" width="9.6499996" x="0" y="42.3316" /></g></g></g>
    <g transform="matrix(1,0,0,-1,-395.32308,374.1915)"><g transform="matrix(1,0,0,-1,0,765)"><g transform="matrix(0.9962,-0.08715,0.08715,0.99619,500.375,452.3)"><rect fill="none" height="5.4313002" id="isFRLRow10" width="9.6499996" x="0" y="47.035099" /></g></g></g>
    <g transform="matrix(1,0,0,-1,-395.32308,374.1915)"><g transform="matrix(1,0,0,-1,0,765)"><g transform="matrix(0.9962,-0.08715,0.08715,0.99619,500.375,452.3)"><rect fill="none" height="5.4313002" id="isFRLRow11" width="9.6499996" x="0" y="51.738602" /></g></g></g>
    <g transform="matrix(1,0,0,-1,-395.32308,374.1915)"><g transform="matrix(1,0,0,-1,0,765)"><g transform="matrix(0.9962,-0.08715,0.08715,0.99619,500.375,452.3)"><rect fill="none" height="5.4313002" id="isFRLRow12" width="9.6499996" x="0" y="56.442101" /></g></g></g>
    <g transform="matrix(1,0,0,-1,-395.32308,374.1915)"><g transform="matrix(1,0,0,-1,0,765)"><g transform="matrix(0.9962,-0.08715,0.08715,0.99619,500.375,452.3)"><rect fill="none" height="5.4313002" id="isFRLRow13" width="9.6499996" x="0" y="61.145599" /></g></g></g>
    <g transform="matrix(1,0,0,-1,-395.32308,374.1915)"><g transform="matrix(1,0,0,-1,0,765)"><g transform="matrix(0.9962,-0.08715,0.08715,0.99619,500.375,452.3)"><rect fill="none" height="5.4313002" id="isFRLRow14" width="9.6499996" x="0" y="65.849098" /></g></g></g>
    <g transform="matrix(1,0,0,-1,-395.32308,374.1915)"><g transform="matrix(1,0,0,-1,0,765)"><g transform="matrix(0.9962,-0.08715,0.08715,0.99619,500.375,452.3)"><rect fill="none" height="5.4313002" id="isFRLRow15" width="9.6499996" x="0" y="70.552696" /></g></g></g>
    <g transform="matrix(1,0,0,-1,-395.32308,374.1915)"><g transform="matrix(1,0,0,-1,0,765)"><g transform="matrix(0.9962,-0.08715,0.08715,0.99619,500.375,452.3)"><rect fill="none" height="5.4313002" id="isFRLRow16" width="9.6499996" x="0" y="75.256203" /></g></g></g>
    <g transform="matrix(1,0,0,-1,-395.32308,374.1915)"><g transform="matrix(1,0,0,-1,0,765)"><g transform="matrix(0.9962,-0.08715,0.08715,0.99619,500.375,452.3)"><rect fill="none" height="5.4313002" id="isFRLRow17" width="9.6499996" x="0" y="79.959702" /></g></g></g>
    <g transform="matrix(1,0,0,-1,-395.32308,374.1915)"><g transform="matrix(1,0,0,-1,0,765)"><g transform="matrix(0.9962,-0.08715,0.08715,0.99619,500.375,452.3)"><rect fill="none" height="5.4313002" id="isFRLRow18" width="9.6499996" x="0" y="84.6632" /></g></g></g>
    <g transform="matrix(1,0,0,-1,-395.32308,374.1915)"><g transform="matrix(1,0,0,-1,0,765)"><g transform="matrix(0.9962,-0.08715,0.08715,0.99619,500.375,452.3)"><rect fill="none" height="5.4313002" id="isFRLRow19" width="9.6499996" x="0" y="89.366699" /></g></g></g>
    <g transform="matrix(1,0,0,-1,-395.32308,374.1915)"><g transform="matrix(1,0,0,-1,0,765)"><g transform="matrix(-0.9962,-0.08715,-0.08715,0.99619,442.065,452.3)"><rect fill="none" height="5.4313002" id="isFLLRow00" width="7.48" x="2.3499999" y="0" /></g></g></g>
    <g transform="matrix(1,0,0,-1,-395.32308,374.1915)"><g transform="matrix(1,0,0,-1,0,765)"><g transform="matrix(-0.9962,-0.08715,-0.08715,0.99619,442.065,452.3)"><rect fill="none" height="5.4313002" id="isFLLRow01" width="7.0799999" x="1.96" y="4.7034998" /></g></g></g>
    <g transform="matrix(1,0,0,-1,-395.32308,374.1915)"><g transform="matrix(1,0,0,-1,0,765)"><g transform="matrix(-0.9962,-0.08715,-0.08715,0.99619,442.065,452.3)"><rect fill="none" height="5.4313002" id="isFLLRow02" width="8.4700003" x="0" y="9.4069996" /></g></g></g>
    <g transform="matrix(1,0,0,-1,-395.32308,374.1915)"><g transform="matrix(1,0,0,-1,0,765)"><g transform="matrix(-0.9962,-0.08715,-0.08715,0.99619,442.065,452.3)"><rect fill="none" height="5.4313002" id="isFLLRow03" width="8.4700003" x="0" y="14.1105" /></g></g></g>
    <g transform="matrix(1,0,0,-1,-395.32308,374.1915)"><g transform="matrix(1,0,0,-1,0,765)"><g transform="matrix(-0.9962,-0.08715,-0.08715,0.99619,442.065,452.3)"><rect fill="none" height="5.4313002" id="isFLLRow04" width="8.4700003" x="0" y="18.813999" /></g></g></g>
    <g transform="matrix(1,0,0,-1,-395.32308,374.1915)"><g transform="matrix(1,0,0,-1,0,765)"><g transform="matrix(-0.9962,-0.08715,-0.08715,0.99619,442.065,452.3)"><rect fill="none" height="5.4313002" id="isFLLRow05" width="8.4700003" x="0" y="23.5175" /></g></g></g>
    <g transform="matrix(1,0,0,-1,-395.32308,374.1915)"><g transform="matrix(1,0,0,-1,0,765)"><g transform="matrix(-0.9962,-0.08715,-0.08715,0.99619,442.065,452.3)"><rect fill="none" height="5.4313002" id="isFLLRow06" width="8.4700003" x="0" y="28.221001" /></g></g></g>
    <g transform="matrix(1,0,0,-1,-395.32308,374.1915)"><g transform="matrix(1,0,0,-1,0,765)"><g transform="matrix(-0.9962,-0.08715,-0.08715,0.99619,442.065,452.3)"><rect fill="none" height="5.4313002" id="isFLLRow07" width="8.4700003" x="0" y="32.9245" /></g></g></g>
    <g transform="matrix(1,0,0,-1,-395.32308,374.1915)"><g transform="matrix(1,0,0,-1,0,765)"><g transform="matrix(-0.9962,-0.08715,-0.08715,0.99619,442.065,452.3)"><rect fill="none" height="5.4313002" id="isFLLRow08" width="8.4700003" x="0" y="37.627998" /></g></g></g>
    <g transform="matrix(1,0,0,-1,-395.32308,374.1915)"><g transform="matrix(1,0,0,-1,0,765)"><g transform="matrix(-0.9962,-0.08715,-0.08715,0.99619,442.065,452.3)"><rect fill="none" height="5.4313002" id="isFLLRow09" width="9.6499996" x="0" y="42.3316" /></g></g></g>
    <g transform="matrix(1,0,0,-1,-395.32308,374.1915)"><g transform="matrix(1,0,0,-1,0,765)"><g transform="matrix(-0.9962,-0.08715,-0.08715,0.99619,442.065,452.3)"><rect fill="none" height="5.4313002" id="isFLLRow10" width="9.6499996" x="0" y="47.035099" /></g></g></g>
    <g transform="matrix(1,0,0,-1,-395.32308,374.1915)"><g transform="matrix(1,0,0,-1,0,765)"><g transform="matrix(-0.9962,-0.08715,-0.08715,0.99619,442.065,452.3)"><rect fill="none" height="5.4313002" id="isFLLRow11" width="9.6499996" x="0" y="51.738602" /></g></g></g>
    <g transform="matrix(1,0,0,-1,-395.32308,374.1915)"><g transform="matrix(1,0,0,-1,0,765)"><g transform="matrix(-0.9962,-0.08715,-0.08715,0.99619,442.065,452.3)"><rect fill="none" height="5.4313002" id="isFLLRow12" width="9.6499996" x="0" y="56.442101" /></g></g></g>
    <g transform="matrix(1,0,0,-1,-395.32308,374.1915)"><g transform="matrix(1,0,0,-1,0,765)"><g transform="matrix(-0.9962,-0.08715,-0.08715,0.99619,442.065,452.3)"><rect fill="none" height="5.4313002" id="isFLLRow13" width="9.6499996" x="0" y="61.145599" /></g></g></g>
    <g transform="matrix(1,0,0,-1,-395.32308,374.1915)"><g transform="matrix(1,0,0,-1,0,765)"><g transform="matrix(-0.9962,-0.08715,-0.08715,0.99619,442.065,452.3)"><rect fill="none" height="5.4313002" id="isFLLRow14" width="9.6499996" x="0" y="65.849098" /></g></g></g>
    <g transform="matrix(1,0,0,-1,-395.32308,374.1915)"><g transform="matrix(1,0,0,-1,0,765)"><g transform="matrix(-0.9962,-0.08715,-0.08715,0.99619,442.065,452.3)"><rect fill="none" height="5.4313002" id="isFLLRow15" width="9.6499996" x="0" y="70.552696" /></g></g></g>
    <g transform="matrix(1,0,0,-1,-395.32308,374.1915)"><g transform="matrix(1,0,0,-1,0,765)"><g transform="matrix(-0.9962,-0.08715,-0.08715,0.99619,442.065,452.3)"><rect fill="none" height="5.4313002" id="isFLLRow16" width="9.6499996" x="0" y="75.256203" /></g></g></g>
    <g transform="matrix(1,0,0,-1,-395.32308,374.1915)"><g transform="matrix(1,0,0,-1,0,765)"><g transform="matrix(-0.9962,-0.08715,-0.08715,0.99619,442.065,452.3)"><rect fill="none" height="5.4313002" id="isFLLRow17" width="9.6499996" x="0" y="79.959702" /></g></g></g>
    <g transform="matrix(1,0,0,-1,-395.32308,374.1915)"><g transform="matrix(1,0,0,-1,0,765)"><g transform="matrix(-0.9962,-0.08715,-0.08715,0.99619,442.065,452.3)"><rect fill="none" height="5.4313002" id="isFLLRow18" width="9.6499996" x="0" y="84.6632" /></g></g></g>
    <g transform="matrix(1,0,0,-1,-395.32308,374.1915)"><g transform="matrix(1,0,0,-1,0,765)"><g transform="matrix(-0.9962,-0.08715,-0.08715,0.99619,442.065,452.3)"><rect fill="none" height="5.4313002" id="isFLLRow19" width="9.6499996" x="0" y="89.366699" /></g></g></g>
    <g transform="matrix(1,0,0,-1,-395.32308,374.1915)"><g transform="matrix(1,0,0,-1,0,765)"><g transform="translate(485.39,461.0213)"><rect fill="none" height="5.4313002" id="isRLLRow00" width="8.2399998" x="0" y="0" /></g></g></g>
    <g transform="matrix(1,0,0,-1,-395.32308,374.1915)"><g transform="matrix(1,0,0,-1,0,765)"><g transform="translate(485.39,461.0213)"><rect fill="none" height="5.4313002" id="isRLLRow01" width="10.46" x="0" y="4.7034998" /></g></g></g>
    <g transform="matrix(1,0,0,-1,-395.32308,374.1915)"><g transform="matrix(1,0,0,-1,0,765)"><g transform="translate(485.39,461.0213)"><rect fill="none" height="5.4313002" id="isRLLRow02" width="10.46" x="0" y="9.4069996" /></g></g></g>
    <g transform="matrix(1,0,0,-1,-395.32308,374.1915)"><g transform="matrix(1,0,0,-1,0,765)"><g transform="translate(485.39,461.0213)"><rect fill="none" height="5.4313002" id="isRLLRow03" width="10.46" x="0" y="14.1105" /></g></g></g>
    <g transform="matrix(1,0,0,-1,-395.32308,374.1915)"><g transform="matrix(1,0,0,-1,0,765)"><g transform="translate(485.39,461.0213)"><rect fill="none" height="5.4313002" id="isRLLRow04" width="10.46" x="0" y="18.813999" /></g></g></g>
    <g transform="matrix(1,0,0,-1,-395.32308,374.1915)"><g transform="matrix(1,0,0,-1,0,765)"><g transform="translate(485.39,461.0213)"><rect fill="none" height="5.4313002" id="isRLLRow05" width="10.46" x="0" y="23.5175" /></g></g></g>
    <g transform="matrix(1,0,0,-1,-395.32308,374.1915)"><g transform="matrix(1,0,0,-1,0,765)"><g transform="translate(485.39,461.0213)"><rect fill="none" height="5.4313002" id="isRLLRow06" width="11.64" x="0" y="28.221001" /></g></g></g>
    <g transform="matrix(1,0,0,-1,-395.32308,374.1915)"><g transform="matrix(1,0,0,-1,0,765)"><g transform="translate(485.39,461.0213)"><rect fill="none" height="5.4313002" id="isRLLRow07" width="11.64" x="0" y="32.9245" /></g></g></g>
    <g transform="matrix(1,0,0,-1,-395.32308,374.1915)"><g transform="matrix(1,0,0,-1,0,765)"><g transform="translate(485.39,461.0213)"><rect fill="none" height="5.4313002" id="isRLLRow08" width="11.64" x="0" y="37.627998" /></g></g></g>
    <g transform="matrix(1,0,0,-1,-395.32308,374.1915)"><g transform="matrix(1,0,0,-1,0,765)"><g transform="translate(485.39,461.0213)"><rect fill="none" height="5.4313002" id="isRLLRow09" width="11.64" x="0" y="42.3316" /></g></g></g>
    <g transform="matrix(1,0,0,-1,-395.32308,374.1915)"><g transform="matrix(1,0,0,-1,0,765)"><g transform="translate(485.39,461.0213)"><rect fill="none" height="5.4313002" id="isRLLRow10" width="11.64" x="0" y="47.035099" /></g></g></g>
    <g transform="matrix(1,0,0,-1,-395.32308,374.1915)"><g transform="matrix(1,0,0,-1,0,765)"><g transform="translate(485.39,461.0213)"><rect fill="none" height="5.4313002" id="isRLLRow11" width="11.64" x="0" y="51.738602" /></g></g></g>
    <g transform="matrix(1,0,0,-1,-395.32308,374.1915)"><g transform="matrix(1,0,0,-1,0,765)"><g transform="translate(485.39,461.0213)"><rect fill="none" height="5.4313002" id="isRLLRow12" width="11.64" x="0" y="56.442101" /></g></g></g>
    <g transform="matrix(1,0,0,-1,-395.32308,374.1915)"><g transform="matrix(1,0,0,-1,0,765)"><g transform="translate(485.39,461.0213)"><rect fill="none" height="5.4313002" id="isRLLRow13" width="11.64" x="0" y="61.145599" /></g></g></g>
    <g transform="matrix(1,0,0,-1,-395.32308,374.1915)"><g transform="matrix(1,0,0,-1,0,765)"><g transform="translate(485.39,461.0213)"><rect fill="none" height="5.4313002" id="isRLLRow14" width="11.64" x="0" y="65.849098" /></g></g></g>
    <g transform="matrix(1,0,0,-1,-395.32308,374.1915)"><g transform="matrix(1,0,0,-1,0,765)"><g transform="translate(485.39,461.0213)"><rect fill="none" height="5.4313002" id="isRLLRow15" width="11.64" x="0" y="70.552597" /></g></g></g>
    <g transform="matrix(1,0,0,-1,-395.32308,374.1915)"><g transform="matrix(1,0,0,-1,0,765)"><g transform="matrix(-1,0,0,1,457.05,461.0213)"><rect fill="none" height="5.4313002" id="rect1567" width="8.2399998" x="0" y="0" /></g></g></g>
    <g transform="matrix(1,0,0,-1,-395.32308,374.1915)"><g transform="matrix(1,0,0,-1,0,765)"><g transform="matrix(-1,0,0,1,457.05,461.0213)"><rect fill="none" height="5.4313002" id="rect1569" width="10.46" x="0" y="4.7034998" /></g></g></g>
    <g transform="matrix(1,0,0,-1,-395.32308,374.1915)"><g transform="matrix(1,0,0,-1,0,765)"><g transform="matrix(-1,0,0,1,457.05,461.0213)"><rect fill="none" height="5.4313002" id="rect1571" width="10.46" x="0" y="9.4069996" /></g></g></g>
    <g transform="matrix(1,0,0,-1,-395.32308,374.1915)"><g transform="matrix(1,0,0,-1,0,765)"><g transform="matrix(-1,0,0,1,457.05,461.0213)"><rect fill="none" height="5.4313002" id="rect1573" width="10.46" x="0" y="14.1105" /></g></g></g>
    <g transform="matrix(1,0,0,-1,-395.32308,374.1915)"><g transform="matrix(1,0,0,-1,0,765)"><g transform="matrix(-1,0,0,1,457.05,461.0213)"><rect fill="none" height="5.4313002" id="rect1575" width="10.46" x="0" y="18.813999" /></g></g></g>
    <g transform="matrix(1,0,0,-1,-395.32308,374.1915)"><g transform="matrix(1,0,0,-1,0,765)"><g transform="matrix(-1,0,0,1,457.05,461.0213)"><rect fill="none" height="5.4313002" id="rect1577" width="10.46" x="0" y="23.5175" /></g></g></g>
    <g transform="matrix(1,0,0,-1,-395.32308,374.1915)"><g transform="matrix(1,0,0,-1,0,765)"><g transform="matrix(-1,0,0,1,457.05,461.0213)"><rect fill="none" height="5.4313002" id="rect1579" width="11.64" x="0" y="28.221001" /></g></g></g>
    <g transform="matrix(1,0,0,-1,-395.32308,374.1915)"><g transform="matrix(1,0,0,-1,0,765)"><g transform="matrix(-1,0,0,1,457.05,461.0213)"><rect fill="none" height="5.4313002" id="rect1581" width="11.64" x="0" y="32.9245" /></g></g></g>
    <g transform="matrix(1,0,0,-1,-395.32308,374.1915)"><g transform="matrix(1,0,0,-1,0,765)"><g transform="matrix(-1,0,0,1,457.05,461.0213)"><rect fill="none" height="5.4313002" id="rect1583" width="11.64" x="0" y="37.627998" /></g></g></g>
    <g transform="matrix(1,0,0,-1,-395.32308,374.1915)"><g transform="matrix(1,0,0,-1,0,765)"><g transform="matrix(-1,0,0,1,457.05,461.0213)"><rect fill="none" height="5.4313002" id="rect1585" width="11.64" x="0" y="42.3316" /></g></g></g>
    <g transform="matrix(1,0,0,-1,-395.32308,374.1915)"><g transform="matrix(1,0,0,-1,0,765)"><g transform="matrix(-1,0,0,1,457.05,461.0213)"><rect fill="none" height="5.4313002" id="rect1587" width="11.64" x="0" y="47.035099" /></g></g></g>
    <g transform="matrix(1,0,0,-1,-395.32308,374.1915)"><g transform="matrix(1,0,0,-1,0,765)"><g transform="matrix(-1,0,0,1,457.05,461.0213)"><rect fill="none" height="5.4313002" id="rect1589" width="11.64" x="0" y="51.738602" /></g></g></g>
    <g transform="matrix(1,0,0,-1,-395.32308,374.1915)"><g transform="matrix(1,0,0,-1,0,765)"><g transform="matrix(-1,0,0,1,457.05,461.0213)"><rect fill="none" height="5.4313002" id="rect1591" width="11.64" x="0" y="56.442101" /></g></g></g>
    <g transform="matrix(1,0,0,-1,-395.32308,374.1915)"><g transform="matrix(1,0,0,-1,0,765)"><g transform="matrix(-1,0,0,1,457.05,461.0213)"><rect fill="none" height="5.4313002" id="rect1593" width="11.64" x="0" y="61.145599" /></g></g></g>
    <g transform="matrix(1,0,0,-1,-395.32308,374.1915)"><g transform="matrix(1,0,0,-1,0,765)"><g transform="matrix(-1,0,0,1,457.05,461.0213)"><rect fill="none" height="5.4313002" id="rect1595" width="11.64" x="0" y="65.849098" /></g></g></g>
    <g transform="matrix(1,0,0,-1,-395.32308,374.1915)"><g transform="matrix(1,0,0,-1,0,765)"><g transform="matrix(-1,0,0,1,457.05,461.0213)"><rect fill="none" height="5.4313002" id="rect1597" width="11.64" x="0" y="70.552597" /></g></g></g>
    <g transform="matrix(1,0,0,-1,-395.32308,374.1915)"><g transform="matrix(1,0,0,-1,0,765)"><g transform="translate(300,400)"><g transform="rotate(84.000027,66.655104,146.61538)"><rect fill="none" height="5" id="rect432" width="82.5" x="0" y="0" /></g></g></g></g>
    <g transform="matrix(1,0,0,-1,-395.32308,374.1915)"><g transform="matrix(1,0,0,-1,0,765)"><g transform="translate(300,400)"><g transform="rotate(84.000027,66.655104,146.61538)"><rect fill="none" height="5" id="rect433" width="97" x="-14" y="-5" /></g></g></g></g>
    <g transform="matrix(1,0,0,-1,-395.32308,374.1915)"><g transform="matrix(1,0,0,-1,0,765)"><g transform="translate(300,400)"><g transform="matrix(-0.104528,0.994522,0.994522,0.104528,137,65)"><rect fill="none" height="5" id="rect434" width="82.5" x="0" y="0" /></g></g></g></g>
    <g transform="matrix(1,0,0,-1,-395.32308,374.1915)"><g transform="matrix(1,0,0,-1,0,765)"><g transform="translate(300,400)"><g transform="matrix(-0.104528,0.994522,0.994522,0.104528,137,65)"><rect fill="none" height="5" id="rect435" width="97" x="-14" y="-5" /></g></g></g></g>
    <g transform="matrix(1,0,0,-1,-395.32308,374.1915)"><g transform="matrix(1,0,0,-1,0,765)"><g transform="translate(300,400)"><g transform="rotate(89.000001,62.940936,128.67709)"><rect fill="none" height="5" id="rect436" width="76" x="0" y="0" /></g></g></g></g>
    <g transform="matrix(1,0,0,-1,-395.32308,374.1915)"><g transform="matrix(1,0,0,-1,0,765)"><g transform="translate(300,400)"><g transform="rotate(89.000001,62.940936,128.67709)"><rect fill="none" height="5" id="rect437" width="80" x="-3.5" y="-5" /></g></g></g></g>
    <g transform="matrix(1,0,0,-1,-395.32308,374.1915)"><g transform="matrix(1,0,0,-1,0,765)"><g transform="translate(300,400)"><g transform="matrix(-0.0174524,0.999848,0.999848,0.0174524,152,63.5)"><rect fill="none" height="5" id="rect438" width="76" x="0" y="0" /></g></g></g></g>
    <g transform="matrix(1,0,0,-1,-395.32308,374.1915)"><g transform="matrix(1,0,0,-1,0,765)"><g transform="translate(300,400)"><g transform="matrix(-0.0174524,0.999848,0.999848,0.0174524,152,63.5)"><rect fill="none" height="5" id="rect439" width="80" x="-3.5" y="-5" /></g></g></g></g>
    <rect fill="none" height="16.93" id="placeholder-canon-structure-HD" stroke="#e11d48" stroke-dasharray="3 1.5" stroke-opacity="0.9" stroke-width="1.25" width="27.766" x="62.208" y="8.16" />
    <rect fill="none" height="54.703" id="placeholder-canon-structure-CT" stroke="#e11d48" stroke-dasharray="3 1.5" stroke-opacity="0.9" stroke-width="1.25" width="41.513" x="55.127" y="13.687" />
    <rect fill="none" height="58.994" id="placeholder-canon-structure-LT" stroke="#e11d48" stroke-dasharray="3 1.5" stroke-opacity="0.9" stroke-width="1.25" width="47.857" x="20.991" y="9.397" />
    <rect fill="none" height="58.994" id="placeholder-canon-structure-RT" stroke="#e11d48" stroke-dasharray="3 1.5" stroke-opacity="0.9" stroke-width="1.25" width="47.856" x="83.083" y="9.397" />
    </g>
</svg>
