<?xml version="1.0" encoding="UTF-8"?>
<!-- Editable MekBay quad armor paperdoll. Pink dashed rectangles mark pip areas and are removed at runtime. -->
<svg xmlns="http://www.w3.org/2000/svg" viewBox="1.217 20.882 172.495 304.859" role="img" aria-label="quad armor paperdoll">
    <g id="paperdoll-art-armor">
    <g transform="matrix(0.99999752,0,0,-1,-399.38017,738.24098)"><g transform="translate(571.724,490.2083)"><path id="path3587" d="M 0,0 H 1.37 C 1.369,4.189 -3.023,8.483 -9.514,10.805 l 1.423,1.806 -1.156,13.224 -0.939,26.445 -1.617,2.779 -0.171,1.944 c 2.373,1.761 2.803,4.18 3.723,7.123 l 1.143,0.1 2.584,1.894 1.075,3.429 -0.145,1.656 -1.655,3.192 -2.872,1.416 -1.144,-0.1 c -1.417,2.738 -2.261,5.046 -4.902,6.369 l -0.171,1.945 1.111,3.017 -2.406,27.519 -2.164,15.727 -1.369,4.107 -1.369,2.739 -1.369,1.368 -2.738,1.369 h -4.107 -20.534 l 0.917,-28.173 2.281,-26.073 1.616,-2.775 0.507,-5.797 -2.6,-1.687 1.393,-15.931 2.854,-1.21 0.509,-5.793 -1.111,-3.017 3.667,-26.206 1.156,-13.226 1.682,-1.499 C -40.831,6.13 -43.807,3.038 -43.808,0 h 1.368 V -1.395 L -43.808,-2.79 V -5.58 H 1.369 v 2.79 L 0,-1.395 Z" style="fill:#c7c7c7;fill-opacity:1;fill-rule:nonzero;stroke:none" /></g></g>
    <g transform="matrix(0.99999752,0,0,-1,-399.38017,738.24098)"><g transform="translate(534.8488,501.0573)"><path id="path3591" d="M 0,0 H 1.281 C 1.28,3.747 -2.136,7.578 -7.339,9.952 l 2.215,2.369 v 5.476 l 1.281,28.748 -1.28,2.738 v 5.476 l 2.561,1.369 v 15.059 l -2.561,1.37 v 4.107 l 1.28,2.738 v 23.272 l -1.281,24.642 h -25.613 l -1.28,-24.642 V 80.771 l 1.28,-2.737 v -5.478 l -2.561,-1.369 V 56.129 l 2.561,-1.37 10e-4,-5.476 -1.28,-2.738 1.28,-28.748 -10e-4,-5.477 1.856,-1.983 C -34.593,8.009 -38.419,3.962 -38.42,0 h 1.28 v -1.369 l -1.28,-1.369 v -2.738 h 39.7 v 2.738 L 0,-1.369 Z" style="fill:#c7c7c7;fill-opacity:1;fill-rule:nonzero;stroke:none" /></g></g>
    <g transform="matrix(0.99999752,0,0,-1,-399.38017,738.24098)"><g transform="translate(481.4587,501.0573)"><path id="path3595" d="M 0,0 H 1.28 C 1.279,3.962 -2.547,8.009 -8.26,10.337 l 1.857,1.983 -0.001,5.477 1.28,28.748 -1.28,2.738 0.001,5.476 2.56,1.37 v 15.058 l -2.56,1.369 v 5.478 l 1.28,2.737 v 21.903 l -1.28,24.642 h -25.614 l -1.281,-24.642 V 79.402 l 1.28,-2.738 v -4.107 l -2.561,-1.37 V 56.128 l 2.561,-1.369 v -5.476 l -1.28,-2.738 1.281,-28.748 v -5.476 l 2.215,-2.369 C -35.005,7.578 -38.42,3.747 -38.421,0 h 1.281 v -1.369 l -1.28,-1.369 v -2.738 h 39.7 v 2.738 L 0,-1.369 Z" style="fill:#c7c7c7;fill-opacity:1;fill-rule:nonzero;stroke:none" /></g></g>
    <g transform="matrix(0.99999752,0,0,-1,-399.38017,738.24098)"><g transform="translate(452.5786,710.4356)"><path id="path3599" d="m 0,0 -7.954,-7.158 c -1.617,1.281 -3.465,2.286 -5.48,2.919 v 2.762 l -1.107,1.421 -1.107,0.712 h -1.104 l -1.106,-0.712 -1.107,-1.421 v -1.999 c -1.18,-0.029 -2.333,-0.169 -3.443,-0.424 l -6.609,7.876 -2.412,0.21 -9.174,-7.7 -0.212,-2.411 6.558,-7.815 c -0.694,-1.594 -1.153,-3.312 -1.335,-5.115 h -2.064 l -1.421,-1.105 -0.712,-1.108 v -1.103 l 0.712,-1.107 1.421,-1.105 h 2.418 c 0.438,-1.921 1.2,-3.716 2.222,-5.33 l -8.055,-7.25 v -2.053 l 24.642,-36.964 v -4.791 l 1.411,-1.369 H 13.731 V 0 Z" style="fill:#c7c7c7;fill-opacity:1;fill-rule:nonzero;stroke:none" /></g></g>
    <g transform="matrix(0.99999752,0,0,-1,-399.38017,738.24098)"><g transform="translate(466.3098,710.4356)"><path id="path3603" d="m 0,0 v -82.14 l 4.107,-34.147 1.164,-1.369 h 36.005 l 1.164,1.369 4.106,34.147 V 0 Z" style="fill:#c7c7c7;fill-opacity:1;fill-rule:nonzero;stroke:none" /></g></g>
    <g transform="matrix(0.99999752,0,0,-1,-399.38017,738.24098)"><g transform="translate(452.1598,575.4974)"><path id="path3607" d="m 0,0 2.281,26.073 0.917,26.189 -30.002,2.626 -3.646,-25.952 -2.407,-27.52 1.11,-3.017 -0.17,-1.944 c -2.641,-1.323 -3.485,-3.631 -4.902,-6.369 l -1.144,0.099 -2.873,-1.416 -1.654,-3.191 -0.145,-1.657 1.076,-3.428 2.583,-1.895 1.142,-0.099 c 0.921,-2.943 1.351,-5.363 3.723,-7.124 l -0.171,-1.944 -1.617,-2.778 -0.939,-26.445 -1.156,-13.225 1.425,-1.806 c -6.492,-2.322 -10.884,-6.615 -10.885,-10.804 h 1.37 v -1.395 l -1.369,-1.395 v -2.79 h 45.176 v 2.79 l -1.367,1.395 v 1.395 h 1.367 c 0,3.038 -2.977,6.13 -7.396,8.486 l 1.682,1.498 1.156,13.226 3.668,26.206 -1.112,3.018 0.509,5.792 2.854,1.21 1.393,15.932 -2.599,1.688 0.506,5.795 z" style="fill:#c7c7c7;fill-opacity:1;fill-rule:nonzero;stroke:none" /></g></g>
    <g transform="matrix(0.99999752,0,0,-1,-399.38017,738.24098)"><g transform="translate(559.5615,680.7225)"><path id="path3611" d="M 0,0 C 1.022,1.614 1.784,3.41 2.222,5.33 H 4.64 L 6.06,6.435 6.773,7.543 V 8.646 L 6.06,9.754 4.64,10.859 H 2.575 c -0.181,1.801 -0.64,3.52 -1.335,5.114 l 6.559,7.815 -0.213,2.411 -9.173,7.7 -2.413,-0.21 -6.608,-7.876 c -1.11,0.254 -2.264,0.395 -3.444,0.424 v 1.998 l -1.106,1.422 -1.107,0.711 h -1.103 l -1.108,-0.711 -1.106,-1.422 v -2.761 c -2.015,-0.633 -3.862,-1.637 -5.479,-2.919 l -7.954,7.158 h -13.648 v -82.14 h 28.749 l 1.327,1.369 v 4.791 L 8.056,-9.303 v 2.053 z" style="fill:#c7c7c7;fill-opacity:1;fill-rule:nonzero;stroke:none" /></g></g>
    <g transform="matrix(0.99999752,0,0,-1,-399.38017,738.24098)"><g transform="translate(530.7427,503.7952)"><path class="armor unitLocation" id="paperdoll-art-armor-RRL-armorRRL" loc="RRL" d="M 0,0 H 1.281 C 1.28,3.747 -2.136,7.578 -7.339,9.952 l 2.215,2.369 v 5.476 l 1.281,28.748 -1.28,2.738 v 5.476 l 2.561,1.369 v 15.059 l -2.561,1.37 v 4.107 l 1.28,2.738 v 23.272 l -1.281,24.642 h -25.613 l -1.281,-24.642 V 80.771 l 1.281,-2.737 v -5.478 l -2.561,-1.369 V 56.129 l 2.561,-1.37 10e-4,-5.476 -1.281,-2.738 1.281,-28.748 -10e-4,-5.477 1.856,-1.983 C -34.593,8.009 -38.419,3.962 -38.42,0 h 1.28 v -1.369 l -1.28,-1.368 v -2.739 h 39.7 v 2.739 L 0,-1.369 Z" style="fill:#ffffff;fill-opacity:1;fill-rule:nonzero;stroke:none" /></g></g>
    <g transform="matrix(0.99999752,0,0,-1,-399.38017,738.24098)"><g transform="translate(530.7427,503.7952)"><path id="path4139" d="M 0,0 H 1.281 C 1.28,3.747 -2.136,7.578 -7.339,9.952 l 2.215,2.369 v 5.476 l 1.281,28.748 -1.28,2.738 v 5.476 l 2.561,1.369 v 15.059 l -2.561,1.37 v 4.107 l 1.28,2.738 v 23.272 l -1.281,24.642 h -25.613 l -1.281,-24.642 V 80.771 l 1.281,-2.737 v -5.478 l -2.561,-1.369 V 56.129 l 2.561,-1.37 10e-4,-5.476 -1.281,-2.738 1.281,-28.748 -10e-4,-5.477 1.856,-1.983 C -34.593,8.009 -38.419,3.962 -38.42,0 h 1.28 v -1.369 l -1.28,-1.368 v -2.739 h 39.7 v 2.739 L 0,-1.369 Z" style="fill:none;stroke:#000000;stroke-width:1.449;stroke-linecap:butt;stroke-linejoin:miter;stroke-miterlimit:2.414;stroke-dasharray:none;stroke-opacity:1" /></g></g>
    <g transform="matrix(0.99999752,0,0,-1,-399.38017,738.24098)"><g transform="translate(477.3526,503.7952)"><path class="armor unitLocation" id="paperdoll-art-armor-RLL-armorRLL" loc="RLL" d="M 0,0 H 1.28 C 1.279,3.962 -2.547,8.009 -8.259,10.337 l 1.856,1.983 -0.001,5.477 1.28,28.748 -1.28,2.738 0.001,5.476 2.56,1.37 v 15.058 l -2.56,1.369 v 5.478 l 1.28,2.737 v 21.903 l -1.28,24.642 h -25.614 l -1.281,-24.642 V 79.402 l 1.281,-2.738 v -4.107 l -2.562,-1.37 V 56.128 l 2.562,-1.369 v -5.476 l -1.281,-2.738 1.281,-28.748 v -5.476 l 2.215,-2.369 C -35.005,7.578 -38.42,3.747 -38.421,0 h 1.281 v -1.369 l -1.28,-1.368 v -2.739 h 39.7 v 2.739 L 0,-1.369 Z" style="fill:#ffffff;fill-opacity:1;fill-rule:nonzero;stroke:none" /></g></g>
    <g transform="matrix(0.99999752,0,0,-1,-399.38017,738.24098)"><g transform="translate(477.3526,503.7952)"><path id="path4147" d="M 0,0 H 1.28 C 1.279,3.962 -2.547,8.009 -8.259,10.337 l 1.856,1.983 -0.001,5.477 1.28,28.748 -1.28,2.738 0.001,5.476 2.56,1.37 v 15.058 l -2.56,1.369 v 5.478 l 1.28,2.737 v 21.903 l -1.28,24.642 h -25.614 l -1.281,-24.642 V 79.402 l 1.281,-2.738 v -4.107 l -2.562,-1.37 V 56.128 l 2.562,-1.369 v -5.476 l -1.281,-2.738 1.281,-28.748 v -5.476 l 2.215,-2.369 C -35.005,7.578 -38.42,3.747 -38.421,0 h 1.281 v -1.369 l -1.28,-1.368 v -2.739 h 39.7 v 2.739 L 0,-1.369 Z" style="fill:none;stroke:#000000;stroke-width:1.449;stroke-linecap:butt;stroke-linejoin:miter;stroke-miterlimit:2.414;stroke-dasharray:none;stroke-opacity:1" /></g></g>
    <g transform="matrix(0.99999752,0,0,-1,-399.38017,738.24098)"><g transform="translate(462.2037,713.1733)"><path class="armor unitLocation" id="paperdoll-art-armor-CT-armorCT" loc="CT" d="m 0,0 v -82.14 l 4.107,-34.147 1.164,-1.369 h 36.005 l 1.164,1.369 4.107,34.147 V 0 Z" style="fill:#ffffff;fill-opacity:1;fill-rule:nonzero;stroke:none" /></g></g>
    <g transform="matrix(0.99999752,0,0,-1,-399.38017,738.24098)"><g transform="translate(462.2037,713.1733)"><path id="path4155" d="m 0,0 v -82.14 l 4.107,-34.147 1.164,-1.369 h 36.005 l 1.164,1.369 4.107,34.147 V 0 Z" style="fill:none;stroke:#000000;stroke-width:1.449;stroke-linecap:butt;stroke-linejoin:miter;stroke-miterlimit:4;stroke-dasharray:none;stroke-opacity:1" /></g></g>
    <g transform="matrix(0.99999752,0,0,-1,-399.38017,738.24098)"><g transform="translate(401.9684,492.608)"><path class="armor unitLocation" id="paperdoll-art-armor-FLL-armorFLL" loc="FLL" d="m 0,0 h -1.37 c 0.001,4.189 4.393,8.483 10.885,10.805 l -1.425,1.806 1.157,13.224 0.938,26.445 1.617,2.779 0.171,1.944 c -2.372,1.761 -2.802,4.179 -3.722,7.123 l -1.143,0.1 -2.583,1.894 -1.076,3.429 0.145,1.656 1.655,3.192 2.872,1.416 1.144,-0.1 c 1.418,2.738 2.261,5.046 4.902,6.369 l 0.171,1.945 -1.111,3.017 2.406,27.519 2.164,15.727 1.369,4.107 1.369,2.739 1.369,1.369 2.738,1.368 h 4.107 20.534 L 48.366,111.7 46.084,85.627 l -1.615,-2.775 -0.507,-5.797 2.6,-1.687 -1.393,-15.931 -2.854,-1.21 -0.51,-5.793 1.112,-3.017 L 39.25,23.211 38.094,9.985 36.412,8.486 C 40.831,6.13 43.808,3.038 43.808,0 H 42.44 V -1.395 L 43.808,-2.79 V -5.58 H -1.369 v 2.79 L 0,-1.395 Z" style="fill:#ffffff;fill-opacity:1;fill-rule:nonzero;stroke:none" /></g></g>
    <g transform="matrix(0.99999752,0,0,-1,-399.38017,738.24098)"><g transform="translate(401.9684,492.608)"><path id="path4163" d="m 0,0 h -1.37 c 0.001,4.189 4.393,8.483 10.885,10.805 l -1.425,1.806 1.157,13.224 0.938,26.445 1.617,2.779 0.171,1.944 c -2.372,1.761 -2.802,4.179 -3.722,7.123 l -1.143,0.1 -2.583,1.894 -1.076,3.429 0.145,1.656 1.655,3.192 2.872,1.416 1.144,-0.1 c 1.418,2.738 2.261,5.046 4.902,6.369 l 0.171,1.945 -1.111,3.017 2.406,27.519 2.164,15.727 1.369,4.107 1.369,2.739 1.369,1.369 2.738,1.368 h 4.107 20.534 L 48.366,111.7 46.084,85.627 l -1.615,-2.775 -0.507,-5.797 2.6,-1.687 -1.393,-15.931 -2.854,-1.21 -0.51,-5.793 1.112,-3.017 L 39.25,23.211 38.094,9.985 36.412,8.486 C 40.831,6.13 43.808,3.038 43.808,0 H 42.44 V -1.395 L 43.808,-2.79 V -5.58 H -1.369 v 2.79 L 0,-1.395 Z" style="fill:none;stroke:#000000;stroke-width:1.449;stroke-linecap:butt;stroke-linejoin:miter;stroke-miterlimit:2.414;stroke-dasharray:none;stroke-opacity:1" /></g></g>
    <g transform="matrix(0.99999752,0,0,-1,-399.38017,738.24098)"><g transform="translate(505.1914,695.8696)"><g transform="matrix(1,0,0,1,-42.5,17.2)"><path id="paperdoll-art-armor-HD-path214" d="M 11.2 -5.5 L 9.19 -9.42 L 3.29 -9.42 L 1.29 -15.3 L 3.29 -17.3 L 5.19 -17.3 L 5.19 -25.2 L 3.29 -25.2 L 5.19 -48.8 L 40.7 -48.8 L 42.7 -25.2 L 40.7 -25.2 L 40.7 -17.3 L 42.7 -17.3 L 44.7 -15.3 L 42.7 -9.42 L 36.8 -9.42 L 34.8 -5.5 L 11.2 -5.5 z" style="fill:#ffffff;fill-opacity:1;fill-rule:nonzero;stroke:none" /></g></g></g>
    <g transform="matrix(0.99999752,0,0,-1,-399.38017,738.24098)"><g transform="translate(505.1914,695.8696)"><g transform="matrix(1,0,0,1,-505,-695)"><path id="paperdoll-art-armor-HD-path4165" d="m 503.219,687.983 h -35.483 v 7.886 h 35.483 z" style="fill:#c7c7c7;fill-opacity:1;fill-rule:nonzero;stroke:none" /></g></g></g>
    <g transform="matrix(0.99999752,0,0,-1,-399.38017,738.24098)"><g transform="translate(505.1914,695.8696)"><path id="paperdoll-art-armor-HD-path4169" d="M 0,0 -1.972,-0.001 V -7.887 H 0 l -1.972,-23.655 h -35.485 l -1.97,23.655 h 1.97 v 7.886 h -1.97 l -1.971,1.971 1.971,5.915 h 5.914 l 1.97,3.943 h 23.656 l 1.973,-3.943 h 5.912 L 1.97,1.97 Z" style="fill:none;stroke:#000000;stroke-width:1.449;stroke-linecap:butt;stroke-linejoin:miter;stroke-miterlimit:4;stroke-dasharray:none;stroke-opacity:1" /></g></g>
    <g transform="matrix(0.99999752,0,0,-1,-399.38017,738.24098)"><g transform="translate(448.4726,713.1733)"><path class="armor unitLocation" id="paperdoll-art-armor-LT-armorLT" loc="LT" d="m 0,0 -7.954,-7.158 c -1.617,1.281 -3.465,2.286 -5.48,2.919 v 2.762 l -1.107,1.421 -1.107,0.712 h -1.104 l -1.106,-0.712 -1.107,-1.421 v -1.999 c -1.18,-0.029 -2.333,-0.169 -3.443,-0.424 l -6.609,7.876 -2.412,0.21 -9.174,-7.7 -0.212,-2.411 6.558,-7.815 c -0.694,-1.594 -1.153,-3.312 -1.335,-5.114 h -2.064 l -1.421,-1.106 -0.712,-1.107 v -1.104 l 0.712,-1.107 1.421,-1.105 h 2.418 c 0.438,-1.92 1.2,-3.716 2.222,-5.33 l -8.055,-7.25 v -2.053 l 24.642,-36.964 v -4.791 l 1.411,-1.369 H 13.731 V 0 Z" style="fill:#ffffff;fill-opacity:1;fill-rule:nonzero;stroke:none" /></g></g>
    <g transform="matrix(0.99999752,0,0,-1,-399.38017,738.24098)"><g transform="translate(448.4726,713.1733)"><path id="path4177" d="m 0,0 -7.954,-7.158 c -1.617,1.281 -3.465,2.286 -5.48,2.919 v 2.762 l -1.107,1.421 -1.107,0.712 h -1.104 l -1.106,-0.712 -1.107,-1.421 v -1.999 c -1.18,-0.029 -2.333,-0.169 -3.443,-0.424 l -6.609,7.876 -2.412,0.21 -9.174,-7.7 -0.212,-2.411 6.558,-7.815 c -0.694,-1.594 -1.153,-3.312 -1.335,-5.114 h -2.064 l -1.421,-1.106 -0.712,-1.107 v -1.104 l 0.712,-1.107 1.421,-1.105 h 2.418 c 0.438,-1.92 1.2,-3.716 2.222,-5.33 l -8.055,-7.25 v -2.053 l 24.642,-36.964 v -4.791 l 1.411,-1.369 H 13.731 V 0 Z" style="fill:none;stroke:#000000;stroke-width:1.449;stroke-linecap:butt;stroke-linejoin:miter;stroke-miterlimit:4;stroke-dasharray:none;stroke-opacity:1" /></g></g>
    <g transform="matrix(0.99999752,0,0,-1,-399.38017,738.24098)"><g transform="translate(568.9857,492.608)"><path class="armor unitLocation" id="paperdoll-art-armor-FRL-armorFRL" loc="FRL" d="M 0,0 H 1.37 C 1.369,4.189 -3.023,8.483 -9.515,10.805 l 1.424,1.806 -1.156,13.224 -0.939,26.445 -1.616,2.779 -0.171,1.944 c 2.372,1.761 2.802,4.179 3.722,7.123 l 1.143,0.1 2.583,1.894 1.076,3.429 -0.145,1.656 -1.655,3.192 -2.872,1.416 -1.144,-0.1 c -1.418,2.738 -2.261,5.046 -4.902,6.369 l -0.171,1.945 1.111,3.017 -2.407,27.519 -2.163,15.727 -1.369,4.107 -1.369,2.739 -1.369,1.369 -2.738,1.368 h -4.107 -20.534 l 0.917,-28.173 2.282,-26.073 1.615,-2.775 0.507,-5.797 -2.6,-1.687 1.393,-15.931 2.854,-1.21 0.509,-5.793 -1.111,-3.017 3.667,-26.206 1.156,-13.226 1.682,-1.499 C -40.832,6.13 -43.808,3.038 -43.808,0 h 1.368 V -1.395 L -43.808,-2.79 V -5.58 H 1.369 v 2.79 L 0,-1.395 Z" style="fill:#ffffff;fill-opacity:1;fill-rule:nonzero;stroke:none" /></g></g>
    <g transform="matrix(0.99999752,0,0,-1,-399.38017,738.24098)"><g transform="translate(568.9857,492.608)"><path id="path4185" d="M 0,0 H 1.37 C 1.369,4.189 -3.023,8.483 -9.515,10.805 l 1.424,1.806 -1.156,13.224 -0.939,26.445 -1.616,2.779 -0.171,1.944 c 2.372,1.761 2.802,4.179 3.722,7.123 l 1.143,0.1 2.583,1.894 1.076,3.429 -0.145,1.656 -1.655,3.192 -2.872,1.416 -1.144,-0.1 c -1.418,2.738 -2.261,5.046 -4.902,6.369 l -0.171,1.945 1.111,3.017 -2.407,27.519 -2.163,15.727 -1.369,4.107 -1.369,2.739 -1.369,1.369 -2.738,1.368 h -4.107 -20.534 l 0.917,-28.173 2.282,-26.073 1.615,-2.775 0.507,-5.797 -2.6,-1.687 1.393,-15.931 2.854,-1.21 0.509,-5.793 -1.111,-3.017 3.667,-26.206 1.156,-13.226 1.682,-1.499 C -40.832,6.13 -43.808,3.038 -43.808,0 h 1.368 V -1.395 L -43.808,-2.79 V -5.58 H 1.369 v 2.79 L 0,-1.395 Z" style="fill:none;stroke:#000000;stroke-width:1.449;stroke-linecap:butt;stroke-linejoin:miter;stroke-miterlimit:2.414;stroke-dasharray:none;stroke-opacity:1" /></g></g>
    <g transform="matrix(0.99999752,0,0,-1,-399.38017,738.24098)"><g transform="translate(555.4555,683.4604)"><path class="armor unitLocation" id="paperdoll-art-armor-RT-armorRT" loc="RT" d="M 0,0 C 1.022,1.614 1.784,3.41 2.222,5.33 H 4.64 L 6.06,6.435 6.773,7.543 V 8.646 L 6.06,9.754 4.64,10.859 H 2.575 c -0.181,1.801 -0.64,3.52 -1.335,5.114 l 6.559,7.815 -0.213,2.411 -9.174,7.7 -2.412,-0.21 -6.608,-7.876 c -1.11,0.254 -2.264,0.395 -3.444,0.424 v 1.998 l -1.106,1.422 -1.107,0.711 h -1.104 l -1.107,-0.711 -1.106,-1.422 v -2.761 c -2.015,-0.633 -3.862,-1.637 -5.479,-2.919 l -7.954,7.158 h -13.648 v -82.14 h 28.749 l 1.327,1.369 v 4.791 L 8.056,-9.303 v 2.053 z" style="fill:#ffffff;fill-opacity:1;fill-rule:nonzero;stroke:none" /></g></g>
    <g transform="matrix(0.99999752,0,0,-1,-399.38017,738.24098)"><g transform="translate(555.4555,683.4604)"><path id="path4193" d="M 0,0 C 1.022,1.614 1.784,3.41 2.222,5.33 H 4.64 L 6.06,6.435 6.773,7.543 V 8.646 L 6.06,9.754 4.64,10.859 H 2.575 c -0.181,1.801 -0.64,3.52 -1.335,5.114 l 6.559,7.815 -0.213,2.411 -9.174,7.7 -2.412,-0.21 -6.608,-7.876 c -1.11,0.254 -2.264,0.395 -3.444,0.424 v 1.998 l -1.106,1.422 -1.107,0.711 h -1.104 l -1.107,-0.711 -1.106,-1.422 v -2.761 c -2.015,-0.633 -3.862,-1.637 -5.479,-2.919 l -7.954,7.158 h -13.648 v -82.14 h 28.749 l 1.327,1.369 v 4.791 L 8.056,-9.303 v 2.053 z" style="fill:none;stroke:#000000;stroke-width:1.449;stroke-linecap:butt;stroke-linejoin:miter;stroke-miterlimit:4;stroke-dasharray:none;stroke-opacity:1" /></g></g>
    <g transform="matrix(0.99999752,0,0,-1,-399.38017,738.24098)"><g transform="matrix(1,0,0,-1,0,765)"><g transform="translate(473.2,74.44)"><rect fill="none" height="6" id="armorHDRow00" width="24.799999" x="0" y="5" /></g></g></g>
    <g transform="matrix(0.99999752,0,0,-1,-399.38017,738.24098)"><g transform="matrix(1,0,0,-1,0,765)"><g transform="translate(473.2,74.44)"><rect fill="none" height="6" id="armorHDRow01" width="24.799999" x="0" y="11" /></g></g></g>
    <g transform="matrix(0.99999752,0,0,-1,-399.38017,738.24098)"><g transform="matrix(1,0,0,-1,0,765)"><g transform="translate(473.2,74.44)"><rect fill="none" height="6" id="armorHDRow02" width="12.6" x="6.0999999" y="17" /></g></g></g>
    <g transform="matrix(0.99999752,0,0,-1,-399.38017,738.24098)"><g transform="matrix(1,0,0,-1,0,765)"><g transform="translate(473.25,68.1505)"><rect fill="none" height="6.1515198" id="rect1225" width="24.799999" x="0" y="-0.82440001" /></g></g></g>
    <g transform="matrix(0.99999752,0,0,-1,-399.38017,738.24098)"><g transform="matrix(1,0,0,-1,0,765)"><g transform="translate(473.25,68.1505)"><rect fill="none" height="6.1515198" id="rect1227" width="24.799999" x="0" y="5.3271999" /></g></g></g>
    <g transform="matrix(0.99999752,0,0,-1,-399.38017,738.24098)"><g transform="matrix(1,0,0,-1,0,765)"><g transform="translate(473.25,68.1505)"><rect fill="none" height="6.1515198" id="rect1229" width="24.799999" x="0" y="11.6544" /></g></g></g>
    <g transform="matrix(0.99999752,0,0,-1,-399.38017,738.24098)"><g transform="matrix(1,0,0,-1,0,765)"><g transform="translate(473.25,68.1505)"><rect fill="none" height="6.1515198" id="armorHDRow03" width="12.6" x="6.0999999" y="17.9816" /></g></g></g>
    <g transform="matrix(0.99999752,0,0,-1,-399.38017,738.24098)"><g transform="matrix(1,0,0,-1,0,765)"><g transform="translate(463.03,102.5541)"><rect fill="none" height="6" id="armorCTRow00" width="44.900002" x="0" y="0" /></g></g></g>
    <g transform="matrix(0.99999752,0,0,-1,-399.38017,738.24098)"><g transform="matrix(1,0,0,-1,0,765)"><g transform="translate(463.03,102.5541)"><rect fill="none" height="6" id="armorCTRow01" width="44.900002" x="0" y="6" /></g></g></g>
    <g transform="matrix(0.99999752,0,0,-1,-399.38017,738.24098)"><g transform="matrix(1,0,0,-1,0,765)"><g transform="translate(463.03,102.5541)"><rect fill="none" height="6" id="armorCTRow02" width="44.900002" x="0" y="12" /></g></g></g>
    <g transform="matrix(0.99999752,0,0,-1,-399.38017,738.24098)"><g transform="matrix(1,0,0,-1,0,765)"><g transform="translate(463.03,102.5541)"><rect fill="none" height="6" id="armorCTRow03" width="44.900002" x="0" y="18" /></g></g></g>
    <g transform="matrix(0.99999752,0,0,-1,-399.38017,738.24098)"><g transform="matrix(1,0,0,-1,0,765)"><g transform="translate(463.03,102.5541)"><rect fill="none" height="6" id="armorCTRow04" width="44.900002" x="0" y="24" /></g></g></g>
    <g transform="matrix(0.99999752,0,0,-1,-399.38017,738.24098)"><g transform="matrix(1,0,0,-1,0,765)"><g transform="translate(463.03,102.5541)"><rect fill="none" height="6" id="armorCTRow05" width="44.900002" x="0" y="30" /></g></g></g>
    <g transform="matrix(0.99999752,0,0,-1,-399.38017,738.24098)"><g transform="matrix(1,0,0,-1,0,765)"><g transform="translate(463.03,102.5541)"><rect fill="none" height="6" id="armorCTRow07" width="42.360001" x="1.27" y="36" /></g></g></g>
    <g transform="matrix(0.99999752,0,0,-1,-399.38017,738.24098)"><g transform="matrix(1,0,0,-1,0,765)"><g transform="translate(463.03,102.5541)"><rect fill="none" height="6" id="armorCTRow08" width="41.18" x="1.86" y="42" /></g></g></g>
    <g transform="matrix(0.99999752,0,0,-1,-399.38017,738.24098)"><g transform="matrix(1,0,0,-1,0,765)"><g transform="translate(463.03,102.5541)"><rect fill="none" height="6" id="armorCTRow09" width="40" x="2.45" y="48" /></g></g></g>
    <g transform="matrix(0.99999752,0,0,-1,-399.38017,738.24098)"><g transform="matrix(1,0,0,-1,0,765)"><g transform="translate(463.03,102.5541)"><rect fill="none" height="6" id="armorCTRow10" width="38.419998" x="3.24" y="54" /></g></g></g>
    <g transform="matrix(0.99999752,0,0,-1,-399.38017,738.24098)"><g transform="matrix(1,0,0,-1,0,765)"><g transform="translate(463.03,102.5541)"><rect fill="none" height="6" id="armorCTRow11" width="37.439999" x="3.73" y="60" /></g></g></g>
    <g transform="matrix(0.99999752,0,0,-1,-399.38017,738.24098)"><g transform="matrix(1,0,0,-1,0,765)"><g transform="translate(509.81,60)"><rect fill="none" height="6" id="armorRTRow00" width="46.200001" x="0" y="0" /></g></g></g>
    <g transform="matrix(0.99999752,0,0,-1,-399.38017,738.24098)"><g transform="matrix(1,0,0,-1,0,765)"><g transform="translate(509.81,60)"><rect fill="none" height="6" id="armorRTRow01" width="46.200001" x="0" y="6" /></g></g></g>
    <g transform="matrix(0.99999752,0,0,-1,-399.38017,738.24098)"><g transform="matrix(1,0,0,-1,0,765)"><g transform="translate(509.81,60)"><rect fill="none" height="6" id="armorRTRow02" width="46.200001" x="0" y="12" /></g></g></g>
    <g transform="matrix(0.99999752,0,0,-1,-399.38017,738.24098)"><g transform="matrix(1,0,0,-1,0,765)"><g transform="translate(509.81,60)"><rect fill="none" height="6" id="armorRTRow03" width="44.619999" x="0" y="18" /></g></g></g>
    <g transform="matrix(0.99999752,0,0,-1,-399.38017,738.24098)"><g transform="matrix(1,0,0,-1,0,765)"><g transform="translate(509.81,60)"><rect fill="none" height="6" id="armorRTRow04" width="44.619999" x="0" y="24" /></g></g></g>
    <g transform="matrix(0.99999752,0,0,-1,-399.38017,738.24098)"><g transform="matrix(1,0,0,-1,0,765)"><g transform="translate(509.81,60)"><rect fill="none" height="6" id="armorRTRow05" width="49" x="0" y="30" /></g></g></g>
    <g transform="matrix(0.99999752,0,0,-1,-399.38017,738.24098)"><g transform="matrix(1,0,0,-1,0,765)"><g transform="translate(509.81,60)"><rect fill="none" height="6" id="armorRTRow07" width="42.650002" x="0" y="36" /></g></g></g>
    <g transform="matrix(0.99999752,0,0,-1,-399.38017,738.24098)"><g transform="matrix(1,0,0,-1,0,765)"><g transform="translate(509.81,60)"><rect fill="none" height="6" id="armorRTRow08" width="39.299999" x="0" y="42" /></g></g></g>
    <g transform="matrix(0.99999752,0,0,-1,-399.38017,738.24098)"><g transform="matrix(1,0,0,-1,0,765)"><g transform="translate(509.81,60)"><rect fill="none" height="6" id="armorRTRow09" width="35.369999" x="0" y="48" /></g></g></g>
    <g transform="matrix(0.99999752,0,0,-1,-399.38017,738.24098)"><g transform="matrix(1,0,0,-1,0,765)"><g transform="translate(509.81,60)"><rect fill="none" height="6" id="armorRTRow10" width="32.310001" x="0" y="54" /></g></g></g>
    <g transform="matrix(0.99999752,0,0,-1,-399.38017,738.24098)"><g transform="matrix(1,0,0,-1,0,765)"><g transform="translate(509.81,60)"><rect fill="none" height="6" id="armorRTRow11" width="28.08" x="0" y="60" /></g></g></g>
    <g transform="matrix(0.99999752,0,0,-1,-399.38017,738.24098)"><g transform="matrix(1,0,0,-1,0,765)"><g transform="translate(509.81,60)"><rect fill="none" height="6" id="armorRTRow12" width="28.08" x="0" y="66" /></g></g></g>
    <g transform="matrix(0.99999752,0,0,-1,-399.38017,738.24098)"><g transform="matrix(1,0,0,-1,0,765)"><g transform="matrix(-1,0,0,1,461.1,60)"><rect fill="none" height="6" id="rect593" width="46.200001" x="0" y="0" /></g></g></g>
    <g transform="matrix(0.99999752,0,0,-1,-399.38017,738.24098)"><g transform="matrix(1,0,0,-1,0,765)"><g transform="matrix(-1,0,0,1,461.1,60)"><rect fill="none" height="6" id="rect594" width="46.200001" x="0" y="6" /></g></g></g>
    <g transform="matrix(0.99999752,0,0,-1,-399.38017,738.24098)"><g transform="matrix(1,0,0,-1,0,765)"><g transform="matrix(-1,0,0,1,461.1,60)"><rect fill="none" height="6" id="rect595" width="46.200001" x="0" y="12" /></g></g></g>
    <g transform="matrix(0.99999752,0,0,-1,-399.38017,738.24098)"><g transform="matrix(1,0,0,-1,0,765)"><g transform="matrix(-1,0,0,1,461.1,60)"><rect fill="none" height="6" id="rect596" width="44.619999" x="0" y="18" /></g></g></g>
    <g transform="matrix(0.99999752,0,0,-1,-399.38017,738.24098)"><g transform="matrix(1,0,0,-1,0,765)"><g transform="matrix(-1,0,0,1,461.1,60)"><rect fill="none" height="6" id="rect597" width="44.619999" x="0" y="24" /></g></g></g>
    <g transform="matrix(0.99999752,0,0,-1,-399.38017,738.24098)"><g transform="matrix(1,0,0,-1,0,765)"><g transform="matrix(-1,0,0,1,461.1,60)"><rect fill="none" height="6" id="rect598" width="49" x="0" y="30" /></g></g></g>
    <g transform="matrix(0.99999752,0,0,-1,-399.38017,738.24098)"><g transform="matrix(1,0,0,-1,0,765)"><g transform="matrix(-1,0,0,1,461.1,60)"><rect fill="none" height="6" id="rect599" width="42.650002" x="0" y="36" /></g></g></g>
    <g transform="matrix(0.99999752,0,0,-1,-399.38017,738.24098)"><g transform="matrix(1,0,0,-1,0,765)"><g transform="matrix(-1,0,0,1,461.1,60)"><rect fill="none" height="6" id="rect600" width="39.299999" x="0" y="42" /></g></g></g>
    <g transform="matrix(0.99999752,0,0,-1,-399.38017,738.24098)"><g transform="matrix(1,0,0,-1,0,765)"><g transform="matrix(-1,0,0,1,461.1,60)"><rect fill="none" height="6" id="rect601" width="35.369999" x="0" y="48" /></g></g></g>
    <g transform="matrix(0.99999752,0,0,-1,-399.38017,738.24098)"><g transform="matrix(1,0,0,-1,0,765)"><g transform="matrix(-1,0,0,1,461.1,60)"><rect fill="none" height="6" id="rect602" width="32.310001" x="0" y="54" /></g></g></g>
    <g transform="matrix(0.99999752,0,0,-1,-399.38017,738.24098)"><g transform="matrix(1,0,0,-1,0,765)"><g transform="matrix(-1,0,0,1,461.1,60)"><rect fill="none" height="6" id="rect603" width="28.08" x="0" y="60" /></g></g></g>
    <g transform="matrix(0.99999752,0,0,-1,-399.38017,738.24098)"><g transform="matrix(1,0,0,-1,0,765)"><g transform="matrix(-1,0,0,1,461.1,60)"><rect fill="none" height="6" id="rect604" width="28.08" x="0" y="66" /></g></g></g>
    <g transform="matrix(0.99999752,0,0,-1,-399.38017,738.24098)"><g transform="matrix(1,0,0,-1,0,765)"><g transform="matrix(0.9962,-0.08715,0.08715,0.99619,521.659,140.49)"><rect fill="none" height="6" id="armorFRLRow00" width="25.34" x="0" y="0" /></g></g></g>
    <g transform="matrix(0.99999752,0,0,-1,-399.38017,738.24098)"><g transform="matrix(1,0,0,-1,0,765)"><g transform="matrix(0.9962,-0.08715,0.08715,0.99619,521.659,140.49)"><rect fill="none" height="6" id="armorFRLRow01" width="25.34" x="0" y="6" /></g></g></g>
    <g transform="matrix(0.99999752,0,0,-1,-399.38017,738.24098)"><g transform="matrix(1,0,0,-1,0,765)"><g transform="matrix(0.9962,-0.08715,0.08715,0.99619,521.659,140.49)"><rect fill="none" height="6" id="armorFRLRow02" width="25.34" x="0" y="12" /></g></g></g>
    <g transform="matrix(0.99999752,0,0,-1,-399.38017,738.24098)"><g transform="matrix(1,0,0,-1,0,765)"><g transform="matrix(0.9962,-0.08715,0.08715,0.99619,521.659,140.49)"><rect fill="none" height="6" id="armorFRLRow03" width="25.34" x="0" y="18" /></g></g></g>
    <g transform="matrix(0.99999752,0,0,-1,-399.38017,738.24098)"><g transform="matrix(1,0,0,-1,0,765)"><g transform="matrix(0.9962,-0.08715,0.08715,0.99619,521.659,140.49)"><rect fill="none" height="6" id="armorFRLRow04" width="25.34" x="0" y="24" /></g></g></g>
    <g transform="matrix(0.99999752,0,0,-1,-399.38017,738.24098)"><g transform="matrix(1,0,0,-1,0,765)"><g transform="matrix(0.9962,-0.08715,0.08715,0.99619,521.659,140.49)"><rect fill="none" height="6" id="armorFRLRow05" width="25.34" x="0" y="30" /></g></g></g>
    <g transform="matrix(0.99999752,0,0,-1,-399.38017,738.24098)"><g transform="matrix(1,0,0,-1,0,765)"><g transform="matrix(0.9962,-0.08715,0.08715,0.99619,521.659,140.49)"><rect fill="none" height="6" id="armorFRLRow06" width="25.34" x="0" y="36" /></g></g></g>
    <g transform="matrix(0.99999752,0,0,-1,-399.38017,738.24098)"><g transform="matrix(1,0,0,-1,0,765)"><g transform="matrix(0.9962,-0.08715,0.08715,0.99619,521.659,140.49)"><rect fill="none" height="6" id="armorFRLRow07" width="25.34" x="0" y="42" /></g></g></g>
    <g transform="matrix(0.99999752,0,0,-1,-399.38017,738.24098)"><g transform="matrix(1,0,0,-1,0,765)"><g transform="matrix(0.9962,-0.08715,0.08715,0.99619,521.659,140.49)"><rect fill="none" height="6" id="armorFRLRow08" width="25.34" x="0" y="48" /></g></g></g>
    <g transform="matrix(0.99999752,0,0,-1,-399.38017,738.24098)"><g transform="matrix(1,0,0,-1,0,765)"><g transform="matrix(0.9962,-0.08715,0.08715,0.99619,521.659,140.49)"><rect fill="none" height="6" id="armorFRLRow09" width="25.34" x="0" y="54" /></g></g></g>
    <g transform="matrix(0.99999752,0,0,-1,-399.38017,738.24098)"><g transform="matrix(1,0,0,-1,0,765)"><g transform="matrix(0.9962,-0.08715,0.08715,0.99619,521.659,140.49)"><rect fill="none" height="6" id="armorFRLRow10" width="25.34" x="0" y="60" /></g></g></g>
    <g transform="matrix(0.99999752,0,0,-1,-399.38017,738.24098)"><g transform="matrix(1,0,0,-1,0,765)"><g transform="matrix(0.9962,-0.08715,0.08715,0.99619,521.659,140.49)"><rect fill="none" height="6" id="armorFRLRow12" width="25.34" x="0" y="66" /></g></g></g>
    <g transform="matrix(0.99999752,0,0,-1,-399.38017,738.24098)"><g transform="matrix(1,0,0,-1,0,765)"><g transform="matrix(0.9962,-0.08715,0.08715,0.99619,521.659,140.49)"><rect fill="none" height="6" id="armorFRLRow13" width="25.34" x="0" y="72" /></g></g></g>
    <g transform="matrix(0.99999752,0,0,-1,-399.38017,738.24098)"><g transform="matrix(1,0,0,-1,0,765)"><g transform="matrix(0.9962,-0.08715,0.08715,0.99619,521.659,140.49)"><rect fill="none" height="6" id="armorFRLRow14" width="25.34" x="0" y="78" /></g></g></g>
    <g transform="matrix(0.99999752,0,0,-1,-399.38017,738.24098)"><g transform="matrix(1,0,0,-1,0,765)"><g transform="matrix(0.9962,-0.08715,0.08715,0.99619,521.659,140.49)"><rect fill="none" height="6" id="armorFRLRow15" width="25.34" x="0" y="84" /></g></g></g>
    <g transform="matrix(0.99999752,0,0,-1,-399.38017,738.24098)"><g transform="matrix(1,0,0,-1,0,765)"><g transform="matrix(0.9962,-0.08715,0.08715,0.99619,521.659,140.49)"><rect fill="none" height="6" id="armorFRLRow16" width="25.34" x="0" y="90" /></g></g></g>
    <g transform="matrix(0.99999752,0,0,-1,-399.38017,738.24098)"><g transform="matrix(1,0,0,-1,0,765)"><g transform="matrix(0.9962,-0.08715,0.08715,0.99619,521.659,140.49)"><rect fill="none" height="6" id="armorFRLRow18" width="25.34" x="0" y="96" /></g></g></g>
    <g transform="matrix(0.99999752,0,0,-1,-399.38017,738.24098)"><g transform="matrix(1,0,0,-1,0,765)"><g transform="matrix(0.9962,-0.08715,0.08715,0.99619,521.659,140.49)"><rect fill="none" height="6" id="armorFRLRow19" width="25.34" x="0" y="102" /></g></g></g>
    <g transform="matrix(0.99999752,0,0,-1,-399.38017,738.24098)"><g transform="matrix(1,0,0,-1,0,765)"><g transform="matrix(0.9962,-0.08715,0.08715,0.99619,521.659,140.49)"><rect fill="none" height="6" id="armorFRLRow20" width="25.34" x="0" y="108" /></g></g></g>
    <g transform="matrix(0.99999752,0,0,-1,-399.38017,738.24098)"><g transform="matrix(1,0,0,-1,0,765)"><g transform="matrix(0.9962,-0.08715,0.08715,0.99619,521.659,140.49)"><rect fill="none" height="6" id="armorFRLRow21" width="25.34" x="0" y="114" /></g></g></g>
    <g transform="matrix(0.99999752,0,0,-1,-399.38017,738.24098)"><g transform="matrix(1,0,0,-1,0,765)"><g transform="matrix(0.9962,-0.08715,0.08715,0.99619,521.659,140.49)"><rect fill="none" height="6" id="armorFRLRow22" width="25.34" x="0" y="120" /></g></g></g>
    <g transform="matrix(0.99999752,0,0,-1,-399.38017,738.24098)"><g transform="matrix(1,0,0,-1,0,765)"><g transform="matrix(0.9962,-0.08715,0.08715,0.99619,521.659,140.49)"><rect fill="none" height="6" id="armorFRLRow23" width="30" x="-2" y="126" /></g></g></g>
    <g transform="matrix(0.99999752,0,0,-1,-399.38017,738.24098)"><g transform="matrix(1,0,0,-1,0,765)"><g transform="matrix(0.9962,-0.08715,0.08715,0.99619,521.659,140.49)"><rect fill="none" height="6" id="rect605" width="30" x="3" y="132" /></g></g></g>
    <g transform="matrix(0.99999752,0,0,-1,-399.38017,738.24098)"><g transform="matrix(1,0,0,-1,0,765)"><g transform="matrix(-0.9962,-0.08715,-0.08715,0.99619,449.051,140.49)"><rect fill="none" height="6" id="rect606" width="25.34" x="0" y="0" /></g></g></g>
    <g transform="matrix(0.99999752,0,0,-1,-399.38017,738.24098)"><g transform="matrix(1,0,0,-1,0,765)"><g transform="matrix(-0.9962,-0.08715,-0.08715,0.99619,449.051,140.49)"><rect fill="none" height="6" id="rect607" width="25.34" x="0" y="6" /></g></g></g>
    <g transform="matrix(0.99999752,0,0,-1,-399.38017,738.24098)"><g transform="matrix(1,0,0,-1,0,765)"><g transform="matrix(-0.9962,-0.08715,-0.08715,0.99619,449.051,140.49)"><rect fill="none" height="6" id="rect608" width="25.34" x="0" y="12" /></g></g></g>
    <g transform="matrix(0.99999752,0,0,-1,-399.38017,738.24098)"><g transform="matrix(1,0,0,-1,0,765)"><g transform="matrix(-0.9962,-0.08715,-0.08715,0.99619,449.051,140.49)"><rect fill="none" height="6" id="rect609" width="25.34" x="0" y="18" /></g></g></g>
    <g transform="matrix(0.99999752,0,0,-1,-399.38017,738.24098)"><g transform="matrix(1,0,0,-1,0,765)"><g transform="matrix(-0.9962,-0.08715,-0.08715,0.99619,449.051,140.49)"><rect fill="none" height="6" id="rect610" width="25.34" x="0" y="24" /></g></g></g>
    <g transform="matrix(0.99999752,0,0,-1,-399.38017,738.24098)"><g transform="matrix(1,0,0,-1,0,765)"><g transform="matrix(-0.9962,-0.08715,-0.08715,0.99619,449.051,140.49)"><rect fill="none" height="6" id="rect611" width="25.34" x="0" y="30" /></g></g></g>
    <g transform="matrix(0.99999752,0,0,-1,-399.38017,738.24098)"><g transform="matrix(1,0,0,-1,0,765)"><g transform="matrix(-0.9962,-0.08715,-0.08715,0.99619,449.051,140.49)"><rect fill="none" height="6" id="rect612" width="25.34" x="0" y="36" /></g></g></g>
    <g transform="matrix(0.99999752,0,0,-1,-399.38017,738.24098)"><g transform="matrix(1,0,0,-1,0,765)"><g transform="matrix(-0.9962,-0.08715,-0.08715,0.99619,449.051,140.49)"><rect fill="none" height="6" id="rect613" width="25.34" x="0" y="42" /></g></g></g>
    <g transform="matrix(0.99999752,0,0,-1,-399.38017,738.24098)"><g transform="matrix(1,0,0,-1,0,765)"><g transform="matrix(-0.9962,-0.08715,-0.08715,0.99619,449.051,140.49)"><rect fill="none" height="6" id="rect614" width="25.34" x="0" y="48" /></g></g></g>
    <g transform="matrix(0.99999752,0,0,-1,-399.38017,738.24098)"><g transform="matrix(1,0,0,-1,0,765)"><g transform="matrix(-0.9962,-0.08715,-0.08715,0.99619,449.051,140.49)"><rect fill="none" height="6" id="rect615" width="25.34" x="0" y="54" /></g></g></g>
    <g transform="matrix(0.99999752,0,0,-1,-399.38017,738.24098)"><g transform="matrix(1,0,0,-1,0,765)"><g transform="matrix(-0.9962,-0.08715,-0.08715,0.99619,449.051,140.49)"><rect fill="none" height="6" id="rect616" width="25.34" x="0" y="60" /></g></g></g>
    <g transform="matrix(0.99999752,0,0,-1,-399.38017,738.24098)"><g transform="matrix(1,0,0,-1,0,765)"><g transform="matrix(-0.9962,-0.08715,-0.08715,0.99619,449.051,140.49)"><rect fill="none" height="6" id="rect617" width="25.34" x="0" y="66" /></g></g></g>
    <g transform="matrix(0.99999752,0,0,-1,-399.38017,738.24098)"><g transform="matrix(1,0,0,-1,0,765)"><g transform="matrix(-0.9962,-0.08715,-0.08715,0.99619,449.051,140.49)"><rect fill="none" height="6" id="rect618" width="25.34" x="0" y="72" /></g></g></g>
    <g transform="matrix(0.99999752,0,0,-1,-399.38017,738.24098)"><g transform="matrix(1,0,0,-1,0,765)"><g transform="matrix(-0.9962,-0.08715,-0.08715,0.99619,449.051,140.49)"><rect fill="none" height="6" id="rect619" width="25.34" x="0" y="78" /></g></g></g>
    <g transform="matrix(0.99999752,0,0,-1,-399.38017,738.24098)"><g transform="matrix(1,0,0,-1,0,765)"><g transform="matrix(-0.9962,-0.08715,-0.08715,0.99619,449.051,140.49)"><rect fill="none" height="6" id="rect620" width="25.34" x="0" y="84" /></g></g></g>
    <g transform="matrix(0.99999752,0,0,-1,-399.38017,738.24098)"><g transform="matrix(1,0,0,-1,0,765)"><g transform="matrix(-0.9962,-0.08715,-0.08715,0.99619,449.051,140.49)"><rect fill="none" height="6" id="rect621" width="25.34" x="0" y="90" /></g></g></g>
    <g transform="matrix(0.99999752,0,0,-1,-399.38017,738.24098)"><g transform="matrix(1,0,0,-1,0,765)"><g transform="matrix(-0.9962,-0.08715,-0.08715,0.99619,449.051,140.49)"><rect fill="none" height="6" id="rect622" width="25.34" x="0" y="96" /></g></g></g>
    <g transform="matrix(0.99999752,0,0,-1,-399.38017,738.24098)"><g transform="matrix(1,0,0,-1,0,765)"><g transform="matrix(-0.9962,-0.08715,-0.08715,0.99619,449.051,140.49)"><rect fill="none" height="6" id="rect623" width="25.34" x="0" y="102" /></g></g></g>
    <g transform="matrix(0.99999752,0,0,-1,-399.38017,738.24098)"><g transform="matrix(1,0,0,-1,0,765)"><g transform="matrix(-0.9962,-0.08715,-0.08715,0.99619,449.051,140.49)"><rect fill="none" height="6" id="rect624" width="25.34" x="0" y="108" /></g></g></g>
    <g transform="matrix(0.99999752,0,0,-1,-399.38017,738.24098)"><g transform="matrix(1,0,0,-1,0,765)"><g transform="matrix(-0.9962,-0.08715,-0.08715,0.99619,449.051,140.49)"><rect fill="none" height="6" id="rect625" width="25.34" x="0" y="114" /></g></g></g>
    <g transform="matrix(0.99999752,0,0,-1,-399.38017,738.24098)"><g transform="matrix(1,0,0,-1,0,765)"><g transform="matrix(-0.9962,-0.08715,-0.08715,0.99619,449.051,140.49)"><rect fill="none" height="6" id="rect626" width="25.34" x="0" y="120" /></g></g></g>
    <g transform="matrix(0.99999752,0,0,-1,-399.38017,738.24098)"><g transform="matrix(1,0,0,-1,0,765)"><g transform="matrix(-0.9962,-0.08715,-0.08715,0.99619,449.051,140.49)"><rect fill="none" height="6" id="rect627" width="30" x="-2" y="126" /></g></g></g>
    <g transform="matrix(0.99999752,0,0,-1,-399.38017,738.24098)"><g transform="matrix(1,0,0,-1,0,765)"><g transform="matrix(-0.9962,-0.08715,-0.08715,0.99619,449.051,140.49)"><rect fill="none" height="6" id="rect628" width="30" x="3" y="132" /></g></g></g>
    <g transform="matrix(0.99999752,0,0,-1,-399.38017,738.24098)"><g transform="matrix(1,0,0,-1,0,765)"><g transform="translate(501.56,140.49)"><rect fill="none" height="6" id="armorRRLRow00" width="10.02" x="7.52" y="-6" /></g></g></g>
    <g transform="matrix(0.99999752,0,0,-1,-399.38017,738.24098)"><g transform="matrix(1,0,0,-1,0,765)"><g transform="translate(501.56,140.49)"><rect fill="none" height="6" id="armorRRLRow01" width="11.14" x="6.6799998" y="0" /></g></g></g>
    <g transform="matrix(0.99999752,0,0,-1,-399.38017,738.24098)"><g transform="matrix(1,0,0,-1,0,765)"><g transform="translate(501.56,140.49)"><rect fill="none" height="6" id="armorRRLRow02" width="11.97" x="6.1300001" y="6" /></g></g></g>
    <g transform="matrix(0.99999752,0,0,-1,-399.38017,738.24098)"><g transform="matrix(1,0,0,-1,0,765)"><g transform="translate(501.56,140.49)"><rect fill="none" height="6" id="armorRRLRow03" width="13.09" x="5.29" y="12" /></g></g></g>
    <g transform="matrix(0.99999752,0,0,-1,-399.38017,738.24098)"><g transform="matrix(1,0,0,-1,0,765)"><g transform="translate(501.56,140.49)"><rect fill="none" height="6" id="armorRRLRow04" width="13.39" x="4.4499998" y="18" /></g></g></g>
    <g transform="matrix(0.99999752,0,0,-1,-399.38017,738.24098)"><g transform="matrix(1,0,0,-1,0,765)"><g transform="translate(501.56,140.49)"><rect fill="none" height="6" id="armorRRLRow05" width="14" x="4.4499998" y="24" /></g></g></g>
    <g transform="matrix(0.99999752,0,0,-1,-399.38017,738.24098)"><g transform="matrix(1,0,0,-1,0,765)"><g transform="translate(501.56,140.49)"><rect fill="none" height="6" id="armorRRLRow06" width="19.299999" x="0" y="30" /></g></g></g>
    <g transform="matrix(0.99999752,0,0,-1,-399.38017,738.24098)"><g transform="matrix(1,0,0,-1,0,765)"><g transform="translate(501.56,140.49)"><rect fill="none" height="6" id="armorRRLRow07" width="19.860001" x="0" y="36" /></g></g></g>
    <g transform="matrix(0.99999752,0,0,-1,-399.38017,738.24098)"><g transform="matrix(1,0,0,-1,0,765)"><g transform="translate(501.56,140.49)"><rect fill="none" height="6" id="armorRRLRow08" width="20" x="0" y="42" /></g></g></g>
    <g transform="matrix(0.99999752,0,0,-1,-399.38017,738.24098)"><g transform="matrix(1,0,0,-1,0,765)"><g transform="translate(501.56,140.49)"><rect fill="none" height="6" id="armorRRLRow09" width="21" x="0" y="48" /></g></g></g>
    <g transform="matrix(0.99999752,0,0,-1,-399.38017,738.24098)"><g transform="matrix(1,0,0,-1,0,765)"><g transform="translate(501.56,140.49)"><rect fill="none" height="6" id="armorRRLRow10" width="20.33" x="0" y="54" /></g></g></g>
    <g transform="matrix(0.99999752,0,0,-1,-399.38017,738.24098)"><g transform="matrix(1,0,0,-1,0,765)"><g transform="translate(501.56,140.49)"><rect fill="none" height="6" id="armorRRLRow11" width="19.889999" x="0" y="60" /></g></g></g>
    <g transform="matrix(0.99999752,0,0,-1,-399.38017,738.24098)"><g transform="matrix(1,0,0,-1,0,765)"><g transform="translate(501.56,140.49)"><rect fill="none" height="6" id="armorRRLRow13" width="21.07" x="0" y="66" /></g></g></g>
    <g transform="matrix(0.99999752,0,0,-1,-399.38017,738.24098)"><g transform="matrix(1,0,0,-1,0,765)"><g transform="translate(501.56,140.49)"><rect fill="none" height="6" id="armorRRLRow14" width="22" x="0" y="72" /></g></g></g>
    <g transform="matrix(0.99999752,0,0,-1,-399.38017,738.24098)"><g transform="matrix(1,0,0,-1,0,765)"><g transform="translate(501.56,140.49)"><rect fill="none" height="6" id="armorRRLRow15" width="23.629999" x="0" y="78" /></g></g></g>
    <g transform="matrix(0.99999752,0,0,-1,-399.38017,738.24098)"><g transform="matrix(1,0,0,-1,0,765)"><g transform="translate(501.56,140.49)"><rect fill="none" height="6" id="armorRRLRow16" width="23.629999" x="0" y="84" /></g></g></g>
    <g transform="matrix(0.99999752,0,0,-1,-399.38017,738.24098)"><g transform="matrix(1,0,0,-1,0,765)"><g transform="translate(501.56,140.49)"><rect fill="none" height="6" id="armorRRLRow17" width="23.24" x="0" y="90" /></g></g></g>
    <g transform="matrix(0.99999752,0,0,-1,-399.38017,738.24098)"><g transform="matrix(1,0,0,-1,0,765)"><g transform="translate(501.56,140.49)"><rect fill="none" height="6" id="armorRRLRow18" width="23.040001" x="0" y="96" /></g></g></g>
    <g transform="matrix(0.99999752,0,0,-1,-399.38017,738.24098)"><g transform="matrix(1,0,0,-1,0,765)"><g transform="translate(501.56,140.49)"><rect fill="none" height="6" id="armorRRLRow19" width="23.040001" x="0" y="102" /></g></g></g>
    <g transform="matrix(0.99999752,0,0,-1,-399.38017,738.24098)"><g transform="matrix(1,0,0,-1,0,765)"><g transform="translate(501.56,140.49)"><rect fill="none" height="6" id="armorRRLRow20" width="18.68" x="2" y="108" /></g></g></g>
    <g transform="matrix(0.99999752,0,0,-1,-399.38017,738.24098)"><g transform="matrix(1,0,0,-1,0,765)"><g transform="translate(501.56,140.49)"><rect fill="none" height="6" id="armorRRLRow21" width="30" x="-5" y="114" /></g></g></g>
    <g transform="matrix(0.99999752,0,0,-1,-399.38017,738.24098)"><g transform="matrix(1,0,0,-1,0,765)"><g transform="translate(501.56,140.49)"><rect fill="none" height="6" id="armorRRLRow22" width="34" x="-7" y="120" /></g></g></g>
    <g transform="matrix(0.99999752,0,0,-1,-399.38017,738.24098)"><g transform="matrix(1,0,0,-1,0,765)"><g transform="matrix(-1,0,0,1,469.15,140.49)"><rect fill="none" height="6" id="rect629" width="10.02" x="7.52" y="-6" /></g></g></g>
    <g transform="matrix(0.99999752,0,0,-1,-399.38017,738.24098)"><g transform="matrix(1,0,0,-1,0,765)"><g transform="matrix(-1,0,0,1,469.15,140.49)"><rect fill="none" height="6" id="rect630" width="11.14" x="6.6799998" y="0" /></g></g></g>
    <g transform="matrix(0.99999752,0,0,-1,-399.38017,738.24098)"><g transform="matrix(1,0,0,-1,0,765)"><g transform="matrix(-1,0,0,1,469.15,140.49)"><rect fill="none" height="6" id="rect631" width="11.97" x="6.1300001" y="6" /></g></g></g>
    <g transform="matrix(0.99999752,0,0,-1,-399.38017,738.24098)"><g transform="matrix(1,0,0,-1,0,765)"><g transform="matrix(-1,0,0,1,469.15,140.49)"><rect fill="none" height="6" id="rect632" width="13.09" x="5.29" y="12" /></g></g></g>
    <g transform="matrix(0.99999752,0,0,-1,-399.38017,738.24098)"><g transform="matrix(1,0,0,-1,0,765)"><g transform="matrix(-1,0,0,1,469.15,140.49)"><rect fill="none" height="6" id="rect633" width="13.39" x="4.4499998" y="18" /></g></g></g>
    <g transform="matrix(0.99999752,0,0,-1,-399.38017,738.24098)"><g transform="matrix(1,0,0,-1,0,765)"><g transform="matrix(-1,0,0,1,469.15,140.49)"><rect fill="none" height="6" id="rect634" width="14" x="4.4499998" y="24" /></g></g></g>
    <g transform="matrix(0.99999752,0,0,-1,-399.38017,738.24098)"><g transform="matrix(1,0,0,-1,0,765)"><g transform="matrix(-1,0,0,1,469.15,140.49)"><rect fill="none" height="6" id="rect635" width="19.299999" x="0" y="30" /></g></g></g>
    <g transform="matrix(0.99999752,0,0,-1,-399.38017,738.24098)"><g transform="matrix(1,0,0,-1,0,765)"><g transform="matrix(-1,0,0,1,469.15,140.49)"><rect fill="none" height="6" id="rect636" width="19.860001" x="0" y="36" /></g></g></g>
    <g transform="matrix(0.99999752,0,0,-1,-399.38017,738.24098)"><g transform="matrix(1,0,0,-1,0,765)"><g transform="matrix(-1,0,0,1,469.15,140.49)"><rect fill="none" height="6" id="rect637" width="20" x="0" y="42" /></g></g></g>
    <g transform="matrix(0.99999752,0,0,-1,-399.38017,738.24098)"><g transform="matrix(1,0,0,-1,0,765)"><g transform="matrix(-1,0,0,1,469.15,140.49)"><rect fill="none" height="6" id="rect638" width="21" x="0" y="48" /></g></g></g>
    <g transform="matrix(0.99999752,0,0,-1,-399.38017,738.24098)"><g transform="matrix(1,0,0,-1,0,765)"><g transform="matrix(-1,0,0,1,469.15,140.49)"><rect fill="none" height="6" id="rect639" width="20.33" x="0" y="54" /></g></g></g>
    <g transform="matrix(0.99999752,0,0,-1,-399.38017,738.24098)"><g transform="matrix(1,0,0,-1,0,765)"><g transform="matrix(-1,0,0,1,469.15,140.49)"><rect fill="none" height="6" id="rect640" width="19.889999" x="0" y="60" /></g></g></g>
    <g transform="matrix(0.99999752,0,0,-1,-399.38017,738.24098)"><g transform="matrix(1,0,0,-1,0,765)"><g transform="matrix(-1,0,0,1,469.15,140.49)"><rect fill="none" height="6" id="rect641" width="21.07" x="0" y="66" /></g></g></g>
    <g transform="matrix(0.99999752,0,0,-1,-399.38017,738.24098)"><g transform="matrix(1,0,0,-1,0,765)"><g transform="matrix(-1,0,0,1,469.15,140.49)"><rect fill="none" height="6" id="rect642" width="22" x="0" y="72" /></g></g></g>
    <g transform="matrix(0.99999752,0,0,-1,-399.38017,738.24098)"><g transform="matrix(1,0,0,-1,0,765)"><g transform="matrix(-1,0,0,1,469.15,140.49)"><rect fill="none" height="6" id="rect643" width="23.629999" x="0" y="78" /></g></g></g>
    <g transform="matrix(0.99999752,0,0,-1,-399.38017,738.24098)"><g transform="matrix(1,0,0,-1,0,765)"><g transform="matrix(-1,0,0,1,469.15,140.49)"><rect fill="none" height="6" id="rect644" width="23.629999" x="0" y="84" /></g></g></g>
    <g transform="matrix(0.99999752,0,0,-1,-399.38017,738.24098)"><g transform="matrix(1,0,0,-1,0,765)"><g transform="matrix(-1,0,0,1,469.15,140.49)"><rect fill="none" height="6" id="rect645" width="23.24" x="0" y="90" /></g></g></g>
    <g transform="matrix(0.99999752,0,0,-1,-399.38017,738.24098)"><g transform="matrix(1,0,0,-1,0,765)"><g transform="matrix(-1,0,0,1,469.15,140.49)"><rect fill="none" height="6" id="rect646" width="23.040001" x="0" y="96" /></g></g></g>
    <g transform="matrix(0.99999752,0,0,-1,-399.38017,738.24098)"><g transform="matrix(1,0,0,-1,0,765)"><g transform="matrix(-1,0,0,1,469.15,140.49)"><rect fill="none" height="6" id="rect647" width="23.040001" x="0" y="102" /></g></g></g>
    <g transform="matrix(0.99999752,0,0,-1,-399.38017,738.24098)"><g transform="matrix(1,0,0,-1,0,765)"><g transform="matrix(-1,0,0,1,469.15,140.49)"><rect fill="none" height="6" id="rect648" width="18.68" x="2" y="108" /></g></g></g>
    <g transform="matrix(0.99999752,0,0,-1,-399.38017,738.24098)"><g transform="matrix(1,0,0,-1,0,765)"><g transform="matrix(-1,0,0,1,469.15,140.49)"><rect fill="none" height="6" id="rect649" width="30" x="-5" y="114" /></g></g></g>
    <g transform="matrix(0.99999752,0,0,-1,-399.38017,738.24098)"><g transform="matrix(1,0,0,-1,0,765)"><g transform="matrix(-1,0,0,1,469.15,140.49)"><rect fill="none" height="6" id="rect650" width="34" x="-7" y="120" /></g></g></g>
    <g transform="matrix(0.99999752,0,0,-1,-399.38017,738.24098)"><g transform="matrix(1,0,0,-1,0,765)"><g transform="translate(470.84,304.5)"><rect fill="none" height="6" id="armorCTRRow00" width="29.139999" x="0" y="0" /></g></g></g>
    <g transform="matrix(0.99999752,0,0,-1,-399.38017,738.24098)"><g transform="matrix(1,0,0,-1,0,765)"><g transform="translate(470.84,304.5)"><rect fill="none" height="6" id="armorCTRRow01" width="29.139999" x="0" y="6" /></g></g></g>
    <g transform="matrix(0.99999752,0,0,-1,-399.38017,738.24098)"><g transform="matrix(1,0,0,-1,0,765)"><g transform="translate(470.84,304.5)"><rect fill="none" height="6" id="armorCTRRow02" width="29.139999" x="0" y="12" /></g></g></g>
    <g transform="matrix(0.99999752,0,0,-1,-399.38017,738.24098)"><g transform="matrix(1,0,0,-1,0,765)"><g transform="translate(470.84,304.5)"><rect fill="none" height="6" id="armorCTRRow03" width="29.139999" x="0" y="18" /></g></g></g>
    <g transform="matrix(0.99999752,0,0,-1,-399.38017,738.24098)"><g transform="matrix(1,0,0,-1,0,765)"><g transform="translate(470.84,304.5)"><rect fill="none" height="6" id="armorCTRRow04" width="29.139999" x="0" y="24" /></g></g></g>
    <g transform="matrix(0.99999752,0,0,-1,-399.38017,738.24098)"><g transform="matrix(1,0,0,-1,0,765)"><g transform="translate(470.84,304.5)"><rect fill="none" height="6" id="armorCTRRow05" width="29.139999" x="0" y="30" /></g></g></g>
    <g transform="matrix(0.99999752,0,0,-1,-399.38017,738.24098)"><g transform="matrix(1,0,0,-1,0,765)"><g transform="translate(470.84,304.5)"><rect fill="none" height="6" id="armorCTRRow06" width="29.139999" x="0" y="36" /></g></g></g>
    <g transform="matrix(0.99999752,0,0,-1,-399.38017,738.24098)"><g transform="matrix(1,0,0,-1,0,765)"><g transform="translate(470.84,304.5)"><rect fill="none" height="6" id="armorCTRRow07" width="29.139999" x="0" y="42" /></g></g></g>
    <g transform="matrix(0.99999752,0,0,-1,-399.38017,738.24098)"><g transform="matrix(1,0,0,-1,0,765)"><g transform="translate(502,306)"><rect fill="none" height="6" id="armorRTRRow00" width="11.87" x="0" y="0" /></g></g></g>
    <g transform="matrix(0.99999752,0,0,-1,-399.38017,738.24098)"><g transform="matrix(1,0,0,-1,0,765)"><g transform="translate(502,306)"><rect fill="none" height="6" id="armorRTRRow01" width="17" x="0" y="6" /></g></g></g>
    <g transform="matrix(0.99999752,0,0,-1,-399.38017,738.24098)"><g transform="matrix(1,0,0,-1,0,765)"><g transform="translate(502,306)"><rect fill="none" height="6" id="armorRTRRow02" width="23" x="0" y="12" /></g></g></g>
    <g transform="matrix(0.99999752,0,0,-1,-399.38017,738.24098)"><g transform="matrix(1,0,0,-1,0,765)"><g transform="translate(502,306)"><rect fill="none" height="6" id="armorRTRRow03" width="29" x="0" y="18" /></g></g></g>
    <g transform="matrix(0.99999752,0,0,-1,-399.38017,738.24098)"><g transform="matrix(1,0,0,-1,0,765)"><g transform="translate(502,306)"><rect fill="none" height="6" id="armorRTRRow04" width="29" x="0" y="24" /></g></g></g>
    <g transform="matrix(0.99999752,0,0,-1,-399.38017,738.24098)"><g transform="matrix(1,0,0,-1,0,765)"><g transform="translate(502,306)"><rect fill="none" height="6" id="armorRTRRow05" width="25" x="0" y="30" /></g></g></g>
    <g transform="matrix(0.99999752,0,0,-1,-399.38017,738.24098)"><g transform="matrix(1,0,0,-1,0,765)"><g transform="translate(502,306)"><rect fill="none" height="6" id="armorRTRRow07" width="20" x="0" y="36" /></g></g></g>
    <g transform="matrix(0.99999752,0,0,-1,-399.38017,738.24098)"><g transform="matrix(1,0,0,-1,0,765)"><g transform="matrix(-1,0,0,1,469,306)"><rect fill="none" height="6" id="rect657" width="11.87" x="0" y="0" /></g></g></g>
    <g transform="matrix(0.99999752,0,0,-1,-399.38017,738.24098)"><g transform="matrix(1,0,0,-1,0,765)"><g transform="matrix(-1,0,0,1,469,306)"><rect fill="none" height="6" id="rect658" width="17" x="0" y="6" /></g></g></g>
    <g transform="matrix(0.99999752,0,0,-1,-399.38017,738.24098)"><g transform="matrix(1,0,0,-1,0,765)"><g transform="matrix(-1,0,0,1,469,306)"><rect fill="none" height="6" id="rect659" width="23" x="0" y="12" /></g></g></g>
    <g transform="matrix(0.99999752,0,0,-1,-399.38017,738.24098)"><g transform="matrix(1,0,0,-1,0,765)"><g transform="matrix(-1,0,0,1,469,306)"><rect fill="none" height="6" id="rect660" width="29" x="0" y="18" /></g></g></g>
    <g transform="matrix(0.99999752,0,0,-1,-399.38017,738.24098)"><g transform="matrix(1,0,0,-1,0,765)"><g transform="matrix(-1,0,0,1,469,306)"><rect fill="none" height="6" id="rect661" width="29" x="0" y="24" /></g></g></g>
    <g transform="matrix(0.99999752,0,0,-1,-399.38017,738.24098)"><g transform="matrix(1,0,0,-1,0,765)"><g transform="matrix(-1,0,0,1,469,306)"><rect fill="none" height="6" id="rect662" width="25" x="0" y="30" /></g></g></g>
    <g transform="matrix(0.99999752,0,0,-1,-399.38017,738.24098)"><g transform="matrix(1,0,0,-1,0,765)"><g transform="matrix(-1,0,0,1,469,306)"><rect fill="none" height="6" id="rect663" width="20" x="0" y="36" /></g></g></g>
    <rect data-canon="armor" data-location="HD" fill="none" height="43.428" stroke="#e11d48" stroke-dasharray="3 1.5" stroke-opacity="0.9" stroke-width="1.25" width="43.598" x="64.412" y="30.543" />
    <rect data-canon="armor" data-location="CT" fill="none" height="117.656" stroke="#e11d48" stroke-dasharray="3 1.5" stroke-opacity="0.9" stroke-width="1.25" width="46.547" x="62.822" y="25.068" />
    <rect data-canon="armor" data-location="LT" fill="none" height="86.326" stroke="#e11d48" stroke-dasharray="3 1.5" stroke-opacity="0.9" stroke-width="1.25" width="54.802" x="8.02" y="20.882" />
    <rect data-canon="armor" data-location="RT" fill="none" height="86.326" stroke="#e11d48" stroke-dasharray="3 1.5" stroke-opacity="0.9" stroke-width="1.25" width="54.719" x="109.411" y="20.882" />
    </g>
</svg>
