<?xml version="1.0" encoding="UTF-8"?>
<!-- Editable MekBay superheavy-vee-turret armor paperdoll. Pink dashed rectangles mark pip areas and are removed at runtime. -->
<svg xmlns="http://www.w3.org/2000/svg" viewBox="14.198 35.01 145.336 264.966" role="img" aria-label="superheavy-vee-turret armor paperdoll">
    <g id="paperdoll-art-armor">
    <g transform="translate(-400.802,-35.489748)"><polyline id="polyline4675" points="550.61,80.237 540.885,73.429 531.158,81.275 447.205,81.275 437.479,73.429 427.753,80.237    418.027,214.696 418.027,311.868 427.753,335.466 438.951,335.466 438.951,333.6 478.986,333.6 478.986,335.466 499.878,335.466    499.878,333.6 539.914,333.6 539.914,335.466 550.61,335.466 560.336,311.868 560.336,214.696 550.61,80.237" style="fill:#c7c8ca" /></g>
    <g transform="translate(-400.802,-35.489748)"><polyline id="polyline4689" points="557.328,309.774 523.448,284.507 449.25,284.507    415.49,310.098" style="fill:none;stroke:#000000;stroke-width:0.97299999" /></g>
    <g transform="translate(-400.802,-35.489748)"><rect height="91.481003" id="rect4677" width="0.030999999" x="485.50299" y="164.345" style="fill:#c7c8ca" /></g>
    <g transform="translate(-400.802,-35.489748)"><g transform="matrix(0.150006,0,0,-0.13283434,-103.78733,877.86089)"><path id="path6335" d="m 3941.37,4470.53 0,1105.55" style="fill:none;stroke:#000000;stroke-width:7.88224983;stroke-linecap:butt;stroke-linejoin:miter;stroke-miterlimit:4;stroke-opacity:1;stroke-dasharray:none" /></g></g>
    <g transform="translate(-400.802,-35.489748)"><g transform="translate(0,42.3)"><polyline class="armor unitLocation" id="paperdoll-art-armor-TU-polyline4697" loc="TU" points="522.104,204.5 520.727,207.257 451.801,207.257 450.424,204.5 461.451,139.711 462.832,138.333    472.479,138.333 472.479,131.441 484.884,125.926 484.884,124.548 486.264,124.548 487.643,120.413 489.021,119.034    487.643,117.655 489.021,113.521 494.535,113.521 495.914,117.655 494.535,119.034 495.914,120.413 497.293,124.548    498.67,124.548 498.672,131.441 500.05,131.441 500.05,138.333 509.697,138.333 511.077,139.711 522.104,204.5" style="fill:#ffffff" /></g></g>
    <g transform="translate(-400.802,-35.489748)"><g transform="translate(0,42.3)"><polyline id="polyline4715" points="489.021,119.034 494.534,119.034 489.021,119.034" style="fill:#ffffff" /></g></g>
    <g transform="translate(-400.802,-35.489748)"><g transform="translate(0,42.3)"><polyline id="polyline4721" points="472.479,131.441 484.885,131.441 472.479,131.441" style="fill:#ffffff" /></g></g>
    <g transform="translate(-400.802,-35.489748)"><g transform="translate(0,42.3)"><polyline class="structure unitLocation" id="paperdoll-art-armor-TU-polyline4761" loc="TU" points="513.497,162.356 459.031,162.356 462.922,139.895 509.606,139.895 513.497,162.356" style="fill:#c7c8ca" /></g></g>
    <g transform="translate(-400.802,-35.489748)"><g transform="translate(0,42.3)"><polygon id="polygon4699" points="451.801,207.257 450.425,204.5 461.453,139.711 462.832,138.333 472.479,138.333 472.479,131.441 484.884,125.926 484.884,124.547 486.264,124.547 487.644,120.413 489.021,119.034 487.644,117.654 489.021,113.52 494.535,113.52 495.914,117.654 494.535,119.034 495.914,120.413 497.293,124.547 498.671,124.547 498.672,131.441 500.05,131.441 500.05,138.333 509.697,138.333 511.077,139.711 522.104,204.5 520.727,207.257" style="fill:none;stroke:#000000;stroke-width:0.97299999" /></g></g>
    <g transform="translate(-400.802,-35.489748)"><g transform="translate(0,42.3)"><polygon id="polygon4763" points="462.922,139.896 509.606,139.896 513.497,162.356 459.031,162.356" style="fill:none;stroke:#000000;stroke-width:0.97299999" /></g></g>
    <g transform="translate(-400.802,-35.489748)"><g transform="translate(0,42.3)"><rect height="6.8920002" id="rect4701" width="4.1350002" x="484.88501" y="124.549" style="fill:#ffffff" /></g></g>
    <g transform="translate(-400.802,-35.489748)"><g transform="translate(0,42.3)"><rect height="6.8920002" id="rect4703" width="4.1360002" x="484.884" y="124.549" style="fill:none;stroke:#000000;stroke-width:0.97299999" /></g></g>
    <g transform="translate(-400.802,-35.489748)"><g transform="translate(0,42.3)"><rect height="6.8920002" id="rect4705" width="4.1350002" x="494.534" y="124.549" style="fill:#ffffff" /></g></g>
    <g transform="translate(-400.802,-35.489748)"><g transform="translate(0,42.3)"><rect height="6.8920002" id="rect4707" width="4.1360002" x="494.53299" y="124.549" style="fill:none;stroke:#000000;stroke-width:0.97299999" /></g></g>
    <g transform="translate(-400.802,-35.489748)"><g transform="translate(0,42.3)"><rect height="6.8920002" id="rect4709" width="4.1370001" x="489.70901" y="124.549" style="fill:#ffffff" /></g></g>
    <g transform="translate(-400.802,-35.489748)"><g transform="translate(0,42.3)"><rect height="6.8920002" id="rect4711" width="4.1360002" x="489.70801" y="124.549" style="fill:none;stroke:#000000;stroke-width:0.97299999" /></g></g>
    <g transform="translate(-400.802,-35.489748)"><g transform="translate(0,42.3)"><rect height="5.5139999" id="rect4725" width="2.2420001" x="496.431" y="132.82001" style="fill:#ffffff" /></g></g>
    <g transform="translate(-400.802,-35.489748)"><g transform="translate(0,42.3)"><rect height="5.5139999" id="rect4727" width="2.2420001" x="496.431" y="132.81799" style="fill:none;stroke:#000000;stroke-width:0.97299999" /></g></g>
    <g transform="translate(-400.802,-35.489748)"><g transform="translate(0,42.3)"><rect height="5.5139999" id="rect4729" width="2.2409999" x="480.74899" y="132.82001" style="fill:#ffffff" /></g></g>
    <g transform="translate(-400.802,-35.489748)"><g transform="translate(0,42.3)"><rect height="5.5139999" id="rect4731" width="2.2409999" x="480.74899" y="132.81799" style="fill:none;stroke:#000000;stroke-width:0.97299999" /></g></g>
    <g transform="translate(-400.802,-35.489748)"><g transform="translate(0,42.3)"><rect height="5.5139999" id="rect4733" width="2.2420001" x="494.18799" y="132.82001" style="fill:#ffffff" /></g></g>
    <g transform="translate(-400.802,-35.489748)"><g transform="translate(0,42.3)"><rect height="5.5139999" id="rect4735" width="2.2420001" x="494.18799" y="132.81799" style="fill:none;stroke:#000000;stroke-width:0.97299999" /></g></g>
    <g transform="translate(-400.802,-35.489748)"><g transform="translate(0,42.3)"><rect height="5.5139999" id="rect4737" width="2.24" x="491.95099" y="132.82001" style="fill:#ffffff" /></g></g>
    <g transform="translate(-400.802,-35.489748)"><g transform="translate(0,42.3)"><rect height="5.5139999" id="rect4739" width="2.2390001" x="491.95099" y="132.81799" style="fill:none;stroke:#000000;stroke-width:0.97299999" /></g></g>
    <g transform="translate(-400.802,-35.489748)"><g transform="translate(0,42.3)"><rect height="5.5139999" id="rect4741" width="2.2420001" x="489.70901" y="132.82001" style="fill:#ffffff" /></g></g>
    <g transform="translate(-400.802,-35.489748)"><g transform="translate(0,42.3)"><rect height="5.5139999" id="rect4743" width="2.2420001" x="489.70901" y="132.81799" style="fill:none;stroke:#000000;stroke-width:0.97299999" /></g></g>
    <g transform="translate(-400.802,-35.489748)"><g transform="translate(0,42.3)"><rect height="5.5139999" id="rect4745" width="2.243" x="487.46899" y="132.82001" style="fill:#ffffff" /></g></g>
    <g transform="translate(-400.802,-35.489748)"><g transform="translate(0,42.3)"><rect height="5.5139999" id="rect4747" width="2.2420001" x="487.47" y="132.81799" style="fill:none;stroke:#000000;stroke-width:0.97299999" /></g></g>
    <g transform="translate(-400.802,-35.489748)"><g transform="translate(0,42.3)"><rect height="5.5139999" id="rect4749" width="2.2409999" x="485.229" y="132.82001" style="fill:#ffffff" /></g></g>
    <g transform="translate(-400.802,-35.489748)"><g transform="translate(0,42.3)"><rect height="5.5139999" id="rect4751" width="2.2420001" x="485.229" y="132.81799" style="fill:none;stroke:#000000;stroke-width:0.97299999" /></g></g>
    <g transform="translate(-400.802,-35.489748)"><g transform="translate(0,42.3)"><rect height="5.5139999" id="rect4753" width="2.2390001" x="482.991" y="132.82001" style="fill:#ffffff" /></g></g>
    <g transform="translate(-400.802,-35.489748)"><g transform="translate(0,42.3)"><rect height="5.5139999" id="rect4755" width="2.24" x="482.98999" y="132.81799" style="fill:none;stroke:#000000;stroke-width:0.97299999" /></g></g>
    <g transform="translate(-400.802,-35.489748)"><g transform="translate(0,42.3)"><rect height="5.5139999" id="rect4757" width="2.2390001" x="475.75299" y="132.82001" style="fill:#ffffff" /></g></g>
    <g transform="translate(-400.802,-35.489748)"><g transform="translate(0,42.3)"><rect height="5.5139999" id="rect4759" width="2.24" x="475.75299" y="132.81799" style="fill:none;stroke:#000000;stroke-width:0.97299999" /></g></g>
    <g transform="translate(-400.802,-35.489748)"><g transform="translate(0,42.3)"><line id="line4713" stroke-miterlimit="10" x1="489.021" x2="494.534" y1="119.034" y2="119.034" style="fill:none;stroke:#ffffff;stroke-width:0;stroke-miterlimit:10" /></g></g>
    <g transform="translate(-400.802,-35.489748)"><g transform="translate(0,42.3)"><line id="line4717" x1="489.021" x2="494.535" y1="119.034" y2="119.034" style="fill:none;stroke:#000000;stroke-width:0.97299999" /></g></g>
    <g transform="translate(-400.802,-35.489748)"><g transform="translate(0,42.3)"><line id="line4719" stroke-miterlimit="10" x1="472.479" x2="484.884" y1="131.44099" y2="131.44099" style="fill:none;stroke:#ffffff;stroke-width:0;stroke-miterlimit:10" /></g></g>
    <g transform="translate(-400.802,-35.489748)"><g transform="translate(0,42.3)"><line id="line4723" x1="472.48001" x2="484.88501" y1="131.44099" y2="131.44099" style="fill:none;stroke:#000000;stroke-width:0.97299999" /></g></g>
    <g transform="translate(-400.802,-35.489748)"><path id="polyline4679" d="M 415 211 L 436 211 L 448 137 L 454 111 L 425 77.7 L 415 211 z" style="fill:#ffffff" /></g>
    <g transform="translate(-400.802,-35.489748)"><path id="path228" d="M 449 284 L 447 278 L 436 211 L 415 211 L 415 212 L 415 309 L 415 310 L 449 284 z" style="fill:#ffffff" /></g>
    <g transform="translate(-400.802,-35.489748)"><path id="path227" d="M 523 284 L 523 284 L 449 284 L 449 284 L 457 311 L 515 311 L 523 284 z" style="fill:#ffffff" /></g>
    <g transform="translate(-400.802,-35.489748)"><path id="path226" d="M 523 284 L 515 311 L 457 311 L 449 284 L 415 310 L 425 333 L 436 333 L 436 331 L 476 331 L 476 333 L 497 333 L 497 331 L 537 331 L 537 333 L 548 333 L 557 309 L 523 284 z" style="fill:#ffffff" /></g>
    <g transform="translate(-400.802,-35.489748)"><path id="path225" d="M 537 211 L 436 211 L 447 278 L 449 284 L 449 284 L 523 284 L 523 284 L 525 278 L 537 211 z" style="fill:#ffffff" /></g>
    <g transform="translate(-400.802,-35.489748)"><path id="path218" d="M 537 211 L 525 278 L 523 284 L 557 309 L 557 309 L 557 212 L 557 211 L 537 211 z" style="fill:#ffffff" /></g>
    <g transform="translate(-400.802,-35.489748)"><path id="path217" d="M 518 111 L 454 111 L 448 137 L 436 211 L 537 211 L 525 139 L 518 111 z" style="fill:#ffffff" /></g>
    <g transform="translate(-400.802,-35.489748)"><path id="path216" d="M 548 77.9 L 548 77.3 L 538 70.5 L 528 78.4 L 444 78.4 L 435 70.5 L 425 77.3 L 425 77.7 L 454 111 L 518 111 L 548 77.9 z" style="fill:#ffffff" /></g>
    <g transform="translate(-400.802,-35.489748)"><path id="path215" d="M 548 77.9 L 518 111 L 525 139 L 537 211 L 557 211 L 548 77.9 z" style="fill:#ffffff" /></g>
    <g transform="translate(-400.802,-35.489748)"><path id="polyline4683" d="M 436 211 L 487 211 L 487 137 L 448 137 L 436 211 z" style="fill:#c7c8ca" /></g>
    <g transform="translate(-400.802,-35.489748)"><path id="path232" d="M 523 285 L 523 285 L 449 285 L 457 311 L 515 311 L 523 285 z" style="fill:#c7c8ca" /></g>
    <g transform="translate(-400.802,-35.489748)"><path id="path231" d="M 487 211 L 487 211 L 436 211 L 447 278 L 449 285 L 487 285 L 487 211 z" style="fill:#c7c8ca" /></g>
    <g transform="translate(-400.802,-35.489748)"><path id="path238" d="M 487 211 L 487 285 L 523 285 L 525 278 L 537 211 L 487 211 z" style="fill:#c7c8ca" /></g>
    <g transform="translate(-400.802,-35.489748)"><path id="path230" d="M 525 137 L 487 137 L 487 211 L 537 211 L 525 139 L 525 137 z" style="fill:#c7c8ca" /></g>
    <g transform="translate(-400.802,-35.489748)"><path id="path229" d="M 454 111 L 448 137 L 448 137 L 525 137 L 518 111 L 454 111 z" style="fill:#c7c8ca" /></g>
    <g transform="translate(-400.802,-35.489748)"><polygon id="polygon4681" points="528.241,78.356 444.288,78.356 434.563,70.511 424.836,77.32 415.11,211.778 415.11,308.951 424.836,332.548 436.034,332.548 436.034,330.682 476.068,330.682 476.068,332.548 496.961,332.548 496.961,330.682 536.996,330.682 536.996,332.548 547.693,332.548 557.419,308.951 557.419,211.778 547.693,77.32 537.967,70.511" style="fill:none;stroke:#000000;stroke-width:1.45899999" /></g>
    <g transform="translate(-400.802,-35.489748)"><polygon id="polygon4685" points="435.521,211.218 447.19,277.889 457.421,310.792 515.15,310.792 525.336,277.889 537.007,211.218 525.336,138.674 518.327,110.795 454.201,110.795 448.164,136.728" style="fill:none;stroke:#000000;stroke-width:0.97299999" /></g>
    <g transform="translate(-400.802,-35.489748)"><line id="line4687" x1="415.65201" x2="557.328" y1="211.056" y2="211.056" style="fill:none;stroke:#000000;stroke-width:0.97299999" /></g>
    <g transform="translate(-400.802,-35.489748)"><line id="line4691" x1="448.255" x2="524.86298" y1="136.604" y2="136.67999" style="fill:none;stroke:#000000;stroke-width:0.97299999" /></g>
    <g transform="translate(-400.802,-35.489748)"><line id="line4693" x1="424.56699" x2="453.91101" y1="77.485001" y2="110.488" style="fill:none;stroke:#000000;stroke-width:0.97299999;stroke-linecap:round" /></g>
    <g transform="translate(-400.802,-35.489748)"><line id="line4695" x1="518.375" x2="547.76398" y1="110.488" y2="77.646004" style="fill:none;stroke:#000000;stroke-width:0.97299999;stroke-linecap:round" /></g>
    </g>
</svg>
