<?xml version="1.0" encoding="UTF-8"?>
<!-- Editable MekBay tripod structure paperdoll. Pink dashed rectangles mark pip areas and are removed at runtime. -->
<svg xmlns="http://www.w3.org/2000/svg" viewBox="15.276 5.232 123.101 162.927" role="img" aria-label="tripod structure paperdoll">
    <g id="paperdoll-art-structure">
    <g transform="matrix(1,0,0,-1,-390.22409,379.2819)"><g transform="translate(477.6598,215.3208)"><path id="path3656" d="m 0,0 -0.714,1.85 -2.428,1.11 -0.899,4.812 1.372,0.371 0.183,5.181 1.697,0.741 2.061,4.812 -1.628,20.727 -0.612,0.74 0.385,11.166 -0.647,1.481 -0.114,2.592 -1.27,3.699 2.472,28.796 H -16.97 l 2.471,-28.796 -1.269,-3.699 -0.114,-2.592 -0.645,-1.481 0.382,-11.166 -0.611,-0.74 -1.629,-20.727 2.063,-4.812 1.695,-0.741 0.183,-5.181 1.373,-0.371 -0.898,-4.812 -2.43,-1.11 -0.714,-1.85 -1.316,-1.11 -0.553,-2.962 h 7.602 5.648 7.602 L 1.318,-1.11 Z" style="fill:#c7c8ca;fill-opacity:1;fill-rule:nonzero;stroke:none" /></g></g>
    <g transform="matrix(1,0,0,-1,-390.22409,379.2819)"><g transform="translate(429.039,273.9119)"><path id="path3660" d="M 0,0 -0.573,-3.372 -0.1,-4.281 c 0,0 -1.53,-0.28 -1.734,-0.431 -0.206,-0.151 -0.511,-2.531 -0.308,-2.997 0.204,-0.467 1.227,-1.449 1.227,-1.449 l -0.396,-2.243 -1.218,-1.633 -0.938,-3.668 0.41,-1.284 -2.15,-1.898 -4.648,-15.706 0.306,-4.598 2.567,-4.561 -1.084,-6.371 -0.764,-4.496 -10.602,-4.491 0.92,-2.682 H 4.943 v 1.149 l -0.92,1.916 -2.605,1.639 1.686,8.32 H 3.41 v 3.448 l 3.012,0.767 3.047,6.512 0.684,15.801 -0.919,2.204 -0.119,0.85 0.998,4.11 0.499,2.113 0.516,2.623 c 0,0 0.77,0.264 1.327,0.431 0.555,0.167 0.975,2.513 0.509,2.998 -0.466,0.483 -1.072,1.068 -1.072,1.068 l 0.727,0.589 -0.23,1.224 c 0.55,0.588 1.031,1.315 0.984,1.691 -0.059,0.49 -0.142,1.055 -0.188,1.367 l 0.176,0.275 0.765,0.128 1.232,2.769 3.886,2.018 7.239,6.495 1.279,2.229 0.264,1.688 1.064,0.725 10.357,11.575 -11.879,7.817 -2.482,-2.775 -1.467,-0.246 -1.065,-0.724 -2.217,-2.014 -2.019,-2.254 -1.529,-2.175 -0.664,-1.206 -0.55,-2.011 -0.865,-0.966 -0.689,0.159 -0.865,-0.967 0.4,-0.481 -0.575,-0.643 -0.69,0.159 0.112,-0.803 -0.576,-0.644 -0.401,0.481 -0.864,-0.967 0.112,-0.802 L 9.522,13.582 8.92,14.304 7.767,13.015 7.505,11.327 4.911,8.427 4.734,7.302 c 0,0 -1.452,0.574 -1.718,0.543 C 2.749,7.814 1.003,5.713 0.88,5.156 0.757,4.6 0.996,3.102 0.996,3.102 l -1.737,-1.92 z" style="fill:#c7c8ca;fill-opacity:1;fill-rule:nonzero;stroke:none" /></g></g>
    <g transform="matrix(1,0,0,-1,-390.22409,379.2819)"><g transform="translate(509.1689,273.9119)"><path id="path3664" d="M 0,0 0.573,-3.372 0.101,-4.281 c 0,0 1.529,-0.28 1.733,-0.431 C 2.04,-4.863 2.345,-7.243 2.142,-7.709 1.938,-8.176 0.915,-9.158 0.915,-9.158 l 0.396,-2.243 1.218,-1.633 0.938,-3.668 -0.41,-1.284 2.15,-1.898 4.648,-15.706 -0.306,-4.598 -2.566,-4.561 1.083,-6.371 0.764,-4.496 10.602,-4.491 -0.92,-2.682 H -4.943 v 1.149 l 0.92,1.916 2.605,1.639 -1.686,8.32 H -3.41 v 3.448 l -3.012,0.767 -3.047,6.512 -0.684,15.801 0.919,2.204 0.12,0.85 -0.999,4.11 -0.499,2.113 -0.515,2.623 c 0,0 -0.771,0.264 -1.328,0.431 -0.555,0.167 -0.975,2.513 -0.509,2.998 0.467,0.483 1.072,1.068 1.072,1.068 l -0.726,0.589 0.229,1.224 c -0.549,0.588 -1.031,1.315 -0.984,1.691 0.059,0.49 0.142,1.055 0.188,1.367 l -0.176,0.275 -0.765,0.128 -1.232,2.769 -3.886,2.018 -7.239,6.495 -1.279,2.229 -0.264,1.688 -1.064,0.725 -10.357,11.575 11.879,7.817 2.482,-2.775 1.467,-0.246 1.065,-0.724 2.217,-2.014 2.019,-2.254 1.529,-2.175 0.664,-1.206 0.55,-2.011 0.866,-0.966 0.688,0.159 0.865,-0.967 -0.4,-0.481 0.576,-0.643 0.689,0.159 -0.112,-0.803 0.576,-0.644 0.401,0.481 0.864,-0.967 -0.112,-0.802 1.153,-1.289 0.601,0.722 1.153,-1.289 0.263,-1.688 2.593,-2.9 0.177,-1.125 c 0,0 1.452,0.574 1.718,0.543 C -2.749,7.814 -1.003,5.713 -0.88,5.156 -0.757,4.6 -0.996,3.102 -0.996,3.102 l 1.737,-1.92 z" style="fill:#c7c8ca;fill-opacity:1;fill-rule:nonzero;stroke:none" /></g></g>
    <g transform="matrix(1,0,0,-1,-390.22409,379.2819)"><g transform="translate(482.2483,328.3079)"><path id="path3668" d="m 0,0 -2.564,-16.205 -0.019,-13.349 v -0.766 h -1.69 v -0.766 h 1.263 v -1.149 h -1.263 v -0.766 h 0.855 v -1.15 h -0.855 v -0.766 h 0.855 v -1.149 l -2.991,-4.597 H -20.08 l -2.992,4.597 v 1.149 h 0.855 v 0.766 h -0.855 v 1.15 h 0.855 v 0.766 h -1.281 v 1.149 h 1.281 v 0.766 h -1.709 v 0.766 13.349 L -26.49,0 v 33.335 l 2.137,1.852 H -2.137 L 0,33.335 Z" style="fill:#c7c8ca;fill-opacity:1;fill-rule:nonzero;stroke:none" /></g></g>
    <g transform="matrix(1,0,0,-1,-390.22409,379.2819)"><g transform="translate(503.9408,352.6729)"><path id="path3672" d="m 0,0 c 0.537,0.045 1.058,-0.007 1.549,-0.133 l -0.056,0.647 0.698,0.83 0.041,3.91 0.697,0.83 8.84,0.773 4.016,-1.956 0.172,-1.968 0.863,-1.078 0.1,-1.145 -0.662,-1.212 0.134,-1.527 1.559,-0.247 -0.477,-7.733 -0.383,-0.034 0.135,-1.526 0.381,0.034 -0.08,-3.468 0.267,-3.053 0.83,-0.696 0.1,-1.146 -0.664,-1.211 0.502,-5.725 -0.698,-0.83 0.067,-0.762 1.146,0.1 0.448,-0.729 0.099,-1.146 -0.314,-0.797 -1.144,-0.1 0.099,-1.145 0.831,-0.697 0.201,-2.289 1.626,-1.011 -1.226,-3.569 -0.697,-0.829 0.101,-1.145 -0.764,-0.066 0.067,-0.763 0.763,0.066 0.802,-9.159 -0.946,-2.39 0.067,-0.763 0.797,-0.315 0.1,-1.146 -0.729,-0.448 0.133,-1.525 -0.018,-8.108 -1.642,-3.219 -7.871,-0.863 -0.796,0.314 2.423,3.294 -2.881,5.478 0.004,2.545 0.979,2.008 -1.346,2.189 -0.969,11.067 0.664,1.212 -0.068,0.764 -1.626,1.01 -0.568,6.488 0.698,0.83 -0.101,1.146 -1.145,-0.101 -0.448,0.729 -0.1,1.145 0.314,0.798 1.145,0.099 -0.067,0.763 -0.83,0.697 -0.968,11.067 0.247,1.559 -0.232,2.672 -0.482,1.111 -0.134,1.526 -1.212,0.664 -0.056,0.648 C 1.841,-8.97 1.338,-9.113 0.802,-9.16 0.04,-9.226 -0.694,-9.101 -1.353,-8.827 v 8.496 C -0.932,-0.157 -0.477,-0.043 0,0" style="fill:#c7c8ca;fill-opacity:1;fill-rule:nonzero;stroke:none" /></g></g>
    <g transform="matrix(1,0,0,-1,-390.22409,379.2819)"><g transform="translate(434.5152,352.6729)"><path id="path3676" d="m 0,0 c -0.536,0.045 -1.057,-0.007 -1.549,-0.133 l 0.056,0.647 -0.697,0.83 -0.042,3.91 -0.696,0.83 -8.84,0.773 -4.017,-1.956 -0.172,-1.968 -0.863,-1.078 -0.1,-1.145 0.663,-1.212 -0.134,-1.527 -1.56,-0.247 0.478,-7.733 0.382,-0.034 -0.134,-1.526 -0.382,0.034 0.081,-3.468 -0.267,-3.053 -0.83,-0.696 -0.1,-1.146 0.664,-1.211 -0.502,-5.725 0.698,-0.83 -0.068,-0.762 -1.145,0.1 -0.448,-0.729 -0.1,-1.146 0.315,-0.797 1.144,-0.1 -0.099,-1.145 -0.831,-0.697 -0.201,-2.289 -1.626,-1.011 1.225,-3.569 0.698,-0.829 -0.101,-1.145 0.763,-0.066 -0.066,-0.763 -0.763,0.066 -0.802,-9.159 0.946,-2.39 -0.068,-0.763 -0.797,-0.315 -0.1,-1.146 0.73,-0.448 -0.134,-1.525 0.019,-8.108 1.641,-3.219 7.872,-0.863 0.796,0.314 -2.424,3.294 2.882,5.478 -0.004,2.545 -0.979,2.008 1.346,2.189 0.968,11.067 -0.664,1.212 0.068,0.764 1.626,1.01 0.568,6.488 -0.697,0.83 0.101,1.146 1.144,-0.101 0.449,0.729 0.1,1.145 -0.314,0.798 -1.146,0.099 0.067,0.763 0.831,0.697 0.967,11.067 -0.247,1.559 0.233,2.672 0.481,1.111 0.135,1.526 1.211,0.664 0.056,0.648 c 0.465,-0.21 0.967,-0.353 1.504,-0.4 0.762,-0.066 1.496,0.059 2.155,0.333 v 8.496 C 0.933,-0.157 0.478,-0.043 0,0" style="fill:#c7c8ca;fill-opacity:1;fill-rule:nonzero;stroke:none" /></g></g>
    <g transform="matrix(1,0,0,-1,-390.22409,379.2819)"><g transform="translate(448.1694,321.3553)"><path id="path3680" d="M 0,0 1.15,-0.766 V -3.064 L 0.383,-3.447 V -4.596 L 1.15,-5.362 V -7.661 L 1.916,-8.427 H 2.681 V -9.96 H 1.916 l -0.766,-0.766 -8.046,-1.916 -0.383,-0.765 v -6.456 l -0.383,-0.383 v -0.766 l -0.765,-0.384 v -0.383 l 0.765,-0.383 0.383,-0.765 -0.383,-2.299 H 10.726 V -9.252 L 8.427,6.952 V 36.776 H 6.129 L 5.363,37.925 H 0 l -0.766,-1.149 h -1.149 v -0.767 h -1.533 l -0.383,0.767 h -1.915 l -0.767,-0.384 -0.766,0.384 h -1.914 l -3.066,-1.15 -0.383,-3.83 -1.532,-0.383 v -9.194 l 1.915,-0.766 v -1.916 l 1.85,-0.709 v -3.064 l 1.183,-6.755 0.384,-3.064 h 1.149 l 0.383,-1.15 h 2.681 l 0.766,1.15 h 0.766 L -0.415,4.029 H 0.351 L 0.735,2.88 h 1.149 z" style="fill:#c7c8ca;fill-opacity:1;fill-rule:nonzero;stroke:none" /></g></g>
    <g transform="matrix(1,0,0,-1,-390.22409,379.2819)"><g transform="translate(490.1593,321.4761)"><path id="path3684" d="m 0,0 -1.149,-0.766 v -2.298 l 0.765,-0.383 V -4.596 L -1.149,-5.362 V -7.661 L -1.915,-8.427 H -2.681 V -9.96 h 0.766 l 0.766,-0.766 8.045,-1.916 0.383,-0.765 v -6.456 l 0.383,-0.383 v -0.766 l 0.765,-0.384 v -0.383 l -0.765,-0.383 -0.383,-0.765 0.383,-2.299 h -18.388 v 15.974 l 2.299,16.204 v 29.824 h 2.298 l 0.766,1.149 H 0 l 0.766,-1.149 h 1.149 v -0.767 h 1.533 l 0.383,0.767 h 1.915 l 0.767,-0.384 0.766,0.384 h 1.915 l 3.064,-1.15 0.384,-3.83 1.532,-0.383 V 22.219 L 12.258,21.453 V 19.537 L 10.409,18.828 V 15.764 L 9.226,9.009 8.842,5.945 H 7.693 L 7.31,4.795 H 4.629 L 3.863,5.945 H 3.097 L 0.415,4.029 H -0.351 L -0.735,2.88 h -1.149 z" style="fill:#c7c8ca;fill-opacity:1;fill-rule:nonzero;stroke:none" /></g></g>
    <g transform="matrix(1,0,0,-1,-390.22409,379.2819)"><g transform="translate(486.7349,358.4925)"><path id="path3688" d="m 0,0 0.08,0.136 c -0.139,0.177 -0.301,0.349 -0.466,0.521 l -2.748,4.654 c 0,0 -7.805,6.266 -14.824,6.266 -7.02,0 -14.372,-6.266 -14.372,-6.266 l -2.745,-4.653 c -0.167,-0.172 -0.328,-0.345 -0.468,-0.522 l 0.08,-0.136 -0.08,-0.135 c 0.14,-0.177 0.301,-0.35 0.468,-0.522 l 2.745,-4.653 c 0,0 7.352,-6.266 14.372,-6.266 7.019,0 14.824,6.266 14.824,6.266 l 2.748,4.654 c 0.165,0.172 0.327,0.344 0.466,0.521 z" style="fill:#c7c8ca;fill-opacity:1;fill-rule:nonzero;stroke:none" /></g></g>
    <g transform="matrix(1,0,0,-1,-390.22409,379.2819)"><g transform="translate(473.5524,219.3008)"><path class="structure unitLocation" id="paperdoll-art-structure-CL-isCL" loc="CL" d="m 0,0 -0.714,1.85 -2.428,1.11 -0.899,4.812 1.372,0.371 0.183,5.181 1.697,0.741 2.061,4.812 -1.628,20.727 -0.612,0.74 0.384,11.166 -0.646,1.481 -0.114,2.592 -1.27,3.699 2.471,28.796 H -16.97 l 2.471,-28.796 -1.269,-3.699 -0.114,-2.592 -0.645,-1.481 0.382,-11.166 -0.611,-0.74 -1.629,-20.727 2.062,-4.812 1.696,-0.741 0.183,-5.181 1.373,-0.371 -0.898,-4.812 -2.43,-1.11 -0.714,-1.85 -1.316,-1.11 -0.553,-2.962 h 7.602 5.648 7.602 L 1.318,-1.11 Z" style="fill:#ffffff;fill-opacity:1;fill-rule:nonzero;stroke:none" /></g></g>
    <g transform="matrix(1,0,0,-1,-390.22409,379.2819)"><g transform="translate(473.5524,219.3008)"><path id="path4404" d="m 0,0 -0.714,1.85 -2.428,1.11 -0.899,4.812 1.372,0.371 0.183,5.181 1.697,0.741 2.061,4.812 -1.628,20.727 -0.612,0.74 0.384,11.166 -0.646,1.481 -0.114,2.592 -1.27,3.699 2.471,28.796 H -16.97 l 2.471,-28.796 -1.269,-3.699 -0.114,-2.592 -0.645,-1.481 0.382,-11.166 -0.611,-0.74 -1.629,-20.727 2.062,-4.812 1.696,-0.741 0.183,-5.181 1.373,-0.371 -0.898,-4.812 -2.43,-1.11 -0.714,-1.85 -1.316,-1.11 -0.553,-2.962 h 7.602 5.648 7.602 L 1.318,-1.11 Z" style="fill:none;stroke:#000000;stroke-width:1.449;stroke-linecap:butt;stroke-linejoin:miter;stroke-miterlimit:4;stroke-dasharray:none;stroke-opacity:1" /></g></g>
    <g transform="matrix(1,0,0,-1,-390.22409,379.2819)"><g transform="translate(424.9316,277.8919)"><path class="structure unitLocation" id="paperdoll-art-structure-LL-isLL" loc="LL" d="m 0,0 -0.573,-3.372 0.472,-0.909 c 0,0 -1.529,-0.28 -1.733,-0.431 -0.206,-0.151 -0.511,-2.531 -0.308,-2.997 0.204,-0.467 1.227,-1.449 1.227,-1.449 l -0.397,-2.243 -1.217,-1.633 -0.938,-3.668 0.41,-1.284 -2.15,-1.898 -4.648,-15.706 0.306,-4.599 2.566,-4.56 -1.083,-6.371 -0.764,-4.496 -10.602,-4.491 0.92,-2.682 H 4.943 v 1.149 l -0.92,1.916 -2.605,1.639 1.686,8.32 H 3.41 v 3.448 l 3.012,0.767 3.047,6.512 0.684,15.801 -0.919,2.204 -0.12,0.849 0.999,4.111 0.499,2.113 0.516,2.623 c 0,0 0.77,0.264 1.326,0.431 0.556,0.167 0.976,2.513 0.51,2.997 -0.466,0.483 -1.073,1.069 -1.073,1.069 l 0.728,0.589 -0.23,1.224 c 0.549,0.588 1.031,1.315 0.984,1.691 -0.059,0.49 -0.142,1.055 -0.188,1.367 l 0.176,0.275 0.765,0.128 1.232,2.769 3.886,2.018 7.239,6.495 1.279,2.229 0.264,1.688 1.064,0.725 10.357,11.575 -11.879,7.817 -2.482,-2.776 -1.467,-0.244 -1.065,-0.724 -2.217,-2.015 -2.019,-2.254 -1.529,-2.175 -0.664,-1.206 -0.55,-2.01 -0.866,-0.967 -0.688,0.159 -0.865,-0.967 0.4,-0.481 -0.575,-0.643 -0.69,0.159 0.112,-0.803 -0.576,-0.644 -0.401,0.481 -0.864,-0.967 0.112,-0.802 L 9.521,13.582 8.92,14.304 7.767,13.015 7.504,11.327 4.911,8.427 4.734,7.302 c 0,0 -1.453,0.574 -1.718,0.543 C 2.749,7.814 1.003,5.713 0.88,5.156 0.757,4.6 0.996,3.102 0.996,3.102 l -1.737,-1.92 z" style="fill:#ffffff;fill-opacity:1;fill-rule:nonzero;stroke:none" /></g></g>
    <g transform="matrix(1,0,0,-1,-390.22409,379.2819)"><g transform="translate(424.9316,277.8919)"><path id="path4412" d="m 0,0 -0.573,-3.372 0.472,-0.909 c 0,0 -1.529,-0.28 -1.733,-0.431 -0.206,-0.151 -0.511,-2.531 -0.308,-2.997 0.204,-0.467 1.227,-1.449 1.227,-1.449 l -0.397,-2.243 -1.217,-1.633 -0.938,-3.668 0.41,-1.284 -2.15,-1.898 -4.648,-15.706 0.306,-4.599 2.566,-4.56 -1.083,-6.371 -0.764,-4.496 -10.602,-4.491 0.92,-2.682 H 4.943 v 1.149 l -0.92,1.916 -2.605,1.639 1.686,8.32 H 3.41 v 3.448 l 3.012,0.767 3.047,6.512 0.684,15.801 -0.919,2.204 -0.12,0.849 0.999,4.111 0.499,2.113 0.516,2.623 c 0,0 0.77,0.264 1.326,0.431 0.556,0.167 0.976,2.513 0.51,2.997 -0.466,0.483 -1.073,1.069 -1.073,1.069 l 0.728,0.589 -0.23,1.224 c 0.549,0.588 1.031,1.315 0.984,1.691 -0.059,0.49 -0.142,1.055 -0.188,1.367 l 0.176,0.275 0.765,0.128 1.232,2.769 3.886,2.018 7.239,6.495 1.279,2.229 0.264,1.688 1.064,0.725 10.357,11.575 -11.879,7.817 -2.482,-2.776 -1.467,-0.244 -1.065,-0.724 -2.217,-2.015 -2.019,-2.254 -1.529,-2.175 -0.664,-1.206 -0.55,-2.01 -0.866,-0.967 -0.688,0.159 -0.865,-0.967 0.4,-0.481 -0.575,-0.643 -0.69,0.159 0.112,-0.803 -0.576,-0.644 -0.401,0.481 -0.864,-0.967 0.112,-0.802 L 9.521,13.582 8.92,14.304 7.767,13.015 7.504,11.327 4.911,8.427 4.734,7.302 c 0,0 -1.453,0.574 -1.718,0.543 C 2.749,7.814 1.003,5.713 0.88,5.156 0.757,4.6 0.996,3.102 0.996,3.102 l -1.737,-1.92 z" style="fill:none;stroke:#000000;stroke-width:1.449;stroke-linecap:butt;stroke-linejoin:miter;stroke-miterlimit:4;stroke-dasharray:none;stroke-opacity:1" /></g></g>
    <g transform="matrix(1,0,0,-1,-390.22409,379.2819)"><g transform="translate(505.0616,277.8919)"><path class="structure unitLocation" id="paperdoll-art-structure-RL-isRL" loc="RL" d="M 0,0 0.573,-3.372 0.1,-4.281 c 0,0 1.53,-0.28 1.734,-0.431 C 2.04,-4.863 2.345,-7.243 2.142,-7.709 1.938,-8.176 0.915,-9.158 0.915,-9.158 l 0.396,-2.243 1.218,-1.633 0.938,-3.668 -0.41,-1.284 2.15,-1.898 4.648,-15.706 -0.306,-4.599 -2.566,-4.56 1.083,-6.371 0.764,-4.496 10.602,-4.491 -0.92,-2.682 H -4.943 v 1.149 l 0.92,1.916 2.605,1.639 -1.686,8.32 H -3.41 v 3.448 l -3.012,0.767 -3.047,6.512 -0.684,15.801 0.919,2.204 0.119,0.849 -0.998,4.111 -0.499,2.113 -0.516,2.623 c 0,0 -0.77,0.264 -1.327,0.431 -0.555,0.167 -0.975,2.513 -0.509,2.997 0.467,0.483 1.072,1.069 1.072,1.069 l -0.726,0.589 0.229,1.224 c -0.55,0.588 -1.031,1.315 -0.984,1.691 0.059,0.49 0.142,1.055 0.188,1.367 l -0.176,0.275 -0.765,0.128 -1.232,2.769 -3.886,2.018 -7.239,6.495 -1.279,2.229 -0.264,1.688 -1.064,0.725 -10.357,11.575 11.879,7.817 2.482,-2.776 1.467,-0.244 1.065,-0.724 2.217,-2.015 2.019,-2.254 1.529,-2.175 0.664,-1.206 0.55,-2.01 0.865,-0.967 0.689,0.159 0.865,-0.967 -0.4,-0.481 0.576,-0.643 0.689,0.159 -0.112,-0.803 0.576,-0.644 0.401,0.481 0.864,-0.967 -0.112,-0.802 1.153,-1.289 0.601,0.722 1.153,-1.289 0.262,-1.688 2.594,-2.9 0.177,-1.125 c 0,0 1.452,0.574 1.718,0.543 C -2.749,7.814 -1.003,5.713 -0.88,5.156 -0.757,4.6 -0.996,3.102 -0.996,3.102 l 1.737,-1.92 z" style="fill:#ffffff;fill-opacity:1;fill-rule:nonzero;stroke:none" /></g></g>
    <g transform="matrix(1,0,0,-1,-390.22409,379.2819)"><g transform="translate(505.0616,277.8919)"><path id="path4420" d="M 0,0 0.573,-3.372 0.1,-4.281 c 0,0 1.53,-0.28 1.734,-0.431 C 2.04,-4.863 2.345,-7.243 2.142,-7.709 1.938,-8.176 0.915,-9.158 0.915,-9.158 l 0.396,-2.243 1.218,-1.633 0.938,-3.668 -0.41,-1.284 2.15,-1.898 4.648,-15.706 -0.306,-4.599 -2.566,-4.56 1.083,-6.371 0.764,-4.496 10.602,-4.491 -0.92,-2.682 H -4.943 v 1.149 l 0.92,1.916 2.605,1.639 -1.686,8.32 H -3.41 v 3.448 l -3.012,0.767 -3.047,6.512 -0.684,15.801 0.919,2.204 0.119,0.849 -0.998,4.111 -0.499,2.113 -0.516,2.623 c 0,0 -0.77,0.264 -1.327,0.431 -0.555,0.167 -0.975,2.513 -0.509,2.997 0.467,0.483 1.072,1.069 1.072,1.069 l -0.726,0.589 0.229,1.224 c -0.55,0.588 -1.031,1.315 -0.984,1.691 0.059,0.49 0.142,1.055 0.188,1.367 l -0.176,0.275 -0.765,0.128 -1.232,2.769 -3.886,2.018 -7.239,6.495 -1.279,2.229 -0.264,1.688 -1.064,0.725 -10.357,11.575 11.879,7.817 2.482,-2.776 1.467,-0.244 1.065,-0.724 2.217,-2.015 2.019,-2.254 1.529,-2.175 0.664,-1.206 0.55,-2.01 0.865,-0.967 0.689,0.159 0.865,-0.967 -0.4,-0.481 0.576,-0.643 0.689,0.159 -0.112,-0.803 0.576,-0.644 0.401,0.481 0.864,-0.967 -0.112,-0.802 1.153,-1.289 0.601,0.722 1.153,-1.289 0.262,-1.688 2.594,-2.9 0.177,-1.125 c 0,0 1.452,0.574 1.718,0.543 C -2.749,7.814 -1.003,5.713 -0.88,5.156 -0.757,4.6 -0.996,3.102 -0.996,3.102 l 1.737,-1.92 z" style="fill:none;stroke:#000000;stroke-width:1.449;stroke-linecap:butt;stroke-linejoin:miter;stroke-miterlimit:4;stroke-dasharray:none;stroke-opacity:1" /></g></g>
    <g transform="matrix(1,0,0,-1,-390.22409,379.2819)"><g transform="translate(478.1409,332.2879)"><path class="structure unitLocation" id="paperdoll-art-structure-CT-isCT" loc="CT" d="m 0,0 -2.564,-16.205 -0.019,-13.349 v -0.766 h -1.69 v -0.766 h 1.263 v -1.149 h -1.263 v -0.766 h 0.855 v -1.15 h -0.855 v -0.765 h 0.855 v -1.15 l -2.991,-4.597 H -20.08 l -2.992,4.597 v 1.15 h 0.855 v 0.765 h -0.855 v 1.15 h 0.855 v 0.766 h -1.281 v 1.149 h 1.281 v 0.766 h -1.709 v 0.766 13.349 L -26.49,0 v 33.335 l 2.137,1.852 H -2.137 L 0,33.335 Z" style="fill:#ffffff;fill-opacity:1;fill-rule:nonzero;stroke:none" /></g></g>
    <g transform="matrix(1,0,0,-1,-390.22409,379.2819)"><g transform="translate(478.1409,332.2879)"><path id="path4428" d="m 0,0 -2.564,-16.205 -0.019,-13.349 v -0.766 h -1.69 v -0.766 h 1.263 v -1.149 h -1.263 v -0.766 h 0.855 v -1.15 h -0.855 v -0.765 h 0.855 v -1.15 l -2.991,-4.597 H -20.08 l -2.992,4.597 v 1.15 h 0.855 v 0.765 h -0.855 v 1.15 h 0.855 v 0.766 h -1.281 v 1.149 h 1.281 v 0.766 h -1.709 v 0.766 13.349 L -26.49,0 v 33.335 l 2.137,1.852 H -2.137 L 0,33.335 Z" style="fill:none;stroke:#000000;stroke-width:1.449;stroke-linecap:round;stroke-linejoin:round;stroke-miterlimit:4;stroke-dasharray:none;stroke-opacity:1" /></g></g>
    <g transform="matrix(1,0,0,-1,-390.22409,379.2819)"><g transform="translate(499.8335,356.653)"><path class="structure unitLocation" id="paperdoll-art-structure-RA-isRA" loc="RA" d="m 0,0 c 0.537,0.045 1.058,-0.007 1.549,-0.133 l -0.056,0.647 0.697,0.83 0.041,3.91 0.698,0.83 8.84,0.773 4.016,-1.956 0.171,-1.968 0.864,-1.078 0.1,-1.145 -0.662,-1.212 0.134,-1.527 1.559,-0.247 -0.477,-7.733 -0.383,-0.033 0.135,-1.526 0.38,0.033 -0.08,-3.468 0.268,-3.053 0.83,-0.696 0.1,-1.146 -0.664,-1.21 0.502,-5.726 -0.698,-0.83 0.067,-0.762 1.146,0.1 0.448,-0.729 0.099,-1.146 -0.314,-0.797 -1.144,-0.1 0.099,-1.145 0.83,-0.697 0.201,-2.289 1.627,-1.011 -1.226,-3.569 -0.697,-0.829 0.101,-1.145 -0.764,-0.066 0.067,-0.763 0.763,0.066 0.802,-9.159 -0.946,-2.39 0.067,-0.763 0.797,-0.315 0.101,-1.146 -0.731,-0.448 0.134,-1.525 -0.018,-8.108 -1.642,-3.219 -7.871,-0.863 -0.796,0.314 2.423,3.294 -2.881,5.478 0.004,2.545 0.979,2.008 -1.346,2.189 -0.969,11.067 0.664,1.212 -0.068,0.764 -1.626,1.01 -0.568,6.489 0.698,0.829 -0.101,1.146 -1.145,-0.101 -0.448,0.729 -0.1,1.145 0.314,0.798 1.145,0.099 -0.067,0.763 -0.83,0.697 -0.968,11.067 0.247,1.559 -0.232,2.672 -0.482,1.111 -0.134,1.526 -1.212,0.664 -0.056,0.648 C 1.841,-8.97 1.338,-9.113 0.802,-9.16 0.04,-9.226 -0.694,-9.101 -1.353,-8.827 v 8.496 C -0.932,-0.157 -0.477,-0.043 0,0" style="fill:#ffffff;fill-opacity:1;fill-rule:nonzero;stroke:none" /></g></g>
    <g transform="matrix(1,0,0,-1,-390.22409,379.2819)"><g transform="translate(499.8335,356.653)"><path id="path4436" d="m 0,0 c 0.537,0.045 1.058,-0.007 1.549,-0.133 l -0.056,0.647 0.697,0.83 0.041,3.91 0.698,0.83 8.84,0.773 4.016,-1.956 0.171,-1.968 0.864,-1.078 0.1,-1.145 -0.662,-1.212 0.134,-1.527 1.559,-0.247 -0.477,-7.733 -0.383,-0.033 0.135,-1.526 0.38,0.033 -0.08,-3.468 0.268,-3.053 0.83,-0.696 0.1,-1.146 -0.664,-1.21 0.502,-5.726 -0.698,-0.83 0.067,-0.762 1.146,0.1 0.448,-0.729 0.099,-1.146 -0.314,-0.797 -1.144,-0.1 0.099,-1.145 0.83,-0.697 0.201,-2.289 1.627,-1.011 -1.226,-3.569 -0.697,-0.829 0.101,-1.145 -0.764,-0.066 0.067,-0.763 0.763,0.066 0.802,-9.159 -0.946,-2.39 0.067,-0.763 0.797,-0.315 0.101,-1.146 -0.731,-0.448 0.134,-1.525 -0.018,-8.108 -1.642,-3.219 -7.871,-0.863 -0.796,0.314 2.423,3.294 -2.881,5.478 0.004,2.545 0.979,2.008 -1.346,2.189 -0.969,11.067 0.664,1.212 -0.068,0.764 -1.626,1.01 -0.568,6.489 0.698,0.829 -0.101,1.146 -1.145,-0.101 -0.448,0.729 -0.1,1.145 0.314,0.798 1.145,0.099 -0.067,0.763 -0.83,0.697 -0.968,11.067 0.247,1.559 -0.232,2.672 -0.482,1.111 -0.134,1.526 -1.212,0.664 -0.056,0.648 C 1.841,-8.97 1.338,-9.113 0.802,-9.16 0.04,-9.226 -0.694,-9.101 -1.353,-8.827 v 8.496 C -0.932,-0.157 -0.477,-0.043 0,0 Z" style="fill:none;stroke:#000000;stroke-width:1.449;stroke-linecap:butt;stroke-linejoin:miter;stroke-miterlimit:4;stroke-dasharray:none;stroke-opacity:1" /></g></g>
    <g transform="matrix(1,0,0,-1,-390.22409,379.2819)"><g transform="translate(430.4078,356.653)"><path class="structure unitLocation" id="paperdoll-art-structure-LA-isLA" loc="LA" d="m 0,0 c -0.536,0.045 -1.057,-0.007 -1.549,-0.133 l 0.056,0.647 -0.697,0.83 -0.042,3.91 -0.696,0.83 -8.84,0.773 -4.017,-1.956 -0.171,-1.968 -0.864,-1.078 -0.1,-1.145 0.663,-1.212 -0.134,-1.527 -1.56,-0.247 0.478,-7.733 0.382,-0.033 -0.134,-1.526 -0.381,0.033 0.08,-3.468 -0.267,-3.053 -0.83,-0.696 -0.1,-1.146 0.664,-1.21 -0.502,-5.726 0.698,-0.83 -0.068,-0.762 -1.145,0.1 -0.448,-0.729 -0.1,-1.146 0.315,-0.797 1.144,-0.1 -0.099,-1.145 -0.831,-0.697 -0.201,-2.289 -1.626,-1.011 1.225,-3.569 0.698,-0.829 -0.101,-1.145 0.764,-0.066 -0.067,-0.763 -0.763,0.066 -0.802,-9.159 0.946,-2.39 -0.068,-0.763 -0.797,-0.315 -0.1,-1.146 0.73,-0.448 -0.134,-1.525 0.019,-8.108 1.641,-3.219 7.872,-0.863 0.796,0.314 -2.424,3.294 2.882,5.478 -0.004,2.545 -0.979,2.008 1.346,2.189 0.968,11.067 -0.664,1.212 0.068,0.764 1.626,1.01 0.568,6.489 -0.697,0.829 0.101,1.146 1.144,-0.101 0.449,0.729 0.1,1.145 -0.314,0.798 -1.146,0.099 0.067,0.763 0.831,0.697 0.967,11.067 -0.247,1.559 0.233,2.672 0.481,1.111 0.135,1.526 1.211,0.664 0.056,0.648 c 0.465,-0.21 0.967,-0.353 1.504,-0.4 0.762,-0.066 1.496,0.059 2.155,0.333 v 8.496 C 0.933,-0.157 0.478,-0.043 0,0" style="fill:#ffffff;fill-opacity:1;fill-rule:nonzero;stroke:none" /></g></g>
    <g transform="matrix(1,0,0,-1,-390.22409,379.2819)"><g transform="translate(430.4078,356.653)"><path id="path4444" d="m 0,0 c -0.536,0.045 -1.057,-0.007 -1.549,-0.133 l 0.056,0.647 -0.697,0.83 -0.042,3.91 -0.696,0.83 -8.84,0.773 -4.017,-1.956 -0.171,-1.968 -0.864,-1.078 -0.1,-1.145 0.663,-1.212 -0.134,-1.527 -1.56,-0.247 0.478,-7.733 0.382,-0.033 -0.134,-1.526 -0.381,0.033 0.08,-3.468 -0.267,-3.053 -0.83,-0.696 -0.1,-1.146 0.664,-1.21 -0.502,-5.726 0.698,-0.83 -0.068,-0.762 -1.145,0.1 -0.448,-0.729 -0.1,-1.146 0.315,-0.797 1.144,-0.1 -0.099,-1.145 -0.831,-0.697 -0.201,-2.289 -1.626,-1.011 1.225,-3.569 0.698,-0.829 -0.101,-1.145 0.764,-0.066 -0.067,-0.763 -0.763,0.066 -0.802,-9.159 0.946,-2.39 -0.068,-0.763 -0.797,-0.315 -0.1,-1.146 0.73,-0.448 -0.134,-1.525 0.019,-8.108 1.641,-3.219 7.872,-0.863 0.796,0.314 -2.424,3.294 2.882,5.478 -0.004,2.545 -0.979,2.008 1.346,2.189 0.968,11.067 -0.664,1.212 0.068,0.764 1.626,1.01 0.568,6.489 -0.697,0.829 0.101,1.146 1.144,-0.101 0.449,0.729 0.1,1.145 -0.314,0.798 -1.146,0.099 0.067,0.763 0.831,0.697 0.967,11.067 -0.247,1.559 0.233,2.672 0.481,1.111 0.135,1.526 1.211,0.664 0.056,0.648 c 0.465,-0.21 0.967,-0.353 1.504,-0.4 0.762,-0.066 1.496,0.059 2.155,0.333 v 8.496 C 0.933,-0.157 0.478,-0.043 0,0 Z" style="fill:none;stroke:#000000;stroke-width:1.449;stroke-linecap:butt;stroke-linejoin:miter;stroke-miterlimit:4;stroke-dasharray:none;stroke-opacity:1" /></g></g>
    <g transform="matrix(1,0,0,-1,-390.22409,379.2819)"><g transform="translate(444.062,325.3353)"><path class="structure unitLocation" id="paperdoll-art-structure-LT-isLT" loc="LT" d="M 0,0 1.149,-0.766 V -3.064 L 0.383,-3.447 V -4.596 L 1.149,-5.362 V -7.661 L 1.915,-8.427 H 2.681 V -9.96 H 1.915 l -0.766,-0.766 -8.045,-1.916 -0.383,-0.765 v -6.456 l -0.383,-0.383 v -0.766 l -0.765,-0.384 v -0.383 l 0.765,-0.383 0.383,-0.765 -0.383,-2.299 H 10.726 V -9.252 L 8.427,6.952 V 36.776 H 6.129 L 5.363,37.925 H 0 l -0.766,-1.149 h -1.149 v -0.767 h -1.533 l -0.383,0.767 h -1.915 l -0.767,-0.384 -0.766,0.384 h -1.915 l -3.065,-1.15 -0.383,-3.83 -1.532,-0.383 v -9.194 l 1.915,-0.766 v -1.916 l 1.85,-0.709 v -3.064 l 1.183,-6.755 0.384,-3.064 h 1.149 l 0.383,-1.15 h 2.681 l 0.766,1.15 h 0.766 L -0.415,4.029 H 0.351 L 0.735,2.881 h 1.149 z" style="fill:#ffffff;fill-opacity:1;fill-rule:nonzero;stroke:none" /></g></g>
    <g transform="matrix(1,0,0,-1,-390.22409,379.2819)"><g transform="translate(444.062,325.3353)"><path id="path4452" d="M 0,0 1.149,-0.766 V -3.064 L 0.383,-3.447 V -4.596 L 1.149,-5.362 V -7.661 L 1.915,-8.427 H 2.681 V -9.96 H 1.915 l -0.766,-0.766 -8.045,-1.916 -0.383,-0.765 v -6.456 l -0.383,-0.383 v -0.766 l -0.765,-0.384 v -0.383 l 0.765,-0.383 0.383,-0.765 -0.383,-2.299 H 10.726 V -9.252 L 8.427,6.952 V 36.776 H 6.129 L 5.363,37.925 H 0 l -0.766,-1.149 h -1.149 v -0.767 h -1.533 l -0.383,0.767 h -1.915 l -0.767,-0.384 -0.766,0.384 h -1.915 l -3.065,-1.15 -0.383,-3.83 -1.532,-0.383 v -9.194 l 1.915,-0.766 v -1.916 l 1.85,-0.709 v -3.064 l 1.183,-6.755 0.384,-3.064 h 1.149 l 0.383,-1.15 h 2.681 l 0.766,1.15 h 0.766 L -0.415,4.029 H 0.351 L 0.735,2.881 h 1.149 z" style="fill:none;stroke:#000000;stroke-width:1.449;stroke-linecap:round;stroke-linejoin:round;stroke-miterlimit:4;stroke-dasharray:none;stroke-opacity:1" /></g></g>
    <g transform="matrix(1,0,0,-1,-390.22409,379.2819)"><g transform="translate(486.0519,325.4561)"><path class="structure unitLocation" id="paperdoll-art-structure-RT-isRT" loc="RT" d="m 0,0 -1.149,-0.766 v -2.298 l 0.766,-0.383 V -4.596 L -1.149,-5.362 V -7.661 L -1.915,-8.427 H -2.681 V -9.96 h 0.766 l 0.766,-0.766 8.045,-1.916 0.383,-0.765 v -6.456 l 0.383,-0.383 v -0.766 l 0.765,-0.384 v -0.383 l -0.765,-0.383 -0.383,-0.765 0.383,-2.299 h -18.388 v 15.974 l 2.299,16.204 v 29.824 h 2.298 l 0.766,1.149 H 0 l 0.766,-1.149 h 1.149 v -0.767 h 1.533 l 0.383,0.767 h 1.915 l 0.767,-0.384 0.766,0.384 h 1.915 l 3.065,-1.15 0.383,-3.83 1.532,-0.383 v -9.194 l -1.915,-0.766 v -1.916 l -1.85,-0.709 V 15.764 L 9.226,9.009 8.842,5.945 H 7.693 L 7.31,4.795 H 4.629 L 3.863,5.945 H 3.097 L 0.415,4.029 H -0.351 L -0.735,2.881 h -1.149 z" style="fill:#ffffff;fill-opacity:1;fill-rule:nonzero;stroke:none" /></g></g>
    <g transform="matrix(1,0,0,-1,-390.22409,379.2819)"><g transform="translate(486.0519,325.4561)"><path id="path4460" d="m 0,0 -1.149,-0.766 v -2.298 l 0.766,-0.383 V -4.596 L -1.149,-5.362 V -7.661 L -1.915,-8.427 H -2.681 V -9.96 h 0.766 l 0.766,-0.766 8.045,-1.916 0.383,-0.765 v -6.456 l 0.383,-0.383 v -0.766 l 0.765,-0.384 v -0.383 l -0.765,-0.383 -0.383,-0.765 0.383,-2.299 h -18.388 v 15.974 l 2.299,16.204 v 29.824 h 2.298 l 0.766,1.149 H 0 l 0.766,-1.149 h 1.149 v -0.767 h 1.533 l 0.383,0.767 h 1.915 l 0.767,-0.384 0.766,0.384 h 1.915 l 3.065,-1.15 0.383,-3.83 1.532,-0.383 v -9.194 l -1.915,-0.766 v -1.916 l -1.85,-0.709 V 15.764 L 9.226,9.009 8.842,5.945 H 7.693 L 7.31,4.795 H 4.629 L 3.863,5.945 H 3.097 L 0.415,4.029 H -0.351 L -0.735,2.881 h -1.149 z" style="fill:none;stroke:#000000;stroke-width:1.449;stroke-linecap:round;stroke-linejoin:round;stroke-miterlimit:4;stroke-dasharray:none;stroke-opacity:1" /></g></g>
    <g transform="matrix(1,0,0,-1,-390.22409,379.2819)"><g transform="translate(482.6275,362.4727)"><path class="structure unitLocation" id="paperdoll-art-structure-HD-isHD" loc="HD" d="m 0,0 0.08,0.136 c -0.139,0.177 -0.302,0.349 -0.466,0.521 l -2.748,4.654 c 0,0 -7.805,6.266 -14.824,6.266 -7.019,0 -14.372,-6.266 -14.372,-6.266 l -2.746,-4.653 c -0.165,-0.172 -0.327,-0.345 -0.467,-0.522 l 0.08,-0.136 -0.08,-0.135 c 0.14,-0.177 0.302,-0.35 0.467,-0.522 l 2.746,-4.653 c 0,0 7.353,-6.266 14.372,-6.266 7.019,0 14.824,6.266 14.824,6.266 l 2.748,4.654 c 0.164,0.172 0.327,0.344 0.466,0.521 z" style="fill:#ffffff;fill-opacity:1;fill-rule:nonzero;stroke:none" /></g></g>
    <g transform="matrix(1,0,0,-1,-390.22409,379.2819)"><g transform="translate(482.6275,362.4727)"><path id="path4468" d="m 0,0 0.08,0.136 c -0.139,0.177 -0.302,0.349 -0.466,0.521 l -2.748,4.654 c 0,0 -7.805,6.266 -14.824,6.266 -7.019,0 -14.372,-6.266 -14.372,-6.266 l -2.746,-4.653 c -0.165,-0.172 -0.327,-0.345 -0.467,-0.522 l 0.08,-0.136 -0.08,-0.135 c 0.14,-0.177 0.302,-0.35 0.467,-0.522 l 2.746,-4.653 c 0,0 7.353,-6.266 14.372,-6.266 7.019,0 14.824,6.266 14.824,6.266 l 2.748,4.654 c 0.164,0.172 0.327,0.344 0.466,0.521 z" style="fill:none;stroke:#000000;stroke-width:1.449;stroke-linecap:butt;stroke-linejoin:miter;stroke-miterlimit:4;stroke-dasharray:none;stroke-opacity:1" /></g></g>
    <g transform="matrix(1,0,0,-1,-390.22409,379.2819)"><g transform="matrix(1,0,0,-1,0,767.9713)"><g transform="translate(0,2)"><g transform="translate(469.0506,405.3801)"><path class="pip structure" fill="#FFFFFF" id="is_pip_hd_3" loc="HD" d="m 0,0 c -0.96,0 -1.76,0.8 -1.76,1.759 0,0.959 0.8,1.76 1.76,1.76 0.959,0 1.758,-0.801 1.758,-1.76 C 1.758,0.8 0.959,0 0,0 Z" style="stroke:#000000;stroke-width:0.487;stroke-linecap:butt;stroke-linejoin:miter;stroke-miterlimit:2.414;stroke-dasharray:none;stroke-opacity:1" /></g></g></g></g>
    <g transform="matrix(1,0,0,-1,-390.22409,379.2819)"><g transform="matrix(1,0,0,-1,0,767.9713)"><g transform="translate(0,2)"><g transform="translate(464.8961,397.9709)"><path class="pip structure" fill="#FFFFFF" id="is_pip_hd_1" loc="HD" d="m 0,0 c -0.961,0 -1.761,0.8 -1.761,1.758 0,0.96 0.8,1.761 1.761,1.761 0.959,0 1.758,-0.801 1.758,-1.761 C 1.758,0.8 0.959,0 0,0 Z" style="stroke:#000000;stroke-width:0.487;stroke-linecap:butt;stroke-linejoin:miter;stroke-miterlimit:2.414;stroke-dasharray:none;stroke-opacity:1" /></g></g></g></g>
    <g transform="matrix(1,0,0,-1,-390.22409,379.2819)"><g transform="matrix(1,0,0,-1,0,767.9713)"><g transform="translate(0,2)"><g transform="translate(460.934,405.3801)"><path class="pip structure" fill="#FFFFFF" id="is_pip_hd_2" loc="HD" d="m 0,0 c -0.96,0 -1.76,0.8 -1.76,1.759 0,0.959 0.8,1.76 1.76,1.76 0.959,0 1.758,-0.801 1.758,-1.76 C 1.758,0.8 0.959,0 0,0 Z" style="stroke:#000000;stroke-width:0.487;stroke-linecap:butt;stroke-linejoin:miter;stroke-miterlimit:2.414;stroke-dasharray:none;stroke-opacity:1" /></g></g></g></g>
    <g transform="matrix(1,0,0,-1,-390.22409,379.2819)"><g transform="matrix(1,0,0,-1,0,767.9713)"><g transform="translate(0,2)"><g transform="translate(453.795,415.4)"><rect fill="none" height="5.4313002" id="isCTRow00" width="22.280001" x="0" y="0" /></g></g></g></g>
    <g transform="matrix(1,0,0,-1,-390.22409,379.2819)"><g transform="matrix(1,0,0,-1,0,767.9713)"><g transform="translate(0,2)"><g transform="translate(453.795,415.4)"><rect fill="none" height="5.4313002" id="isCTRow01" width="22.280001" x="0" y="4.7034998" /></g></g></g></g>
    <g transform="matrix(1,0,0,-1,-390.22409,379.2819)"><g transform="matrix(1,0,0,-1,0,767.9713)"><g transform="translate(0,2)"><g transform="translate(453.795,415.4)"><rect fill="none" height="5.4313002" id="isCTRow02" width="22.280001" x="0" y="9.4069996" /></g></g></g></g>
    <g transform="matrix(1,0,0,-1,-390.22409,379.2819)"><g transform="matrix(1,0,0,-1,0,767.9713)"><g transform="translate(0,2)"><g transform="translate(453.795,415.4)"><rect fill="none" height="5.4313002" id="isCTRow03" width="22.280001" x="0" y="14.1105" /></g></g></g></g>
    <g transform="matrix(1,0,0,-1,-390.22409,379.2819)"><g transform="matrix(1,0,0,-1,0,767.9713)"><g transform="translate(0,2)"><g transform="translate(453.795,415.4)"><rect fill="none" height="5.4313002" id="isCTRow04" width="19.780001" x="1.01" y="18.813999" /></g></g></g></g>
    <g transform="matrix(1,0,0,-1,-390.22409,379.2819)"><g transform="matrix(1,0,0,-1,0,767.9713)"><g transform="translate(0,2)"><g transform="translate(453.795,415.4)"><rect fill="none" height="5.4313002" id="isCTRow05" width="19" x="1.64" y="23.5175" /></g></g></g></g>
    <g transform="matrix(1,0,0,-1,-390.22409,379.2819)"><g transform="matrix(1,0,0,-1,0,767.9713)"><g transform="translate(0,2)"><g transform="translate(453.795,415.4)"><rect fill="none" height="5.4313002" id="isCTRow06" width="18.24" x="2.02" y="28.221001" /></g></g></g></g>
    <g transform="matrix(1,0,0,-1,-390.22409,379.2819)"><g transform="matrix(1,0,0,-1,0,767.9713)"><g transform="translate(0,2)"><g transform="translate(453.795,415.4)"><rect fill="none" height="5.4313002" id="isCTRow07" width="17.48" x="2.4000001" y="32.9245" /></g></g></g></g>
    <g transform="matrix(1,0,0,-1,-390.22409,379.2819)"><g transform="matrix(1,0,0,-1,0,767.9713)"><g transform="translate(0,2)"><g transform="translate(453.795,415.4)"><rect fill="none" height="5.4313002" id="isCTRow08" width="17.48" x="2.4000001" y="37.627998" /></g></g></g></g>
    <g transform="matrix(1,0,0,-1,-390.22409,379.2819)"><g transform="matrix(1,0,0,-1,0,767.9713)"><g transform="translate(0,2)"><g transform="translate(453.795,415.4)"><rect fill="none" height="5.4313002" id="isCTRow09" width="17.48" x="2.4000001" y="42.3316" /></g></g></g></g>
    <g transform="matrix(1,0,0,-1,-390.22409,379.2819)"><g transform="matrix(1,0,0,-1,0,767.9713)"><g transform="translate(0,2)"><g transform="translate(453.795,415.4)"><rect fill="none" height="5.4313002" id="isCTRow10" width="14.44" x="3.9200001" y="47.035099" /></g></g></g></g>
    <g transform="matrix(1,0,0,-1,-390.22409,379.2819)"><g transform="matrix(1,0,0,-1,0,767.9713)"><g transform="translate(0,2)"><g transform="translate(453.795,415.4)"><rect fill="none" height="5.4313002" id="isCTRow11" width="14.44" x="3.9200001" y="51.738602" /></g></g></g></g>
    <g transform="matrix(1,0,0,-1,-390.22409,379.2819)"><g transform="matrix(1,0,0,-1,0,767.9713)"><g transform="translate(0,2)"><g transform="translate(476.3,405.44)"><rect fill="none" height="5.4313002" id="isRTRow00" width="15.14" x="5.9000001" y="0" /></g></g></g></g>
    <g transform="matrix(1,0,0,-1,-390.22409,379.2819)"><g transform="matrix(1,0,0,-1,0,767.9713)"><g transform="translate(0,2)"><g transform="translate(476.3,405.44)"><rect fill="none" height="5.4313002" id="isRTRow01" width="20.639999" x="2.1500001" y="4.7034998" /></g></g></g></g>
    <g transform="matrix(1,0,0,-1,-390.22409,379.2819)"><g transform="matrix(1,0,0,-1,0,767.9713)"><g transform="translate(0,2)"><g transform="translate(476.3,405.44)"><rect fill="none" height="5.4313002" id="isRTRow02" width="19.25" x="2.1500001" y="9.4069996" /></g></g></g></g>
    <g transform="matrix(1,0,0,-1,-390.22409,379.2819)"><g transform="matrix(1,0,0,-1,0,767.9713)"><g transform="translate(0,2)"><g transform="translate(476.3,405.44)"><rect fill="none" height="5.4313002" id="isRTRow03" width="16.49" x="2.1500001" y="14.1105" /></g></g></g></g>
    <g transform="matrix(1,0,0,-1,-390.22409,379.2819)"><g transform="matrix(1,0,0,-1,0,767.9713)"><g transform="translate(0,2)"><g transform="translate(476.3,405.44)"><rect fill="none" height="5.4313002" id="isRTRow04" width="15.95" x="2.1500001" y="18.813999" /></g></g></g></g>
    <g transform="matrix(1,0,0,-1,-390.22409,379.2819)"><g transform="matrix(1,0,0,-1,0,767.9713)"><g transform="translate(0,2)"><g transform="translate(476.3,405.44)"><rect fill="none" height="5.4313002" id="isRTRow05" width="8.2299995" x="2.1500001" y="23.5175" /></g></g></g></g>
    <g transform="matrix(1,0,0,-1,-390.22409,379.2819)"><g transform="matrix(1,0,0,-1,0,767.9713)"><g transform="translate(0,2)"><g transform="translate(476.3,405.44)"><rect fill="none" height="5.4313002" id="isRTRow06" width="4.9200001" x="2.1500001" y="28.221001" /></g></g></g></g>
    <g transform="matrix(1,0,0,-1,-390.22409,379.2819)"><g transform="matrix(1,0,0,-1,0,767.9713)"><g transform="translate(0,2)"><g transform="translate(476.3,405.44)"><rect fill="none" height="5.4313002" id="isRTRow07" width="6.4499998" x="1.52" y="32.9245" /></g></g></g></g>
    <g transform="matrix(1,0,0,-1,-390.22409,379.2819)"><g transform="matrix(1,0,0,-1,0,767.9713)"><g transform="translate(0,2)"><g transform="translate(476.3,405.44)"><rect fill="none" height="5.4313002" id="isRTRow08" width="5.1900001" x="1.01" y="37.627998" /></g></g></g></g>
    <g transform="matrix(1,0,0,-1,-390.22409,379.2819)"><g transform="matrix(1,0,0,-1,0,767.9713)"><g transform="translate(0,2)"><g transform="translate(476.3,405.44)"><rect fill="none" height="5.4313002" id="isRTRow09" width="5.8299999" x="0.25" y="42.3316" /></g></g></g></g>
    <g transform="matrix(1,0,0,-1,-390.22409,379.2819)"><g transform="matrix(1,0,0,-1,0,767.9713)"><g transform="translate(0,2)"><g transform="translate(476.3,405.44)"><rect fill="none" height="5.4313002" id="isRTRow10" width="16.209999" x="0" y="47.035099" /></g></g></g></g>
    <g transform="matrix(1,0,0,-1,-390.22409,379.2819)"><g transform="matrix(1,0,0,-1,0,767.9713)"><g transform="translate(0,2)"><g transform="translate(476.3,405.44)"><rect fill="none" height="5.4313002" id="isRTRow11" width="16.209999" x="0" y="51.738602" /></g></g></g></g>
    <g transform="matrix(1,0,0,-1,-390.22409,379.2819)"><g transform="matrix(1,0,0,-1,0,767.9713)"><g transform="translate(0,2)"><g transform="matrix(-1,0,0,1,453.57,405.44)"><rect fill="none" height="5.4313002" id="rect2086" width="15.14" x="5.9000001" y="0" /></g></g></g></g>
    <g transform="matrix(1,0,0,-1,-390.22409,379.2819)"><g transform="matrix(1,0,0,-1,0,767.9713)"><g transform="translate(0,2)"><g transform="matrix(-1,0,0,1,453.57,405.44)"><rect fill="none" height="5.4313002" id="rect2088" width="20.639999" x="2.1500001" y="4.7034998" /></g></g></g></g>
    <g transform="matrix(1,0,0,-1,-390.22409,379.2819)"><g transform="matrix(1,0,0,-1,0,767.9713)"><g transform="translate(0,2)"><g transform="matrix(-1,0,0,1,453.57,405.44)"><rect fill="none" height="5.4313002" id="rect2090" width="19.25" x="2.1500001" y="9.4069996" /></g></g></g></g>
    <g transform="matrix(1,0,0,-1,-390.22409,379.2819)"><g transform="matrix(1,0,0,-1,0,767.9713)"><g transform="translate(0,2)"><g transform="matrix(-1,0,0,1,453.57,405.44)"><rect fill="none" height="5.4313002" id="rect2092" width="16.49" x="2.1500001" y="14.1105" /></g></g></g></g>
    <g transform="matrix(1,0,0,-1,-390.22409,379.2819)"><g transform="matrix(1,0,0,-1,0,767.9713)"><g transform="translate(0,2)"><g transform="matrix(-1,0,0,1,453.57,405.44)"><rect fill="none" height="5.4313002" id="rect2094" width="15.95" x="2.1500001" y="18.813999" /></g></g></g></g>
    <g transform="matrix(1,0,0,-1,-390.22409,379.2819)"><g transform="matrix(1,0,0,-1,0,767.9713)"><g transform="translate(0,2)"><g transform="matrix(-1,0,0,1,453.57,405.44)"><rect fill="none" height="5.4313002" id="rect2096" width="8.2299995" x="2.1500001" y="23.5175" /></g></g></g></g>
    <g transform="matrix(1,0,0,-1,-390.22409,379.2819)"><g transform="matrix(1,0,0,-1,0,767.9713)"><g transform="translate(0,2)"><g transform="matrix(-1,0,0,1,453.57,405.44)"><rect fill="none" height="5.4313002" id="rect2098" width="4.9200001" x="2.1500001" y="28.221001" /></g></g></g></g>
    <g transform="matrix(1,0,0,-1,-390.22409,379.2819)"><g transform="matrix(1,0,0,-1,0,767.9713)"><g transform="translate(0,2)"><g transform="matrix(-1,0,0,1,453.57,405.44)"><rect fill="none" height="5.4313002" id="rect2100" width="6.4499998" x="1.52" y="32.9245" /></g></g></g></g>
    <g transform="matrix(1,0,0,-1,-390.22409,379.2819)"><g transform="matrix(1,0,0,-1,0,767.9713)"><g transform="translate(0,2)"><g transform="matrix(-1,0,0,1,453.57,405.44)"><rect fill="none" height="5.4313002" id="rect2102" width="5.1900001" x="1.01" y="37.627998" /></g></g></g></g>
    <g transform="matrix(1,0,0,-1,-390.22409,379.2819)"><g transform="matrix(1,0,0,-1,0,767.9713)"><g transform="translate(0,2)"><g transform="matrix(-1,0,0,1,453.57,405.44)"><rect fill="none" height="5.4313002" id="rect2104" width="5.8299999" x="0.25" y="42.3316" /></g></g></g></g>
    <g transform="matrix(1,0,0,-1,-390.22409,379.2819)"><g transform="matrix(1,0,0,-1,0,767.9713)"><g transform="translate(0,2)"><g transform="matrix(-1,0,0,1,453.57,405.44)"><rect fill="none" height="5.4313002" id="rect2106" width="16.209999" x="0" y="47.035099" /></g></g></g></g>
    <g transform="matrix(1,0,0,-1,-390.22409,379.2819)"><g transform="matrix(1,0,0,-1,0,767.9713)"><g transform="translate(0,2)"><g transform="matrix(-1,0,0,1,453.57,405.44)"><rect fill="none" height="5.4313002" id="rect2108" width="16.209999" x="0" y="51.738602" /></g></g></g></g>
    <g transform="matrix(1,0,0,-1,-390.22409,379.2819)"><g transform="matrix(1,0,0,-1,0,767.9713)"><g transform="translate(0,2)"><g transform="matrix(0.9962,-0.08715,0.08715,0.99619,504.51,405.015)"><rect fill="none" height="5.4313002" id="rect2111" width="9.8500004" x="0" y="0" /></g></g></g></g>
    <g transform="matrix(1,0,0,-1,-390.22409,379.2819)"><g transform="matrix(1,0,0,-1,0,767.9713)"><g transform="translate(0,2)"><g transform="matrix(0.9962,-0.08715,0.08715,0.99619,504.51,405.015)"><rect fill="none" height="5.4313002" id="isRARow01" width="9.8500004" x="0" y="4.7034998" /></g></g></g></g>
    <g transform="matrix(1,0,0,-1,-390.22409,379.2819)"><g transform="matrix(1,0,0,-1,0,767.9713)"><g transform="translate(0,2)"><g transform="matrix(0.9962,-0.08715,0.08715,0.99619,504.51,405.015)"><rect fill="none" height="5.4313002" id="isRARow02" width="10.61" x="0" y="9.4069996" /></g></g></g></g>
    <g transform="matrix(1,0,0,-1,-390.22409,379.2819)"><g transform="matrix(1,0,0,-1,0,767.9713)"><g transform="translate(0,2)"><g transform="matrix(0.9962,-0.08715,0.08715,0.99619,504.51,405.015)"><rect fill="none" height="5.4313002" id="isRARow03" width="9.71" x="0" y="14.1105" /></g></g></g></g>
    <g transform="matrix(1,0,0,-1,-390.22409,379.2819)"><g transform="matrix(1,0,0,-1,0,767.9713)"><g transform="translate(0,2)"><g transform="matrix(0.9962,-0.08715,0.08715,0.99619,504.51,405.015)"><rect fill="none" height="5.4313002" id="isRARow04" width="9.71" x="0" y="18.813999" /></g></g></g></g>
    <g transform="matrix(1,0,0,-1,-390.22409,379.2819)"><g transform="matrix(1,0,0,-1,0,767.9713)"><g transform="translate(0,2)"><g transform="matrix(0.9962,-0.08715,0.08715,0.99619,504.51,405.015)"><rect fill="none" height="5.4313002" id="isRARow05" width="9.4899998" x="0" y="23.5175" /></g></g></g></g>
    <g transform="matrix(1,0,0,-1,-390.22409,379.2819)"><g transform="matrix(1,0,0,-1,0,767.9713)"><g transform="translate(0,2)"><g transform="matrix(0.9962,-0.08715,0.08715,0.99619,504.51,405.015)"><rect fill="none" height="5.4313002" id="isRARow06" width="10.61" x="0" y="28.221001" /></g></g></g></g>
    <g transform="matrix(1,0,0,-1,-390.22409,379.2819)"><g transform="matrix(1,0,0,-1,0,767.9713)"><g transform="translate(0,2)"><g transform="matrix(0.9962,-0.08715,0.08715,0.99619,504.51,405.015)"><rect fill="none" height="5.4313002" id="isRARow07" width="9.2200003" x="0" y="32.9245" /></g></g></g></g>
    <g transform="matrix(1,0,0,-1,-390.22409,379.2819)"><g transform="matrix(1,0,0,-1,0,767.9713)"><g transform="translate(0,2)"><g transform="matrix(0.9962,-0.08715,0.08715,0.99619,504.51,405.015)"><rect fill="none" height="5.4313002" id="isRARow08" width="10.61" x="0" y="37.627998" /></g></g></g></g>
    <g transform="matrix(1,0,0,-1,-390.22409,379.2819)"><g transform="matrix(1,0,0,-1,0,767.9713)"><g transform="translate(0,2)"><g transform="matrix(0.9962,-0.08715,0.08715,0.99619,504.51,405.015)"><rect fill="none" height="5.4313002" id="isRARow09" width="8.71" x="0" y="42.3316" /></g></g></g></g>
    <g transform="matrix(1,0,0,-1,-390.22409,379.2819)"><g transform="matrix(1,0,0,-1,0,767.9713)"><g transform="translate(0,2)"><g transform="matrix(0.9962,-0.08715,0.08715,0.99619,504.51,405.015)"><rect fill="none" height="5.4313002" id="isRARow10" width="8.71" x="0" y="47.035099" /></g></g></g></g>
    <g transform="matrix(1,0,0,-1,-390.22409,379.2819)"><g transform="matrix(1,0,0,-1,0,767.9713)"><g transform="translate(0,2)"><g transform="matrix(0.9962,-0.08715,0.08715,0.99619,504.51,405.015)"><rect fill="none" height="5.4313002" id="isRARow11" width="8.71" x="0" y="51.738602" /></g></g></g></g>
    <g transform="matrix(1,0,0,-1,-390.22409,379.2819)"><g transform="matrix(1,0,0,-1,0,767.9713)"><g transform="translate(0,2)"><g transform="matrix(0.9962,-0.08715,0.08715,0.99619,504.51,405.015)"><rect fill="none" height="5.4313002" id="isRARow12" width="7.8099999" x="0.64999998" y="56.442101" /></g></g></g></g>
    <g transform="matrix(1,0,0,-1,-390.22409,379.2819)"><g transform="matrix(1,0,0,-1,0,767.9713)"><g transform="translate(0,2)"><g transform="matrix(0.9962,-0.08715,0.08715,0.99619,504.51,405.015)"><rect fill="none" height="5.4313002" id="isRARow13" width="7.6300001" x="0.89999998" y="61.145599" /></g></g></g></g>
    <g transform="matrix(1,0,0,-1,-390.22409,379.2819)"><g transform="matrix(1,0,0,-1,0,767.9713)"><g transform="translate(0,2)"><g transform="matrix(0.9962,-0.08715,0.08715,0.99619,504.51,405.015)"><rect fill="none" height="5.4313002" id="isRARow14" width="6.0700002" x="2.46" y="65.849098" /></g></g></g></g>
    <g transform="matrix(1,0,0,-1,-390.22409,379.2819)"><g transform="matrix(1,0,0,-1,0,767.9713)"><g transform="translate(0,2)"><g transform="matrix(-0.9962,-0.08715,-0.08715,0.99619,425.36,405.015)"><rect fill="none" height="5.4313002" id="isLARow00" width="9.8500004" x="0" y="0" /></g></g></g></g>
    <g transform="matrix(1,0,0,-1,-390.22409,379.2819)"><g transform="matrix(1,0,0,-1,0,767.9713)"><g transform="translate(0,2)"><g transform="matrix(-0.9962,-0.08715,-0.08715,0.99619,425.36,405.015)"><rect fill="none" height="5.4313002" id="isLARow01" width="9.8500004" x="0" y="4.7034998" /></g></g></g></g>
    <g transform="matrix(1,0,0,-1,-390.22409,379.2819)"><g transform="matrix(1,0,0,-1,0,767.9713)"><g transform="translate(0,2)"><g transform="matrix(-0.9962,-0.08715,-0.08715,0.99619,425.36,405.015)"><rect fill="none" height="5.4313002" id="isLARow02" width="10.61" x="0" y="9.4069996" /></g></g></g></g>
    <g transform="matrix(1,0,0,-1,-390.22409,379.2819)"><g transform="matrix(1,0,0,-1,0,767.9713)"><g transform="translate(0,2)"><g transform="matrix(-0.9962,-0.08715,-0.08715,0.99619,425.36,405.015)"><rect fill="none" height="5.4313002" id="isLARow03" width="9.71" x="0" y="14.1105" /></g></g></g></g>
    <g transform="matrix(1,0,0,-1,-390.22409,379.2819)"><g transform="matrix(1,0,0,-1,0,767.9713)"><g transform="translate(0,2)"><g transform="matrix(-0.9962,-0.08715,-0.08715,0.99619,425.36,405.015)"><rect fill="none" height="5.4313002" id="isLARow04" width="9.71" x="0" y="18.813999" /></g></g></g></g>
    <g transform="matrix(1,0,0,-1,-390.22409,379.2819)"><g transform="matrix(1,0,0,-1,0,767.9713)"><g transform="translate(0,2)"><g transform="matrix(-0.9962,-0.08715,-0.08715,0.99619,425.36,405.015)"><rect fill="none" height="5.4313002" id="isLARow05" width="9.4899998" x="0" y="23.5175" /></g></g></g></g>
    <g transform="matrix(1,0,0,-1,-390.22409,379.2819)"><g transform="matrix(1,0,0,-1,0,767.9713)"><g transform="translate(0,2)"><g transform="matrix(-0.9962,-0.08715,-0.08715,0.99619,425.36,405.015)"><rect fill="none" height="5.4313002" id="isLARow06" width="10.61" x="0" y="28.221001" /></g></g></g></g>
    <g transform="matrix(1,0,0,-1,-390.22409,379.2819)"><g transform="matrix(1,0,0,-1,0,767.9713)"><g transform="translate(0,2)"><g transform="matrix(-0.9962,-0.08715,-0.08715,0.99619,425.36,405.015)"><rect fill="none" height="5.4313002" id="isLARow07" width="9.2200003" x="0" y="32.9245" /></g></g></g></g>
    <g transform="matrix(1,0,0,-1,-390.22409,379.2819)"><g transform="matrix(1,0,0,-1,0,767.9713)"><g transform="translate(0,2)"><g transform="matrix(-0.9962,-0.08715,-0.08715,0.99619,425.36,405.015)"><rect fill="none" height="5.4313002" id="isLARow08" width="10.61" x="0" y="37.627998" /></g></g></g></g>
    <g transform="matrix(1,0,0,-1,-390.22409,379.2819)"><g transform="matrix(1,0,0,-1,0,767.9713)"><g transform="translate(0,2)"><g transform="matrix(-0.9962,-0.08715,-0.08715,0.99619,425.36,405.015)"><rect fill="none" height="5.4313002" id="isLARow09" width="8.71" x="0" y="42.3316" /></g></g></g></g>
    <g transform="matrix(1,0,0,-1,-390.22409,379.2819)"><g transform="matrix(1,0,0,-1,0,767.9713)"><g transform="translate(0,2)"><g transform="matrix(-0.9962,-0.08715,-0.08715,0.99619,425.36,405.015)"><rect fill="none" height="5.4313002" id="isLARow10" width="8.71" x="0" y="47.035099" /></g></g></g></g>
    <g transform="matrix(1,0,0,-1,-390.22409,379.2819)"><g transform="matrix(1,0,0,-1,0,767.9713)"><g transform="translate(0,2)"><g transform="matrix(-0.9962,-0.08715,-0.08715,0.99619,425.36,405.015)"><rect fill="none" height="5.4313002" id="isLARow11" width="8.71" x="0" y="51.738602" /></g></g></g></g>
    <g transform="matrix(1,0,0,-1,-390.22409,379.2819)"><g transform="matrix(1,0,0,-1,0,767.9713)"><g transform="translate(0,2)"><g transform="matrix(-0.9962,-0.08715,-0.08715,0.99619,425.36,405.015)"><rect fill="none" height="5.4313002" id="isLARow12" width="7.8099999" x="0.64999998" y="56.442101" /></g></g></g></g>
    <g transform="matrix(1,0,0,-1,-390.22409,379.2819)"><g transform="matrix(1,0,0,-1,0,767.9713)"><g transform="translate(0,2)"><g transform="matrix(-0.9962,-0.08715,-0.08715,0.99619,425.36,405.015)"><rect fill="none" height="5.4313002" id="isLARow13" width="7.6300001" x="0.89999998" y="61.145599" /></g></g></g></g>
    <g transform="matrix(1,0,0,-1,-390.22409,379.2819)"><g transform="matrix(1,0,0,-1,0,767.9713)"><g transform="translate(0,2)"><g transform="matrix(-0.9962,-0.08715,-0.08715,0.99619,425.36,405.015)"><rect fill="none" height="5.4313002" id="isLARow14" width="6.0700002" x="2.46" y="65.849098" /></g></g></g></g>
    <g transform="matrix(1,0,0,-1,-390.22409,379.2819)"><g transform="matrix(1,0,0,-1,0,767.9713)"><g transform="translate(0,2)"><g transform="translate(466.8716,445.7581)"><rect fill="none" height="5.4313002" id="rect2144" width="12.152316" x="10.555143" y="21.282909" /></g></g></g></g>
    <g transform="matrix(1,0,0,-1,-390.22409,379.2819)"><g transform="matrix(1,0,0,-1,0,767.9713)"><g transform="translate(0,2)"><g transform="translate(466.8716,445.7581)"><rect fill="none" height="5.4313002" id="rect2146" width="14.01" x="13.112778" y="25.986414" /></g></g></g></g>
    <g transform="matrix(1,0,0,-1,-390.22409,379.2819)"><g transform="matrix(1,0,0,-1,0,767.9713)"><g transform="translate(0,2)"><g transform="translate(466.8716,445.7581)"><rect fill="none" height="5.4313002" id="rect2148" width="13.706105" x="18.355068" y="30.68992" /></g></g></g></g>
    <g transform="matrix(1,0,0,-1,-390.22409,379.2819)"><g transform="matrix(1,0,0,-1,0,767.9713)"><g transform="translate(0,2)"><g transform="translate(466.8716,445.7581)"><rect fill="none" height="5.4313002" id="rect2150" width="12.814838" x="23.662981" y="35.393425" /></g></g></g></g>
    <g transform="matrix(1,0,0,-1,-390.22409,379.2819)"><g transform="matrix(1,0,0,-1,0,767.9713)"><g transform="translate(0,2)"><g transform="translate(466.8716,445.7581)"><rect fill="none" height="5.4313002" id="rect2152" width="12.113028" x="27.404596" y="40.096931" /></g></g></g></g>
    <g transform="matrix(1,0,0,-1,-390.22409,379.2819)"><g transform="matrix(1,0,0,-1,0,767.9713)"><g transform="translate(0,2)"><g transform="translate(466.8716,445.7581)"><rect fill="none" height="5.4313002" id="rect2154" width="11.857555" x="27.750277" y="44.800438" /></g></g></g></g>
    <g transform="matrix(1,0,0,-1,-390.22409,379.2819)"><g transform="matrix(1,0,0,-1,0,767.9713)"><g transform="translate(0,2)"><g transform="translate(466.8716,445.7581)"><rect fill="none" height="5.4313002" id="rect2156" width="9.6587696" x="29.640572" y="49.503944" /></g></g></g></g>
    <g transform="matrix(1,0,0,-1,-390.22409,379.2819)"><g transform="matrix(1,0,0,-1,0,767.9713)"><g transform="translate(0,2)"><g transform="translate(466.8716,445.7581)"><rect fill="none" height="5.4313002" id="rect2158" width="10.00058" x="30.776999" y="54.207451" /></g></g></g></g>
    <g transform="matrix(1,0,0,-1,-390.22409,379.2819)"><g transform="matrix(1,0,0,-1,0,767.9713)"><g transform="translate(0,2)"><g transform="translate(466.8716,445.7581)"><rect fill="none" height="5.4313002" id="rect2160" width="10.562454" x="30.600317" y="58.910954" /></g></g></g></g>
    <g transform="matrix(1,0,0,-1,-390.22409,379.2819)"><g transform="matrix(1,0,0,-1,0,767.9713)"><g transform="translate(0,2)"><g transform="translate(466.8716,445.7581)"><rect fill="none" height="5.4313002" id="rect2162" width="14.213052" x="30.059244" y="63.61446" /></g></g></g></g>
    <g transform="matrix(1,0,0,-1,-390.22409,379.2819)"><g transform="matrix(1,0,0,-1,0,767.9713)"><g transform="translate(0,2)"><g transform="translate(466.8716,445.7581)"><rect fill="none" height="5.4313002" id="rect2164" width="13.85139" x="30.262854" y="68.31797" /></g></g></g></g>
    <g transform="matrix(1,0,0,-1,-390.22409,379.2819)"><g transform="matrix(1,0,0,-1,0,767.9713)"><g transform="translate(0,2)"><g transform="translate(466.8716,445.7581)"><rect fill="none" height="5.4313002" id="rect2166" width="17.623856" x="30.466459" y="73.021469" /></g></g></g></g>
    <g transform="matrix(1,0,0,-1,-390.22409,379.2819)"><g transform="matrix(1,0,0,-1,0,767.9713)"><g transform="translate(0,2)"><g transform="translate(466.8716,445.7581)"><rect fill="none" height="5.4313002" id="rect2168" width="14.972836" x="31.77408" y="77.724976" /></g></g></g></g>
    <g transform="matrix(1,0,0,-1,-390.22409,379.2819)"><g transform="matrix(1,0,0,-1,0,767.9713)"><g transform="translate(0,2)"><g transform="translate(466.8716,445.7581)"><rect fill="none" height="5.4313002" id="rect2170" width="9.4759741" x="36.536999" y="82.428482" /></g></g></g></g>
    <g transform="matrix(1,0,0,-1,-390.22409,379.2819)"><g transform="matrix(1,0,0,-1,0,767.9713)"><g transform="translate(0,2)"><g transform="translate(466.8716,445.7581)"><rect fill="none" height="5.4313002" id="rect2172" width="8.157774" x="37.474636" y="87.131989" /></g></g></g></g>
    <g transform="matrix(1,0,0,-1,-390.22409,379.2819)"><g transform="matrix(1,0,0,-1,0,767.9713)"><g transform="translate(0,2)"><g transform="translate(466.8716,445.7581)"><rect fill="none" height="5.4313002" id="rect2174" width="8.6709623" x="37.837776" y="91.835495" /></g></g></g></g>
    <g transform="matrix(1,0,0,-1,-390.22409,379.2819)"><g transform="matrix(1,0,0,-1,0,767.9713)"><g transform="translate(0,2)"><g transform="translate(466.8716,445.7581)"><rect fill="none" height="5.4313002" id="rect2176" width="8.5980139" x="38.280293" y="96.539001" /></g></g></g></g>
    <g transform="matrix(1,0,0,-1,-390.22409,379.2819)"><g transform="matrix(1,0,0,-1,0,767.9713)"><g transform="translate(0,2)"><g transform="matrix(-1,0,0,1,462.9984,445.7581)"><rect fill="none" height="5.4313002" id="rect2179" width="12.152316" x="10.555143" y="21.282909" /></g></g></g></g>
    <g transform="matrix(1,0,0,-1,-390.22409,379.2819)"><g transform="matrix(1,0,0,-1,0,767.9713)"><g transform="translate(0,2)"><g transform="matrix(-1,0,0,1,462.9984,445.7581)"><rect fill="none" height="5.4313002" id="rect2181" width="14.01" x="13.112778" y="25.986414" /></g></g></g></g>
    <g transform="matrix(1,0,0,-1,-390.22409,379.2819)"><g transform="matrix(1,0,0,-1,0,767.9713)"><g transform="translate(0,2)"><g transform="matrix(-1,0,0,1,462.9984,445.7581)"><rect fill="none" height="5.4313002" id="rect2183" width="13.706105" x="18.355068" y="30.68992" /></g></g></g></g>
    <g transform="matrix(1,0,0,-1,-390.22409,379.2819)"><g transform="matrix(1,0,0,-1,0,767.9713)"><g transform="translate(0,2)"><g transform="matrix(-1,0,0,1,462.9984,445.7581)"><rect fill="none" height="5.4313002" id="rect2185" width="12.814838" x="23.662981" y="35.393425" /></g></g></g></g>
    <g transform="matrix(1,0,0,-1,-390.22409,379.2819)"><g transform="matrix(1,0,0,-1,0,767.9713)"><g transform="translate(0,2)"><g transform="matrix(-1,0,0,1,462.9984,445.7581)"><rect fill="none" height="5.4313002" id="rect2187" width="12.113028" x="27.404596" y="40.096931" /></g></g></g></g>
    <g transform="matrix(1,0,0,-1,-390.22409,379.2819)"><g transform="matrix(1,0,0,-1,0,767.9713)"><g transform="translate(0,2)"><g transform="matrix(-1,0,0,1,462.9984,445.7581)"><rect fill="none" height="5.4313002" id="rect2189" width="11.857555" x="27.750277" y="44.800438" /></g></g></g></g>
    <g transform="matrix(1,0,0,-1,-390.22409,379.2819)"><g transform="matrix(1,0,0,-1,0,767.9713)"><g transform="translate(0,2)"><g transform="matrix(-1,0,0,1,462.9984,445.7581)"><rect fill="none" height="5.4313002" id="rect2191" width="9.6587696" x="29.640572" y="49.503944" /></g></g></g></g>
    <g transform="matrix(1,0,0,-1,-390.22409,379.2819)"><g transform="matrix(1,0,0,-1,0,767.9713)"><g transform="translate(0,2)"><g transform="matrix(-1,0,0,1,462.9984,445.7581)"><rect fill="none" height="5.4313002" id="rect2193" width="10.00058" x="30.776999" y="54.207451" /></g></g></g></g>
    <g transform="matrix(1,0,0,-1,-390.22409,379.2819)"><g transform="matrix(1,0,0,-1,0,767.9713)"><g transform="translate(0,2)"><g transform="matrix(-1,0,0,1,462.9984,445.7581)"><rect fill="none" height="5.4313002" id="rect2195" width="10.562454" x="30.600317" y="58.910954" /></g></g></g></g>
    <g transform="matrix(1,0,0,-1,-390.22409,379.2819)"><g transform="matrix(1,0,0,-1,0,767.9713)"><g transform="translate(0,2)"><g transform="matrix(-1,0,0,1,462.9984,445.7581)"><rect fill="none" height="5.4313002" id="rect2197" width="14.213052" x="30.059244" y="63.61446" /></g></g></g></g>
    <g transform="matrix(1,0,0,-1,-390.22409,379.2819)"><g transform="matrix(1,0,0,-1,0,767.9713)"><g transform="translate(0,2)"><g transform="matrix(-1,0,0,1,462.9984,445.7581)"><rect fill="none" height="5.4313002" id="rect2199" width="13.85139" x="30.262854" y="68.31797" /></g></g></g></g>
    <g transform="matrix(1,0,0,-1,-390.22409,379.2819)"><g transform="matrix(1,0,0,-1,0,767.9713)"><g transform="translate(0,2)"><g transform="matrix(-1,0,0,1,462.9984,445.7581)"><rect fill="none" height="5.4313002" id="rect2201" width="17.623856" x="30.466459" y="73.021469" /></g></g></g></g>
    <g transform="matrix(1,0,0,-1,-390.22409,379.2819)"><g transform="matrix(1,0,0,-1,0,767.9713)"><g transform="translate(0,2)"><g transform="matrix(-1,0,0,1,462.9984,445.7581)"><rect fill="none" height="5.4313002" id="rect2203" width="14.972836" x="31.77408" y="77.724976" /></g></g></g></g>
    <g transform="matrix(1,0,0,-1,-390.22409,379.2819)"><g transform="matrix(1,0,0,-1,0,767.9713)"><g transform="translate(0,2)"><g transform="matrix(-1,0,0,1,462.9984,445.7581)"><rect fill="none" height="5.4313002" id="rect2205" width="9.4759741" x="36.536999" y="82.428482" /></g></g></g></g>
    <g transform="matrix(1,0,0,-1,-390.22409,379.2819)"><g transform="matrix(1,0,0,-1,0,767.9713)"><g transform="translate(0,2)"><g transform="matrix(-1,0,0,1,462.9984,445.7581)"><rect fill="none" height="5.4313002" id="rect2207" width="8.157774" x="37.474636" y="87.131989" /></g></g></g></g>
    <g transform="matrix(1,0,0,-1,-390.22409,379.2819)"><g transform="matrix(1,0,0,-1,0,767.9713)"><g transform="translate(0,2)"><g transform="matrix(-1,0,0,1,462.9984,445.7581)"><rect fill="none" height="5.4313002" id="rect2209" width="8.6709623" x="37.837776" y="91.835495" /></g></g></g></g>
    <g transform="matrix(1,0,0,-1,-390.22409,379.2819)"><g transform="matrix(1,0,0,-1,0,767.9713)"><g transform="translate(0,2)"><g transform="matrix(-1,0,0,1,462.9984,445.7581)"><rect fill="none" height="5.4313002" id="rect2211" width="8.5980139" x="38.280293" y="96.539001" /></g></g></g></g>
    <g transform="matrix(1,0,0,-1,-390.22409,379.2819)"><g transform="matrix(1,0,0,-1,0,767.9713)"><g transform="translate(0,2)"><g transform="translate(454.69055,449.9031)"><rect fill="none" height="5.4313002" id="rect2214" width="10.899019" x="4.7259908" y="26.30092" /></g></g></g></g>
    <g transform="matrix(1,0,0,-1,-390.22409,379.2819)"><g transform="matrix(1,0,0,-1,0,767.9713)"><g transform="translate(0,2)"><g transform="translate(454.69055,449.9031)"><rect fill="none" height="5.4313002" id="rect2216" width="10.891026" x="4.6635389" y="31.004425" /></g></g></g></g>
    <g transform="matrix(1,0,0,-1,-390.22409,379.2819)"><g transform="matrix(1,0,0,-1,0,767.9713)"><g transform="translate(0,2)"><g transform="translate(454.69055,449.9031)"><rect fill="none" height="5.4313002" id="rect2218" width="10.578107" x="4.9465799" y="35.707932" /></g></g></g></g>
    <g transform="matrix(1,0,0,-1,-390.22409,379.2819)"><g transform="matrix(1,0,0,-1,0,767.9713)"><g transform="translate(0,2)"><g transform="translate(454.69055,449.9031)"><rect fill="none" height="5.4313002" id="rect2220" width="13.156328" x="3.6266911" y="40.411438" /></g></g></g></g>
    <g transform="matrix(1,0,0,-1,-390.22409,379.2819)"><g transform="matrix(1,0,0,-1,0,767.9713)"><g transform="translate(0,2)"><g transform="translate(454.69055,449.9031)"><rect fill="none" height="5.4313002" id="rect2222" width="13.890971" x="3.230294" y="45.114944" /></g></g></g></g>
    <g transform="matrix(1,0,0,-1,-390.22409,379.2819)"><g transform="matrix(1,0,0,-1,0,767.9713)"><g transform="translate(0,2)"><g transform="translate(454.69055,449.9031)"><rect fill="none" height="5.4313002" id="rect2224" width="13.886932" x="3.205395" y="49.818447" /></g></g></g></g>
    <g transform="matrix(1,0,0,-1,-390.22409,379.2819)"><g transform="matrix(1,0,0,-1,0,767.9713)"><g transform="translate(0,2)"><g transform="translate(454.69055,449.9031)"><rect fill="none" height="5.4313002" id="rect2226" width="15.034932" x="2.7168319" y="54.521954" /></g></g></g></g>
    <g transform="matrix(1,0,0,-1,-390.22409,379.2819)"><g transform="matrix(1,0,0,-1,0,767.9713)"><g transform="translate(0,2)"><g transform="translate(454.69055,449.9031)"><rect fill="none" height="5.4313002" id="rect2228" width="15.484032" x="2.347168" y="59.22546" /></g></g></g></g>
    <g transform="matrix(1,0,0,-1,-390.22409,379.2819)"><g transform="matrix(1,0,0,-1,0,767.9713)"><g transform="translate(0,2)"><g transform="translate(454.69055,449.9031)"><rect fill="none" height="5.4313002" id="rect2230" width="16.523132" x="1.977505" y="63.928967" /></g></g></g></g>
    <g transform="matrix(1,0,0,-1,-390.22409,379.2819)"><g transform="matrix(1,0,0,-1,0,767.9713)"><g transform="translate(0,2)"><g transform="translate(454.69055,449.9031)"><rect fill="none" height="5.4313002" id="rect2232" width="17.162231" x="1.607842" y="68.632477" /></g></g></g></g>
    <g transform="matrix(1,0,0,-1,-390.22409,379.2819)"><g transform="matrix(1,0,0,-1,0,767.9713)"><g transform="translate(0,2)"><g transform="translate(454.69055,449.9031)"><rect fill="none" height="5.4313002" id="rect2234" width="15.042491" x="2.6546321" y="73.335976" /></g></g></g></g>
    <g transform="matrix(1,0,0,-1,-390.22409,379.2819)"><g transform="matrix(1,0,0,-1,0,767.9713)"><g transform="translate(0,2)"><g transform="translate(454.69055,449.9031)"><rect fill="none" height="5.4313002" id="rect2236" width="10.444226" x="4.9533868" y="78.039482" /></g></g></g></g>
    <g transform="matrix(1,0,0,-1,-390.22409,379.2819)"><g transform="matrix(1,0,0,-1,0,767.9713)"><g transform="translate(0,2)"><g transform="translate(454.69055,449.9031)"><rect fill="none" height="5.4313002" id="rect2238" width="8.2533522" x="6.0495262" y="82.742989" /></g></g></g></g>
    <g transform="matrix(1,0,0,-1,-390.22409,379.2819)"><g transform="matrix(1,0,0,-1,0,767.9713)"><g transform="translate(0,2)"><g transform="translate(454.69055,449.9031)"><rect fill="none" height="5.4313002" id="rect2240" width="8.1815643" x="6.1853442" y="87.446495" /></g></g></g></g>
    <g transform="matrix(1,0,0,-1,-390.22409,379.2819)"><g transform="matrix(1,0,0,-1,0,767.9713)"><g transform="translate(0,2)"><g transform="translate(454.69055,449.9031)"><rect fill="none" height="5.4313002" id="rect2242" width="8.8443003" x="5.6633601" y="92.150002" /></g></g></g></g>
    <g transform="matrix(1,0,0,-1,-390.22409,379.2819)"><g transform="matrix(1,0,0,-1,0,767.9713)"><g transform="rotate(-90,507.25,44.75)"><rect fill="none" height="5" id="rect567" width="40" x="17" y="-5" /></g></g></g>
    <g transform="matrix(1,0,0,-1,-390.22409,379.2819)"><g transform="matrix(1,0,0,-1,0,767.9713)"><g transform="rotate(-90,507.25,44.75)"><rect fill="none" height="5" id="rect565" width="75" x="0" y="0" /></g></g></g>
    <g transform="matrix(1,0,0,-1,-390.22409,379.2819)"><g transform="matrix(1,0,0,-1,0,767.9713)"><g transform="rotate(-90,507.25,44.75)"><rect fill="none" height="5" id="rect566" width="40" x="17" y="5" /></g></g></g>
    <g transform="matrix(1,0,0,-1,-390.22409,379.2819)"><g transform="matrix(1,0,0,-1,0,767.9713)"><g transform="rotate(-102.00001,476.00025,71.529474)"><rect fill="none" height="5" id="rect573" width="13" x="74" y="-10" /></g></g></g>
    <g transform="matrix(1,0,0,-1,-390.22409,379.2819)"><g transform="matrix(1,0,0,-1,0,767.9713)"><g transform="rotate(-102.00001,476.00025,71.529474)"><rect fill="none" height="5" id="rect572" width="19" x="67" y="-5" /></g></g></g>
    <g transform="matrix(1,0,0,-1,-390.22409,379.2819)"><g transform="matrix(1,0,0,-1,0,767.9713)"><g transform="rotate(-102.00001,476.00025,71.529474)"><rect fill="none" height="5" id="rect569" width="78" x="0" y="0" /></g></g></g>
    <g transform="matrix(1,0,0,-1,-390.22409,379.2819)"><g transform="matrix(1,0,0,-1,0,767.9713)"><g transform="rotate(-102.00001,476.00025,71.529474)"><rect fill="none" height="5" id="rect570" width="70" x="-2" y="5" /></g></g></g>
    <g transform="matrix(1,0,0,-1,-390.22409,379.2819)"><g transform="matrix(1,0,0,-1,0,767.9713)"><g transform="rotate(-102.00001,476.00025,71.529474)"><rect fill="none" height="5" id="rect571" width="10" x="20" y="10" /></g></g></g>
    <g transform="matrix(1,0,0,-1,-390.22409,379.2819)"><g transform="matrix(1,0,0,-1,0,767.9713)"><g transform="matrix(0.207912,-0.978148,-0.978148,-0.207912,425,552)"><rect fill="none" height="5" id="rect574" width="13" x="74" y="-10" /></g></g></g>
    <g transform="matrix(1,0,0,-1,-390.22409,379.2819)"><g transform="matrix(1,0,0,-1,0,767.9713)"><g transform="matrix(0.207912,-0.978148,-0.978148,-0.207912,425,552)"><rect fill="none" height="5" id="rect575" width="19" x="67" y="-5" /></g></g></g>
    <g transform="matrix(1,0,0,-1,-390.22409,379.2819)"><g transform="matrix(1,0,0,-1,0,767.9713)"><g transform="matrix(0.207912,-0.978148,-0.978148,-0.207912,425,552)"><rect fill="none" height="5" id="rect576" width="78" x="0" y="0" /></g></g></g>
    <g transform="matrix(1,0,0,-1,-390.22409,379.2819)"><g transform="matrix(1,0,0,-1,0,767.9713)"><g transform="matrix(0.207912,-0.978148,-0.978148,-0.207912,425,552)"><rect fill="none" height="5" id="rect577" width="70" x="-2" y="5" /></g></g></g>
    <g transform="matrix(1,0,0,-1,-390.22409,379.2819)"><g transform="matrix(1,0,0,-1,0,767.9713)"><g transform="matrix(0.207912,-0.978148,-0.978148,-0.207912,425,552)"><rect fill="none" height="5" id="rect578" width="10" x="20" y="10" /></g></g></g>
    <g transform="matrix(1,0,0,-1,-390.22409,379.2819)"><g transform="matrix(1,0,0,-1,0,767.9713)"><g transform="rotate(-95.999973,472.04726,10.446645)"><rect fill="none" height="4.5" id="rect581" width="76" x="0" y="0.5" /></g></g></g>
    <g transform="matrix(1,0,0,-1,-390.22409,379.2819)"><g transform="matrix(1,0,0,-1,0,767.9713)"><g transform="rotate(-95.999973,472.04726,10.446645)"><rect fill="none" height="4.5" id="rect583" width="60.5" x="15" y="5" /></g></g></g>
    <g transform="matrix(1,0,0,-1,-390.22409,379.2819)"><g transform="matrix(1,0,0,-1,0,767.9713)"><g transform="matrix(0.104528,-0.994522,-0.994522,-0.104528,419,481)"><rect fill="none" height="4.5" id="rect584" width="76" x="0" y="0.5" /></g></g></g>
    <g transform="matrix(1,0,0,-1,-390.22409,379.2819)"><g transform="matrix(1,0,0,-1,0,767.9713)"><g transform="matrix(0.104528,-0.994522,-0.994522,-0.104528,419,481)"><rect fill="none" height="4.5" id="rect585" width="60.5" x="15" y="5" /></g></g></g>
    <g transform="matrix(1,0,0,-1,-390.22409,379.2819)"><g transform="matrix(1,0,0,-1,0,767.9713)"><g transform="rotate(-85.999998,488.89811,-22.259933)"><rect fill="none" height="4.5" id="rect586" width="60" x="0" y="0" /></g></g></g>
    <g transform="matrix(1,0,0,-1,-390.22409,379.2819)"><g transform="matrix(1,0,0,-1,0,767.9713)"><g transform="rotate(-85.999998,488.89811,-22.259933)"><rect fill="none" height="4.5" id="rect587" width="13" x="0.5" y="4.5" /></g></g></g>
    <g transform="matrix(1,0,0,-1,-390.22409,379.2819)"><g transform="matrix(1,0,0,-1,0,767.9713)"><g transform="rotate(-85.999998,488.89811,-22.259933)"><rect fill="none" height="4.5" id="rect589" width="30" x="30.5" y="4.5001001" /></g></g></g>
    <g transform="matrix(1,0,0,-1,-390.22409,379.2819)"><g transform="matrix(1,0,0,-1,0,767.9713)"><g transform="rotate(-85.999998,488.89811,-22.259933)"><rect fill="none" height="4.5" id="rect588" width="12" x="0.5" y="9" /></g></g></g>
    <g transform="matrix(1,0,0,-1,-390.22409,379.2819)"><g transform="matrix(1,0,0,-1,0,767.9713)"><g transform="rotate(-85.999998,488.89811,-22.259933)"><rect fill="none" height="4.5" id="rect590" width="30" x="31.5" y="9.0010004" /></g></g></g>
    <g transform="matrix(1,0,0,-1,-390.22409,379.2819)"><g transform="matrix(1,0,0,-1,0,767.9713)"><g transform="rotate(-85.999998,488.89811,-22.259933)"><rect fill="none" height="4.5" id="rect591" width="10" x="47" y="13.5" /></g></g></g>
    <g transform="matrix(1,0,0,-1,-390.22409,379.2819)"><g transform="matrix(1,0,0,-1,0,767.9713)"><g transform="matrix(-0.0697565,-0.997564,-0.997564,0.0697565,453,467)"><rect fill="none" height="4.5" id="rect592" width="60" x="0" y="0" /></g></g></g>
    <g transform="matrix(1,0,0,-1,-390.22409,379.2819)"><g transform="matrix(1,0,0,-1,0,767.9713)"><g transform="matrix(-0.0697565,-0.997564,-0.997564,0.0697565,453,467)"><rect fill="none" height="4.5" id="rect593" width="13" x="0.5" y="4.5" /></g></g></g>
    <g transform="matrix(1,0,0,-1,-390.22409,379.2819)"><g transform="matrix(1,0,0,-1,0,767.9713)"><g transform="matrix(-0.0697565,-0.997564,-0.997564,0.0697565,453,467)"><rect fill="none" height="4.5" id="rect594" width="30" x="30.5" y="4.5001001" /></g></g></g>
    <g transform="matrix(1,0,0,-1,-390.22409,379.2819)"><g transform="matrix(1,0,0,-1,0,767.9713)"><g transform="matrix(-0.0697565,-0.997564,-0.997564,0.0697565,453,467)"><rect fill="none" height="4.5" id="rect595" width="12" x="0.5" y="9" /></g></g></g>
    <g transform="matrix(1,0,0,-1,-390.22409,379.2819)"><g transform="matrix(1,0,0,-1,0,767.9713)"><g transform="matrix(-0.0697565,-0.997564,-0.997564,0.0697565,453,467)"><rect fill="none" height="4.5" id="rect596" width="30" x="31.5" y="9.0010004" /></g></g></g>
    <g transform="matrix(1,0,0,-1,-390.22409,379.2819)"><g transform="matrix(1,0,0,-1,0,767.9713)"><g transform="matrix(-0.0697565,-0.997564,-0.997564,0.0697565,453,467)"><rect fill="none" height="4.5" id="rect597" width="10" x="47" y="13.5" /></g></g></g>
    <rect fill="none" height="23.153" id="placeholder-canon-structure-HD" stroke="#e11d48" stroke-dasharray="3 1.5" stroke-opacity="0.9" stroke-width="1.25" width="35.623" x="56.86" y="5.232" />
    <rect fill="none" height="75.85" id="placeholder-canon-structure-CT" stroke="#e11d48" stroke-dasharray="3 1.5" stroke-opacity="0.9" stroke-width="1.25" width="26.49" x="61.427" y="11.807" />
    <rect fill="none" height="63.151" id="placeholder-canon-structure-LT" stroke="#e11d48" stroke-dasharray="3 1.5" stroke-opacity="0.9" stroke-width="1.25" width="24.9" x="39.664" y="16.022" />
    <rect fill="none" height="63.151" id="placeholder-canon-structure-RT" stroke="#e11d48" stroke-dasharray="3 1.5" stroke-opacity="0.9" stroke-width="1.25" width="24.9" x="85.102" y="15.901" />
    <rect fill="none" height="77.339" id="placeholder-canon-structure-LA" stroke="#e11d48" stroke-dasharray="3 1.5" stroke-opacity="0.9" stroke-width="1.25" width="22.276" x="19.262" y="15.772" />
    <rect fill="none" height="77.339" id="placeholder-canon-structure-RA" stroke="#e11d48" stroke-dasharray="3 1.5" stroke-opacity="0.9" stroke-width="1.25" width="22.276" x="108.256" y="15.772" />
    <rect fill="none" height="96.539" id="placeholder-canon-structure-LL" stroke="#e11d48" stroke-dasharray="3 1.5" stroke-opacity="0.9" stroke-width="1.25" width="58.879" x="15.276" y="67.64" />
    <rect fill="none" height="96.539" id="placeholder-canon-structure-RL" stroke="#e11d48" stroke-dasharray="3 1.5" stroke-opacity="0.9" stroke-width="1.25" width="58.879" x="75.391" y="67.64" />
    </g>
</svg>
