<?xml version="1.0" encoding="UTF-8"?>
<!-- Editable MekBay tripod back armor paperdoll. Pink dashed rectangles mark pip areas and are removed at runtime. -->
<svg xmlns="http://www.w3.org/2000/svg" viewBox="43.345 287.763 99.945 63.119" role="img" aria-label="tripod back armor paperdoll">
    <g id="paperdoll-art-armor">
    <g transform="matrix(0.99999752,0,0,-1,-386.79847,757.7908)"><g transform="translate(439.1839,410.9971)"><path id="path3644" d="m 0,0 26.003,-1.645 h 2.741 v -0.797 l 1.667,-1.646 h 24.625 l 1.668,1.646 v 0.797 h 2.742 L 85.976,0 88.169,2.742 90.906,37.84 89.26,39.486 c 0,0 -21.039,2.705 -24.879,3.253 C 63.843,50.827 53.497,54.923 42.987,55.059 32.12,55.199 21.075,51.103 20.518,42.739 16.68,42.191 -3.287,39.486 -3.287,39.486 L -4.932,37.84 -2.194,2.742 Z" style="fill:#c7c8ca;fill-opacity:1;fill-rule:nonzero;stroke:none" /></g></g>
    <g transform="matrix(0.99999752,0,0,-1,-386.79847,757.7908)"><g transform="translate(467.928,409.591)"><path id="path3648" d="m 0,0 v 16.999 c -7.677,4.935 -8.226,27.146 -8.226,27.146" style="fill:#c7c8ca;fill-opacity:1;fill-rule:nonzero;stroke:none" /></g></g>
    <g transform="matrix(0.99999752,0,0,-1,-386.79847,757.7908)"><g transform="translate(435.0765,414.8281)"><path class="armor unitLocation" id="paperdoll-art-armor-LT_R-armorLTR" loc="LT" rear="1" d="M 20.1 42.7 C 15.9 42.1 -3.29 39.5 -3.29 39.5 L -4.93 37.8 L -2.19 2.74 L -5.58e-05 -0.000866 L 26 -1.64 L 28.4 -1.64 L 28.4 -1.36 L 28.4 15.6 C 20.7 20.5 20.1 42.7 20.1 42.7 z" style="fill:#ffffff;fill-opacity:1;fill-rule:nonzero;stroke:none" /></g></g>
    <g transform="matrix(0.99999752,0,0,-1,-386.79847,757.7908)"><g transform="translate(435.0765,414.8281)"><path class="armor unitLocation" id="paperdoll-art-armor-CT_R-armorCTR" loc="CT" rear="1" d="M 64.3 43.4 C 63.2 51.1 53.2 54.9 43 55.1 C 32.1 55.2 21.1 51.1 20.5 42.7 L 20.1 42.7 C 20.1 42.7 20.7 20.5 28.4 15.6 L 28.4 -1.36 L 28.4 -1.64 L 28.7 -1.64 L 28.7 -2.44 L 30.4 -4.09 L 55 -4.09 L 56.6 -2.5 L 56.6 -1.36 L 56.6 15.6 C 64.3 20.5 64.3 42.7 64.3 42.7 L 64.3 43.4 z" style="fill:#ffffff;fill-opacity:1;fill-rule:nonzero;stroke:none" /></g></g>
    <g transform="matrix(0.99999752,0,0,-1,-386.79847,757.7908)"><g transform="translate(435.0765,414.8281)"><path class="armor unitLocation" id="paperdoll-art-armor-RT_R-armorRTR" loc="RT" rear="1" d="M 64.3 43.4 L 64.3 42.7 C 64.3 42.7 64.3 20.5 56.6 15.6 L 56.6 -1.36 L 56.6 -2.5 L 56.7 -2.44 L 56.7 -1.64 L 59.4 -1.64 L 86 -0.000866 L 88.2 2.74 L 90.9 37.8 L 89.3 39.5 C 89.3 39.5 68.2 42.2 64.4 42.7 C 64.4 43 64.4 43.2 64.3 43.4 z" style="fill:#ffffff;fill-opacity:1;fill-rule:nonzero;stroke:none" /></g></g>
    <g transform="matrix(0.99999752,0,0,-1,-386.79847,757.7908)"><g transform="translate(435.0765,414.8281)"><path id="path4476" d="m 0,0 26.003,-1.645 h 2.741 v -0.797 l 1.668,-1.646 h 24.624 l 1.668,1.646 v 0.797 h 2.742 L 85.976,0 88.169,2.742 90.907,37.84 89.26,39.486 c 0,0 -21.039,2.705 -24.879,3.253 C 63.843,50.827 53.497,54.923 42.987,55.059 32.12,55.199 21.075,51.103 20.518,42.739 16.68,42.191 -3.287,39.486 -3.287,39.486 L -4.932,37.84 -2.194,2.742 Z" style="fill:none;stroke:#000000;stroke-width:1.449;stroke-linecap:butt;stroke-linejoin:miter;stroke-miterlimit:4;stroke-dasharray:none;stroke-opacity:1" /></g></g>
    <g transform="matrix(0.99999752,0,0,-1,-386.79847,757.7908)"><g transform="translate(463.8207,413.422)"><path id="path4480" d="m 0,0 v 16.999 c -7.677,4.935 -8.226,27.146 -8.226,27.146" style="fill:none;stroke:#000000;stroke-width:1.449;stroke-linecap:butt;stroke-linejoin:miter;stroke-miterlimit:4;stroke-dasharray:none;stroke-opacity:1" /></g></g>
    <g transform="matrix(0.99999752,0,0,-1,-386.79847,757.7908)"><g transform="translate(491.7809,413.422)"><path id="path4484" d="m 0,0 v 16.999 c 7.677,4.935 7.677,27.146 7.677,27.146" style="fill:none;stroke:#000000;stroke-width:1.449;stroke-linecap:butt;stroke-linejoin:miter;stroke-miterlimit:4;stroke-dasharray:none;stroke-opacity:1" /></g></g>
    <rect fill="none" height="59.29" id="placeholder-canon-armor-CT_R" stroke="#e11d48" stroke-dasharray="3 1.5" stroke-opacity="0.9" stroke-width="1.25" width="44.2" x="68.377" y="287.763" />
    <rect fill="none" height="44.34" id="placeholder-canon-armor-LT_R" stroke="#e11d48" stroke-dasharray="3 1.5" stroke-opacity="0.9" stroke-width="1.25" width="33.33" x="43.347" y="300.263" />
    <rect fill="none" height="45.9" id="placeholder-canon-armor-RT_R" stroke="#e11d48" stroke-dasharray="3 1.5" stroke-opacity="0.9" stroke-width="1.25" width="34.3" x="104.877" y="299.563" />
    </g>
</svg>
