<?xml version="1.0" encoding="UTF-8"?>
<!-- Editable MekBay vee-turret armor paperdoll. Pink dashed rectangles mark pip areas and are removed at runtime. -->
<svg xmlns="http://www.w3.org/2000/svg" viewBox="14.062 25.967 142.763 241.494" role="img" aria-label="vee-turret armor paperdoll">
    <g id="paperdoll-art-armor">
    <g transform="matrix(1,0,0,-1,-402.67674,716.15846)"><g transform="translate(557.6664,472.0991)"><path id="path267" d="m 0,0 c 0,0 1.835,-18.813 -16.517,-22.942 l 0,2.294 -39.456,0 0,-2.753 -22.939,0 0,2.753 -39,0 0,-2.294 C -131.677,-22.942 -133.969,0 -133.969,0 l -2.754,99.56 11.93,110.572 5.505,4.588 8.26,-8.259 87.171,0 7.34,8.259 4.588,-4.13 L 1.835,99.1 0,0 Z" style="fill:#c7c8ca;fill-opacity:1;fill-rule:nonzero;stroke:none" /></g></g>
    <g transform="matrix(1,0,0,-1,-402.67674,716.15846)"><g transform="translate(553.4614,475.4717)"><path id="path284" d="m 0,0 c 0,0 1.835,-18.813 -16.517,-22.942 l 0,2.294 -39.456,0 0,-2.753 -22.939,0 0,2.753 -39,0 0,-2.294 C -131.677,-22.942 -133.969,0 -133.969,0 l -2.754,99.56 11.93,110.572 5.505,4.588 8.26,-8.259 87.171,0 7.34,8.259 4.588,-4.13 L 1.835,99.1 0,0 Z" style="fill:#ffffff;fill-opacity:1;fill-rule:nonzero;stroke:none" /></g></g>
    <g transform="matrix(1,0,0,-1,-402.67674,716.15846)"><g transform="translate(553.4614,475.4717)"><path id="path285" d="m 0,0 c 0,0 1.835,-18.813 -16.517,-22.942 l 0,2.294 -39.456,0 0,-2.753 -22.939,0 0,2.753 -39,0 0,-2.294 C -131.677,-22.942 -133.969,0 -133.969,0 l -2.754,99.56 11.93,110.572 5.505,4.588 8.26,-8.259 87.171,0 7.34,8.259 4.588,-4.13 L 1.835,99.1 0,0 Z" style="fill:none;stroke:#000000;stroke-width:1.449;stroke-linecap:butt;stroke-linejoin:miter;stroke-miterlimit:4;stroke-dasharray:none;stroke-opacity:1" /></g></g>
    <g transform="matrix(1,0,0,-1,-402.67674,716.15846)"><g transform="translate(441.0553,480.9763)"><path id="path287" d="m 0,0 90.843,0 0,11.011 L 0,11.011 0,0 Z" style="fill:none;stroke:#000000;stroke-width:0.96600002;stroke-linecap:butt;stroke-linejoin:miter;stroke-miterlimit:4;stroke-dasharray:none;stroke-opacity:1" /></g></g>
    <g transform="matrix(1,0,0,-1,-402.67674,716.15846)"><g transform="translate(462.1604,602.5604)"><path id="path288" d="m 0,0 -16.058,0 -15.6,-73.868 16.975,0" style="fill:#c7c8ca;fill-opacity:1;fill-rule:nonzero;stroke:#000000;stroke-width:0.96600002;stroke-linecap:butt;stroke-linejoin:miter;stroke-miterlimit:4;stroke-dasharray:none;stroke-opacity:1" /></g></g>
    <g transform="matrix(1,0,0,-1,-402.67674,716.15846)"><g transform="translate(509.8747,602.5604)"><path id="path289" d="m 0,0 15.599,0 16.976,-72.95 -18.352,0" style="fill:#c7c8ca;fill-opacity:1;fill-rule:nonzero;stroke:none" /></g></g>
    <g transform="matrix(1,0,0,-1,-402.67674,716.15846)"><g transform="translate(506.429,617.6999)"><path id="path290" d="M 0,0 35.099,67.903" style="fill:none;stroke:#000000;stroke-width:0.96600002;stroke-linecap:butt;stroke-linejoin:miter;stroke-miterlimit:4;stroke-dasharray:none;stroke-opacity:1" /></g></g>
    <g transform="matrix(1,0,0,-1,-402.67674,716.15846)"><g transform="translate(429.1204,685.6036)"><path id="path291" d="M 0,0 36.477,-67.903" style="fill:none;stroke:#000000;stroke-width:0.96600002;stroke-linecap:butt;stroke-linejoin:miter;stroke-miterlimit:4;stroke-dasharray:none;stroke-opacity:1" /></g></g>
    <g transform="matrix(1,0,0,-1,-402.67674,716.15846)"><g transform="translate(532.0237,491.9884)"><path id="path292" d="M 0,0 20.535,-23.576" style="fill:none;stroke:#000000;stroke-width:0.96600002;stroke-linecap:butt;stroke-linejoin:miter;stroke-miterlimit:4;stroke-dasharray:none;stroke-opacity:1" /></g></g>
    <g transform="matrix(1,0,0,-1,-402.67674,716.15846)"><g transform="translate(441.0509,491.528)"><path id="path293" d="M 0,0 -19.995,-22.082" style="fill:none;stroke:#000000;stroke-width:0.96600002;stroke-linecap:butt;stroke-linejoin:miter;stroke-miterlimit:4;stroke-dasharray:none;stroke-opacity:1" /></g></g>
    <g transform="matrix(1,0,0,-1,-402.67674,716.15846)"><g transform="translate(509.87,602.5604)"><path id="path294" d="m 0,0 15.599,0 16.976,-72.95 -18.352,0" style="fill:none;stroke:#000000;stroke-width:0.96600002;stroke-linecap:butt;stroke-linejoin:miter;stroke-miterlimit:4;stroke-dasharray:none;stroke-opacity:1" /></g></g>
    <g transform="matrix(1,0,0,-1,-402.67674,716.15846)"><g transform="translate(465.373,617.6999)"><path id="path295" d="m 0,0 -3.901,-20.416 4.358,0 2.065,2.982 37.163,0 1.606,-2.982 3.899,0 L 40.832,0 0,0 Z" style="fill:#c7c8ca;fill-opacity:1;fill-rule:nonzero;stroke:none" /></g></g>
    <g transform="matrix(1,0,0,-1,-402.67674,716.15846)"><g transform="translate(506.4337,617.4712)"><path id="path296" d="m 0,0 25.464,-125.483 -90.843,0 24.318,125.712 40.946,0 L 0,0 Z m 3.899,-20.188 -3.669,0 -1.605,2.983 -37.163,0 -2.066,-2.983 -4.358,0" style="fill:none;stroke:#000000;stroke-width:0.96600002;stroke-linecap:butt;stroke-linejoin:miter;stroke-miterlimit:4;stroke-dasharray:none;stroke-opacity:1" /></g></g>
    <g transform="matrix(1,0,0,-1,-402.67674,716.15846)"><g transform="translate(522.44,498.5309)"><path id="path1116" d="m 0,0 -1.369,-2.739 -68.45,0 -1.368,2.739 10.951,64.343 1.37,1.368 9.582,0 0,6.846 12.321,5.476 0,1.37 1.369,0 1.369,4.106 1.369,1.369 -1.369,1.369 1.369,4.107 5.476,0 1.369,-4.107 -1.369,-1.369 1.369,-1.369 1.37,-4.106 1.368,0 0.001,-6.846 1.368,0 0,-6.846 9.583,0 1.37,-1.368 L 0,0 Z" style="fill:none;stroke:#000000;stroke-width:0.96600002;stroke-linecap:butt;stroke-linejoin:miter;stroke-miterlimit:4;stroke-dasharray:none;stroke-opacity:1" /></g></g>
    <g transform="matrix(1,0,0,-1,-402.67674,716.15846)"><g transform="translate(489.5836,571.088)"><path id="path1120" d="m 0,0 -4.107,0 0,6.844 L 0,6.844 0,0 Z" style="fill:none;stroke:#000000;stroke-width:0.96600002;stroke-linecap:butt;stroke-linejoin:miter;stroke-miterlimit:4;stroke-dasharray:none;stroke-opacity:1" /></g></g>
    <g transform="matrix(1,0,0,-1,-402.67674,716.15846)"><g transform="translate(499.1673,571.088)"><path id="path1124" d="m 0,0 -4.107,0 0,6.844 L 0,6.844 0,0 Z" style="fill:none;stroke:#000000;stroke-width:0.96600002;stroke-linecap:butt;stroke-linejoin:miter;stroke-miterlimit:4;stroke-dasharray:none;stroke-opacity:1" /></g></g>
    <g transform="matrix(1,0,0,-1,-402.67674,716.15846)"><g transform="translate(494.3754,571.088)"><path id="path1128" d="m 0,0 -4.107,0 0,6.844 L 0,6.844 0,0 Z" style="fill:none;stroke:#000000;stroke-width:0.96600002;stroke-linecap:butt;stroke-linejoin:miter;stroke-miterlimit:4;stroke-dasharray:none;stroke-opacity:1" /></g></g>
    <g transform="matrix(1,0,0,-1,-402.67674,716.15846)"><g transform="translate(489.5841,583.4092)"><path id="path1132" d="M 0,0 5.476,0" style="fill:none;stroke:#000000;stroke-width:0.96600002;stroke-linecap:butt;stroke-linejoin:miter;stroke-miterlimit:4;stroke-dasharray:none;stroke-opacity:1" /></g></g>
    <g transform="matrix(1,0,0,-1,-402.67674,716.15846)"><g transform="translate(473.157,571.0877)"><path id="path1136" d="M 0,0 12.32,0" style="fill:none;stroke:#000000;stroke-width:0.96600002;stroke-linecap:butt;stroke-linejoin:miter;stroke-miterlimit:4;stroke-dasharray:none;stroke-opacity:1" /></g></g>
    <g transform="matrix(1,0,0,-1,-402.67674,716.15846)"><g transform="translate(499.1683,564.2426)"><path id="path1140" d="m 0,0 -2.226,0 0,5.476 L 0,5.476 0,0 Z" style="fill:none;stroke:#000000;stroke-width:0.96600002;stroke-linecap:butt;stroke-linejoin:miter;stroke-miterlimit:4;stroke-dasharray:none;stroke-opacity:1" /></g></g>
    <g transform="matrix(1,0,0,-1,-402.67674,716.15846)"><g transform="translate(483.5949,564.2426)"><path id="path1144" d="m 0,0 -2.226,0 0,5.476 L 0,5.476 0,0 Z" style="fill:none;stroke:#000000;stroke-width:0.96600002;stroke-linecap:butt;stroke-linejoin:miter;stroke-miterlimit:4;stroke-dasharray:none;stroke-opacity:1" /></g></g>
    <g transform="matrix(1,0,0,-1,-402.67674,716.15846)"><g transform="translate(496.9428,564.2426)"><path id="path1148" d="m 0,0 -2.225,0 0,5.476 L 0,5.476 0,0 Z" style="fill:none;stroke:#000000;stroke-width:0.96600002;stroke-linecap:butt;stroke-linejoin:miter;stroke-miterlimit:4;stroke-dasharray:none;stroke-opacity:1" /></g></g>
    <g transform="matrix(1,0,0,-1,-402.67674,716.15846)"><g transform="translate(494.7193,564.2426)"><path id="path1152" d="m 0,0 -2.225,0 0,5.476 L 0,5.476 0,0 Z" style="fill:none;stroke:#000000;stroke-width:0.96600002;stroke-linecap:butt;stroke-linejoin:miter;stroke-miterlimit:4;stroke-dasharray:none;stroke-opacity:1" /></g></g>
    <g transform="matrix(1,0,0,-1,-402.67674,716.15846)"><g transform="translate(492.4938,564.2426)"><path id="path1156" d="m 0,0 -2.226,0 0,5.476 L 0,5.476 0,0 Z" style="fill:none;stroke:#000000;stroke-width:0.96600002;stroke-linecap:butt;stroke-linejoin:miter;stroke-miterlimit:4;stroke-dasharray:none;stroke-opacity:1" /></g></g>
    <g transform="matrix(1,0,0,-1,-402.67674,716.15846)"><g transform="translate(490.2694,564.2426)"><path id="path1160" d="m 0,0 -2.226,0 0,5.476 L 0,5.476 0,0 Z" style="fill:none;stroke:#000000;stroke-width:0.96600002;stroke-linecap:butt;stroke-linejoin:miter;stroke-miterlimit:4;stroke-dasharray:none;stroke-opacity:1" /></g></g>
    <g transform="matrix(1,0,0,-1,-402.67674,716.15846)"><g transform="translate(488.0439,564.2426)"><path id="path1164" d="m 0,0 -2.225,0 0,5.476 L 0,5.476 0,0 Z" style="fill:none;stroke:#000000;stroke-width:0.96600002;stroke-linecap:butt;stroke-linejoin:miter;stroke-miterlimit:4;stroke-dasharray:none;stroke-opacity:1" /></g></g>
    <g transform="matrix(1,0,0,-1,-402.67674,716.15846)"><g transform="translate(485.8204,564.2426)"><path id="path1168" d="m 0,0 -2.225,0 0,5.476 L 0,5.476 0,0 Z" style="fill:none;stroke:#000000;stroke-width:0.96600002;stroke-linecap:butt;stroke-linejoin:miter;stroke-miterlimit:4;stroke-dasharray:none;stroke-opacity:1" /></g></g>
    <g transform="matrix(1,0,0,-1,-402.67674,716.15846)"><g transform="translate(478.6331,564.2426)"><path id="path1172" d="m 0,0 -2.225,0 0,5.476 L 0,5.476 0,0 Z" style="fill:none;stroke:#000000;stroke-width:0.96600002;stroke-linecap:butt;stroke-linejoin:miter;stroke-miterlimit:4;stroke-dasharray:none;stroke-opacity:1" /></g></g>
    <g transform="matrix(1,0,0,-1,-402.67674,716.15846)"><g transform="translate(462.2037,544.0776)"><path id="path1176" d="m 0,0 49.285,0 -2.738,17.427 -43.809,0 L 0,0 Z" style="fill:#c7c8ca;fill-opacity:1;fill-rule:nonzero;stroke:none" /></g></g>
    <g transform="matrix(1,0,0,-1,-402.67674,716.15846)"><g transform="translate(462.2037,544.0776)"><path id="path1180" d="m 0,0 49.285,0 -2.738,17.427 -43.809,0 L 0,0 Z" style="fill:none;stroke:#000000;stroke-width:0.96600002;stroke-linecap:butt;stroke-linejoin:miter;stroke-miterlimit:4;stroke-dasharray:none;stroke-opacity:1" /></g></g>
    <g transform="matrix(1,0,0,-1,-402.67674,716.15846)"><path id="path286" d="m 441.055,480.976 90.843,0 0,11.011 -90.843,0 0,-11.011 z" style="fill:#c7c8ca;fill-opacity:1;fill-rule:nonzero;stroke:none" /></g>
    </g>
</svg>
